<svg overflow="visible" width="100%" height="100%" viewBox="0 0 47.355 116.079" xmlns="http://www.w3.org/2000/svg"><path d="M26.076.246a25.216,25.216,0,0,0-11.2,1,60.116,60.116,0,0,0-10.4,4.5,8.24,8.24,0,0,0-3.9,5.3,12.294,12.294,0,0,0-.1,7.1,7.923,7.923,0,0,0,3.9,4.7,13.839,13.839,0,0,0,5.85,1.95,50.022,50.022,0,0,0,5.25.2,18.135,18.135,0,0,1,2.7.05q.45.051,1.1.9a5.09,5.09,0,0,1,.95,2.1q.251,1.3.55,4.1l3.9,39q.4,3.6-.2,4.3-.5.6-4.2,1.1a67.454,67.454,0,0,0-8,2.2q-3,.8-2.3,4.3,1.5,8.8,2.5,12.2a32.654,32.654,0,0,0,5.6,11.3,29.188,29.188,0,0,0,11.8,8.6q3.5,1.4,5.5.7,1.7-.7,4.4-4.1a26.681,26.681,0,0,0,4.1-7.9q.4-1.1,2.3-8.6a36.531,36.531,0,0,0-.3-19.5,6.56,6.56,0,0,0-1.6-3q-.9-.6-3.3-.1l-10.6,2.6q-2,.7-2.6-.8a9.433,9.433,0,0,1-.6-3.2l-4-40.4q-.4-4.5.3-5.4.6-.9,3.6-1.65a26.7,26.7,0,0,0,4.8-1.6,19.266,19.266,0,0,0,3.35-2.2,9.021,9.021,0,0,0,2.55-4.6q.9-3.35-2.4-8.75a12.753,12.753,0,0,0-9.3-6.4M19.526,22.7a13.738,13.738,0,0,1-3.1.05q-1.549-.2-6.8-1.1-5.3-.9-6.15-5.85-.8-4.95,2-7.3,2.751-2.4,11.45-5t13.7,2.15q4.95,4.7,4.1,8.85-.849,4.1-3.5,5.3a30.867,30.867,0,0,1-6.45,1.95q-3.75.75-5.25.95m-6.2,58.55q.951-.8,6.65-1.9l19-3.4q3-.5,3.55-.2t1.6,3.25a20.57,20.57,0,0,1,.6,8.3,74.536,74.536,0,0,1-2.2,12.1,30.777,30.777,0,0,1-5.55,11.55,6.21,6.21,0,0,1-2.2,1.8,3.729,3.729,0,0,1-2.8-.1,26.145,26.145,0,0,1-12.3-8.6,28.192,28.192,0,0,1-4.7-9.5q-.9-3.2-1.75-7.85t.1-5.45m7.55-75.1q-8.6-.5-11.3,3.9-2.7,4.35.5,5.9a32.824,32.824,0,0,0,4.8,2,19.615,19.615,0,0,0,11.8.2q7.5-1.8,3.5-7.6a10.937,10.937,0,0,0-9.3-4.4m-6.65,8.7q-4.149-1.7-1.25-4,2.2-1.7,7.3-1.5t7.1,2.1q2.6,2.4-.6,3.6a19.866,19.866,0,0,1-6.2,1.3,16,16,0,0,1-6.35-1.5"/></svg>