<svg overflow="visible" width="100%" height="100%" viewBox="0 0 115.084 114.865" xmlns="http://www.w3.org/2000/svg"><path d="M33.578.08q-2.7,0-3.4.7-.6.6-.6,3.3a76.543,76.543,0,0,0,.1,9.4q.8,7.3-6.1,13.2-3.2,2.8-20.5,18a20.458,20.458,0,0,0-2.7,2.75,1.83,1.83,0,0,0-.3,1.65,1.78,1.78,0,0,0,1.45,1.2q1.15.3,1.65,2.2a16.254,16.254,0,0,1,.4,3.3q1.4,13,1.7,16.7a153.771,153.771,0,0,1,.6,16.9q-.2,6.6-.5,9.3a39.234,39.234,0,0,1-1.9,9.2q-.9,2.5-.1,3.5.7.9,3.6.9,2.4,0,21.8-.8,13.2-.6,21.8-.3,6.2.3,13.4,1.05,7.151.75,18.1,2.25a31.739,31.739,0,0,0,6,.35,6.272,6.272,0,0,0,3-.7,21.4,21.4,0,0,0,2.8-3.1,41.508,41.508,0,0,0,3.95-6q1.9-3.45,4.5-9.45,2.55-6,11.35-29.1a22.785,22.785,0,0,0,1.4-8.1q-.2-13.2-.4-19.9-.2-11.9-1.25-15.8a11.927,11.927,0,0,0-2.95-5.65,5.214,5.214,0,0,0-3.2-1.35q-2.2-.1-1.8-2.6.8-6.7.8-7.4a3.986,3.986,0,0,0-.7-3,4.748,4.748,0,0,0-3.1-.9q-35.5-1.4-45.6-1.6-10.4-.3-23.3-.1m69.4,5.3q.4.5.2,3.3-.4,5.6-1.5,6.8-.9,1-6.6,2.6a68.721,68.721,0,0,1-17.9,2q-12-.3-18.3-.15-11.2.45-22.2-.1-2.9-.15-3.4-.65t-.7-3.4q-.6-10.5-.6-10.9-.1-3.5,3.2-3.1l64.8,2.9q2.6.2,3,.7m-72.8,18.6q1.2-1.1,5-1.1,17.6-.1,37.2,0,19.551.1,26.5.15h.1q4.251-.05,1.7,3.65-1.451,2.2-3.6,5.3a83.127,83.127,0,0,0-7,10.4q-1.85,2.4-6.65,3.45-4.8,1-22.95,1.3t-37.55.4q-19.449.1-10.15-8.15,9.3-8.3,17.4-15.4m58.2,35.5a29.489,29.489,0,0,1,5.8-18.5q3.6-5.149,8.55-12.45,5.55-8.2,6.3-9.25.7-1.1,2.45,21.5.6,9,.7,18.1a25.993,25.993,0,0,1-1.4,7.7q-3.2,8.5-10.1,25.3-3.6,9.6-6.2,13.3a54.945,54.945,0,0,1-4.25,5.25q-1.55,1.75-1.4-2,0-3.2-.15-8.75l-.3-40.2m-3.4-9.3q.5.6.6,3.4.6,16.5.65,43.2,0,7.5.15,11.5.15,3.55-2.85,3.1t-4.15-.6q-13.2-1.7-23.2-2.3a181.8,181.8,0,0,0-23.3-.1q-4.9.4-12.4.6-8.2.2-11.55.4t-2.25-2.15a23.193,23.193,0,0,0,1.5-6.65,125.205,125.205,0,0,0,.2-13.15q-.15-8.85-.75-17.15-.649-8.3-1.55-15.8-.2-2.8.3-3.4.5-.5,3.3-.6,14.4-.4,71.9-.9,2.8,0,3.4.6m-24.4,5.65q-10,.4-20.45.6-10.5.2-17.35,0-6.9-.2-6.95,2.9a37.829,37.829,0,0,0,.05,4.55q.15,1.45.25,2.6t.35,2.65q.2,1.5.5,3.5.3,1.95.6,5.25.051.7.1,1.7.1,1,.1,1.75a14.829,14.829,0,0,0,.1,1.6q.1.9.15,1.5.051.55.55,5.45t.8,5.3q1,1.3,8,1.2,7.1.2,21.1.5,12.2.4,21,1.1,2.8.2,3.7-.6.8-.9.6-3.9,0-6-1.1-17.4-1-11.8-1.1-17.4-.1-2.5-.6-2.9-.4-.4-10.4.05m-39.7,11.45q-1.3-.1-2.3-1.9a2.977,2.977,0,0,1-.4-2.9q.3-1,1.9-1,9.851-.55,20.65-.5t19.65.2q8.8.1,9.25,2.2a4.67,4.67,0,0,1-.1,2.15q-.3,1.05-1.9,1.3-1.6.15-7.55.25-6,.1-12.15.4-6.2.251-10.5.2t-9.1-.1q-4.85-.1-7.45-.3m.8,13.5q-.6-.5-1.2-3.5-1-5.2-.2-6.1.7-.8,12.7-.65,11.95.15,22-.4,10-.55,12.45-.65,2.4-.1,2.4,1.75l.35,5.55a2.494,2.494,0,0,1-.5,2,3.344,3.344,0,0,1-2.1.5q-7.2-.2-10.9,0-21.3,1-31.6,1.7-2.9.2-3.4-.2m-.6,8.7-.1-1.5q-.1-3.2.5-3.8.5-.6,3.7-.7l22.2-.8q21.45-.8,22.4.1a2.54,2.54,0,0,1,1,1.6q0,.75.35,5,.351,4.2-.35,5.1-.8.9-5,.5a353.57,353.57,0,0,0-40.6-1.6q-2.8,0-3.4-.6-.5-.5-.7-3.3m61.95-51.4q-.851-1.45-5.2-1.35-4.4.1-5.45,1a11.2,11.2,0,0,0-2.3,2.65,3.568,3.568,0,0,0-.15,3.85q1,2,6.05,1.1,5-.949,6.45-3.35,1.4-2.449.6-3.9m-4.2.6q2.05-.05,1.45,1.85a3.856,3.856,0,0,1-2.05,2.45,11.891,11.891,0,0,1-3.25.8,5.761,5.761,0,0,1-2.4-.05,1.519,1.519,0,0,1-.85-.85,1.359,1.359,0,0,1-.05-.95,8.686,8.686,0,0,1,.75-1.45,3.394,3.394,0,0,1,2.5-1.4,24.147,24.147,0,0,1,3.9-.4m-6.5-12.25q-4.1,1.8-3.35,5.65.8,3.9,5.2,3.75a17.7,17.7,0,0,0,6.1-.95q1.75-.75,2.85-4.55,1.05-3.85-2.8-4.75a11.846,11.846,0,0,0-8,.85m-.6,5.65a3.039,3.039,0,0,1,0-2.35q.45-.649,4.75-1.6,4.251-.949,4.3,1.9,0,2.85-4.3,3.3t-4.75-1.25m-38.25,3.55a10.761,10.761,0,0,0-3.25.2,4.4,4.4,0,0,0-2.75,1.95,3.7,3.7,0,0,0-.55,3.35,4.318,4.318,0,0,0,3.05,2.6,10.3,10.3,0,0,0,5.45.25q2.9-.6,3.6-1.45a4.5,4.5,0,0,0,.85-2,2.827,2.827,0,0,0-.7-2.2,6.449,6.449,0,0,0-2.5-1.85,9.162,9.162,0,0,0-3.2-.85m3.8,4.1q.7,1.2-.6,1.45a14.034,14.034,0,0,1-4.9.35,2.566,2.566,0,0,1-2.15-2.1q-.45-1.751,3.25-1.3,3.651.4,4.4,1.6m9.8-12.45a13.585,13.585,0,0,0-2.4-1.9,8.017,8.017,0,0,0-3.45-1.25,8.792,8.792,0,0,0-3.8.35,7.984,7.984,0,0,0-3.35,2,4.873,4.873,0,0,0-1.4,3.6q0,2.15,3,3.55a13.823,13.823,0,0,0,5.1,1.5,8.553,8.553,0,0,0,3.55-.55,5.541,5.541,0,0,0,2.5-2.9,8.41,8.41,0,0,0,1.05-2.95,2.771,2.771,0,0,0-.8-1.45m-8.8-1a5.076,5.076,0,0,1,4.5,1q3.15,2.25,1.75,3.7a4.916,4.916,0,0,1-3.2,1.7,7.117,7.117,0,0,1-3.9-.9q-2-1.05-2.1-1.65a2.327,2.327,0,0,1-.05-1.05,3.809,3.809,0,0,1,3-2.8"/></svg>