<svg overflow="visible" width="100%" height="100%" viewBox="0 0 94.184 115.683" xmlns="http://www.w3.org/2000/svg"><path d="M57.553,48.066q.7-2.35-2.5-.85-3.2,1.449-7.55-.15-4.4-1.65-5.5,1.25.4.65,3.9,2a12.744,12.744,0,0,0,7.35.55q3.75-.651,4.3-2.8m35.6-36.9a7.054,7.054,0,0,0-3.7-3.1,12.919,12.919,0,0,0-3.35-1q-.949-.051-1.25.5-.45,1.5.5,2,.9.5,2.5,1.3,6.1,3.3,3.1,9-2.4,4.3-8.3,7.7a1.14,1.14,0,0,0-.4.8q-.2.6,0,.8a1.593,1.593,0,0,0,.9.5q.6.2.8,0,1.3-.8,4-2.5a25.1,25.1,0,0,0,3.6-2.9,10.416,10.416,0,0,0,1.9-2.9,6.262,6.262,0,0,0,.6-2.35q.5-5.751-.9-7.85m-44.3-1.7a12.8,12.8,0,0,0-.2-2.6,1.472,1.472,0,1,0-2.9.5,16.219,16.219,0,0,0,.3,2.6q0,1.5.3,6.4a56.836,56.836,0,0,1,.2,6.4q-.1,3-.8,3.7a6.5,6.5,0,0,1-3,1.05q-2.4.45-2.1,2.1.551.649,2.55.6,1.95-.051,3.85,3.55a4.464,4.464,0,0,0,2.45,2,10.947,10.947,0,0,0,2.45.6q.8.05,1.1-1.3.2-1.7-1.3-1.95a2.96,2.96,0,0,1-2.1-1.15,4.059,4.059,0,0,1-.5-2.3l.1-8.4q-.4-11.6-.4-11.8m12.2,2.6q2.1-1,1.9-2.3a44.344,44.344,0,0,0-1.4-5.6,6.641,6.641,0,0,1,4.2.8,16.129,16.129,0,0,1,2.7,2.15,3.065,3.065,0,0,0,2.6,1.15q1.5-.2-.8-3.6t-10.7-4.3a1.506,1.506,0,0,0-.9.4q-.5.4-.5.6a75.612,75.612,0,0,0,.8,9.1,2.109,2.109,0,0,0,.9,1.1q.9.7,1.2.5m-54.1-2.2q2.5-2.8,5.2-1,.8.4,2.5,1.4,1.6.7,2.35.15a2.012,2.012,0,0,0,.8-1q.1-.45-1.35-2.1-1.5-1.65-5.3-1.85a7.372,7.372,0,0,0-6.4,2.5,16.445,16.445,0,0,0-3.8,10.4q-.2,6.5,3.1,10.3a5.04,5.04,0,0,1,1.4,2.8,4.6,4.6,0,0,1-.8,2.7q-2.4,4.8-1.5,6.4a1.827,1.827,0,0,1,1.1,1.9,15.225,15.225,0,0,1-.8,2q-4,11.1-2.3,19.4a15.657,15.657,0,0,1-.2,8.6q-1.8,3.9-.2,11.1.6,2.6,3.8,2.4.5,0,.8.9a11.7,11.7,0,0,0,1.6,5.2q.8,1.6,2.8,4.7,1.4,2.6,2.6,3.1a34.947,34.947,0,0,1,3.2,1.6,13.333,13.333,0,0,1,3.9,3.5,13.68,13.68,0,0,0,5.9,3.5q.6.2,1.8-.8,1.8-1.4,2.1-1.6.1-.1,1-.7a20.82,20.82,0,0,0,7.2,8.3q6,4.9,14.5-2.1a4.855,4.855,0,0,1,5.5-.6q2.7,1.3,8.3,3.4,2.7,1.1,4.3-.9,5.6-7,8.6-10.3a8.547,8.547,0,0,0,1.9-3.7,20.984,20.984,0,0,0,.3-4.1,81.654,81.654,0,0,1,.4-9.3q.5-6.3.6-9.5.05-3.251.1-3.5.049-.2.15-2.55.05-2.4-.2-6.15a26.318,26.318,0,0,1-.05-4.9q.6-2.4.8-3.6a5.451,5.451,0,0,0-.4-3.6,2.894,2.894,0,0,1,0-2.4,22.047,22.047,0,0,0,.6-8.6q-.9-5.7-1.1-8.6-.1-1.9-4-3.8-2.4-.9-4.2,2a50.128,50.128,0,0,1-2.4,4.8q-11.6-.7-11.9-.6-2.5.9-.6,6.9a30.45,30.45,0,0,0,1.4,3.7,11.553,11.553,0,0,1,1.55,5.2q-.1,2.049-4.75,3.5-3,.8-9.4.25-3.5-.6-7.8-1.35Q33,51.715,34,50.866q.95-.85,4.75-4.65a85.994,85.994,0,0,1,6.5-5.75q2.2-1.9,1-3.9a6.214,6.214,0,0,0-3.35-3,27.274,27.274,0,0,0-7.05-.3,27.76,27.76,0,0,0-6.2,2.1l-8.9,6.3v-3.3q0-2-3-1.6-.2.1-1-1.6a5.858,5.858,0,0,1-1-3.7q0-.5.5-4a5.14,5.14,0,0,0-.8-3.6,4.978,4.978,0,0,0-2.8-2.2,1.593,1.593,0,0,0-.8,0,2.287,2.287,0,0,0-.5.3,3.61,3.61,0,0,1-1.8,2,6.589,6.589,0,0,0-1.9,1.5q-.7,1.6-1.3,1.5-.5-.1-1.1-1.3a14.7,14.7,0,0,1-1.5-8,12.782,12.782,0,0,1,3.2-7.8m5.9,26.4-.5-9.5.9-.2v9.6l-.4.1m-4-4.3q1.5,4.5,1,5.4-.4,1-4.8,2.1l3.8-7.5m65.1,4.1q.1-1.7,3.1-3.9a7.126,7.126,0,0,1,.6,4.1,14.989,14.989,0,0,1-1.3,3.8q-2.6-2.3-2.4-4m-39.1,1.3q4.55-1.65,7.1-.85,2.5.8-3.65,5.1a55.629,55.629,0,0,0-10.75,9.75q1.45,3.249,11.8,4.9a42.008,42.008,0,0,1,5.2.65q5.2.95,7,1.2h.05a15.349,15.349,0,0,0,5.35-.55,24.25,24.25,0,0,0,4.9-2.05,5.89,5.89,0,0,0,2.9-3.55q.7-2.1-.9-5.8l-3.5-8.3a30.591,30.591,0,0,1,6.5.2,8.578,8.578,0,0,1,5.2,2.7q4.4,4.8,5,5.7a9.43,9.43,0,0,1,1.6,7.4,18.774,18.774,0,0,0-.2,5.6q.1,1.8.4,5.5v2.35q-.05.6-.1,2.25t-.5,14.7a48.333,48.333,0,0,0-.3,7.9,17.085,17.085,0,0,1-5.4,14.1l-2,2.2q-2.3,2.6-3.2,2.9-.9.2-4.1-1.1a54.539,54.539,0,0,0-6-2.4q-3.7-1.2-5.9.8a20.562,20.562,0,0,1-2.9,2q-4.4,3.8-8.9,1.1-2.8-1.8-6.7-7.3-1.5-2-2.4-2.2-.8-.2-2.7,1.2a5.35,5.35,0,0,1-3.3,1.4q-1.2,0-3-1.7-3-2.9-3.9-8.5-.6-9.6-1.1-9.6-3.45-.051-2.5,12.4-4.7-5.8-5.4-9.8,0-.2-.7-5.3a8.927,8.927,0,0,0-1.9-4.9,14.319,14.319,0,0,0-.8,1.4l-1.3,3.1q-2-2-1.2-5.7,1.3-4.3,1.7-6.1a81.477,81.477,0,0,0,2.1-8.6q.5-2.3-1.4-1.9-.8.5-1.1.7-.5.2-.4-1.1a75.8,75.8,0,0,1,1.5-11.4q1.7-6.4,7.3-7.6,1.2-.2,1.9-.35a7.521,7.521,0,0,1,1.65-.15,3.1,3.1,0,0,1,1.65.4,6.5,6.5,0,0,1,.3,3.4,25.093,25.093,0,0,0-.1,4.9q.2,1.149,2.05.55a1.993,1.993,0,0,0,1.35-1.15,8.41,8.41,0,0,1,2.85-4.2q1.7-1.2,4-2.95a25.572,25.572,0,0,1,6.85-3.35m44.9,3.5.6,4.6q-1.9-1-1.6-2.3.7-1.6,1-2.3m-65.85,7.6-.75.2a.938.938,0,0,0-.6.5,101.239,101.239,0,0,0-4.6,11.4A5.753,5.753,0,0,0,8,62.816a9.557,9.557,0,0,0,.55,2.15,2.862,2.862,0,0,0,1.7,1.4q2.1.549,1.1-1.65a6.477,6.477,0,0,1-.6-4.05,17.559,17.559,0,0,1,1.2-3.2q2.1-4.8,2.75-6.6.6-1.8.15-2.35-.2-.2-.95-.05M31.753.516a6.751,6.751,0,0,0-4.8-.15,15.177,15.177,0,0,0-7.1,4.2q3.1,2.3,6.45-.3,3.35-2.65,3.6,0t1.65,3.5q1.35,0,.8-1.8a3.555,3.555,0,0,1,.35-3.25q.949-1.4-.95-2.2"/></svg>