<svg overflow="visible" width="100%" height="100%" viewBox="0 0 101.326 115.822" xmlns="http://www.w3.org/2000/svg"><path d="M58.526.01a7.484,7.484,0,0,0-1.3.3,7.539,7.539,0,0,0-3.3,2.8,21.222,21.222,0,0,0-3.9,16.4q.5,3.4,0,4-.4.7-3.7,1.2h-1.3a20.61,20.61,0,0,0-2.5-7.15q-1.7-2.749-7.5-7.75a32.58,32.58,0,0,0-9.1-5.4,98.617,98.617,0,0,0-10.2-3,6.719,6.719,0,0,0-3.35.05,23.605,23.605,0,0,0-3.6,1.15,7.531,7.531,0,0,0-2.15,1.1,20.829,20.829,0,0,0-1.75,2.15,10.847,10.847,0,0,0-2,3.6q-.55,1.8-2.25,7.95a21.88,21.88,0,0,0,.1,10.85q1.35,4.5,4.2,11.9a67.694,67.694,0,0,0,6.05,12.35,115.02,115.02,0,0,1,6.85,13.7q4.3,8.2,9.6,12.4a16.515,16.515,0,0,1,5.6,8.4q2,7.8,6,21.4a10.335,10.335,0,0,0,5.1,5.9,9.707,9.707,0,0,0,7.5,1.2q.8-.2,2.05-.55a22.2,22.2,0,0,1,3.95-.7,46.289,46.289,0,0,1,5.1-.3q2.4-.049,9.85.2a136.525,136.525,0,0,0,16.8-.6q9.3-.9,9.55-2.4t1.25-19.15q.949-17.7,1.15-54.3,0-4.6-3.5-6.6a112.6,112.6,0,0,0-11.1-6.4,22.046,22.046,0,0,0-7.6-1.95q-1.6-10.85-6.5-15.95t-9.15-6a25.917,25.917,0,0,0-4.95-.8m-2.9,5.6a4.474,4.474,0,0,1,5-2q6.6,1.6,10.1,5.3,3.3,3.5,5.4,13.9-1.05.1-2.1.3l-1.5.1a2.278,2.278,0,0,1-1.9-.6,6.518,6.518,0,0,1-1-1.9,20.6,20.6,0,0,0-5.8-8.5q-4.7-3.95-10.65-.3a12.925,12.925,0,0,1,2.45-6.3m30.5,28.5q-6.4-.2-9.8-.2a188.189,188.189,0,0,0-32.2,2,18.565,18.565,0,0,1-4.5.2,7.384,7.384,0,0,1-4.3-2,13.481,13.481,0,0,0-2.6-1.7q-2-.9-2.9-1.4-2.05-.9.1-1.25l18.6-2.35a101.884,101.884,0,0,1,15-1.1q5-.1,15-.2a16.757,16.757,0,0,1,9.1,2.1q2.7,1.4,8.4,5.1a53.584,53.584,0,0,1-9.9.8m-25.8-21.25q3.2.551,6.1,7.05,1.5,3-2.1,3.2-4.9.3-8.9.2a3.978,3.978,0,0,1-1.3-.5q-.8-.5-.8-.9-.45-4.35-.45-6.9,4.25-2.7,7.45-2.15m32.7,31.75a84.582,84.582,0,0,1-2.9,10q-1.8,4.1-5.4,12.2a83.007,83.007,0,0,1-5.2,10.3q-3.9-.3-6.45-.55a7,7,0,0,1-4.25-1.85l-27.7-24.1q-2.9-2.4-2.7-5.4.2-4.1.9-4.9.7-.7,4.9-1.4a177.553,177.553,0,0,1,25.5-1.9q8.451-.1,25.25-.1-.5,1.95-1.95,7.7m4.7-7.1a3.211,3.211,0,0,1,.8,2.5q-.7,29.7-.8,33.5-.5,19-.95,33.6-.1,3.75-1.85.2l-9.6-16.75a5.816,5.816,0,0,0,.5-.45,7.832,7.832,0,0,0,2.5-4,7.247,7.247,0,0,0-.15-3.7,3.425,3.425,0,0,0-1.6-2.2q-1.05-.5-4.25-2.2,8.2-17.1,11.1-24.5a58.21,58.21,0,0,0,3.6-13.65q.2-1.6.3-2.6a2.7,2.7,0,0,1,.4.25M4.676,26.96q-1.35-9.649,2.6-11.3a23.345,23.345,0,0,1,6.4-1.9,8.13,8.13,0,0,1,3.65.15,19.635,19.635,0,0,0,3.4.9,15.144,15.144,0,0,1,12.2,8.8q.1.251.9,2.75l-7.6,1.05q-3.7.7-4.8,1.8-1,1-1.8,4.8a18.73,18.73,0,0,0,.7,10.2q6.2,21.2,9.1,31.9a33.092,33.092,0,0,1-10.4-14.4q-3.3-9.3-7-14.4a59.052,59.052,0,0,1-7.35-20.35m35.75-6.1q.651,2.55-.35,3.85a3.378,3.378,0,0,1-3.05,1.2l-.4.05a1.1,1.1,0,0,1-.15-.35,29.431,29.431,0,0,0-3.3-6.55,12.357,12.357,0,0,0-4.55-4.45,49.054,49.054,0,0,0-11.15-3.7,15.414,15.414,0,0,0-10.15,1.5,4.6,4.6,0,0,1-2.3.4q3.6-11,15.6-7.3,9.1,2.9,17.2,11.1a8.647,8.647,0,0,1,2.6,4.25m-14.8,11.35q1.7.8,5.25,2.35a8.7,8.7,0,0,1,4.55,3.75q1.3,2.6.3,14.3a82.847,82.847,0,0,0,1.7,22.7q1.4,6.8,5.9,22,.5,1.8,1.6,5.3,1.849,4.4,1.8,6.65t-2.1,1.75a3.4,3.4,0,0,1-2.5-1.7q-.1-.2-.8-2.7l-5.8-20.5q-10.5-36-12.5-43.2a34.487,34.487,0,0,1-.6-9.3q.1-2.9,3.2-1.4m24.35,76.75a48.031,48.031,0,0,1-.35-4.85q4.5-7,5.5-8.4a36.594,36.594,0,0,1,7.75-7.8q1.4-1.05,2-1.55.1.8.25,1.75.1.7,1.4,1.6a7.117,7.117,0,0,0,2.3.9q4.1.7,12.3,1.3a6.689,6.689,0,0,0,1.15,0q.3.6.75,1.55a74.006,74.006,0,0,0,4.8,8.25q2.4,3.6,5.7,8-7.9,2-21.45,1-13.6-1-19.45.35-2.351.35-2.65-2.1m-1.95-7.75q-4.3-8.5-7.2-23.7-3-15.1-2.3-24.9,5.3,3.9,13,10.7,10.2,9.1,12.2,10.9,1.95,1.8,1.85,3.15a17.573,17.573,0,0,1-.4,2.65,22.372,22.372,0,0,0-.45,2.8q-2.65,1.65-3.5,2.2a58.7,58.7,0,0,0-5.15,4.95,51.736,51.736,0,0,0-8.05,11.25m27.55-21.75a34.976,34.976,0,0,1,5.55,1.05q3,.75,3.9,2t.1,3.7q-.8,2.4-1.75,2.65a10.215,10.215,0,0,1-3.15.05q-8.6-.9-9.6-1a10.015,10.015,0,0,1-2-.4,1.911,1.911,0,0,1-1-1.6,35.552,35.552,0,0,1,.05-4.35q.15-1.65.8-2a2.226,2.226,0,0,1,1.35-.35,17.791,17.791,0,0,0,1.9,0,27.629,27.629,0,0,1,3.85.25"/></svg>