<svg overflow="visible" width="100%" height="100%" viewBox="0 0 87.252 116.453" xmlns="http://www.w3.org/2000/svg"><path d="M14.482,22.253a3.648,3.648,0,0,0-.9,2,5.611,5.611,0,0,1-1.4,4.1,13.648,13.648,0,0,1-3.4,2.6,14.826,14.826,0,0,0-6.8,10,34,34,0,0,0-.2,6.6q.1,2.3.5,6.7a4.037,4.037,0,0,0,1.2,2.2q1.3,1.4,2.3.8a1.9,1.9,0,0,0,.3-1.7l-2.2-8.5q-.7-7.4,5.8-13.2a18.882,18.882,0,0,1,10-4.7,38.627,38.627,0,0,1,11,.2,8.127,8.127,0,0,1,3.1,1.6,42.566,42.566,0,0,1,4.6,4,13.212,13.212,0,0,1,3.1,5.3,11.016,11.016,0,0,0,.4,1.3,1.442,1.442,0,0,0,2.5-1.1l-.6-1.8a20.907,20.907,0,0,0-7.5-9.3,19.958,19.958,0,0,0-12.8-3.4,6.718,6.718,0,0,1-2.4-.3,4.048,4.048,0,0,1-1.4-2,3.1,3.1,0,0,0-1.5-1.6,6.185,6.185,0,0,0-2.2-.9q-.5-.1-1.5,1.1m1.9,3.95q-.351-.1-.45-.65a1.943,1.943,0,0,1,.05-1c.066-.3.2-.45.4-.45h.1a1.6,1.6,0,0,1,.6.85.946.946,0,0,1-.05,1,.743.743,0,0,1-.65.25m60.5,76.05q10.6-11.3,9.5-26-1.2-15.3-14.8-22.7a40.429,40.429,0,0,0-12.8-4.6,88.134,88.134,0,0,0-13.5-1.2,52.3,52.3,0,0,0-7.65.15q-1.45.15-2.7.3,3.8-1.2,4.55-1.45,1.8-.8,1.7-2.1-.2-1.4-2.3-.5-15.2,4.6-17.9,5.6a89.066,89.066,0,0,0-8.5,3.9q-1.4.6-1.6.7a1.2,1.2,0,0,0-.2,1.6,1.349,1.349,0,0,0,1.4.8q.3-.1,1.6-.6a11.3,11.3,0,0,1,2.4-.5l.6-.2-.5.2q-10.4,10.7-14.05,17.7t-1.05,18.3q4.4,12.5,21.2,19.3a79.2,79.2,0,0,0,29.6,5.5q13.8-.7,25-14.2m6.6-23.6q.8,10.5-7.9,21.1-8.2,9.9-18.8,13.4a25.824,25.824,0,0,1-8.3.6q-5.7-.6-8.3-.9-14.4-2.6-23.4-7.7-12.8-7.2-13.5-18.8-.7-17.1,16.1-28.7,1.6-.9,5.7-3.3a35.6,35.6,0,0,1,5.35-2.05,29.05,29.05,0,0,1,7.2-1.2q4-.249,4.85-.25h2.4q16.4-.7,27,6.2,12.6,8.1,11.6,21.6m-64.5,6.5a1.423,1.423,0,0,0-.05-1.1q-.25-.7-1.85-.8a15.435,15.435,0,0,1-2.9.1,18.914,18.914,0,0,0-2.8,0q-1.5.2-1.6,1.2v1q.45,1.05,2.1.9,1.6-.2,4.25-.55t2.85-.75M49.282,106a8.349,8.349,0,0,0,1.6,4.85q.9.951,1.1-2.4.15-3.35-1.3-4.35-1.5-1-1.4,1.9m-3.25-25.05-.6-.05-2.15.3a6.5,6.5,0,0,0-.2,3.85q.9,2.7,2.8,2.1a2.815,2.815,0,0,0,2.2-3.4,10.735,10.735,0,0,0-1.3-2,4.482,4.482,0,0,1-.5-.7,2.12,2.12,0,0,0-.25-.1m17.05,8.3q-4.4-2.6-5.3-3.1a19.767,19.767,0,0,0-6.2-2q-1.851-.249-1.8,1.4l1.7,1.5,10.3,4.3a2.3,2.3,0,0,0,1.6-.8.91.91,0,0,0,0-.6q-.1-.6-.3-.7m-.7-24.5a8.333,8.333,0,0,0,.5-2.9,1.684,1.684,0,0,0-1.5-1.8q-1.2-.3-2.8,1.3-3.4,3.3-9.8,9.9a23.315,23.315,0,0,0-2.25,2.9q-.75,1.2-1.1,1.7t-.6.9a14.184,14.184,0,0,0-.85,2.2l.1-.05a5.152,5.152,0,0,0,3.95-.5,24.426,24.426,0,0,0,4.35-3.15q2.249-1.95,3.8-3.05,1.5-1.1,6.2-7.45m-17.7-6.7a1.36,1.36,0,0,0-1-.4q-1.4.2-1.2,2.3l1.3,4.9a.969.969,0,0,0,1.3,0,13.978,13.978,0,0,0,.1-5.7,1.531,1.531,0,0,0-.5-1.1m30.2,20.8a26.758,26.758,0,0,0,3.4-.3q1.6-.3,1.85-.8a1.456,1.456,0,0,0-.15-1.3q-.4-.8-1.7-.7a40.033,40.033,0,0,0-4.8.9,1.082,1.082,0,0,0-.4.5.907.907,0,0,0-.1.7q0,.6.8,1h1.1m.3-31.4a17.84,17.84,0,0,1-1.8-1.2,25.637,25.637,0,0,0-9-3.5,94.02,94.02,0,0,1-9.4-1.7c-.134-.066-.334,0-.6.2a2.134,2.134,0,0,0-.4.5q-.5,1.6,1.5,2a88.848,88.848,0,0,0,9.2,2,25.063,25.063,0,0,1,7.55,2.75q2.15,1.4,2.95.25.649-.549,0-1.3m4.8-28a13.848,13.848,0,0,1-.3-1.7q-.15-1.149-1.65-1.55a2.977,2.977,0,0,0-2.45.2,10.223,10.223,0,0,1-1.4.75c-.3.134-.584.25-.85.35q-.4.1-.65.15-1.3.3-1.2.2-11.9-.9-21.2,8.4a8.194,8.194,0,0,0-2.4,6.7,8.214,8.214,0,0,0,.2,1.7q.3.8,1.4.6,1.1-.6,1.6-3.2a10.362,10.362,0,0,1,1.1-3.5,21.46,21.46,0,0,1,12.7-7.6q8.2-1.7,14.3,2.9,5.6,4.2,5.2,10a50.732,50.732,0,0,1-.7,7,10.89,10.89,0,0,1-3.7,6.1,1.71,1.71,0,0,0-.3.9v1.2h1.2a1.71,1.71,0,0,0,.9-.3q5-4.8,4.9-9.9a16.511,16.511,0,0,1,.2-3,10.859,10.859,0,0,0-.7-7.5,34.786,34.786,0,0,0-4.1-6.3,6.857,6.857,0,0,1-2.1-2.6m-3-1.45h.1q.65-.1.95.95t-.15,1.45a1.237,1.237,0,0,1-1.85-.75,1.622,1.622,0,0,1,.3-1.1c.233-.366.45-.55.65-.55m-3.5-3.85a1.923,1.923,0,0,0,1.1.55q1.449-.5,1.6-.8t-.7-1.7a6.774,6.774,0,0,0-2.4-2.25q-13.7-12.3-28.4-9.4-14.7.3-23.8,11.2a7.575,7.575,0,0,0-1.1,4.1q-.1,2.9.7,3.9a1.576,1.576,0,0,0,1,.2,3.648,3.648,0,0,0,1.1-.3,1.727,1.727,0,0,0,.3-1.9q-1.4-3.3,2.3-6.4a25.889,25.889,0,0,1,11.2-6.7,47.925,47.925,0,0,1,13.4-1.8,18.58,18.58,0,0,1,9.2,1.5,55.593,55.593,0,0,1,8.7,4.4q1.6.9,5.8,5.4"/></svg>