<svg overflow="visible" width="100%" height="100%" viewBox="0 0 115.452 107.098" xmlns="http://www.w3.org/2000/svg"><path d="M100.492,12.548a48.421,48.421,0,0,0-22.2-10.5q-12.5-2.6-21.3-1.9-17.6.1-30.8,5.7-8.5,3.7-17.3,13a34.524,34.524,0,0,0-8.6,19.3q-1.5,10.75,4.7,29.05l.15.45q2.95,8.9,11.85,17.8,16.9,16.6,37.5,20.9,14.6,3,31.8-6,13.5-10.4,24.7-29.4a48.364,48.364,0,0,0,4.4-18.9,152.8,152.8,0,0,0-.9-19.5,51.078,51.078,0,0,0-14-20M55.692,2.9a44.765,44.765,0,0,1,5.2-.1q2.7.1,5.15.2a38.588,38.588,0,0,1,4.05.35,78.541,78.541,0,0,1,21.1,7,41.946,41.946,0,0,1,16.9,15.4,24.117,24.117,0,0,1,3.4,8.1q.351,1.6.75,3.95a9.641,9.641,0,0,0-1.4.45,76.4,76.4,0,0,1-8.25,2.5l-8.5.6.9-4.5a.92.92,0,0,0-.45-.8q-.45-.3-1.4.25-.45.15-1.75,2.45-.8,1.5-1.4,1.6a15.69,15.69,0,0,1-3.9-.1q-2.7-.5-4-.7-.7-.2-.7-1.5a7.769,7.769,0,0,1,.4-.9,15.421,15.421,0,0,0,1.05-2.05,1.616,1.616,0,0,0-.25-1.45q-.9-.849-1.6,0a5.759,5.759,0,0,0-1,1.2q-2,2.6-2.9,2.9-.8.3-3.8-.6a19.912,19.912,0,0,1-2.8-.9q-3-1.2-3.4-2-.3-.7.7-3.8a24.1,24.1,0,0,1,1.05-2.8q.551-1.2-1.25-1a5.007,5.007,0,0,0-2.5,2.7q-.5,1.1-1.5,3.5-4.1-1.9-5.7-2.8-1.6-.7-2.4-1.1a4.042,4.042,0,0,1-1.8-1.4q-.3-.5.3-2.15a10.621,10.621,0,0,0,.6-2.55.978.978,0,0,0-.6-1.1q-1.449-.35-1.95.65a15.587,15.587,0,0,0-1.15,2.75q-.8,1.3-2.3.3l-9.9-6.6a1.137,1.137,0,0,1-.5-1.4,11.742,11.742,0,0,0,.8-1.5,2.771,2.771,0,0,0,.2-1.2q0-1.1-.75-1.05a2.429,2.429,0,0,0-1.55.8,1.888,1.888,0,0,1-1.7.6,4.422,4.422,0,0,1-2.2-1.25q-3.4-2.7-5.1-4.1a8.973,8.973,0,0,1,6-3.8,142.722,142.722,0,0,1,14.2-2.4q5.1-.5,7.6-.65m-23.7,14.65a5.416,5.416,0,0,1-1.05,2.65q-1.149,1.95.05,2.45a1.766,1.766,0,0,0,2.2-.8,2.567,2.567,0,0,1,2.5-1.1,6.29,6.29,0,0,1,2.9,1.5,41.929,41.929,0,0,0,7.3,5,7.677,7.677,0,0,1,2.6,1.8,2.269,2.269,0,0,1,.1,2.5,1.566,1.566,0,0,0,.5,2.2q1.1.5,1.6-1.2t1.9-1.7a10.372,10.372,0,0,1,2.6,1.1l4.4,2.2q.7.4,1.9,1a2.816,2.816,0,0,1,1,2.15q.051,1.45.65,1.8t2.2-.85q1.551-1.3,6.6,1.05,2.55,1.2,3.8,1.65a2.9,2.9,0,0,0,.15.75q.15.5.3,1.1a3,3,0,0,0,.6,1.1.982.982,0,0,0,1.1.3,1.949,1.949,0,0,0,.95-.85,7.111,7.111,0,0,1,.9-1.2h.5a91.218,91.218,0,0,0,9.05,1.6,2.727,2.727,0,0,0,1.3,1.7,1.058,1.058,0,0,0,.9,0,5.18,5.18,0,0,0,.9-.6l.65-.65q1.65.15,3.35.25a23.178,23.178,0,0,0,5.55-.65q2.651-.65,8.55-2.25l2.15-.6q.051.75.15,1.6,1.3,13.6-3.1,23.8a75.224,75.224,0,0,1-20.8,28q-2.7,2.2-3.6,2.1-.8-.2-2.9-3-5.1-7.1-6.1-8.4a1.237,1.237,0,0,1-.25-.45,18.244,18.244,0,0,0,5-3.8q1.2-1.5-.5-2.1a42.956,42.956,0,0,0-6.4,3.35q-2.149-2.5-4.55-4.9-2.3-2.3-.8-4.8a24.488,24.488,0,0,0,1.8-3.5,1.45,1.45,0,0,0-.1-.9q-.2-.6-.5-.7a1.039,1.039,0,0,0-.9,0,1.142,1.142,0,0,0-.8.4l-2.9,4.9a37.419,37.419,0,0,1-5-4.35,2.278,2.278,0,0,1-.05-2.55,11.532,11.532,0,0,1,1.45-2.25,1.153,1.153,0,0,0-1-1.45q-1.2-.3-2.3,1.3-.7,1.4-1.5,1.4a3,3,0,0,1-1.8-1.1,43.17,43.17,0,0,0-4.3-4.05,8.7,8.7,0,0,1,.3-1.3,6.779,6.779,0,0,1,.75-2q.45-.849-.85-1.35-.949-.349-1.8,1.1-.9,1.4-1.05,1.7a20.878,20.878,0,0,0-3.75-1.9q-2.949-1.1-2.2-3.6a2.14,2.14,0,0,1,.2-.6,14.958,14.958,0,0,0,1.05-2.65q.351-1.25-1.25-1.45a4.378,4.378,0,0,0-2.4,2.1q-.3.75-.85,2.3-.15.45-.35,1l-6.5-2.9q-2.9-1.2-1.5-3.9.9-2.1.9-2.2a1.935,1.935,0,0,0-.7-2.1q-.3-.1-.9.3a2.583,2.583,0,0,0-.9,1q-.4.8-1.3,2.5a3.6,3.6,0,0,1-1.6,1.8,4.641,4.641,0,0,1-2.5-.1,17.456,17.456,0,0,0-2.8-.6q-2.9-.1-8.8.1-2.9.2-2-2.2l.1-.5q.2-1.6.3-2.3a1.253,1.253,0,0,0-1.3-1.4,1.306,1.306,0,0,0-1.6,1,12.127,12.127,0,0,0-.3,2.3,12.252,12.252,0,0,1-.2,1.3,2.2,2.2,0,0,1-.45,1.2,1.893,1.893,0,0,1-1.25.5,2.187,2.187,0,0,1-1.5-.3q-.6-.4-.6-.8a36.525,36.525,0,0,1,1.8-14.8,28.876,28.876,0,0,1,8.4-12.5l9.2-7.4q2.3-1.8,4.3.7.9,1.1,3.1,3.3,1.9,2,1.9,2.7m-1.75,34.6a21.441,21.441,0,0,1,4.15,1.8q2.4,1.3,2.7,2a7.431,7.431,0,0,1-.1,2.95q-.049.25-.1.55c-.033.167-.066.317-.1.45a2.016,2.016,0,0,0,.9,2.35.956.956,0,0,0,.7-.1,2.158,2.158,0,0,0,.7-.6q.051-.05.7-1.65.2-.45.4-1,.251-.7.6-1.55a34.727,34.727,0,0,1,4.6,2.1q2.1,1.6,1.65,3.4a6.991,6.991,0,0,0-.25,1.25.837.837,0,0,0-.05.25,6.073,6.073,0,0,0,0,1.1q.15.851,1.15.6a2.371,2.371,0,0,0,1.3-1.95.546.546,0,0,0,.05-.25q.251-1.8,2.05-.3,1.6,1.6,4.5,4.1-.249.351-1.2,2.2-1,1.8.2,2.3a1.489,1.489,0,0,0,1.95-.5,9.225,9.225,0,0,0,.8-1.15.854.854,0,0,1,.35-.35,32.56,32.56,0,0,0,3.7,3.2q2.5,1.9,1.5,4.2a1.017,1.017,0,0,0,.4,1.3,1.1,1.1,0,0,0,1.4,0,2.291,2.291,0,0,1,2.3-.3,5.149,5.149,0,0,1,1.5,1.5q1.6,2,2.6,3.55a5.578,5.578,0,0,0-2.4,2.75q-.3,1.4.75,1.55t2.7-1.25l1.3-.7q3.2,4.7,7.45,10.7,1.6,2.3-.7,3.2-14.7,7.9-32.8,1.9-15.4-5.1-28.5-18.2-9.7-9.5-11.8-19.1-.5-2.1-1.6-5.5-1.3-4.1-1.7-5.4-1.1-3,1.7-3.5a8.409,8.409,0,0,0,1-.2,10.922,10.922,0,0,0,0,1.5q.051,1.05,1.4.8,1.35-.3,1.5-2.6a1.3,1.3,0,0,1,.5-.15q1.6-.15,5.1-.25a28.546,28.546,0,0,1,6.6.7,22.1,22.1,0,0,1,2.5.55.944.944,0,0,1,.75,1.1q-.1.851-.25,1.9a2.016,2.016,0,0,0,.9,2.35.956.956,0,0,0,.7-.1,2.158,2.158,0,0,0,.7-.6,4.208,4.208,0,0,0,.3-.65c.1-.2.2-.416.3-.65q.8-2.1,2.55-1.6"/></svg>