<svg overflow="visible" width="100%" height="100%" viewBox="0 0 58.308 115.613" xmlns="http://www.w3.org/2000/svg"><path d="M29.108,0q-1.1,0-2.6,2.3L1.008,40.7a5.144,5.144,0,0,0-1,3.1q.5,5.8,1.9,18.2,1.9,17.6,2.4,23.9a238.341,238.341,0,0,1,.7,24.1q-.1,3.7.9,4.7t4.8.9q.4,0,29.6-.6l12.4-.2q3.2-.1,4.3-1.4,1.2-1.2,1.3-4.4-1.3-23.5-1.35-43.6-.1-20.15-1.2-25.45a34.789,34.789,0,0,0-2.25-6.75q.45-1.8.05-7.45L52.508,11.6q0-.5-.6-.7-1.6-.7-2.4-1a6.453,6.453,0,0,0-2.5-.6,1.569,1.569,0,0,0-1.6,1.2q-.1.4-.4,2.3l-1,4.5L31.908,2.1q-1.8-2.2-2.8-2.1m19,11.9a8.356,8.356,0,0,1,.95.15,5.883,5.883,0,0,1,1.1.45q.651.351.75,2.45.051,2.05.2,7.5a45.163,45.163,0,0,0,.45,6.95q-.2-.4-2.75-4.5-2.55-4.149-2.65-5.75a14.387,14.387,0,0,1,.7-4.45q.75-2.9,1.25-2.8m1.75,33.25q3.851.15,3.95,3.05.2,9.8.3,29.5.4,17,1.5,29.4.2,3.1-.4,3.8t-3.3.8l-7.5.15q-1.5.051-1.95-2.05-.2-1.249-.55-2.95-1.4-7.449-2.6-12.25-.7-3-3.6-2.7a73.512,73.512,0,0,0-8.8,1q-3.1.6-2.7,4l1.9,12.7q.5,2.5-1.9,2.6l-13.8.4q-2.6.1-2.5-2.7.2-6.9-.5-16.8-.9-11.2-1.3-16.8l-2.3-26.6q-.2-2.9.3-3.4.4-.4,9.9-1.25a166.426,166.426,0,0,1,20.7-.45q11.25.351,15.15.55m2.65-5.75a8.8,8.8,0,0,0,.15.9q.55,2.3-5.85,1.95-6.45-.349-14.25-.4-7.849-.05-13.55.35t-12.2.6q-2.1.1-2.5-.7-.4-.7.7-2.5,2.5-3.6,12.1-18.2,7.3-11.3,12.4-18,14.3,18.2,18.15,24.35a33.572,33.572,0,0,1,4.85,11.65m-25.4,59a2.548,2.548,0,0,1,.2-2.1,3.219,3.219,0,0,1,1.9-1.05q5.9-1.449,7.6,1.45,1,1.8,2.25,8.4.051.4.25,1.5.45,1.95.8,3.4.5,2.05-1.25,2.1h-6.75a4.185,4.185,0,0,1-2.5-.6,2.908,2.908,0,0,1-1-2.4q-.5-5.5-1.5-10.7m-7.6-44.9q-4,0-6,2.4a7.359,7.359,0,0,0-1.3,6.3l1.2,7.8q.5,2.9,1.7,3.8,1.2.8,4,.1a14.242,14.242,0,0,0,5.1-1.8,4.208,4.208,0,0,0,2-4.7q-1.3-8.3-1.6-9.7-.8-4.3-5.1-4.2m1.05,2.6q.75-.15,1.65,2.7.75,2.4-.85,2.85-.75.15-1.05-.9-1.1-4.249-.85-4.4a3.846,3.846,0,0,1,1.1-.25m-5.95,5.35q-1-3.849.7-4.3,1.95-.6,2.4.6a14.808,14.808,0,0,1,.6,2.6q.2,1.3.3,1.65.051.251-2.65.7-.9.15-1.35-1.25m8.4,1.7q2,6.1.7,6.9a4.627,4.627,0,0,1-.9.4q-.349-.949-1.1-3.5a7.459,7.459,0,0,1-.55-3.05q.2-.5,1.85-.75m-3.7,1.6q.1.5.3,1.7.2,1.151.95,4.05a.838.838,0,0,1-.05.65,1.371,1.371,0,0,1-.55.15,3.078,3.078,0,0,1-3.5-1.3,6.631,6.631,0,0,1-1.05-3.2q-.15-1.749.7-1.95l2-.35q1.1-.249,1.2.25m29.6-7.85q-1-4-3.7-4.3-2-.3-6.4-.5-2.7,0-2.3,2.4.6,4.7,2.2,15.2a4.2,4.2,0,0,0,3.2,3.4q4.1,1.2,6.5-.7,2.3-1.8,2-6.1a73.093,73.093,0,0,0-1.5-9.4m-4.35-1.3a1.816,1.816,0,0,1,1.7.75,12.09,12.09,0,0,1,.8,3.1q.4,2.3-1.25,2.2-1.7-.15-2.1-3.1-.4-3,.85-2.95m-3.8.15q1.15.1,1.35,2.4a22.7,22.7,0,0,1,.15,2.8q-.1.5-1.45.9t-1.7-1.9a17.9,17.9,0,0,1-.3-3.05,1.4,1.4,0,0,1,.4-1,2.285,2.285,0,0,1,1.55-.15m.65,14.4a14.2,14.2,0,0,1-.85-2.95q-.5-2.449.1-3.3a1.255,1.255,0,0,1,1.6-.55q1,.351,1.6,3.25.551,2.9-.05,3.7a1.245,1.245,0,0,1-1.35.55,1.644,1.644,0,0,1-1.05-.7m4.6-7.1q1.35-.45,1.6,3.2t-.65,3.9q-.9.2-1.6-3.25-.75-3.45.65-3.85"/></svg>