<svg overflow="visible" width="100%" height="100%" viewBox="0 0 91.599 116.913" xmlns="http://www.w3.org/2000/svg"><path d="M6.117,22.269q-2.1,6.249-4.2,11.8-2.1,5.5-1.9,17.7,0,2.3.7,2.7a3.3,3.3,0,0,1,2.1,2.5v16.9q0,22.4-.1,26.8a8.071,8.071,0,0,0,.9,4,8.78,8.78,0,0,0,3,2.8,45.9,45.9,0,0,0,12.3,5.2,95.987,95.987,0,0,0,13.1,2.4q3.5.4,10.5,1.3a68.87,68.87,0,0,0,10.6.5,61.873,61.873,0,0,0,10.1-1.4q2-.4,9.8-2.3a40.623,40.623,0,0,0,7.8-3q5.6-2.6,7.35-3.25a11.235,11.235,0,0,0,2.35-1.2,5.471,5.471,0,0,0,1-.85q.351-.4-.8-11.25t-1.75-21.5a115.509,115.509,0,0,1,.75-21.65,8.536,8.536,0,0,1,1-2.5,4.567,4.567,0,0,0,.65-2.05,7.6,7.6,0,0,0-.5-1.7q-.4-1-1.05-3.2a76.039,76.039,0,0,0-3.1-7.85q-2.5-5.6-4.2-9.5a47.706,47.706,0,0,0-6.6-11q-10.2-10.6-27-12.3-19.7-2-30.15,6.85-10.5,8.8-12.65,15.05m.5,8.1q2-5.2,2.5-7a22.629,22.629,0,0,1,8.7-11.7q21.4-16,48-2.8a26.383,26.383,0,0,1,13.7,15,74.4,74.4,0,0,0,3.5,7.9,62.848,62.848,0,0,1,3.3,8.1q.4,1.7-.2,2.3t-2.4.3l-12.7-2a2.482,2.482,0,0,1-2.3-2.7,51,51,0,0,0,0-6.4,3.92,3.92,0,0,0-1.2-3,8.413,8.413,0,0,0-3.7-1.6q-3.3-.8-5,3a41.942,41.942,0,0,0-2.2,6.5q-.6,2.4-3.5,2.8-2.85.049-13.7,1.15a97.572,97.572,0,0,0-21.75,4.8q-10.85,3.7-12.1,4.65a12.5,12.5,0,0,0-2.35,2.1q-.5-.3-.5-.6l.6-6.9a45.4,45.4,0,0,1,1.1-6.8,60.26,60.26,0,0,1,2.2-7.1m54,2.4q1.1-2.6,3.3-2.7a2.977,2.977,0,0,1,2.3,2,5.181,5.181,0,0,1,.2,1.6q0,.6-.9,5-.9,4.35-1.15,5.6t-.65,3.05q-.4,1.8-.75,3.2-.4,1.35-1.15,4.85a5.1,5.1,0,0,1-4.4,4.2q-3.7.7-4.3.8a9.788,9.788,0,0,0,.15-1.25,58.481,58.481,0,0,1,1.65-8.25,46.06,46.06,0,0,1,1.55-5.55,11.582,11.582,0,0,1,.45-1.45q2.151-5.95,2.65-7.75a24.826,24.826,0,0,1,1.05-3.35m23.9,12.8q1.6.4,1.7,1.3.2.8-1.1,1.8a45.564,45.564,0,0,1-19.7,8.7q-2,.3-1.5-1.7l3.2-9.9a7.126,7.126,0,0,1,1.45-2.65q.651-.55,3.75-.05,10.4,2.1,12.2,2.5m-16.2,13.8a46.159,46.159,0,0,0,7-2.15,69.372,69.372,0,0,0,10.5-5.25q1.751-1.05.3,1.2a11.268,11.268,0,0,0-1.7,5.8q-.1,2.1-.05,6.5.051,1.6.15,5.8.051,4.149-1.5,4.05-1.6-.1-2.25-3.2a37.364,37.364,0,0,0-1.15-4.55,12.157,12.157,0,0,0-3.1-4.9q-2.4-2.2-4.4-1.5t-2.7,3.9q-1.1,5.7-2.9,17.1a20.9,20.9,0,0,1-5.8,14.2q-6.3,6.8-11.8-2-2-3.4-4.8-12.9a9.92,9.92,0,0,0-5.9-6.7,9.171,9.171,0,0,0-8.7.6,11.677,11.677,0,0,0-3.3,4.2q-.9,1.6-2.6,4.8a6.067,6.067,0,0,1-5.6,3.4,5.648,5.648,0,0,1-5.4-3.5,30.476,30.476,0,0,1-3.4-11,76,76,0,0,1-.4-11.7q0-1.9.6-2.4.5-.4,2.4,0,16.5,3.2,21.4,4,13.4,2,22.1-.4a27.455,27.455,0,0,1,2.8-.75q1.551-.351,3-.8,1.4-.45,2.3-.7t1.6-.45q.7-.2,3.3-.7m6,5a11.009,11.009,0,0,1,2.7,4,30.061,30.061,0,0,1,1.4,5.3q1,4,2.4,4.7t5.2-1q.7,7.8,2,22.6.3,3.2-2.2,4.4-19.2,10.6-36.8,9.8-10.4-1.1-15.5-1.7a109.083,109.083,0,0,1-15.3-3,113.631,113.631,0,0,1-10.7-5q-2.2-1-2.2-10.8-.05-9.8.25-20,.15-6.15,1,.6a38.864,38.864,0,0,0,2.35,9.2q1.6,4.5,4.85,6.1a11.237,11.237,0,0,0,6.35,1.25,7.02,7.02,0,0,0,5.2-3.55,54.677,54.677,0,0,0,3.6-6.8,5.6,5.6,0,0,1,2.9-2.9,10.708,10.708,0,0,1,3.7-.5,4.985,4.985,0,0,1,4.4,2.2,12.308,12.308,0,0,1,2.2,4.9,54.37,54.37,0,0,0,1.7,5.3q1.2,3.1,2.2,5.2,3.2,6.7,8.9,7.1t9.8-5.7a23.182,23.182,0,0,0,4.2-10.5q.2-2.1,2.9-18.6.7-3.8,2.5-2.6m-24.15-6.1a17.25,17.25,0,0,0-.25,2.45q-17.349.1-28.7-3.1t-13.5-3.7q-2.2-.5-1.65-.9.25-.251,2.25-1.65a19.278,19.278,0,0,1,2.2-1.2q12.5-5.3,35.2-7.8.9-.1,8.9-.1a94.5,94.5,0,0,0-4.45,16"/></svg>