<svg overflow="visible" width="100%" height="100%" viewBox="0 0 114.293 111.669" xmlns="http://www.w3.org/2000/svg"><path d="M51.426,4.078q1.751-.9,1,.75a500.919,500.919,0,0,1-35.55,73.8q-.95,1.551-2.05,3.1-3,4.35-4.7,7.3-1.749,2.95-1.1,3.7a2.352,2.352,0,0,0,1.55.85q.9.15,3.7-1.2t6.25-3.2q3.4-1.85,6.2-3.75,2.6-1.9,22.6-17.1,12.5-9.5,21.4-15.3,2.25-1.4,1.35.9a11.012,11.012,0,0,1-1.15,2.1,269.032,269.032,0,0,0-14.7,24.7q-4.1,8-12.7,25.8-2.9,5.6,1.8,5.1a21.3,21.3,0,0,0,7.8-3.1q23.8-15,39.3-25.1,6.8-4.5,13.9-9.7,7.1-5.25,7.7-6.4t-.15-1.7a1.349,1.349,0,0,0-1.75.1q-.6.4-1.85,1.35-11.25,8.951-28.65,20.15-9.9,6.4-29.95,19.1a11.714,11.714,0,0,1-2.75,1.25q-2.6.9-1.7-1.85a11.058,11.058,0,0,1,.9-2.1,356.911,356.911,0,0,1,27-49.1,56.994,56.994,0,0,0,4.1-6.7q1-2.15-1.05-2.2a6.639,6.639,0,0,0-4.1,1.3q-11.149,7.6-25.05,17.9-6.2,4.7-24.4,18.7a26.462,26.462,0,0,1-8.7,4.75q-2.349.649-1-1.45,1-1.7,2.6-4.3,1.9-3.251,4.7-7.9,5.2-8.5,8.1-14.2,7.4-14.5,18.4-38.5,2.1-4.6,4.95-12.65,2.8-8.1,2.15-8.75a1.753,1.753,0,0,0-1.6-.5,4.672,4.672,0,0,0-1.6.4,193.327,193.327,0,0,0-25.7,14.5q-8.2,5.3-16.8,11.1-8.649,5.8-9.6,6.5a1.289,1.289,0,0,0-.1,2,1.336,1.336,0,0,0,1.9.5q1.451-.9,9.4-6.4t18.6-12.45a195.819,195.819,0,0,1,21.1-12.1"/></svg>