<svg overflow="visible" width="100%" height="100%" viewBox="0 0 115.15 96.945" xmlns="http://www.w3.org/2000/svg"><path d="M68.6,42.6a22.183,22.183,0,0,0-8.85-2.9,40.51,40.51,0,0,0-11.55.8q-6.9,1.3-9.7,3.85a44.726,44.726,0,0,1-3.55,3,2.254,2.254,0,0,1-1.95-.1q-1.2-.5-2.1-.9l-12.5-4.8q-4.2-1.7-4.4-4.3-.4-5.8-.4-6.5a13.307,13.307,0,0,1,1.9-6.5,27.054,27.054,0,0,0,3.2-6.7,7.03,7.03,0,0,0,0-5.7A6.691,6.691,0,0,0,14,8.8q-4.7-1.05-6.9-1.65-4.1-1-4.2-3.3a7.1,7.1,0,0,0-.6-3.1A1.272,1.272,0,0,0,1.15,0a1,1,0,0,0-.9.6A8.293,8.293,0,0,0,0,3.253a6.435,6.435,0,0,0,1.2,3.8q1.3,1.7,5,2.7,8.9,2.1,9.9,3.4,1.5,2-3,9.7a12.8,12.8,0,0,0-2.25,7.05,66.164,66.164,0,0,0,.65,9.15,3.751,3.751,0,0,0,1.8,2.5,41.458,41.458,0,0,0,8.8,4.6q2.6,1,5.95,2.45,3.3,1.35,2.5,2.75-2.7,4.4.9,12.1,4.2,9.1,17.3,13.65t19.95,4.75q-5.2,3-6.55,3.8a1.533,1.533,0,0,0-.75,2.2,1.491,1.491,0,0,0,1.15.5,2.588,2.588,0,0,0,1.7-.4q.75-.5,8.75-5,3.9-2.1,6.5-1.4.5.15-.65,1.2-3.75,3.4-8,7.4t-4.55,5a1.267,1.267,0,0,0,.5,1.55.947.947,0,0,0,1.4-.15q.9-1,1.3-1.4,8.1-8.2,11.3-10.5a22.716,22.716,0,0,1,14.3-4.6,3.035,3.035,0,0,0,3-2.6,7.269,7.269,0,0,0-.7-4.4q-.7-2.2-.4-2.7t2.6-1.2q1.5-.5,7.4-2.1,4.6-1.2,6.35-1.85,1.7-.7,1.75-1.25t.05-.9q0-.349-.6-.65t-8.2,1.95a86.361,86.361,0,0,0-10.7,3.6q-.95-1.549-.75-1.9l13.3-16.7a4.05,4.05,0,0,0,.9-1.55,1.356,1.356,0,0,0-.25-1.5,1.069,1.069,0,0,0-1.3-.2,4.748,4.748,0,0,0-1.65,1.65q-1.3,1.6-6.3,7.8-3.9,4.9-6.4,7.5-4.1-4.7-6.1-6.9a82.869,82.869,0,0,0-6.3-6.4q-2.3-1.9.5-3.2a10.624,10.624,0,0,0,5.1-4.4q1.9-3.5-.4-6.1-4.5-4.7-10.3-1.8-5.4,2.6-3.75,8.5Q72.7,45,68.6,42.6m11-6.45a3.917,3.917,0,0,1,3.65,1.65,2.727,2.727,0,0,1,.05,3.25,15.8,15.8,0,0,1-1.7,2.3,7.364,7.364,0,0,1-2.4,1.7,3.3,3.3,0,0,1-2.65.25q-1.15-.5-1.85-3.2a4.4,4.4,0,0,1,.8-4.35,5.347,5.347,0,0,1,4.1-1.6M50.4,74.7q-13.7-6.65-16.6-13.05-2.9-6.45-1.3-8.3a24.843,24.843,0,0,1,3.35-3.4,71.071,71.071,0,0,1,7.2-4.8q5.4-3.3,15.35-2.4T78.65,51.9Q88.9,60.153,93.1,70.553a3.89,3.89,0,0,1,.2,2.95,15.872,15.872,0,0,1-3.1,3.35,8.124,8.124,0,0,1-4.6,2.1Q64.1,81.3,50.4,74.7m27.9-9.05q.251-3.35-3.1-3.5-4.4-.1-3.95,3.05a3.927,3.927,0,0,0,3.55,3.65q3.251.15,3.5-3.2m-3.25-1.8q1.6.05,1.25,1.65-.4,1.6-1.65,1.05a1.735,1.735,0,0,1-1.2-1.65q0-1.1,1.6-1.05m6.9-3.8a2.815,2.815,0,0,0-1.55,1.4q-.3.8,1.3,2.2,1.5,1.3,2.4,1.05a6.16,6.16,0,0,0,2.1-1.35q1.2-1.1-.4-2.5-1.6-1.45-2.15-1.35a5.653,5.653,0,0,0-1.7.55M83,62.7a.951.951,0,0,1-.15-1.4q.5-.75,1.4.3.9,1,.2,1.4A1.141,1.141,0,0,1,83,62.7M48.5,50.453q-.8,4.6,4.7,7.4,5.6,2.5,9.8,0,4.7-2.6,2.3-6.1a18.153,18.153,0,0,0-3.9-4.3,9.061,9.061,0,0,0-5.4-1.8q-6.7,0-7.5,4.8m3.3.1a2.537,2.537,0,0,1,.95-1.5,3.2,3.2,0,0,1,2.05-.8,9.823,9.823,0,0,1,5.3,1.7,4.26,4.26,0,0,1,2,3.8,2.413,2.413,0,0,1-.8,1.7q-.75.7-3,.6a9.578,9.578,0,0,1-3.9-1.1,4.965,4.965,0,0,1-2.6-4.4"/></svg>