<svg overflow="visible" width="100%" height="100%" viewBox="0 0 116.083 78.477" xmlns="http://www.w3.org/2000/svg"><path d="M105.833,17.225q-4.9-5.1-10.3-6.2-6.6-.7-17-4.9-12.2-4.8-16.8-5.9a111.454,111.454,0,0,0-19.3.4,58.052,58.052,0,0,0-18.5,5.4q-5.6,2.7-7.9,4.1a27.365,27.365,0,0,0-6.6,5.9q-1.4,1.9-5.9,8.5a21.587,21.587,0,0,0-3.4,10.2,52.372,52.372,0,0,0,.4,10.8,25.806,25.806,0,0,0,3.5,9.2q.9,1.6,5.6,8.1a28.164,28.164,0,0,0,10.3,8.5,56.378,56.378,0,0,0,11.25,3.9,24.035,24.035,0,0,0,11.4.15,77.131,77.131,0,0,0,10.25-3.45q5-2.1,6.05-2.5a15.373,15.373,0,0,0,7.55,7.6,15.564,15.564,0,0,0,12.7.2,30.747,30.747,0,0,1,6.2-1.9q1.35-.15,6.85,1.45a19.3,19.3,0,0,0,10.55.25,14.574,14.574,0,0,0,10.1-7q3.2-5.2,3.25-9.4a17.7,17.7,0,0,0-2.5-8.7q-.75-1.3-1.15-2a33.918,33.918,0,0,0,3-9.1q1.5-8.5-2.1-13.9a82.935,82.935,0,0,0-7.5-9.7m-10.7-3.1a6.491,6.491,0,0,1,4.8,1.7q4.2,4.3,9,9.8a16.667,16.667,0,0,1,4,11.9,26.1,26.1,0,0,1-3.8,12.2,26.846,26.846,0,0,1-6.4,7.5,54.8,54.8,0,0,1-8.3,5.3,5.917,5.917,0,0,0-2.1,1.4q-.7.9,1.2,2.3.5.3,0,1.6-2.3,6.2-4.6,4.9a5.746,5.746,0,0,0-6.7.1,11.222,11.222,0,0,1-3.8,1.6q-2.7.6-4.1.9-5.7,1.3-10.4-3.7a17.325,17.325,0,0,1-5-10.3q-1-7.6,6-12.8a19.487,19.487,0,0,1,14.4-3.8l7,.5a3.363,3.363,0,0,0,1.9-.05.9.9,0,0,0,.55-1.35q-.45-1-4.35-1.6a48.737,48.737,0,0,0-7.4-.6,19.663,19.663,0,0,0-9.6,2.3q-1.3.8-6.1,4.6a22.122,22.122,0,0,1-6.5,3.8,3.234,3.234,0,0,1-2.7-.1q-.7-.6-.6-2.6a62.369,62.369,0,0,1,.9-7.8q.8-5.3-.85-7.5a6.5,6.5,0,0,0-4.55-2.65,22.523,22.523,0,0,0-5.8-.05,7.579,7.579,0,0,0-5.2,3.3,26.387,26.387,0,0,1-7.4,6.7q-3.5,1.9-5.5-.5a35.252,35.252,0,0,0-3.1-3.25q-1-.85-1.15,1.65-.2,2.5,4.15,4.6,4.3,2.1,7.3-.1a48.287,48.287,0,0,0,7.2-6.7,9.009,9.009,0,0,1,7.8-3.5q2.8.2,3.5.9.8.8.7,3.6-.1,3.6-1,10.8-.6,5.7,4.1,6.2,4.2.5,3.7,2.5a11.112,11.112,0,0,0,.1,4.9q.2.5,1.6,4.6-.75.3-3.45,1.3-2.7.9-9.9,3.65-7.249,2.749-21.25-2.75-6-2.2-11.8-8.8a34.482,34.482,0,0,1-7.7-12.9,24.745,24.745,0,0,1-1-8.1q.2-5.4.2-8.1,6.8-15.6,17.7-21.2a73.859,73.859,0,0,1,25.4-7.4q14.3-1.4,25.9,3.6a131.872,131.872,0,0,0,14.4,5.5q5.9,2.1,8.6,2m-81.7,29.55q-.049-3.049-2.05-3.65h-.95q-1.2.2-.7,2.55t1.35,2.95q1.05.7,1.7-.05a2.653,2.653,0,0,0,.65-1.8m73,6.45a1.076,1.076,0,0,0-.4-.5,24.853,24.853,0,0,0-5.8-1,10.218,10.218,0,0,0-5.7,1.4q-3.1,2-3.3,4.6-.3,2.5,2.3,5.1.7.7,1.8,2a3.287,3.287,0,0,0,2.4.8q1.1-.15.75-1.2a2.668,2.668,0,0,0-.45-.9q-2.1-2.1-3-3.2-2.5-2.6.4-4.8a8.15,8.15,0,0,1,5.65-2.05,24.089,24.089,0,0,1,4.3.95q1.1.4,1.2-.2a1.858,1.858,0,0,0-.15-1m-49.95,5.6a14.724,14.724,0,0,1-4.65,5.7q-3.45,2.7-6.25,1.45t-3.9-1.65a1.509,1.509,0,0,0-1.85.5,1.262,1.262,0,0,0,0,.7,3.805,3.805,0,0,0,1.05,1.2q.951.85,6.1,2.15,3.951.25,8.2-3.8,4.2-4.1,4.4-6.4a8.63,8.63,0,0,0-.05-2.75,1.923,1.923,0,0,0-.55-.6.826.826,0,0,0-.8.15,11.535,11.535,0,0,0-1.7,3.35m15.1-44.5a1.573,1.573,0,0,0,1.95-.6q.4-.5-.4-1.3-2.3-2.1-7.7-2.6-5.5-.5-8.3,1.1a7.528,7.528,0,0,0-3.9,6.8,41.586,41.586,0,0,0,1.3,8.5,6.507,6.507,0,0,1-4.2,5.6,9.568,9.568,0,0,1-7.4.4q-4.1-1.4-6.2-1.9a6.38,6.38,0,0,0-6.5,1.9q-3,2.8-2.65,5.45.351,2.6,1.95,2.6,1.05-.1,1.2-1.45a8.341,8.341,0,0,1,.1-1.5q.9-4.6,5.6-4a53.16,53.16,0,0,1,8.1,2.2,10.087,10.087,0,0,0,9.5-2.6,9.939,9.939,0,0,0,2.8-9.4,20.117,20.117,0,0,1-.9-6.2q.4-3.3,4.7-4.5t7-.05q2.7,1.15,3.95,1.55m44.95,14.65q2.1.5.7,4.8-.7,2.25-2,8.35-.3,5.1,2.7,6.35,2.95,1.2,4,.85,1-.4.3-1.25a17.838,17.838,0,0,0-3.25-2.5q-2.45-1.65-.65-7.15,1.2-5.1,2-8.3.2-1.6-1.8-3a5.843,5.843,0,0,0-3.65-1.25,5.393,5.393,0,0,0-2.4.7.825.825,0,0,0-.25,1.35q.55.75,4.3,1.05m-23.6-3.15q.4.8-1.2,4.3-2.2,4.5.6,7.2a7.161,7.161,0,0,0,4.5,2,4.96,4.96,0,0,0,4.5-1.8q.251-1.05-1.4-1.2-4.7.1-5.7-1.3-1.1-1.3.6-5a12.734,12.734,0,0,0,1.3-3.1q.4-4.3-5.1-5.5-5-1.2-8.4.7-1.6,1.1-1.2,2.4.4,1.4,2.2.2a6.066,6.066,0,0,1,5.1-.7q3.8,1.1,4.2,1.8"/></svg>