<svg overflow="visible" width="100%" height="100%" viewBox="0 0 114.881 100.423" xmlns="http://www.w3.org/2000/svg"><path d="M56.806,5.723q-11.3,4.6-17.3,7.3a129.067,129.067,0,0,0-16.5,9.1q-11.4,7.4-15.6,17.1a90.575,90.575,0,0,1-5.25,10.75q-3.2,5.5-1.65,6.65h.9a6.8,6.8,0,0,0,.9-1.2l5.7-10.9.7.3q.1,16.9.9,50.6.1,3,.9,3.9t3.6.9q15.1.2,45.2.2a9.255,9.255,0,0,0,3.6-.55q2.649-1.1,16.75-7.1,14.1-6.049,21.5-12.75,7.35-6.7,7.35-7.25a14.506,14.506,0,0,1,.25-2.55,26.927,26.927,0,0,0,.25-3.1q.1-1.3.1-1.9l1.1-22.8q.2-2.7,1.3-3.4,4.5-2.5,3-7.5-2.8-5.8-3.9-8.4-2.7-4.8-7.5-12.3a4.774,4.774,0,0,0-2.4-2.2q-7.3-3.3-18.7-8a9.246,9.246,0,0,0-4.7-.5,111.115,111.115,0,0,0-20.5,5.6m-18.5,10.2a2.237,2.237,0,0,1,3.4.6,25.178,25.178,0,0,0,6.3,5.6q2.4,1.5,7.2,4.4a22.686,22.686,0,0,1,7.35,7.35q-.051.95-.1,2.25-.251,9.5.05,13.2-.3,6.3-1.3,36.2-.1,3.3-.7,9.9a2.431,2.431,0,0,1-2.4,2.5q-3,.2-3.7-.4-.8-.7-.8-3.8l.1-18.8q-.1-4-1.8-5.8-1.7-1.7-5.7-1.9-9.6-.2-14.4-.5-5.2-.3-6.9,1.1-1.8,1.4-2.6,6.5a10.8,10.8,0,0,0-.2,2.9l.4,14.4a25.074,25.074,0,0,1,.1,2.7,23.082,23.082,0,0,0-.15,3.1q-1.35-.049-2.55-.1-6.3-.2-6.8-.5-.7-.6-.9-7-.2-25.8-.5-38.7a33.813,33.813,0,0,0,.2-4.8,6.557,6.557,0,0,0-1.8-4.6.6.6,0,0,1,0-.9q1.9-3.9,2.9-5.9a15.323,15.323,0,0,1,3.7-4.9,111.732,111.732,0,0,1,10.6-7.3l11-6.8m12.3,4.2a35.267,35.267,0,0,1-7.2-6.1q13.5-5.3,14.5-5.7a110.2,110.2,0,0,1,14.5-4.4q7.5-1.8,12.8,1.1,2.1,1.1,7.2,3.3a40.479,40.479,0,0,1,7.2,3.5q-5.3,1.9-12.6,3.9-8.3,2.2-12.7,3.4-7.8,2-11.3,5.8a3.078,3.078,0,0,1-2.2,1.2,5.187,5.187,0,0,1-2.5-.9q-5.2-3.4-7.7-5.1m14.1,7.6q.6-1.6,3.5-3.3a10.208,10.208,0,0,1,3.7-1.4q21.3-6.2,27.1-7.7a4.871,4.871,0,0,1,2-.2q1.2.1,1.5.6,4.4,6.4,5.3,8a38.7,38.7,0,0,1,4,8.8,3.107,3.107,0,0,1-1.5,3.8q-1.2.8-5.6,3.7-3.4,2.3-5.6,3.6-3.6,2.2-11.95,6.4a67.467,67.467,0,0,0-11.95,7.1,5.419,5.419,0,0,1-1.2.85l-8.7-25.45q-1.1-3.3-.6-4.8m41.9,15,.4,2q-.3,8.4-.9,25.3-.251,1.9-3.8,4.7t-8.6,6.2a82.032,82.032,0,0,1-10,5.8q-4.95,2.4-7.55,3.5-11.6,4.8-12.45,5.25l1.7-46.15q.2-3.4.2-4.45a5.287,5.287,0,0,1,.35-2.15q1.05,4.249,5.35,16.3a5.832,5.832,0,0,0,1,1.5q.7.8,1.1.7a4.574,4.574,0,0,0,.8-.25c.2-.133.366-.25.5-.35s1.916-1.267,5.35-3.5a133.3,133.3,0,0,1,12.45-7.1q9.5-4.6,14.1-7.3m-61.2,27.5q3.7.2,4.7,1.3,1.1,1.1,1,4.7,0,6-.4,17.8-.1,2.8-.6,3.3t-3.4.5q-13.05-.15-21.35-.35,0-4.05-.1-8.05-.15-4.1-.25-7.3a46.229,46.229,0,0,1,.5-9.6q.3-3.4,4.1-3.1,5.2.4,15.8.8m1.1-32.4a4.541,4.541,0,0,0-1.3-3.9,5.189,5.189,0,0,0-3.9-1.2q-4.4.1-6.7.4-4.1.5-5.5,2.9a24.5,24.5,0,0,0-1.35,10.05q.349,5.351.75,5.95a4.38,4.38,0,0,0,.6.85,1.727,1.727,0,0,0,.8.45,4.543,4.543,0,0,0,1.2.15q.7-.05,3.9-.05l6.7-.8a3.99,3.99,0,0,0,3.7-3.5,76.248,76.248,0,0,0,1.1-11.3m-13.7-1.4q.1-.1,7.1-.7,4.2-.5,3.7,3.1-.5,5.8-.8,7.3-.5,2.9-1.1,3.4-.6.6-3.6.7-7,.251-6.95-.5a36.153,36.153,0,0,1-.25-6.45q0-5.85,1.9-6.85"/></svg>