<svg overflow="visible" width="100%" height="100%" viewBox="0 0 100.82 114.368" xmlns="http://www.w3.org/2000/svg"><path d="M100.657,2.588q-.6-1.05-1.45-.45-.85.551-3.1,7.6-2.3,7-3.1,10.4-4.9,18.2-9.3,43.3-2.5,14.4-7.2,43.8a1.289,1.289,0,0,0,1.3,1.7q1.149.2,1.5-1.6l.1-.5q5.1-33.6,8.1-50.3,5.2-28.8,12.4-49.4,1.3-3.55.75-4.55m-59,38.15a1.719,1.719,0,0,0-1.25-.65,2.111,2.111,0,0,0-1.35.6q-.75.55,0,1.4t1.45,1.6a7.009,7.009,0,0,1,1.15,1.65q.45.9-.75,2.35t-1.95.75q-.75-.7-1.15-1.1a5.731,5.731,0,0,0-.9-.9,1.4,1.4,0,0,0-1.7.2,1.07,1.07,0,0,0-.35,1.4,12.763,12.763,0,0,0,2.05,2.9,2.215,2.215,0,0,1,.15,3.05.778.778,0,0,1-1.3,0q-2.5-3.349-3.55-2.35a1.576,1.576,0,0,0-.4,1.7,4.725,4.725,0,0,0,1,2.1q1.4,1.7,1.05,2.95a7.329,7.329,0,0,1-.75,1.55q-.75,1.1-1.6.15a17.9,17.9,0,0,1-1.3-1.65,1.28,1.28,0,0,0-2.1-.2,1.238,1.238,0,0,0-.2,1.9q.5.6,1.8,1.85t1.05,1.9a1.529,1.529,0,0,1-.85.8q-.6.2-1.7-1.65-1.1-1.3-1.6-1.9-1-1.1-2.1.1a1.417,1.417,0,0,0-.1,2.2,8.407,8.407,0,0,0,1.9,1.7q3.2,2.9,1.7,4.75a9.924,9.924,0,0,0-1.9,3.2q-.4,1.35.6,1.85,1,.45,2-1.2a20.7,20.7,0,0,1,1.7-2.55q.649-.9,1.95.15t1.85,0q.9-1.1-.7-2.05-1.65-1-.85-1.85t2.35.9q1.55,1.7,2.4,1a1.468,1.468,0,0,0,.55-1.65,6.186,6.186,0,0,0-1.8-2.25,2.587,2.587,0,0,1-.25-4.1q.7-.7,1.6.15,1.25,1.5,1.7,1.95,1.55,1.45,2,1a1.705,1.705,0,0,0,0-2.6q-1.2-1.5-2-2.55a10.788,10.788,0,0,1-1.05-1.65q-.3-.55,1.55-2.6.5-.5,2.1,1.5l1.7,2a2.346,2.346,0,0,0,1.2.75q.6.1,1.2-.65.549-.75-.9-2.4-1.5-1.7-2.3-2.8a2.424,2.424,0,0,1,.4-3.6q.7-.7,1.3-.1a6.947,6.947,0,0,1,1,1q1.6,2.1,2.3,1.1.9-1.249-.45-3.05t-1.05-2.9a6.662,6.662,0,0,1,1.65-2.35q1.35-1.45,2.4-.45.7.7,1.15,1.1a3.731,3.731,0,0,0,1.2.8q.5.15,1-.65.45-.8-.65-2a21.782,21.782,0,0,1-1.6-1.9,1.347,1.347,0,0,1-.05-1.6,6.647,6.647,0,0,1,1.05-1.55q.6-.7,1.35,0a16.181,16.181,0,0,1,1.65,2.05q.9,1.3,1.75.35a1.833,1.833,0,0,0,.35-2.1,10.71,10.71,0,0,0-1.55-1.75q-1.35-1.35-1.1-2.4a7.477,7.477,0,0,1,1.75-2.5,1.3,1.3,0,0,1,2.1-.05q.6.7,1.3,1.45,1.35,1.4,2.45.55,1.05-.9-.25-2.1a21.284,21.284,0,0,1-2.15-2.25q-.8-1-.1-1.75t1.3-.35a5.6,5.6,0,0,1,1.15,1.05l.95,1.05q.849.949,1.65.05.75-.95.35-1.65a24.8,24.8,0,0,1-2.1-2.8,3.138,3.138,0,0,1-.35-3.55,7.147,7.147,0,0,1,1.5-1.8q.95-.949,2.7.6a9.061,9.061,0,0,0,2.75,1.85.917.917,0,0,0,1.3-.65q.3-.95-2.05-3.1-2.351-2.2-2.15-3.3a8.073,8.073,0,0,1,1.2-2.75q1-1.65.75-2.4-.3-.75-1.2-.45a2.958,2.958,0,0,0-1.6,1.25,3.6,3.6,0,0,1-1.25,1.2q-.8.4-1.7-.75-.9-1.2-1.6-1.25-.75-.049-1.1.9-.351.9,1.1,2.3a3.394,3.394,0,0,1,1.1,3.15,8.176,8.176,0,0,1-2.05,3.55q-1,1.05-1.8.15-2.3-2.8-2.7-3.3a2.684,2.684,0,0,0-1.05-.75q-.651-.2-1.25.55a1.255,1.255,0,0,0-.05,1.6,36.928,36.928,0,0,0,2.4,3.25q.65.75,1.4,1.65a1.18,1.18,0,0,1-.2,1.8q-.951.9-1.8-.2-.9-1.15-1.3-1.75a17.248,17.248,0,0,0-1.4-1.7q-.8-1-1.8,0a1.339,1.339,0,0,0-.2,1.9l1.5,1.8q2.3,2.6,2.3,3.4,0,1-1.8,2.95a.951.951,0,0,1-1.55,0q-1.851-2.051-2.7-2.95a1.62,1.62,0,0,0-2.25-.4.956.956,0,0,0-.2,1.55q.7.851,2,2.35a10.29,10.29,0,0,1,1.55,2.3,1.858,1.858,0,0,1-.45,2.05q-.951,1.05-1.8.3a14.924,14.924,0,0,1-2.3-2.75q-1-1.4-1.9-.8a1.552,1.552,0,0,0-.4,2.5q.6.8,2,2.3,1.749,2.1,1.75,2.6,0,.45-2.25,2.85-.8.7-1.35,0-.9-1-1.3-1.45M32.207.338q-.5-.65-1.4-.05-.951.6-2,3.5-1.1,2.85-5.3,12.65-3.6,8.8-5.5,15.1-4.1,13.1-10.8,40.7-3.5,14.3-4.6,19.5a132.74,132.74,0,0,0-2.6,19.9q-.1,2.65,1.3,2.7a1.062,1.062,0,0,0,1.4-.95,20.2,20.2,0,0,0,.2-3.25,191.9,191.9,0,0,1,4.5-27q4.5-17.8,6.5-26.7a286.761,286.761,0,0,1,16.2-48.8q1.1-2.4,1.85-4.55.7-2.149.25-2.75"/></svg>