<svg overflow="visible" width="100%" height="100%" viewBox="0 0 43.94 116.333" xmlns="http://www.w3.org/2000/svg"><path d="M43.1,14.944q-1.7-6.6-5.2-9.25a30.936,30.936,0,0,0-5.1-3.4,41.889,41.889,0,0,0-8-1.949A20.79,20.79,0,0,0,12.4,1.893a18.812,18.812,0,0,0-9.25,8.15,29.825,29.825,0,0,0-2.8,6.6,11.161,11.161,0,0,0,.5,7.1q5,12.3,9.8,18.2a65.016,65.016,0,0,0,5.2,5.5A41.776,41.776,0,0,0,20,50.594q1.8,1.149,1.45,2a32.9,32.9,0,0,1-1.85,2.949,5.435,5.435,0,0,0-1.05,4.2q.3,2.1,4.3,4.9l5.3,3.6q2.9,2,3.3,4t-1.7,4.6a61.254,61.254,0,0,1-4.45,4.9q-3.05,3.1-4.3,4.2a19.894,19.894,0,0,0-2.2,2.25,2.776,2.776,0,0,0-.25,2.949,3.11,3.11,0,0,0,2.4,1.9q1,.2,3.35.6l10.95,2q3,.6,2,3.7-.5,1.6-2.2,8.6-1,3.7.3,5.7a6.118,6.118,0,0,0,3.75,2.5q2.45.55,3.05-.5.75-1-.05-1.6a10.661,10.661,0,0,0-2.05-1.1q-2.3-1.1-2.6-1.8-.4-.7.2-3l2.3-8.1q.8-3,0-4.5-.7-1.5-3.5-2.4-1.8-.6-8.95-2.049-3.649-.75-6.05-1.15l4.2-4.3q5.5-6,6.8-7.8,4.8-6.6-2-11.4-.7-.5-5.3-3.6-3.5-2.5-3.6-4.4t3.2-4.8l3.1-2.4q5.8-5.1,7.3-6.6a24.22,24.22,0,0,0,5.2-8.1,82.054,82.054,0,0,0,2.8-9.2,24.057,24.057,0,0,0-.05-12.4m-30.25-9.4q6.45-2.9,10.15-2.6a45.836,45.836,0,0,1,7.85,1.4q4.15,1.1,7.6,6.7a18.323,18.323,0,0,1,2.5,12.3,51.762,51.762,0,0,1-1.9,9.6,23.828,23.828,0,0,1-5,8.7,48.022,48.022,0,0,1-7.9,7.25q-2,1.3-3.4.25-1.65-1.3-2.9-2.3a39.167,39.167,0,0,1-9.9-10.9,51.818,51.818,0,0,1-5-9.85,35.587,35.587,0,0,1-1.9-5.7,9,9,0,0,1,0-1.9,16.208,16.208,0,0,1,.9-3.549q.4-1.2.6-1.8,1.8-4.7,8.3-7.6"/></svg>