<svg overflow="visible" width="100%" height="100%" viewBox="0 0 95.166 114.554" xmlns="http://www.w3.org/2000/svg"><path d="M19.266,76.029a3.037,3.037,0,0,0-2.25.85,25.792,25.792,0,0,0-2.9,3.9q-2,3-1.5,3.95a1.748,1.748,0,0,0,1.55,1q1.05,0,6.25-.8t2.75-4.85q-2.5-4.1-3.9-4.05m-3,5.85a7.215,7.215,0,0,1,2-2.55q1-.7,2.15.55,1.2,1.2.8,2.1-.4.849-3.15,1.25t-1.8-1.35m30.4,18.3a44.425,44.425,0,0,0,.85,4.65,20.418,20.418,0,0,0,4.4,8.5q1.1,1.4,2.1,1.2t1.5-1.8a107.564,107.564,0,0,0,2.9-10.5,2.584,2.584,0,0,0-1.7-3.5,9.919,9.919,0,0,0-3.45-.55q-1.65,0-3.75.15-2.149.15-2.5.7a1.582,1.582,0,0,0-.35,1.15m4.25,1.3a13.36,13.36,0,0,1,2.8.1q1.5.15,1.7.65a2.663,2.663,0,0,1,.3,1.2,4.779,4.779,0,0,1-.25,1.4q-.3.75-1.2,2.8-.949,2.049-2.25.2a11.385,11.385,0,0,1-1.8-4q-.6-2.3.7-2.35m-17.8-8.5a1.349,1.349,0,0,0-1.5.8,36.962,36.962,0,0,0-2.85,6.75q-.649,2.4.15,3,.75.549,3.9-.6a23.434,23.434,0,0,0,4.95-2.5q1.9-1.35.25-3.6a11.883,11.883,0,0,0-2.75-3,5.876,5.876,0,0,0-2.15-.85m2.2,5.8a9.508,9.508,0,0,1-2.1,1.45q-1.1.5-1.1-.5a5.187,5.187,0,0,1,.65-2.4q.7-1.5,1.15-1.5.4-.051,1.4,1a1.2,1.2,0,0,1,0,1.95m40.15-10.55a10.451,10.451,0,0,0-2.4.95,18.35,18.35,0,0,0-2.3,1.7,3.823,3.823,0,0,0-1.7,3,4.643,4.643,0,0,0,1.75,3.45,36.98,36.98,0,0,0,4.05,3.95,15.338,15.338,0,0,0,1.6.95,7.615,7.615,0,0,0,1.6.5q.95.15,1.45-1.9t-.9-7.6q-1.4-5.55-3.15-5m-2.25,6.85a1.919,1.919,0,0,1,.9-2.55q1.5-1.1,2.55,3.1,1,4.149-.9,2.55a9.582,9.582,0,0,1-2.55-3.1m6.55-20.6a12.076,12.076,0,0,0-1.5,2.9,4.249,4.249,0,0,0-.35,1.85q.049.549,2.25,1.95a12.61,12.61,0,0,0,3.9,1.7,19.557,19.557,0,0,0,3.5.3q1.85,0,2.2-.5a2.836,2.836,0,0,0,.2-1.6,10.9,10.9,0,0,0-.95-3,20.411,20.411,0,0,0-3.05-4.6q-2.2-2.65-3.65-1.6a9.022,9.022,0,0,0-2.55,2.6m5.75,5.35a11.555,11.555,0,0,1-3.35-1.35q-1.35-.9.25-2.6,1.6-1.751,3.35,1.35,1.751,3.05-.25,2.6m-2.15-28.25a4.577,4.577,0,0,0-.35,1.55q-.4,5.649,2.2,5.5a11.727,11.727,0,0,0,5.3-1.75,16.279,16.279,0,0,0,3.7-2.75,3.221,3.221,0,0,0,.95-2q-.049-.9-1.35-1.05a49.4,49.4,0,0,0-5.75-.2q-4.451,0-4.7.7m3.05,1.5a8.457,8.457,0,0,1,3.2-.15q2.1.2.6,1.45a8.187,8.187,0,0,1-3.05,1.6q-1.549.4-1.7-1.05-.2-1.5.95-1.85m1.85-22.5q.55-1.851-2.85-1.2a25.257,25.257,0,0,0-5.7,1.7q-2.35,1.05-1.2,4.15,1.05,3.05,3.65,2.7a5.351,5.351,0,0,0,4.05-2.9,25.968,25.968,0,0,0,2.05-4.45m-7.05,2.15a12.045,12.045,0,0,1,3.1-1q1.65-.3-.15,2.3-1.849,2.6-3.1,1-1.249-1.65.15-2.3m-29.6-29.35a57.1,57.1,0,0,0-1.4,5.75,17.771,17.771,0,0,0-.5,3.5q0,.75.35.95a11.515,11.515,0,0,0,2.55.5,12.528,12.528,0,0,0,3.05.1q.8-.2.8-4.05a39.164,39.164,0,0,0-.35-5.6,13.9,13.9,0,0,0-.75-2.8,3.313,3.313,0,0,0-1.05-1.5,1.037,1.037,0,0,0-1.15-.1q-.65.2-1.55,3.25m.7,4.45q1.249-4.2,1.9-.05.6,4.1-1.25,4.15t-.65-4.1m-16.5-2.15q-2.25-2.55-3.25-2.35t-1,2.65a47.581,47.581,0,0,0,.7,6.9q.7,4.4,1.85,4.15,1.1-.3,2.15-.7,1-.4,2.55-1a3.748,3.748,0,0,0,2.15-1.85q.6-1.251-1.15-3.25t-4-4.55m-1.9,3.65q-.3-3.051,2.4.05,2.65,3.1.9,4-1.8.95-2.4-.05a9.443,9.443,0,0,1-.9-4m39.2-1.7a2.06,2.06,0,0,0-2.3.25,66.263,66.263,0,0,0-5.9,4.85q-3.3,3.4-1.1,5.35a42.09,42.09,0,0,0,4.35,3.4q2.15,1.4,3.2-.6a18.73,18.73,0,0,0,1.55-4.1,58.49,58.49,0,0,0,1.1-6.4q.2-2.25-.9-2.75m-5.05,10.35q-1.65-.951-1.5-1.95a3.7,3.7,0,0,1,1.3-2.15,5.254,5.254,0,0,1,2.25-1.45q1.05-.351.3,3.05t-2.35,2.5m-44.95,13.55q-8.5,11-3.9,26.3a78.5,78.5,0,0,0,8.9,20.15q5.15,7.9,11.25,10.25a35.538,35.538,0,0,0,14.2,1.95q8.1-.351,16.7-8.25a27.529,27.529,0,0,0,8.95-20.15,64.81,64.81,0,0,0-3.8-24.05q-5.1-14.6-18.4-19.4-13.9-5.1-23.5,2.7a61.947,61.947,0,0,0-10.4,10.5m-1.3,24.8q-4.95-13.851,5.65-26.05t23.65-10.7q13.05,1.449,19.6,14.65a50.383,50.383,0,0,1,5.2,27.6,31.945,31.945,0,0,1-4,13.5,22.183,22.183,0,0,1-8.8,8.55,41.822,41.822,0,0,1-8.85,3.35,18.918,18.918,0,0,1-7.2.3,32.992,32.992,0,0,1-5.55-1.35,18.548,18.548,0,0,1-5.35-4,51.479,51.479,0,0,1-6.4-7.65q-3.049-4.4-7.95-18.2m-13.75-2.3q-2.45,2.3-4.65,4.15a14.864,14.864,0,0,0-2.55,2.45,1.478,1.478,0,0,0-.1,1.3,1.6,1.6,0,0,0,.7.95q.5.3,3.85,0,3.3-.351,6.1-.75t2.95-1.4a3.746,3.746,0,0,0-.1-1.75q-.251-.75-.8-2.95a22,22,0,0,0-.9-3.05,1.8,1.8,0,0,0-1.25-1q-.851-.251-3.25,2.05m.65,3q2.351-1.95,3.1.35.7,2.3-3,2.9-3.75.549-3.1-.35a17.836,17.836,0,0,1,3-2.9m5.05-22.5q-.15-1.251-2.7-1.85a43.471,43.471,0,0,0-6.45-.9q-3.9-.3-4.4.6a1.516,1.516,0,0,0,.3,1.9,18.484,18.484,0,0,0,3.4,2.6q2.5,1.6,4.4,2.8t3.05.15a9.147,9.147,0,0,0,1.85-2.55,5.084,5.084,0,0,0,.55-2.75m-8.6-.05q-.55-1.05,2.35-.45,2.85.6,3.35,1.25.5.6-.15,1.5a1.458,1.458,0,0,1-1.55.65,8.072,8.072,0,0,1-2.2-1.05,5.372,5.372,0,0,1-1.8-1.9m19.25-15.45a4.778,4.778,0,0,0-2.3-2l-8.4-4.1a1.738,1.738,0,0,0-1.8,0,1.213,1.213,0,0,0-.6,1.4q1.2,6.5,3.1,9.05a13.22,13.22,0,0,0,2.55,2.85,1.377,1.377,0,0,0,1.25,0,31.294,31.294,0,0,0,3.85-3.05q3.2-2.8,2.35-4.15m-4.85-.45q2.4,1.1.4,2.8t-3,.7a8.678,8.678,0,0,1-1.65-3.95q-.3-1.35.85-1.05.949.349,3.4,1.5"/></svg>