<svg overflow="visible" width="100%" height="100%" viewBox="0 0 83.068 116.412" xmlns="http://www.w3.org/2000/svg"><path d="M59.414,23a19.771,19.771,0,0,1-5.95,1.5q-1.7-.1-10.6-2a53.657,53.657,0,0,0,3-6.1,6.9,6.9,0,0,0-.3-6.4q-3.1-5.6-10.4-9.6-2.2-1.2-5.5,1.2-1.7,1.1-.9,3.5,1.1,3.1,3.5,9.2a42.961,42.961,0,0,1,2.65,11.35,2.569,2.569,0,0,0,.05.5c-.167-.2-.333-.383-.5-.55q-3-3.1-13.6-2.95-3.5.05-4.6,2.5t-2.9,7.45a14.494,14.494,0,0,0,.4,8.6q-5-4-9.1-2.3-3.7,1.5-4.5,6.3a11.345,11.345,0,0,0,2.3,9q3.6,4.7,11.75,5.6a10.462,10.462,0,0,0-2.75,5.4,13.615,13.615,0,0,0-.2,5.1q1.3,5.749,5.65,8.15,4.35,2.35,11.75,2.95a1.745,1.745,0,0,1,.9.5,1.573,1.573,0,0,1,.6.8q1.1,5.3,1.35,7.35a6.073,6.073,0,0,0,1.8,3.7,10.77,10.77,0,0,0,3.1,2.45,12.557,12.557,0,0,0,2.55,1.05q.951.251,2.45.6a4.927,4.927,0,0,0,2.7-.05,15.258,15.258,0,0,0-1,2.6,17.875,17.875,0,0,0-.85,4.3,21.54,21.54,0,0,0,.3,5.35,6.337,6.337,0,0,0,2.95,4.5,11.16,11.16,0,0,0,4.45,1.8,12.651,12.651,0,0,0,4.8-.5,32.865,32.865,0,0,0,5.3-2.05,9.286,9.286,0,0,0,3.8-3.15,5.455,5.455,0,0,0,.6-4.35,22.43,22.43,0,0,0-2-4.2q4.7-2.6,6.1-4.6,1.4-2.1.6-5.6-1.8-8.1-7-11.4-1.1-.7-1.2-.8a1.217,1.217,0,0,1,.1-1.4q1-1.7-.3-6.7a11.864,11.864,0,0,0-2.3-4.8,3.418,3.418,0,0,0,3.6-1.9,22.944,22.944,0,0,0,.8,6.5,7.38,7.38,0,0,0,2.15,2.95,4.574,4.574,0,0,0,2.9,1.35,5.243,5.243,0,0,0,3.05-1.3q1.7-1.3,1.05-5.5-.649-4.25-3.8-5.45-3.15-1.25-2.45-2.75a19.694,19.694,0,0,0,1.9-2.6q3.5,4.8,3.8,5.1a5.708,5.708,0,0,0,4.7,1.8,5.409,5.409,0,0,0,4.4-2.1,11.4,11.4,0,0,0,2.5-7.7,10.574,10.574,0,0,0-3-7.3,9.57,9.57,0,0,0-2.5-1.7q-1.9-1-3-1.6a11.058,11.058,0,0,0,3.5-6.1,28.823,28.823,0,0,0,.2-7.1,10.747,10.747,0,0,0-4.1-7.7q-4.1-3.6-8.6-2.6a36.224,36.224,0,0,0-6.15,1.9m-8.85,3.35q4.3,1.151,5.4,4.35a10.914,10.914,0,0,1-.5,9,11.611,11.611,0,0,1-6.9,6,7.449,7.449,0,0,1-6.4-.7,7.046,7.046,0,0,1-3.6-5.2,16.258,16.258,0,0,1,2.8-11.5,6.061,6.061,0,0,1,3.45-2.55,13.808,13.808,0,0,1,5.75.6m8.9,2.15a4.913,4.913,0,0,1,3.05-3.9q2.7-1.4,6.9-.25,4.15,1.151,5.95,6.35a10.763,10.763,0,0,1-1,9.7q-3.4,4.3-3.9,4.8a5.383,5.383,0,0,1-5.6,1.4,7.944,7.944,0,0,1-4.8-4.2,16.476,16.476,0,0,1-1.05-7.05q.15-4.3.45-6.85M31.814,4.1a2.272,2.272,0,0,1,1.05-1.2q.9-.55,3.15,1.3,2.25,1.8,4.85,4.1a7.336,7.336,0,0,1,2.6,4,8.7,8.7,0,0,1-1.1,4.8q-.6,1.6-2.1,4.8-.45,1.1-.8,2.15-1.35,3.949-2.05-.55a54.174,54.174,0,0,0-1.75-7.6q-2.6-7.1-3.9-10.7a2.492,2.492,0,0,1,.05-1.1M15.664,34.7a21.172,21.172,0,0,1,2.1-7.45q1.7-3.4,6.5-2.7a15.461,15.461,0,0,1,7.6,2.85,7.141,7.141,0,0,1,2.7,6.3q-.3,10.6-9.7,10.3a9.814,9.814,0,0,1-7-2.8,7.5,7.5,0,0,1-2.2-6.5m11.95,14.75q.9-1.1,3.35-1.15a15.763,15.763,0,0,1,5.3.8q5.5,1.7,3.8,7.3-1.6,5.1-6.55,4.2a27.111,27.111,0,0,1-7.15-2.1,2.579,2.579,0,0,1-1.4-3.45q.8-2.3,1.3-3.4a9.546,9.546,0,0,1,1.35-2.2M10.664,41.6a15.5,15.5,0,0,1,2.7,1.9q.45.5,2.45,3.5a6.425,6.425,0,0,1,.15,6.7q-1.9,3.8-7.3,2.1a8.442,8.442,0,0,1-5.5-5.8,7.615,7.615,0,0,1,1.55-7.8,5.027,5.027,0,0,1,2.25-1.4q1.5-.6,3.7.8m9.5,18.8a9.124,9.124,0,0,1,4.45,0,86.88,86.88,0,0,1,8.45,3q5.3,1.5,5.2,5.8.3,3.2-2.7,6a13.07,13.07,0,0,1-5.7,3.2,12.8,12.8,0,0,1-8.9-1,13.069,13.069,0,0,1-6.3-6.4q-.6-1.3-.1-4.6.6-3.3,1.95-4.35a8.653,8.653,0,0,1,3.65-1.65m23.65,9.5q0-4.151,2.65-5.2a8.552,8.552,0,0,1,4.9-.6,7.346,7.346,0,0,1,3.65,1.75,11.911,11.911,0,0,1,2.5,3.3,17.413,17.413,0,0,1,1.55,4.55,5.375,5.375,0,0,1-1.7,4.4,3.707,3.707,0,0,1-3.9.4l-7.3-2.8a4.531,4.531,0,0,1-1.9-1.15q-.45-.55-.45-4.65M37.064,78a8.679,8.679,0,0,1,6-.85,16.66,16.66,0,0,1,9.05,4.9q1.55,1.7.65,4.8-.9,3-1.15,3.9a4.636,4.636,0,0,1-1.75,1.9,21.47,21.47,0,0,1-3.95,2q-3,1.249-4.55.9a8.755,8.755,0,0,1-3.7-2.4,13.637,13.637,0,0,1-2.95-4.05,13.572,13.572,0,0,1-.65-5.8q.2-3.85,3-5.3m8.7,29.2a34.385,34.385,0,0,1,.55-6.25q.4-1.95.75-3.6V97.3a4.764,4.764,0,0,1,2.2.7q5.3,3.6,8.8,4.2,2.9.5,3.8,5.3a3.1,3.1,0,0,1-1,2.8,11,11,0,0,1-2.8,1.7,17.273,17.273,0,0,1-4.75,1.55,8.528,8.528,0,0,1-5.15-.75q-2.6-1.2-2.4-5.6m23.05-58.1a7.222,7.222,0,0,1,5.5-1.3,6.541,6.541,0,0,1,4.55,2.4,9.085,9.085,0,0,1,1.5,5.2q.2,3.5-1.1,5.05a4.632,4.632,0,0,1-3.1,1.75,3,3,0,0,1-2.8-1.1,66.266,66.266,0,0,1-5.5-7.7,2.9,2.9,0,0,1,.95-4.3m-11.05-1.5a4.9,4.9,0,0,1,3.2.7,7.324,7.324,0,0,1,2.95,2.45,7.238,7.238,0,0,1,1.05,2,9.245,9.245,0,0,1-2,7.65q-2.8,3.7-6.6,3.2a39.049,39.049,0,0,1-4.1-1.3,7.539,7.539,0,0,1-3.4-3,5.539,5.539,0,0,1,0-4.4,8.4,8.4,0,0,1,2.9-4.2q.7-.5,3.8-2.2a9.913,9.913,0,0,1,2.2-.9m6.75,21.25a3.252,3.252,0,0,1,0-2.55,2.044,2.044,0,0,1,1.45-.9,2.47,2.47,0,0,1,2.05.85,5.093,5.093,0,0,1,1.6,2.4,6.687,6.687,0,0,1,.05,2.95,1.771,1.771,0,0,1-1.9,1.65,2.143,2.143,0,0,1-2.2-1.35q-.55-1.35-1.05-3.05m-6.9,13a7.984,7.984,0,0,1,2.4.4q1.6.45,4.5,5.15,2.85,4.7,2.25,7.3a4.837,4.837,0,0,1-2.2,2.9,6.894,6.894,0,0,1-3.9,1.2,14.7,14.7,0,0,1-4.3-.5q-2.85-1.8-3.2-2.5a1.591,1.591,0,0,1,0-1.45,18.959,18.959,0,0,1,2.5-3.35,5.3,5.3,0,0,0,.95-5.75q-1.3-3.2,1-3.4"/></svg>