<svg overflow="visible" width="100%" height="100%" viewBox="0 0 73.104 114.859" xmlns="http://www.w3.org/2000/svg"><path d="M1.891,48.854a41.673,41.673,0,0,0-1.75,8,20.191,20.191,0,0,0,1.35,9.7,29.642,29.642,0,0,0,8.4,11,65.737,65.737,0,0,0,12.2,7.9q-9.5,8.8-16.3,15.5-3.2,3.1-3.1,6.4.1,3.4,3.4,6.4a3.908,3.908,0,0,0,1.8,1.1q.9.1.95-1.7,0-1.8,1.2-1.4a4.451,4.451,0,0,1,2.15,1.7q.9,1.3,1.7,1,.5-.1,1.5-1.4l19.2-24.6q1.2-1.5,2-1.6a3,3,0,0,1,2.3.9q5.7,4.5,13.75,10.9,8,6.35,12,6.55,3.949.15,5.6-.9a6.557,6.557,0,0,0,2.45-3.45,5.6,5.6,0,0,0,.05-4.1,7.281,7.281,0,0,0-3.05-3.1q-11.349-7.1-19.55-11.75a34.477,34.477,0,0,0,4.55-3.25q5.4-5.2,6.5-6.6a11.062,11.062,0,0,0,2.6-8.5,65.85,65.85,0,0,0-1.6-10.2l-6.4-26.2q-3.9-15.7-6.8-26-.7-1.5-1.8-1.05a1.953,1.953,0,0,0-1.3,1.45q-.6,2.1-1.4,6.3a21.378,21.378,0,0,1-1.3,4.1,7.473,7.473,0,0,1-2.7,3.3,40.3,40.3,0,0,0-2.9-3.6q-1.3-.6-3.5,2.3-6.6,8.6-8.8,10.9a59.32,59.32,0,0,1-1.9-6.8q-1.2-5.5-1.6-6.8-.7-1.8-1.8-2.1a1.911,1.911,0,0,0-1.3.4,2.665,2.665,0,0,0-1,.9q-2.2,3.7-3.3,5.5a46.838,46.838,0,0,0-2.9,5.8q-5.1,12.9-9.6,27.1m3.8,61.05q-.849-.4-1.05-2.4a3.715,3.715,0,0,1,.9-3.2,4.292,4.292,0,0,1,2.4-1.5q1.249-.3,4.4,3.3,3.1,3.6.7,4.25,0-.051-2.3-2.85-2.25-2.85-3.2,0-1,2.749-1.85,2.4m49.2-74.25q4.2,15.9,5.5,24.2t-2.6,12a39.1,39.1,0,0,1-4.6,4.3q-2.9,2-3.7,2.4-2.25,1.2-3.8,2.05-1.6.851-2.7,1.3t-1.9.7a8.058,8.058,0,0,1-1.3.25q-.6,0-2.9.2-15.1,1.5-25.7-8-11.4-10.2-6.8-25,6.7-22.8,14.9-36.9,2.2,7.8,2.5,9.5,1.4,7.9,6.9,2.5a72.049,72.049,0,0,0,7.7-9.6q4.3,5.1,7.1,1.5,1.6-2.1,4-8.4,2.4,9.1,7.4,27M46.791,84a5.646,5.646,0,0,1,.6-.35,2.1,2.1,0,0,0,.4.3q2.3,1.55,7.5,4.65a80.551,80.551,0,0,0,8.1,4.3q2.9,1.249,2,1.3-.95.05-2.9,1.9-2,1.8-.95,5.45l-19.05-14.7q-.4-.35-.65-.6,1.3-.051,4.95-2.25m-34.4,14.45,11.8-11.3a4.417,4.417,0,0,1,3.7-1.2,42.96,42.96,0,0,1,4.8.8l-16.45,19.8a14.23,14.23,0,0,1-4.15-3.7q-1.6-2.5.3-4.4m51.45-.15a3.447,3.447,0,0,1,1.5-2.3,3.128,3.128,0,0,1,2.75-.65,4.527,4.527,0,0,1,2.35,1.2,1.339,1.339,0,0,1,.45,1.7q-.5.8-1.05.1a1.679,1.679,0,0,0-1.25-.7,7.253,7.253,0,0,0-1.6.15,1.666,1.666,0,0,0-1.05,1.3,5.289,5.289,0,0,0-.05,1.6,8.34,8.34,0,0,0,.55,1.75q.4,1.05-.85.75a3.968,3.968,0,0,1-1.45-.55,6.479,6.479,0,0,1-.35-1.6,8.446,8.446,0,0,1,.05-2.75m-29.75-45.95a27.514,27.514,0,0,1-2.6-3q-1-1.4-2.6.5a22.482,22.482,0,0,0-5.4,12.6q-.9,8.1,4.4,12.2a17.053,17.053,0,0,1,1.5,1.9q1,1,2.2-.2a1.386,1.386,0,0,0,.1-2q-.2-.2-1.7-1.6-4.4-4.2-3.8-8.7a28.764,28.764,0,0,1,2.35-8.1q1.7-3.851,3.55-1.85t2.95,6.6a39.367,39.367,0,0,1,.45,11.75,2.858,2.858,0,0,0,.8,2.7q1.7.7,1.7-1.6.2-7.7,0-10.3a23.549,23.549,0,0,0-1.1-6,13.714,13.714,0,0,0-2.8-4.9"/></svg>