<svg overflow="visible" width="100%" height="100%" viewBox="0 0 114.956 106.4" xmlns="http://www.w3.org/2000/svg"><path d="M89.525,5.453l-31.8,17.2q-10.4,5.8-12.3,7.2a25.635,25.635,0,0,0-4.1,3.5,8.409,8.409,0,0,0-2.1,5.4,75.755,75.755,0,0,1-1.2,8.6q-1.2,6.3-1.5,8.6-.2,1.4-2.1,11.9a45.167,45.167,0,0,0-1,12q.3,2.4-2.2,2.7-3.7.7-5.6,1-3.3.6-5.6.8-7.5.7-17,7.6a6.672,6.672,0,0,0-3,6.1,7.389,7.389,0,0,0,4,5.7,15.109,15.109,0,0,0,9.4,2.6q6.1-.4,18.3-1.4a35.323,35.323,0,0,0,14.7-4.1,9.235,9.235,0,0,1,2.6-.9,3.651,3.651,0,0,1,2.6,1.4,7.179,7.179,0,0,0,4.8,1q.2,0,5.2-.7,6.8-1.3,6.4-6.8-.4-4-4.5-9.8a15.119,15.119,0,0,1-2-5.9,92.911,92.911,0,0,1-.2-12.4q.1-.9.9-12.4a5.545,5.545,0,0,1,2.6-4.8q30-20.1,49.1-32.7a2.15,2.15,0,0,0,.9-2.5q-.5-1.4-15.7,8.4-15.251,9.75-38.6,25.9a3.982,3.982,0,0,0-1.35,3,23.488,23.488,0,0,0,0,4.85,93.553,93.553,0,0,1-.55,10.25,43.237,43.237,0,0,0,.2,10.4q.7,4.4-3.1,6.2-2.4,1.2-7.6,1.4-7.3-.4-9.8-2.8-2.9-2.8-1.8-9.8l5.6-33.1a9.887,9.887,0,0,1,1-3.4,6.72,6.72,0,0,1,1.35-1.7,18.7,18.7,0,0,1,2.4-1.85,17.074,17.074,0,0,1,3.25-1.8q1.5-.649,2.6-1.25l40.5-21.8q3.4-1.8,5.9-3.3,2.45-1.5,2.7-2.25a1.1,1.1,0,0,0-.45-1.3,1.338,1.338,0,0,0-1.25-.35q-6.2,3-10.6,5.4m-26.6,83.8a25.266,25.266,0,0,1,1.8,3.5q1.7,4.3-2.1,5.7a69.535,69.535,0,0,1-7.7,1.1,14.445,14.445,0,0,1-2.9-1.7,3.491,3.491,0,0,0-4.5-.5,44.933,44.933,0,0,1-15.3,4.7l-15.9,1.5q-4.9,1.2-10.6-2.1-6-3.6-.4-7.6a42.29,42.29,0,0,1,14.1-6.3,136.924,136.924,0,0,1,15.3-2.7,8.539,8.539,0,0,1,3.7.6q10.4,4.5,19.5-.1,1.9-1,2.9.6l2.1,3.3"/></svg>