<svg overflow="visible" width="100%" height="100%" viewBox="0 0 115.019 75.143" xmlns="http://www.w3.org/2000/svg"><path d="M114.319,3.625a2.623,2.623,0,0,0,.6-1.3,2.141,2.141,0,0,0,0-1.3q-.1-.4-1-.8a2.74,2.74,0,0,0-1.4-.2q-4.9.1-10.9.8a14.658,14.658,0,0,0-4.9,2.7,38.035,38.035,0,0,1-4.6,3.2q-10.5,5.8-40.2,21.5-.9.5-2.4,1.35a5.728,5.728,0,0,1-2.8.85,23.973,23.973,0,0,1-4.8-.85,20.223,20.223,0,0,0-7.1-.45q-3.7.4-5.1,2.8a13.646,13.646,0,0,1-7.3,5.5,77.165,77.165,0,0,0-11.1,4.6,21.2,21.2,0,0,0-8.6,7.9q-4.3,6.3-1.8,14.2,2.6,8.2,10.1,9.5,21.6,5.3,35.6-7.9,4.4-4.1,6.7-6a19.4,19.4,0,0,1,7.9-3.9,5.417,5.417,0,0,0,1.9-.9,2.551,2.551,0,0,0,1.2-1.6q1.6-5.9.9-9.4-.8-4.2-5-8.2,25.8-15.9,33.1-20.3,7.249-4.4,8.95-5.15a7.194,7.194,0,0,1,3.3-.75q1.6,0,1.9.05a3.657,3.657,0,0,0,1.25-.75q1-.8,5.6-5.2m-8.3-.6a20.22,20.22,0,0,1,4.85-.45q.55.2-.2,1.4a6.482,6.482,0,0,1-2.4,2.05,4.176,4.176,0,0,1-2.4.75,5.22,5.22,0,0,0-2.3.15,19.1,19.1,0,0,0-3.4,1.2,26.47,26.47,0,0,0-2.65,1.2q-27.7,17-33.8,20.95t-6.95,3.8a38.545,38.545,0,0,1-5.25-2.15q4-2.5,11.7-6.5,8.2-4.2,11.8-6.4,1.3-.8,11.05-6.1a147.548,147.548,0,0,0,14.05-8.5,21.583,21.583,0,0,1,5.9-1.4m-70.3,28.4a25.532,25.532,0,0,1,6.05.4,15.04,15.04,0,0,1,4.3,1.3q1.45.8,5.75,2.6,4.6,2,6.5,3,2.7,1.4,2.9,3.4.3,1.9-2,4.1a12.834,12.834,0,0,1-5.5,2.7q-5.2,1.5-5.9,1.8-3.8,1.6-5.1,3.5-2.7,3.9-10,8a21.162,21.162,0,0,1-13.7,2.3,21.208,21.208,0,0,1-11.8-5.5q-5-4.9-.3-9.8a20.689,20.689,0,0,1,7.4-5.5q1.7-.8,8.8-3.5,6.4-2.1,7.9-5.4a5.064,5.064,0,0,1,4.7-3.4m25.9,20.7a7.02,7.02,0,0,1-2.9,1.5,27.532,27.532,0,0,0-7.5,4.2q-2.4,1.9-6.4,5.8a28.91,28.91,0,0,1-15.4,8.1q-7.4,1.3-17.4-.7-8.5-1.7-8.8-11.7a25.059,25.059,0,0,0,18.6,8.1q12.5.3,21.7-10a15.074,15.074,0,0,1,6.8-4.6q3.9-1.1,11.7-4.1.1,2.8-.4,3.4m-42.4,5.3q3.5,2.55,4.6,1.4.9-.9-.5-1.9l-8.85-6.3q-1.15-.75-1.7-.3a2.946,2.946,0,0,0-.95.85q-.4.5,1.75,2.1,2.149,1.55,5.65,4.15m20.8-21.1q-3.1.3-4.6.5a7.776,7.776,0,0,0-4.3,1.9q-3.8,3-2.4,7,1.5,4,6.2,3.8a12.767,12.767,0,0,0,8.4-2.9q4.4-3.4,2.7-7.2-1.5-3.3-6-3.1m-5.1,3.6a33.709,33.709,0,0,1,6.2-.7,2.066,2.066,0,0,1,1.5.4,2.307,2.307,0,0,1,.9,1.5q.2,1-1.3,2.5a9.845,9.845,0,0,1-7.1,3,4.686,4.686,0,0,1-2.9-.8q-1.4-.8-1.1-1.8a5.771,5.771,0,0,1,3.8-4.1"/></svg>