<svg overflow="visible" width="100%" height="100%" viewBox="0 0 115.658 68.219" xmlns="http://www.w3.org/2000/svg"><path d="M114.621,9.907q2.3-4.9-.5-8.4a3.258,3.258,0,0,0-3.3-1.45q-1.9.3-33.45,11.5-31.6,11.149-44,15.55-12.45,4.4-9.25,24.9,0,.4.45,3.4a8.241,8.241,0,0,0,.25,1.3,41.758,41.758,0,0,0-9.2,4.4q-5.149,3.2-8.6,2.7a9.048,9.048,0,0,0-5.5.55q-1.95,1.05-1.4,1.95l.5,1.1a1.187,1.187,0,0,0,.7.7,3.971,3.971,0,0,0,2.4-.2,87.439,87.439,0,0,0,11.8-3.05,34.5,34.5,0,0,0,8.3-4.15,12.424,12.424,0,0,1,6.3-2.6q6.4.4,19.7,1.9a39.15,39.15,0,0,0,20.65-3.65,99.325,99.325,0,0,0,15.2-9.1,67.346,67.346,0,0,0,11.15-10.65,107.24,107.24,0,0,0,17.8-26.7m-48.1,8.5a10.457,10.457,0,0,1,3.9-1q-3.9,7.3-5.6,10-1.6,2.7,1.3,2.5,2.1-.3,5.4-7.3t4.8-7.7l20-6.4q3.55-1.2-2.95,3.65t-16.2,11.7q-9.75,6.8-10.25,7.15-6.3,3.75-15.8,9.5a130.853,130.853,0,0,1-13.25,7.3q-4,1.7-3.85,3.4-.1.7.85.8a8.935,8.935,0,0,0,3.7-1.25q2.75-1.35,11.65-6.4,6.9-3.95,19.4-12.45,12.5-8.55,16.95-11.35a79.231,79.231,0,0,0,11.05-9.1q6.65-6.3,12.3-8.1,5.6-1.85,1.2,7.35-2.3,4.8-6.7,12-2.2,4.1-6.05,3.95-3.9-.2-6.15-.25-2.3-.05-4.15-.15a6.667,6.667,0,0,0-2.7.25,3.846,3.846,0,0,0-1.55,1.25q-.7.9,1.9,1.15a137.941,137.941,0,0,0,13.85.2,57.853,57.853,0,0,1-5.45,6.7l-4.2,4.2q-2.351,2.25-3.5,2.25t-2.7-.05q-1.549-.05-2.9-.05t-2.1-.05l-14.35-.5q-2.149-.1-2.95-.1a1.215,1.215,0,0,0-1.4,1.2q-.1,1.6,1.4,1.7.8,0,2.1.05,3.3.05,20,.7-17.4,13.65-38,11.65-12.7-1.2-14.8-1.1a20.033,20.033,0,0,0-2.85.3q-.049-1.05-.35-3.25a68.864,68.864,0,0,1-.9-7.65q-.2-8.1,7.1-13.8a34.43,34.43,0,0,1,15.3-6.4q-1.9,5.3-4.25,11.1t-.55,5.5q1.85-.2,2.9-3.15,1-2.95,2.15-6.15t1.8-5.6a7.4,7.4,0,0,1,1.25-3.1q.65-.649,4.1-1.7,2.8-.9,5.55-1.9-1.35,2.7-3.45,6.1-2.2,3.5-2.95,4.7a4.395,4.395,0,0,0-.85,2.05q-.049.851,1.1.95,1.1.15,2.65-2.3,1.55-2.5,2.75-4.3a39.835,39.835,0,0,0,3-5.6,6.425,6.425,0,0,1,2.3-3.1m-16,28.75q.4.75,3.35,1.15t11.05,2q.5.1,1.6.4.9.1,1.2-1a1.348,1.348,0,0,0-.4-1.6q-.4-.2-1.35-.55-11.449-3-14.25-2.05-1.6.9-1.2,1.65m40.65-11.3q.349-.5.5-.75.349-1.95-5.65-1.9-6,0-8.9-.05-2.95-.049-3.6.75-.75.8,0,1.3a4.469,4.469,0,0,0,2.15.6q1.35.1,8.4.35,4.451.15,5.6.2a1.754,1.754,0,0,0,1.5-.5"/></svg>