<svg overflow="visible" width="100%" height="100%" viewBox="0 0 42.728 115.752" xmlns="http://www.w3.org/2000/svg"><path d="M37.538.124q-2,.8-1.75,4.649.2,3.851-1.45,5.4a40.232,40.232,0,0,0-3.65,4.2,74.347,74.347,0,0,1-5.35,5.949,31.681,31.681,0,0,0-4.25,4.85,18.483,18.483,0,0,0-1.3,2.5,52.22,52.22,0,0,0-1.8,5.5,10.4,10.4,0,0,0,.3,5.9q.4,1-.8,4.8-.6,1.849-1.1,3.85-.3,1.3-1.7,5.949a95.151,95.151,0,0,0-3.25,11.9,103.134,103.134,0,0,1-3.1,11.75q-2.248,6.951-6.35,18.95-4.3,12.5.7,19,1.6,1.851,4.65-3.45,3-5.349,5.9-10.9a71.608,71.608,0,0,0,5.15-13.15q2.2-7.7,3.6-12.5a89.021,89.021,0,0,1,5.2-14.1,17.1,17.1,0,0,0,1-3.5q.4-2.5.6-3.7,1.6-9.5,6.7-13.7,7.7-6.2,7-15.1a76.489,76.489,0,0,1,.15-10.75,23.446,23.446,0,0,0-1.35-10.15q-1.8-5-3.75-4.149m-21.6,58.649q1-3.5,1.4-5.4.349-1.3,1.9-1.051,4.9.4,5.95,2.051,1.2,1.8-1.3,7.5a120.222,120.222,0,0,0-7.3,22.6,103.94,103.94,0,0,1-6.45,15.7q-4.95,10.15-6.1,8.25a8.8,8.8,0,0,1-1.05-4.85,19.366,19.366,0,0,1,1.3-5.3q4.1-11.7,6.45-19.149a115.373,115.373,0,0,0,3.25-12.2,80.072,80.072,0,0,1,1.95-8.15m7.45-19.7a11.934,11.934,0,0,1,4.1,1.8q2.3,1.4,1.6,3a30.355,30.355,0,0,0-1.45,4.649q-.75,3-4.25,1.9-3.551-1.149-3.85-1.75t.9-4.549a17.674,17.674,0,0,1,1.75-4.551,1.139,1.139,0,0,1,1.2-.5"/></svg>