<svg overflow="visible" width="100%" height="100%" viewBox="0 0 101.405 115.213" xmlns="http://www.w3.org/2000/svg"><path d="M24.7,55.64a3.058,3.058,0,0,0-1.9,2.7q-.2,1.2-.5,3.5a18.1,18.1,0,0,0,.8,6,55.553,55.553,0,0,1,1.4,6l4.2,21.9a7.029,7.029,0,0,1,.1,2.6q-.5,1.2-2.9.2-.5-.2-1.6.5a5.97,5.97,0,0,0-1.6,1.3q-2,1.9-5.5,1.2a5.753,5.753,0,0,0-2.8-.5q-5.5,1.1-12.3,6.2-2.2,1.5-2.1,3.4.1,2,2.5,3.1a46.313,46.313,0,0,0,15.1,1.4q5.2-.2,15.3-.8,11.9-.2,22.3.4,7.2-.9-1.1-9.2-1.9-2.1-2.9-3.2-1.8-1.7-2.95-2.6a84.6,84.6,0,0,0-1.85-8.7q-1.6-5.7-2.3-8.6-1.4-5.3-.7-6.1.7-.7,6.2.3A87.927,87.927,0,0,0,67,78.29q7.6-.15,8.25-.25.651-.15.95,1.25t.35,1.85q.051.45.25,1.65.2,1.15,3.25,1.95a40.415,40.415,0,0,0,8.95.9q6-.3,9.25-3.6a9.673,9.673,0,0,0,3.15-6.9q-.049-3.6-.55-4a2.5,2.5,0,0,0-1.25-.55q-.7-.15-.9,1.5t-.7,4a9.938,9.938,0,0,1-1.55,3.75q-1.05,1.451-4.95,2.25-3.8.7-11.35-.45a1.348,1.348,0,0,1-.7-1.2,14.577,14.577,0,0,0-.1-1.6,12.405,12.405,0,0,0-.35-2.4q-.4-2.2-1.5-6.7-1.2-4.5-1.6-6.8-.4-2.2.1-2.8t2.8-.9a35.1,35.1,0,0,1,4.1-.4q2.5-.5,1.2-2.6-1.6-2.6-1.2-3.3.3-.7,3.2-.9,2.9-.1,6.8.1,3.851.2,3.7-1.6-.35-1.4-2.85-1.55-2.55-.15-7.25.05h-.7a1.583,1.583,0,0,1-1.65-1.65q-.2-1.6-.25-2.15l-.2-6.4q-1.5-30.5-1.9-36.6a6.081,6.081,0,0,0-.2-1.6q-.3-.8-1.5-.6a1.282,1.282,0,0,0-1.3,1,5.863,5.863,0,0,0,0,1.6q1.2,11.4,1.9,34.1.4,5.8.8,8.9.1.6.55,3.05a1.066,1.066,0,0,1-.3.95,7.952,7.952,0,0,0-.8,1.1,15.459,15.459,0,0,0-1.25,3.5q-.3,2.3-3.2,2.5-3.6.2-4.2.7a3.972,3.972,0,0,1-2.4,1.1,18.085,18.085,0,0,1-2.5-.3q-27.6-4.4-31.8-4.9a13.994,13.994,0,0,0-5.5.6q-1.2.3-5.4,1.7m1.1,11.4q-1.4-6.9.3-8.9,1.7-1.8,8.8-1.7a46.993,46.993,0,0,1,6.8.6l6.9,1.2,20.1,3a6.849,6.849,0,0,1,3.5,1.4,5.558,5.558,0,0,1,1.6,3.5,49.12,49.12,0,0,0,.8,4.9q.3,1.6,1,4.7a105.211,105.211,0,0,1-16.9-.9q-11.3-1.4-17-2.1-3,.3-2.1,3.3l3.2,12.5q.6,2.6.3,3.2-.4.5-3,.7l-8.3.6q-4.2-17.3-6-26m7,38.5q.8-.3,1.8-.75.951-.5,1-1.1a1.275,1.275,0,0,0-.4-1.05q-.5-.5-2.5-2.3,5.8-.7,7.9-.9,1.1-.049,2.2-.05.4-.15,1.95,1.4,1.6,1.549,4.65,4.4,3.051,2.8,5.15,5.15,2.1,2.3-5.6,1.7a151.581,151.581,0,0,0-17.65-.2q-9.9.4-20.05.3-10.1-.15-8.1-2.2a12.781,12.781,0,0,1,4.6-3.05,18.364,18.364,0,0,1,5.5-1.2q2.951-.2,8.2-.05,5.25.1,8.95.5a4.809,4.809,0,0,0,2.4-.6"/></svg>