<svg overflow="visible" width="100%" height="100%" viewBox="0 0 115.132 86.015" xmlns="http://www.w3.org/2000/svg"><path d="M114.954,48.815a1.614,1.614,0,0,0-.4-2q-.9-.8-3.6-.6l-12.3,1.2q4.1-11.8,5.8-18.2,1.4-5.1-5.6-5.5L86.5,21.665a32.467,32.467,0,0,0,.4-3.45,125.151,125.151,0,0,0,.55-12.7,4.742,4.742,0,0,0-1.5-3.7,7.162,7.162,0,0,0-3.7-1.8q-2.7-.3-3.95,5.55a44.746,44.746,0,0,0-1.2,9.7q.05,3.8-.65,4.35-.7.5-4.9-.6l-2.9-.7q-18.3-5.3-42.2-4.8-5,.2-6.3,4.4-2.8,7.7-8.7,23.1Q11,42.764,7.9,42.465q-3.15-.351-6.25-.65-3.15-.3-.3,5.1,1.9,4.8,5.7,14.5a66.109,66.109,0,0,1,3.7,15,6.851,6.851,0,0,1,0,3.4,7.754,7.754,0,0,1-3,1.6q-4.5,1.9-5.2,2.25-.7.3-.3,1.55a1.209,1.209,0,0,0,1.2.6,15.4,15.4,0,0,0,2.4-.6,20.7,20.7,0,0,0,3.5-1.4q2-1.3,2.8-1.75a2.862,2.862,0,0,1,2.35.3q1.6.7,2.15,1,.5.249,4.25,1.9,3.7,1.6,8.55-1.05a11.981,11.981,0,0,1,9.65-1.15q4.749,1.449,11.05-.65a5.893,5.893,0,0,1,5.9,1.3q2.9,2.3,4.7,2.3a98.264,98.264,0,0,0,9.8-.8,49.747,49.747,0,0,1,9.8-.5q6.2,1.1,10.2-.7a3.727,3.727,0,0,1,1.8-.2,5.682,5.682,0,0,1,1.8.6,5.5,5.5,0,0,0,5,.9,9.292,9.292,0,0,1,4.3,0,7.88,7.88,0,0,0,4.4-.5,18.533,18.533,0,0,0,2.65-1.25,3.885,3.885,0,0,0,2.05-1.95,1.247,1.247,0,0,0-.55-1.5q-.8-.5-3.65.9a12.647,12.647,0,0,1-5.9,1.25q-2-.15-3.3-.2.549-1.35,1.45-4.1a136.9,136.9,0,0,1,11.55-24.75l1.6-2.5a10.274,10.274,0,0,0,1.2-1.9m-92-30.2a2.794,2.794,0,0,1,2.9-2h8.5q17.5-.2,30.8,3.7a149.8,149.8,0,0,0,16,3.5q5.4.9,16.2,2.5,4.4.7,4.6,1.2a27.633,27.633,0,0,1-1.2,4.4q-.6,1.9-2.2,6.6-1.4,4.1-2.1,6.6a3.72,3.72,0,0,1-3.1,3,28.831,28.831,0,0,1-4.6.2l-64.9-4.4q-2.651-.251-6.7-.35t-2.8-2.75l8.6-22.2m61.5-13a18.367,18.367,0,0,1,.25,3.1q.05,1.749-.2,6.95-.3,5.15-.55,5.35-.3.3-1.6.25a3.148,3.148,0,0,1-1.9-.55,2.105,2.105,0,0,1-.6-1.7,54.853,54.853,0,0,1,.55-11.2q.8-5.6,2.45-4.6a3.552,3.552,0,0,1,1.6,2.4m22.3,43.9q3.4-.1,4.7-.2a85.056,85.056,0,0,0-12.3,23.3,19.33,19.33,0,0,1-.7,2.1q-1.95,5.1-2.5,7.2a7.371,7.371,0,0,1-2.8-1,2.924,2.924,0,0,0-1.9,0,14.574,14.574,0,0,1-2.3.5q-1.9.4-2.9.6a6.535,6.535,0,0,1-2.8,0,27.267,27.267,0,0,0-13.2.5,23.934,23.934,0,0,1-7.2.9,11.451,11.451,0,0,1-6.8-3.1q-2-2-6.6-.8-4.5,1.4-11.7.3a13.3,13.3,0,0,0-8.5,1.85,10.547,10.547,0,0,1-9.55.35q-5.151-2.1-5.6-6.75t-4.25-14.35q-4.9-12.4-5.8-15.9,14.5,1.8,36.5,3.1,34.9,2.1,36.5,2.2,10,.6,12.6.6a60.412,60.412,0,0,0,12.6-1,38.708,38.708,0,0,1,4.5-.4m-29.5-22.95q-.851.249-1.2,1.6a.959.959,0,0,0,.9,1.3q1.149.15,1.15-1.5-.051-1.7-.85-1.4m15.3,3.95q-.051.75,1.2.9,1.249.1,1.35-.85a1.145,1.145,0,0,0-.8-1.3q-.9-.4-1.3.05a1.94,1.94,0,0,0-.45,1.2M84,30.365q.949.249,1.3-.95.3-1.2-.55-1.45-.851-.2-1.25,1-.45,1.149.5,1.4m-28.15-4.55q.1,1.3,1.2,1.2,1.1-.15,1.05-1.5t-1.2-1.15q-1.151.15-1.05,1.45m13.1.35q-.051-.45-1.2-.7-1.2-.251-1.4,1.1-.251,1.35.95,1.4,1.149.05,1.4-.65a3.609,3.609,0,0,0,.25-1.15M44.3,24.615q-.351-1.851-1.3-1.7-.951.1-1.05,1.2-.251,1.95,1.2,1.95,1.4.049,1.15-1.45m7.1.25q-.4-1.05-1.5-.55a1.23,1.23,0,0,0-.85,1.55q.249,1.1,1.5.55t.85-1.55m-16.65-1.85q-.951-.3-1.3,1-.4,1.3,1.05,1.55,1.4.2,1.3-1a1.651,1.651,0,0,0-1.05-1.55m-8.8,2a1.879,1.879,0,0,0,1.85-1.6q.45-2.1-1.55-2-1.9.2-1.95,1.9-.051,1.8,1.65,1.7"/></svg>