<svg overflow="visible" width="100%" height="100%" viewBox="0 0 40.436 115.625" xmlns="http://www.w3.org/2000/svg"><path d="M12.7.81a19.913,19.913,0,0,0-9.25,7.6Q-.1,13.709,0,18.01a26.708,26.708,0,0,0,.85,6.8,7.71,7.71,0,0,0,2.9,3.8q2.1,1.5,3.45,6.25t3.65,11.95a45.509,45.509,0,0,1,1.9,11.1l.1,34.6a4.205,4.205,0,0,0,2.7,3.9,12.442,12.442,0,0,1,3.8,2q.5.8.4,3.9v3.5a48.039,48.039,0,0,1-.15,5.45q-.351,4.3,1.05,4.35a1.083,1.083,0,0,0,1.15-.45,11.658,11.658,0,0,0,.4-3.9q.05-3.35.05-9.25,0-3.6,2.6-4.9,3.4-2,3.4-6.6.5-20.8.6-31.2-.2-7.4,6.25-21.3,6.45-13.95,5.1-22.7-1.4-8.8-11.6-12.75-10.251-4-15.9-1.75M6.1,9.26a3.393,3.393,0,0,1,1.6,1,1.589,1.589,0,0,1,.15,2.2q-.851,1.3-2.45.4-1.65-.949-.8-2.3.849-1.4,1.5-1.3m4-.95q-1.15-.851-1.7-1.3-.551-.5.35-1.35A9.071,9.071,0,0,1,10.8,4.21a3.759,3.759,0,0,1,2-.6,2.514,2.514,0,0,1,1.7.8A1.394,1.394,0,0,1,15,6.06a6.045,6.045,0,0,1-2.1,2q-1.7,1.1-2.8.25m11.45-2.15q-2.4-1.65-.45-2.55a4.361,4.361,0,0,1,3.75-.1q1.8.8,2,1.35.15.75-1.4,1.85-1.551,1.05-3.9-.55M18,7.96a6.8,6.8,0,0,1,2.9,1.75q1,.8.55,1.45a38.226,38.226,0,0,1-3.55,3.05.823.823,0,0,1-.95,0,20.894,20.894,0,0,1-2.35-1.6q-1.05-.9-.35-1.65Q17,7.91,18,7.96m12.1-1.8a5.122,5.122,0,0,1,1.1.45,2.578,2.578,0,0,1,1.05,1.3q.45,1.05-1.1,2.85T28,11.31q-1.6-1.249-.05-3.3T30.1,6.16m-3.4,7.35q1.3,1,0,2.45a35.747,35.747,0,0,1-2.85,2.65q-1.551,1.2-3.55-1.45-.75-.949,1.55-3.05t2.9-1.85a11.274,11.274,0,0,1,1.95,1.25m.3,9.5a12.629,12.629,0,0,1-1.15-1.2q-.5-.7.4-2.4A7.235,7.235,0,0,1,28,17.66a2.725,2.725,0,0,1,1.95-.8q.849.1,2.15,1.65,1.249,1.5-.85,3.2a8.416,8.416,0,0,1-2.85,1.75,1.742,1.742,0,0,1-1.4-.45m-8.85-.1q-.2.05-1.45-1.1t-.6-1.85a6.154,6.154,0,0,1,.95-.95q.249-.251,1.15.35a11.715,11.715,0,0,1,1,.75l.05.05q.849.9.45,1.3-1.4,1.35-1.55,1.45m2.35,1.15a3.257,3.257,0,0,1,1.05-.8q.549-.251,2.05.85,1.449,1.05.45,2.15a1.629,1.629,0,0,1-2.05.45,3.94,3.94,0,0,1-1.55-1.35.993.993,0,0,1,.05-1.3m-6.3-.1a1.517,1.517,0,0,1,.2,2.45q-1.251,1.3-2.35,2.55t-1.95.9a3.047,3.047,0,0,1-1.35-1.25q-.5-.95.55-2.1a25.888,25.888,0,0,1,2.3-2.4,1.784,1.784,0,0,1,2.6-.15m1.65,4.05q1.8-1.95,2.6-1.25A12.418,12.418,0,0,1,20,28.41q.7.949-.4,1.6a8.557,8.557,0,0,1-2.05.8,6.747,6.747,0,0,1-2.2.05q-1.3-.2-1.25-.5,0-.4,1.75-2.35m9.7,2.9q-1.7-.7-.1-2.35,1.6-1.7,2.25-.1a2.4,2.4,0,0,1,.15,2.35q-.6.8-2.3.1m5.5-2.85q-1.751-2,1.7-4.6,3.45-2.651,3.75-.4a5.594,5.594,0,0,1-.5,3.5,11.653,11.653,0,0,1-1.95,2.4q-1.251,1.1-3-.9M10.4,14.41q1.2-1.15,2.95.4,1.7,1.55.85,2.8-.9,1.25-1.85.6a25.981,25.981,0,0,1-2.05-1.7q-1.1-1,.1-2.1m-4.1,4.6q1.25-.9,2.95.6t-.7,4q-2.4,2.5-3.5,1.95a2.8,2.8,0,0,1-1.3-1.1,4.124,4.124,0,0,1-.35-1.35,2.714,2.714,0,0,1,.75-2.05A8.973,8.973,0,0,1,6.3,19.01m9.05,40.6a43.094,43.094,0,0,0-1.8-13.5q-2.7-8.6-4-13.2h24.9q-4.3,9.4-4.5,9.9-4.1,7.7-4.1,18.6l-.2,26.8a14.11,14.11,0,0,1-.3,3.9,3.21,3.21,0,0,1-1.4,1.9,8.168,8.168,0,0,1-4,.45q-2.95-.15-3.8-1.1-.9-.949-.9-4.55,0-24.3.1-29.2m21.5-45.6q.3,4-1.75,2.6-2.1-1.45-2.25-2.5-.15-1.1,1.75-2.6,1.9-1.549,2.25,2.5"/></svg>