<svg overflow="visible" width="100%" height="100%" viewBox="0 0 51.661 113.629" xmlns="http://www.w3.org/2000/svg"><path d="M16.13,6.428a9.213,9.213,0,0,1-3.5,2.3,16.436,16.436,0,0,0-10.2,7.9q-2.7,4.5-2.4,5.4.3,1,5.2,2.5a5.453,5.453,0,0,1,2,1.1,3.789,3.789,0,0,1,.8,2.3q.1,4.7,5.45,5t7.35-2.05q2-2.351,2.9-3.65a3.078,3.078,0,0,1,2.75-1.35q1.85,0,3.15-.05,7-.1,4.5-7.8a28.912,28.912,0,0,0-6.3-10.6q4.6-.7,7.4,1.2,2.6,1.9,4.75,7.8a48,48,0,0,1,2.7,12.5q.5,6.6.95,19.2t-1.1,34.9q-1.6,22.3-1.75,25.3a9.5,9.5,0,0,0,.25,3.75,1.147,1.147,0,0,0,1.3.7q.95-.1,1.15-1.7.15-1.6.2-2.05l2.45-38.05q.45-13.7.4-21.55a148.255,148.255,0,0,0-1.75-19.15q-1.7-11.25-2.5-13.55-.8-2.351-1.6-4.25a17.5,17.5,0,0,0-2.2-3.7,8.554,8.554,0,0,0-2.7-2.45,15.944,15.944,0,0,0-3.55-1.3,9.392,9.392,0,0,0-4.3-.1q-2.2.45-4.75.9-2.55.5-2.25-.35a4.365,4.365,0,0,1,2.75-2.6,14.158,14.158,0,0,1,14.05,1.45q2.8,1.749,4.85,7.15a66.847,66.847,0,0,1,3.15,12q1.1,6.7,1.95,11.85a103.135,103.135,0,0,1,.95,13.55q.1,8.45-.05,21.4-.2,12.9-1.55,25.45-1.4,12.5-1.5,15.25-.15,2.7.9,2.65a1.847,1.847,0,0,0,1.25-.35q.251-.351,2.3-17.8a241.774,241.774,0,0,0,1.6-34.55q-.5-17.05-.8-20.75-.35-3.75-1-7.15-.65-3.45-1.35-8.85a73.557,73.557,0,0,0-1.5-8.55,29.266,29.266,0,0,0-2.15-5.8,29.4,29.4,0,0,0-4.1-6.05,10.3,10.3,0,0,0-7.3-3.6,25.888,25.888,0,0,0-7,.1,16.344,16.344,0,0,0-5,2,25.205,25.205,0,0,0-5.25,4.15M4.28,21.378q-.8-.2-.5-1.15a13.9,13.9,0,0,1,7.45-8.15,21.01,21.01,0,0,1,9.8-2.05,10.73,10.73,0,0,1,8,4.35q3.25,4.05,3.2,6.1-.049,2-.6,2.45-.6.45-5.6.45-5-.051-9.4-.15a52.143,52.143,0,0,1-12.35-1.85m6.75,6.05q-.1-1.3.9-1.6a9.515,9.515,0,0,1,1.9-.1q2.1,0,5.25.1t1.05,2.3a6.29,6.29,0,0,1-4.75,2.2q-2.651-.1-3.45-.8a2.941,2.941,0,0,1-.9-2.1"/></svg>