<svg overflow="visible" width="100%" height="100%" viewBox="0 0 114.542 54.599" xmlns="http://www.w3.org/2000/svg"><path d="M22.439,30.951q-.649.95-.3,3.45a10.57,10.57,0,0,0,2.3,5q1.95,2.5,5.25,7.7,1.3,2.4,1,2.8-2.8,3.7-6.7-.2-4.7-4.2-6.3-4.3-1.7-.1-6.8,3.5-2.6,1.9-4.05,1.95-1.5.051-3.35-1.95-.7-.9-1.1-1a1.847,1.847,0,0,0-2.1,0q-.9.6,1,2.9a7.028,7.028,0,0,0,4.9,2.6,9.049,9.049,0,0,0,6.2-2q4.4-3.5,6-2.9,1.2.4,4.7,4.4,4.7,4.4,12.1-2.6a3.1,3.1,0,0,1,2.2-1.1,3.5,3.5,0,0,1,2.2,1.4q3,3.3,5.6,3.5,2.7.2,6-2.6,4.6-4.2,10.3-.6,5.8,3.5,9.5.2a14.439,14.439,0,0,0,1.9-1.5,3.068,3.068,0,0,1,2.4-1.1,3.665,3.665,0,0,1,2.3,1.2q4.8,5,12.7.1,5.1-3.4,9.4.6,3.1,2.6,5.2,2.4a12.745,12.745,0,0,0,6.05-1.7q3.1-1.749,3.45-2.45t-.1-.95q-2.1-1-5.8,1.25-3.75,2.2-8.1-1.15l-1.7-1.3q-3.1-2.6-10.2,1a17.26,17.26,0,0,1-3.4,1.35q-1.449.3-.55-.65a24.189,24.189,0,0,1,3.25-2.75q2.3-1.749,5.8-8.15,4.2-7.6-3.2-7.3-15.9.8-29.3.4a2.968,2.968,0,0,1-2.3-.9,6.065,6.065,0,0,1-.8-3.1,2.266,2.266,0,0,1,.7-2.1,4.4,4.4,0,0,1,2-.6q6.2-.5,7.4-.7,2.5-.4,2.9-1.5.5-1.1-1-3.2-5.5-7.9-8.7-12.2A42.233,42.233,0,0,0,57.039.9a3.045,3.045,0,0,0-1.85-.9q-.849-.049-.9,2.2a32.914,32.914,0,0,0,.1,3.8q.3,6.9,1,20.8.1,2.6-.4,3.1t-3.2.4l-24.8-.5a14.823,14.823,0,0,0-2.5,0,2.826,2.826,0,0,0-2.05,1.15m2.75,3.85q-.9-1.9,1.6-2.1a29.177,29.177,0,0,1,4,.1q38.3,1.15,59.95.1,1.7,0,1.25,1.25-2.25,5.85-5.3,8.3a54.59,54.59,0,0,0-5.4,4.85,1.527,1.527,0,0,1-2,.35,8.487,8.487,0,0,1-1.3-1.15,3.2,3.2,0,0,0-3.7-1.2,18.043,18.043,0,0,0-3.6,2.4,5.246,5.246,0,0,1-3.6,2,7.333,7.333,0,0,1-4.2-1.1q-5.8-3.1-6.7-3.2-2.3-.1-6.7,4.1-4.3,3.3-8.1-.9-3.7-4.1-6.1-2-1.2,1.1-2.9-.6-3.6-3.3-7.2-11.2m31.8-28.1q-.349-2.1.7-.6L66.939,19q.9,1.249-1.1,1.5-2.1.2-4.25.25a4.54,4.54,0,0,1-3-.65q-.849-.7-.9-3.25-.05-2.6-.25-5.3Q57.19,8.8,56.989,6.7"/></svg>