<svg overflow="visible" width="100%" height="100%" viewBox="0 0 115.473 46.849" xmlns="http://www.w3.org/2000/svg"><path d="M112.4,37.6a19.89,19.89,0,0,0,2.3-1.8,3.342,3.342,0,0,0,.7-2.8q-.7-2.5-4.5-3.3L97.3,26.9q-5.8-1.3-8.8-1.95-2.949-.663-7-1.85-.716-.345-.9-4.9-.029-6.6-.5-13A18.558,18.558,0,0,0,79.4.3Q79-.691,75.554,1.6L71.8,4.1q-4,2.9-6.1,4.2-5,3.2-9.8,1.3l-21.8-8Q31.4.9,31,3.6q-.1.8-1.1,4.9a51.241,51.241,0,0,0-.85,5.65q-.258,2.76-.65,7.45a6.17,6.17,0,0,1-4.8,6q-4.449,1.283-12.1,3.15-7.6,1.857-9,2.65A4.317,4.317,0,0,0,0,36.9a3.908,3.908,0,0,0,2.2,3.6,29.347,29.347,0,0,0,6.4,2.6,104.968,104.968,0,0,0,22.3,3.5q8.6.5,22.5,0,13.3-.4,33.7-2.9,5.2-.6,21.4-4a10.775,10.775,0,0,0,3.9-2.1M59.7,13.649q9.066,2.127,9.7,1.25.9-1-.4-1.6t-3.1-1.4l7.6-5.7Q75.841,4.68,76.8,4t.85,1.85q-.129,2.514-.05,8.75.1,6.3.25,13.7a7.815,7.815,0,0,1-.55,3.65q-.339.368-1.9.3-1.563-.017-4.1,0-2.493.056-4.7.15-21.2.8-25.7.8a31.854,31.854,0,0,1-3.8-.05,29.554,29.554,0,0,1-4.05-.35q-1.55-.225-1.8-.95a9.227,9.227,0,0,1-.4-3.1q.011-2,.2-4.1.186-2.053.6-6.1Q32.109,14.5,33.2,6.9q.3-1.9.8-2.2t2.5.5l3.6,1.6a106.4,106.4,0,0,0,19.6,6.85M34.4,35.5q3.879.52,5.3.6h10l23.7-1q6.264.107,7-1.85a10.928,10.928,0,0,0,.65-4.65q-.129-2.727,1.15-2.3,1.334.482,7.6,1.8,22.942,3.89,21.95,6.15-.948,2.3-10.65,4.5A113.214,113.214,0,0,1,80.8,41.5q-.8,0-20.5,1.7a150.635,150.635,0,0,1-20.6.5,130.4,130.4,0,0,1-16.9-.8q-3.6-.5-8.45-1.5t-7-1.7a17.662,17.662,0,0,1-3.1-1.25q-.993-.573-1.1-1.2T4.4,35.9a11.371,11.371,0,0,1,2-.9l15.4-4q4.863-1.432,6,.95,1.133,2.427,1.95,2.75a27.824,27.824,0,0,0,4.65.8"/></svg>