<svg overflow="visible" width="100%" height="100%" viewBox="0 0 103.777 116.304" xmlns="http://www.w3.org/2000/svg"><path d="M36.425.637a18.766,18.766,0,0,0-8.4-.3,16.745,16.745,0,0,0-7.5,3.6,114.644,114.644,0,0,0-10.8,11.6q-4.9,6-3.15,10.1,1.75,4.05.5,4.05-6.35-.45-6.95,3.35-.5,3.5,1,5.4,1.6,1.9,6,3.1-2.4,6.3.3,9,1.2,1.2,8.6,4.3a89.819,89.819,0,0,0-8.5,9.9,15.823,15.823,0,0,0-2.2,12.3q.7,3.5,4.9,3.5,4.2.1,4.3-3.7.1-.5.2-4a7.231,7.231,0,0,1,.9-3.4,14.2,14.2,0,0,1,3.3-3.4q2.2-1.751.95,3.35a29.673,29.673,0,0,0-.75,10.45,20.078,20.078,0,0,0,3.9,10,.977.977,0,0,1,.2.7q0,.4-.2.5a8.487,8.487,0,0,0-4,4.8,50.123,50.123,0,0,0-1.3,5.9q-.9,4.2-1.1,6.1a13.977,13.977,0,0,0,.5,6.1,3.289,3.289,0,0,0,1.6,2.2,6.583,6.583,0,0,0,4.2-.5q2.6-1.2,3.1-2.7,1.9-5.6,4.35-14.7.3-1.35.55-2.25a1.49,1.49,0,0,1,1.95-1.25,34.589,34.589,0,0,0,5.05.8,18.034,18.034,0,0,0,8.5-1.4,1.965,1.965,0,0,1,2.1,0,3.188,3.188,0,0,1,1,1.8q2,5.8,4.5,12.1,2.1,5.5,6.6,6.8,3.1.8,4.5-1.6a5.484,5.484,0,0,0,.2-5q-4.5-11.85-6.4-16.05-.5-1.15.75-1.35,2.6-.551,8.9-1.85,9.1-2,18.8-8.95t8.45-19.5l-.1-5.9a9.64,9.64,0,0,1,.6-4.25,4.674,4.674,0,0,1,2.7-2.35q2-.8,4-6.65a14.458,14.458,0,0,0-1-11.5q-2.951-5.651-4.4-6-1.451-.4-4.75,1.15a11.748,11.748,0,0,0-5.2,4.35,32.952,32.952,0,0,0-3.15,6.1,13.359,13.359,0,0,0-1.2,5.2,55.842,55.842,0,0,0,1.85,8.45,33.257,33.257,0,0,1,.05,15.1,19.971,19.971,0,0,1-2.8,6.7,69.991,69.991,0,0,1-4.4,5.5,13.357,13.357,0,0,1-7.8,3.6q-6.1.5-9,1,0-.2-.1-2a3.354,3.354,0,0,1,.1-1.5,2.441,2.441,0,0,1,.9-1q.6-.6,1-.5a7.181,7.181,0,0,0,5.3-.9q2.9-2.1,4.4-3.1,5.8-4.4,1.8-12.8-3.35-7.1-9.1-9.35a1.168,1.168,0,0,1-.85-1.5q.551-1.5.85-2.45a6.559,6.559,0,0,0,.6-3.3,9.636,9.636,0,0,0-1.4-3.4,5.8,5.8,0,0,0-3.55-2.75q4.65-2.25,5.55-5.35a3.5,3.5,0,0,0-1.5-4.05,13.914,13.914,0,0,0-4.75-2.3,5.763,5.763,0,0,0-.65-.15q-.6-.05-.65-.8a56.061,56.061,0,0,0-.25-6.4,7.314,7.314,0,0,0-1.9-4.9q-6.1-7.1-8.7-8.6t-11.9-3.3m-15.6,6.8q4.9-4.9,13.1-4.4a30.341,30.341,0,0,1,12.2,3.1,25.435,25.435,0,0,1,8.8,8.7q3.3,4.8,1,11.9a46.025,46.025,0,0,0-2.7,6.7q-.4,3.6,4.4,4.6a7.422,7.422,0,0,1,5.4,3.4q2.1,3.1-1.6,5a31.537,31.537,0,0,1-9.1,3.8q-12.5,2.3-33.5,1.7a17.019,17.019,0,0,1-8.2-2.6q-4.1-2.9-.4-6.9a29.944,29.944,0,0,1,3.9-3.5q2.95-2.4,3-3.4.1-1.249-.55-1.4a1.833,1.833,0,0,0-1.35.25,14.006,14.006,0,0,0-1.7,1.05,9.4,9.4,0,0,1-1.7,1.1,21.665,21.665,0,0,1-5.2,1.8q-3,.3-3.5-2.9-.5-3,3.1-3.05a9.038,9.038,0,0,1,1.9.15,1.3,1.3,0,0,1,.6.75q.5,1.149,1.5.55,1.6-.75,1-2.85-.6-2.151-1.4-4.35-1.7-5,2.3-9.7,5.6-6.4,8.7-9.5m37.6,26.4a2.246,2.246,0,0,1-1.8-.6q-.6-.7.3-1.9a9.9,9.9,0,0,0,1.5-2.95q.4-1.4,1.25-1a18.958,18.958,0,0,1,2.4,1.5q1.6,1.151.5,3.05-1.151,1.9-4.15,1.9m-36.8,21.1a16.109,16.109,0,0,1,4.15-.1q3.95.5,17.95-.8a110.693,110.693,0,0,0,12.9-1.65,21.406,21.406,0,0,1,4.95-.9,5.253,5.253,0,0,1,2.55.55q1,.549,1.7,1a9.758,9.758,0,0,1,1.9,1.65q1.2,1.25,3,3.35a9.164,9.164,0,0,1,2.2,4.3q1.3,5.2-2.5,7.8-2.7,2-4.2,2.9t-1.95.25a1.709,1.709,0,0,1-.25-1.45,6.218,6.218,0,0,1,.55-1.45q2.25-4.05,1.55-6.35-.9-2.5-5.4-4.2-2.4-1-2.6-2.4a2.934,2.934,0,0,0-1-2.05q-.8-.6-1.3.6-1,2.55,1.1,6.55a21.814,21.814,0,0,1,2.1,9.7,88.494,88.494,0,0,1-1.2,9.8q-.2,1.3-2.4,3.5a5.348,5.348,0,0,0-.4.45q.1-.75.25-4.6t.25-5.85q.1-2.05-2.65-9.7-2.8-7.7-10.75-4.7a21.174,21.174,0,0,0-11.95,11.4,23.866,23.866,0,0,0-1.25,17.5q-3.8-.1-4.7-3.5-2.6-8.2-2.4-11.9a48.169,48.169,0,0,1,1.1-8.2q1.2-5.5,1.7-7.4.45-1.9-.25-2.4a1.092,1.092,0,0,0-1.45,0,4.454,4.454,0,0,0-1.35,2.45,7.132,7.132,0,0,1-2.55,3.45q-2,1.6-5.1,4.2a10.094,10.094,0,0,0-2.5,2.7,3.133,3.133,0,0,0,.25,3.1,3.7,3.7,0,0,1,.35,3.2,2.62,2.62,0,0,1-2.55,1.9q-2.05.1-1.95-3.5a17.125,17.125,0,0,1,1.2-5.3,28.088,28.088,0,0,1,3.7-6.5q2.6-3.1,3.8-4.25a14.325,14.325,0,0,1,2.5-2,8.388,8.388,0,0,1,2.9-1.15m71.55-27.1q3.551-2.051,4.6-.35a30.35,30.35,0,0,1,2.25,4.55,16.831,16.831,0,0,1,1,4.5q.2,7.3-4.5,9.8-3.6,1.9-3.8,6.5a54.878,54.878,0,0,0,.3,8.2q.5,11.45-7.4,17.05a59.221,59.221,0,0,1-18.2,8.4q-10.3,2.85-10,1.9a7.175,7.175,0,0,1,1.2-2.05q2.2-2.7,8.25-3.3,6-.6,8.25-1.6,8.7-3.9,12.2-14.5a28.852,28.852,0,0,0-.2-19.8,14.18,14.18,0,0,1,.1-11.3q2.4-5.951,5.95-8m-30.85,40.7-2.2-5.2q3.3,1.2,3.5,1.9.3.6-1.3,3.3m-.4,37.8q.8,2.3.9,2.8a3.235,3.235,0,0,1-.7,2.8q-.7.8-2.3-.3a7.1,7.1,0,0,1-2.5-3.1q-2.3-5.1-4.9-12.4a5.718,5.718,0,0,1-.2-3.6,6,6,0,0,1,1.8-1.75q1.35-.951,2,.65l5.9,14.9m-17.3-42.8q4.9-.9,6.75,5.55a42.954,42.954,0,0,1,1.85,9.1q0,2.65-.2,5.2t-.45,3.9q-.251,1.3-2.95,2.95a24.249,24.249,0,0,1-8.1,2.5q-9.7,1.7-10.4-7.3a22.367,22.367,0,0,1,2.7-13.7q3.9-6.8,10.8-8.2m-16.8,30q1.05.049.7,1.5-.349,1.1-.8,2.9l-2.7,9a34.012,34.012,0,0,1-1.7,4.7,2.64,2.64,0,0,1-2,1.4q-1.4.25-1.8-.75t.35-5.55q.75-4.6,1.85-8.9,1.3-4.95,6.1-4.3m-3.5-48.5a3.114,3.114,0,0,0-3.1.8q-.251.249.15.9a2.9,2.9,0,0,0,1.85,1q1.4.3,5.75,1.15a26.173,26.173,0,0,0,7.1.6,24.2,24.2,0,0,0,5.95-1.4q3.2-1.151,6.25-2.6,3.05-1.5,1.25-2.2a4.5,4.5,0,0,0-3.75.25q-1.9.95-5.25,2.35a17.531,17.531,0,0,1-8.5.75q-5.9-1.2-7.7-1.6m1.9-13.1a2.9,2.9,0,0,0,1.15-.9q.349-.55-.65-3.35-1.05-2.8-2.5-1.4t-1.25,2.5a7.316,7.316,0,0,0,.55,1.95,1.7,1.7,0,0,0,1.1,1.25,2.4,2.4,0,0,0,1.6-.05m14.1-2.7q1.45-.45,1.2-2.85-.3-2.4-2.35-2.6-2.1-.25-1.95,1.5a7.652,7.652,0,0,0,.9,3.1,1.687,1.687,0,0,0,2.2.85m9-11.8q-1.1-5.1-5.8-5.8a9.106,9.106,0,0,0-8.1,2.6,4.95,4.95,0,0,1-4.9,1.1,94.008,94.008,0,0,0-9.8-1.6q-4.3-.5-5.7,5.6-1.4,5.6.5,9.3a9.588,9.588,0,0,0,2.6,3.25q1.9,1.6,2.35.2.5-1.451-1.4-2.8-1.95-1.35-1.65-5.75-.2-6,2.7-6.8,1.4-.4,8,1a16.593,16.593,0,0,0,5.2.6,8.541,8.541,0,0,0,5-2.5q2.7-2.6,5.4-1.2,2.7,1.3,3.2,5.2,1.2,7.6,1.5,8.75a3.206,3.206,0,0,0,.7,1.55.954.954,0,0,0,1.1.2q1.05-.5.45-4.85-.65-4.35-1.35-8.05"/></svg>