<svg overflow="visible" width="100%" height="100%" viewBox="0 0 67.208 116.858" xmlns="http://www.w3.org/2000/svg"><path d="M22.3,4.983a7.2,7.2,0,0,0,0,3.5q1,6.2,3.3,18.5.7,3.7.2,4.3-.5.7-4.2,1.3-5.6.8-8.4,1.3a71.686,71.686,0,0,0-8.1,1.8q-4,1.1-4.7,2.6-.8,1.4,0,5.8.5,3.4,1.5,4,1,.7,4.3-.2l9.5-2.75q1.9-.5,1.45,1.2-.349,1.45-.8,3.7-1.25,6.05-1.75,10.25-.5,4.1-2.3,23.1a218.661,218.661,0,0,1-3.1,23.1q-.9,3.8-.1,5.4.9,1.6,4.4,2.6a67.342,67.342,0,0,0,35.1.1q3.8-1,4.4-2.1.5-1.1-.5-4.9-4.4-17.8-5.3-29.7-.4-5-2.3-21.15-.4-3.2-.7-5.15-.4-2.55,2.95-3.25a91.671,91.671,0,0,0,11.55-3.35q7.2-2.4,7.7-3.2.7-.8.8-9.3.1-2.9-1.1-3.9-1.2-.9-4.1-.4-8.6,1.5-12.9,2.3-7.7,1.5-12.1,4.7a13.455,13.455,0,0,1-2.95,1.95q-1.3.55-1.8.25a1.219,1.219,0,0,1-.6-.65,1.316,1.316,0,0,1-.05-.8q.1-.4,2.75-1.85a13.737,13.737,0,0,0,4.35-3.8q2.4-3.1,1.6-7.9-.4-3.5-.7-8.9-.5-8.8-.5-8.9-.8-5.2-5.8-4.5a47.186,47.186,0,0,0-8.4,3,6.036,6.036,0,0,0-2.6,1.9m10.2-1.8q3.7-1.1,3.7,2.6a126.56,126.56,0,0,0,1.1,15.8q1,4.6-1.1,7.1a15.034,15.034,0,0,1-4.6,3.4q-1.95,1.05-2.35-1.9L25.1,8.783q-.5-2.5,1.15-3.4a34.788,34.788,0,0,1,6.25-2.2m30.1,27.7q1.65-.4,2,1.85a23.261,23.261,0,0,1,.1,4.85,2.976,2.976,0,0,1-2.5,3.2l-16.9,5.1q-2.5.8-2.8-1.5,0-2.9-.1-4a18.974,18.974,0,0,1,.1-3.6,2.272,2.272,0,0,1,2.1-2.2q8.85-2.1,18-3.7m-23.95,7.15q1.249-.6,1.35,1.3v4.25a29.608,29.608,0,0,0,.3,4.3q.2,1.3,1.9,12.6,2.6,22.2,3.5,28,1,6.2,4.1,18.3.7,2.8.2,3.7-.5,1-3.2,1.6a14.079,14.079,0,0,1-1.6.3q-2.35.35-2.45-2.05-.349-3.9-.35-5.5a25.444,25.444,0,0,0-.4-4.9q-1-5.2-2.8-7-1.9-1.7-7.1-2.6-13-2.25-12.25,20.15,0,2.05-1.75,1.8-1.9-.4-4.5-.9a2.455,2.455,0,0,1-2.1-3.1q1.6-8.7,3.1-20,.1-1.1,1.7-20.2,1-12.1,2.5-17.05a37.443,37.443,0,0,0,1.35-5.8q.2-1.65,3-2.4l2.55-.65q.9-.2,3-.8,1.9-.7,2.25,1.45.15,1.151-1.35,1.65-1.9.5-2.6.7-3.2.8-3.9,1.6a10.466,10.466,0,0,0-1.2,3.9,28.96,28.96,0,0,0,.3,10.9q.7,3.5,2.5,10.5.8,2.8,4.6,1.9a40.981,40.981,0,0,0,5.9-2.1q3.4-1.3,4-2.4.5-1.1-.3-4.6l-4.4-19.8q-.7-3.3-.3-4.1a3.415,3.415,0,0,1,1.75-1.55q1.45-.8,2.7-1.4m-12.9-.85a2.6,2.6,0,0,1-.3,1.3q-.35.75-6,2.45Q13.8,42.583,5,44.983q-1.6.4-2-.6a17.628,17.628,0,0,1-.4-2.55,3.149,3.149,0,0,1,.75-2.3,3.484,3.484,0,0,1,2.35-1.25q5.7-1,12.25-1.95,6.5-1,7.1-.35a2.541,2.541,0,0,1,.7,1.2m3.8,10.85q2.25-.35,2.65.25a3.151,3.151,0,0,1,.4,1q.4,1.4,4,17.3.4,1.751-3.1,3.15-4.4,1.751-5.6,1.25-1.3-.6-2-5.2a120.415,120.415,0,0,1-1.2-14.2,3.65,3.65,0,0,1,.15-1.55,1.967,1.967,0,0,1,1.35-1.25,19.1,19.1,0,0,1,3.35-.75M23,104.833a50.234,50.234,0,0,1,1.3-7.5q1.4-4.3,5.2-4.2,5.9-.1,8.3,2.9,2.3,2.8,2,9.6,0,.45.05,4.55.251,2.749-2.05,3-2.749.25-6.2.5a40.473,40.473,0,0,1-8.05-.35q-1.65-.2-1.35-2.45l.8-6.05"/></svg>