<svg overflow="visible" width="100%" height="100%" viewBox="0 0 115.728 80.758" xmlns="http://www.w3.org/2000/svg"><path d="M31.639,2.35a74.878,74.878,0,0,0-9.45,3.05q-4.349,1.7-7.95,3.3a32.145,32.145,0,0,0-6.55,3.8q-1.1.8-4.9,4.1a7.763,7.763,0,0,0-2.6,4,4.184,4.184,0,0,0,.7,3.9,8.951,8.951,0,0,1,1.4,6q-.4,10.2-.9,30.7-.3,4.6,4.2,6.5.6.2,9.4,4.4a51.637,51.637,0,0,0,9.7,3.5q2.1.5,4.2.95,25.4,5.25,47,3.95,18.3,0,21.1.05a51.264,51.264,0,0,0,8.15-.8q3.551-.65,3.85-4.45l2.9-39a21.072,21.072,0,0,1,.5-3.4,6.305,6.305,0,0,1,1.8-2.9q2-1.8,1.4-5.3a30.67,30.67,0,0,0-2.1-5.65,16.277,16.277,0,0,0-2.649-3.55q-2.2-2.449-3.4-3.55a27.542,27.542,0,0,0-5.45-3.2,61.844,61.844,0,0,0-10-3.95,116.486,116.486,0,0,0-12.2-3A103.7,103.7,0,0,0,64.29.1q-5.8-.3-16.7.3T31.639,2.35M27.84,6.6q1.8-.7,4.8-1.7,3-1.05,23.7-1.9,20.649-.9,37.25,5.15t19,16.25a5.846,5.846,0,0,1,.049,1.45,4.57,4.57,0,0,1-.45,1.85,23.239,23.239,0,0,1-1.2,2.05,4.356,4.356,0,0,1-2.949,1.65q-2.1.4-6.651,1.2a130.75,130.75,0,0,1-14.2,1.3q-7,.4-17.5,0a175.962,175.962,0,0,1-40.8-2.85q-8.7-1.55-17.8-3.95a12.982,12.982,0,0,1-3.2-1,4.615,4.615,0,0,1-2.3-2.6q-1-2.9-.7-4,.3-1.2,2.7-3.1a26.5,26.5,0,0,1,5.8-3.8q2.8-1.2,8.5-3.55,4.1-1.8,5.951-2.45M6.889,65q-2.6-1.2-2.5-3.3l.2-16.6q.2-10,1-16.7a235.438,235.438,0,0,0,23.3,5.45A209.414,209.414,0,0,0,71.79,37q3.2.1,3.8.6.5.6.5,3.8l-.2,27.8a62.814,62.814,0,0,0,0,7.25q-.148,1.05-1.849,1.2A255.654,255.654,0,0,1,44.189,76a130.118,130.118,0,0,1-15.3-2.8,97.675,97.675,0,0,1-22-8.2m102.2-29.2-.351,5.6q-.049,1.1-1.05,15.8-.7,10.1-1.5,16.5-.1,3.3-3.8,3.6-7.3.4-8.1-.5-.7-.7-.1-7,.5-6.2,1.7-15.7,1.8-13.7,2-15.6a3.334,3.334,0,0,1,3.2-3.4q2.2-.2,6.4-1,1.9-.3,1.6,1.7M79.489,42a4.009,4.009,0,0,1-.4-2.1q0-3,2.4-2.9,2.8.1,12.1-.25a1.067,1.067,0,0,1,1.2,1.15q-.051,1.2-.1,2.9a2.286,2.286,0,0,1-2.7,1.9h-10.5a2.136,2.136,0,0,1-2-.7m-1.1,18.5q.1-2.749.3-4.8.152-2.051,1.151-2h1.349l8.4.2a5.441,5.441,0,0,1,3,.65q.549.5,0,4.75-.4,3.1-1.1,3.6-.7.6-3.9.5l-7-.5a2.036,2.036,0,0,1-2.2-2.4m13.1-14.9a2.028,2.028,0,0,1,2.3,2.4,6.069,6.069,0,0,1-.4,2.1q-.5.9-2.7,1.05t-4.7.1q-2.5-.05-4.75-.1t-2.3-.75l.05-1.5q-.2-3.4,3.1-3.3,4.7.2,9.4,0m-12.1,20.7q.9-.7,5.7-.2l2,.2q3.4.4,3.9,1,.4.6.25,3.45-.2,2.8-.3,3.8a8.039,8.039,0,0,1-.649,2.05q-.551,1-2.9,1.05-2.3.049-3.049.05t-2.6.1a4.363,4.363,0,0,1-2.3-.3,3.318,3.318,0,0,1-1-2.7q.152-7.8.95-8.5M61.84,29.45q.8-.5.75-.85-.051-1.6-4.3-2.15a30.1,30.1,0,0,1-7.3-1.75q-4-1.7-6.6-.6a36.409,36.409,0,0,1-5.75,1.85,13.3,13.3,0,0,1-4.4.55q-1.249-.2-2.1-.25-.9-.1-1.15,1.15-.2,1.05,1.5,1.6a5.279,5.279,0,0,0,2.5.3,78.6,78.6,0,0,0,9.1-1.9,9,9,0,0,1,6.6.1,29.367,29.367,0,0,0,6.6,1.85q3.75.6,4.55.1m39.4-9.45a2.674,2.674,0,0,0-1.9-.9,2.15,2.15,0,0,0-2,1q-4.4,5.6-12.8,4.8a2.615,2.615,0,0,0-1.9.4q-.8.551-.8.95-.051.4.649.95t3.6.75a19.506,19.506,0,0,0,6.149-.75,13.193,13.193,0,0,0,7-5,10.741,10.741,0,0,0,6.65,3.35q3.6.35,4.3-.3a1.061,1.061,0,0,0,.151-1.45q-.55-.8-3-.6-2.5.2-6.1-3.2m-52.85-1.8a25.225,25.225,0,0,0,10.3-2.9,8.781,8.781,0,0,1,7.1-.2q1.2.4,5.7,1.3t5.4.5a1.648,1.648,0,0,0,1.05-1.25q.152-.851-.849-1.15-1.3-.2-1.9-.3l-3-.3a6.147,6.147,0,0,1-2.8-.7q-6.9-3.5-15,.8-6.2,3.1-11.9.7a27.251,27.251,0,0,0-3.75-1.5q-1.7-.5-1.75,1.1,0,1.2,2.8,2.7t8.6,1.2m-22-2.8q-4.8-1.2-6.2.5-3,2.6-5.3,1.9a4.684,4.684,0,0,0-3.5.6q-1.35.851,2.5,2.1,3.8,1.2,6.2-1a5.235,5.235,0,0,1,7-.6,6.3,6.3,0,0,0,1.8.6,1.394,1.394,0,0,0,1.3-.5q.75-1.7-1.3-2.75a10.328,10.328,0,0,0-2.5-.85"/></svg>