<svg overflow="visible" width="100%" height="100%" viewBox="0 0 115.997 42.839" xmlns="http://www.w3.org/2000/svg"><path d="M114.174.4a4.446,4.446,0,0,0-3.7,0q-7.9,2.8-8.6,3.1a26.19,26.19,0,0,0-7.7,4.8,18.029,18.029,0,0,1-4.7,3.6q-3.9,2-5.9,2.9a17.549,17.549,0,0,1-6,1.6q-4.1.1-9.7.8-2.6.5-3.2-.1a6.915,6.915,0,0,0-4.4-2.6,19.211,19.211,0,0,0-5.1.4,48.086,48.086,0,0,0-6.9,1.1q-10.5,3.2-23-1.6-5.5-2-7.6-2.6a32.721,32.721,0,0,0-9.85-.8q-5.149.4-6.55,2.25-1.451,1.8-1.25,6.2Q.275,24.2,5.774,27.4a38.189,38.189,0,0,0,10,3.6q.8.2,24.8,5.1,2,.3,2.2.6a6.064,6.064,0,0,0,4.6,3.6q.1.1,5.7.2a41.085,41.085,0,0,0,5.1-.3q3.3-.2,4.8.9a3.574,3.574,0,0,0,3.6,1.7,34.274,34.274,0,0,0,3.6-.9q3.5-.1,3.9-.2a6.092,6.092,0,0,0,3.6-1.7l.2-.5a3.42,3.42,0,0,1,1.6-2.4,26.474,26.474,0,0,1,2.7-1l22.2-7q9.7-3.2,11-10.9.9-5,.5-15.2a2.761,2.761,0,0,0-1.7-2.6m-9.3,5.1q2.2-.8,4.65-1.9,2.4-1.1,3.25-.8t.8,1.7l.15,1.8a34.243,34.243,0,0,1-.15,7.25q-1.249,9.9-9.3,12.45-4.3,1.6-14.45,4.85-10.2,3.2-11.25,2.65a12.957,12.957,0,0,1-.3-3.2q0-9.4.2-10.1t2.5-1.4a37.362,37.362,0,0,0,9.4-4.5q2.8-1.8,8.4-5.8a27.3,27.3,0,0,1,6.1-3m-37,14.7a22.233,22.233,0,0,1,4.5-1q2.2-.3,2.8.2a4.6,4.6,0,0,1,.7,2.8v8.9q.3,5.1-2.8,7-2.2,1.2-7.9,1.6.8-14.5.8-15.7-.1-2.9,1.9-3.8m-6.9.5q-.45-.851-3.65-2.3,4.35,0,5.5.9,1.1.9,1.1,9.35-.05,8.4-.6,8.5-.5.15-1.4-.65a88.455,88.455,0,0,0-.05-12.2,14.093,14.093,0,0,0-.9-3.6M48.424,20q3,.251,5.95.25,3.8.05,4.5,2.75a10.219,10.219,0,0,1,.3,1.9q.351,2.25-.7,2.1t-4.5-.35q-3.5-.25-3.9,0-.45.2-.9,1.7t.35,1.7a10.167,10.167,0,0,0,2,.25q1.15,0,4.55.35t3.7,1.05q1.1,2.6-1.1,3.95t-7.55.85q-5.351-.5-5.95-3.3a17.863,17.863,0,0,1-.35-3.85,70.641,70.641,0,0,1,.4-7.5q.251-2.1,3.2-1.85m-7.85.6q.251-.9,2.8-.25a54.979,54.979,0,0,1-.1,9q-.4,3.4-1.35,3.3a1.137,1.137,0,0,1-1.05-1.1,18.6,18.6,0,0,1-.2-1.85,77.73,77.73,0,0,1-.1-9.1m-34.2-6.5a23.679,23.679,0,0,1,3.6.1q8.1.9,25.9,6.5a3.471,3.471,0,0,1,2.7,3.5,45.8,45.8,0,0,1-.4,7.45q-.1.851-6.9-.65-18-3.9-18.5-4-12.7-4.2-9.5-11.4a3.969,3.969,0,0,1,3.1-1.5m21.1,10.2a2.75,2.75,0,0,0,.9,1.6,1.539,1.539,0,0,0,1.8.3,3.625,3.625,0,0,0,1.5-.9q1.05-2.3-1.7-2.3-2.75.251-2.5,1.3M86.424,26a1.93,1.93,0,0,0-1.5-2.5q-1.9-.55-2.45,2.2-.6,2.75,1.15,2.6a2.856,2.856,0,0,0,2.8-2.3m8.45-7.7q-1.2.1-1.75,1.65a3.632,3.632,0,0,0,.05,2.95,1.7,1.7,0,0,0,2.2,1,1.838,1.838,0,0,0,1.5-1.95,4.888,4.888,0,0,0-.7-2.55,2.14,2.14,0,0,0-1.3-1.1m12.2-1.15q.75-1.05-.75-2.75a1.577,1.577,0,0,0-2-.3,14.092,14.092,0,0,0-1.5,1.5q-1.95,2.25-1.6,3.5.251.8,3,0a6.7,6.7,0,0,0,2.85-1.95"/></svg>