<svg overflow="visible" width="100%" height="100%" viewBox="0 0 63.109 116.002" xmlns="http://www.w3.org/2000/svg"><path d="M15.082,3.05a5.388,5.388,0,0,0-2.1,1.65,4.589,4.589,0,0,0-.65,2.3q-.3,5.1-.9,10.4a10.834,10.834,0,0,1-7.8,9.3,10.9,10.9,0,0,0-2.6,1.1,1.8,1.8,0,0,0-.9,2.3,37.581,37.581,0,0,0,7.3,8.8,19.708,19.708,0,0,0,10.6,4.4q3.4.3,4.85,2.1,1.4,1.8,2.05,2.7a6.568,6.568,0,0,0,2.2,1.75q1.5.851,2.1,4.55a20.369,20.369,0,0,1,.35,4.4q-.1,2.4-2.45,6.75a5.8,5.8,0,0,0,1.25,7.75q3.6,3.35,3.65,6.8,0,3.4.05,9.95,0,6.551-1,7.15a16.2,16.2,0,0,1-4.05,1.3q-5,1.1-7.7,2-5,1.5-5.8,4.95-.8,3.4,6.35,7.35,7.1,3.9,18.15,3.05,11-.85,16.9-3.55,8.4-3.8,1.6-8.9a19.849,19.849,0,0,0-4-2.15,39.283,39.283,0,0,0-6.6-1.95,51.149,51.149,0,0,0-6.65-1.1q-2.55-.2-3.4-1.3a8.178,8.178,0,0,1-.25-4.95,10.868,10.868,0,0,1,2.65-4.65,11.841,11.841,0,0,0,2.65-6.25q.6-3.949-2.45-5.6t-3.9-6.35a9.268,9.268,0,0,1,2-8.05q2.85-3.349.55-5.85a18.809,18.809,0,0,1-4.05-3.85,7.032,7.032,0,0,1-.8-3.2q-.051-1.95-.05-3.35a64.453,64.453,0,0,0,8.2-.15,54.866,54.866,0,0,0,10-1.65,37.251,37.251,0,0,0,10-4.35q4.95-3.1.75-6.3a20.639,20.639,0,0,1-6.05-6.8q-1.9-3.649-3.2-6.55a104.739,104.739,0,0,1-4.25-10q-1.7-4.65-7.6-6.8A30.848,30.848,0,0,0,29.432,0a32.934,32.934,0,0,0-8.75,1.1,27.135,27.135,0,0,0-5.6,1.95M5.832,29.2q8.2-4.6,8.7-14.6l1.1-9.1a92.179,92.179,0,0,0,12.3,1.7,49.049,49.049,0,0,0,10.15-.3q4.249-.7,5.85.4,1.4,1,2.6,4.5a133.276,133.276,0,0,0,6.7,16.4q1.3,2.6,6.1,6.9A40.578,40.578,0,0,1,46.882,41q-6.55,1.751-16.45,1.05a65.533,65.533,0,0,1-14-1.95q-7.7-2.2-11.3-7.7-1.5-2,.7-3.2M32.782,2.85q6.849.6,5.9,1.8-1,1.15-10.7.4-9.7-.7-5.9-1.8t10.7-.4m-6.05,41.8a1.868,1.868,0,0,1,1.85.55q.95.85.2,1.55-.75.65-1.85-.55-1.05-1.25-.2-1.55m6.05,12q-.051-2,1.1-1.4a6.3,6.3,0,0,1,1.85,1.4,1.436,1.436,0,0,1-.05,1.85,10.054,10.054,0,0,1-1.5,1.7q-.7.55-1.05-.5a13.431,13.431,0,0,1-.35-3.05m-3.1,9.7q.9-2.3,1.3.15a19.782,19.782,0,0,1,.3,4.25q-.1,1.8-1.3-.15a4.545,4.545,0,0,1-.3-4.25m7.15,17.6q-1.95,1.2-2.1-.85a16.28,16.28,0,0,1,.05-3.85q.249-1.8,1.85-1.25a2.954,2.954,0,0,1,1.85,2.65,3.119,3.119,0,0,1-1.65,3.3m-15.55,26.6a26.3,26.3,0,0,1-3.55-2.15,5.027,5.027,0,0,1-1.25-2q-.6-1.4,3.1-2.65,3.249-1.1,5.45-1.95a36.34,36.34,0,0,1,6.7-1.65q-1.1,5.5,1.7,5.75t3.25-1.35a9.978,9.978,0,0,0-.3-4.5l9.3,1.8a27.61,27.61,0,0,1,5.8,1.7q1.55.8,2.05,1.1a7.749,7.749,0,0,1,1.7,1.25q1.2,1,1.2,1.6,0,.7-1.5,1.8a13.47,13.47,0,0,1-3.8,1.85,28.292,28.292,0,0,1-4.7,1.1q-2.4.35-6.85,1.05a31.769,31.769,0,0,1-10-.2,26.307,26.307,0,0,1-8.3-2.55M40.682,10.2a1.887,1.887,0,0,0-1,.35q-.4.3-.35,1.25l.6,5.4q.7,6,1.4,12.45t1.2,7a1.611,1.611,0,0,0,.95.6,1.062,1.062,0,0,0,.85-.4,1.653,1.653,0,0,0,.35-1.4q-1.551-15.851-2.2-20.1a25.57,25.57,0,0,0-.95-4.75.761.761,0,0,0-.85-.4m-18.05,8.1a36.1,36.1,0,0,0-1.5,3.9,3.067,3.067,0,0,0-.1,1.7,1.361,1.361,0,0,0,.75.85q1.7.6,3.55-4.2a89.312,89.312,0,0,0,3.15-9.85q.4-1.549-.65-1.35a2.1,2.1,0,0,0-1.65,1.35l-3.55,7.6"/></svg>