<svg overflow="visible" width="100%" height="100%" viewBox="0 0 115.324 116.319" xmlns="http://www.w3.org/2000/svg"><path d="M81.663,2.292a65.377,65.377,0,0,0-14.05-2.1,65.958,65.958,0,0,0-26.1,3.2q-13.8,4.6-21.9,14.3a73.32,73.32,0,0,0-10.6,15.7q-3.1,6-7.9,17.4-1.6,3.8-.9,5,.7,1.1,4.9,1.3l32.8,1.1a8.115,8.115,0,0,1,3.4.7q.5.5.9,3.2.5,19.8.5,25.3a218.648,218.648,0,0,1-1.5,25.45,2.8,2.8,0,0,0,.7,2.55,4.487,4.487,0,0,0,3,.8q4,0,11.9-.6,2.3,0,6.7-.1a56.019,56.019,0,0,1,6.6.5q4.8.7,6.4-.1,1.6-.849.7-5.5-.3-2.3-2-12a96.783,96.783,0,0,1-1.5-12q-.4-6,.1-25.3.1-3,.7-3.6.5-.6,3.5-.9l32.1-3q2.9-.2,3.9-1.2.9-1,1-4l.2-7q.95-12.3-6.2-19.7a109.082,109.082,0,0,0-14.2-12.6,41.063,41.063,0,0,0-13.15-6.8m-29.45,53.35q-5.25-.1-8.35-.2-3.1-.15-5.25-.15l-31.6-1.05q-2.65.1-2.55-1.4a8.1,8.1,0,0,1,1.1-3.5q1-2,2.75-6.2,1.65-4.25,2.6-6.9,2.951-8.3,14.15-19.45,11.15-11.2,30.25-13.4,18.6-2.1,29,3.1a79.764,79.764,0,0,1,18.25,12.45q7.9,7.251,8.8,12.35a103.692,103.692,0,0,1,.75,16.2q.1,3.1-3.1,3.4l-12.4,1.2q-16.6,1.8-27.9,2.75-11.3.9-16.5.8m-7,3.35q.4-.4,2.8-.5l18.8-.8q3.4-.1,3.9.4.6.6.5,4.1v10.4q-.5,7.95,1.2,22.45,1.7,14.451,1.8,16.25a2.249,2.249,0,0,1-.4,1.7,1.64,1.64,0,0,1-1.7.3,36.082,36.082,0,0,0-12.5-.8q-10.4.8-12.55.95a3,3,0,0,1-2.25-.75,2.915,2.915,0,0,1-.3-2.4,107.64,107.64,0,0,0,1.3-16.8q-.2-11.2-.2-16.8,0-2.8-.3-7.4-.4-5.8-.5-7.4-.1-2.4.4-2.9m-10.25-16.95a3.176,3.176,0,0,0-1.15-1.15,5.273,5.273,0,0,0-2.55-.55,6.816,6.816,0,0,0-2.9.45,2.488,2.488,0,0,0-1.45,1.9,4.31,4.31,0,0,0,.25,2.65,4.68,4.68,0,0,0,1.45,2.05q.95.75,3.3.35a3.767,3.767,0,0,0,3.05-2.05,3.887,3.887,0,0,0,.55-2.3,6.786,6.786,0,0,0-.55-1.35m-7.9-15.45a14.978,14.978,0,0,0-4.85.3q-2.5.5-2.25,2.85a4.058,4.058,0,0,0,1.7,3.4,6.384,6.384,0,0,0,3.7.95,6.7,6.7,0,0,0,3.85-1.4,3.945,3.945,0,0,0,1.75-3.05,3,3,0,0,0-.8-2.15,6.089,6.089,0,0,0-3.1-.9m10.75-14.25a6.032,6.032,0,0,0-2.85,1.05,4.678,4.678,0,0,0-2.15,3,3.662,3.662,0,0,0,.4,3,4.005,4.005,0,0,0,2.4,1.4,5.811,5.811,0,0,0,3.75-.85,3.523,3.523,0,0,0,1.85-3.7q-.251-2.55-1.2-3.25a3.038,3.038,0,0,0-2.2-.65m51.6,34.05a4.959,4.959,0,0,0,2.85,1.45,2.651,2.651,0,0,0,2.6-.55,5.82,5.82,0,0,0,.95-3.4q.15-2.5-3.15-2.85-3.349-.35-3.8,1.95a3.793,3.793,0,0,0,.55,3.4m8.35-17.6q1.249-.9.85-1.8a3.964,3.964,0,0,0-2.9-2,1.7,1.7,0,0,0-1.9.5,3.443,3.443,0,0,0-.7,1.7,2.181,2.181,0,0,0,.25,1.55q.35.651,1.75.8a4.2,4.2,0,0,0,2.65-.75m-15.55,9.3a3.661,3.661,0,0,0-.9-2.8,3.352,3.352,0,0,0-2.6-1.1q-3.3,0-3.4,2.4-.2,2.8,3.2,3.8,3.4.9,3.7-2.3m-20.6,6.7a3.569,3.569,0,0,0,.65,2.85,3.727,3.727,0,0,0,3.05,1.5,2.869,2.869,0,0,0,3.05-1.85q.851-2.049.35-2.95a4.233,4.233,0,0,0-2-1.6,3.7,3.7,0,0,0-3.15-.1,2.655,2.655,0,0,0-1.95,2.15m-14.9-2.2q2.7.2,3.9-3.1,1.1-3.3-2.5-3.1-4.9,0-4.7,3.2a2.969,2.969,0,0,0,3.3,3m.3-12.85a4.232,4.232,0,0,0,3.7-.45,10.193,10.193,0,0,0,2.7-2.25,5.153,5.153,0,0,0,.95-2.55q.2-1.5-2.05-1.85a7.551,7.551,0,0,0-4.75.85q-2.55,1.251-2.45,3.45a2.823,2.823,0,0,0,1.9,2.8m20.4-2.45a4.578,4.578,0,0,0-2.4-.8,4.478,4.478,0,0,0-3.4,1.2q-1.7,1.4-1.5,2.8a4.33,4.33,0,0,0,.7,2.1,2.13,2.13,0,0,0,1.3.9,5.109,5.109,0,0,0,1.7-.1,6.278,6.278,0,0,0,2-.8,6.429,6.429,0,0,0,1.8-1.65,2.992,2.992,0,0,0,.65-2.05,2.52,2.52,0,0,0-.85-1.6m10-14.1a5.306,5.306,0,0,0-3.25.25,2.891,2.891,0,0,0-1.65,2q-.4,1.4,1.25,2.55a7.652,7.652,0,0,0,4.45,1.15q2.8-.049,3.1-2.2.251-2.2-.8-2.8a8.748,8.748,0,0,0-3.1-.95m-17.9-3.8q.2-1.8-3.3-2.3a3.467,3.467,0,0,0-2.2.6,3.16,3.16,0,0,0-1.2,2q-.3,3.2,3,2.6,3.2-.7,3.7-2.9"/></svg>