<svg overflow="visible" width="100%" height="100%" viewBox="0 0 119.45 63.195" xmlns="http://www.w3.org/2000/svg"><path d="M83.017.018q-3.5-.2-4.9,1.8a15.017,15.017,0,0,1-7.1,5.7,29.386,29.386,0,0,1-8.9,1.8q-24.2,1.5-33.15,1.3l-14.85-.3q-5.6-.2-8,4-5.6,9.5-1.2,17,7.9,13.6,21.3,14.3a143.688,143.688,0,0,0,18.5.9q7-.2,18.5-1,3.1-.2,3.1,2.7-.1,2.7.1,7.9.1,2-2.2,2.2l-54-.1q-3.2-.1-3.9-.9a10.275,10.275,0,0,0-2.45-1.85q-1.75-1-2.7-.3a2.326,2.326,0,0,0-1.1,1.85,11.916,11.916,0,0,0,.2,3.8,3.291,3.291,0,0,0,1.2,2.25q.8.45,3.35-.7,2.5-1.149,11.05-1.4,8.55-.3,25.95.25,36.1.25,50.4-.6,14.2-.851,17.15-1,2.9-.2,6.25-3.2,3.3-3,3.7-5.85a8.71,8.71,0,0,0-.4-4.7q-.8-1.8-3.9-3.2-3.1-1.449-25.3-1.25t-44.5,2.1a4.115,4.115,0,0,1-2.7-.3,3.784,3.784,0,0,1-.8-2.4l-1.8-21.2q-.3-4.35.15-4.8t7.65.3a138.539,138.539,0,0,1,16.9,2.9,30.353,30.353,0,0,1,9.5,4,98.663,98.663,0,0,0,9.1,4.9,6.429,6.429,0,0,0,6.1-.3,7.14,7.14,0,0,0,3.9-4.9,53.2,53.2,0,0,0,1.1-9.3q.6-11.8-11.3-12.4m-2.5,8.1a4.551,4.551,0,0,1,1.3-3.3,4.3,4.3,0,0,1,2.7-1.6q4.1-.4,5.7,3.6a22.836,22.836,0,0,1,.9,7.6q.4,5.4-1.7,7.9-2.6,2.6-4,2.1a5.092,5.092,0,0,1-2.2-1.4,4.093,4.093,0,0,1-1.4-2.2,98.788,98.788,0,0,1-1.3-12.7m36.1,39.4q.8,1.2-.55,3.7a9.075,9.075,0,0,1-3.85,3.75,17.874,17.874,0,0,1-6.7,1.45q-5.2.1-7.85.25-15.651.75-21.35,1.1-5.7.3-6.25-.1t-.7-3.65a50.309,50.309,0,0,1-.05-5.9q.15-2.7,4.8-2.95,4.65-.3,19.8-.4,15.1-.15,16.2-.15,4.7-.2,6.5,2.9m-39.1-36.6,1.1,7.45q.5,2.9-1.65,1.8-2.4-1.249-3.75-1.95a33.216,33.216,0,0,0-5.7-2.4,43.064,43.064,0,0,0-6.4-1.4q-2.3-.349-4.05-.65-3.251-.5,0-.8,5.749-.6,9.05-1.25a38.9,38.9,0,0,0,8.15-2.55q2.8-1.3,3.25,1.75m-40.85,4.2q.6.851.85,4.5l1.3,20.7q.2,2.4-.2,2.8-.5.5-3,.3-6.2-.2-9.4-.6a20.755,20.755,0,0,1-8.8-2.8,43.017,43.017,0,0,1-8-6.6,12.63,12.63,0,0,1-3.4-8.3,14.206,14.206,0,0,1,2-8.7,5.487,5.487,0,0,1,2.7-2.55,20.638,20.638,0,0,1,4.8-.6,81.4,81.4,0,0,1,8.65.2q5.3.3,8.6.55,3.3.2,3.9,1.1"/></svg>