<svg overflow="visible" width="100%" height="100%" viewBox="0 0 77.199 70.429" xmlns="http://www.w3.org/2000/svg"><path d="M77.143,54.565a8.26,8.26,0,0,0-1-5.25,11.642,11.642,0,0,0-3.9-3.7q-9.4-5.9-17.2-7.3a7.219,7.219,0,0,1-4.1-2.3,19.994,19.994,0,0,1-2.2-3.9q-.7-2.1,1-2.8a5.477,5.477,0,0,0,2.8-2.4,10.821,10.821,0,0,0,1.1-3.5q1.1-4.8-1.1-12.5a14.825,14.825,0,0,0-3.25-5.9,24.656,24.656,0,0,0-4.2-3.75,8.388,8.388,0,0,0-5.25-1.25,33.288,33.288,0,0,0-8.75,1.9,14.369,14.369,0,0,0-8.15,7.5,14.417,14.417,0,0,0-.8,11.5q2,5.9,6.3,8.5,2.4,1.5.1,3.4-6.7,5.6-10.2,8.2a55.458,55.458,0,0,1-11.1,7q-7.8,3.7-7.2,12.4.8,10.4,10.7,10l24.3-1q.8,0,2.6-.1a3.25,3.25,0,0,0,2.1-.7,6.369,6.369,0,0,1,4.1-1.9,26.112,26.112,0,0,1,4.3.3q16,2,19.6,2.3,9.4.9,9.4-8.5v-6.25m-6.3-6.55a6.876,6.876,0,0,1,3.3,6,42.212,42.212,0,0,0,.4,6.4q.2,3.3-1.2,4.7-1.3,1.4-4.7,1.3-.1,0-8.8-.9l-14.8-1.7q-3.1-.3-2.8-3.1a10.354,10.354,0,0,0-.4-4.3,9.764,9.764,0,0,1-.4-5.5,16.256,16.256,0,0,1,2.05-4.5q1-1.6,1.7.75,1.1,3.849,1.25,4.35,1.4,3.8,3.3,5.1,2,1.3,5.9,1.1,3.8-.1,10.9-.7,2.2-.251,1.95-1.1a2.706,2.706,0,0,0-.8-1.25q-.5-.4-4.8-.15-4.35.2-8.15.3a5.985,5.985,0,0,1-3.5-.6,6.9,6.9,0,0,1-2-3.1q-1.1-3.5-1.7-5.2a10.024,10.024,0,0,0-1.2-2.2,2.8,2.8,0,0,0-2.65-.75q-1.75.249-2.95,2.85-1.2,2.55-3,2.3a2.761,2.761,0,0,0-2.8,1.1,6.067,6.067,0,0,0-1.2,2.2q-.1.5-.3,1.5-.2.8-.6,2.7a3.255,3.255,0,0,1-1,2.1q-1.5,1.1-5.7,1.1-1.1,0-7.3-1,4.7-4,6.5-5.9,1.749-1.95.3-2.3-1.6-.251-4.55,2.3-2.95,2.5-5.55,4.8a2.347,2.347,0,0,0-.8,2.3,1.888,1.888,0,0,0,1.8,1.4q2.4.3,7,1.1a18.281,18.281,0,0,0,7.2-.2,9.09,9.09,0,0,0,3.6-1.6,4.836,4.836,0,0,0,1.4-3.5q.15-1.1.75-3.7.3-1.751,1.2-.2a14.637,14.637,0,0,1,1.65,5.7,25.906,25.906,0,0,1-.5,7.2q-.2.9-2.3,1.2-4.6.1-6.9.2l-19.3.9q-5.5.2-6.9-3.7-2.2-5.4.4-8.9,2.9-3.5,4.7-4.3a58.811,58.811,0,0,0,11.3-7q3.5-2.8,10.2-8.6a10.386,10.386,0,0,1,3.2-2.1,6.421,6.421,0,0,1,3.9-.2,27.167,27.167,0,0,1,6.2,2.1,21.2,21.2,0,0,1,5.5,3.5,13.608,13.608,0,0,0,5.2,2.6,54.777,54.777,0,0,1,16.8,7.1M32.893,4.365l1.6-.65a20.488,20.488,0,0,1,4.25-.8,9.057,9.057,0,0,1,5.9,1.75,12.459,12.459,0,0,1,4.75,6.15,32.508,32.508,0,0,1,1.85,6.2,14.256,14.256,0,0,1-.3,6.1,6.867,6.867,0,0,1-1.4,2.9,15.458,15.458,0,0,1-11.5,3.6q-7-.5-11-5a11.033,11.033,0,0,1-1.9-3.6,15.911,15.911,0,0,1-.8-4.6,12.118,12.118,0,0,1,2.1-7.5,13.425,13.425,0,0,1,6.45-4.55"/></svg>