<svg overflow="visible" width="100%" height="100%" viewBox="0 0 115.112 66.186" xmlns="http://www.w3.org/2000/svg"><path d="M94.067,26.41q5.6-3.8,7.4-6,3.5-4.4-2.1-6.7a4.416,4.416,0,0,0-5.1.7l-28.8,20.7V12.71a21.758,21.758,0,0,1,.2-3.5,6.726,6.726,0,0,1,1.65-3.25,7.566,7.566,0,0,0,1.65-3.65q.5-2.3-3.6-2.3a28.009,28.009,0,0,0-4.8.15,2.566,2.566,0,0,0-1.2.6q-.5.45-.05,2.75.45,2.25,1.3,2.75a3.7,3.7,0,0,1,1.4,1.6,8.228,8.228,0,0,1,.55,3.55v20.3q0,5.8-1.2,7-1.3,1.2-7.3,1.3l-46.7.4q-10.3,1-6.2,4.2a40.212,40.212,0,0,0,9.1,5.1,19.128,19.128,0,0,0,10.45.85,257.056,257.056,0,0,1,26.75-3.45q5.5-.5,6.9,1.1,1.2,1.2.1,3.2-.6,1.1-2.1,3.3-1.1,2.4-3.7,7-1,2.6,1.1,3.9,2.2,1.2,5.5-.1a7.918,7.918,0,0,0,4.4-3.8q2-4.5,3.7-7.65a7.461,7.461,0,0,1,4.05-4,9.615,9.615,0,0,1,4.85-.35,18.355,18.355,0,0,1,4.6,1.4,13.482,13.482,0,0,0,5.7,1.2q3.5-.1,3.9-3.1a3.989,3.989,0,0,0-1.9-4.5q-.1-.1-5.6-2.1l27.6-4.5q1.6-.4,5.7-1.2,3.2-1.2,2.8-4.2-.8-5.2-8.9-2.8-1,.2-14.9,4-8.149,2.25-15.6,4-3.75,1.151-2.45.25t10-5.6q8.7-4.7,10.85-6.15m3.55-6.05a16.273,16.273,0,0,1-3.25,2.65q-3.7,2.2-11.1,6.7a68.436,68.436,0,0,1-11.7,5.7l-.4-.7,23.7-17.4a11.36,11.36,0,0,1,1.8-1.3,1.671,1.671,0,0,1,2,.8,1.6,1.6,0,0,1,.2,2.1q-.4.5-1.25,1.45M82.767,48.11a1.2,1.2,0,0,1-.85.8,22.212,22.212,0,0,1-5.3-1.4q-4.3-1.45-4.2-1.95a3.114,3.114,0,0,1,.5-1.15q.75-1,5.5.8,4.7,1.751,4.35,2.9m-5-7.5-.3-.95q2.751-1.05,17.7-4.55t16.4-3.3q1.451.2,1.15,1.2-.35,1-11.4,3-11.1,2-17.6,3.65a24.442,24.442,0,0,1-5.95.95m-8.85,1.7a1.567,1.567,0,0,1,.05,1.75,5.832,5.832,0,0,1-1.9,2,9.3,9.3,0,0,1-3.25,1.45,10.769,10.769,0,0,1-2.85.4,2.738,2.738,0,0,1-2.2-1.1q-.6-1,1.3-3.35,1.851-2.4,3.7-2.4a18.635,18.635,0,0,1,3.25.25,2.9,2.9,0,0,1,1.9,1m-4.45-39.4q1.4-.05.55,1.5-.6,1-1,.45a4.179,4.179,0,0,1-.7-1.25q-.249-.7,1.15-.7m-46,44.6a15.675,15.675,0,0,1-6.5-.5,17.519,17.519,0,0,1-6.3-3.6h50.2a12.2,12.2,0,0,1-4.8.9q-3.6.15-14.1,1.5-12.5,1-18.5,1.7m33.8,15.5a.784.784,0,0,1-.6-.8q4.2-8.1,5.25-10.05,1-1.95,2.25-1.85a2.24,2.24,0,0,1,1.75.8q.45.7-1.2,4.2a45.646,45.646,0,0,1-2.9,5.4,4.993,4.993,0,0,1-2.7,2.25q-1.449.349-1.85.05"/></svg>