<svg overflow="visible" width="100%" height="100%" viewBox="0 0 83.154 116.688" xmlns="http://www.w3.org/2000/svg"><path d="M81.938,11.388q-1.5-5.9-8.45-9.75-7-3.851-17.4,1.35a28.271,28.271,0,0,0-13.9,14.6q-6.4,13-12.8,35.2-3.7,13.1-6.6,20.4a91.724,91.724,0,0,1-8.75,17.6,91.692,91.692,0,0,0-6.5,10.7c-.467.1-.784.166-.95.2a7.782,7.782,0,0,0-5.6,2.7q-2.2,2.8.5,5.4,6.9,6.8,14.4,6.9,8.8,0,5.8-8.2a5.734,5.734,0,0,1,.2-5.1q4.9-9.2,7.5-13.4a66.713,66.713,0,0,1,9.5-12l6.3-6.6a40.365,40.365,0,0,1,6.9-6,84.808,84.808,0,0,0,10.1-8q2.5-2.3,9.2-9a29.045,29.045,0,0,0,3.55-4.5,52.64,52.64,0,0,0,7.15-15.1,42.24,42.24,0,0,0,1-6.85,33.125,33.125,0,0,0-1.15-10.55m-2.65,13.95a76.01,76.01,0,0,1-3.5,9.95,46.576,46.576,0,0,1-7.5,12,101.118,101.118,0,0,1-10,9.8q-3.7,3-11.3,8.8a64.6,64.6,0,0,0-6.85,6.25,20.528,20.528,0,0,0-2.3-1.7,50.958,50.958,0,0,1-6.4-5.35q-1.7-1.6-2.5-2.2,7.6-24.349,8.75-27.9,5.1-14.5,9.6-20.8,7.4-10.6,18.8-10.9,12.1,1.549,13,10.25t.2,11.8m-57.5,56.85a4.523,4.523,0,0,1,1.8-1.9,2.989,2.989,0,0,1,2.5.4l4.2,1.5-3.05,5.75q-.45-.2-.9-.35-5.151-1.9-5.35-2.9a3.683,3.683,0,0,1,.8-2.5m3.8-8.5q1.3-4.2,2.35-7.2a19.608,19.608,0,0,0,2.05,2.6,26.1,26.1,0,0,0,7.95,5.55q-.551.649-1.05,1.35a8.116,8.116,0,0,1-3.9,3.1,6.593,6.593,0,0,1-4.9-.6,11.869,11.869,0,0,1-3-1.6q-.3-.6.5-3.2m-22.2,32.85q.2-.85,6.55-2.75,1.249-.4.85-.85-.351-.4.6-2.9t3.75-1.05q2.749,1.451,4.75,2.55a4.526,4.526,0,0,1-.45,2.4q-.6,1.4-1.45,1-.9-.4-1.2-.1-.351.3.8,2.25,1.1,1.95,1.2,2.1,2.7,5.4-3.45,4.5-6.2-.9-9.2-3.6t-2.75-3.55m22.25-15.7-4.55,7.65q-.251.5-2.05-.6-1.8-1.151-3.35-2.3t.8-4.6l2.5-3.8q4.749,2.649,6.65,3.65"/></svg>