<svg overflow="visible" width="100%" height="100%" viewBox="0 0 95.262 115.683" xmlns="http://www.w3.org/2000/svg"><path d="M8.345,53.751a6.382,6.382,0,0,0-2.4,3.4q-1.5,4.2.7,7.25,2.149,3.05,3.35,3.25,1.151.15,1.6.25t3.25.4q2.749.3,6.45.9a39.53,39.53,0,0,0,7.05.45,78.691,78.691,0,0,1-3.9,8.4,12.7,12.7,0,0,0-.4,9.1,23.147,23.147,0,0,0-10.4.6,70.411,70.411,0,0,0-9.5,3.7,5.94,5.94,0,0,0-4.1,5.3,14.532,14.532,0,0,0,1.4,7,6.992,6.992,0,0,0,5.4,4.5,7.543,7.543,0,0,0,6.9-2.2,5.968,5.968,0,0,0,1.9-2.9q.2-1,5.4-4.8a51.352,51.352,0,0,1,9.5-5.4,9.819,9.819,0,0,1,3.6-1.1l15.3,1.2a2.935,2.935,0,0,1,1.85,1.4,13.578,13.578,0,0,0,1.8,2.1,12.554,12.554,0,0,0,2.95,1.9,15.568,15.568,0,0,1,4.3,3.9,9.6,9.6,0,0,1,1.9,5.6,7.53,7.53,0,0,0,2.2,5,9.118,9.118,0,0,0,5.2,2.5,12.653,12.653,0,0,0,9.9-2.3q5-3.6,3.8-8.4-4.9-11.7-13.3-17.2a2.019,2.019,0,0,1-.8-.9l-1-9.2a49.783,49.783,0,0,1,5.8,1.7q5.85,1.5,7.85,2.2a9.369,9.369,0,0,0,4.25.6q3.3-.6,4.6-5.25,1.3-4.7.45-5.95a9.832,9.832,0,0,0-1.75-2A15.583,15.583,0,0,0,85.8,66.8a13.585,13.585,0,0,1-3.65-2.05,14,14,0,0,0-6.5-3.4,54.059,54.059,0,0,1-7.3-2.3,22.432,22.432,0,0,0,11.3-15.8,33.646,33.646,0,0,0,.55-5.7q-.1-1.45,2.4-1.9,2-.3,4.05-.8a11.116,11.116,0,0,0,5.7-4.1,12.658,12.658,0,0,0,2.9-8,13.849,13.849,0,0,0-1.9-7,16.233,16.233,0,0,0-4.6-5.9,11.109,11.109,0,0,0-8.8-1.6,10.089,10.089,0,0,0-7.3,4.9,16.043,16.043,0,0,0-1.5,4.15,5.763,5.763,0,0,0-.15.65l-.25-.2a24.723,24.723,0,0,0-7.7-4.7,38.034,38.034,0,0,0-4.5-1.45,44.945,44.945,0,0,0-5.05-1.2,28.145,28.145,0,0,0-3.5-.35,19.446,19.446,0,0,1-2.35-.25q-.75-.15-1.9-1.75-1.2-1.6-2.1-2.85a15.191,15.191,0,0,0-3.75-3.25A9.848,9.848,0,0,0,34.345,0q-2.7-.049-6.9,2.95a16.393,16.393,0,0,0-6,9q-1.8,6,6.3,10.5a28.527,28.527,0,0,0-3.5,15.4,52.827,52.827,0,0,0,4,16q-7.1-1.1-9.3-.8a10.017,10.017,0,0,0-2.9.75,2.115,2.115,0,0,1-1.3.25q-.6-.1-2.3-.5a5.233,5.233,0,0,0-4.1.2m-.2,6.1a4.111,4.111,0,0,1,1-2.7,2.781,2.781,0,0,1,2.2-1q4.4.5,4.1,5.5-.1,4.6-3.8,3.2t-3.5-5m24-56.5a2.748,2.748,0,0,1,2.8-.1,26.012,26.012,0,0,1,4.7,2.5,9.791,9.791,0,0,1,2.3,2.4Q43.5,10.1,41.9,10.9a9.776,9.776,0,0,1-2.25.75,4.758,4.758,0,0,1-3.6-1.3,2.785,2.785,0,0,0-2.5-.8,3.257,3.257,0,0,0-2,1.7,3.849,3.849,0,0,0-.65,2.4,1,1,0,0,0,1.15.95q1.1-.051,1.5-1.9.349-1.85,1.95.55.649,1,.05,1.55t-.8.75q-.2.2-.8.75-3.1,2.75-5.5,2.75-2.3-.1-3.9-3.3a3.984,3.984,0,0,1-.3-2.7,12.372,12.372,0,0,1,3.1-5.6,29.883,29.883,0,0,1,4.8-4.1m13.55,9a31.4,31.4,0,0,1,4.4.2,35.327,35.327,0,0,1,4.35.6,40.128,40.128,0,0,1,18.9,10.4,11.551,11.551,0,0,1,2.7,4.4,22.1,22.1,0,0,1,1.4,9.5,51.162,51.162,0,0,1-1.6,9.4,20.464,20.464,0,0,1-8.8,10.1,25.182,25.182,0,0,1-13.1,3.45q-4.749-.05-13.45-2.7-8.751-2.651-11.35-9.05-1.8-4.6-2-12.5-1.3-11.7,13.5-21.5a12.114,12.114,0,0,1,5.05-2.3M19.045,55.9q.9-.351,5.3.2A38.232,38.232,0,0,1,31,57.4q2.3.75,1.85,2.6a18.557,18.557,0,0,1-1.9,4.45,5.052,5.052,0,0,1-4.55,2.7,28.831,28.831,0,0,1-5.55-.3q-2.451-.4-2.85-1.05-.4-.7-.2-4.8.349-4.75,1.25-5.1m63.7-45.15q4,.6,7,4.7a12.319,12.319,0,0,1,2.7,8.4,8.614,8.614,0,0,1-5.1,7.3,27.048,27.048,0,0,1-5.45,1.2q-1.95.3-2.1-1.05a63.714,63.714,0,0,0-1.35-7.55q-.6-2.4,1.3-3.2,2.9-1.4,4.5.4a1.751,1.751,0,0,1,.1,2.4q-1.4,2.2-1.4,2.3-.2,1.1.3,1.3a1.869,1.869,0,0,0,1.7,0,6.652,6.652,0,0,0,2.6-3.2,4.468,4.468,0,0,0-.1-3.6,5.514,5.514,0,0,0-5.2-3.1,8.019,8.019,0,0,0-5.9,2.4q-.9,1-1.45.9a1.6,1.6,0,0,1-.95-.65,3.747,3.747,0,0,1-.05-2.3,11.645,11.645,0,0,1,2.35-4.5q2-2.751,6.5-2.15m.5,60.1q.3-.9,1.7-.7,4.2.8,3.7,4.2-1,5.1-3.2,4.8A3.8,3.8,0,0,1,82.5,77.6a3.422,3.422,0,0,1-.35-2.75q.4-1.551.55-2.35a11.949,11.949,0,0,1,.55-1.65m-7.05-6.3q3.35,1,3.95,2.4a8.186,8.186,0,0,1,.15,4.3,28.056,28.056,0,0,1-.95,4.5q-.6,1.7-5.95.2-5.35-1.551-5.95-3.35-.649-1.85-3-8.75-.8-2.8,1.6-2.1,6.8,1.8,10.15,2.8M60.945,63.3q.851.65,2.65,7.55a109.022,109.022,0,0,1,2.35,11.2q.7,5.1-.7,6.7-1.5,1.5-6.7,1.5-11.3-.1-13.9-.2a77.321,77.321,0,0,1-13.8-1.8q-2.8-.6-3.6-1.5-.9-1-.7-3.8a41.883,41.883,0,0,1,4.1-12q5.2-10.5,5.7-11.4,3.8.8,11.3,2.5a38.584,38.584,0,0,0,9.55.9q2.9-.3,3.75.35m7.9,26.65A2.738,2.738,0,0,1,70.5,91.1q.85,1.05,3.6,3.85a31.562,31.562,0,0,1,3.25,3.85q.9,1.45-.95,1.45a16,16,0,0,0-6.95,1.05,16.161,16.161,0,0,0-3.85,2.05q-1.1.75-1.8-.7a16.638,16.638,0,0,0-8.05-7.7l-1.3-.7q-1.4-.95.4-.9a53.646,53.646,0,0,0,6.9-.3q3.7-.7,5-1.95t2.1-1.15M65.1,107.5a5.345,5.345,0,0,1,1.55-1.95,6.69,6.69,0,0,1,4-1.6,20.163,20.163,0,0,1,6.2-.2,6.2,6.2,0,0,1,2.3,1q1.2.8,1.3,1.5a3.465,3.465,0,0,1-.5,2.3,4.309,4.309,0,0,1-1.6,1.8,18.076,18.076,0,0,1-7.75,2.35q-3.649.1-4.65-2.2-1.05-2.3-.85-3m-41.65-17.95q3.45.5,3.7,1.5.2.7-1.45,1.5a63.679,63.679,0,0,0-5.55,3.3q-2,1.249-3.4,2.3-1.3,1.1-2.8-.4a12.812,12.812,0,0,0-4.85-2.8q-3.35-1.249,0-2.8a30.026,30.026,0,0,1,7.45-2.4,19.965,19.965,0,0,1,6.9-.2m-10.55,11.5q.45,1.8-1.75,3.4a4.057,4.057,0,0,1-4.1.8,4.921,4.921,0,0,1-3.1-2.7q-1.5-5.2-.6-6.4,1-1.2,2.7-.2.9.5,3.05,1.6,3.4,1.751,3.8,3.5m46-73a9.47,9.47,0,0,0-3.65,4.2q-1.5,2.8.6,5.9a5.871,5.871,0,0,0,5.3,2.9,5.6,5.6,0,0,0,4.7-2.4,5.93,5.93,0,0,0,.8-5.4q-1.6-4.3-2.45-4.95a6.2,6.2,0,0,0-2.05-1,4.572,4.572,0,0,0-3.25.75m-.95,4.7a3.418,3.418,0,0,1,2.25-2,2.231,2.231,0,0,1,2.35.4,7.2,7.2,0,0,1,1.55,3.3q.65,2.4-1.45,3.2a4.206,4.206,0,0,1-3.9-.6q-2.4-1.7-.8-4.3m3.9,1.65q-.1-1.05-.95-1.1-.9-.05-.85,1.2.1,1.2,1.05,1.05.8-.15.75-1.15m-18.4,16.5q3,1.849,4.65,1.25a11.756,11.756,0,0,0,3.05-1.65q1.4-1.05,1.2-1.65a1.14,1.14,0,0,0-.4-.8q-.2-.2-.8-.1a4.276,4.276,0,0,0-1.55.75q-.951.649-1.35.95a2.058,2.058,0,0,1-1.5.25q-1.05-.05-2.1-2.3-1.1-2.25-2.65-.4-1.5,1.9,1.45,3.7m5.65-9.6a3.9,3.9,0,0,0-1.05-.4,2.382,2.382,0,0,0-1.2.35,1.444,1.444,0,0,0-.85.95q-.1.5.7,1.05a2.509,2.509,0,0,0,2,.2q1.149-.349,1.1-1.05a1.269,1.269,0,0,0-.7-1.1m-14.15-11.35a4.913,4.913,0,0,0,1.1,3.8q1.3,1.2,4.6.4,9.6-2.2,5.85-8.15a4.909,4.909,0,0,0-1.75-1.7A9.444,9.444,0,0,0,42,23.5q-1.8-.35-4.3,1.5a6.355,6.355,0,0,0-2.75,4.95m2.9,1a1.843,1.843,0,0,1,.05-2.65,11.543,11.543,0,0,1,1.75-1.9,3.356,3.356,0,0,1,1.35-.65,2.232,2.232,0,0,1,1.1-.1,3.162,3.162,0,0,1,1.1.4,2.15,2.15,0,0,1,.95,1.3q1,2.7-1.9,3.9-3.3,1.1-4.4-.3m4.05-2.1q.25-1.2-.3-1.25a1.216,1.216,0,0,0-1.55,1.1q-.2.7.75,1.1.85.2,1.1-.95"/></svg>