<svg overflow="visible" width="100%" height="100%" viewBox="0 0 116.204 80.107" xmlns="http://www.w3.org/2000/svg"><path d="M109.9,48.756a79.5,79.5,0,0,0-8.8-.8q-3.85-.1-4.95.5-1.05.6-1,4t.05,10q-.1,3.3-.6,3.9-.6.6-3.7.5a11.821,11.821,0,0,0-7.7,2.7q-3.2,2.6-9,6.9a7.364,7.364,0,0,1-8,.5,9.933,9.933,0,0,1-2.2-1.5q-1.7-1.2-2.3-1.6-5-3.4-3.2-9.6a33.325,33.325,0,0,1,3-6.7q1.9-3,2.7-4.6a25.265,25.265,0,0,0,2.4-9.3q.551-6.4.55-8.9a7.4,7.4,0,0,0-1.75-4.6,15.4,15.4,0,0,0-7.6-5.3q-8.3-3.2-12.5-4.8-4.1-1.4-4.1-6.1a13.46,13.46,0,0,1,.4-3.4,4.529,4.529,0,0,1,2.6-2.6,3.617,3.617,0,0,0,2.1-2.1,5.115,5.115,0,0,0,.25-3.05,2.833,2.833,0,0,0-1.3-1.95,13.561,13.561,0,0,0-3.7-.8,3.384,3.384,0,0,0-3.95,2.05q-1.1,2.4-.3,3.45a6.072,6.072,0,0,1,1.05,2.9,18.615,18.615,0,0,1-.05,4.5q-.1,4.1,1.3,6.1t5.3,3.6l11,4.5q5.6,2.3,7,4.4,1.3,2,1.2,8.1a37.915,37.915,0,0,1-.7,7.1,23.1,23.1,0,0,1-2,5.7q-.7,1.249-1,0-1.6-9.4-8.1-14.8-6.9-5.8-16.8-4.7-8.5.7-12.8,1.1a3.736,3.736,0,0,1-4-2.1q-3.4-5.6-5.3-8.4a9.286,9.286,0,0,0-2.9-3.2,5.008,5.008,0,0,1-2.1-1.5q-.7-1,.2-2.8a2.3,2.3,0,0,0-.4-3.1,2.689,2.689,0,0,0-3.2-.5,10.037,10.037,0,0,0-4.5,4.2,3.461,3.461,0,0,0,.2,3.9,3.5,3.5,0,0,0,3.7,1.4q4.3-.8,7,3.4l4.8,8.1a6.225,6.225,0,0,0,6.9,3.4q4.7-.7,14.3-1.3a18.155,18.155,0,0,1,12.7,3.8q5.4,4.3,7.3,12.3a14.807,14.807,0,0,1-1.1,10q-2.1,5.3-.6,9.2a13.793,13.793,0,0,0,9.3,8.6,13.414,13.414,0,0,0,12.4-2.2,104.439,104.439,0,0,1,9.3-6.7q2.4-1.5,3.8-.7,1.3.8,1.4,3.6v2q.2,3.6,2.7,4.3,3.9,1.2,5.1-1.7.5-1.2,1.4-1.3.1,0,1.7.1a47.041,47.041,0,0,0,8.8,0q2.8-.3,3.6-1.3.7-.9.8-3.9l.2-15.9q0-3.7-1.2-5.1-1.3-1.5-5.1-1.9m-10.2,2.5q3.351.1,9,.1,5.1.3,4.9,3.7,0,5.4-.4,16.4a2.751,2.751,0,0,1-2.4,2.6,15.278,15.278,0,0,1-8.3-.1q-3.3-.8-3.8-1.4-.6-.7-.6-8.15,0-7.1.1-11.55-.1-1.7,1.5-1.6m10.15,17.3q-1.1,0-1.35.3t.05.95a1.5,1.5,0,0,0,.9.85q.551.15,1.05-.95.45-1.151-.65-1.15m-1.4-3.25q-.4.949.7,1a2.317,2.317,0,0,0,1.4-.2q.3-.3-.15-1.15t-1-.75q-.55.1-.95,1.1m1.6-9.05q-1.249-.85-5.3-.65-4.1.2-4.25,1.9a7.9,7.9,0,0,0,.05,2.7q.2,1,2.6,1.2a22.078,22.078,0,0,0,5.2,0,5.308,5.308,0,0,0,2.5-.9,2.452,2.452,0,0,0,.55-2,3.058,3.058,0,0,0-1.35-2.25"/></svg>