<svg overflow="visible" width="100%" height="100%" viewBox="0 0 78.085 115.525" xmlns="http://www.w3.org/2000/svg"><path d="M8.185,20.473q-10.8,1.1-7.35,9.9,3.45,8.751,8.35,12.8,4.851,4-.55,6.85-5.449,2.85-5.95,5.85-.9,9.4,8.1,17.2,5,4.1,14.2,2.5a12.256,12.256,0,0,0,5-2.3,13.011,13.011,0,0,0,3-3.8q1.551-2.9,1.6-1a292.3,292.3,0,0,1,.25,30.35q-.649,16.551,1.2,16.7,1.1.051,1.55-1.85a37.83,37.83,0,0,0,.9-7.35q.9,1,3.5,3.35,2.6,2.4,8.2,1.9,5.6-.6,7.8-3.3a134.2,134.2,0,0,0,8.7-12.7q1.1-1.6.5-2.5-.6-1-2.5-.7a29.862,29.862,0,0,1-16.4-2.3q-5.6-2.4-9.9,1.5-.75-10.5-.7-23.15-.1-1.85,1.15-.1l3.55,5.05q3.8,5.3,8.5,7,4.6,1.6,10.8-.3,2.6-.7,5.4-4.1t2.6-5.7a36.169,36.169,0,0,0-2-11.3,17.032,17.032,0,0,0-7.15-8.6q-1.7-1-.3-1.4a34.491,34.491,0,0,0,4.05-1.3q5.3-1.4,10.7-7.7a13.4,13.4,0,0,0,3.1-8.9,15.975,15.975,0,0,0-3.2-9.6q-3.6-6.2-9.45-4.1a55.835,55.835,0,0,0-10.4,4.85q-4.549,2.751-2.85.75,1.6-2,2-2.4,4.6-4.7,3.4-12.1-1.2-7.8-8.3-8.2-16.2-1.9-19.9,9.4a20.925,20.925,0,0,0-.6,9.3q.351,2.55,1.3,7.1.4,1.4-.9.5-1.4-.9-3.9-2.3a30.127,30.127,0,0,0-17.1-3.8m-4.35,9.65q-2.25-5.949,3.35-6.55,9.2-.9,13.3,1.25t7,3.7q2.9,1.5,3.9,1.2t1.15-2.35a32.435,32.435,0,0,0-.35-6q-.5-5.2-.6-6.4a11.488,11.488,0,0,1,3.5-9.2,11.13,11.13,0,0,1,9.2-3q5.9.5,7.9,1.6,3.4,1.7,2.8,6.6-.6,4.5-4.5,9.9a20.9,20.9,0,0,0-2.65,4.85q-.549,1.751,1.9,1.45a11.254,11.254,0,0,0,3.8-1.1q1.35-.75,4.85-2.85a27.6,27.6,0,0,1,8.2-3.25q2.9-1.1,5.6,2.2a12.1,12.1,0,0,1,1.7,13.5,17.272,17.272,0,0,1-10.7,9.4q-7.1,2.7-10.55,1.75a13.849,13.849,0,0,0-4.05-.85,1.628,1.628,0,0,0-1,.9q-.549,1.151,1.75,2.15,2.25.951,8.15,3.15,8.2,3.9,8.6,11.7l.6,3.9a8.452,8.452,0,0,1-1,5.2,7.289,7.289,0,0,1-3.5,3.8,12.97,12.97,0,0,1-8.8,1.1,13.113,13.113,0,0,1-7.6-4.7q-.1-.1-.6-.8-3.9-5.1-5.6-7.8-2.9-4.6-2.8-7.55.051-3-1.4-2.85-1.4.15-1.1,2.2a7.45,7.45,0,0,1-.4,4.1q-.5,1.4-1.6,4.2a10,10,0,0,1-7,7.8,15.555,15.555,0,0,1-10.1-.4,12.471,12.471,0,0,1-6.4-5,18.632,18.632,0,0,1-2.6-7.4q-.7-4.55,2.2-6.55a22.6,22.6,0,0,1,4.85-2.7,3.826,3.826,0,0,0,2.35-1.75q.4-1-1.5-3.8a41.68,41.68,0,0,0-5-5.8,24.225,24.225,0,0,1-5.25-8.95m58.3,65.35q1.8-.249.6,1.35-1.149,1.4-2.45,3.15a38.112,38.112,0,0,0-2.5,4.1q-2.1,3.9-7.2,4.4a20.2,20.2,0,0,1-3.7.2,7.154,7.154,0,0,1-4.1-2.2,29.477,29.477,0,0,0-3.1-2.75,2.974,2.974,0,0,1-1.1-2.5q-.1-1.8-.1-3.85a6,6,0,0,1,2.4-4.2,4.467,4.467,0,0,1,4.4-.9,73.648,73.648,0,0,0,8.6,2.7,28.841,28.841,0,0,0,8.25.5m-18.95,4.4q-2.1.3-1.9,1.95a1.323,1.323,0,0,0,1.6,1.1l5.7-1q1.45-.4,1.2-1.3a2.151,2.151,0,0,0-2.55-1.35q-1.95.251-4.05.6m.5-64.35a5.865,5.865,0,0,0-4.85-2.45,17.667,17.667,0,0,0-5.25.3,3.767,3.767,0,0,0-2.75,2.4,10.832,10.832,0,0,0-.95,3.05,6.286,6.286,0,0,0,.55,2.9q.651,1.851,3.45,3.25a13.644,13.644,0,0,0,7,1.05q4.251-.3,4.3-4.25a10.784,10.784,0,0,0-1.5-6.25m-8,.05a7.009,7.009,0,0,1,4.8.6,5.069,5.069,0,0,1,2.6,4q.7,3.5-4.75,3.4-5.5-.1-5.55-3.8t2.9-4.2"/></svg>