<svg overflow="visible" width="100%" height="100%" viewBox="0 0 115.22 76.329" xmlns="http://www.w3.org/2000/svg"><path d="M29.945,64.029q.1-.1-.05-.4a1.344,1.344,0,0,0-.75-.55.7.7,0,0,0-.9.35q-2.3,3.3-4.1,6.5-.651,1.3.15,1.85.75.5,1.25-.4l4.4-7.35m-4.55-7.2c-.367.067-.583.167-.65.3l-7,8.2a7.877,7.877,0,0,0-1.3,2.15q-.45,1,.45,1.35.9.3,2.65-1.75,1.7-2.05,7.3-8.85a1.7,1.7,0,0,0,.25-.55q.1-.45-.55-.7a2.073,2.073,0,0,0-1.15-.15m89.75-50.7q-.2-3.8-1-4.6-.9-.9-4.4-.8-11.6.3-17.3.7a70.794,70.794,0,0,0-17.1,2.8q-3.4.9-2.8,4.4.9,4.7,2.7,18.6.3,3.3-3.3,3.3-14.4-.1-28.8,0a3.006,3.006,0,0,1-3.3-2.7q-.6-4.2-2.3-11.45a53.362,53.362,0,0,0-1.5-5.65q2.6-1,5.5-2.2,2.7-1.6,1.9-3.5-.7-1.9-3.6-2.2-13.7-2.4-17.1-2.7-6.4-.7-10.4,2.4-2,1.6-2.2,2.8a5.633,5.633,0,0,0,1.1,3.4l5.6,8.2q3.3,4.8,2.8,12.3a39.643,39.643,0,0,0,1.3,13.5,11.093,11.093,0,0,1,.2,8,16.021,16.021,0,0,1-5.3,6.3,94.153,94.153,0,0,0-7.3,6.2q-2.4,2.2-7.1,6.7-1.7,1.6-1.4,2.7.2.9,2.5,1.7a37.415,37.415,0,0,0,12.3,2q.9,0,8.75-.1t8-.7q.15-.6-1.1-1.55-1.3-.949-6.3-.6-5.05.349-8.95.45A25.746,25.746,0,0,1,5,72.129q-1.4-.6-.25-1.65,11.45-10.249,17.4-15.45,3-2.9,2.7-5.5-1.1-6.7-1.5-10.1a65.628,65.628,0,0,1-.7-10.3q.5-10-6.7-18.6-3-3.6-2.25-5.1.7-1.5,4.2-2.25,3.45-.75,11.65.75t9.55,1.6q1.7.15.05.8-2.9,1.151-4.55,1.9-1.65.65-1.4,1.8,1.05,3.851,1.65,6.6l2.5,12.1q.8,3.5,1.7,4.1.8.7,4.3.7h27.8q3.9,0,5.2-1.3t1.4-5.5a60.9,60.9,0,0,0-1.8-14.7q-.8-3.4-.2-4.4.5-.9,3.9-1.7a84.208,84.208,0,0,1,15.2-1.9q5.1-.2,15.4-.2a1.519,1.519,0,0,1,1.7.8,5.951,5.951,0,0,1,.2,1.9q.5,7.2-2.3,20.8-2.9,13.9-2.6,20.7.1,3.2,0,9.5,0,2.5-2.3,2.5a16.954,16.954,0,0,1-4.65,0q-1.2-.3-6.15-5.5-5.05-5.3-14.85.8a127.548,127.548,0,0,0-15-.4q-4.751.25-6.65-1.6a9.643,9.643,0,0,0-4.15-2.55q-2.3-.7-3.5-1.1a33.189,33.189,0,0,0-3.35-.7,20.773,20.773,0,0,0-6.6.35q-4.5.7-7.45,5.8a9.974,9.974,0,0,0-.05,10.4q3.4,6.5,12.2,8.4,6.4,1.6,9.9-1.6,4.3-3.8,10.7-2.8,7.4,1.2,8.5,1.3a20.814,20.814,0,0,1,8.7,3.5,8.8,8.8,0,0,0,7.7,1.5,9.97,9.97,0,0,0,6-5.2q.1-.2,1.3-3.8a6.409,6.409,0,0,1,1.9-3.2,6.508,6.508,0,0,1,3.5-.9q1.4-.1,4.1-.3a3.283,3.283,0,0,0,3.1-2.9v-4.8q-.2-15.4,2.1-25.6,1.7-7.4,2.3-11.3a60.086,60.086,0,0,0,.6-11.7m-32.4,49.95q2.05-1.3,6.35-.9,4.3.349,5.65,3.75t-1.6,3.15q-3-.251-8.2-.65-5.2-.45-5.1-1.5a6.773,6.773,0,0,1,2.9-3.85m-5.9,2.25q-.4,1.2-3.95,1.2-3.6-.05-7.6-.3t-3.65-1.35q.349-1.15,8-.95,7.6.2,7.2,1.4m-36.2-.05q-.3.55.3,1.3a3.084,3.084,0,0,0,2.2.85l13.3.9q2.8.1,2.1,2.8a2.812,2.812,0,0,1-3.45,2.25q-5.95-.65-8.8-1.05-2.651-.2-3.85-.3-2.1-.3-2.2,1.4-.1,1.6,2,1.7,1.3.1,3.95.3,1.751.1,7.75.7a13.491,13.491,0,0,1-12,.8q-6.5-2.3-7.8-7.6a8.284,8.284,0,0,1,1.3-6.85q2.149-3.349,4.2-3.85a12.7,12.7,0,0,1,4-.35,36.929,36.929,0,0,1,3.85.5,21.794,21.794,0,0,1,4.2,1.4,20.767,20.767,0,0,1,3.6,1.7q1.05.649,2.1,3.9-13.85-1.4-15.15-1.2-1.35.15-1.6.7M65,67.329q-2.75-.3-3.25-.4-.8-.3-.8-1.5.2-3.3,2.4-3.7a39.558,39.558,0,0,1,4.9.25l4.4.25q2.7.1,2.8,2.4.2,2.3-.4,2.9-.5.6-2.8.4l-7.25-.6m23.35,1.6q-.2-.9-2.45-.85t-4.95,0q-2.7-.049-2.85-2.05a4.258,4.258,0,0,1,.25-2.5q.4-.5,2.25-.2,1.85.251,8.4.7,6.5.45,5.75,3.5a7.975,7.975,0,0,1-3.3,4.7q-3,2-10.45-2.1,6.75.251,6.9.05a4.726,4.726,0,0,0,.4-.6.892.892,0,0,0,.05-.65"/></svg>