<svg overflow="visible" width="100%" height="100%" viewBox="0 0 88.033 105.885" xmlns="http://www.w3.org/2000/svg"><path d="M15.619.109a3.242,3.242,0,0,0-4,2.1q-2.1,3.9,1.7,7.1a11.579,11.579,0,0,0,7.6,2.9,4.621,4.621,0,0,1,4.2,2,31.437,31.437,0,0,1,2.2,4.3q.2.3-.25.7a3.9,3.9,0,0,1-1.8.5q-1.352.1-2.851-1.85a8.063,8.063,0,0,1-1.7-2.95,1.77,1.77,0,0,0-.849-1.35q-.7-.4-.951-.25-.249,0-.8.6a2.679,2.679,0,0,0-.35,2.15q.148,1.3,2.75,4.35-1,.15-4.351,1-3.4.8-9.4,5.6t-6.65,6q-.55.9,1.45.9a2.63,2.63,0,0,1,2.5,1.7,29.141,29.141,0,0,1,2.05,10.3l1.8,38.7a27.8,27.8,0,0,1-.4,5.9q-1.3,4.5,2.2,7.1,3.8,2.8,5.8,4a19.021,19.021,0,0,0,6.3,2.5,110.088,110.088,0,0,0,13.4,1.7,42.175,42.175,0,0,0,13.6-1.3q1-.3,10.2-1.9a26.762,26.762,0,0,0,3.149-.55q1.45-.35,2.4-.55.9-.251,1.349-.35a28.307,28.307,0,0,0,3.1-1.35,12.656,12.656,0,0,1,4.5-1.45,2.612,2.612,0,0,0,2.449-1.75,20.361,20.361,0,0,0,.7-2.35q.1-.8.351-1.95.2-1.2,2.449-1.5,2.2-.3,4.551-.4v1q0,.4-.15,3.75-.2,3.349.6,3.6a4.324,4.324,0,0,0,1.851,0q1-.2.9-6.65,0-.85.1-1.9a128.037,128.037,0,0,0,.2-14.3,13.494,13.494,0,0,1,.2-3.8,5.263,5.263,0,0,0,.2-.95,60.838,60.838,0,0,0,.05-6.55q-.05-1.5-.149-2.95-.551-8.1-.651-9.1-1.149-9.6-1.95-14.85t-.949-5.8q-.15-.6-.8-5.7-.7-5.1-9.4-6.4a102.193,102.193,0,0,0-13.55-1.45q-9.351.049-17.4-.3,1.95-4.65,3.75-8.1a9.75,9.75,0,0,1,3.7-4.15q2.049-1.2,2.25-2.3.2-1.15-1.4-1.35a3.79,3.79,0,0,0-3.1,1.2,12.112,12.112,0,0,0-2.5,2.95q-.951,1.549-3,5.6-2.051,4-4,5.3a13.373,13.373,0,0,1-5.3,1.8q-3,.3-3.9-1.9a17.6,17.6,0,0,0-1.4-2.6q-1.9-2.8.4-4.7a3.045,3.045,0,0,0,1.1-2,2.655,2.655,0,0,0-1-2q-4.2-4.2-13.1-5.7m-.8,6.4q-1.751-3.15.9-3.4a11.3,11.3,0,0,1,4.9.55,15.081,15.081,0,0,1,4.1,2.15q2,1.3.75,3t-5.1,1.3a6.8,6.8,0,0,1-5.55-3.6m56.9,21.9q-4.2-1.9-4.5-2-9.2-3.4-13.849-2.7-4.7.7-9.7,1.5-5.049.75-7,.85a2.6,2.6,0,0,1-2.75-1.5q-.8-1.65-.3-2.15a2.542,2.542,0,0,1,2.1-.7,2.6,2.6,0,0,0,2.75.95,3.014,3.014,0,0,0,2.351-1.25q.5-1,3.9-.8,9.5.6,21.95,1.2,12.4.6,13.451,4.65,1,4,1.3,5.45t.75,2.9a39.8,39.8,0,0,1,1,5.25,24.219,24.219,0,0,1,.4,5.05q-.2,1.249-2.95,2a30.6,30.6,0,0,1-3.9.8l-.9-6.8q-.6-6.3-.851-7.55.9-.85,2.151-1.95a1.39,1.39,0,0,0,.4-1.4.891.891,0,0,0-1.1-.7,10.194,10.194,0,0,1-4.7-1.1m-10-.7q4.5,1.2,9.2,2.7,4.7,1.451-6.649,3.15-11.4,1.65-15.2,1.25-13.151-1.2-19.95,3.2-1.45,1-2.1,1.55-.7.551-2.9-.15-3.6-1.1-5.35-1.85a5.232,5.232,0,0,1-2.65-2.25,1.536,1.536,0,0,1,.3-1.45q.5-.75,3.3-1.9a19.411,19.411,0,0,1,4.8-1.4q1.95-.35,4.05-.65,2.049-.349,4.9-.85,2.8-.5,3.851-.6,1-.15,3.9-.4,2.85-.3,9-1.05a28.666,28.666,0,0,1,11.5.7m10.4,8.3q.3-.251.849-.7,0,1.7.1,6.2.05,3,.649,10.9.5,6.6.851,11.6.3,4.95.4,8.5.051,3.551,0,4.3t-.1,2.1q-.1,1.35-.35,5.95-.3,4.55-.9,8.15a3.315,3.315,0,0,1-1.8,2.6q-.7.4-6.1,2.4-.2-33.4-.3-50.4,0-2.1-.2-5.9a7.9,7.9,0,0,0-.3-1.9l1.3-.5a21.134,21.134,0,0,0,5.9-3.3m-10.25.35a16.48,16.48,0,0,1,3.2-1.3,4,4,0,0,1,2.05.15,40.591,40.591,0,0,1-16.9,5.6,83.524,83.524,0,0,1-18.2-.7,15.282,15.282,0,0,1,7.1-2.4,49.907,49.907,0,0,1,7.3.2,45.775,45.775,0,0,0,8.6,0,22.95,22.95,0,0,0,6.85-1.55m.45,4.35a4.866,4.866,0,0,0,0,1v6.3l.4,45.3v3a3.136,3.136,0,0,1-.9,2.6q-.7.1-7.3,1.2a62.7,62.7,0,0,1,.2-10.45q.55-6.1-.9-19.65-2.4-15.2-3-22.9a2.867,2.867,0,0,1,2.3-3.5q3.349-.9,9.2-2.9m17.3,10,4.7-1.8q0,1.9.3,5.2a5.306,5.306,0,0,1-1.7,4.2,7.5,7.5,0,0,1-3.8,1.5q-2.2.4-2.2-.4a29.581,29.581,0,0,1,0-6.9q.2-.8,2.7-1.8m-52.1-23.1q-.75.1-3.7.85t-8.2,2.1a16.28,16.28,0,0,0-3.05.9q-1.151.45-1.75.65a8.438,8.438,0,0,0-2,1.3,1.025,1.025,0,0,0-.05,1.25q.4.649,3.85,2.6,3.249,1.9,6.8,3.55-.049,1.25.2,4.8,1.2,20,1.3,28.2t.5,16.3q.351,8.15.4,9.4a14.327,14.327,0,0,0,.2,2,30.1,30.1,0,0,1-2.9-1.2q-1.5-.8-6.7-4.1-2.4-1.5-2.2-5.2.2-5.7-.1-10.3l-1-23.7q-.1-7.9-.4-11.9a33.421,33.421,0,0,0-2.6-11.4q-.1-.4-.8-.6a1.162,1.162,0,0,1-.851-.6q-.2-.4,1.351-1.9t8.05-5.1q6.5-3.649,9.2-2.5a7.272,7.272,0,0,0,4.5.55,2.828,2.828,0,0,1,3.05.75q1.3,1.3.9,2a2.6,2.6,0,0,1-1.851.9q-1.449.251-2.149.4m-4.5,26.5q-.1-3-.9-8.8-.4-2.7-.55-3.65a27.96,27.96,0,0,0,9.149,1.85q3.6-.2,4,1.7.2,1.3.5,5.15a426.708,426.708,0,0,1,.9,50.25,2.557,2.557,0,0,1-.8,2,3.226,3.226,0,0,1-2.1.2,49.066,49.066,0,0,0-6.4-.6,19.973,19.973,0,0,1-2-.1q0-1.1-.2-4-.4-8-.8-22-.5-15.2-.8-22m15.3-9.8q.6-.6,4.2-.5h5.6a164.261,164.261,0,0,0,1.8,17.2q1.7,11.7,2,17.1a98.391,98.391,0,0,1-.2,10.6q-.3,3.6-.9,10.6a2.666,2.666,0,0,1-.651,1.25q-.6.65-4.549,1.2-4,.551-5.151.7-1.2.1-1-13.1.2-13.249-1.75-40.65-.1-3.7.6-4.4m46.1,17v6.3q-.2,1.5-.8,1.7a61.6,61.6,0,0,1-6.05,1.9q-.951-6-.151-7.2.7-1,7-2.7m-6.8,17.8q0-2.8.849-3.8t5.851-2.6v12.2q-.151,1.5-3.45,2.2-3.3.65-3.35-.55t.05-2.95q.05-1.751.05-4.5"/></svg>