<svg overflow="visible" width="100%" height="100%" viewBox="0 0 97.729 115.101" xmlns="http://www.w3.org/2000/svg"><path d="M24.325,14.971q5.9,5.2,8.3,16.4,3.4,15.6,4.8,19,1.4,1.149,1.35-.8,0-1.95.65-1.8a1.725,1.725,0,0,1,.7.2q2.5,1.9,7.7,5.4a28.868,28.868,0,0,1,6.8,6.4q5.8,7.9,17.9,23.2,2.1,3.3,7.2,3.8,2.9.3,8.7.6,1.8.6-1.2,1.55t-3.9,1.35q-1.5.8-1.7,1.5a2.048,2.048,0,0,0,.9,2.5q.8.5,1.6.95.75.4,2.95,1.65,2.2,1.2,4.05,2.25a13.126,13.126,0,0,1,3.35,2.6q1.451,1.5.95,1.8-.55.3-1.85-.7a19.424,19.424,0,0,0-4.8-2.4q-3.5-1.35-3.5.2-.1,1.55,2,4.85,2,3.2.65,2.5a12.415,12.415,0,0,1-3-2.15,5.086,5.086,0,0,0-2.5-1.55q-1.65,1.1-1.6,4.85t-1,1.8a29.5,29.5,0,0,0-2.25-3.65q-1.65-2.2-1.8,2.3-.2,4.5-2.45-1.2-2.3-5.7-2.8-6.8a10.493,10.493,0,0,0-3.2-4.1,2.86,2.86,0,0,1-.8-1.5,3.644,3.644,0,0,1,0-1.7,3.908,3.908,0,0,0-.4-3.3,9.175,9.175,0,0,0-2.6-2.2,116.265,116.265,0,0,1-11.1-7.9q-7-5.7-10.6-8.6a45.5,45.5,0,0,1-15-21.6,14.5,14.5,0,0,0-3.4-5.9,95.58,95.58,0,0,1-10-12.3,108.41,108.41,0,0,0-9.7-12.5,9.384,9.384,0,0,0-1.3-1.4,1.273,1.273,0,0,0-1.8.1q-1,.9-.4,1.8a13.469,13.469,0,0,0,1.4,1.4,125.991,125.991,0,0,1,9.7,12.5,115.21,115.21,0,0,0,9.9,12.3,13.138,13.138,0,0,1,3.4,5.9q3.7,12.5,15.6,21.8l21.5,16.8a11.6,11.6,0,0,1,1.9,1.6,3.126,3.126,0,0,1,.1,2.6,3.01,3.01,0,0,0,.3,2.2,6.3,6.3,0,0,0,1.5,2.1,16.251,16.251,0,0,1,3.6,5.6q.8,2.1,2.75,6.05t3.75,3.35q1.8-.6,1.7-3-.1-2.451,1.55,1.05,1.65,3.45,2.8,1.9a7.269,7.269,0,0,0,1.25-2.45q.1-.9.1-4.6a9.2,9.2,0,0,1,1.5,1q1.05.75,3.4,2.25t2.9-1q.6-2.5-2.6-6.95a31.642,31.642,0,0,0,7.5,2.9,1.852,1.852,0,0,0,1.9-.75q.5-.851-1.4-4.15a14.723,14.723,0,0,0-6.6-5.6q-2.4-1.6-4.1-2.7,1.6-.7,3.9-1.7a10.963,10.963,0,0,0,2.1-1.3,2.253,2.253,0,0,0,.7-2.3q-.5-2.4-3.7-2.8-5.3-.4-7.9-.7-4.7-.5-6.6-3.5-10-12.4-14.5-18.9-6.7-9.6-20.3-17a3.694,3.694,0,0,1-1.4-2.1q-1.9-10.1-2.9-13.3a38.29,38.29,0,0,0-5.6-12.3,117.659,117.659,0,0,0-11.7-12.7,12.366,12.366,0,0,0-10.4-3.9,2.775,2.775,0,0,0-1,.6l-1.1.9q.1.1,1,.8a1.949,1.949,0,0,0,1,.4q5.1,0,9.7,4.2,2.6,2.5,7.5,8"/></svg>