<svg overflow="visible" width="100%" height="100%" viewBox="0 0 78.417 113.979" xmlns="http://www.w3.org/2000/svg"><path d="M78.11,7.85Q79.411,1.8,75.21.9A68.266,68.266,0,0,0,62.16,0q-8.9,0-19.4.4-15.9.7-29.15,1.25Q.309,2.2.16,3.4A43.9,43.9,0,0,0,.01,9.15q.049,4.65.25,29.3.15,24.6,1.4,39.8Q2.86,93.4,4.06,99t1.55,8q.349,2.35.8,2.45.4.1,5.65.3,5.25.15,9.15.4,12.15.649,16.45.95,22,1.6,32.6,2.7,4.9.5,6.1-.4,1.2-1,1.2-5.8l-.3-65.1q-.4-12-.4-18A76.857,76.857,0,0,1,78.11,7.85M71.06,3.4q3,.2,3.8,1.3.7,1.1.3,4.3-.9,8.1-.9,10.8l-.1,39q.2,9.2.6,25.5.4,14.2,0,24.4,0,2.8-2.8,2.2-6.7-.55-10.45-.85L11.56,106.5q-3.15-.1-3.6-3.6-.3-2.7-2.2-14.7a128.978,128.978,0,0,1-1.6-14.8q-.2-7.5-.8-36.85Q2.711,7.2,2.91,6.25q.15-1,8.15-1.15,8-.2,28.8-1.6a256.7,256.7,0,0,1,31.2-.1M59.56,72q0-3.2-.8-4.2-.7-.9-3.8-1.4l-28-3.7q-3.9-.6-4.2,3.4.15,7.549.1,11.95t-.25,8.9q-.15,3.35.85,4.55,1,1.1,4.5,1.2,2.3.1,13.4.1l12.9.4q3.2-.1,4.3-1.1,1-1,1-4.2.2-7.9,0-15.9m-5.6-2.8a2.689,2.689,0,0,1,2.6,2.9q-.1,8,0,15.9,0,2.8-2.8,2.6l-24.7-.8a3.918,3.918,0,0,1-2.5-.6,3.211,3.211,0,0,1-.8-2.5q.1-3,.1-17.9a2.84,2.84,0,0,1,.5-2.2q.6-.7,3.2-.45,6.2.55,10.5,1.2,3.4.45,13.9,1.85M39.36,81.7q-.6.251-1.25,1.7a3.03,3.03,0,0,0,3.15,4.2,4.533,4.533,0,0,0,3.1-1.2,2.18,2.18,0,0,0,.85-2.05,3.887,3.887,0,0,0-1.4-1.9,3.848,3.848,0,0,0-2.5-.95,5,5,0,0,0-1.95.2M34.96,78a2.243,2.243,0,0,0,.8-.4,13.625,13.625,0,0,0,.75-3.3q.5-3-1.85-2.65-2.4.3-2.1,2.8t1.1,3.1a1.756,1.756,0,0,0,1.3.45m12.7-6.5a1.547,1.547,0,0,0-1.75-.5,1.638,1.638,0,0,0-1.5,1.25,8.431,8.431,0,0,0,.25,3.1q.4,2.1,1.55,1.8a2.2,2.2,0,0,0,1.55-1.7,8.732,8.732,0,0,0,.4-2.3,2.768,2.768,0,0,0-.5-1.65m8.8-39.8q.6-4.8-.9-6.8t-6.3-2.5q-3.4-.3-8.9-.6-6.9-.3-8.65-.35-1.8-.1-3.35-.2a7.229,7.229,0,0,0-2.5.1q-.95.2-1.1,1.5V32.6q-.551,10.849-.65,12.55-.1,1.65,2.9,1.8,2.95.2,8.85.9,5.9.649,15.1,1.45a3.714,3.714,0,0,0,2.8-.5,5.3,5.3,0,0,0,1-2.9q1-9.5,1.7-14.2m-5.9-6.1q3.3.3,3,3.7-.3,3-.9,8.9-.3,6.9-1.2,7.5-.8.7-8.5-.1-8.2-.9-14.45-1.35-1.7-.15-1.65-1.65l.7-15.8q.2-2.6,2.3-2.5,13.8.8,20.7,1.3M35.86,39.8q-.1,2.5,3.6,2.5a3.739,3.739,0,0,0,2.6-.9,2.821,2.821,0,0,0,.8-2.5q-.1-2.5-3.1-1.9a13.07,13.07,0,0,0-2.5.7,2.243,2.243,0,0,0-1.4,2.1M48.11,28.35q-.7-.851-1.95,0t-.9,3.55q.35,2.7,1.6,3.05t1.7-1.45a12.2,12.2,0,0,0,.35-3.05,3.5,3.5,0,0,0-.8-2.1m-14.65.05a2.075,2.075,0,0,0-.6,1.3,12.434,12.434,0,0,0,1.2,4.25,1.167,1.167,0,0,0,1.2.75,1.6,1.6,0,0,0,1.4-1.1,8.812,8.812,0,0,0,.45-3.9q-.15-2.55-1.6-2.3a3.226,3.226,0,0,0-2.05,1"/></svg>