<svg overflow="visible" width="100%" height="100%" viewBox="0 0 116.224 77.304" xmlns="http://www.w3.org/2000/svg"><path d="M113.424,28.478q-.6-5.9-1.1-6.9-1.4-2.8-5.9-.5-.95.549,2.3,2.95a6.777,6.777,0,0,1,1.45,1.5,3.829,3.829,0,0,1,.85,2.65q-.2,4.65-.7,8.3-.1,1.3-1.45,1.15a11.155,11.155,0,0,1-4.05-1.35q-.8-.8-1.6-4.8a30.141,30.141,0,0,0-1.3-5.1,5.794,5.794,0,0,0-4.2-3.3,1.7,1.7,0,0,1-.7-.7,3.573,3.573,0,0,0-.8-1,3.841,3.841,0,0,0-2.5-.9,1.931,1.931,0,0,0-.9.7,1.739,1.739,0,0,0-.5,1,4.135,4.135,0,0,0,1.2,2.4,3.535,3.535,0,0,0,2.3.9,4.739,4.739,0,0,1,4.1,3.6,18.236,18.236,0,0,1,.7,4.4q.251,1.55-1.35,1.6-5.5.25-8.95,7.5-3.4,7.1-6.35,9.5-1.95,1.249-.85-.45a11.316,11.316,0,0,1,1.4-1.65q7.2-7.6,2.2-22.4a30.836,30.836,0,0,0-16.9-19.5,88.739,88.739,0,0,0-29.6-7.9,46.972,46.972,0,0,0-18.5,2q-8.65,2.8-12.7,8.6a53.79,53.79,0,0,0-5.9,10.4q-5.7,10.1-1,19.4,5.85,11.049,10.05,15.5,4.151,4.4.65,4.15a15.347,15.347,0,0,0-7.95,1.85q-4.4,2.1.65,7.2,5,5.1,10.7,5.7,15.7,1.6,22.7,2a171.781,171.781,0,0,0,22.8-.1q8.9-.8,12.3-1.3a50.416,50.416,0,0,0,11.9-3.3q15.6-5.4,23-9.2a12.837,12.837,0,0,0,6.4-6.6,11.943,11.943,0,0,0,0-9.1,28.7,28.7,0,0,1-1.9-9.3q.1-6.4,0-9.6m-7.1,11.7a8.2,8.2,0,0,1,5.4,4.3,21.921,21.921,0,0,1,1.7,6.5q.7,5.6-5.2,9.3-.1.1-10.8,5-9.3,3.3-21.1,7.2a67.907,67.907,0,0,1-14.5,1.6q-13.6.2-14.6.3-5.4,0-15.1-1-10.5-1-15-1.3a12.42,12.42,0,0,1-4.6-1.2q-.7-.3-4-2.3-2.2-1.3-1.2-3.1a3.614,3.614,0,0,1,3.1-1.9q14.1.2,31.6-.9,10.6-.6,31.4-2.4,13.6-1,20.3-18.6a5.835,5.835,0,0,1,5.6-3.5,26.336,26.336,0,0,1,7,2m-20.6-5.5a16.066,16.066,0,0,1,.1,5.9,21.1,21.1,0,0,1-3.9,8.3,24.424,24.424,0,0,1-2.1,2.3,2.536,2.536,0,0,0-.6,2.4,1.781,1.781,0,0,1-.05,1.7q-.45.649-3.05,1.45t-19,2.15q-16.4,1.3-25.4,1.6-9.8.4-15.8-5-3.6-3.2-10.1-13.8a16.112,16.112,0,0,1-2.3-13.4,45.052,45.052,0,0,1,5.65-12.5q7.75-12.6,26.25-13a58.44,58.44,0,0,1,9.4.8,62.708,62.708,0,0,1,9.1,1.9q8.5,2.4,10.5,3.1a32.887,32.887,0,0,1,9.5,5.2q8.3,6.7,10.4,15.2.5,1.9,1.4,5.7m-48.7-23.6a52.053,52.053,0,0,0-9.1,2.2q-10.9,3.6-13.5,13.9-2.5,10.4,5.1,19.8a19.308,19.308,0,0,0,8.3,6.05,32.253,32.253,0,0,0,11.6,1.7,37.569,37.569,0,0,0,17.8-4.85,42.893,42.893,0,0,0,13.9-12.2,4.433,4.433,0,0,0,.6-1.4q.2-.8-.1-1.1-.8-1-1.6-.4-.1.1-1,1.3a38.462,38.462,0,0,1-22,14.8q-14.7,3.8-25.1-5.3a10.006,10.006,0,0,1-2.6-3.9q-1-2.9-1.6-4.3-2.5-6.2.8-12.9,3.3-6.6,9.5-8.2,12-4.8,20.1-.6,6.4,2.5,7.2,9.6.9,7.3-5.5,10.4a12.5,12.5,0,0,1-6.5,1.5,29.672,29.672,0,0,1-6.4-.9q-3.5-.5-3-5.4t4.4-3.3a13.786,13.786,0,0,1,2.2,1.1q1.4.8,2.2.1.95-1.151-.35-2.65-1.35-1.55-4.95-1.75a4.961,4.961,0,0,0-5.4,3,9.146,9.146,0,0,0,0,7.7,7.6,7.6,0,0,0,5.9,4.6,21.417,21.417,0,0,0,2.5.35q1.55.15,4.15.2t6.55-2.25a29.461,29.461,0,0,0,5.65-4.05,2.722,2.722,0,0,0,.55-1.35,28.158,28.158,0,0,0,.4-8.6,12.375,12.375,0,0,0-3.9-7.6,19.044,19.044,0,0,0-16.8-5.3"/></svg>