<svg overflow="visible" width="100%" height="100%" viewBox="0 0 117.022 47.739" xmlns="http://www.w3.org/2000/svg"><path d="M94.022,2.3q-4.6,8.2-15.5,19.2a100.328,100.328,0,0,0-8.4,9.7q-2,2.7-3.4,3.1-1.5.3-4.3-1.4a8.838,8.838,0,0,1-1.9-1.5,49.056,49.056,0,0,0-10.4-8.7q-7.8-4.7-11.6-7.2-5-2.9-3.7-9.1.9-4.4-3.7-5a3.6,3.6,0,0,0-2.8.4q-.9.7-1.2,3.1a2.856,2.856,0,0,1-1,2.2,3.2,3.2,0,0,1-2.2.1q-7.5-1.5-11.2-2.3-5.1-.9-6.5,3-.6,1.9.25,2.7.8.8,4.25.95,3.45.1-2.7.6T.372,15.2q-1.5,2.5,3.05,2.85t2.25,1.2q-2.35.851-2.95,4-.7,3.15,3.55,2.3a43.457,43.457,0,0,1,5.6-.9q1.4-.1-1.15,2.8-2.6,2.85-1.3,5.2,1.25,2.3,7.4-1.65a70.021,70.021,0,0,1,8.75-5.05,11.437,11.437,0,0,1,4.65-1.15,10.013,10.013,0,0,1,4.5,1.7q4.8,3.1,13.8,9.8,8.2,5.7,12.25,7.1a19.167,19.167,0,0,1,6.35,3.4q2.3,1.95,3.9-.15a15.077,15.077,0,0,1,4.95-3.9q3.35-1.849,8-4.3a142.653,142.653,0,0,0,13.75-8.95l18.8-15.8a2.549,2.549,0,0,0,.3-1,10.077,10.077,0,0,0,.2-1.2,3.514,3.514,0,0,0-2,.1,21.511,21.511,0,0,0-3.2,2.5,162.723,162.723,0,0,1-19.9,15.1q-7,4.5-21.5,12.8-2.3,1.3-3.6.7-14.2-6.1-33-20-3.5-2.2-8.4.65-4.9,2.8-8.55,5-3.649,2.149-4.45,2.15-1.151,0-.05-1.5a10.678,10.678,0,0,1,2.2-2.45,2.793,2.793,0,0,0,1.1-2.25,4.062,4.062,0,0,0-1.25-2.75q-1.2-1.35-4.85.75-3.7,2.1-3.75.65t4.75-3.6q4.749-2.149-.55-2.35-5.35-.2-5.75-1.4-.45-1.249,5.5-1.7,5.9-.45,8.7-2.05,2.749-1.6-3.65-1.95-6.45-.4-5.75-1.95.65-1.55,2.9-1.2a56.006,56.006,0,0,1,7.25,1.8q5,1.45,5.1,1.45,3.4.5,4,.1.7-.5,1.05-3.65.251-2.051,1.75-2.15.7,0,.85.8a4.268,4.268,0,0,1-.05,1.7q-1.2,7.7,5.8,11.9,14,7.4,21.1,14.6a11.645,11.645,0,0,0,3,2q1.1.6,3.4,1.7,3.4,1.8,5.4-1.7a64.459,64.459,0,0,1,8.8-11.1q9-9.5,9.6-10.3a59.9,59.9,0,0,0,4.3-5.7l3.9-6a4.987,4.987,0,0,0-.1-2.2,3.859,3.859,0,0,0-3.1,2.3"/></svg>