<svg overflow="visible" width="100%" height="100%" viewBox="0 0 114.917 59.383" xmlns="http://www.w3.org/2000/svg"><path d="M37.785,27.22q-5.751,1.8-9,2.8-3.251.949-3.4,1l-22.1,7.6q-2.4.9-2.75,1.55t-.5,4.95a73.09,73.09,0,0,0,.35,9.5q.8,6.4,6.7,4.2,3.9-1.5,11.5-4.6a19.618,19.618,0,0,0,5.7-2.9,14.066,14.066,0,0,0,3.6-4.45q1.05-1.95,2.25.4,2.349,4.45,3.95,5.2,1.849.85,4.95-2.4,3.05-3.251,3.25-4.25a2.829,2.829,0,0,0-.9-2.6q-1.8-1.5,2.5-3.8,5.1-2.3,5.9-2.7a47.789,47.789,0,0,1,1,5.7,17.291,17.291,0,0,0,2.7,8.4q1.7,2.9,4.9,1.5,4-1.9,7-3.6,2.9-1.7,1.1-4.5-.8-1.2-3.7-5.95t-2.5-4.9q.35-.15,6.3-1.5a47.547,47.547,0,0,0,11-4.05q5.1-2.7,5.8-3.2a4.566,4.566,0,0,0,1.7-3q.2-1.2,2.4-2.1,5.55-2.5,9.4-3.9a42.24,42.24,0,0,1,6.95-1.95q3.05-.55,7.25-1.55,3.4-.5,3.8-3.2.3-3.6-2.2-5.1a7,7,0,0,1-1.6-2.2q-1-1.8-1.7-1.6a1.385,1.385,0,0,0-1,.8,3.179,3.179,0,0,0,0,1.8,2.532,2.532,0,0,1-.9,2.3,11.033,11.033,0,0,1-3.6,1.9q-.5.2-13.1,4.8a112.791,112.791,0,0,1-13.4,4.2q-8.4,1.9-20.3,5.7-13.6,3.9-19.3,5.7m-11.55,6.7q2.949-1,3.3-1.05l45.15-13.45q8.5-2.85,25.35-8.4,3.7-1.2,4.75-1.5l4.2-1.2a.749.749,0,0,1,1.05.6q.2.8-1.1,1.1-1.35.25-4.05.85-2.7.551-14.35,4.85-11.7,4.249-12.35,5.1a9.564,9.564,0,0,0-1.35,2.15,6.457,6.457,0,0,1-2.75,2.55,25.009,25.009,0,0,1-4.15,1.85q-2.451.949-3.75,1.45a31.431,31.431,0,0,1-6.35,1.4,40.813,40.813,0,0,0-10.95,3.75q-6.651,3.15-11,5.7-4.35,2.5-5.1,3.1-1.251.949-1.65.4a6.417,6.417,0,0,1-.9-1.75,1.6,1.6,0,0,0-1.95-1q-.8.1-1.7,1.8-.4.9-1.4,2.9l-1.4,2.8a5.4,5.4,0,0,1-2.5,2.1q-6.6,2.5-15.2,6-2.7,1.2-2.7-1.9l-.1-7.4q0-4.2.6-4.9.3-.4,4-1.7,15.4-5.2,18.35-6.2m8.5,11.9q2.15-1.2,2.45-1.3.8-.3,1.3.7.4.7-1.3,2.7-1.9,2.1-3.4.5-.25-.4-.45-.7a.85.85,0,0,1,.3-1.35q.45-.2,1.1-.55m18.55-9.1a2.189,2.189,0,0,1,1.5-2.2l3.1-1.3a9.675,9.675,0,0,0,1.3,5.6,32.983,32.983,0,0,0,3,4.2q1.6,2.4,1.5,2.9-.1.6-2.4,1.8-5.5,3.3-7.2-1.5-.8-2.3-.8-9.5"/></svg>