<svg overflow="visible" width="100%" height="100%" viewBox="0 0 33.256 115.534" xmlns="http://www.w3.org/2000/svg"><path d="M.008,77.977q-.1,3.7,1,4.9t4.9,1.3a47.267,47.267,0,0,0,5.2.2q2.9.5,2.6,3.6.1,3.8-.1,11.6a42.377,42.377,0,0,0,1.3,11.5,7.032,7.032,0,0,0,4.9,4.1,7.512,7.512,0,0,0,6.4-.8,4.667,4.667,0,0,0,2.1-2.7,11.235,11.235,0,0,0,.4-3.4q-.2-17.2-.1-25.8.4-5.9,1.1-36.4.5-22.2,2.7-36.3.5-3.2.8-6.15.251-2.95-.8-3.35a2.7,2.7,0,0,0-2.6.1,108.655,108.655,0,0,0-15.1,11.8q-9.9,11.6-12.6,31.4-.1.4-2.1,34.4m2.8.6v-4.05q2.7-34.249,2.9-35.25,3.6-19.8,15.9-29.6l8.4-6q-2,14.3-2.6,27.55t-.6,24.85q0,11.6-.3,18.8t-2.9,7.1l-18.2-.8q-2.4.1-2.6-2.6m15.5,6.2a3.8,3.8,0,0,1,1.5-.2q4,0,4.7.7t.8,4.7l.7,17.3q.3,5-3.5,5.3-5.4.3-5.7-4.7-.1-10.5-.2-15.8a31.07,31.07,0,0,1-.1-4.1,3.645,3.645,0,0,1,1.8-3.2m3.9,18.5a.951.951,0,0,0-1.6-.05,2.042,2.042,0,0,0-.2,2.4q.651,1.55,1.6.05t.2-2.4m-.2-10.1q-.6-1.451-1.75-.35a2.13,2.13,0,0,0-.4,2.75q.8,1.65,1.8.35a2.662,2.662,0,0,0,.35-2.75"/></svg>