<svg overflow="visible" width="100%" height="100%" viewBox="0 0 63.432 116.279" xmlns="http://www.w3.org/2000/svg"><path d="M13.97,4.253A27.729,27.729,0,0,0,4.52,15.1a44.9,44.9,0,0,0-4.05,12A40.191,40.191,0,0,0,.32,38.3a17.633,17.633,0,0,0,7.3,12.2q8.4,6,13.7,7.2t5.2,3.4q-.1,2.2-.45,6.45t-.85,8.65q-.4,4-.4,6.7.1,3.8.8,23.3.2,4,.5,5.9.4,3,1.3,3.8.9.7,3.7.1l7.3-1.7q2.4-.6,3-1.5.7-.9.4-3.3-2.1-15.9-2.9-20.1a88.816,88.816,0,0,1-1.2-13.1V63.1q0-2.4,1.7-2.5a14.96,14.96,0,0,0,8.45-2.8,48.335,48.335,0,0,0,7.6-6.95,36.161,36.161,0,0,0,6.05-8.75q2.064-4.376,1.9-13.8a28.7,28.7,0,0,0-4.35-13.9q-3.954-6.378-7.2-8.85a24.985,24.985,0,0,0-8.6-3.95A57.07,57.07,0,0,0,29.07,0a25.476,25.476,0,0,0-15.1,4.25m.85,42.95q-.9-.1-3.9-2.4,5.1-4.5,15-13.7,8.8-7.9,15.9-13.65l4.05-3.35q2.316-2.1,3.6-1.5a4.132,4.132,0,0,1,1.8,1.55,1.738,1.738,0,0,1,.2,1.65,6.827,6.827,0,0,1-1.95,2.1L17.72,45.5q-2.1,1.8-2.9,1.7m-5.9-5.4q-3.8-7.1-2.6-13.7,1.6-9.6,4.85-13.75a46.94,46.94,0,0,1,5.5-6.05,17.31,17.31,0,0,1,4.5-2.9,18.255,18.255,0,0,1,4.35-1.3,51.665,51.665,0,0,1,5.45-.35,34.733,34.733,0,0,1,7.6.9A14.425,14.425,0,0,1,46.12,9.1L8.92,41.8m45-24q.507.7,1.35,2.05.882,1.33,2.9,8.7t-5,16.55q-6.989,9.18-16.4,9.15A44.548,44.548,0,0,1,17.42,49.4l36.5-31.6M28.52,70.4q.578-4.428.9-7.45.4-2.8,3.6-2.45,2.2.1,2.2,2.6v11a89.347,89.347,0,0,0,.7,13.3q.6,4.5,1.9,13.3l.6,4.9q.5,4.2-.1,5.1-.6.8-4.7,1.8l-1.9.5a3.559,3.559,0,0,1-2.3-.1,3.227,3.227,0,0,1-.8-2.3q-1-19.9-.9-29.8.1-4.2.8-10.4"/></svg>