<svg overflow="visible" width="100%" height="100%" viewBox="0 0 104.452 116.713" xmlns="http://www.w3.org/2000/svg"><path d="M37.35,3.313a7.026,7.026,0,0,0-4.4,1.5,7.74,7.74,0,0,0-2.1,4.2,89.836,89.836,0,0,1-3,10.45,18.512,18.512,0,0,1-5.5,8.75q-1.4,1.2-19.1,17.2-.4.4-.9.949t-1.2,1.4a3.644,3.644,0,0,0-.95,1.7,6.958,6.958,0,0,0-.2,1.4q0,.5.05,1.85.1,4,.55,10t.85,21.8q.5,18.3.8,25a5.647,5.647,0,0,0,1.5,3.6,5.283,5.283,0,0,0,3.6,1.4l22.8,1.8a161.851,161.851,0,0,0,22.8,0q9-.5,11.5-.551a20.543,20.543,0,0,0,4.8-.75,7.477,7.477,0,0,0,3.7-2.25,18.122,18.122,0,0,1,4.7-3.55q4.2-2.5,5.3-3.3,7.9-5.6,17.2-12.6a10.709,10.709,0,0,0,4.3-9.3q0-20.5-.1-30.7-.4-17.8-2-30.8l-1.9-18.7q-.3-3.5-2.9-3.6-2.65-.15-8.3-.2-5.7-.049-12.4.1-6.75.1-19.65,1.4-12.949,1.3-19.85,1.8m-3.7,6.1a3.55,3.55,0,0,1,3.3-3.1q6.4-.5,19-2,11.2-1.1,20.5-1.3a102.023,102.023,0,0,1,10.5.2,2.5,2.5,0,0,1,2.4,3.2l-1.2,8.8q-.3,2-2.8,2.2l-49.8,4.6q-3.4.2-3.9-.4-.5-.5.2-4l1.8-8.2m61.5-6.2a2.547,2.547,0,0,1,2.4,1.4q.1.4.4,2.5,1.1,9.7,2.7,29.1.8,9.2.7,24.3-.2,19.1,0,24.3a8.813,8.813,0,0,1-3.2,6.7,96.692,96.692,0,0,1-12,9.2q-1.35.8-11.05,6.851-2.35,1.35-2.3-1.351-.251-10.149-.15-25.4.2-21.3.1-28a14.958,14.958,0,0,1,2.5-8.4q6.3-10.5,10-15.4,5.1-6.6,6.3-18.4l.5-3.9a17.749,17.749,0,0,1,.7-2.5,2.324,2.324,0,0,1,2.4-1m-12.5,17.8q.7-.7,2.45-.25,1.7.4.35,2.5l-12,18.651a4.761,4.761,0,0,1-3.5,2.1,122.157,122.157,0,0,1-18.45,2.2q-.3,0-45.05,1.65-.949-.1,1.85-2.949,2.749-2.9,11.8-11.5,9-8.6,10.95-8.551,1.95,0-7.65,8.4-9.649,8.35-9.45,9.9t3.4,1.949a14.013,14.013,0,0,0,2.15.1q1.65,0,3.65-.1,1.95-.1,3.6-.15t3.65-.2l12.75-.949q10.7-.8,15.8-1.3a22.5,22.5,0,0,0,8-2,12.625,12.625,0,0,0,5.6-5.6,47.114,47.114,0,0,1,3.8-5.8q2.8-3.7,4.1-5.6,1.5-1.8,2.2-2.5m-12.4,27.6v2.8q-.2,19.2-.5,57.6-.3,3.6-3.7,3.7-1.1.1-14.1.9-8.6.5-14.2.4-5.9-.1-14.3-.9-9.5-1-14.3-1.5-2.9-.3-3.5-.9-.5-.6-.6-3.5l-2.1-53.1v-1.6a1.156,1.156,0,0,1,1.1-1.3,34.6,34.6,0,0,1,3.95-.5q2.85-.3,7.8-.5,4.95-.249,9.15-.3t19.6-.651a229.2,229.2,0,0,0,23.8-1.949,1.482,1.482,0,0,1,1.9,1.3m-2.9-11.5a4.591,4.591,0,0,1-3.3,1.7q-9.5,1.5-22.4,2.4-14.9.9-19.85,1.4t-2.75-1.85q2.149-2.3,6.5-6.449,5.6-5.351,7.55-7.5a5.9,5.9,0,0,1,4.05-2.3q.6,0,20.6-1.9,12.4-1.1,20.8-1.4-10.4,14.8-11.2,15.9m-25-18.949q4.6-.851,3.1-6.3t-5.9-2.75q-4.4,2.65-3.1,6.25,1.249,3.6,5.9,2.8m-1.2-6.7q1.9-.2,1.95,1.1-.1,2.9-2.25,3t-2.05-1.4q.45-2.55,2.35-2.7M77.6,4.913q-3.6.6-3.2,4.25.349,3.6,1.8,4.6a4.8,4.8,0,0,0,2.7.9,3.707,3.707,0,0,0,2.2-1,6.87,6.87,0,0,0,1.35-1.651,5.388,5.388,0,0,0,.5-1.949,8.632,8.632,0,0,0-.8-3.5q-.95-2.3-4.55-1.65m-.65,4.25q.2-2.451,1.95-1.7a2.384,2.384,0,0,1,1.65,2.4,1.754,1.754,0,0,1-1.85,1.75q-2-.05-1.75-2.449M51.45,7.012q-2.2.1-1.8,2.4,1.1,5.949,1.35,7.25a5.885,5.885,0,0,0,.4,1.75q.251.45,1.75.5,1.45-.051,3.65-.3t6.25-.75q4-.45,4.65-1.8.6-1.3.95-8.051a2.477,2.477,0,0,0-.85-1.949,2.781,2.781,0,0,0-2.1-.7L51.45,7.012m12.2,1.551a2.038,2.038,0,0,1,1.8.6,3.921,3.921,0,0,1,0,3.849q-1.05,2.25-4.55,2.85a41.43,41.43,0,0,1-5.15.65,1.965,1.965,0,0,1-2.1-1.349,17.067,17.067,0,0,1-.55-2.651,2.471,2.471,0,0,1,1.2-2.65q3.15-.549,9.35-1.3"/></svg>