<svg overflow="visible" width="100%" height="100%" viewBox="0 0 109.854 115.567" xmlns="http://www.w3.org/2000/svg"><path d="M98.521,1.834a55.107,55.107,0,0,0-8.8,2.3q-17,6.6-24.3,11-13.2,7.9-18.4,18.7a7.109,7.109,0,0,0,.8,8.6,16.929,16.929,0,0,0,8,4.9q3.6,1.2,23.2,7.2a9.454,9.454,0,0,1,4.6,3.3q.4.4,3.2,4.7a3.809,3.809,0,0,1,.2,2.8,10.6,10.6,0,0,1-6.1,8q-5,2.5-9.1.2-6.2-4.2-9.3-6.2-5.6-3.5-10.3-.8-6.951,3.3-8.9,6.5-1.948,3.15-4.6,2.5-2.7-.65-5.55,2.15a38.992,38.992,0,0,1-4.8,4.15q-1.951,1.3-7.45,4.9l-8.5,5.1a19.819,19.819,0,0,1-6.75,2.3,5.879,5.879,0,0,0-5.1,4.7,12.183,12.183,0,0,0-.25,6.4,41,41,0,0,0,2.5,6.1,6.965,6.965,0,0,0,5.7,4.2,10.265,10.265,0,0,0,6.9-2.1q9.6-6.75,19.6-14.3,6.6-4.5,8.2-6.7a15.4,15.4,0,0,0,2-4.3,10.271,10.271,0,0,1,7.1-7,9.345,9.345,0,0,1,8.9,1.3,21.142,21.142,0,0,0,12.9,4.3,19.924,19.924,0,0,0,12.9-4.1l8.4-6.9a11.387,11.387,0,0,0,3.5-5.1q1.2-3.9,1.7-5.35a5.556,5.556,0,0,0-.15-3.5q-.7-2.05-2.35-6.45-1.7-4.4-8.7-7.6-9.3-4.5-17.3-8.7-5.9-3.4-6.4-3.8-3.4-3-.1-5.7,2.1-2.1,3.2-3.1a17,17,0,0,1,3.6-2.6q5.1-2.5,15.4-7.5a102,102,0,0,1,16-6q.7-.2,2.6-.85a1.577,1.577,0,0,0,1.1-1.7q-.05-1.35-1.6-.8a43.864,43.864,0,0,1-5.2,1.3q-3.7.75-11.8,4.45-9.1,4.4-13.7,6.4a40.19,40.19,0,0,0-10.9,7.3q-6,6-.9,10.3a81.3,81.3,0,0,0,12.8,7.9q4.5,2.4,10.65,5.3,6.1,2.9,8,5.7a21.82,21.82,0,0,1,2.75,5.4,6.314,6.314,0,0,1,.2,4.1,30.726,30.726,0,0,1-2.3,5.9,11.132,11.132,0,0,1-4.4,4.7l-3.9,3q-6.1,4.7-11.9,5.1-5.8.3-12.3-3.6-8.7-5.1-15.7.4-2.7,2.1-3.2-1.4a8.463,8.463,0,0,1,3.2-6,35.366,35.366,0,0,1,6-4,6.684,6.684,0,0,1,7.7.7,99.9,99.9,0,0,0,8.6,5.7q5.4,3.7,12.2.3a14.119,14.119,0,0,0,8.3-10.6,6,6,0,0,0-.7-3.8,45.787,45.787,0,0,0-4.3-6.2,13.4,13.4,0,0,0-6.4-4.1q-4.2-1.5-11.4-3.6-8.4-2.5-11.4-3.5-9-3.5-6.9-8,2-3.8,3.1-5.7a18.868,18.868,0,0,1,3.9-5q15.5-13.7,41.5-20.3,3.5-.9,7.451-1.65,3.9-.8,4.45-1.5t.4-1.15q-.75-1.4-4.449-.45-3.75.949-6.851,1.45m-63.2,77.1a4.153,4.153,0,0,1,2.3-1.1,4.6,4.6,0,0,1,2.8.4q1.4.6,2.05,3.4a19.2,19.2,0,0,1,.2,4.95q-.2,3-5.9,7.5t-17.549,12.55q-.9-4-1.5-5.9a10.928,10.928,0,0,0-3.1-4.8q-1.4-1.2.9-2.6,6.6-4.549,10.25-6.75a53.4,53.4,0,0,0,5.75-3.95,18.964,18.964,0,0,0,2.55-2.3,12.835,12.835,0,0,1,1.25-1.4m-29.6,25.5q2.349.2,2.95,1.65a2.717,2.717,0,0,1-.45,2.75q-1,1.35-2.85-1.45-1.9-2.85.35-2.95m2.6-2.3a4.327,4.327,0,0,0-2.3-.3,4,4,0,0,0-2.649,1.05q-.051-3.65,1.449-4.85a8.264,8.264,0,0,1,3.5-1.4q5.5-.9,7,5.9t-1.849,8.25q-3.4,1.35-4.05.45,3.8-6.1-1.1-9.1"/></svg>