<svg overflow="visible" width="100%" height="100%" viewBox="0 0 116.418 102.575" xmlns="http://www.w3.org/2000/svg"><path d="M61.512.013q-1.5-.2-4,2.7a96.569,96.569,0,0,0-8,9.5q-15.1,22.9-21.6,33-11.8,18.6-20.2,33.8-2.6,4.8-7,14.8-1.1,2.7-.5,3.8.7,1.1,3.7,1.5,11.3,1.5,28.5,2.2,27.2,1.2,31.85,1.25,4.6.05,28.6-.1,23.949-.2,23.55-3.55a21.788,21.788,0,0,0-2.9-7.7q-11-17.7-16.4-26.6-9.8-15.7-15.8-26.9-5.8-11.1-16.4-33.9-1.7-3.6-3.4-3.8m-11.7,16.9a126.694,126.694,0,0,1,9.2-11.7q1.3-1.6,2-1.5.7.2,1.7,2.2,4.5,9.1,13.2,27.3,6.2,12.3,16.2,28.7,5.7,9.3,17.4,28a32.443,32.443,0,0,1,3.1,5.8q.8,3.2-3.9,3.1a847.534,847.534,0,0,1-100.55-1.8q-5.951-.4-5.65-1.05a297.9,297.9,0,0,1,18.1-33.8q9.7-15.55,29.2-45.25"/></svg>