<svg overflow="visible" width="100%" height="100%" viewBox="0 0 118.267 99.241" xmlns="http://www.w3.org/2000/svg"><path d="M25.494.578a8.1,8.1,0,0,0-4.1,5.2q-3.5,10.8-13.2,14a8.546,8.546,0,0,0-4.95,3.7,23.855,23.855,0,0,0-2.55,5.6,24.523,24.523,0,0,0-.6,8.5q.3,5.4,7.8,10.8a4.78,4.78,0,0,1,2,4.2l-.8,14.9q-.4,8.6-1.3,25.7a5.513,5.513,0,0,0,1.4,4.5q2.2,2.5,8.6,1,6.5-1.5,3.1-5.6-2.7-2.4-3.9-3.6a4.673,4.673,0,0,1-1.4-4.9q1.2-6.2,2.2-14.6.1-1.2,1.5-14.8.3-2.5,3-1.9a54.831,54.831,0,0,0,11.6,1.8q7.9.2,24.2-.3-1.2,7-2.5,17.4-.7,5.8-2.1,17.4a10.487,10.487,0,0,0,.1,4.4,8.985,8.985,0,0,0,.7,1.65q.45.949,3.65,1.05a24.059,24.059,0,0,0,7.25-1.05q4-1.15,4.1-2.45a1.906,1.906,0,0,0-1.2-2,24.965,24.965,0,0,0-2.2-1.3,2.776,2.776,0,0,1-1.1-2,58.462,58.462,0,0,1-.4-7.9q.051-3.349.45-6.9t2.15-11.85q1.7-8.351,1.9-9.35a9.035,9.035,0,0,1,3.8-5.5,47.584,47.584,0,0,1,13.5-6,21.885,21.885,0,0,0,9.2-4.4,18.972,18.972,0,0,0,5.8-8.1,11.861,11.861,0,0,1,3.55-5.55,15.765,15.765,0,0,1,6.5-2.55,9.229,9.229,0,0,0,6.45-5.25q2.1-4.3-3.5-4.65a61.25,61.25,0,0,1-6.2-.2,36.69,36.69,0,0,1-5.9-.7,16.494,16.494,0,0,1-5.7-2.6,6.676,6.676,0,0,0-7.1-1q-3.4,1.4-4.7,5.8l-.2,1.3a2.368,2.368,0,0,1-.4,1.1q-1.5,1.8-2.3,2.6a7.06,7.06,0,0,1-2.6,1.8,15.182,15.182,0,0,1-4.4.7q-3,0-4.5.1-2.6,0-2.5-2.4a12.278,12.278,0,0,0-1.1-5.8,39.314,39.314,0,0,0-2.9-5.2q-2.5-4.3-8.2-4.9a10.45,10.45,0,0,0-9.1,3,40.549,40.549,0,0,0-2.7,6,24.585,24.585,0,0,1-3.1,5.9q-1.1,1.5-2.2,1.3t-1.8-1.9q-1.5-4.3-2.3-6.5a22.441,22.441,0,0,0-3.1-6.1q-2.5-3.3-5.7-1.6m-.5,4.2q2.3-3.2,4.6-.4a23.964,23.964,0,0,1,2.6,5.8q1.8,5.6,2,6.2,1.7,4.6,5.4,3.3a9.1,9.1,0,0,0,5.1-5.3,21.278,21.278,0,0,0,2-5,6.57,6.57,0,0,1,3.2-4.6,13.851,13.851,0,0,1,5.4-1.3,6.314,6.314,0,0,1,6.1,3.3,26.747,26.747,0,0,1,3.7,10.1q.5,3.3,1.6,4.1,1,.9,4.3.8,2.3,0,6.9-.4a8.133,8.133,0,0,0,5.2-2,22.172,22.172,0,0,0,3.4-4.5,12.521,12.521,0,0,0,.7-2.4,6.831,6.831,0,0,1,3.1-4.3,3.984,3.984,0,0,1,4.5.7q3.9,3,11.75,3.2,7.8.2,8.15,1.3.551.5-1.9,2.25a13.409,13.409,0,0,1-5.4,2.3,10.352,10.352,0,0,0-5.2,2.55,14.368,14.368,0,0,0-3.6,6,14.786,14.786,0,0,1-5.1,7.3,18.869,18.869,0,0,1-8.5,3.9q-6,1.1-14.2,6.7-3.8,2.4-5.4,8.4-1.65,6-3.7,21.1-2.1,15.1,1.9,17.3,3.2,1.451,1.5,1.9-6,1.8-7.4.65t-1-5.85q.6-6.4,3.4-28a26.651,26.651,0,0,0,.8-6.2q0-3.6-3.7-2.6a61.163,61.163,0,0,1-11.4,1.1h-11.4q-8.1.2-13.1-2.2-2.3-1.1-3.4-.3-1,.7-1.3,3.5-.4,5.2-1.2,15.5a109.3,109.3,0,0,1-2.5,15.4q-1.3,5.2,2.6,7.9a6.169,6.169,0,0,1,1.8,1.7,9.6,9.6,0,0,1,.9,1.6q.5,1.249-2.1,1a22.542,22.542,0,0,1-3.7-.6,2.443,2.443,0,0,1-1.7-2.8q.4-13.7,2.2-41.6a4.662,4.662,0,0,0-2.4-4.8q-7.6-4.3-7.35-10.35a29.8,29.8,0,0,1,1.45-9.3q1.251-3.25,8.25-5.6,6.951-2.351,9.45-10.85a36.9,36.9,0,0,1,2.7-5.6"/></svg>