<svg overflow="visible" width="100%" height="100%" viewBox="0 0 105.71 116.14" xmlns="http://www.w3.org/2000/svg"><path d="M34.21.508q-9-.5-13.6-.5a69.121,69.121,0,0,0-13.6,1,8.289,8.289,0,0,0-4.6,2.2,7.559,7.559,0,0,0-1.6,4.9q-.9,41.8-.8,57l.9,35.8q.2,6.6,1.3,9.3a7.12,7.12,0,0,0,7.3,4.7q11.3.6,25.45,1.15,14.149.5,14.5-2.05a33.118,33.118,0,0,0-.55-8.4q-2.5-16.3-3.2-24.5-.8-8.2-1.8-21.5-1.2-16.9-1.6-21.6-.6-7.2-2.5-17.8-3.2-17.6-3.2-17.8a2.2,2.2,0,0,0-2.4-1.9m-3.5,2.7a3.123,3.123,0,0,1,3.4,2.9q1,5.4,3.2,16.2a101.981,101.981,0,0,1,2.1,16.4q.1,4.6,1,13.9.1,2.5-.3,3-.5.5-2.8.5-21.1-.3-31.7-.3a2.8,2.8,0,0,1-2.2-.7q-.6-.7-.6-5.9,0-5.25.15-16.45t.85-24.55q.1-3.9,3.7-4.3a111.914,111.914,0,0,1,23.2-.7m9.9,56.3a3.49,3.49,0,0,1,.8,2.3q.4,7.2,1.7,21.7a1.589,1.589,0,0,1-1.75,2q-1.55.1-1.65-1.9a31.853,31.853,0,0,1-.1-4.7,35.382,35.382,0,0,0,0-3.9,1.865,1.865,0,0,1,.75-1.7q.8-.7.15-2.2-.7-1.549-1.8-1.6a3.48,3.48,0,0,0-1.85.25,2.568,2.568,0,0,0-1.2,1.35q-.55,1.05-.2,1.5a2.766,2.766,0,0,0,.8.85q.45.351.45.55v7.8a13.494,13.494,0,0,1-.2,2.3q-.4,1.1-2.2,1a15.251,15.251,0,0,1-4.4-.5q-1-.5-1.1-2.5a35.281,35.281,0,0,1,0-6.5,6.28,6.28,0,0,1,.2-1.35q.15-.9.7-1.1a1.409,1.409,0,0,0,.75-1,4.207,4.207,0,0,0-.8-2.6q-1-1.85-3.3-.35t-1.65,2.8a3.3,3.3,0,0,0,1.1,1.45q.4.15.4,5.45t-2.35,5.5q-2.4.251-2.25-2.4.1-2.7,0-5.55a6.684,6.684,0,0,1,.9-4.3q1.05-1.449-.6-3.3-1.7-1.85-3.5.2-1.85,2.05-.4,3.05,1.4,1,1.15,3.65t-.65,6.65q0,2-2.8,2-1.9.1-1.9-2.1.4-8.2-.6-11.25t-2.3-3.2a1.856,1.856,0,0,0-1.85.6,2.91,2.91,0,0,0-.55,1.85,1.794,1.794,0,0,0,1.2,1.7,2.567,2.567,0,0,1,1.55,1.8,14.994,14.994,0,0,1,.35,3.7q-.049,2.351-.2,4.3a3.274,3.274,0,0,1-2.9,3.3q-3.2.6-4,0t-.9-4l-.7-18.8q0-2.6.4-3.1.5-.5,2.8-.5l32.2.2a3.523,3.523,0,0,1,2.3.6m3.3,31.6q2.4,16.5,2.6,18.6.3,2.6-.4,3.3-.7.6-6.05.5t-14.65-.55q-9.249-.5-13.45-.5-4.249-.049-5.95-1.45t-2.1-6.2q-.1-1.7-.1-14.2-.1-1.9,2.1-2.1a113.837,113.837,0,0,1,17.3-.8q5.7.2,17.3.8,3,0,3.4,2.6m42.3-55.7a1.416,1.416,0,0,0-1.2,1.2,10.039,10.039,0,0,0-.3,2.9q-.3,3.1-.7,9.3a27.7,27.7,0,0,1-2.6,9.1,6.83,6.83,0,0,0-.6,5.4q.75,3,5.4,6.1,4.6,3.1,6.1,4.15a7.619,7.619,0,0,1,2.5,2.95,16.457,16.457,0,0,1,1.5,3.85q.5,1.95,3.15,12.05a119.362,119.362,0,0,1,3,13.8q.4,3.651,1.7,3.6,1.251-.1,1.45-.7a14.435,14.435,0,0,0-.5-4.2q-.75-3.65-2.1-10-1.4-6.35-2.95-12.15-1.549-5.85-.25-8.65a34.309,34.309,0,0,1,3.6-5.9,12.117,12.117,0,0,0,2.3-7.15,16.033,16.033,0,0,0-2.4-8.15q-1.9-3.3-8-8.4-5.8-4.9-7.7-8.6a1.045,1.045,0,0,0-1.4-.5m1,9.3q-.4-4.1.2-3.5,13,12,13.7,13.3,4.1,7-3.6,17.3-.95-4.55-1.25-6.1a7.513,7.513,0,0,1,.3-3.55q.55-2.1-.25-2.9-.849-.8-3.1-.1a3.029,3.029,0,0,0-2.35,3q-.05,2.25,1.1,2.3t1.5,2.2q.35,2.151.65,4.45.05.45.15.95l-1.05-.7q-8.25-5.5-9.7-7.45-1.5-2,1.1-6.8a21.37,21.37,0,0,0,2.6-12.4"/></svg>