<svg overflow="visible" width="100%" height="100%" viewBox="0 0 116.658 103.503" xmlns="http://www.w3.org/2000/svg"><path d="M102.256,21.751a75.435,75.435,0,0,0-11.6-9.65Q85.4,8.7,70.506,3.2t-27.45-1.55q-12.6,3.95-25.5,15.95Q3.055,30.2.456,50.9q-2.7,21.7,10.6,35.2a49.161,49.161,0,0,0,8.9,6.7q2.7,1.7,9.8,5.3a46.31,46.31,0,0,0,22.9,5.4,75.051,75.051,0,0,0,23.4-4.5,67.636,67.636,0,0,0,27.7-16.1q12.8-12.6,12.9-28.5.1-12.4-4-19.4a64.933,64.933,0,0,0-10.4-13.25m10.7,38.65a24.589,24.589,0,0,1-1,4.8q-4.9,13.7-19.1,22.9-11.6,7.4-28.3,11.1a46.333,46.333,0,0,1-34.6-4.3,92.724,92.724,0,0,1-14.5-8.7q-7.5-5.9-9.8-13.3a47.854,47.854,0,0,1-.5-30.1,48.92,48.92,0,0,1,16.6-25.2q24.6-18.45,40.95-13.55t26.95,11.5a60.572,60.572,0,0,1,18.05,17.3q7.449,10.751,5.95,22.65-.2,1.1-.7,4.9m-14.45-29.25q-3.851-4.249-5.55-6.05a23.578,23.578,0,0,0-4.15-3.7q-1.3-.7-4.35-2.25a66.257,66.257,0,0,0-8.45-3.25,89.354,89.354,0,0,0-11.15-2.85q-5.8-1.15-15.2.7a61.363,61.363,0,0,0-17.85,6.35q-8.4,4.55-17.25,16.8-8.9,12.2-6.1,22a41.106,41.106,0,0,0,8,14.5,34.511,34.511,0,0,0,13,10,134.853,134.853,0,0,0,16.7,5.4,62.287,62.287,0,0,0,17.6,1.4,61.372,61.372,0,0,0,14.3-1.1q14.8-3.4,21.8-13.5,6.6-9.8,6.2-22.9-.4-13.6-7.55-21.55M50.256,16.1q4.3-.9,14.05-.15a45.61,45.61,0,0,1,17.5,4.65,32.458,32.458,0,0,1,12.25,10.3q1.1,1.4,3.2,4.1a37.706,37.706,0,0,1,2.9,4.3q3.2,5.6,3,14.9a34.049,34.049,0,0,1-4.1,17.3,25.222,25.222,0,0,1-13.1,11.9q-23.4,9.3-54.5-2.2a24.083,24.083,0,0,1-10.2-6.9q-15.5-16.5-8.1-29.4a50.039,50.039,0,0,1,12.4-16.55,38.856,38.856,0,0,1,7-5.9,26.5,26.5,0,0,1,5.55-2.6q2.6-.851,3.5-1.15.849-.349,2.6-1a40.954,40.954,0,0,1,6.05-1.6m-11.8,60.65q-.551,1.95,1.5.6,1.9-1.249,1.5-2.95-.45-1.751-1.35-.8a7.634,7.634,0,0,0-1.65,3.15m-12-10.1q-2,1.65-.75,2.2,1.25.5,2.95-1.25t.75-2.2q-.951-.45-2.95,1.25M18.106,53.9a.863.863,0,0,0,.05.75q.2.45,1.8.4,1.65-.05,1.6-.9t-1.7-.7q-1.65.15-1.75.45m6.2-12.95q1.449.55,1.7-.35.2-.9-1.75-1.4-1.95-.55-1.65.55.2.649,1.7,1.2M38.256,29.3q-1.1-1.1-1.75-.55-.7.55.2,1.7.9,1.1,1.45.9a1.987,1.987,0,0,0,.85-.55q.3-.4-.75-1.5m52.35,41.75q.35.9,2.4,1.05,2,.15,1.05-.85a2.879,2.879,0,0,0-2.45-1.2q-1.35.05-1,1m.45-18.65q.249.851,2,.65,1.8-.251,2-.95a1.358,1.358,0,0,0-.05-1q-.2-.349-2.2.1-2.051.4-1.75,1.2m-17.2,25.75q.8,2.15,1.25,2.35a1.874,1.874,0,0,0,1.35-.15q.949-.4-1.2-2.35-2.2-2-1.4.15m-16.45.6q-.3-1.35-1-.35a3.628,3.628,0,0,0-.8,2,2.268,2.268,0,0,0,.2,1.45q.3.35,1.05,0a1.442,1.442,0,0,0,.75-1.1,5.883,5.883,0,0,0-.2-2m25.2-43.5a1.8,1.8,0,0,0,0,1.55q.3.75,1.15-.1a13.983,13.983,0,0,0,1.3-1.55,2.034,2.034,0,0,0,.3-1.55q-.2-.9-1.3,0a3.99,3.99,0,0,0-1.45,1.65m-13.05-6.4q1.9-2.25-.6-2.25-2,1.35-1.65,2.95.3,1.6,2.25-.7m-15.3-4.25q-1.8-.4-1.6,2.2.2,9.9.6,14.8.1,2.7.1,3.4a5.247,5.247,0,0,1-1.3,3.2,5.177,5.177,0,0,0-1.05,4.05q.249,2.7,1.9,3.55a4.486,4.486,0,0,0,3.4.35,6.586,6.586,0,0,1,2.3-.4,16.911,16.911,0,0,1,2.65.75q4.1,1.1,14,4.2,8.9,2.8,14,4.1a1.055,1.055,0,0,0,.9-.3,1.34,1.34,0,0,0,.5-.6,1.849,1.849,0,0,0-1.2-1.8q-1.6-.5-2.3-.8l-22.7-6.8q-4.6-1.15-4.7-3.65a3.69,3.69,0,0,0-2-3.45,3.269,3.269,0,0,1-1.85-3.2,27.144,27.144,0,0,0-.05-3.1q-.5-8.8-.8-13.2a7.1,7.1,0,0,0-.1-2.4q-.3-.8-.7-.9"/></svg>