<svg overflow="visible" width="100%" height="100%" viewBox="0 0 115.366 51.01" xmlns="http://www.w3.org/2000/svg"><path d="M86.145,10.192q-5.1,1.7-7.8,2.3a13.986,13.986,0,0,0-8.4,5.6q-2.5,3.6-3.7,3.8-1,.3-5.2-1.3-9.8-3.6-20.6,1.5a4.639,4.639,0,0,0-.6.4,4.992,4.992,0,0,0-3.151-2.6,6.009,6.009,0,0,1-3.1-1.6,14.321,14.321,0,0,1-1.651-3.6q-.8-2.1-3.4-7.1-3.3-6.3-12.8-7.4t-14.2,4.1a8.859,8.859,0,0,0-1.4,1.5q-.4.6.3,1.05a2.1,2.1,0,0,0,1.55.3,2.291,2.291,0,0,0,1.25-.55,10.721,10.721,0,0,1,4.6-2.8,27.635,27.635,0,0,1,5.2-1,13.361,13.361,0,0,1,10.4,3.4,18.238,18.238,0,0,1,5.9,9.1,9.092,9.092,0,0,1,.4,1.6q.15,1.1-1,1.1a6.221,6.221,0,0,1-3.6-2.55q-1.8-2.25-6.5-3.15a31.728,31.728,0,0,0-9-.2,2.355,2.355,0,0,0-2.5,1.85q0,.45.7.85.6.4.9.3a10.876,10.876,0,0,1,5.4-.5q1.8.2,5.3.9a6.079,6.079,0,0,1,4.5,2.8,5.641,5.641,0,0,1,.4,5.1,34.367,34.367,0,0,0-.8,4.05,5.022,5.022,0,0,1-1.9,3.55q-1.5.9-.95,3.05.5,2.1,1.151,2.45.6.251.549-1.45a3.561,3.561,0,0,1,1.85-2.95q.25,1.55,3.45,3.55t.651,3a5.851,5.851,0,0,0,4.949-.7q2.25-1.45,5.45-3.25a2.789,2.789,0,0,1,4,.9q.4.7-1.1,2.8-1.6,1.9-2.4,2.9-1.5,1.9-1,3.4.6.9,1.3.4a4.491,4.491,0,0,0,.9-1.1l4.5-5.2q1.7-2.2,2.4-2.2a13.891,13.891,0,0,1,5.3,1q1,.4.9,2.3a8.453,8.453,0,0,1-1.1,3.7q-.7,1-1.2,1.6a2.736,2.736,0,0,0-.6,1.7q1.7,1.7,2.9-.1,2-3.1,2.1-4.4.4-5.8,7.1-7.3a9.661,9.661,0,0,0,2.4-1.2,3.411,3.411,0,0,1,2.6-.3q1.7.9,5.3,2.6a13.85,13.85,0,0,1,4.6,3.7q1.1,1.6,3.3,4.5a10.168,10.168,0,0,1,1.8,4.25,2.722,2.722,0,0,0,.6,2,1.328,1.328,0,0,0,1.1.35c.6-.033.951-.233,1.05-.6a8.742,8.742,0,0,0-.35-2.55,16.9,16.9,0,0,0-2.049-4.7,64.658,64.658,0,0,0-5.051-6.95q16.251-1.7,22.1-3.05,5.8-1.35,12.4-6.35a6.715,6.715,0,0,0,2.5-3.4,14.435,14.435,0,0,0,.3-4.1,3.7,3.7,0,0,0-1.4-2.9,12.108,12.108,0,0,0-3.1-1.5q-5.3-2.7-8-3.9a20.365,20.365,0,0,0-8.6-1.9,24.98,24.98,0,0,0-8.1,1.1m-5.7,4.5a46.456,46.456,0,0,0,7.6-2.3,17.155,17.155,0,0,1,11.4.1,66.987,66.987,0,0,1,10.5,5.1q4.2,2.1,2.2,5.4a13.488,13.488,0,0,1-5.7,4.5,74.323,74.323,0,0,1-12.2,4.15,56.089,56.089,0,0,1-13.4,1.3q-7.352-.1-9.4-1.3a5.44,5.44,0,0,1-2.6-3.85,5.194,5.194,0,0,1,.6-4.1,30.557,30.557,0,0,1,4.4-5.8,11.431,11.431,0,0,1,6.6-3.2m-53.8,14.8a28.465,28.465,0,0,1,.2-4.3,3.967,3.967,0,0,1,1.3-3,5.543,5.543,0,0,1,2.85-1.1,8.209,8.209,0,0,1,4.65.85q2.751,1.2,3.25,2.25.051.1.3,2.9a6.4,6.4,0,0,1-.6,3.95q-.8,1.1-4.75,2.65-1.4-3.5-3.1-3.8-1.9.5-.6,2,1.251,1.451,0,1.6a2.706,2.706,0,0,1-1.3-.2,5.843,5.843,0,0,1-2.2-3.8m20.6,1.1q-.8-.4-1.7.9a3.284,3.284,0,0,1-1,1.1q-.5.3-1.2-.3a3.573,3.573,0,0,1-1.5-2.2q-.9-5.2,2.5-6.8,2.3-1.1,7.949-1.25a24.613,24.613,0,0,1,7.45.85,12.984,12.984,0,0,1,6.1,3.7q1.6,2.8-1.4,2.3a3.2,3.2,0,0,0-2.2.25,1.11,1.11,0,0,0-.5,1.25,1.358,1.358,0,0,0,.7,1.1q.6.4-.8.9l-3.6,1.4q-2.7,1-3.4-1.6a1.646,1.646,0,0,0-.549-.8.678.678,0,0,0-.851,0,1.47,1.47,0,0,0-.85,1.65q.15,1.15-2.049,1.05a5.509,5.509,0,0,1-1.8-.2q-.7-.3-.6-1.8.1-1.2-.7-1.5m-14.5-4.6q.1.949.8.45.251-1.55-.5-1.65c-.3.167-.4.567-.3,1.2"/></svg>