<svg overflow="visible" width="100%" height="100%" viewBox="0 0 115.993 119.879" xmlns="http://www.w3.org/2000/svg"><path d="M71.4,2.156q-1.85-1.8-9.4-2.1a31.627,31.627,0,0,0-12.5,1.5q-4.95,1.85-6.85,4.9-1.95,3-5.75,10.4a69.259,69.259,0,0,0-4.6,12.2q-1.3,4.2-3.5,12.7-1.1,3.9-1.8,4.5a6.012,6.012,0,0,1-3,.75,8.158,8.158,0,0,1-3-.15q-.8-.251-.55-2.5a4.977,4.977,0,0,0-.95-3.8q-1.2-1.5-4.5-1.7a53.086,53.086,0,0,0-5.75-.1q-3.15.1-3.6.5a1.845,1.845,0,0,0-.55,1.2q-.25,1.3,2.2,1.3,2.4,0,5.65.15a10.261,10.261,0,0,1,4.05.6q.8.5.55,2.45a2.481,2.481,0,0,1-2.45,2.2q-2.2.3-6.4.55t-5.4.35q-2.3.3-2.9,3.05a9.222,9.222,0,0,0,0,4.05,8.718,8.718,0,0,1,0,4.35,11.857,11.857,0,0,0-.4,3.25,161.8,161.8,0,0,0,2.6,30.1,28.545,28.545,0,0,0,3.8,10.1,49.123,49.123,0,0,0,3.7,4.9q2.4,2.4,18.8,6.9,16.35,4.5,24.35,5.05,7.95.5,25.15-2.4,17.149-2.951,21.9-8.3,4.751-5.4,8-9.45a33.117,33.117,0,0,0,5.05-9.25q.65-1.751,2-5.3a9.856,9.856,0,0,0,.6-2.25q.5-4.551-4.85-9.8a97.473,97.473,0,0,0-7.9-7.2,47.9,47.9,0,0,0-8.8-5.6q-1.8-.9-9.3-5.4t-10-5.25q-2.5-.75-2.9-1.65-1.4-3.3-5.6-3.1-5.4.1-8.35.15-3,.05-5.05-.05-2-.051-1.3-2.9.649-2.85,1.2-4.6a3.219,3.219,0,0,1,3.7-2.4,65.869,65.869,0,0,0,6.65.25q3.15-.051,3.3-1.25.3-1.9-3.85-1.95-4.2-.051-7.55-.05t-3.9.35q-.551.35-1.65,3.9a44.635,44.635,0,0,0-1.6,7.25,2.248,2.248,0,0,1-.6,1.6,2.589,2.589,0,0,1-1.25.6,10.043,10.043,0,0,1-3.25.15,1.825,1.825,0,0,1-1.7-1.35,23.751,23.751,0,0,1-.15-5.2q.15-4.05.8-9.5t6.8-14.8q6.15-9.4,11.65-2a55.318,55.318,0,0,1,3.5,5.3q2.3,3,5.2,2.2a4.635,4.635,0,0,0,3.6-4.3,63.909,63.909,0,0,0,.55-9.25,7.532,7.532,0,0,0-1.95-4.85m-9.6,8a6.6,6.6,0,0,0-3.3-2.8,8.976,8.976,0,0,0-4.4.1,11.212,11.212,0,0,0-6.2,3.7,32.191,32.191,0,0,0-4,5.8,43.067,43.067,0,0,0-4.7,12.1,41.616,41.616,0,0,0-1.1,9.9q.1,4.449.15,5.65a1.254,1.254,0,0,1-1.1,1.4l-.85.05q-4.3.2-4.8-.5-.6-.7.5-5,4.5-18,9.7-27.4T54.25,3.006a52.7,52.7,0,0,1,11.55-.2q4.249.549,4.6,4.45a43.524,43.524,0,0,1-.1,7.8,3.111,3.111,0,0,1-1.2,2.3,1.614,1.614,0,0,1-1.8.25,10.046,10.046,0,0,1-2.4-2.95q-1.6-2.5-3.1-4.5m8,39.1q.5.5-2.3.7L6.7,55.606a11.549,11.549,0,0,1-1.9.15q-1.05,0-1.2-.75a6.3,6.3,0,0,1-.15-1.1,4.275,4.275,0,0,1,.65-2.7q.7-.9,12.3-1.4,11.6-.55,47.3-2.45a14.3,14.3,0,0,1,3.1.1,5.879,5.879,0,0,1,3,1.8m2.6,3.2a6.14,6.14,0,0,1,3.7.8q6.8,4,20.4,11.5,10.35,6.4,16.05,14.15,1.2,1.65-.7,1.85-1.95.2-4.85.5-2.9.249-12.35,1.7a195.968,195.968,0,0,0-24.25,5.65q-14.75,4.249-18.25,3.85-3.55-.4-9.4-4.05A189.219,189.219,0,0,1,25.8,75.756q-12.2-10.4-18.5-15.4-2.1-1.7-1.4-1.9,13.4-1.6,33.3-3.2,11-.9,33.2-2.8m-68,34.5a73.171,73.171,0,0,1-1.3-12.7q0-8.9-.1-13.7,1.2.9,20.2,16.8a163.514,163.514,0,0,0,20.9,15.1,4.673,4.673,0,0,1,2.2,2,18.185,18.185,0,0,1,.2,5.25q-.251,4-.45,7.25a34.583,34.583,0,0,1-1.2,6.6q-.95,3.35-13.15-.45-12.25-3.85-15.4-5.35a29.7,29.7,0,0,1-4.4-2.5,17.943,17.943,0,0,1-3.25-3.85,19.574,19.574,0,0,1-2.95-7.15q-.8-4.9-1.3-7.3m91.2,22.05q-4.549,4.249-26.2,7.3t-21.3-2.4q.349-5.5.55-8.8t.25-5.65q0-2.4.55-2.9.5-.551,3.65-1.05,3.1-.55,24.5-6.05,16.3-4.2,22.15-4.85,5.85-.7,9.45-.85,3.55-.15,3.45.65a11.148,11.148,0,0,1-.45,1.65q-.3.849-1.8,4.7a33.705,33.705,0,0,1-5.85,8.9q-4.4,5.049-8.95,9.35m-75.75-47.9q-.9.4-.7,1.2a4.49,4.49,0,0,0,.6,1.35,29.021,29.021,0,0,0,3.45,4.3Q36,77.505,42.85,82.606q6.851,5.049,8.5,5.05a51.074,51.074,0,0,0,5.75-.75q4.1-.75,18.95-5.5a165.315,165.315,0,0,1,17.85-4.9q4.95-.851,6-2.25a1.934,1.934,0,0,0,.15-2.5q-.85-1.1-12.8-7.25T72.7,57.156a13.531,13.531,0,0,0-7.2-1q-.7.1-20.4,2.4-12.3,1.4-18.35,1.8-6.1.349-6.9.75m4.05,2.05q1.55-.251,3.9-.45t7.5-.65l29-2.9a15.476,15.476,0,0,1,9.9,1.9q10.751,6.15,19.45,10.2Q96.7,72.7,91.9,73.906q-4.85,1.149-16.35,4.8t-17.1,5.15q-5.651,1.449-7.95-.05-2.35-1.5-6.85-4.45a157.534,157.534,0,0,1-15.9-11.35q-5.4-4.6-3.85-4.85"/></svg>