<svg overflow="visible" width="100%" height="100%" viewBox="0 0 115.426 79.792" xmlns="http://www.w3.org/2000/svg"><path d="M114.358,18.841q1.549-1.362.85-2.1a1.579,1.579,0,0,0-1.45-.55,3.21,3.21,0,0,0-1.35.65l-6.8,5.6-11.9-17.7a27.841,27.841,0,0,0,4.05-2.5q1.3-.958.7-1.45a4.16,4.16,0,0,0-1.15-.7,1.335,1.335,0,0,0-.8-.05q-2.4,1.1-3.6,1.6-13.5,6.5-30.7,16.2-2,1.1-30.2,17.2a30.717,30.717,0,0,1-4.9,2.2,9.246,9.246,0,0,1-4.75.15,27.515,27.515,0,0,0-4.2-.8q-2.165-.242-4.8-.45a11.277,11.277,0,0,0-5.75,1.3,10.486,10.486,0,0,0-4.6,4.4,4.436,4.436,0,0,0-.1,4.7,4.618,4.618,0,0,0,4.2,2.2c.031,0,.314-.016.85-.05q3.329-.324,2.2.7l-8.05,8.05a9.657,9.657,0,0,0-1.7,2.2,2.994,2.994,0,0,0-.2,2.6,2.46,2.46,0,0,0,2,1.6,9.82,9.82,0,0,0,2.7-.3q1.158-.221.6.7-1,1.707-2.1,3.5-1.106,1.832-1.4,2.45a1.435,1.435,0,0,0,.2,1.35,2.392,2.392,0,0,0,1.15.95,1.965,1.965,0,0,0,1.55-.25l5.35-2.45q1.374-.535,1.35-.15a7.9,7.9,0,0,1-.45,1.9q-.462,1.561-.55,2a3.268,3.268,0,0,0-.05,1,1.817,1.817,0,0,0,.65,1.15q.563.481,2-.25,2.042-1.606,3.7-2.9,2.211-1.72,1.45-.3-.2.61-.55,1.5a9.549,9.549,0,0,0-.6,2.1q-.2,2.5,1.1,3.5a3.379,3.379,0,0,0,1.75.45,9.041,9.041,0,0,0,3.85-1.45,22,22,0,0,0,4.75-3.5q2.076-2.023,4.85-4.95,2.722-2.82,5.5-5.85a32.535,32.535,0,0,0,2.2-2.55q.969-.944,1.3.05.253.59.5,1.2a2.126,2.126,0,0,0,.7.9,1.608,1.608,0,0,0,.8.45,1.568,1.568,0,0,0,.95-.2,16.881,16.881,0,0,0,2.9-2.45,21.157,21.157,0,0,1,3.15-2.6l51.9-31a20.323,20.323,0,0,0,2.75-2q1.518-1.19,4.05-3.4,2.6-2.2,4.15-3.6m-101.95,20.5a17.007,17.007,0,0,1,3.5.2l3.4.4q2.3.2,6.7.5a9.989,9.989,0,0,0,6.4-2.3q2.4-2.1,3.3,1.7,1.8,8.3,2.2,9.5,1.052,3.093,2.75,7.45a1.944,1.944,0,0,1-.85,2.3q-.838.675-2.05,1.7-2.151,1.952-3.35,3.25-1.919,2-5.15,5.85-.766.967-1.65,2.05a14.269,14.269,0,0,1-3.4,2.8,9.832,9.832,0,0,1-2.3.9q-1.865.584-1.2-1.05l.2-.45q1.257-2.416,2.15-4.25.983-1.958,1.55-3.25a3.593,3.593,0,0,0,.2-1.45q0-.992-.55-1.2a2.466,2.466,0,0,0-2.25.5q-1,.855-2.7,2.35a23.45,23.45,0,0,1-1.95,1.35q-1.669,1.164-.8-.6,1.481-3.538,1.65-4.05a1.45,1.45,0,0,0-.1-.9,1.693,1.693,0,0,0-.7-.8,1.631,1.631,0,0,0-1.7.2q-.4.3-2.3,1.9-1,.8-3.1,2.5a12.012,12.012,0,0,1-1.35.85q-2.42,1.03-1.2-.65,1.48-1.835,4.45-5.5a16.375,16.375,0,0,0,1.4-1.8q.5-.758-.3-1.8-.756-.987-2.1-.15t-2.35,1.5a9.9,9.9,0,0,1-1.95,1.05,5.515,5.515,0,0,1-1.65.45q-2.4.549-1-1.25,3.642-3.664,5.55-5.4,4.1-3.2,6.1-5a1.826,1.826,0,0,0,.6-1,1.483,1.483,0,0,0,0-1.1,2.627,2.627,0,0,0-2.2-1.3,10.371,10.371,0,0,0-2.8.25q-1.794.348-2.85.45a12.524,12.524,0,0,1-1.95.05q-.9-.051-1.2-1.35a3.666,3.666,0,0,1,.5-2,5.184,5.184,0,0,1,1.4-1.7,9.553,9.553,0,0,1,5-1.7m33.3-8.8q.407-.783,1.15.05,2.241,2.614,1.15,2.45a6.339,6.339,0,0,1-2.2-.8q-.8-.6-.1-1.7m-3.2,3.45v5.35q-.042,1.212-1.25.5l-.35-.3q-3.1-3-2.8-4,.174-.888,2.3-2,2.186-1.107,2.1.45m20.85-11.95q-.553-1.4,1.45-2.4a33.482,33.482,0,0,1,4.7-2.6q1.877-1.037,1.95.65a4.527,4.527,0,0,1,.05,1.65q-.2,1.4-2.1,1.9-.395.1-.65.8a26.638,26.638,0,0,0-.55,2.65q-.2.893-.6,2.65-.6,2.616-1.5-.05l-1.1-2.15a19.191,19.191,0,0,1-1.65-3.1m-4.45,1.6q.838-.331.65,1.5l-.55,4.95q-.153,2.937-.85,1.15-.645-1.793-1.05-3.25a2.068,2.068,0,0,0-1.8-1.65q-1.3-.042.3-1.1a16.655,16.655,0,0,1,3.3-1.6m-5.4,6.3a5.165,5.165,0,0,1,.35,2.4q-.223,1.284-1.5,0a5.618,5.618,0,0,1-1.05-1.8,3.581,3.581,0,0,1,0-2.4q.4-1.4,1.3.15a10.423,10.423,0,0,1,.9,1.65m-2.9,7.25q.56-1.551,1.65-.05a5.153,5.153,0,0,1,1,4.95q-.9,2.252-1.85,0a8.791,8.791,0,0,1-.8-4.9m6.5,2.05a3.326,3.326,0,0,1-.6-2.05,2.619,2.619,0,0,1,1-1.25q.1-.1.45.25a1.888,1.888,0,0,1,.4,1.25,6.017,6.017,0,0,1-.2,2.05q-.236,1.212-1.05-.25m5.05-10.3q.16-1.81,1.3.3,1.041,2.044,2.55,5a12.44,12.44,0,0,1,.8,6.4q-.245,2.021-1.45.65a10.506,10.506,0,0,1-3.25-5.95,23.648,23.648,0,0,1,.05-6.4m30.25-15.75a5.172,5.172,0,0,0-2.45-1.65,2.831,2.831,0,0,0-2.1.55,2.883,2.883,0,0,0-1.25,2.3q-.095,1.556-.1,8.15-.154,1.622-.9.1a57.078,57.078,0,0,1-3.5-6.05q-.843-1.815-2.2-1.4-1.294.474-1.4,3.25v1.8q.087,2.232-1.05.65a19.016,19.016,0,0,1-1.65-2.45q-.807-1.552-1.4-2.7-.644-1.4,1.1-2.2l13.9-6.9a1.852,1.852,0,0,1,2.8.7q1.3,2,9.9,14.8.2.3.65.95a2.332,2.332,0,0,1,.45,1.3,1.281,1.281,0,0,1-.65,1.1,1.794,1.794,0,0,1-1.25.35,1.119,1.119,0,0,1-.9-.8l-2.8-4.6a54.674,54.674,0,0,0-5.2-7.25m-10.95,11.25q.051-2.485,1.45-.35a14.318,14.318,0,0,1,2.3,3.95,18.477,18.477,0,0,1,1.3,3.85,4.49,4.49,0,0,1,0,2.1,1.291,1.291,0,0,1-.6.85q-.7.372-1.7.85-1.5.877-1.1-.75.085-.492.15-1.15a6.108,6.108,0,0,0-.95-4.25,6.089,6.089,0,0,1-.9-3.1q0-.142.05-2m-7.45-.95q-.219-2.868.9-1,1.041,1.827,2.6,4.35a9.112,9.112,0,0,1,.9,3.9q.252,2.93-1.1.75-1.494-2.439-2.2-3.85a8.992,8.992,0,0,1-1.1-4.15m-.25,9.55q.242-1.578,1.2,0,.311.4.65.9a14.5,14.5,0,0,1,1.2,2.1,12.213,12.213,0,0,0,1.25,2.1q.739.927,0,1.3-.359.206-.75.4-2.175,1.011-3.65,1.65-.915.452-.7-.5l.8-7.95m20.45-12.7q1.6,2.63,3.7,6.4.541.975-1.3,2.05l-5.2,2.95a2.027,2.027,0,0,1-1.6.4q-.8-.3-.8-1.5,0-7.1.3-14.3-.011-1.616,1.55-.3a16.932,16.932,0,0,1,3.35,4.3m-33.05,23.25q.713-2.117,1.5-.95l1.15,1.4q1.4,2,1.3,2.5-.1.6-2.1,1.9-1.574.994-4.55,2.65-1.376.811-2-.3a5.02,5.02,0,0,1-.55-2.45,33.032,33.032,0,0,0,0-3.7,2.036,2.036,0,0,1,.8-1.6q.927-.826.8,2.15t.9,3.2a1.05,1.05,0,0,0,1.4-.85q.339-1.038.5-1.45.14-.342.85-2.5m-7.75,9.95q2.465-.934-2.5,2.7-4.959,3.678-5.55,1.35a24.461,24.461,0,0,1-.7-7.05q.086-1.99,1.75-.75a21.265,21.265,0,0,1,2.4,2.35q2.1,2.3,4.6,1.4m-8.1-11.1a10.105,10.105,0,0,1,.25-2.5q.291-1.485,1.35,0a4.6,4.6,0,0,1,.7,2.1q.086,1.017.1,3.25-.014.921-.95,0a4.4,4.4,0,0,1-1.45-2.85m-6.3,1.95q-.224-1.132,1.05-.55a4.614,4.614,0,0,1,2.15,2.6,6.667,6.667,0,0,1-.15,3.65q-.549,1.527-1.1,0l-1.95-5.7"/></svg>