<svg overflow="visible" width="100%" height="100%" viewBox="0 0 114.271 111.81" xmlns="http://www.w3.org/2000/svg"><path d="M51.4,110.47v-.95q-.3-.55-2.1-.55l-16.3-.1q-11.3-.2-15.35-.2t-3.75,1.7q.25,1.5,5.8,1.4H46a25.86,25.86,0,0,0,3.65-.05q1.549-.15,1.75-1.25M39.454,98.72a15.3,15.3,0,0,0-3.55-.55H23.5q-8.751.5-10.1.65-1.4.15-3.3.25a6.141,6.141,0,0,0-1.6.5q-1,.5-1,.8-.1,1.3,1,1.5h1.9q4.6-.3,15-.2,9.7.1,14.6-.3.95-.9.65-1.6a2,2,0,0,0-1.2-1.05m6.25-8.3a30.719,30.719,0,0,0,4.75.8q.7-.051.75-1.25.15-1.15-3.15-2a45.864,45.864,0,0,0-10.35-1q-8.1.1-12.2.1-4.151.249-10.25.2a87.978,87.978,0,0,0-10.05.3,1.745,1.745,0,0,0-.7.6,1.149,1.149,0,0,0-.4.8q0,.3.5.7a1.778,1.778,0,0,0,.8.5l3.9.1q3.4.2,20.1-.3,12.2-.4,16.3.45m-1.3-7.25a4.218,4.218,0,0,0,2.05-.4,2.771,2.771,0,0,0,1.05-1q.75-1.2-3.1-1.5l-37.1.8q-2.05-.051-2.4.3a1.281,1.281,0,0,0-.8,1.2q.2,1.1,1.7,1.3a24.2,24.2,0,0,0,2.5.1H25.1l19.3-.8M23,29.27a1.186,1.186,0,0,0-.2.9q1.3,5.5,2.7,10,1.15,2.449,2,1.7t-.2-4.95q-1.1-4.251-2.1-7.75-.1-.2-.7-.4a1.522,1.522,0,0,0-.9-.1,1.268,1.268,0,0,0-.6.6m2.7-7.9a2.021,2.021,0,0,0,.9,1.5l12,8.7a1.623,1.623,0,0,0,1,.1q.6-.1.7-.3a1.947,1.947,0,0,0-.9-2.5q-.9-.6-6.1-4.5a51.092,51.092,0,0,0-6.5-4.2q-1.3.1-1.1,1.2m6.6-8.75a3.16,3.16,0,0,0,.2.95q.249.9,3.05,1.9,2.749,1,7.1,2.2,4.35,1.149,4.25-.2-.551-1.551-3.85-2.6-3.351-1.1-6.85-2.15t-3.9-.1m-19,21.35a2.267,2.267,0,0,0-.9.45q-.45.349-.5,2.3a12.111,12.111,0,0,0,.3,3.35q.249,5.1,1.7,5.7,1.4.549,1-4.7l-.4-5.4a2.148,2.148,0,0,0-.4-1.2q-.4-.6-.8-.5M5.8,18.77q-.7.949,5.7,1.95,6.4.95,8.85-1.15a35.385,35.385,0,0,0,5.5-6.45,20.969,20.969,0,0,0,3.7-7.75q.649-3.5-1.15-4.8-1.8-1.35-1.05.5a5.215,5.215,0,0,1-.2,4.1,44.037,44.037,0,0,1-2,4.15,35.776,35.776,0,0,1-5,6.7q-2.55,2.6-4.75,2.65a32.566,32.566,0,0,1-5.6-.35q-3.351-.5-4,.45m91.9,11.8a3.308,3.308,0,0,0-2.25.1,3.411,3.411,0,0,0-1.65.95q-.4.5.55,3.45l.6,3.3a17.263,17.263,0,0,0-4.9-2.2,15.493,15.493,0,0,0-4.65-1.05,7.989,7.989,0,0,0-1.8.25,1.346,1.346,0,0,0-.9.6q-.4.8.75,2.3,2.85,3.649,9.95,8.1a22.512,22.512,0,0,0-4.15,2.15q-.651.45-1.25.85a1.711,1.711,0,0,0-.8,1.9q.2,1.4,1,1.7a16.018,16.018,0,0,0,2.45.5,13.64,13.64,0,0,0,3.9.35,14.9,14.9,0,0,1,2-.1q-.049,0-.9,3.55-.9,3.549-1.15,12.35-.3,8.749-1.2,9.35-.4.2-2,.8a1.8,1.8,0,0,1-1.7-.2,4.841,4.841,0,0,1-1-1.3,9.465,9.465,0,0,0-6.8-4.5,54.123,54.123,0,0,0-8.4-.5q-36.1,0-43.3.2-6.3.1-28.2,2a3.3,3.3,0,0,0-1.2.6q-.7.6-.7,1-.1,1.7,2.4,1.5,13.4-1.4,31.2-2.1,12.4-.4,37.3-.4,3.3,0,9.9.4a5.788,5.788,0,0,1,5.3,4.3q-18.1,3.9-20.3,4.5-7,2-9.15,3.8a17.886,17.886,0,0,0-3.55,3.95,5.859,5.859,0,0,0-1.2,3.8,7.367,7.367,0,0,0,.75,2.65,5.705,5.705,0,0,0,1.9,1.9,19.183,19.183,0,0,0,4.45,1.9,16.914,16.914,0,0,0,5.8.9q10.9-.2,15.7,1.4a8.741,8.741,0,0,0,3.5.1,40.193,40.193,0,0,1,20.5,1.6q3.1,1,5.85,1.75t2.85-.55q.2-1.9-3.7-2.75a57.969,57.969,0,0,1-7-1.95,34.192,34.192,0,0,0-17.2-1.1,10.994,10.994,0,0,1-4.9-.1,47.313,47.313,0,0,0-10.7-1.3q-7.1-.2-10.7-1.6-3.1-1.1-3.5-2.7t1.6-4.3q2-2.2,8.6-4.3,9.4-2.2,20.95-4.55,11.5-2.35,13.5-2.85a2.741,2.741,0,0,0,2.1-2.8q.15-2.351,1.6-11.25a107.872,107.872,0,0,0,1.55-12.85q.049-4.05.15-4.6a21.963,21.963,0,0,1,4,1.05,3.658,3.658,0,0,0,3.2-.15,2.94,2.94,0,0,0,1.5-1.7,3.323,3.323,0,0,0-1-2.35,9,9,0,0,0-1.85-1.9q-.649-.45-.35-2.75.251-2.3.3-4.4.05-2.151-1.3-2.3a2.592,2.592,0,0,0-2.45,1.05,17.435,17.435,0,0,0-2.4,3.75q-2.6-3.251-4.6-6.05-2-2.85-2.9-3.15m-1.35,2.75q-.1-2.7,3.7,3.35,3.8,6,4.9,6.8,1.1.75,2.9-3.05,1.749-3.8,1.7-2.8a32.331,32.331,0,0,1-.95,4q-.85,3,1.95,5.25,2.749,2.2-1.1,1.1a43.429,43.429,0,0,0-4.75-1.2,1.606,1.606,0,0,0-1.5.75q-.649.75-1.3,5.7-.15.35-1.35,10.2L99.1,77.52q-.2,1.749-.95,1.9a4.613,4.613,0,0,1-1.35,0q-.65-.15.45-9,1.05-8.85,1.3-10.1a52.534,52.534,0,0,0,.9-5.5l.15-1a5.125,5.125,0,0,0,.05-1.9q-.1-1.05-5.25-.8-5.2.249-3.75-.65,8.6-3.75,5.95-5.2-14.3-8.751-10.65-8.05,10.95,4.85,11.45,4.1.45-.8-1.05-8"/></svg>