<svg overflow="visible" width="100%" height="100%" viewBox="0 0 115.439 76.853" xmlns="http://www.w3.org/2000/svg"><path d="M.327,10.688a1.759,1.759,0,0,0-.1,1.9,10.075,10.075,0,0,0,4.8,5.3,11.032,11.032,0,0,0,7.2,1.3,60.68,60.68,0,0,0,9.4-2.2q5.7-1,8.7,1.7,5,5.2,2.1,9.8a13.647,13.647,0,0,0-1.8,5.9,40.134,40.134,0,0,0,.1,6.2q.4,4.9,3.8,7.2a41.068,41.068,0,0,0,6.5,3.9,16.361,16.361,0,0,0,7.5,1.7q3.1-.1,9.4.1,2.8-.1,2.6,2.6v2q0,2.9-.5,3.4-.4.6-3.2.7-8.8.3-8.9.3a9.159,9.159,0,0,0-2,.2,1.531,1.531,0,0,0-1.1,1.5,1.358,1.358,0,0,0,.5,1.5,4.938,4.938,0,0,0,1.3.3,2.107,2.107,0,0,1,1.5.6q.3.45-.95,2.3-1.249,1.8,2.45,1.6,1.7-.1,2.2.5.5.5.2,2.3a1.083,1.083,0,0,0,.8,1.4,2.1,2.1,0,0,0,2.1-.4,40.3,40.3,0,0,0,5.9-4.5,13.348,13.348,0,0,1,4.25-2.25q2.9-1.1,2.5-5.55a46.459,46.459,0,0,0-.85-6,2.114,2.114,0,0,1,1.6-2.6,17.593,17.593,0,0,1,3.5-.7q2.5-.3,2.6,1.9a46.725,46.725,0,0,0,.7,4.9q.4,2.8-1.55,3.7a23.555,23.555,0,0,0-5.45,3.85q-3.45,3-1.9,3.85a8.3,8.3,0,0,0,3.8.3q1.551-.1-.1,1.75-1.7,1.851-.8,2.85t2.8-.1a6.977,6.977,0,0,1,1.8-.8q.9-.1,1.9,1.1.8,1.1,1.7.8a2.868,2.868,0,0,0,1.2-2,9.86,9.86,0,0,1,.8-2.4,3.986,3.986,0,0,1,2.2-1.6q2.4-.9,2.7-1.7.3-.7-.4-3.5-2.1-8.7-2-12.3.1-5.8,6.1-10.5a68.8,68.8,0,0,1,10.8-7.6,30.054,30.054,0,0,1,12.7-3.8,3.743,3.743,0,0,0,3.7-2.3q.9-2.1-.8-4.6-7.4-10.7-17.6-11.2a165.27,165.27,0,0,0-30.7.9q-6.9.6-10.4,1a41.243,41.243,0,0,0-10.1,2.3q-3.3,1.3-2.7-2.4a10.548,10.548,0,0,0-1.1-7.2,21.6,21.6,0,0,0-5.1-5.2,13.156,13.156,0,0,0-7.45-2.5,39.459,39.459,0,0,0-7.15-.05,11.262,11.262,0,0,0-4.05,1.15,11.97,11.97,0,0,0-3.5,3.05,6.421,6.421,0,0,0-1.7,3.45q-.05,1.4-.8,1.8-.75.45-3.8.3a56.541,56.541,0,0,0-5.75-.1,2.708,2.708,0,0,0-2.1.9m27.5-8a10.815,10.815,0,0,1,6.6,1.9,29.591,29.591,0,0,1,4.5,4.3q1,1.3.8,4.7-.4,7.3,1.5,7.8a67.285,67.285,0,0,0,6.9-1.7q4.4-1.1,16-2.6,11.7-1.6,31.2-1.2,9.7.3,16.3,9.7,1.7,2.4-1,3a73.839,73.839,0,0,0-8.8,1.9,30.567,30.567,0,0,0-10.4,5.8q-3.1,2.6-9.2,7.9-6.2,5.7-16.7,6.4-12.5-.3-18.5-.3-6.2-.1-11.4-5.2a10.263,10.263,0,0,1-2.7-6.9,16.956,16.956,0,0,1,1.6-7.6q3.6-5.9-1.6-13.3-3.3-4.1-10.2-3.3a115.208,115.208,0,0,1-11.4,2.3q-5,.9-6.6-3.3h8q2.5,0,3.1-.5a6.353,6.353,0,0,0,1.2-2.9q.9-4.8,3-5.7,2.05-.949,7.8-1.2m36.5,53.05a14.07,14.07,0,0,1,.7,3.6q.4,3.351-.2,4.65a5.315,5.315,0,0,1-2.5,1.8,15.6,15.6,0,0,0-3.1,1.7,3.341,3.341,0,0,1-2.3.8,10.133,10.133,0,0,1-2.15-.7q-1.5-.6-1.2-1.3a1.984,1.984,0,0,1,1.45-1q7.4-.6,7.35-4.55-.05-4,.5-4.95t1.45-.05m13.35,3.2q-.249-5.449-.4-6.55a1.838,1.838,0,0,1,1.15-1.85q1.15-.549,1.25,5.8a35.86,35.86,0,0,0,.9,9.15q.8,2.8-.95,3.45a3.526,3.526,0,0,0-2.25,1.95q-.549,1.3-3.9-.7t-2.1-2.8a7.013,7.013,0,0,1,3.5-1.1q2.2-.249,2.65-1.05.4-.849.15-6.3m-18.6-36.9a8.924,8.924,0,0,0-2.85.6,1.261,1.261,0,0,0-.4,1.2q.05.851,2.95.85,2.85,0,12.2.5,9.3.5,8.8,1.8-3.05,8.3-5.65,10.3-2.9,2.3-11.5,1.9l-10.4-.9a2.169,2.169,0,0,0-2.3,1.1q-.249.3.6.65a64.181,64.181,0,0,0,8.05,1.3,44.663,44.663,0,0,0,14.15-.35,8.885,8.885,0,0,0,5.8-4.6q.8-1.4,2.8-5.75,1.95-4.4,1.1-5.6t-6.3-1.85q-5.5-.7-8.7-.9a39.581,39.581,0,0,0-8.35-.25"/></svg>