<svg overflow="visible" width="100%" height="100%" viewBox="0 0 104.08 105.946" xmlns="http://www.w3.org/2000/svg"><path d="M59.563,21.017a34.921,34.921,0,0,0-4-7.85,26.054,26.054,0,0,0-3.25-3.9,83.051,83.051,0,0,0-8-6.55,13.063,13.063,0,0,0-5.85-2.45,25.077,25.077,0,0,0-5.4-.2,27.094,27.094,0,0,0-4.1.6,6.365,6.365,0,0,0-1.15.3,25.192,25.192,0,0,0-7.1,3.3,69.615,69.615,0,0,0-14.1,12.7q-6.4,7.5-6.6,19.3a50.154,50.154,0,0,0,6.3,25.7,88.452,88.452,0,0,0,5.5,8.8q2.3,3.2,6.9,9.5a106.651,106.651,0,0,0,7.4,8.9,100.747,100.747,0,0,0,8.3,7.7q2.9,2.5,8.8,7.4a6.179,6.179,0,0,0,4.5,1.65q2.1-.3,5.05-3.65a102.461,102.461,0,0,1,9.75-9.15q6.8-5.85,18.4-14.8,11.6-9,13.65-10.95a36.839,36.839,0,0,0,4.8-6.3,29.437,29.437,0,0,0,3.7-7.9,33.67,33.67,0,0,0,1-8.2,29.839,29.839,0,0,0-.05-3.1,33.652,33.652,0,0,0-3.7-13.15,84.672,84.672,0,0,0-5.05-8.5,23.808,23.808,0,0,0-5.4-5.2q-3.5-2.6-10.75-3.8t-11.65,3.2a39.576,39.576,0,0,0-5.75,6.7q-1.35,2.349-2.15-.1m7.15-1.95a12.422,12.422,0,0,1,10.3-5q11.2.3,17,9.2,7.4,11.5,7.25,21.15-.251,13.849-12.85,23.95-17.3,13.8-25.95,21.3t-11.35,10.4q-2.7,2.85-3.4,2.7t-10.75-7.65q-10.05-7.551-21.35-23.55-9.3-13.4-12-25.3-2.8-13,2.6-23.7,2.5-5,9.9-11.6,7.751-7.151,16.5-8a28.97,28.97,0,0,1,4.05-.1,10.779,10.779,0,0,1,3.45.9,16.562,16.562,0,0,1,3.85,2.35q1.95,1.5,3.55,2.95a32.469,32.469,0,0,1,8.6,12.3q2.749,6.949,1.95,10.2-.8,3.2-1.35,6.15-.6,2.9.05,3.8.6.849,2.15-2.25a45.274,45.274,0,0,0,2.15-5.25,40.821,40.821,0,0,0,1.2-6.1q.551-4.05,4.45-8.85"/></svg>