<svg overflow="visible" width="100%" height="100%" viewBox="0 0 116.957 105.497" xmlns="http://www.w3.org/2000/svg"><path d="M78.8,26.642q.8-5.7,0-8.3-3.6-10.1-10.5-15.3-4.3-3.4-8.2-3-14,1.6-20.3,9.2-3.8,4.6-11.05,13.7-6.2,7.751-6.45,9.65c-.033.2.083.3.35.3a15.224,15.224,0,0,0,1.9-.3q1.9-.5,5.75.65a23.045,23.045,0,0,0,5.2,1.1,8.766,8.766,0,0,0-3.4,3.7q-1.3,3-4.2,9.3a70.921,70.921,0,0,0-4,9.9,13.213,13.213,0,0,0-.25,6.9c.033.167.084.367.15.6q.1.45.25.95.249,1.1-.95,1.15-.75,0-1.75.05a1.119,1.119,0,0,0-.35.05,66.558,66.558,0,0,1-7.4,0,36.585,36.585,0,0,0-5.05-.05,3.655,3.655,0,0,0-3.4,2.8,13.214,13.214,0,0,0-.8,4.9q.05,2.25-2.65,4.25a5.249,5.249,0,0,0-1.7,4.3q0,2.3,3.75,4.15,2,1.1,1.15,2a3.9,3.9,0,0,0-.9,2.85q-.05,1.95,1.2,2.5a6.533,6.533,0,0,0,3.4.15,23.819,23.819,0,0,0,3.65-.85q1.451-.55,1.55.6a9.959,9.959,0,0,0,.1,1.3q.4,3.8,1.2,4.7a15.015,15.015,0,0,0,4.6,3.6,7.881,7.881,0,0,0,5.8.2,28.634,28.634,0,0,1,6.8-1.3,11.665,11.665,0,0,1,5.3.3,39.675,39.675,0,0,0,14.7,2.1q4.6-.3,13.8-.8a41.936,41.936,0,0,0,13.4-3.4q8.2-3.8,13.15-4.35a29.231,29.231,0,0,0,6.3-1.2q1.35-.649,1.75-.9.35-.251,2.8-1.65l9.8-4.7q1.05-.4,2.4-.9a1.918,1.918,0,0,0,1.25-2.1l-.8-15.7q-.9-5.351-3.65-6.6-2.1-.9-2.9-1.2-1.8-.6-2.1-1.6a4.032,4.032,0,0,1,.4-2.9,23.016,23.016,0,0,0,1.2-8.3q0-5.3-1.1-5.9a3.463,3.463,0,0,1-1.35-3.6,31.356,31.356,0,0,0,.45-4.9q0-2.65-2.8-1.1a28.309,28.309,0,0,1-5.95,2.45,34.013,34.013,0,0,1-4.95,1.1q-1.749.2-2.3.3a18.146,18.146,0,0,1-2.6.05,9.611,9.611,0,0,1-4.4-1.4q-6.2-3.8-5.3-9.5m-8.2-16.5a20.178,20.178,0,0,1,2.9,5,21.054,21.054,0,0,0,2,3.55,6.665,6.665,0,0,1,1.1,3.95q-.5,4.5-.5,5.4t-.2,2.9a3.4,3.4,0,0,0,.5,2.4q2.6,2.8,4.3,4.3a10.1,10.1,0,0,0,4.2,2.2,20.26,20.26,0,0,1,5.6,2.7,15.55,15.55,0,0,1,5,5.7,10.558,10.558,0,0,0,3.8,4.2,6.187,6.187,0,0,1,3.4,5.2,6.69,6.69,0,0,1-2.7,5.6q-11.8,10.3-22.1,14.9a53.334,53.334,0,0,0-8,4.45,13.734,13.734,0,0,1-9.3,2.4,50.144,50.144,0,0,1-6-.9,14.667,14.667,0,0,1-1.7-.55,14.185,14.185,0,0,0-2.6-.7,27.428,27.428,0,0,1-2.7-.6q-12.8-3.6-18-13.7a10.916,10.916,0,0,1-.7-4.7,16.3,16.3,0,0,1,1-5.7q1.5-4.9,1.7-5.6a63.5,63.5,0,0,1,4.4-12.1,14.939,14.939,0,0,1,3.5-5.1,7.268,7.268,0,0,1,6.1-1.4q3.1.5,4.9-5.05a14.242,14.242,0,0,0-1.45-11.45q-3.25-5.9-1.35-8.1a9.989,9.989,0,0,1,5.6-3.1,15.883,15.883,0,0,1,6.8-.3q1.8.4,5.4,1.3a8.765,8.765,0,0,1,5.1,2.9m22.6,30.3q-1.1-1.151,10.1-2.7,2-.45-.8,8.75-.6,1.95.4,2.45,2.6,1.7,2.9,2.5a4.367,4.367,0,0,1,.05,2.3q-.25,1.65-1.3.45L93.2,40.442m-58.1-17.8a14.85,14.85,0,0,0,2.7-2,6.9,6.9,0,0,0,1.4-3.65,4.082,4.082,0,0,1,2.9-3.45q2.6-1,4.2,4.45a45.9,45.9,0,0,1,1.6,6.3q.05.75.1,2.6a4.048,4.048,0,0,1-1.25,3.05,4.766,4.766,0,0,1-3.65,1.1,12.1,12.1,0,0,1-4.1-.8l3.7-1.1a12.492,12.492,0,0,0,2.1-.65q.45-.3.2-1a1.24,1.24,0,0,0-1.15-.8,4.4,4.4,0,0,0-1.45-.05q-8.4,1.7-13.5,2.7a18.43,18.43,0,0,1,6.2-6.7M27,74.542q1.7,4.8,4.8,6.6a68.321,68.321,0,0,0,10.95,5.45,24.413,24.413,0,0,0,8.9,2,25.3,25.3,0,0,1,7.05.85,20.389,20.389,0,0,0,4.85.95,25.785,25.785,0,0,0,3.2-.4,6.336,6.336,0,0,0,3.05-1.3,11.09,11.09,0,0,0,2.05-2.75q1-1.849,9.7-5.9,8.65-4.1,21.75-15.5,1.7-1.4,2.5-1.1a16.323,16.323,0,0,1,5.1,2.45,4.313,4.313,0,0,1,1.5,2.25q.25,1.1.65,2.8a23.856,23.856,0,0,1,.45,3.4q.35,6.7.6,9.7,0,1.15-1.6,1.9-5.35,2.45-9.35,4.65a28.521,28.521,0,0,1-7.4,3q-2.951.551-6.6,1.5t-6.65,1.95q-6,2.1-9.1,3a39.847,39.847,0,0,1-9.5,1.8q-8.7.6-13,.6a38.068,38.068,0,0,1-13-2q-1.8-.6-6.8,0-.4,0-6.8,1.2a6.594,6.594,0,0,1-4.4-.4,7.556,7.556,0,0,1-2.7-3.8,17.7,17.7,0,0,1-.85-3.95q-.15-.75,1.15-1.1,4.35-1.15,5.1-1.4a1.3,1.3,0,0,0,.95-1.75q-.4-1.45-2.35-.7-3.4,1.1-5.2,1.5l-5.7,1.2a9.788,9.788,0,0,1-1.05.15q-1.3.15-1.65-.75-.3-1.15,1.15-1.9,1.451-.8,3-1.65t1.45-1.55a.977.977,0,0,0-.85-.9,2.2,2.2,0,0,0-1.45.2q-.75.35-1.55.75a1.236,1.236,0,0,1-1.8-.25A7.981,7.981,0,0,0,4,82.092q-1.9-.75-.25-1.55,6.851-3.45,14.05-6.3,3.15-1.6-.3-1.1l-8.1,1.1a2.806,2.806,0,0,1-1.4-.1,1.327,1.327,0,0,1-.55-1.15q-.25-1.751,1.45-1.9,1.55-.15,4.1-.45,2.7-.5,8-1.1,1.4-.15,2.35-.3,1.849-.3,2.05.7.2.6.4,1.25.551,1.55,1.2,3.35m13.55-52.55q-1.2,1.35.35,2.45,1.05.6,2.95-1.65,1.849-2.3-.45-2.2a3.86,3.86,0,0,0-2.85,1.4m15.05,29.4q.75.649,5.7.85t10.45.95q5.5.7,5.9,1.7a1.892,1.892,0,0,1,0,1.7,19.7,19.7,0,0,1-2.45,2.45,71.721,71.721,0,0,1-9.2,7.15q-2.749,1.9.5,1.15l11.2-2.9q2.3-.6-.5,1.9-8.6,8.9-20.5,7.9a4.148,4.148,0,0,1-2.5-1.4,12.778,12.778,0,0,1-4.1-7.7,36.451,36.451,0,0,0-.6-3.9q-.4-1.95-1.65-1.75-1.8.251-1.15,3.9a23.735,23.735,0,0,0,1.4,5.45,15.53,15.53,0,0,0,4.8,6.5,10.141,10.141,0,0,0,8.6,1.9q14-2.6,21.4-13.7,1.95-2.9,1.35-3.55t-2.25-.2a25.816,25.816,0,0,0-3.8,1.3q-4.15,2.15-1.05-.5a16.478,16.478,0,0,0,3.8-4.05,4.721,4.721,0,0,0-.55-5q-.7-.7-3.5-.9l-11.3-.9q-4-.3-8-.3-1.8.1-2.25.7-.5.55.25,1.25m.8-35.55a2.65,2.65,0,0,0-2.1,1.4,5.433,5.433,0,0,0-.7,3.2,3.339,3.339,0,0,0,1.4,2.5,4.236,4.236,0,0,0,3.2.9,3.362,3.362,0,0,0,2.4-1.3,3.9,3.9,0,0,0,1.1-2.7,3.722,3.722,0,0,0-1.6-2.9,5.757,5.757,0,0,0-3.7-1.1"/></svg>