<svg overflow="visible" width="100%" height="100%" viewBox="0 0 65.173 116.6" xmlns="http://www.w3.org/2000/svg"><path d="M47.845,6.4q-17.2-4.2-23.3-3.5-7,.8-21.7,9.4Q-1.505,15.7.8,29.5T3.845,43.3A3.216,3.216,0,0,0,5.7,42.25q1.1-1.05,1.5-4.6.4-3.6,1.05-6.8a3.6,3.6,0,0,1,3.7-3.35q4.2-.2,13.4-.8,2.7-.1,3.1,3.35.4,3.4.351,17.9Q28.745,62.4,27.146,93.7v15.4a7.854,7.854,0,0,0,2.1,5.3,7.5,7.5,0,0,0,5.3,2,53.616,53.616,0,0,1,7.6.2q4.5-.2,5.7-3.6a28.556,28.556,0,0,0,1.7-9.4q0-6.5.1-9.7.1-3.3.1-5a30.273,30.273,0,0,0-.5-4.8q-2.9-12.8-4.1-36.9a120.921,120.921,0,0,0-1.2-14.3q-.349-4.849-.6-6.25,1.751-.4,4.2-1.05,1.2-.2,3.5-.8a2.673,2.673,0,0,1,2.8,1.9,6.4,6.4,0,0,0,2.2,3,6.774,6.774,0,0,0,3.5.2,7.815,7.815,0,0,0,3.8-1.4,4.518,4.518,0,0,0,1.5-3.4A58.847,58.847,0,0,0,63.345,4q-1.1-4-5.6-4a7.941,7.941,0,0,0-4.5,1.2,4.184,4.184,0,0,0-2.2,3.3q-.2,1.8-1.1,2.1a4.248,4.248,0,0,1-2.1-.2M10.345,11a32.033,32.033,0,0,1,20.4-5q6,.5,21,4.5,2,.7,2.4-.9a7.575,7.575,0,0,0-.1-3.2q-.4-3,2.7-3.3,3.9-.4,4.1,2.4.5,6.3,1.1,18.7.1,2.4-2.8,2.7a2.52,2.52,0,0,1-3.2-2.1l-.6-1.9q-.2-1.9-2.4-1.4-9.2,2.2-10.1,2.3-1.6.2-5.5.25-3.949.049-5.3.15A9.512,9.512,0,0,1,29,23.85a18.083,18.083,0,0,0-4.65-.4,46.806,46.806,0,0,0-4.9.3q-2,.251-4,.45-2.049.15-4.6.35A4.563,4.563,0,0,0,7,27.35a22.981,22.981,0,0,0-1.75,7.95q-.45,5.3-1.1-1.4A110.919,110.919,0,0,1,3.5,21.55q.051-5.65.45-6.25.3-.5,6.4-4.3m21.2,16.2q.5-.6,1.9-.2a16.916,16.916,0,0,0,6.3.25q1.451-.2,1.5,1.35.2,6.251.3,7.8.3,3,1.4,22.3a136.163,136.163,0,0,0,2.8,22.1,56.62,56.62,0,0,1,1.4,14q0,5-.9,14.1-.1,4.1-3.1,4.8-.2.1-6.6.2-3.6,0-5.2-1.4-1.6-1.5-1.6-5-.1-14,0-18.6a146.561,146.561,0,0,1,1.4-18.5,137.481,137.481,0,0,0,1-20.5q-.1-5-1-20.6a2.83,2.83,0,0,1,.4-2.1"/></svg>