<svg overflow="visible" width="100%" height="100%" viewBox="0 0 115.172 62.651" xmlns="http://www.w3.org/2000/svg"><path d="M95.359,7.3a146.465,146.465,0,0,0-20.8-.4q-13.8.9-20.8,1.1-3.5.2-4.9,1.7-1.4,1.4-1.6,5a3.482,3.482,0,0,1-.9,2.5,4.378,4.378,0,0,1-2.4.6q-2.2.1-2.6-1.7,0-2.3-.1-3.4a6.761,6.761,0,0,0-.8-3.6,5.831,5.831,0,0,0-3.2-1.7,27.749,27.749,0,0,0-4.65-.8q-2.351-.2-2.35-.55a8.855,8.855,0,0,0-.75-1.75,11.654,11.654,0,0,0-1.65-2.45A7.255,7.255,0,0,0,25.359.2a3.3,3.3,0,0,0-3.4.8,8.714,8.714,0,0,0-2.7,3.15,3.381,3.381,0,0,1-2.1,2,13.491,13.491,0,0,0-3.5,1.5,49.615,49.615,0,0,0-5.7,3.5,17.368,17.368,0,0,0-5.75,7.55q-2.351,5.25-2.2,8.75.15,3.45.35,10.05.1,3.8.15,9.3.049,2.151.2,3.75.1,1.551,1.2,1.6h2.4q1.25-.05,5.85-.05a25.084,25.084,0,0,0-1.2,5,4.745,4.745,0,0,0,2.3,4.2q2.5,1.8,7.1,1.2,4.6-.5,6.6-2.8,2-2.2,1.6-4.1t-3.4-5q4.55-.45,9.8-.85t6.05-1a1.9,1.9,0,0,0,.8-1.6q.05-1,.3-3.85t2.6-3.1q2.35-.3,2.65.4a10.537,10.537,0,0,1,.25,2.9q0,2.2-.05,3.2a11.172,11.172,0,0,0,0,1.5q.05.5.75.55a21.762,21.762,0,0,0,2.65.1q2,.05,1.95.85a9.959,9.959,0,0,1-1.65,3.3q-2.9,4.1,1.7,7.2,4.4,3,8.4,1.4,4.5-1.8,4.4-5.8-.2-3.2-3.1-7.4-.8-.95,8.1-.75,8.051.15,26.5.8-3.5,5.751-1.4,8.85a8.139,8.139,0,0,0,6.5,3.45q4.4.3,6.5-1.8t1.25-5.9q-.9-3.8.85-3.75,1.7,0,3.4-.1t2.45-11.65a152.058,152.058,0,0,0,.05-20.25q-.7-8.7-1.6-9.2a4.126,4.126,0,0,0-2.5-.4,123.348,123.348,0,0,1-15.4-.4m-29.65,2.75q13.65-.35,17.45-.15,16.8.5,25.4.7a4.3,4.3,0,0,1,2.5.7,3.138,3.138,0,0,1,.7,2.5l-.5,22.2q0,2.25-.6,8.7a1.666,1.666,0,0,1-2.05,1.7q-1.95-.3-4-.55a94.926,94.926,0,0,0-10.05-.55q-7.9-.1-10.6-.3a144.315,144.315,0,0,0-18.8-.2l-14.5,1.25q-2.1.1-2.2-1.7.049-2.749.5-9.65.5-8.3,1.1-8.8.7-.6,4.1-.5l38.7,1q2.749.2,6.6.3,3.8.1,6.25.15,2.4,0,1.95-1.5-.35-1.35-4.1-1-1.2.05-1.35-.8-.1-.649-.15-1.05a5.725,5.725,0,0,1,.1-2.7q.4-.4,2.7-.4a7.688,7.688,0,0,0,1.8,0,1.345,1.345,0,0,0,1.1-1.1q0-1.4-2.5-1.7-12.5-1.6-18.7-2.2a108.448,108.448,0,0,0-18.8-.5q-10.6.4-13.6.5-3,.051-3.45-.45a1.2,1.2,0,0,1-.35-1.05,3.037,3.037,0,0,1,.9-1.6q.8-.95,14.45-1.25m-51.05.15a17.332,17.332,0,0,1,2.8-1.15,21.4,21.4,0,0,1,4.75-.6,33.088,33.088,0,0,1,7.05.35q3.4.5,5.65.8a5.715,5.715,0,0,1,2.85.9,3.518,3.518,0,0,1,.9,1.75,12.572,12.572,0,0,1,0,3.2,28.748,28.748,0,0,0-.25,3.35q0,1.25-.05,2.45-.1,1.15-.15,2.05t-.05,1.8q.1,6.1.1,7.7a73.692,73.692,0,0,1-.5,7.45q-.45,3.15-.8,4.95a2.517,2.517,0,0,1-2.25,2.05q-1.85.3-12.85.85-11,.5-15.9,1-1.1.1-1.9.25-1.151.1-1.15-1.25.05-.7.05-1.4l-.2-19.3a13.446,13.446,0,0,1,.6-4.8q3.5-7.7,6.6-9.65a50.666,50.666,0,0,1,4.7-2.75m12-6.45q2.1,2.1-1.8,2.15-3.9,0-3.6-.95a4.4,4.4,0,0,1,1.75-2.15q1.5-1.149,3.65.95m30.5,13.45a1.55,1.55,0,0,1,1.45-.5,3.1,3.1,0,0,1,1.6.6q.65.5.55,3.05-.15,2.5-1.95,2.3-1.9-.249-2.05-2.6-.2-2.349.4-2.85m-3.6.5q.7.6.6,2.7-.1,2.3-2.6,1.9-2.3-.4-2.2-2.3.05-1.5.05-2.4.05-.9,1.9-.6a4.731,4.731,0,0,1,2.25.7m-7.4,3.2V34.4q.1,2.8-3,2.8-2.7,0-2.5-2.8l.4-9.3q.2-3.1.8-3.7.7-.5,4.3-.5m-24,32.85q1.7,1.551,1.25,2.8a4.3,4.3,0,0,1-1.15,1.85,11.658,11.658,0,0,1-2.6,1.45,6.342,6.342,0,0,1-3.4.65q-3.649-.649-4.15-1.85a3.469,3.469,0,0,1-.25-2.2,5.648,5.648,0,0,1,.6-1.75q1.4-2.5,5.55-2.5a5.938,5.938,0,0,1,4.15,1.55m38.6,2.95q-.5,2.4-3.4,2.4a12.558,12.558,0,0,1-3.85-.8q-1.849-.7-2.1-1.6t1.6-4.4q1.849-3.6,4.3-2.25a6.821,6.821,0,0,1,3.1,2.8,7.286,7.286,0,0,1,.35,3.85m44.95-4.95a10.37,10.37,0,0,1-.6,4.65q-.649,1.8-5.45,1.5-3.6-.2-3.25-3.1a23.815,23.815,0,0,1,.95-4.4q.6-2,4.35-1.45t4,2.8m-6.55-31.8a3.262,3.262,0,0,1,0,2.85,2.376,2.376,0,0,1-2.4,1q-1.8-.2-2-1.4a11.954,11.954,0,0,1-.15-2.4q.05-1.2,1.95-1.45a2.2,2.2,0,0,1,2.6,1.4m-7.3.55a4.472,4.472,0,0,1-.2,2.1,1.922,1.922,0,0,1-2,.8,3.571,3.571,0,0,1-2.6-.8,5.09,5.09,0,0,1-.9-2.8q-.1-2.5,2.3-2.2a4.561,4.561,0,0,1,2.8.6q.6.5.6,2.3m-7.9-.45q-.1,2.951-1.1,3.15a8.577,8.577,0,0,1-1.9.1q-2,0-2.6-1a5.079,5.079,0,0,1-.75-2.8q-.05-1.8.9-2.15a8.773,8.773,0,0,1,3.25-.35q2.3.051,2.2,3.05m-9.2-2.15a7.927,7.927,0,0,1,.3,2.4q.3,2.6-2.5,2.5a2.284,2.284,0,0,1-2.1-1.1,9.372,9.372,0,0,1-.3-2.3q-.1-2.7,2.5-2.6,1.7,0,2.1,1.1M64.809,23q-1.2-.3-1.4-1a11.908,11.908,0,0,1-.45-2.3q-.2-3.3,1.5-2.95a10.635,10.635,0,0,1,2.4.65q.7.3,1.2,2.3a2.475,2.475,0,0,1-.85,2.8,2.962,2.962,0,0,1-2.4.5m-37.65-4.6q1.9-4.2-1.7-5.3a19.513,19.513,0,0,0-5.95-.45,21.728,21.728,0,0,0-5.9.75,3.486,3.486,0,0,0-2.45,2.35,20.746,20.746,0,0,0-.7,2.45,9.09,9.09,0,0,0-.1,2,4.291,4.291,0,0,0,.85,2.4,3.11,3.11,0,0,0,1.95,1.4,31.579,31.579,0,0,0,5.95.35q3.85-.049,4.6-.5a6.884,6.884,0,0,0,1.85-2.5q1.1-2.049,1.6-2.95m-2.85-2.75q1.05.2-.3,3.3a4.977,4.977,0,0,1-4.8,3.1,11.642,11.642,0,0,1-4.5-.5,1.9,1.9,0,0,1-1.05-2.05q.2-2.6.8-3.2a4.567,4.567,0,0,1,2.6-.95,20.653,20.653,0,0,1,4.1-.1,21.329,21.329,0,0,1,3.15.4"/></svg>