<svg overflow="visible" width="100%" height="100%" viewBox="0 0 94.142 115.216" xmlns="http://www.w3.org/2000/svg"><path d="M66.169,7.157a43.343,43.343,0,0,0-3.75,2.45,35.649,35.649,0,0,0-4.7,4.8,38.668,38.668,0,0,0-4.85,6.7q-12,22-21.3,34-13.7,17.5-29.7,26.25-2.9,1.551-1.3,3.75a11.052,11.052,0,0,0,4.1,3q7.3,3.4,14.9,12.1,4.5,5.4,14.4,13.6,2.2,1.8,3.4,1.3,1.1-.5,1.9-3.5a34.056,34.056,0,0,1,1-3.3q.1-.2,6.95-13.05t9.25-16.25q2.349-3.45,6.15-10.35a164.661,164.661,0,0,1,12.75-18.65q8.9-11.8,12-17.5a28.418,28.418,0,0,0,3.1-7.3q.5-3.8-1.35-5.75-1.9-1.95-1.95-2.7a2.251,2.251,0,0,1,.8-1.75,34.376,34.376,0,0,0,2.65-3.75q1.8-2.8,3.05-4.9t-.8-4.2q-2.1-2.149-3.3-2.15a4.764,4.764,0,0,0-2.9,1.2l-4.7,3.7a11.948,11.948,0,0,1-3.55,2.3,2.971,2.971,0,0,1-2.7-.3,9.3,9.3,0,0,0-4.3-.95,8.846,8.846,0,0,0-5.25,1.2m4.9,2.15a5.167,5.167,0,0,1,3.8.2q8,4.2,13.1,14.4.4.8-1.2,3.9a115.381,115.381,0,0,1-8.5,13.4q-3,4.2-9.4,12.7a480.99,480.99,0,0,0-27.2,45.9l-30-21.3q13.5-9.4,25.3-25.8,7.4-10.4,18.8-31.2a24.942,24.942,0,0,1,15.3-12.2m19.35-5.45a1.179,1.179,0,0,1,.25,1.45,53.578,53.578,0,0,1-4.7,6.8q-1.4,1.551-2.4.5-1-1.1-2.6-2.7-.651-.9,2.7-3.1,3.3-2.2,4.15-2.85a3.573,3.573,0,0,1,1.35-.8q.549-.1,1.25.7M5.869,81.607q2.7-1.7,4-.45,1.25,1.251.75,2.1t-1.45,2.35q-1,1.5-2.9.3-1.251-1.05-2.05-1.7-.851-.649-.15-1.3l1.8-1.3m22.3,12.3q.9-.1,2.8,1.7a2.463,2.463,0,0,1,.3,3.4,24.505,24.505,0,0,1-2.7,3.75q-1.2,1.4-2.55,0l-2.65-2.35q-.851-.8.35-2.4.45-.549,1.05-1.3,2.4-2.8,3.4-2.8m-8.15-4.45a1.957,1.957,0,0,1,2.65-.35q2.9,1.7-.4,5.95a11.256,11.256,0,0,0-.9,1.2q-.7,1.15-1.55.35l-2.05-2a1.721,1.721,0,0,1-.7-1.7q.1-.5,2.95-3.45m-2.7-3.5q1.449.95.7,1.65t-2.05,1.95a1.961,1.961,0,0,1-2.5.55q-1.3-1.1-2-1.6-.4-.3.6-2.2t1.75-1.9a4.771,4.771,0,0,1,2.05.7l1.45.85m13.2,21.45q-1.35-1.1-.1-2.7,1.149-1.549,2-2.8a5.486,5.486,0,0,1,2.4-2.2,1.942,1.942,0,0,1,2.1.25,3.634,3.634,0,0,1,1.3,1.55q.249.75-1,3.8a38.408,38.408,0,0,1-1.9,4.1q-.65,1.1-1.15.65-2.351-1.6-3.65-2.65m34.25-74.55a2.664,2.664,0,0,0-2.7-1.25q-1.551.2-1.95,3.65-.6,5.451-6.45,8.95-.8.5-9.3,6.5a14.719,14.719,0,0,0-5.05,5.8,41.114,41.114,0,0,0-1.95,4.5,15.174,15.174,0,0,0-1.4,5.3,21.576,21.576,0,0,0,1.15,5.15,32.607,32.607,0,0,0,1.4,3.65q.8,1.85,1.8.2.949-1.3,2.2-3.45a21.123,21.123,0,0,1,4.7-5.6q2.55-2.1,16.5-13.2,4-3.3,4.95-6.5a12.782,12.782,0,0,0-.8-8.15,26.442,26.442,0,0,0-1.25-2.8,14.79,14.79,0,0,0-1.85-2.75m-2.65,5.85q.75-3.75,1.35-.05.649,3.65-2.7,7.15a19.42,19.42,0,0,1-9.15,5.2q-4.65,1.1-.5-1.3a35.263,35.263,0,0,0,4.05-2.85,50.972,50.972,0,0,0,5.3-4.75,7.732,7.732,0,0,0,1.65-3.4m3,5.35q.849-1.3,1,.2a4.073,4.073,0,0,1-.95,2.75q-.5.551-.95,1-1.7,1.35-1.05-.5a9.926,9.926,0,0,1,.45-1.05,27.012,27.012,0,0,1,1.5-2.4m-20.2,14.4a16.225,16.225,0,0,1,6.75-3.85q3.3-1.1.45,1.3a39.827,39.827,0,0,0-7.65,7.85q-1.7,2.451-1.65-.4a7.6,7.6,0,0,1,2.1-4.9"/></svg>