<svg overflow="visible" width="100%" height="100%" viewBox="0 0 116.808 79.404" xmlns="http://www.w3.org/2000/svg"><path d="M2.8,9.764a2.393,2.393,0,0,0-1.95,1.1,10.709,10.709,0,0,0-.6,3.2,40.691,40.691,0,0,0-.25,4.4l.9,42.85q0,5.85.15,9.15a29.681,29.681,0,0,0,.2,3.95,9.261,9.261,0,0,0,1.15,2.25q.95,1.551,4.35,2.45,3.35.9,14.6-1a207.725,207.725,0,0,1,26.35-2.6,229.556,229.556,0,0,0,29.1-3.05q13.9-2.45,17.8-2.95,5.8-.8,17.3-2.1,2.9-.4,3.9-1.5a6.276,6.276,0,0,0,1-4,149.484,149.484,0,0,0-1-17.7q-1.4-11.8-2.1-17.7-2-18.3-2.5-22.1-.4-3.2-1.3-3.9-.8-.6-4.2-.5-15.1.6-22.6,1-13,.7-22.5,1.7L6.1,9.364q-1.8.15-3.3.4m1.85,3a29.439,29.439,0,0,1,5.35-.7q6.5-.549,26.8-3.35,40.55-4.9,67.8-5.95a25.354,25.354,0,0,0-2,1.85q-2.9,3.1-8.6,9.3-5.1,5.4-9,8.8-3.8,3.3-11.8,9.5-7.9,6.3-11.8,9.5a9.1,9.1,0,0,1-3.8,2.1q-1.8.4-18.5-7.5-16.7-7.95-27.2-17.6a51.211,51.211,0,0,0-7.25-5.95m-1.3,20q.049-8.649-.05-13.45-.1-2.6-.05-4.05A13.419,13.419,0,0,0,6,17.964q2.3,1.9,3.65,3,1.35,1.151,3.05,2.5t5.3,3.9a92.1,92.1,0,0,0,8.55,5.4q4.95,2.751,9.4,5.45,4.4,2.651,4.35,3.8-.1,1.1-5.95,5-9.9,6.6-16.45,10.45-6.55,3.8-9.35,5.7-2.85,1.9-3.85,2.45-1.05.55-1.1-3.45-.1-4.05-.2-10.15-.1-10.6-.05-19.25m62.95,8.7a2.433,2.433,0,0,1,2.6-.65q7.2,2.1,22,5.2,13,3.3,21,8.2,1.7,1.1,2.5,4.3t-.3,4.8a4.108,4.108,0,0,1-2.4,1.2q-1.8.3-2.7.4-4.9.6-28.2,4.1-17.3,2.5-28.3,3.5-14.1.6-16.4.8a125.181,125.181,0,0,0-16.3,2,54.559,54.559,0,0,1-10.35,1.15q-4.95.051-5.25-3.2t.05-3.6q.349-.4,14.6-9,14.2-8.649,18.6-12.45a33.721,33.721,0,0,1,5.95-4.55q1.5-.7,6.8,1.45,5.3,2.1,7.6,1.8a7.283,7.283,0,0,0,4-1.35q1.151-1.05,2.35-2.05a21.048,21.048,0,0,0,2.15-2.05m41.5-38.35a2.693,2.693,0,0,1,.8,2.1q1.5,13.8,4.8,41.3v5.5q-7.9-5.3-21-8.4-22.3-5.4-22.5-5.5,13.6-10.3,18.4-14.7,3.5-3.3,15.6-16.6a26.453,26.453,0,0,0,3.55-3.9.749.749,0,0,1,.35.2"/></svg>