<svg overflow="visible" width="100%" height="100%" viewBox="0 0 114.805 108.056" xmlns="http://www.w3.org/2000/svg"><path d="M8.78.2Q1.029.4.48.95q-.6.5-.45,9.6.1,9.049.2,10.85,1.5,50,1.9,60a29.15,29.15,0,0,0,.7,4.4l1.1,4.3q.4,2.5,3.5,2.7,16.2,1,27.2,2.1-.7.5-6.6,4.6a34.384,34.384,0,0,0-5.7,4.55,2.889,2.889,0,0,0-.8,2.55q.2,1.549,5.35,1.45l65.75-2.15q5.85-.2,5.95-1.25a3.705,3.705,0,0,0-1.4-2.5,23.287,23.287,0,0,0-2.1-2q-.7-.55-3.7-3.05-3.049-2.55-.4-2.85,2.65-.4,7.3-.65,4.65-.3,6.45-.6,3.7-.4,5.3-2,1.5-1.6,1.6-5.2.7-30,.8-33.7.6-19.2,1.2-27.3.6-8.149,1-11.6a46.245,46.245,0,0,0,0-8.05Q114.23.6,112.28.55T102.23.5Q85.03.6,70.73.4T42.43.1Q28.38,0,22.43,0T8.78.2M6.38,3.15q3.35-.2,20.7.4,17.35.551,39.4.05t32.65-.3q10.6.15,11.6,1.6,1,1.4,1,5.65t-.6,10.35q-.4,3.2-.7,10.8-.4,8.7-.8,27.3-.3,17.9-.8,27.3a5.48,5.48,0,0,1-1.3,3.2,4.7,4.7,0,0,1-3.2,1.1q-7.9.6-11.9.8-7,.4-11.9.5-23.7.1-35.5-.1-19.7-.3-35.4-1.6-3.3-.3-3.7-3.2a70.939,70.939,0,0,1-1.5-10.7L3.13,21.7q0-2.1-.1-4.25-.15-2.2-.1-8.2t3.45-6.1M85.23,95.2q.3.2,5.3,4.35,4.95,4.1-.4,4l-62.9,1.35q-2,0-.4-1l6-4.2a37.42,37.42,0,0,0,5.15-3.95q.75-.65,1.2-1.05,15.2-.1,44.05.1a3.44,3.44,0,0,1,2,.4M12.53,15.1q-1,.05-2.1.15A1.9,1.9,0,0,0,8.68,17.4l.05,7.5a63.485,63.485,0,0,0,.3,11.3q.35,2.65.6,5.7.1.7,1.5.8a12.787,12.787,0,0,0,1.85.05l5.55-.25q2.149-.15,2.45.2.4.3.4,2.4.35,9.649.6,21.55.2,11.85.25,14.45,0,2.55.05,4.25-.05,1.65,1.8,1.75,1.849.049,4.1.2l18.65.75q2.9.15,3.55.15t1.75.05q1.15,0,9-.05,7.8-.1,9.25-.15,1.4-.1,2.85-.15,1.4-.049,3.65-.15,2.25-.15,7.45-.45l7.45-.55a25.108,25.108,0,0,0,3-.3.593.593,0,0,0,.35-.35q0-.2.6-4t1-9.05q.4-5.35.6-6.55.15-1.3.6-4.75.4-3.45,1.05-7.2a44.027,44.027,0,0,0,.7-5.7q.049-1.95.6-8.55.5-6.6.6-7.9a7.572,7.572,0,0,0-.65-3.25q-.8-1.9-8.7-2.55-11.3-.9-23.1-.95Q53.381,25.6,48.78,26q-4.65.349-5.9.45-1.35.05-1.6-2.2-.35-2.351-1.05-5.55-.7-3.25-2.35-4.25a8.8,8.8,0,0,0-4.9-.85q-3.3.1-20.45,1.5m7.2,1.8a85.387,85.387,0,0,1,12-.75q5.149.05,6.2,3.3a38.661,38.661,0,0,1,1.3,9.1q.251,5.9.2,7.65a3.731,3.731,0,0,1-.8,2.45q-.7.7-7.8.9-7.1.15-12.7.6-5.65.45-5.75-.15-.15-.65-.55-2.75a47.372,47.372,0,0,1-.25-7.4q.05-5.25-.2-8.1-.251-2.9.15-3.45a1.177,1.177,0,0,1,.8-.5q.45-.1,7.4-.9m6.85,24.95a26.56,26.56,0,0,1,4.75-.25,44.653,44.653,0,0,0,4.7-.05,17.356,17.356,0,0,0,3.95-.6q1.4-.45,1.5-4.85.05-3.649.05-6.4.1-.949,1.95-1.05,1.8-.1,5.1-.35.551-.05,1.25-.1,1.45,0,1.3,1.45-.251,1.9-.4,3.2L49.33,45.1a3.02,3.02,0,0,1-.75,2.15q-.7.55-6.5.2T30.13,47q-6.15-.15-6.15-2.5t2.6-2.65m-2.7,9.4q-.1-2.4,2.4-2.15l20.25,1q2,.1,2,2.25-.2,2.9-.2,8.75a4.729,4.729,0,0,1-.45,2.55q-.4.4-2.75.4-8.951,0-15.4.05-2.55,0-4,.1a1.282,1.282,0,0,1-1.5-1.15l-.35-11.8m31.25-23.2q3.4-.1,7.85,0,2.5.049,5.85-.05t3.5,1.15a27.505,27.505,0,0,1-.1,3.15q-.15,1.8-.55,5.3-.15,1.05-.25,2.1-.251,2.449-.3,4.95-.15,3.551-.75,4t-6.1.1q-5.55-.4-10.4-.55-2.5-.1-2.25-2.5,1.45-13.25,1.6-15.15a.831.831,0,0,1,.05-.25q.15-2.051,1.85-2.25M50.93,52.7q0-2.25,2.05-2.2,10.9.65,16.25.9a1.811,1.811,0,0,1,1.9,2q-.15,9.6-.5,10.1-.4.45-7.1.55-6.65.05-10.7,0-2,0-2-1.85l.1-9.5m22.85-13q.049-.75.1-1.55.251-3.4.45-5.25.2-1.9.45-3.15.2-1.249,1.9-1.2,1.65.049,3.35.15,4.1.2,9.1.4,4.95.15,6.25,1.5a5.212,5.212,0,0,1,1.4,3.35q.15,2,.3,12.55.05,2.6-2.65,2.6-9.35-.1-14.55,0-5.2.05-5.75-.55-.6-.6-.55-3.8.05-2.45.2-5.05m1.85,11.8H93.78q2.65-.2,2.15,2.3-.95,4.95-1.25,7.75a2.076,2.076,0,0,1-2.25,2.1l-17.05.3a1.986,1.986,0,0,1-2.25-2.3q.2-5.3.1-7.95-.1-2.4,2.4-2.2m-.4,14.55,17.1-.5q3.05-.05,2.1,7.05-.55,3.7-1.05,7.6-.45,3.9-5.35,4.45-4.9.5-9.9.6-5.05.049-5-2.35V68.1a1.834,1.834,0,0,1,2.1-2.05m-6.65,0q2.5-.1,2.35,2.4V82.7a2.506,2.506,0,0,1-.75,2,4.358,4.358,0,0,1-1.9.7,36.449,36.449,0,0,1-7.3.65q-.949,0-7.25-.35a1.788,1.788,0,0,1-1.95-1.9l-.85-15.45q-.251-2.3,2.2-2.25l15.45-.05m-20.65.4q.4.3.55,6.6.1,6.251.5,9.55t-2.25,3.3q-2.7-.049-9.05-.2-6.349-.1-9.55-.4-3.2-.4-3.25-2.1-.15-1.7-.35-5.75t-.15-7.6q.1-3.6,2.55-3.6,1.8.049,4.7.1,4.549.15,13.9-.25,2.1,0,2.4.35M16.93,24q1.1.649,4.4,2.4,2.2,1.151.8,2.3-1.05.851-2.45,2.2a35.974,35.974,0,0,0-3.2,3.2q-.7.9-.25,1.5a1.173,1.173,0,0,0,1.1.5,1.632,1.632,0,0,0,.9-.35q3.35-2.95,5-4.75a4.581,4.581,0,0,1,2.4-1.4q1.05-.2,4.05,2.8,3.05,3,3.9,2.15.9-.85-1.95-3.75a21.559,21.559,0,0,0-3.3-2.95q-1.249-.8-.2-1.5,1.85-1.25,3.65-2.45,1.6-1,1-2.2-.7-1.15-2.7.3-2.05,1.35-3.85,2.65-1.85,1.25-4.95-.9t-4.4-1.35q-1.4.7.05,1.6"/></svg>