<svg overflow="visible" width="100%" height="100%" viewBox="0 0 116.151 84.137" xmlns="http://www.w3.org/2000/svg"><path d="M79.657.192a3.511,3.511,0,0,0-2.9.3,65.1,65.1,0,0,0-7.7,4.6,94.366,94.366,0,0,0-9.4,8,4.059,4.059,0,0,1-2.3,1.2,3.733,3.733,0,0,1-2.5-.6,85.019,85.019,0,0,0-9.7-4.8q-5.7-1.5-8.5,4-5.8,9.8-6.3,23.1a16.847,16.847,0,0,1-.9,5.6,9.408,9.408,0,0,1-3.1,3.95q-.45.351-.9.65a267.328,267.328,0,0,0-21.7,16.4,7.865,7.865,0,0,0-3.4,5.4,39.877,39.877,0,0,0-.3,6.9q.4,4,5.05,6.3a29.106,29.106,0,0,0,11.2,2.7q6.551.351,8.9.2,2.351-.2,6.75-.35a102.767,102.767,0,0,0,13.15-1.7,86.966,86.966,0,0,0,16.65-4.65,56.61,56.61,0,0,0,17-10.1q1.1-.9,3.6-2.6,2.4-1.7,3.6-2.7,8.9-7.3,13.3-11.1a114.075,114.075,0,0,0,12.4-12.1q3.2-3.8,4.4-10.8a7.335,7.335,0,0,0-.9-4.8,22.762,22.762,0,0,0-1.7-2.7,6.788,6.788,0,0,0-1.9-2q-.6-.3-4.2.9t-6.6,2.3a56.321,56.321,0,0,1-8.6,2.45q-3.15.45-3.9,1.1-.2-1-.4-2.05a70.913,70.913,0,0,0-1.8-8.4,115.8,115.8,0,0,0-4.5-12.5,3.339,3.339,0,0,0-1.9-2.1m24.1,23.5q6.6-2.8,8.1-.5,3.1,4.5-.1,10.4a33.2,33.2,0,0,1-7.6,8.9q-13.7,12-17.2,14.9a171.849,171.849,0,0,1-18.4,13.5,41.161,41.161,0,0,1-13.1,5.7,173.914,173.914,0,0,1-27.8,4.3l-1.3.1q-19.35,1.1-23.1-5.7a8.013,8.013,0,0,1,0-6.1,9.937,9.937,0,0,1,3.6-5.1q7.551-5.15,19.5-15.1,1.3-1.149,2.7-2.3.5,3.4,1.3,9.1.5,3.1,1.6,4a9.028,9.028,0,0,0,4.3,1.3,44.5,44.5,0,0,0,12.8-.7,111.334,111.334,0,0,0,12.4-3.3,51.753,51.753,0,0,0,15.6-8.2,101.333,101.333,0,0,0,12.9-11.8q2.7-2.9.3-5.7a13.113,13.113,0,0,1-1.15-2.6q-.5-1.4.75-1.45a20.843,20.843,0,0,0,2.25-.2,46.133,46.133,0,0,0,11.65-3.45m-36.55-4a1.349,1.349,0,0,0,.85-.8q.3-1.4-3.1-2.1-2.5-.4-4.5-.9,6.3-5.5,10.3-8.8,7.6-6,9.2-2a52.271,52.271,0,0,1,3.5,11q2.3,11,2.4,11.4.9,4-2.7,6.7a62.19,62.19,0,0,1-31,11.9q-10.8,1.2-16.3,1.4-2.8.1-3.3-.4-.4-.6-.2-3.5l1.3-15.8a24.718,24.718,0,0,1,2.4-7.7q2.7-4.8,3.9-7.2,1.5-2.9,5.8-.7,11.6,6.3,16.25,7,4.6.7,5.2.5m5.65,23.7a81.221,81.221,0,0,0,9.85-5.6q5.45-3.549,4.4-2.1a40.491,40.491,0,0,1-3.85,4.25q-2.8,2.751-4.7,4.35-11.2,9.6-30.9,13.6a47.14,47.14,0,0,1-6.45.75,30.236,30.236,0,0,1-6.1-.15q-2.05-.349-2.6-3.95-.55-3.7,1.65-4t10.5-1q8.3-.75,12.7-1.45a51.185,51.185,0,0,0,15.5-4.7"/></svg>