<svg overflow="visible" width="100%" height="100%" viewBox="0 0 114.809 61.236" xmlns="http://www.w3.org/2000/svg"><path d="M43.805,29.35q-1.2.1-1.8.1-12.2.7-18.3,1a155.052,155.052,0,0,1-17.05-.1q-3.55-.4-4.55-.4-2-.1-2.1,1.8-.1,1.2,1.8,1.5h3.3q4.5,0,19.6-.3,12.1-.3,19.7-.2-1,2.5-3.2,6.7a11.67,11.67,0,0,0-.9,7.1q.5,2.2.1,2.7t-2.9.6q-18.6,1-23.65,1.6Q8.8,52,7.905,52.6t-.25,1.3q.649.7,3.55.75,21-1.5,25.2-1.9a13.009,13.009,0,0,1,4.2.2,7.113,7.113,0,0,1,3.6,2.3q2.4,2.6,5.1,2,2.7-.5,4.4-3.8,3.3-4.6,8.8,1.15t9.95,6.3a47.27,47.27,0,0,0,9.25.2q4.8-.35,6-1.85a5.039,5.039,0,0,0,1.1-3.2q-.2-3.3-4.7-4.1a60.219,60.219,0,0,1-7.15-.65q-1.7-.349-1.95-1.15a1.2,1.2,0,0,1,.25-1.3,3.022,3.022,0,0,1,.85-.7q5.7-2.6,17.4-4.5,11.651-1.9,15.7-3.6,2.449-1.15,2.65-2.7a7.037,7.037,0,0,0,.05-2.2q-.15-.6-1.35-1.35-1.2-.7-9.5.85-8.3,1.5-3.9-.1l2.25-1a51.454,51.454,0,0,0,5.7-1.55q2.3-.851,3.6-1.4a21.152,21.152,0,0,0,3.75-2.55,6.686,6.686,0,0,0,2.35-5.7q-.1-3-1.1-3.65a4.087,4.087,0,0,0-3.15-.1,48.628,48.628,0,0,0-7.45,3.1q-5.4,2.5-7.35,2.7-2,.2,4.3-5.55,6.3-5.8,7.35-7.6a4.524,4.524,0,0,0,.7-3.35,2.978,2.978,0,0,0-1.6-2.15q-1.249-.55-6.05,2-4.85,2.5-10.5,5.9,1.55-9.2,1.45-10.7a2.884,2.884,0,0,0-1.3-2.8q-.4-.3-1.4,0a15.108,15.108,0,0,0-3.4,3.3,40.168,40.168,0,0,0-4.4,6.2,52.515,52.515,0,0,1-5.3,7.35q-3.4,4.05-8.6,9.45-2.2,2.3-3.8,2.3-1.5.1-4.4-2a2.454,2.454,0,0,0-1.8-.6q-4.1.1-6.1.3a8.4,8.4,0,0,0-5.7,2.3,2.744,2.744,0,0,1-1.4.6m18.5,2.4a10.981,10.981,0,0,0,6.5-3.2q11.3-11.6,15.7-20.3.3-.6,3.8-4.9,2.7-2.449-.5,7.4-3,6.9-4.6,10.25t.25,2.4a6.508,6.508,0,0,0,2.8-2.95,9.377,9.377,0,0,1,3.2-3.65,86.96,86.96,0,0,1,8.95-5.15l3.25-1.95q6.8-4,2.8.7a114.465,114.465,0,0,1-8.2,8.7q-4.2,3.95-4.3,5.35a2.449,2.449,0,0,0,.45,2,1.4,1.4,0,0,0,1.4.5q.8-.15,4.4-1.2a71.874,71.874,0,0,0,7.75-2.8,38.383,38.383,0,0,1,5.2-1.95q1-.251,1.3,1.75T109.705,27a22.418,22.418,0,0,1-6.7,3.3q-3.649,1.1-6.55,2.2a11.164,11.164,0,0,0-3.55,1.8q-.65.7-.6,1.05a10.32,10.32,0,0,0,.15,1.25q.1.949,1.55,1.25,1.4.251,6.65-.85a63.3,63.3,0,0,1,6.85-1.2,8.115,8.115,0,0,1,2.15.05q.55.15.25.75-.35.6-3.15,1.75T92.505,41.2q-11.5,1.65-17.4,4.25-3.9,1.5-3.1,4.9.7,3.3,4.6,3.8a34.85,34.85,0,0,0,4.9.4,6.213,6.213,0,0,1,4.2,1.9q.6.9-.15,1.25a18.743,18.743,0,0,1-5,.35q-4.25,0-9.45-.4a7.82,7.82,0,0,1-4.1-2.3q-2.2-2.5-3.3-3.7a7.99,7.99,0,0,0-7.5-3q-3.2.3-3.4.3-2.5.2-3.5.2-1.8,0-2.65-2.3a7.883,7.883,0,0,1-.45-4.5,32.952,32.952,0,0,1,1.4-4.7,5.421,5.421,0,0,1,3.7-3.5,48.894,48.894,0,0,1,11-2.4"/></svg>