<svg overflow="visible" width="100%" height="100%" viewBox="0 0 38.827 115.462" xmlns="http://www.w3.org/2000/svg"><path d="M20.127.112a68.449,68.449,0,0,0-8.65.75,21.9,21.9,0,0,0-8.75,3.4q-3,1.4-2.7,4.3.4,2.9,4.2,4.1a36.818,36.818,0,0,0,6.4,1.2,5.208,5.208,0,0,1,2.3.7,3.058,3.058,0,0,1,.9,2.2q.2,3,.9,8.9l9.1,86.2q.1.7.35,2.4a1.222,1.222,0,0,0,1.35,1.2q1.6,0,1.55-1.2-.05-2-.05-2.55l-2.3-65.65q-.3-9.3-1.3-28.7-.1-3.2.3-3.8.5-.6,3.6-1.4,4.2-1,9-2.6a2.921,2.921,0,0,0,2.4-3.8,4.542,4.542,0,0,0-3.35-3.55,53.046,53.046,0,0,0-5.55-1.6,19.89,19.89,0,0,0-4-.6q-1.35-.049-5.7.1m-10.2,3.95a17.653,17.653,0,0,1,6.1-1.35q2.8-.05,8.1-.049a26.827,26.827,0,0,1,4.8,1,41.537,41.537,0,0,1,6.2,2.1q.951.351.1.9a10.967,10.967,0,0,1-4.45,1.649q-3.249.651-6.35,1.351a84.193,84.193,0,0,1-9.2,1.6,19.261,19.261,0,0,1-5.3-.4q-3.5-.7-5.3-1a3.535,3.535,0,0,1-1.1-.6,1.637,1.637,0,0,1-.6-1q0-1.1,1.4-1.8,1.9-.8,5.6-2.4m8,9.8q2-.3,2.5.9a7.815,7.815,0,0,1,.3,2.9q1.4,42,1.95,52.2.6,9.8-.5,0-.45-4.3-2.65-26.6-1.7-16.5-3.2-26.9-.4-2.4,1.6-2.5"/></svg>