<svg overflow="visible" width="100%" height="100%" viewBox="0 0 87.229 116.735" xmlns="http://www.w3.org/2000/svg"><path d="M71.314,42.829a4.478,4.478,0,0,0-2.8,1.5,28.361,28.361,0,0,1-13.8,7,103.09,103.09,0,0,1-15.7,1.3,93.909,93.909,0,0,0-15.7,1.4,27.985,27.985,0,0,0-13.7,7.2,12.605,12.605,0,0,0-3.7,7.3,3,3,0,0,0,.6,1.9q.6,1.1,1.1,1.1,1.1.1,1.3-.8v-1.8a8.316,8.316,0,0,1,2.5-5.7q5.8-5.7,15.9-7.1.3,0,17.9-.8,15.6-.3,24.7-8.4,1.7-1.7,3.5.2a21.047,21.047,0,0,1,2.4,3.5q1,2.6,3.5,8.1,1.5,4.7-1.5,7.9-2.2,2.7-1.9,3.8a4.835,4.835,0,0,1-1,4.4,29.481,29.481,0,0,0-2.8,3.1q-1.6,1.7-2.4-1.1a18.445,18.445,0,0,0-1-4.2,4.544,4.544,0,0,0-2-2.4q-.5-.2-2.3,1.4l-3.5,3.7q0-6.6-.7-8.7-1.1-3.6-5.9.6l-11.6,8.6q-1.6,1.1-2.4.9-.9-.1-1.9-1.8-1.9-4.8-4.9-2.6-3.6,2.5-4.9,2.1-1-.3-3.6-4.1a5.112,5.112,0,0,0-2.3-2,4.98,4.98,0,0,0-3,1.3,61.442,61.442,0,0,0-5.7,4.7q-2.5,2.3-5.5.2a52.936,52.936,0,0,0-4.7-4.2q-3.1-2.2-3.7,1.4a12.4,12.4,0,0,0,.6,5.8q.9,2.9,6.5,19.8,1.3,4.05,3.25,9.4a22.3,22.3,0,0,0,3.45,6.8,9.224,9.224,0,0,0,5.3,2.55,54.6,54.6,0,0,0,10.5.45,55.7,55.7,0,0,0,18-1.5q2.8-.6,17.3-4.9a16.235,16.235,0,0,0,11-9.9q1.8-4.4,4.9-11.1,4.3-9.3,5.1-11a20.658,20.658,0,0,0,1.1-2.5,2.151,2.151,0,0,0-.6-2.4q-.2-.2-.8-.1a1.138,1.138,0,0,0-.8.4,47.974,47.974,0,0,0-3.2,3.9q-.1-.2-.7-2.5a4.32,4.32,0,0,0-.8-1.6q-2.6-2.5.3-5.7,3-3.7,1.8-7.5-.8-2.3-6.2-14.4a6.209,6.209,0,0,0-1.9-1.7,5.783,5.783,0,0,0-2.9-1.2m-20.6,30.8a51.24,51.24,0,0,1,7.2-4.8q.2,6.4,1.6,8.2,2,2.4,6.8-2.2,1.6,7.1,4.5,6.9,2.4-.2,6.9-5.7,1.3,2.4,1.4,2.5a4.443,4.443,0,0,1,1.7,3.1,8.466,8.466,0,0,1-1,3.4,107.933,107.933,0,0,0-6.2,13.5,13.442,13.442,0,0,1-6.2,7.4,42.407,42.407,0,0,1-9.3,3.4,86.393,86.393,0,0,1-32.1,4.4,47.642,47.642,0,0,1-7.4-.7,5.685,5.685,0,0,1-2.35-.95,3.068,3.068,0,0,1-1-1.35q-3.349-8.5-3.75-9.5l-8-23.4q-.3-2.3-.6-4.3l3.5,2.7q3,2.4,4.8,2.4,1.7,0,4.8-2.4l6.1-4.8q4.2,5.7,6.1,6.3t7-2.2a23.923,23.923,0,0,1,2.2,4.1,16.93,16.93,0,0,1,.2,4.2l-.6,21.3a3.235,3.235,0,0,0,.4,1.4q.3.8.7.9a1.08,1.08,0,0,0,1.5-1q.1-1.7.1-2.3.7-14.9.7-19.3a7.674,7.674,0,0,1,.7-3.6,7.459,7.459,0,0,1,2.7-2.7,63.5,63.5,0,0,0,6.9-4.9m18.7,11.9a1.014,1.014,0,0,0-.8.2,1.189,1.189,0,0,0-.6.7l-4.6,14q-.15.95,1.8.9.75-.1.8-.3,2.8-8,4.6-14.3l-.6-.7a1.327,1.327,0,0,0-.6-.5m-51.3,20.5q.951.75,1.45.6a2.51,2.51,0,0,0,.95-1.2q-.3-.9-3.5-11.9a107.781,107.781,0,0,0-4.2-11.6,1.011,1.011,0,0,0-1.2-.4,1.271,1.271,0,0,0-.8,1,2.866,2.866,0,0,0,0,1.5q6.8,20.6,7.3,22m5.8-24.75a5.815,5.815,0,0,0-.2,2.95l3,16.5a19.891,19.891,0,0,1,.5,2.1q.5,1.3,1.6,1.05a1.393,1.393,0,0,0,.9-.75,3.876,3.876,0,0,0,.1-1.7l-3.5-19.3a2.306,2.306,0,0,0-.7-1.1q-1.2-1.551-1.7.25m31.85,1a1.6,1.6,0,0,0-.65-1.6.994.994,0,0,0-1.2,0q-.5.35-.5.55l.1,16.9a2.034,2.034,0,0,0,1.2,1.3.991.991,0,0,0,.95-.45,1.583,1.583,0,0,0,.35-.85v-9.2q-.3-5.5-.25-6.65m4.15-48.75a5.707,5.707,0,0,1,2.1,1.1q1.2.9,3.7,2.4a6.283,6.283,0,0,1,2.5,3.6q.2.7,1.5.7.2.1.4-.4a1.235,1.235,0,0,0,.3-.7,5.59,5.59,0,0,0-2.9-5.4q-9.1-5.7-10.4-6.7a5.515,5.515,0,0,0-2.6-1.2,4.27,4.27,0,0,0-2.7.6,5.758,5.758,0,0,1-2.2.5l1.1-1.4a6.387,6.387,0,0,0,2.3-7.1,11.131,11.131,0,0,0-1.3-3.6,4.352,4.352,0,0,0-3.6-1.8q-.3,0-.7-.5a2.267,2.267,0,0,1-.4-.8,8.512,8.512,0,0,1,.6-6.1,8.459,8.459,0,0,1,4.9-3.6q1.4-.5,1.8-.7a1.118,1.118,0,0,0,.6-1.2,1.042,1.042,0,0,0-.8-1,7.4,7.4,0,0,0-6.1,1.2,7.354,7.354,0,0,0-3.5,5.2,53.417,53.417,0,0,0-.2,5.4,2.173,2.173,0,0,1-2,2.3q-4.6,1.1-6.1,2.8-1.5,1.6-1.7,6,0,.4.3,3a4.119,4.119,0,0,1-.4,2.5,4.957,4.957,0,0,1-2.3,1.6q-2,.8-2.9,1.2a17.032,17.032,0,0,0-5.1,3.4,6.444,6.444,0,0,0-2.2,5.1,3.476,3.476,0,0,1-.9,2.9,6,6,0,0,1-2.3.9q-6.3,1.6-6.3,8.9,0,.4,1.05,1.35a.872.872,0,0,0,.75-.25q.6-.5.6-.9.4-5.5,6-6.9,1.9-.4,5.7-1.5a50.4,50.4,0,0,1,5.8-1.2,101.5,101.5,0,0,0,20.2-4.8q4.5-1.6,5.4-3.1.9-1.8,2-1.8m-11.2-15.5q1.1.5,1.2.9a6.768,6.768,0,0,1-1,5.5,18.542,18.542,0,0,1-4,4q-1.2,1.1-4.1-.2-3-1.2-3.2-2.9a14.186,14.186,0,0,1,.4-5.4q1.3-2.9,6.7-2.5h2q.6.2,2,.6m-9.9,13.6,6,.3q4.8.4,7.6-1.4a1.846,1.846,0,0,1,1.3-.2q.9.1,1.1.4,1.8,2.2-.1,3.5a10.66,10.66,0,0,1-3.6,1.7q-19.4,4.5-27,5.6a16.2,16.2,0,0,1,6.1-7.3,14.119,14.119,0,0,1,8.6-2.6"/></svg>