<svg overflow="visible" width="100%" height="100%" viewBox="0 0 65.692 113.385" xmlns="http://www.w3.org/2000/svg"><path d="M.032,74.284q.1,2.949.6,3.35a5.744,5.744,0,0,0,1.3.7,1.469,1.469,0,0,0,1.45-.15q.551-.5,1.3-1.2,1.249-1.35,1.4.3.2,1.9.25,4.95,0,8.049-.45,17.05t-.5,11.75q-.1,2.7,1.6,2.3,1.65-.4,2-12.2.3-11.8.15-14.05-.2-2.3-.8-7.95a7.845,7.845,0,0,1-.05-1.5q.049-.8.85.05a4.1,4.1,0,0,0,2.65,1.9,2.97,2.97,0,0,0,2.25-.5,9.985,9.985,0,0,0,1.85-3q1.1-2.4,2.15-2.45,1.05-.15,1.35.25a6.423,6.423,0,0,0,.5.7,12.36,12.36,0,0,0,3.9,1.95.435.435,0,0,1,.2.05,12.917,12.917,0,0,0-1.65,1.9q-2.9,3.6-3.2,5.2-.7,3.4-3,18.4-.3,1.8,1.1,1.9a1.534,1.534,0,0,0,1.05-.4,3.857,3.857,0,0,0,.8-1.85,14.335,14.335,0,0,0,.4-2.2q.05-.75,1.25-10.45.8-6.1,3.2-8.6a20.3,20.3,0,0,0,2.5-3.15q1.451.3,2.85.55,1.4.15-.6,1.55t-1.7,9.95q.251,8.5.35,11a29.1,29.1,0,0,0,1.2,6.8q.8,2.9,2.6,2.1a1.347,1.347,0,0,0,.9-1.3,7.678,7.678,0,0,0-.4-1.7q-1.5-4.8-2.1-16.1,0-5.2.7-6.8a11.78,11.78,0,0,1,4.5-4.9q.4-.2,1.7.3l2.2,1.1a28.677,28.677,0,0,1,3.9,2.1q5.5,3.2,4.3,9.6a38.939,38.939,0,0,1-2.35,7.55q-1.65,3.949-1.6,4.75a1.41,1.41,0,0,0,1.05,1.2,1.288,1.288,0,0,0,1.75-1.05q.25-1.35,3.55-10.25,2.3-7.2-2.3-11.9a19.21,19.21,0,0,0-6.9-4.4q1.95.05,3.95,0a9.28,9.28,0,0,1,2.4.05,28.131,28.131,0,0,1,3.05,1.15q2.55,1.05,3.85,1.6t4.65,1.65a12.211,12.211,0,0,1,4,1.75q.7.8.6,3.3a77.684,77.684,0,0,1-1.2,11.2q-.2,1-.65,2.8a3.505,3.505,0,0,1-1.3,2.25,1.738,1.738,0,0,0-.9,1.5,1.467,1.467,0,0,0,.4,1.3,1.74,1.74,0,0,0,1.1.35,5.162,5.162,0,0,0,2.1-1.35,4.291,4.291,0,0,0,1.65-2.75q.1-1.5,1.8-13.6a12.879,12.879,0,0,0-.2-5.1,4.381,4.381,0,0,0-2.8-3.1q-2.3-.6-8.85-2.75a15.219,15.219,0,0,0-1.6-.45,17.24,17.24,0,0,0,5.95-2.2q2.7-1.6.45-3.35a29.876,29.876,0,0,0-4.45-2.85q-2.15-1.1-13.2-4.6a139.41,139.41,0,0,0,10.3-16.2,342.483,342.483,0,0,0,13.4-38.8,27.483,27.483,0,0,0,1.1-6.1q-.1-3.7-3.5-3.1-4.4.9-6.2,3.7-5.6,8.8-10.8,16-9.3,12.8-11.1,21.7-1.8,8.85-1.8,5.9a123.991,123.991,0,0,0-1.6-24.7q-.9-4.8-6.2-4.3a2.472,2.472,0,0,0-2.3,1.7,11.2,11.2,0,0,0-.3,2.8q-.9,13.7-.8,18.3a54.769,54.769,0,0,0,2.9,18,21.581,21.581,0,0,1,.8,3.4,2.333,2.333,0,0,1-2.3,2.55,19.957,19.957,0,0,0-3.05.55,7.321,7.321,0,0,0-2.15,1.25q-.9.75-8,1.1-7.15.349-7.7,1.2-.6.8-1.1,1.45-.55.6-.4,3.6m57.6-68.15a8.354,8.354,0,0,1,3.45-3.05q2-1,.8,4.9a160.936,160.936,0,0,1-4.6,15.95q-3.4,10.05-8.85,22.85a72.106,72.106,0,0,1-4.6,8.1q-1.7,2.6-5.3,7.8a4.175,4.175,0,0,1-3.5,1.7,16.711,16.711,0,0,1-4.4.1l3.7-13.5q3.8-13.3,5.8-17.5,1.9-4.1,9.8-15.7l7.7-11.65m-29.3,18.05a25.957,25.957,0,0,1,.5,5.1q-.4,24.2-1,33-.15,2.45-.85-.15-.7-2.651-1.3-6.05-.75-4-1.15-6.6a90.529,90.529,0,0,1-.6-12.8q.4-8.5.4-10.9a15.3,15.3,0,0,1,.15-3.25q.2-.8,1.35-.75,2-.1,2.5,2.4m26.95,49.1a13.8,13.8,0,0,1-5.3,1.8q-2.2.15-11.1.55t-14.5-1.9q-5.649-2.35-2.9-5.65,2.7-3.351,19.8.1,17.1,3.4,14,5.1m-52.9-2.1q1.15-1.851,1.8-.25a21.075,21.075,0,0,1,.75,2.25q.1.549-1.05,2.3t-1.75.65a5.9,5.9,0,0,1-.8-2.1,4.667,4.667,0,0,1,1.05-2.85m7.7,4.95a3.3,3.3,0,0,1-.6-2.55,3.533,3.533,0,0,1,.65-1.5,3.586,3.586,0,0,1,1.8-.95q1.45-.5,2.05,1.25a5.374,5.374,0,0,1,.25,3.1,2.473,2.473,0,0,1-1.85,1.75,1.891,1.891,0,0,1-2.3-1.1"/></svg>