<svg overflow="visible" width="100%" height="100%" viewBox="0 0 59.253 115.009" xmlns="http://www.w3.org/2000/svg"><path d="M30.109.109q-.651-.45-1.1.95a14.7,14.7,0,0,0-.7,3.75q-.2,2.4-.3,5.45a4.473,4.473,0,0,1-2.7,4.25q-3.5,1.5-3.9,2.5-.3.9.9,4.9a35.9,35.9,0,0,1,1.9,11q-.4,17.7-4.4,28.2-.8,2.1-2.4,8.6a3.332,3.332,0,0,1-2.35,2.4,8.884,8.884,0,0,0-2.7.95,5.266,5.266,0,0,0-1.75,1.5,8.085,8.085,0,0,0-.9,3.35,17.934,17.934,0,0,0-.2,3.4,3.167,3.167,0,0,0,1.6,2.7,2.836,2.836,0,0,1,1.5,2.1,6.2,6.2,0,0,1-.5,2.5q-3.4,8.6-4.5,11a46.762,46.762,0,0,1-6.2,10.1q-1.8,2.2-1.3,3.9a1.858,1.858,0,0,0,1.8,1.4,23.684,23.684,0,0,0,2.5-.2l13.8-.9q3.5-.2,4.5-1,.9-.8,1.8-4.3a77.336,77.336,0,0,1,2-8.1q1.2-3.5,3.4-4.7,2.1-1.1,5.8-.3a5.206,5.206,0,0,1,4.6,4.5q.8,3.7,1.4,8.451t2.25,4.449q9.45-1.7,13.15-2.7,2.7-.7,2-4-1.7-4.7-5-11.8-4.6-10.1-5.4-12.15a4.925,4.925,0,0,1,.35-4.25,5.757,5.757,0,0,0,.55-4.5,6.8,6.8,0,0,0-2.15-3.549q-1.451-1.15-1.95-5.051a85.477,85.477,0,0,0-2.3-10.6q-2-7.6-3-11.5a75.289,75.289,0,0,1-2.3-11.7,23.344,23.344,0,0,1,2.2-11.9,4.1,4.1,0,0,0,.2-3.9,3.947,3.947,0,0,0-3.4-1.8,3.736,3.736,0,0,1-2.7-1,8.571,8.571,0,0,1-1.2-3.1q-.6-2.45-1.4-5.65Q30.759.51,30.109.109m6.05,16.55a8.31,8.31,0,0,1,.2,2.5q-.051,1.65-2.3,2t-4.8.5q-2.6.15-3.45-.85a3.774,3.774,0,0,1-.6-3q.249-1.8,5.45-1.849t5.5.7m-9.35,12.15q-.2-2.9.35-3.7a2.164,2.164,0,0,1,1.9-.85q1.4-.05,4.05-.4,2.6-.4,2.3,1.8-.651,8.25,2.3,19.35,5.1,19.1,5.4,20.8a4.828,4.828,0,0,1-.3,2.9,3.811,3.811,0,0,1-2.7,1l-18.45,1.7q-2.3.3-1.55-1.949,1.1-3.951,2.3-7.451,5.2-14.5,4.4-33.2m19.3,44.151a28.026,28.026,0,0,1,.4,3.849q.05,2.2-4.7,2.5l-25.9,2.6a11.668,11.668,0,0,1-2.2,0q-1.2-.1-1.3-1.5a17.23,17.23,0,0,1,.05-3.15,3.539,3.539,0,0,1,.9-1.75q.75-.9,3.5-1,2.749-.2,9.5-.85t13.1-1.449q6.349-.85,6.65.75m-13.6,19.25q-5.4.3-8,5.7-1.4,2.9-2.9,10.4-.5,2.5-2.4,2.6l-14.7.9q-1.5.15-.6-1a42.028,42.028,0,0,0,6.9-11.4q3.2-8.3,4.8-12.4a3.79,3.79,0,0,1,3.2-2.5l24-2.3a3.183,3.183,0,0,1,3.6,1.8q.9,2.2,9.3,20.8,1.2,2.7-1.5,3.2l-6.3,1.4q-2.8.7-3.3-2.4a65.187,65.187,0,0,0-1.8-8.2q-2.3-6.9-10.3-6.6m4.4-38.1a26.657,26.657,0,0,0-2.1-7.1q-1.5-3.3-2.6-2.65-1.1.6-1.6,2.851a57.369,57.369,0,0,0-.95,8.549q-.4,6.351,2.7,6.451,3.05.1,4.05-.9a3.105,3.105,0,0,0,1.05-2.2,45.1,45.1,0,0,0-.55-5m-4.5,2.3q-.1-2.2-.05-3.25.549-9.1,2,.551.9,5.149-.4,5.75-1.451.6-1.55-3.051"/></svg>