<svg overflow="visible" width="100%" height="100%" viewBox="0 0 86.785 113.928" xmlns="http://www.w3.org/2000/svg"><path d="M19.225,7.578a9.054,9.054,0,0,0,.2,4.35q.6,2.9-2.5,8.5a12.659,12.659,0,0,1-5.2,5.3,66.223,66.223,0,0,0-6.3,4.2,1.737,1.737,0,0,0-.7,2.15,3.756,3.756,0,0,0,.95,1.55,6.192,6.192,0,0,0,2.9.45q2.351.049,10.55-.15.05,0,1.6-.2a6.166,6.166,0,0,1,1.8-.1.879.879,0,0,1,.75,1.05q-.1.9-.15,1.25l-1.1,10.7q-.15,1.1-.25,1.8a.533.533,0,0,1-.7.55,9.041,9.041,0,0,0-1.25-.1,31.331,31.331,0,0,0-7.95.75q-2.65.7-2.85,3.8a2.418,2.418,0,0,0,1.3,2.2,6.959,6.959,0,0,0,2.7.4,1.791,1.791,0,0,1,.9.3q.6.3.6.5-.2,1.2,1.35,4.2,1.5,3,1.05,4.8a12.549,12.549,0,0,1-1.05,2.85q-.6,1.05-1.2.95-1.3-.1-3.5-.2-2.7-.15-3,.45a12.175,12.175,0,0,0-.5,2.75,18.1,18.1,0,0,1-3.05,8.1q-4.7,6.4,0,11.8a26.274,26.274,0,0,1,2.2,3.2q1.3,2.2,1.2,2.9a7.765,7.765,0,0,1-2.4,2.2,28.409,28.409,0,0,0-5,3.9q-1,1.3-.4,4.1.6,2.4,3.6,1.8,1.4-.2,10.25-1.2,1.6-.2,2.5-.3-.75.65-1.4,1.2a3.153,3.153,0,0,0-1.05,1.25,1.494,1.494,0,0,0-.2,1.25q.1.4.9.8a3.321,3.321,0,0,0,1.3.3q2.5,0,7.5-.1a66.5,66.5,0,0,0,7.4-.7,72.513,72.513,0,0,0,8.2-1.8q2.7-.7,6.65-2,3.95-1.35,5.55-2.1a6.339,6.339,0,0,0,2.4-2.05q.85-1.249,5.8-2.25a25.54,25.54,0,0,0,10.3-6.6,71.59,71.59,0,0,0,7.65-9.15,44.163,44.163,0,0,0,6.6-14.5,75.071,75.071,0,0,0,2.6-17.5q.2-8.8-3.8-14.2-4-5.45-8.15-7.5-4.2-2.051-4.5,2.55a54.052,54.052,0,0,0,.1,7.2,46.714,46.714,0,0,1-7.2,30.2q-1.6,2.5-4.5,7.8-2.45,4-4,3.9t-1.8-2.5q.1-21.8-13.8-42.1a9.041,9.041,0,0,1-1.6-3.1,126.44,126.44,0,0,1-2.75-12.4q-.55-3.9-.6-4.6-.1-.75-.7-5.5-.649-4.749-1.1-9.55-.5-4.749-2.55-5.25-2.1-.5-2.3.95-.25,1.4-.5,2.85-.3,1.45-1.4,7.3-1.1,5.9-1.7,1.05-.6-4.9-1.5-5.9a2.4,2.4,0,0,0-1-.75,1.7,1.7,0,0,0-1.1.2q-.649.3-1.1,1.75m10,.55q.349-4.6,1.1,2.9.7,7.5,1,9.2.251,1.7.75,5.5a66.179,66.179,0,0,0,1.45,7.9,31.77,31.77,0,0,0,4.7,10.9q10.5,14.1,12.3,39.1.3,3.2,1.9,4.2t4.3-.5a13.355,13.355,0,0,0,4.1-4.1q4.4-7.3,6.2-11a55.7,55.7,0,0,0,4.6-11.7q3.1-10,2-16.85-1.15-6.85.05-7t5.65,3.5q4.4,3.6,4.45,18.2a45.067,45.067,0,0,1-8.45,26.65,61.712,61.712,0,0,1-8.4,10.3,23.1,23.1,0,0,1-5.1,3.9,16.007,16.007,0,0,1-5.85,1.9,5.737,5.737,0,0,0-4.1,1.7,5.01,5.01,0,0,1-1.85,1.65q-.6.15-3.8,1.55a90.892,90.892,0,0,1-10.7,3.4,32.5,32.5,0,0,1-7.5,1.1q-5,0-7.5.1-1.6-.1-.4-1a41.669,41.669,0,0,1,6.3-3.2q4.9-2.2,6.3-3,3.2-1.7,3.3-2.9t-2.7-3.3l-3.2-2.3q-4.1-2.7-2.7-7.8a28.719,28.719,0,0,1,4.3-8.2q3.3-4.9,5.8-4,2.45.9,3.2-.3.851-.85-2.1-2.05-3-1.249-6.1,1.35a21.69,21.69,0,0,0-7.6,11.6q-2,8,1.4,10.3,3.35,2.3,5.05,3.65t-1.8,2.5a64.3,64.3,0,0,0-9.3,4.15q-.75.45-8.9,1.45t-8.2.5q-1.4-1.5.85-2.85,2.2-1.4,3.8-2.5,2.8-1.9,3.2-3.4.3-1.5-1.3-4.3-2.4-3.6-2.5-3.7-3.9-4.6.2-9.9,4,8.2,9.6,10.1a24.461,24.461,0,0,1,2.5,1.2,1.5,1.5,0,0,0,2.1-.9q.5-1.1-.9-1.8-1.8-.6-2.5-.9-9.2-3.5-8.2-17.3,7.8,1.3,9.3,1.6a16.13,16.13,0,0,0,6.2,0,40.226,40.226,0,0,0,4.4-1.05q2.55-.75,3.15-1.6a.878.878,0,0,0-.2-1.4q-.85-.549-4.45.4a26.147,26.147,0,0,1-6.75.85q-3.15-.05-2.85-1.1.251-1.1.6-3.75a10.68,10.68,0,0,1,.95-3.8,3.206,3.206,0,0,1,2.25-1.5,2.77,2.77,0,0,0,2.1-1.85q.6-2.049-2.4-.9a14.254,14.254,0,0,1-3.25.75q-2,.251-1.75-.45.4-1.2.6-1.8a3.076,3.076,0,0,1,.9-1.6,10.664,10.664,0,0,1,3.3-1.4,25.147,25.147,0,0,0,3.35-1.3,1.442,1.442,0,0,0,.9-1.2q.15-.9-.4-1.05a1.59,1.59,0,0,0-1.05.05,9.991,9.991,0,0,1-1.1.4q.05-.4.4-1.9t1.05-8.3q.251-2.2.4-4.85a15.484,15.484,0,0,0-.2-3.9q-.3-1.25-2.2-.95-1.95.3-4.25.8a41.282,41.282,0,0,1-7.2.6q-4.9.051-3-1.1a64.481,64.481,0,0,0,6.4-3.6,9.9,9.9,0,0,0,4.3-5.8q.4-1.6,3.3-2.4,6.2-1.6,6.2-7.7,0-.4.2-2.9m-17.75,44.9q.1-1.7,3.1-2.35a9.123,9.123,0,0,1,4.35-.35,2.681,2.681,0,0,1,1.75,1.05q.35.75-2.35,1.35a34.865,34.865,0,0,0-4.85,1.3q-2.149.7-2-1"/></svg>