<svg overflow="visible" width="100%" height="100%" viewBox="0 0 102.774 115.482" xmlns="http://www.w3.org/2000/svg"><path d="M85.625,7.182a17.9,17.9,0,0,0,2-3.7,6.95,6.95,0,0,0,.7-2.9q-.15-.949-1.1-.35t-4.1,5.35q-3.2,4.7-6.5,9-5.7,6.6-2.1,19.3a2.518,2.518,0,0,1-.3,2.3,20.57,20.57,0,0,0-4.3,11.9,68.753,68.753,0,0,1-1.9,14.6,40.611,40.611,0,0,1-6,13.6,10.541,10.541,0,0,1-3.4,3.2,8.493,8.493,0,0,1-4.6.2,2.976,2.976,0,0,1-1.9-.8,2.643,2.643,0,0,1-.1-2.2q2.2-8.4,2.3-11.6.6-16.9,1.5-36.3t-1.3-18.8a1.908,1.908,0,0,0-1.6,1.8,9.859,9.859,0,0,0,.1,2.3q-.4,9.8-.5,29.5a221.24,221.24,0,0,1-2.3,29.4,12.049,12.049,0,0,1-.8,3.6,4.074,4.074,0,0,1-3.1,2.3q-.7.1-1.4,1.3a16.056,16.056,0,0,1-1.1,2.2,58.457,58.457,0,0,1-6.2,11.9,24.451,24.451,0,0,1-8.35,7.15,69.991,69.991,0,0,1-9.9,4.5,20.43,20.43,0,0,1-9.75.95q-3-.9-7.4,2.2-4.5,3.1.1,4.8a52.069,52.069,0,0,0,13.9,1.6q4.8,0,14.2-.4a66.34,66.34,0,0,0,15-2.7q.9-.2,14.6-4.6a13.562,13.562,0,0,0,9.4-9.1q5.4-16.3,7.1-20.6,1.1-2.8,6.4-13.4a11.1,11.1,0,0,1,2.7-2.8q1.6-1.2,2.3-1t1.1,2a117.965,117.965,0,0,1,.4,17.7q-.5,15-.3,18.3.15,3.251.25,3.6a23.634,23.634,0,0,0,.7,2.3q.6,1.9,3.5,1.3,2.85-.6,2.1-6.15a118.2,118.2,0,0,1-.45-17.15q.7-11.9.8-17.9.2-7.5,4.2-11.8a8.3,8.3,0,0,0,2.5-7,19.694,19.694,0,0,0-2.3-7.2,9.35,9.35,0,0,0-2.7-4.3q-1.4-1-4.9-1.1-8.9.1-11.45.3a7.139,7.139,0,0,1-3.35-.3q-.8-.45-1.95-5.2a13.762,13.762,0,0,1,1.35-9.7q1.7-3.2,8.2-11.4m-13.4,53.3q2.6-11.9,4.1-16.3.7-2.1,2-2.4,4.4-1.3,13.4-3.3a4.259,4.259,0,0,1,5,1.75q1.65,2.55-1.05,11.95-2.7,9.351-3.1,9.65-.5.3-2.8-3.55-2.349-3.849-7.5,3.25a72.422,72.422,0,0,0-8.95,17.05q-1.6,4.2-6.1,18a11.982,11.982,0,0,1-2.8,5,10.312,10.312,0,0,1-5.2,2.8q-3.3.8-9.3,2.9-6.4,2.1-9.4,2.9-15.8,3.4-28.2.6,18.9-5.7,20.8-6.9,6.9-4.1,12.2-18,1.2-3.1,4.1-2.7,7.3.7,10.5,0a9.813,9.813,0,0,0,7.5-6.6,103.358,103.358,0,0,0,4.8-16.1"/></svg>