<svg overflow="visible" width="100%" height="100%" viewBox="0 0 108.518 114.552" xmlns="http://www.w3.org/2000/svg"><path d="M45.243,91.652q.468,1.023.8,1.6a7.788,7.788,0,0,1,.5,1.05q.175.457,1.3,3.05l5.7,15.3a3.267,3.267,0,0,0,.8,1.3,1.9,1.9,0,0,0,1.4.6q.894,0,1.9-1.8l8.45-19.05h-.05q1.072-2.752-1.9-2.95-11.195-.8-14.45-.95-3.262-.11-4.1.35t-.35,1.5m45.65-12.6a3.591,3.591,0,0,0,1.25-2.5,1.257,1.257,0,0,0-1.2-1.15q-1.032-.174-4.3,3.1-3.224,3.276-10.2,1.35-7.4-1.7-11.1-2.6a7.264,7.264,0,0,0-6.9,1.7q-.6.6-1.8,1.9a3.256,3.256,0,0,1-1.8,1.2,4.3,4.3,0,0,1-2.35-.8,27.1,27.1,0,0,1-3.85-2.8,6.343,6.343,0,0,0-6.9-.9,10.842,10.842,0,0,1-5.7,1.2q-4.093-.2-6.95-.55a9.968,9.968,0,0,1-4.55-1.45,4.522,4.522,0,0,0-3.1-.95q-1.376.181-1.7.95-.66,1.142,1.05,1.95a13.283,13.283,0,0,0,3.35,1.15q2.8.6,8.3,1.7a16.857,16.857,0,0,0,7.75-.5,9.11,9.11,0,0,1,4.8-.7,10.261,10.261,0,0,1,3.45,1.5q1.694,1.1,3.7,2.2,2.5,1.5,3.4,1.4,1-.1,3.8-3.25t5.85-2.25q3.058.9,15.55,3.6a8.463,8.463,0,0,0,5.85-1.25,17.893,17.893,0,0,0,4.3-3.25m12.4-6.15a30.244,30.244,0,0,1,2.2,2.25,2.239,2.239,0,0,0,2.55.7q1.6-.411-2.2-5.35t-13.3-4.65q-5.3.3-12.8,1.1-8.5,1-12.8,1.4-1.9.2-2.6.2-1.5-.107-4.5-2.5-2.994-2.34-3.15-1.15a14.889,14.889,0,0,0,.25,5.75,4.78,4.78,0,0,0,1.5,2.5q.7.395,3.9.05a35.866,35.866,0,0,1,5.4-.15q2.195.192,7.3-1.45a38.3,38.3,0,0,1,11.2-1.75q3.306,0,7.75.3a24.165,24.165,0,0,1,6.35,1,8.619,8.619,0,0,1,2.95,1.75m-55-1.95a1.219,1.219,0,0,0,1.75-.7,1.374,1.374,0,0,0-.8-2,27.1,27.1,0,0,1-4.75-2.45q-2.977-1.868-8.5-2.05a87.721,87.721,0,0,0-15.25,1.3q-9.787,1.5-15,5.3T.143,75.3q-.408,1.2.35,1.6t2.45-.4q7.589-3.353,16.2-6.35,12.3-4.8,26.5-.1a27.441,27.441,0,0,1,2.65.9m-7.4-27.65a1.4,1.4,0,0,0-.8.85q-.255.7-1.05,2.7a13.739,13.739,0,0,1-1.6,2.7,6.429,6.429,0,0,0-1.05,3.5q-.088,2.358-.15,4-.018,1.633,3.55,4.1t5.95,1.6q6-2.6,8.6-3.9a1.174,1.174,0,0,0,.6-1.25,1.54,1.54,0,0,0-.6-1.25,4.023,4.023,0,0,0-2.3-.35,5.058,5.058,0,0,0-3.4,1.75q-1.5,1.5-2.2,1.5a6.315,6.315,0,0,1-5.3-3.2,6.244,6.244,0,0,1-.8-6.2l2-5.1q.1-.4-.45-1-.511-.6-1-.45m18.45-41.95a1.691,1.691,0,0,0-.4-1.05q-.409-.477-1.35-.2a1.384,1.384,0,0,0-1.05,1.15q-.1.894-.1,4,0,.1.3,9.6.2,5.8.6,9.7.2,2.6,2.2,14a3.639,3.639,0,0,0,2.5,2.7,50.042,50.042,0,0,1,7.8,3.85q3.516,2.156,4.05,3.05a2.307,2.307,0,0,1,.35,1.7q-1.1,6.1-1.4,7a5.072,5.072,0,0,1-8.2,2.8,27.458,27.458,0,0,0-2.9-1.8,1.572,1.572,0,0,0-1.55,0,1.615,1.615,0,0,0-.6,1.05,1.312,1.312,0,0,0,.5,1.2q.65.551,2.65,2.35a9.633,9.633,0,0,0,3.3,1.8,6.68,6.68,0,0,0,5.5-1.2,9.63,9.63,0,0,0,3.7-4.8q.9-4.5,1.5-6.7,1-4.4-2.9-7.3a55.663,55.663,0,0,0-7.6-4.7,8.451,8.451,0,0,1-5.2-6.6,34.794,34.794,0,0,1-.9-5.3l-.8-26.3"/></svg>