<svg overflow="visible" width="100%" height="100%" viewBox="0 0 115.347 48.915" xmlns="http://www.w3.org/2000/svg"><path d="M47.409,2.856a4.048,4.048,0,0,0-.65.3q-.6.4-2.9,0a37.876,37.876,0,0,0-6.05-.45q-3.9-.049-12.2,1.85t-10.6,3.1q-2.349,1.2-7.55,6.2t-5,6.15a2.047,2.047,0,0,1-.2,1.55q-.4.4-1.35,1.4a3.343,3.343,0,0,0-.9,2.75,1.76,1.76,0,0,0,1.8,1.9q1,0,3-.1a1.383,1.383,0,0,1,1.3.75,2.724,2.724,0,0,1-.05,2.55q-.649,1.7.05,5.6.5,2.2,1.7,6.6.8,3.8,2.4,4.9,1.5,1.1,5.5,1,12.8-.2,50.6,0,4.15,0,14.1-1.1,9.9-1.1,23.4-1.5,5.7-.1,7-1.5,1.3-1.3,1.5-7.2l.1-1.5q0-1-.05-2.7a4.875,4.875,0,0,1,1.2-3.25,8.939,8.939,0,0,0,1.6-2.95,4.543,4.543,0,0,0,.05-2.4q-1.2-4.8-1.9-7.2a13.26,13.26,0,0,0-3.9-6.3q-7.2-7.2-13.3-9.6-6-2.3-15.85-1.5-6.8.551-6.45,1.65a60.462,60.462,0,0,0-22.8-.25,15.029,15.029,0,0,0-3.6,1.25m-14.4,3.35q2.9-.2,6.5-.35a37.367,37.367,0,0,1,7,.35,27.677,27.677,0,0,1,4.7.9,28.306,28.306,0,0,1,2.95,1.3q1.7.851,6.25,3.85,4.5,2.951,5.75,3.8.75.55,1.45-.35.9-1.1,0-1.85-1.3-.949-1.9-1.35l-14.2-8.1q10.65-1.549,15.15-.9,4.45.651,5.7.85a31.573,31.573,0,0,1,5.6,2.15,27,27,0,0,1,7.15,4.45q2.8,2.552,4.7,4.15,1.9,1.551,2.9,1,1.5-.9-1.6-3.45t-5.5-4.55a54.789,54.789,0,0,0-4.85-3.6q-2.25-1.35.1-1.5,9.851-.2,15.35,1.9,7.9,3.1,13.5,11.5a7.515,7.515,0,0,1,1.2,4.2,2.692,2.692,0,0,1-2.8,2.7l-9.6,1.5a48.517,48.517,0,0,1-9.6,1.2q-7.9-.4-22.4-2.35-14.5-2-19.35-2.35t-14.8-.4q-9.95-.1-15.15,0a16.737,16.737,0,0,0-8.35,1.9q-3.15,1.8-3.25-.8a5.423,5.423,0,0,1,1.2-4.05,28.376,28.376,0,0,1,2.9-2.7q1.6-1.35,6.6-4.75a4.693,4.693,0,0,1,2.3-.7,7.043,7.043,0,0,1,2.4.2q3.5,1,10.5,2.8a28.075,28.075,0,0,1,9.7,4.8q2.1,1.6,2.9,0a1.766,1.766,0,0,0-.3-1.1,3.822,3.822,0,0,0-.9-1.1,31.717,31.717,0,0,0-8.6-4.7q-1.6-.6-9.7-2.8a25.6,25.6,0,0,1,8.4-1.7m17.7,20.55a2.67,2.67,0,0,0-2.35-.1,3.7,3.7,0,0,1-2.5.65,13.468,13.468,0,0,1-2.95-1.1,3.067,3.067,0,0,0-3.5.2q-4.9,3.8-10.1.7-2.6-1.4-8.4,0-5.2,1.3-8.6-2-1.15-1.149,7-1.4a238.6,238.6,0,0,1,50,3.2q2.7.45,1.1,1a17.637,17.637,0,0,1-4.2.9,7.459,7.459,0,0,1-3.9-.8,8.758,8.758,0,0,0-4.8-.9,15.5,15.5,0,0,0-1.8.25,8.939,8.939,0,0,1-5-.6m-27.15,4.35q-1,0-.45-.75,2.45-3.05,5.05-.1.8.8-.7.85h-3.9m-9.35-.7q.951.8-.3.9a35.586,35.586,0,0,1-4.25.3q-.849-.1-.4-2.1.25-1.1,1.6-1a3.75,3.75,0,0,1,1.05.4,18.036,18.036,0,0,1,2.3,1.5m1.3,15.7q-3.4,0-4.6-2a52.1,52.1,0,0,1-1.8-8.1q-.1-.4.6-1a1.666,1.666,0,0,1,1.1-.6q4-.2,11.9-.3l16.9-.7q2.2,0,2.7-.7a3.209,3.209,0,0,1,2.9-1.7q.5.1,3.2.9,3.3.8,10,2.7,2.749.851,15.6-1.4,2.8-.4,13.3.3,8.3.5,12.2-2.35a5.049,5.049,0,0,1,3.9-1.15,29.616,29.616,0,0,1,3.5.6q.7,0,1.4,1.2a11.037,11.037,0,0,1,1.1,5,43.016,43.016,0,0,1-.5,5.1q-.2,1-1.9,1.2a91.584,91.584,0,0,1-9.4.9q-7.8-.2-28.7,1.8a98.711,98.711,0,0,1-11.6.4l-11.7-.3-24.6.25q-3.7.051-5.5-.05m59.1-38.45q-1.849-.049-1.6.5a6.473,6.473,0,0,0,1.05,1.35q.75.8,1.55-.5t-1-1.35m9.6,5.45q-1-.5-2.4.75-1.4,1.2-.1,1.4a2.869,2.869,0,0,0,2.4-.75q1.1-.95.1-1.4m-59.75,1.35q.1-1.2-.7-1.1-.849.051-1.05.35-.2.25.75,1.05.9.851,1-.3m31.4,2.4q-1.35-.65-1.55.7t1.05,1.4q1.251.051,1.55-.7t-1.05-1.4"/></svg>