<svg overflow="visible" width="100%" height="100%" viewBox="0 0 80.261 116.393" xmlns="http://www.w3.org/2000/svg"><path d="M30.851,20.356q.4,4.2-3.7,6.1l-23.4,12a15.908,15.908,0,0,0-3,1.7,1.51,1.51,0,0,0-.5.6,2.956,2.956,0,0,0-.2.6c-.007.1-.023.353-.05.75s.165,2.144.55,5.25l1.1,15.8q.8,11.7,2.3,35.1a82.092,82.092,0,0,0,2.25,13.25q1.437,5.311,4.6,4.85,3.22-.417,6.65-1.05,3.435-.576,5.15-1t3.95-1a21.483,21.483,0,0,0,5.85-2.65q3.648-2.1,9.35-5.5,5-3.11,10.3-7.1T62,90.806q4.655-3.265,7.75-5.55a39.8,39.8,0,0,0,5.2-4.5,16.884,16.884,0,0,0,3-4.8,40.225,40.225,0,0,0,2.3-14.65q.064-8.8-.3-23.75t-.65-16.65a22.633,22.633,0,0,0-.7-3.2,12.05,12.05,0,0,0-1.1-2.65,24.518,24.518,0,0,0-3.4-3.75q-2.743-2.664-8.55-1.85-2,.4-3.1.5a3.882,3.882,0,0,1-2.6-.2,3.53,3.53,0,0,1-1.2-2.3,25.937,25.937,0,0,0-.7-3q-1.2-3.4-2.3-4.1-1.3-.8-4.6.2-5.1,1.6-18.4,7.1-2,.8-2,4.2.1,2.8.2,8.5m21.4-12.4q.7,3.8.1,4.9a8.082,8.082,0,0,1-3.1,2.3l-11,5.4q-.864.174-.85-1.05a52.088,52.088,0,0,1,.65-7.6,4.151,4.151,0,0,1,2.45-3.05q2.863-1.351,6.2-2.7,4.848-1.957,5.55,1.8m-13.9,16.4a3.457,3.457,0,0,1,1.1-.9l11-5.7q1.4-.7,2-.3.7.3.75,1.5a3.8,3.8,0,0,0,.5,1.8,1.654,1.654,0,0,0,1.45.7,6.265,6.265,0,0,0,2.7-.7q1.663-.745,1.45-2a9.5,9.5,0,0,1,.15-3.2,3.682,3.682,0,0,1,2.85-2.7,15.319,15.319,0,0,1,5.95-.3,2.41,2.41,0,0,1,2.2,1.7,2.983,2.983,0,0,1-.9,2.9,21.9,21.9,0,0,1-4.7,3.5l-21,12a25.773,25.773,0,0,0-5.3,3.6q-3.5,3.6-10.3,3.6H9.951q-2.753.016-.4-1.1l18.8-9.7q2.1-1,2.7-.8t.75,2.35q.162,2.181,1.95,1.55a15.061,15.061,0,0,0,3.2-1.45q1.48-.808,1.2-3.3-.291-2.454.2-3.05m-8.15,19.2a4.8,4.8,0,0,0,3.05-.2,16.007,16.007,0,0,0,3.9-2.3q7.8-5.6,11.8-8.2,2.2-1.4,12.1-6.8a71.764,71.764,0,0,0,11.6-7.5,1.608,1.608,0,0,1,1.9-.3,2.456,2.456,0,0,1,1.3,1.4,10.655,10.655,0,0,1,.4,3.4q1,33.4,1.1,39.7a52.7,52.7,0,0,1-.6,8.05,13.458,13.458,0,0,1-3.1,7.15,35.516,35.516,0,0,1-5.2,4.95,61.034,61.034,0,0,1-6,4.3q-2.789,1.771-8.75,6.4a110.619,110.619,0,0,1-11.55,7.9q-5.522,3.291-9.6,5.8-1.922,1.356-1.8-1.1v-1.95q1-32.9,1.1-39.7,0-3.407-.65-11.5-.522-6.993-1-9.5m-5.45-.8c.265,0,.6-.017,1-.05q2.226-.165,2.3,2.15.132,4.056.3,5.8.9,12.6.9,14.2,0,.2-.9,35.2-.2,4-.5,5.9a5.409,5.409,0,0,1-4,4.7q-3.2.9-8.7,2-5.454,1.1-6.45-1.95a49.241,49.241,0,0,1-1.6-9.9q-.551-6.849-1.05-13.35l-2.3-34.2q-.206-3.6-.35-5.9-.085-2.254-.2-3.45-.113-1.148,1.8-1.25l19.75.1"/></svg>