<svg overflow="visible" width="100%" height="100%" viewBox="0 0 72.525 116.004" xmlns="http://www.w3.org/2000/svg"><path d="M49.276.786q-10.4-2.6-20.2,3.4a50.723,50.723,0,0,0-9.7,7.8q-2.9,2.8-6.15,6.4a48.287,48.287,0,0,0-3.8,4.5,4.993,4.993,0,0,0-.6,2.45,5.037,5.037,0,0,0,.35,2.35,4.4,4.4,0,0,1,.2,3.4,4.888,4.888,0,0,1-2.6,1.9q-3.9,1.4-6,6.3a5.966,5.966,0,0,0-.1,5.7,5.926,5.926,0,0,0,4.9,2.8q1.8.2,5.4.4a5.588,5.588,0,0,1,1.6.7,2.045,2.045,0,0,1,.9,1.2q3.2,12.8,4,18.3.8,6,2.5,22.6,1.4,14.3,2.7,22.6a3.349,3.349,0,0,0,.7,1.5,2.045,2.045,0,0,0,1.2.9,3.51,3.51,0,0,0,3.3-1.8,14.539,14.539,0,0,0,1.8-3.7q3.1-8,5.65-13.4,2.5-5.449,5.05-9.95,3.5-6.15,8.2-15.45,5.3-10.5,8-15.7,2.4-4.9,6.7-4.4a19.429,19.429,0,0,0,4.4-.6q3.9-.6,4.7-5.1.8-4.6-2.7-6.5a29.37,29.37,0,0,0-7.6-3.1q-2.1-.5-1.2-2.2a27.844,27.844,0,0,0,2.1-8.9,48.669,48.669,0,0,0-.5-9.9q-1.9-11.8-13.2-14.5m-24.6,9.9q10-9.5,23.2-7.4,11.7,1.7,12.6,18.2a16.969,16.969,0,0,1-.5,5.9q0,.2-1.8,5.7-.5,2.5-3.5,2.6a25.559,25.559,0,0,0-4.5-.15,2.1,2.1,0,0,0-1.35.45,1.6,1.6,0,0,0-.25,1.15q0,.75,3.35.95t6.15.1q4.3-.1,9.8,3.2,2.4,1.5,1.8,3.6-.7,3.1-3.2,3.4a17.237,17.237,0,0,1-5.9.3q-4-.9-10.1,1.6-6.7,2.8-10.1,2.5-3,0-1.9-2.9a1.016,1.016,0,0,0-.3-1.3,1.652,1.652,0,0,0-1.5-.1,13.927,13.927,0,0,1-6.7.5,31.077,31.077,0,0,0-6.8-.2q-1.6.2-2.6-2.5-1.2-2.9-2-3.2-.9-.4-3.3,1.1a8.8,8.8,0,0,1-5.5,1.3q-4.3-.2-5.5-1-2-1.5-.7-4.7a6.752,6.752,0,0,1,3.6-3.9q7-2.8,10.8-3,2-.1,1.9-1.45a1.321,1.321,0,0,0-1.5-1.35,9.651,9.651,0,0,0-1.8.1,12.654,12.654,0,0,1-2.1.3,1.592,1.592,0,0,1-1.8-1.1,11.566,11.566,0,0,1-.9-2.8,4.049,4.049,0,0,1,.7-2.9,65,65,0,0,1,5.8-6.7q4.3-4.1,6.4-6.3m12.1,43.6a21.009,21.009,0,0,0,7,1.5,7.158,7.158,0,0,0,2.8-.7q.9-.4,2.8-1.2c.133-.067.283-.133.45-.2l-.5.4q-9.751,6.7-13.05,8.5a1.613,1.613,0,0,1-2.6-.5,15.515,15.515,0,0,0-1.5-2.9q-1.4-2,.5-3.9a3.533,3.533,0,0,1,4.1-1m17.55-1.55q.4.5-.05,1.65l-7.1,12.95q-4.2-4.9-1.85-7.05a62.179,62.179,0,0,1,5.45-4.5,24.061,24.061,0,0,0,3.55-3.05m-15.75,25.45q.349.6-.8,1.5-5.3,3.3-6.45,4.15-1.151.8-1.85.3-.651-.5-1.2-3.75-.6-3.251-.95-5.4a5.44,5.44,0,0,1,.05-2.95,3.78,3.78,0,0,1,1.6-1.55q3.8-2.4,4.4-2.2a29.56,29.56,0,0,1,2.1,3.8l3.1,6.1m5.85-9.85a19.163,19.163,0,0,0,1.15,2.25l-4,7.4-4.9-9.8a2.125,2.125,0,0,1,.45-2.95,13.288,13.288,0,0,1,3.05-1.85q1.6-.7,4.25,4.95m-25.15-18.45a4.939,4.939,0,0,0,3.7,1.9h8.4q1.7,0,.2.9l-7.7,5.8a3.444,3.444,0,0,0-1.2,2.8,25.15,25.15,0,0,0,.9,6.1q.5,3.8-2.7,4.6-.4-3.4-2.4-12.6a90.287,90.287,0,0,1-2-12.7,18.737,18.737,0,0,1,2.8,3.2m6.5,12.45a5.5,5.5,0,0,1,.15-1.45q.2-1.05,1.95-1.2a2.42,2.42,0,0,1,2.6,1.7q1.3,2.9.8,3.9-.5.9-4.8,3.2-.7-5.8-.7-6.15m-2.15,11.65q.849.2,1.1,1.8t1.35,6.65q1.1,5.05-3.2,6.25a28.585,28.585,0,0,1-1.1-5.8l-.8-7q-.1-1,.3-1.3a8.962,8.962,0,0,1,.9-.5,2.1,2.1,0,0,1,1.45-.1m6.65,23.95a9.8,9.8,0,0,1-.25,4.15l-4.65,10.9q-.9-5.8-2-16.7-.6-2.4,1.8-4.1a5.779,5.779,0,0,1,2.2-1.3q1-.2,1.8,2.75.75,2.9,1.1,4.3m2.05-1.3a22.086,22.086,0,0,0-1.1-4.35q-1.249-3.8,1.45-6a38.316,38.316,0,0,0,5.7-3.9l-6.05,14.25"/></svg>