<svg overflow="visible" width="100%" height="100%" viewBox="0 0 116.352 71.105" xmlns="http://www.w3.org/2000/svg"><path d="M17.912,28.016q-3.7,2.3-11,7.2-4.4,2.8-5.2,9-.1.9-1.1,6.8a33.76,33.76,0,0,0-.6,6.7q.7,8.1,1.1,8.7,1.1,1.4,9.6,2.2,2.8.2,11.4.5a94.076,94.076,0,0,1,11.4.7,104.86,104.86,0,0,0,23.6,1q9.2-.8,13-1.4a80.868,80.868,0,0,0,12.8-2.7q3.9-1.2,11.9-3.4,7.9-2.1,11.9-3.4,10.8-3.4,9.5-13a63.835,63.835,0,0,0-3.1-13.8,31.613,31.613,0,0,0-4.6-8.7q-.5-.7-6.1-7.7a20.763,20.763,0,0,0-9.25-7.2,61.089,61.089,0,0,1-11.149-5.6q-1.5-.8-2.2-1.2a17.094,17.094,0,0,0-6.6-2.1q-4.5-.4-6.9-.6a33.839,33.839,0,0,0-18.5,5,43.6,43.6,0,0,0-14,13.3q-2,3.3-4.1,3.9a59.625,59.625,0,0,0-11.8,5.8m12.9-3.2a8.417,8.417,0,0,0,5.1-4.3q7.3-12.1,21.9-16.7a17.47,17.47,0,0,1,5.1-.6q4.6,0,5.2-.1,8.1-.9,16.1,6.1a116.767,116.767,0,0,0,10.1,7,30.2,30.2,0,0,1,8.6,8.7l6.2,8.3q3.3,3.9.8,8.1a13.946,13.946,0,0,1-6.8,5.5q-10.8,4.2-18.3,7.5-7.9,3.1-20,3.3-13.9-.3-20.6-.1-21.6-1.1-24.3-1a18.964,18.964,0,0,1-10.7-3.3,9.125,9.125,0,0,1-4.6-8,9.152,9.152,0,0,1,4.2-8.1q7.6-5.2,10.6-7a53.758,53.758,0,0,1,11.4-5.3m82.1,18.2q1.6,5.4-.1,9.1-1.6,3.7-6.4,5.1-11.8,3.8-17.7,5.5a132.915,132.915,0,0,1-18,4.1q-21.7,3.2-37.1.5a58.734,58.734,0,0,0-8.1-.6q-6.2-.2-8.2-.4-7.1.1-11.2-3-5-3.7-1.9-10.6a21.8,21.8,0,0,0,16.1,6.3q6.9-.1,20.8.6,1.4.1,10.7.3,6.4.2,10.6.5a59.787,59.787,0,0,0,10.2-.3q3.3-.4,9.9-1.6a7.159,7.159,0,0,0,2.7-1.2,62.184,62.184,0,0,1,16.4-6.8,16.47,16.47,0,0,0,6.1-2.9q1.6-1.2,5.2-4.6m-37.25-22.7q2.05,1.5,1.45,2.2a5.925,5.925,0,0,1-2.8,1.6,21.089,21.089,0,0,0-3.2,1.1q-16.6,7.2-28.4,9.6-2.6.6-9.5,4.1a8.206,8.206,0,0,0-1.7,1.1,1.622,1.622,0,0,0-.1,2.2,1.611,1.611,0,0,0,2,.9,8.744,8.744,0,0,0,1.8-1q2.1-1.7,11.9-4.85a132.727,132.727,0,0,1,15.8-4.25,7.893,7.893,0,0,0,2.3-.9,21.131,21.131,0,0,1,7.4-3.4q2.6-.8,7.9-1.9,4-.9,6.3,1.4l10.4,10.6a3.456,3.456,0,0,0,1.25,1,1.247,1.247,0,0,0,1.4-.05,1.008,1.008,0,0,0,.25-1.25,5.4,5.4,0,0,0-1-1.5q-6.3-7.9-10.6-11a56.7,56.7,0,0,1-5.8-4,29.066,29.066,0,0,1-4.7-4.2,16.338,16.338,0,0,0-4.351-3.45,21.762,21.762,0,0,0-8.1-2.45q-1.5.049-1.151,1.1a3.753,3.753,0,0,0,1.75,1.9q1.351.8,4.4,2.35a34.861,34.861,0,0,1,5.1,3.05"/></svg>