<svg overflow="visible" width="100%" height="100%" viewBox="0 0 102.036 114.746" xmlns="http://www.w3.org/2000/svg"><path d="M45.693,39.637a42.072,42.072,0,0,0-9.8,1.4q-9.5,2.2-9.6,2.2-7.1,1.3-15.6,7.2a8.3,8.3,0,0,0-2.2,1.8,2.012,2.012,0,0,0-.25,2.2q.5.951.8,1.45t-5.7,2.85q-6.051,2.3-1.15,8.7a21.115,21.115,0,0,0,3.95,3.75,33.251,33.251,0,0,0,6.5,3.4q4.3,1.751,11.1,1.25t16-.85q9.15-.349,9.65.05.5.5.7,3.2.5,6,1.3,17.8.8,10.4,1.6,14.65t2.3,4.05q1.249-.1,1.15-2.1a15.422,15.422,0,0,0-.55-3.3,100.961,100.961,0,0,1-2.2-16.7q-.4-11.2-.8-16.8a1.313,1.313,0,0,1,.3-1,2.512,2.512,0,0,1,.8-.7,7.35,7.35,0,0,1,5.2-.1,8.338,8.338,0,0,1,3.6,3.8l1.1,2.2q1.5,2.8,1.3,3.9-.1,1-2.3,3.3a18.525,18.525,0,0,1-2.8,2.1,8.247,8.247,0,0,1-2.5,1.1q-1.4.7-.5,2.2a1.479,1.479,0,0,0,2.1.6q.3-.2,2.1-1.5,9.2-5.8,5.9-11.8a27.34,27.34,0,0,1-2.4-4q-.7-2.1,1.7-3.7,12.8-8.2,16.7-19.6l1.1-2.5a6.908,6.908,0,0,0,.7-2.6,164.4,164.4,0,0,0-.6-20.2,20.393,20.393,0,0,1,1.7-11.95q1.249-2.45,2.7-.4,4.2,6.051,2.1,12.35a8.249,8.249,0,0,0-.2,3.4,3.542,3.542,0,0,0,.8,2.5,3.383,3.383,0,0,0,2.6,0q6-1.7,7.35-8.2a23.673,23.673,0,0,0-.25-11.6,30.471,30.471,0,0,0-4.65-9.3q-3.15-4.2-7.45-4a24.775,24.775,0,0,1-6.4,0q-5.4-.9-9.5,4.1-4,5-2.5,9.8a101.1,101.1,0,0,0,3.8,11.2,15.5,15.5,0,0,1,1.2,10.9q-1.5,6.3-7.3,7.3a15.094,15.094,0,0,1-6.8-.5q-9.5-3.3-15.9-3.3m-11.3,4.6a60.538,60.538,0,0,1,11.4-2,20.046,20.046,0,0,1,7.4.9q.1,0,7.1,2.4,2.9.9,1.4,3.4-1.2,2.1-8.85,5.75a47.82,47.82,0,0,1-13.4,4.45,56,56,0,0,1-10.15.6q-4.45-.2-7.25-.6a19.07,19.07,0,0,1-6.6-2.55q-3.75-2.15-3.85-2.65,0-.6,1.4-1.6,6.5-4.2,10.1-5.1,3.8-.9,11.3-3m13.85,27.75a249.846,249.846,0,0,1-25.95,1.35q-10-.2-14.6-4.6t-4.4-5.4a2.371,2.371,0,0,1,1.3-1.7q1.8-.8,5.4-2.6,2.3-.8,8.9,2t17.95,1.3a62.23,62.23,0,0,0,21.55-7q4.9-2.7,6.2-6.1a4.752,4.752,0,0,1,4.1-3.1q6.6-.6,9.3-7.7a17.058,17.058,0,0,0-.1-12.7q-3.2-7.2-4.4-10.9-1.4-3.8,2-8.9a6.391,6.391,0,0,1,3.3-2.4,7.534,7.534,0,0,1,4.2-.2,3.614,3.614,0,0,1,2.1,2.2,5.909,5.909,0,0,1,.2,3.7,16.83,16.83,0,0,1-1.4,3.6,20.863,20.863,0,0,0-2.4,8.7,41.379,41.379,0,0,0,.5,9.1,151.715,151.715,0,0,1,.6,15.7,7.7,7.7,0,0,1-1,3.1q-1.4,2.9-1.6,3.4a24.41,24.41,0,0,1-5.8,9.4,77.841,77.841,0,0,1-8.5,7.1q-1.5,1.1-17.45,2.65m39.45-68.85q.5-.4,2.95.2,2.45.551,5.15,4.7a24.8,24.8,0,0,1,3.5,10.75,11.5,11.5,0,0,1-4.15,10.75q-1.35,1.3-1.35-.9,0-1,.05-1.45a28.892,28.892,0,0,1,.8-3.95q.75-3.049-2.5-7.6a29.905,29.905,0,0,1-4.65-10.7q-.4-1.3.2-1.8m-6.25,3.4q-1.2-.649-1.5.35a14.585,14.585,0,0,0-.45,3.05q-.15,2.051,1.2,1.65,1.3-.4,1.6-2.4t-.85-2.65"/></svg>