<svg overflow="visible" width="100%" height="100%" viewBox="0 0 114.902 72.041" xmlns="http://www.w3.org/2000/svg"><path d="M6.235,24.591a8.841,8.841,0,0,0-5.6,4.2q-1.8,3.3,1.5,6a16.294,16.294,0,0,0,9.1,3.5,57.639,57.639,0,0,0,11.35-.35q6.15-.75,6.65-.45.6.4,1.2,3.4l.6,2.4q.7,2.1-1.6,3.1-2.9,1.1-4.3,1.8a8.305,8.305,0,0,0-3.5,2.7q-.5.5.5,1.1a6.768,6.768,0,0,0,2.9.75q1.9.15,7.6.25,2.6.2,3.4,1.4,7.1,10.1,23.4,8.4a1.733,1.733,0,0,1,1,.5,3.231,3.231,0,0,1,.85,1.35q.3.849-1.35,1.85-.7.8-4.85.6a49.157,49.157,0,0,0-5.1-.1,4.157,4.157,0,0,0-1.65.5,2.829,2.829,0,0,0-.9.9,1.234,1.234,0,0,0,.4,1.5,4.62,4.62,0,0,0,1.6.7q4.1,1.1,12.95,1.25t10.8.2a3.788,3.788,0,0,0,1.05-.1,2.537,2.537,0,0,0,1.7-1.45,10.581,10.581,0,0,0,.5-3.8q.1-7.1,7.3-8a55.317,55.317,0,0,0,24.8-14.9,50.459,50.459,0,0,0,5.55-7.65q2.451-3.951-2.45-3.25a42.522,42.522,0,0,0-7.1,2.1q-11.6,5-20.3,9.1a16.827,16.827,0,0,1-7.5,2,10.636,10.636,0,0,1-7.3-3.5,66.415,66.415,0,0,1,4.8-4.7q3.15-2.95,4.55-4.5,5.25-5.9,6.75-7.3a17.209,17.209,0,0,1,8.2-4.7,1.513,1.513,0,0,0,.8-.7,2.148,2.148,0,0,0,.4-1.2q-.2-1.1-1.8-1.8-1.8-.6-2.6-.9-7.449-2.4.65-1.85a82.387,82.387,0,0,0,10.65.3q2.6-.25,3.1-1.25a1.585,1.585,0,0,0-.3-1.8,40.978,40.978,0,0,0-4.95-4.3,55.487,55.487,0,0,0-7.85-3.7A63.439,63.439,0,0,0,77.185.341a24.231,24.231,0,0,0-15.85,2.65,6.616,6.616,0,0,0-3.7,5.4q-.4,5.1-.9,15.6-3.5,13.149-4.1,11.95-.649-1.251-3.2-6.95-2.55-5.751-3.15-6.75a45.869,45.869,0,0,1-2.15-4.4q-1.5-3.351-4.05-2.35-2.6,1-3.6-1.35-1-2.4-3.75-.65t-5-1.4q-2.3-3.2-3.7,2.2t-7.3,7.6q-7.2,1.7-10.5,2.7m-1.9,4.4a37.58,37.58,0,0,1,5.2-2.25,59.826,59.826,0,0,1,6.35-2.25,13.559,13.559,0,0,0,3.25-1.25,33.678,33.678,0,0,1,3.05-1.65,5.661,5.661,0,0,0,2.7-3.25q.8-2.351,2-1.75a6.937,6.937,0,0,0,3.3.55,10.042,10.042,0,0,0,3.4-.55q1.2-.55,2.3,1.35a2.87,2.87,0,0,0,3,1.6,3.2,3.2,0,0,1,3.25,1.75q1.3,2.049,1.75,2.65.4.549,3.75,8.45,3.351,7.85,4.7,7.2a7.905,7.905,0,0,0,2.6-2.35,32.339,32.339,0,0,0,2.75-4.75,18.2,18.2,0,0,0,1.65-6.8l1-16.3q.3-2.5,1.1-3,4.4-2.3,5-2.5a20.134,20.134,0,0,1,7.2-1.3q4.251-.1,12.5,2.5a66.686,66.686,0,0,1,13.3,5.45q5.051,2.85-2.95,2.45-8.049-.4-9.8.05a8.628,8.628,0,0,1-3.05.3,14.185,14.185,0,0,1-2.95-.75,22.058,22.058,0,0,0-8.8-1.35q-4.35.249-5.75,4.65-.8,4.9-2.9,21.9-.5,2.6,1.3,2.7a1.043,1.043,0,0,0,1.2-.5,85.433,85.433,0,0,0,1.5-10.5q.8-8.3,1.1-10.5.1-.8,2.45-2.85a6.184,6.184,0,0,1,5.65-1.35,28.7,28.7,0,0,1,4.85,1.3q1.551.6,2.85,1.05a18.573,18.573,0,0,1,2.65,1.1,3.907,3.907,0,0,1,1.7,1.35q.351.75-.6,1.35t-2.75,1.9a16.86,16.86,0,0,0-3.75,3.7,93.856,93.856,0,0,1-7.25,7.3q-5.2,4.849-6.7,6.65a2.236,2.236,0,0,0,.4,3.5q3,2.5,8.8,7.7,1.4,1.1,2.5-.7,1.4-2.4,2.1-2.6l26.7-11.8q3.8-1.751,3-.3-10,14.5-30.2,20.5a8.875,8.875,0,0,0-5.95,6,16.125,16.125,0,0,0-1.2,6.8q-.5-.051-1.4-.1-2.85-.1-8.15-.3.2-10.5.3-13.55a11.537,11.537,0,0,0-.3-4,1.448,1.448,0,0,0-1.45-.95,1.141,1.141,0,0,0-1.25,1,5.747,5.747,0,0,0-.1,2l-.1,3.7a2.4,2.4,0,0,1-2.2,2.4,21.715,21.715,0,0,1-14-1.8,30.49,30.49,0,0,1-4.2-2.4,6.005,6.005,0,0,1-2.6-3.65q-.45-2.1-2.95-1.95a18.369,18.369,0,0,1-4.2-.15q-1.749-.351.15-.95l5.35-.9q2.3-.351,2.15-1a2.851,2.851,0,0,0-.75-1.25,2.423,2.423,0,0,0-1.7-.55,2.657,2.657,0,0,1-1.95-.8,5.251,5.251,0,0,1-.8-2.5,27.468,27.468,0,0,0-1.4-6.3q-1.3-3.3-3.1-2.4a22.715,22.715,0,0,1-7.35,1.95q-3.549.4-6.9.7-6.249.249-10.25-2.75-3.1-2.3-.1-4.1m14.2-3.7a5.174,5.174,0,0,0-2.8,1.7q-.849,1.1,2.3,1.6,3.1.4,2.8-1.7-.349-2.2-2.3-1.6"/></svg>