<svg overflow="visible" width="100%" height="100%" viewBox="0 0 90.143 116.395" xmlns="http://www.w3.org/2000/svg"><path d="M40.368,3.838a7.577,7.577,0,0,1-4.2-.2q-10.2-4-19.8,3.8a6.249,6.249,0,0,0-2.9,4.4q-.3,7.3.4,9.7,1.3,3.8,6.7,7.2a3.412,3.412,0,0,1,1.6,2.6q.2,7.2,6.85,14.6.95.9,0,1.6-.7.65-1.85,1.9l-6.25,6.3a2.43,2.43,0,0,1-2.6.45,15.688,15.688,0,0,0-3.65-.75,12.242,12.242,0,0,0-7.5,1.9,13.37,13.37,0,0,0-5.6,5.2q-3.9,7,1.9,10,4.4,2.2,12.2,1.7,2.6.1,3.1.6t.3,3.2q-.3,4.4-1,13.3-.1,5,1.8,7.4,1.8,2.3,6.7,3.4a3.309,3.309,0,0,1,2.1,1.2,3.627,3.627,0,0,1,.2,2.2,40.328,40.328,0,0,1-.6,6.5q0,4.1,3,4.3a18.657,18.657,0,0,0,5.4-.3,7.777,7.777,0,0,0,4.5-3,36.3,36.3,0,0,0,4.1-7.1q1.3-3,3.8-3.4,2.1-.3,6.3-1,2-.2,2,2.2-.1,3.3,2.7,4.3a7.235,7.235,0,0,1,1.8.7,4.389,4.389,0,0,0,5.4-1.2,7.392,7.392,0,0,0,1.7-5.5,8.234,8.234,0,0,1,2.1-6.4q2.4-2.3,2.9-7.1.7-7.7.8-8a2.8,2.8,0,0,1,.6-1,1.365,1.365,0,0,1,.8-.5,11.178,11.178,0,0,0,6.3-1.5l.5-.3a24.586,24.586,0,0,0,4.5-3.7q5.4-5-.1-9.5a17.787,17.787,0,0,0-4.4-2.651,16.086,16.086,0,0,0-6.8-1.149,7.536,7.536,0,0,1-2.1-.2,2.811,2.811,0,0,1-1.4-1.8,82.026,82.026,0,0,0-2-9.1q-.7-2.25.15-2.9a34.98,34.98,0,0,0,8.45-9.8q1-1.5,1.7-6.4a9.215,9.215,0,0,1,2-5.05,4.112,4.112,0,0,1,.7-.65q7-4.4,5.3-12a17.722,17.722,0,0,0-6-9.65,25.884,25.884,0,0,0-2.3-1.75q-2.2-1.5-7.4-.6-5.1,1-5.8,3-.5,1.6-1.1,1.7a4.1,4.1,0,0,1-1.7-.4q-10.5-3.7-24.3-.8m-13,17.3q2.4-4.6,2.7-5.2a14.96,14.96,0,0,1,9.3-8.9q4.5-1.6,13-2a28.577,28.577,0,0,1,12.8,2.7,34.83,34.83,0,0,1,11,7.3q2.2,1.9,2.4,5.9.1,2.3,0,6.8a12.172,12.172,0,0,1-1,6.1,27.571,27.571,0,0,1-3.2,5.2q-5.6,7.6-18.9,11a28.919,28.919,0,0,1-15.6-.3,20.524,20.524,0,0,1-12.7-10.8,18.375,18.375,0,0,1,.2-17.8m37.6,28.4q.7-.25,1.45-.6,1.5-.8,1.75.8.6,2.85,1.05,5.35.55,3.05.95,4.4,2.9,9.95,1.2,26.35-.8,6.7-2.2,8.3-1.7,1.9-9.8,4-10.8,2.7-30,1.6-5-.2-7-2.6-1.9-2.4-1.7-7.7.7-10.2,1.4-15.3a49.35,49.35,0,0,1,4.1-14.7q.9-1.7,2.65-5.45a19.808,19.808,0,0,1,1.85-3.351,1.97,1.97,0,0,1,2.95-.5,27.7,27.7,0,0,0,15.15,4.1,27.068,27.068,0,0,0,8.3-1.5,75.05,75.05,0,0,0,7.9-3.2m3.45-23.651a15.5,15.5,0,0,0-3.15-6.349q-2-2.1-3.3.7a28.512,28.512,0,0,0-1.1,4.8,5.212,5.212,0,0,0,1,4.3,4.4,4.4,0,0,0,4.3,1.4q3.4-.7,2.25-4.851m-20.35,5.1a4.278,4.278,0,0,0,1.3,2.35q1.4,1.5,2.2,1a8,8,0,0,0,1.5-1.5,3.859,3.859,0,0,0,.8-2.3q0-1.251-1.8-1.55a7.676,7.676,0,0,0-2.7-.1q-.95.15-1.15.7a3.546,3.546,0,0,0-.15,1.4m-11.85-9.1a21.539,21.539,0,0,0-2.3,5.1q-1,3.1,3.2,4.45,4.15,1.3,4.35-.75a31.1,31.1,0,0,0-.1-4.9,41.112,41.112,0,0,0-.6-4.2,1.972,1.972,0,0,0-1.8-1.55q-1.451-.2-2.75,1.849"/></svg>