<svg overflow="visible" width="100%" height="100%" viewBox="0 0 82.17 116.5" xmlns="http://www.w3.org/2000/svg"><path d="M51.588,3.3q-2.749-.7-5.85-1.2a14.232,14.232,0,0,0-5.6.1q-8.2,1.9-11.1,7.8-.3.649-2.4.75-1.7.049-4.7.35a66.011,66.011,0,0,1-10.4.9q-5.5,0-9.7,5.9-2.5,3.3-1.6,6.2.9,2.8,4.9,4.2a14.782,14.782,0,0,0,4.3.5q2.9.1,3.55.95a12.16,12.16,0,0,0,5.25,3.95,27.14,27.14,0,0,0,5.9,1.5q2,.4,2.3.9.2.4-.7,2.3-4.4,8.9-13.3,26.7a2.02,2.02,0,0,0,.3,2.1,2.416,2.416,0,0,0,2.6.1q1.8-1,2.5-1.5l11.2-7.1q1.249-.6.6.7-2.5,6.1-8,18.1-4.95,11.35-6.05,16.65t-2.8,11.9q-1.75,6.551-2.15,7.9a1.794,1.794,0,0,0,.55,2.1q.9.75,1.2.25t1.15-2.3l36.6-63.1q3.6-5.9-.4-6.5a64.4,64.4,0,0,0-8.9,1.2q6-9.5,8.3-12.8a8.7,8.7,0,0,1,5-2.1q1.8-.4,5.5-1a25.71,25.71,0,0,0,6.4-2.3,11.569,11.569,0,0,0,4.8-5,6.586,6.586,0,0,1,3.7-3.1,9.226,9.226,0,0,0,5-3.7,14.784,14.784,0,0,0,2.3-5.8,6.944,6.944,0,0,0-2.5-7.8,8.022,8.022,0,0,0-8.1-1.5q-7,1.8-8,2.2a18.061,18.061,0,0,0-7.2,4.2q-.1-.1-.9-1.5t-3.55-2.1m-5.75,1.6q1.7.2,3.8.6,2.051.349,2.4.85t1.45,2.3q1.05,1.751,1.95,1.95.8.1,3.4-2,4.5-4.2,12.7-5.2,9.1-1.2,7.5,6.5a10.319,10.319,0,0,1-1.4,3.8,5.766,5.766,0,0,1-3.4,2.5,12.1,12.1,0,0,0-6.6,5.6,9.41,9.41,0,0,1-6.3,4.5,79.285,79.285,0,0,1-10,1.75,16.381,16.381,0,0,1-6.65-.4,32.129,32.129,0,0,0-4.55-1.35,4.239,4.239,0,0,0-4.1,1.3,15.569,15.569,0,0,1-10.3,4.85q-5.85.3-8.85-3.15t-5.65-3.2a10.353,10.353,0,0,1-3.5-.1q-7.8-2.7-3-7.5,3.5-3.3,6.4-3.3a81.862,81.862,0,0,0,11.85-1.4q1.5-.3,2.6-.5,1.65-.15,1.3.4-.35,1,.85,1.7a1.414,1.414,0,0,0,2.1-.6q.8-1.7,1.1-2.3,2.5-5.6,9.9-7.6a12.461,12.461,0,0,1,5,0m-16.6,31a10.535,10.535,0,0,1,3.7-3q3.3-1.9,4.1-2.5a4.935,4.935,0,0,1,4.6-.8q1.5.4,4.8,1.4a24.857,24.857,0,0,1-4.3,7.6q-5.1,6.6-5.3,6.9a2.543,2.543,0,0,0-.3,2.6,2.406,2.406,0,0,0,1.1.7,2.742,2.742,0,0,0,1.4.2q2.9-.4,9.3-1.7a18.538,18.538,0,0,1-1.2,2.55L18.638,99.6q-2.651,5.15-1.9,2.05a165.631,165.631,0,0,1,7.6-23.25q1.6-3.9,9.9-22.4a2.2,2.2,0,0,0-.6-2.1,1.379,1.379,0,0,0-1-.3,2.5,2.5,0,0,0-1.1.2q-1.1.6-7,4.4a35.55,35.55,0,0,1-7.4,3.8q9.2-18.3,12.1-26.1"/></svg>