<svg overflow="visible" width="100%" height="100%" viewBox="0 0 58.778 115.359" xmlns="http://www.w3.org/2000/svg"><path d="M47.6.667l-10.8,6.9a59.8,59.8,0,0,1-11.4,6,20.345,20.345,0,0,1-2.4.7,3.986,3.986,0,0,1-2.6-.8,5.006,5.006,0,0,0-2.7-.9,2.678,2.678,0,0,0-2.5,1.4,5.3,5.3,0,0,1-2.1,2.1,21.287,21.287,0,0,1-2.7.8,35.314,35.314,0,0,0-7.6,1.8q-4.3,1.7-2,5.5a42.816,42.816,0,0,1,4.9,10.8q1,3.2,4.1,1.1a49.705,49.705,0,0,0,5.2-4.3q1.1,16,.9,32.7-.249,16.65-.5,29.4t-.6,14.95a6.969,6.969,0,0,0,0,3.35,5.665,5.665,0,0,0,3,2.7,6.93,6.93,0,0,0,4.2.3,4.43,4.43,0,0,0,2.6-1.5,8.818,8.818,0,0,0,.7-3.8l.9-55.1q-.2-3.9-.9-10.1-.9-8-1.1-10.1a2.649,2.649,0,0,1,.3-1.8q.5-.6,1.9-.3,4.1.9,5.3,1.3a17.834,17.834,0,0,1,4.8,2.3q9.3,6.9,13.5,13a28.858,28.858,0,0,1,1.6,2.5,13.917,13.917,0,0,0,1.8,2.4q4,3.2,5-1.2a16.791,16.791,0,0,0-.1-7.5q-3.2-21.9-4.8-32.9l-1.6-9.7q-.8-4-4.3-2m-24.4,17.9q.7-1.1,5.5-3.4,6.2-3.2,20.5-12.2.151,1.9,2.9,20t3.8,28.3q-8.3-9.4-12.7-13.5-7.5-7-15.8-8.1-2.8-.4-3.4-1-.5-.6-.8-3.6-.7-5.3,0-6.5m-5.6-2.6q.549-.5.9,0a10.535,10.535,0,0,1,1.05,3.4q.349,2.1.45,3.25a2.755,2.755,0,0,1-2.4.55q-.2-1.4-.451-3.95-.3-2.6.451-3.25m-5.7,3.5q2.1-.6,2.4,1.9.8,5.3.1,6.7-.8,1.4-6,4.7l-4.1-8.2q-1.1-2.2-.9-2.7t2.7-1.1l5.8-1.3m8.05,7.8a1.1,1.1,0,0,1-.75.5,1.617,1.617,0,0,1-.8,0,3.911,3.911,0,0,1-.349-1.35q-.3-1.4,1.9-1.3a4.3,4.3,0,0,1,0,2.15M18,33.867a7.011,7.011,0,0,1-.3-1.7q.1-.9,1.2-1.1,2-.2,2.2,2.6a252.076,252.076,0,0,1,1.8,44.9v28.8a8.656,8.656,0,0,1-.4,3.4,3.079,3.079,0,0,1-2.7,1.4q-.2.1-.8-.7a2.673,2.673,0,0,1-.5-1.3l.2-13.9q.4-27.7.4-31.2,0-17.8-1.1-31.2"/></svg>