<svg overflow="visible" width="100%" height="100%" viewBox="0 0 84.79 116.261" xmlns="http://www.w3.org/2000/svg"><path d="M62.21,93.306a4.279,4.279,0,0,0,2.5.8,3.287,3.287,0,0,0,2.4-.75,3.054,3.054,0,0,0,.8-1.65q.1-.9-1.15-.6a5.669,5.669,0,0,1-2.35.1q-1.1-.2-2-.3-.949-.1-1,.8a1.9,1.9,0,0,0,.8,1.6m5.6-17.75q.4-1-1.15-.9t-1.3.6a2.828,2.828,0,0,0,.6.85,1.052,1.052,0,0,0,.9.4q.551,0,.95-.95m-13.95-19.8q-3.3.251-4.3.25a15.709,15.709,0,0,1-5.5-.85q-1.7-.75-2.25-.4a1.136,1.136,0,0,0-.45,1.2,1.106,1.106,0,0,0,.8,1.05,19.347,19.347,0,0,0,8.25,1.7,30.285,30.285,0,0,0,6.05-.25q1.5-.35,1.75-1a3.052,3.052,0,0,0,.25-1q-.05-.4-.7-.7a11.359,11.359,0,0,0-3.9,0m8.6-53.45a20.39,20.39,0,0,0-11.5-2.2,25.091,25.091,0,0,0-10.7,3.7q-24.1,14.5-33,35.8-3.1,7.4-1,13.5,1.2,3.5-1.2,5.3a10.093,10.093,0,0,0-3.9,4.6Q.11,65.556.01,71.956a52.311,52.311,0,0,0,.8,10.9,40.332,40.332,0,0,0,2.75,8.75,10.1,10.1,0,0,0,2.8,3.8q3.1,2.4,8.9,1.6,5.8-.7,8.7-3.9a30.708,30.708,0,0,0,7.2-14.5,21.037,21.037,0,0,0-1.5-13.5,19.713,19.713,0,0,0-9.5-9.8q-2.2-1-2.5-1.8-.2-.6.8-3,5.8-14.1,9.7-20.6a52.379,52.379,0,0,1,15.1-16.8,42.861,42.861,0,0,1,11.6-5.8q7.8-2.4,12.2.9a18.511,18.511,0,0,1,2.35,2.95,42.87,42.87,0,0,1,3.05,5.2,36.467,36.467,0,0,1,3.65,11.5,33.672,33.672,0,0,1-.05,10.55q-.8,4.6-2.55-1.5t-2.45-6.9q-.7-.8-1.45.4t-1.85-.7q-1.1-1.9-2.05-3.45t-4.45-3.7a18.121,18.121,0,0,0-2.2-1.25,1.3,1.3,0,0,0-1.9.6,1.391,1.391,0,0,0,.3,2,14.992,14.992,0,0,0,1.9,1,11.724,11.724,0,0,1,6.9,9,13.365,13.365,0,0,1-2.7,11.5,12.619,12.619,0,0,0-4.85-8.35q-1.751-1.3-2.3-.65-.8.8.35,1.9a18.144,18.144,0,0,1,4.6,8.7q0,.8.4.8a3.7,3.7,0,0,1,2.9,2.5,28.674,28.674,0,0,1,1.2,3.5,22.482,22.482,0,0,0,5.6,7.8q2.3,2.2,7.2,6.4,2.1,1.9,2.2,2.6.1.8-1.6,3a24.752,24.752,0,0,1-3.9,3.6,10.3,10.3,0,0,1-1.7,1,16.169,16.169,0,0,0-3.1,1.9q-1.9,1.35-2,1.8-.2.349.65,6.3.851,5.9-3.25,18a6.512,6.512,0,0,1-3.3,4q-6,2.9-9.55,3.15t-4,.65a1.035,1.035,0,0,0-.4.9,1.671,1.671,0,0,0,.45.95q.4.45,3.35.4a19.825,19.825,0,0,0,4.45-.45,22.176,22.176,0,0,0,8.9-4.45q2.95-2.749,4.25-9.55a110.97,110.97,0,0,0,1.7-11.85q.35-5.1.3-6.2t1.5-2a33.08,33.08,0,0,1,3.8-1.95q2.25-1,4.95-5.35t2.4-5.05a4.789,4.789,0,0,0-1.2-1.2q-6.7-5.3-9-7.6a29.645,29.645,0,0,1-6.8-9.6,1.254,1.254,0,0,1-.1-.9,1.14,1.14,0,0,1,.4-.8,6.97,6.97,0,0,0,1.9-3.9q.2-2.9.3-4.4v-4.9q.15-2.651,1.1,0a37.516,37.516,0,0,1,.7,6.8q0,2.3-.2,5.25-.251,2.9,1.1,3.65.8.75,3.4-4.5,2.6-5.3,2.9-15.1.2-9.8-3.15-15.6-3.3-5.8-5.1-8.35a20.067,20.067,0,0,0-4.5-3.5,31.9,31.9,0,0,0-4.05-2.45m-16,1.95a48.2,48.2,0,0,1,9.6-.65q-16.4,4.2-27.6,20.8-6.6,9.7-15.5,32.2a5.208,5.208,0,0,1-3.8-2.9,15.168,15.168,0,0,1-1-4.7,14.091,14.091,0,0,1,1.1-6.8,101.255,101.255,0,0,1,4.9-10,58.732,58.732,0,0,1,8.15-10.85,84.73,84.73,0,0,1,12.65-10.95q7.5-5.4,11.5-6.15M8.16,59.506q1.1-.6,4.6.3.8.2,2,.4a1.869,1.869,0,0,0,1.7-1.3,1.5,1.5,0,0,1,1.6-1,4.851,4.851,0,0,1,1.8.7q7.5,3.8,8.6,12.6,1.5,10.8-6.5,19.5-3.3,3.8-10.9,3.8-4.1-.2-5.3-4.5-3.1-10.4-3.2-16.6a46.092,46.092,0,0,1,.75-7.8q.551-3.2,4.85-6.1m9.3,10.4a1.45,1.45,0,0,0,2.1,0q.851-1.151-2.6-3.1-3.5-2-6.1-.9a4.738,4.738,0,0,0-2.8,2.3,10.269,10.269,0,0,0-.6,4.6q.2,1.6.4,3.65.15,2.049.6,2.25a1.725,1.725,0,0,0,.9.15,1.41,1.41,0,0,0,.8-.45q.4-.4.15-2.35t-.35-3.55q-.1-2.7,1.4-3.8t3.9-.1q.8.4,2.2,1.3"/></svg>