<svg overflow="visible" width="100%" height="100%" viewBox="0 0 115.594 86.137" xmlns="http://www.w3.org/2000/svg"><path d="M51.731,5.808q-12.2-.1-15.5,1.1-1.6.5-12,7.3-3.4,2.3-10.2,7a55.537,55.537,0,0,1-11,5.8,4.1,4.1,0,0,0-3,3.3q-.3,2.4,2.3,3.7a5.181,5.181,0,0,0,4.4.4,11.083,11.083,0,0,0,3.6-2.9,28.194,28.194,0,0,1,4.1,8q1,2.8,2.5,8.3,2.4,9.8,11.7,18.2,5.1,4.6,17.9,12.7a8.445,8.445,0,0,1,2.3,1.8,3.058,3.058,0,0,1,.4,2.9,2.627,2.627,0,0,0,.4,1.5,2.179,2.179,0,0,0,1.1,1.2q.8.2,3-1a7.816,7.816,0,0,0,1.8-1.7,19.95,19.95,0,0,1,9.2-5.6,64.489,64.489,0,0,0,17.7-8.6q2.6-1.7,11.3-7.3,3.95-2.55,9.2-5.9a24.193,24.193,0,0,1,3.9-2,7.449,7.449,0,0,1,4.4-.45q3.1.55,4.1-2.65t-1.8-4.3a6.739,6.739,0,0,1-3.2-2.7,17.981,17.981,0,0,1-1.7-3.8q-4.7-11.7-4.8-12a23.94,23.94,0,0,0-8-9.8l-2.1-1.4q-12.9-8.349-26.1-9.9a3.233,3.233,0,0,1-1.7-.6,1.945,1.945,0,0,1-.3-1.9q.9-3.4-2-4.3a3.787,3.787,0,0,0-3,.2,6.653,6.653,0,0,0-2.1,3,3.292,3.292,0,0,1-2.8,2.4h-4m-17.9,5.5a24.337,24.337,0,0,1,9.4-2.6,73.789,73.789,0,0,1,9.9-.2q4.8,0,5.9-.7,1.1-.6,2.9-4.6.75-1.55.8,0,.1,4.6.9,5.5t5.1,1.4q12.8,1.551,25,10.3l.4.3a19.6,19.6,0,0,1,4.4,4.8q.7.9,3.5,5.7a44.928,44.928,0,0,1,3.5,8.7q.8,1.9,2.3,5.7a10.276,10.276,0,0,0,2.65,3.35q1.5,1,0,1.25a26.057,26.057,0,0,0-10.95,4.5q-2.351,1.6-5.8,3.9-3.849,2.55-9.1,5.9a93.761,93.761,0,0,1-22.9,11.6,25.875,25.875,0,0,0-5.3,2.9q-3.3,2.2-4.35,0-1.05-2.25-.85-3.05.249-.849-.9-3.55a98.252,98.252,0,0,0-27.5-38.8,23.033,23.033,0,0,0-3.7-2.8q-2.2-1.1-3.9-1.85a6.425,6.425,0,0,0-2.35-.7,3.5,3.5,0,0,0-1.2.2,31.349,31.349,0,0,0-3.4,1.45,25.663,25.663,0,0,1-3.7,1.45q-.9.15-.95-.55a1.221,1.221,0,0,1,.8-1.4l4.8-2.1,4.45-2.5q4.2-2.85,8.8-6,9.249-6.249,11.35-7.5m1.8,40.5a23.121,23.121,0,0,1,1.9,2.3q1.2,1.6.5,2.45a5.51,5.51,0,0,1-1.5,1.25q-.75.351-2.4-1.55a6.47,6.47,0,0,1-1.75-2.6q-.05-.45.95-1.3,1.549-1.35,2.3-.55m2.55,9.05q-.65-.9.55-1.7a1.35,1.35,0,0,1,2.1.4,1.789,1.789,0,0,1,.05,2.4q-.9,1.05-1.45.45a16.66,16.66,0,0,1-1.25-1.55m5.55,3.35q.4.15,1.3,1.65.851,1.451.35,2.15-.55.7-2.05-.85-1.5-1.65-.75-2.4.7-.75,1.15-.55m3.2,9.7q2.1,2,.8,1.4-14.4-6.7-21.7-16.3-7.7-10-10-25.6-.25-2.25,1.1,1.4,4,9.9,13.2,20.8,5.3,6.3,16.6,18.3m-25-34.6q-.5-1.1-1.1-2.25-1.2-2.25.8-.55,1.3,1,2.2,1.75.849.75-.45,1.5a.88.88,0,0,1-1.45-.45m5.1,2.25q.649-.249,1.85.95,1.151,1.2-.15,2-1.35.75-1.95.5a4.442,4.442,0,0,1-1.55-1.3q-.95-1.1.1-1.5a13.084,13.084,0,0,1,1.7-.65m4,9.2q-.5.25-1.55-1.1t-.95-1.9q.1-.6,1.6-1.4t2.5,1.05q.95,1.8-.15,2.5a13.666,13.666,0,0,1-1.45.85"/></svg>