<svg overflow="visible" width="100%" height="100%" viewBox="0 0 90.092 116.289" xmlns="http://www.w3.org/2000/svg"><path d="M67.113,23.735a52.325,52.325,0,0,0-1.2-7.35,31.483,31.483,0,0,0-1.95-4.7q-1.3-2.651-9.25-8.45-8-5.8-18.75-1.2-10.749,4.549-13.15,12.85-3.1,8.7-2.4,15.2a19.22,19.22,0,0,0,7,13.3q-6.6,3.8-9.3,8.7-2.7,5-2.3,12.6a5.18,5.18,0,0,1-2.4,5q-9.9,6.9-11.6,8.35-1.7,1.4-1.8,2a1.044,1.044,0,0,0,.55,1.05,1.789,1.789,0,0,0,1.65,0q1.2-.7,12.9-9.2,2.4-1.8,3.6.6a13.259,13.259,0,0,0,2.35,3.4,3.9,3.9,0,0,1,1.3,3.75,43.9,43.9,0,0,0-.35,4.65q-.6,12.3,0,16.2,1.5,9.1,8.7,12.7a28.459,28.459,0,0,0,16.6,2.9,34.344,34.344,0,0,0,15.9-6q8.5-5.9,9.3-14.1a28.28,28.28,0,0,0-.9-11.5q-2.4-7.4-3.4-11.2a9.461,9.461,0,0,1,.4-5,44.594,44.594,0,0,0,1.8-5.1q2.1,1.2,9,5.4,5.4,3.4,7.3,4.4a4.84,4.84,0,0,0,2.4.8,1.511,1.511,0,0,0,.85-.9,1.007,1.007,0,0,0-.25-1.3,17.674,17.674,0,0,0-2-1.35q-12.9-7.95-14-8.55a5.848,5.848,0,0,1-2.5-2.1q-.6-1.2-.4-5.65a15.152,15.152,0,0,0-2.9-9q-1.9-2.751-2.95-4.2-1.05-1.35-.1-2.15a3.778,3.778,0,0,1,.4-.35,5.4,5.4,0,0,1,3.7-1.45q1.851-.051,2.9-.1a11.786,11.786,0,0,0,3.3-.65,6.145,6.145,0,0,0,1.6-.85q.3-.3-1.55-1.95a16.934,16.934,0,0,0-4.65-3q-2.85-1.3-3.45-6.5m3.2,10.45a16.288,16.288,0,0,1-2.1-.1q-7.6-.3-15.3-.3-4.8-.2-3.1-4.4a3.776,3.776,0,0,1,4-2.5,43.757,43.757,0,0,1,9.4,2.9q4.151,1.7,7.1,3.05,3.45,1.55,0,1.35m-9.3,2.65q2.2.05,0,1.55-.75.6-1.7,1.4a34.507,34.507,0,0,1-9.1,5.5,16.786,16.786,0,0,1-11.9.6q-9.3-3.6-12.95-9.85t-.35-18.05q2.5-11.6,16.2-14.7a12.871,12.871,0,0,1,8.6.7q16.1,7.6,14.6,23.3l-7.8-3.1q-3.1-1.1-4.3-.8-1.3.3-3.5,2.6a6.721,6.721,0,0,0-2,6q.5,3.5,1.25,3.95.75.4,6.5.7,3.4.15,6.45.2m-.2,5.35a1.638,1.638,0,0,1,2.65.2q1.05,1.4,1.35,1.9.4.6,1.4,2.5a7.353,7.353,0,0,1,1.1,2.4q3.1,11.2-3,21.9-6.3,11.3-17.8,11.7-13.1,1-23.4-9a9.415,9.415,0,0,1-2.6-4.6q-.1-.2,1.2-1,1.6-.9,2.85-1.45a2.648,2.648,0,0,0,1.5-1.35,1.216,1.216,0,0,0-.35-1.4q-.649-.6-2.25-.1-3.75,1.4-3.85,1.5-1.8,0-1.5-3,.8-10.1,7.8-14.8,3.4-2.4,6.1-.9a17.851,17.851,0,0,0,7.1,2.3,64.581,64.581,0,0,0,7.3.4,18,18,0,0,0,8.5-2.9,52.611,52.611,0,0,0,5.9-4.3m3.15,34.5q1.6-2,2.2,0a79.15,79.15,0,0,1,3.35,12.3q1.1,8.1-2.8,13.6-7.8,10-21.1,10.8-7.8.4-12.6-1.9-5.9-3-8-10.4a38.046,38.046,0,0,1-.6-9.3q.4-6.3.5-8.1.051-1.2.2-2.6.251-1.8,1.9-.7l.3.2q9.8,6.4,20.3,5a25.516,25.516,0,0,0,16.35-8.9m-18.2-35.45q1.45-.651,1.15-1.45t-1.55-.5q-1.3.249-1.15,1.45.1,1.149,1.55.5m-6.55-1.75q.8-.1.75-1.45t-.85-1.35a1.192,1.192,0,0,0-1.15.85,1.476,1.476,0,0,0,.05,1.45,1.157,1.157,0,0,0,1.2.5m15.8-24.5q-1.7-.051-1.6,1.4a4.845,4.845,0,0,0,1,2.6q.8,1.2,1.8.85t1.4-2.25q.651-2.8-2.6-2.6m-20.6,21q1.4-.9,1.1-1.55a2.423,2.423,0,0,0-.7-.95.813.813,0,0,0-.9-.2,1.871,1.871,0,0,0-.75.6q-.3.4.05,1.5.351,1.05,1.2.6m3.5-19.1a3.249,3.249,0,0,0-2.5.4q-1.549.748-1.8,1.55-.3.75,1.5,2.15a4.776,4.776,0,0,0,2.9,1.2,3.009,3.009,0,0,0,1.85-1.05q.8-.9-.1-2.4a3.741,3.741,0,0,0-1.85-1.85"/></svg>