<svg overflow="visible" width="100%" height="100%" viewBox="0 0 38.569 116.184" xmlns="http://www.w3.org/2000/svg"><path d="M36.045,4.63A8.992,8.992,0,0,0,30.8,1.38,33.952,33.952,0,0,0,15.745.43q-3.2.4-3.3,4-.2,1.8-2.95,22.35Q6.7,47.33,6.4,57.08A198.152,198.152,0,0,1,3.5,82.43Q.846,98.03.145,103.53q-.8,6.3,2.8,9a18.074,18.074,0,0,0,12.6,3.6q1.9-.1,2.4-.9.5-.7,0-2.7a209.076,209.076,0,0,1-5.5-20.5q-1.1-5.8-1.45-9.15a21.749,21.749,0,0,1,.4-6.85q.75-3.5,1.9-8.5t1.65-7.7l4.4-21.8q.6-2.6,1.2-3,.5-.4,3.1-.3,2.4.2,7.3.9a8.9,8.9,0,0,0,4-.35q1.151-.551,1.6-3.05a92.045,92.045,0,0,0,1.6-10.7q.1-3.05.35-6.5a18.668,18.668,0,0,0-.35-5.85,15.971,15.971,0,0,0-2.1-4.55m-5.8-.4q3.85,1.4,3.65,2.1-.15.649-3.8.3T26.4,4.58q-.05-1.751,3.85-.35m-14.6-1.4h6.7q1.9.2,1.4,1.9a35.591,35.591,0,0,0-.6,9.6q.1,3.2.5,9.6.3,6.6-2.7,7.8a6.476,6.476,0,0,0-4.3,5.1q-1,5.7-4.4,22.6-2.9,14.1-4.2,22.5-.649,4.549,1.4,12.9,1.8,7.3,3.2,11.15,1.35,3.8,1.9,5.45.5,1.6-2.5,2a9.219,9.219,0,0,1-6.35-2q-3.349-2.4-2.55-7.6.5-5.4,2.3-16.7,2.4-15.5,3.2-22.2a190.637,190.637,0,0,0,1.5-22.5,177.839,177.839,0,0,1,2.5-19.7q2.4-14.7,3-19.9M33.8,15.28q2,.15,1.95,1.25a2.8,2.8,0,0,1-.65,1.75q-.549.649-4.25.55-3.7-.15-4.4-.9A2.277,2.277,0,0,1,26,15.88q.2-1.3,3-1.05t4.8.45m1.9-4.7a1.71,1.71,0,0,1,.1,2q-.6.75-3.2.4-2.649-.3-4.25-.6a20.566,20.566,0,0,1-2.15-.55q-.549-.2-.45-1.7Q25.8,8.579,30.4,8.98q4.551.349,5.3,1.6m-7.4,11.3a26.547,26.547,0,0,1,4.3.05q2.2.15,2.5,1.1a2.191,2.191,0,0,1,0,1.6,1.292,1.292,0,0,1-1.05.75,14.224,14.224,0,0,1-3,0,23.379,23.379,0,0,1-3.3-.4q-1.2-.251-1.25-.75c-.033-.334-.083-.783-.15-1.35q-.148-.851,1.95-1m-2.4,9.4q.151-.951.4-1.9.2-1,2.05-.85t4.05.4q2.151.2,1.85,1.6a2.1,2.1,0,0,1-1.3,1.9,5.5,5.5,0,0,1-1.8.2q-3.1-.2-3.65-.25t-1.15-.05q-.649-.051-.45-1.05"/></svg>