<svg overflow="visible" width="100%" height="100%" viewBox="0 0 114.744 60.769" xmlns="http://www.w3.org/2000/svg"><path d="M67.424,33.7a46.211,46.211,0,0,0,1.5-6.15,3.492,3.492,0,0,0-1.8-3.8q-2.2-1.249-5.25,3.15t-6.15,2.65q-3.1-1.751-4.5-1.55t-2.35,5.35q-.95,5.149-4.55,4.65a20.229,20.229,0,0,1-4.95-1.75q-1.95-1-1.3,3.6a28.779,28.779,0,0,0,2.95,9.05q2.3,4.5,4.05,4.5t2.05-.55a1.39,1.39,0,0,0,.1-1.15q-.3-.6-1.55-.8-1.3-.2-2.2-2.3-1.549-3.4-2.9-6.9-1.4-3.5,0-2.6a7.437,7.437,0,0,0,2.9,1.05,5.441,5.441,0,0,1,2,.55,3.038,3.038,0,0,1,1.05,1.6q.5,1.3,1.7,4.1a36.608,36.608,0,0,1,1.7,4,4.356,4.356,0,0,0,1.8,2.6,8.789,8.789,0,0,0,3.3.8h7.45q6.55,0,9.25.1,6.1.1,11.2-6.3a5.147,5.147,0,0,0,1.2-1.8,2.394,2.394,0,0,0-.3-2.2,3.333,3.333,0,0,0-4-1.4q-5.749,1.249-5.2.4,2.4-4.6,2.7-5.1a20.2,20.2,0,0,0,1.4-5.2q.2-2.5-.6-3-.7-.6-3,.5l-7.7,3.9m-.9-8.1q.35.3-.05,1.85-.45,1.55-1.55,4.65a11.1,11.1,0,0,1-1.2,2.5,2.265,2.265,0,0,0,.5,2.5,2.1,2.1,0,0,0,2.7.4,39.145,39.145,0,0,0,3.95-2.4,19.659,19.659,0,0,1,4.45-2.5q1.45-.45.9,1-4.7,10.3-4.6,8.3.3-2.5-.55-2.8t-5.25.7q-3,.7-4,2.1-1.3,1.45-.9-1.4.4-2.9.45-4a5.964,5.964,0,0,0-.5-2.5,2.648,2.648,0,0,1,.2-2.55,36.823,36.823,0,0,1,2.65-3.5,18.515,18.515,0,0,1,2.2-2.45q.25-.2.6.1m13.8,19q1.9-.3.6,1.1-.9.8-3.45,2.85-2.85,2.3-3.45,1.45-2.3-2.7.7-4a22.257,22.257,0,0,1,5.6-1.4m-11.5-1.3q3,2.2,1.55,3.2a3.36,3.36,0,0,1-3.15.4q-1.65-.649-1.55-3.2.049-2.6,3.15-.4m-17.9-9.05q.3-2.651,1.45-3.25,1.1-.649,4.1,1.95,2.951,2.55.1,7.4-2.9,4.8-5.5,2.4-2.65-2.45-1.55-4.15a11.334,11.334,0,0,0,1.4-4.35M62.374,46.1q.15.251-1.2,2.05a6.22,6.22,0,0,1-2.85,2.25,23.85,23.85,0,0,1-3,.2q-3.1.1-3.6-3.7a3.881,3.881,0,0,0,4.75-2.35q1.451-3.049,1.75-1.85.3,3.4,3.3,3.2c.467-.033.75.033.85.2M110.524,0q-2.8.2-4.2.2l-40.7,1.3A179.31,179.31,0,0,0,35.724,4q-18.85,3.45-25.35,4.35-6.551.9-9.3,5.35-2.8,4.4,1.7,10.45a30.144,30.144,0,0,0,3.25,4v.25a33.873,33.873,0,0,0,.5,4.4l6.5,25.3q.7,3.1,3.5,2.6.8-.1,4.1-.5a23.5,23.5,0,0,0,4.1-.8q.9-.2,4.65-1t4.65-2.45q.349-.7,0-4.2l-2-19.75q-.2-3.9.9-5.2,1-1.3,5-1.8l46.2-6.2q3-.4,3.6,0,.7.5,1.3,3.2a51.884,51.884,0,0,1,0,9.2,72.288,72.288,0,0,0-.3,9.3q.1,4.1-.3,12.3v2.1q.2,1.1,1.05,1.15a53.241,53.241,0,0,0,5.8-.65q4.95-.75,14.55-3,3.6-.7,4.2-1.6.6-.8.2-4.6-.9-7.9-1.3-11.8a90.231,90.231,0,0,1-.7-11.8q.05-.5-.3-4.05-.2-1.451-.3-2.05-.8-3.5.8-5.5,3.7-4.6,1.5-8.8a3.892,3.892,0,0,0-3.4-2.2m1,3.9a2.959,2.959,0,0,1-.15,3.4,4.187,4.187,0,0,1-3.65,1.6,96.018,96.018,0,0,0-10.3-.8l-19.6.3q-11.6.2-19.6.9-14.5,2-41.6,6.5-6.4,1-8.6,3.6a9.563,9.563,0,0,0-1.8,4.9q-.7-1.35-2.1-3.7a9.793,9.793,0,0,1-1.3-3.2,3.489,3.489,0,0,1,1.15-3.35,9.666,9.666,0,0,1,4.65-2.3,110.573,110.573,0,0,1,11.5-2.05q19.1-3.3,20.5-3.6a160.624,160.624,0,0,1,20.8-1.8q8.6,0,21.6-.4l25.3-1.1a3.556,3.556,0,0,1,3.2,1.1m-3.4,13.1a2.618,2.618,0,0,1-2,1l-5.9.3a54.218,54.218,0,0,1-5.9-.1,17.851,17.851,0,0,1-4.1-1.3q-2.6-1.3-3.9-2-.4-.1-.6-.9a1.842,1.842,0,0,1,0-1.2,2.106,2.106,0,0,1,.6-.9,2.016,2.016,0,0,1,1-.6h8.8q8.4,0,9.4.1a3.276,3.276,0,0,1,2.6,2.1,3.622,3.622,0,0,1,0,3.5m1.9,12.4q.3,3.3-2.2,3.2a14.874,14.874,0,0,1-3.5,0,1.979,1.979,0,0,1-2-2.2,48.863,48.863,0,0,0-.3-5.4q-.4-3,.1-3.5.4-.5,3.5-.5,2.5,0,2.9.4a6.454,6.454,0,0,1,.7,2.8,35.172,35.172,0,0,0,.8,5.2m.75,11.1q.1,1-1.05,1.05-.95.05-2.5.25a12.108,12.108,0,0,1-4.1.1q-1.4-.4-1.1-3.5a2.4,2.4,0,0,1,2.1-2.7,38.4,38.4,0,0,1,4-.3,1.873,1.873,0,0,1,2.2,1.9l.45,3.2m-1.1,3.55q1.7-.349,1.65.9-.05,3.2-.6,3.85-.6.8-4.1,1.5l-8.2,1.7q-1.7.4-2.2-.8-.4-2.4-.65-3.5-.251-1.151.6-1.4a20.235,20.235,0,0,1,2.25-.65,28.243,28.243,0,0,1,4.6-.7q3.2-.35,5.9-.75a7.3,7.3,0,0,1,.75-.15M11.024,29.7q.9-.1,1.1.1a4.558,4.558,0,0,1,.7,2.1,5.845,5.845,0,0,1-.05,2.9,1.927,1.927,0,0,1-1,.85q-.649.251-1.4-.65a5.2,5.2,0,0,1-1.05-2.1,2.994,2.994,0,0,1,.5-2.7,2.553,2.553,0,0,1,1.2-.5m1.1-3.1q-4.3.9-3-3.1,1.4-4,4.55-4.45,9.851-1.751,14.55-2.25a1.688,1.688,0,0,1,2.1,1.2q.2.9.4,2.7v1.1a1.917,1.917,0,0,1-.15.6q-.551,1-1.05,1.15a27.5,27.5,0,0,1-3.3.4,66.5,66.5,0,0,0-7.8,1.35q-5,1.1-6.3,1.3m4.9,8.2a1.936,1.936,0,0,1-1.7-1.4,4.14,4.14,0,0,1,.4-3,3.609,3.609,0,0,1,2.1-2.2q1.1-.3,4.3-.9,2.8-.5,6.65-1.15c.167-.033.317-.067.45-.1q1-.1.8,3.2-.2,3.251-2.6,3.55-5.5,1.1-8.3,1.6a8.459,8.459,0,0,1-2.1.4m1.15,2.6q6.2-1.5,6.45-.7,2.3,9.1-3,11.15-5.25,2.05-6.4,1.65-1.6-.4-2.4-2.8a26.973,26.973,0,0,0-.9-4.1q-.6-2.6-.3-3.1.3-.6,6.55-2.1m2.35,15.9a3.971,3.971,0,0,1,2.2-2.8q.3-.1,7.1-2.1,1.3-.3,1.35,3.25t-.5,3.55q-.7.1-3.4.85-2.75.75-3.15.85a8.68,8.68,0,0,1-1.3.15,2.26,2.26,0,0,1-1.25-.25,3.627,3.627,0,0,1-1.05-3.5m-5.05-.15a1.266,1.266,0,0,1,1.3-1.5q1.45-.15,1.7.5a9.493,9.493,0,0,1,.5,3.45q-.1,1.5-.4,1.75a5.586,5.586,0,0,1-1.7.35q-1.4.15-1.3-2.75,0-.5-.1-1.8M92.724,21.8a5.377,5.377,0,0,1,2.8-.6,2.8,2.8,0,0,1,3.4,2.1,24.733,24.733,0,0,1,.4,4.8q.3,3.7-1,4.4a24.236,24.236,0,0,1-4.6.2q-2.2.2-2-2.1,0-3.9.2-5.9a5.169,5.169,0,0,1,.8-2.9m-13.2-10.6q3.5.1,3.1,2-.5,2.4-1.6,2.6-7.8,1.4-13.1,1.9-1.6.1-2-1.1,0-.2-.2-2.4-.4-2.7,1.8-2.7l12-.3m19.7,28.3q0,2.8-.7,3.5-.8.7-3.5.8-2.3,0-2.9-.7t-.6-3.2q0-2.9.6-3.5t3.6-.6q2.6,0,3,.5.5.5.5,3.2m-7.8,6.95q1.95,0,2.15,1.65a29.632,29.632,0,0,1,.2,3.55q-.049,1.85-1.55,1.95-1.55.05-1.8-3.6-.251-3.7,1-3.55m-29-33.65a20.282,20.282,0,0,1,.5,3.7q.4,2-1.8,2.3L37.324,22a4.06,4.06,0,0,1-3.7-1.5,3.066,3.066,0,0,1-.5-3.4,3.606,3.606,0,0,1,2.8-1.6q7.8-1.4,23.5-3.7,2.6-.6,3,1m-33.8,32.75q-1.3,0-1.6-4.55-.3-4.6.2-4.8a1.235,1.235,0,0,1,.7-.3,1.825,1.825,0,0,1,1,.1q.6.1.7,1.15.05,1.05.15,4.75.1,3.649-1.15,3.65"/></svg>