<svg overflow="visible" width="100%" height="100%" viewBox="0 0 116.913 19.1" xmlns="http://www.w3.org/2000/svg"><path d="M116.838,11.3q-.3-3.6-3.4-4l-55-2q.6-4-.8-4.2-2.5-.5-2,1.8.6,2-1.7,2.2-2.6.2-4.8.2-2.2-.049-2.4-1.3.3-.9,1.6-.9l2.4-.1q1.4,0,1.2-1.7a1.423,1.423,0,0,0-1.6-1.3,12.5,12.5,0,0,1-2.6.1,5.611,5.611,0,0,0-2.8.2q-1.2.6-1.1,2.7a1.785,1.785,0,0,1-.5,1.3,2.167,2.167,0,0,1-1.1.8,30.085,30.085,0,0,1-5.4.3.82.82,0,0,1-.5-.3,1.217,1.217,0,0,1-.3-.6q0-1.3,2.2-1.7,2.3-.3,2.5-1a1.16,1.16,0,0,0-.2-1.1,2.274,2.274,0,0,0-1.45-.4Q37.939.2,36.938.2a8.3,8.3,0,0,0-2.8.4q-.5.2-.6,1.8-.2,2.5-.2,2.7-.3.8-.6.8-5.5.2-8-.8-1.149-.6.15-1.25a7.584,7.584,0,0,1,3.65-.55q1.05-.3.7-1.05a1.5,1.5,0,0,0-.9-.95,3.186,3.186,0,0,0-.9-.2,32.392,32.392,0,0,0-4.2.2q-2.5.4-2.9,2.2a2.664,2.664,0,0,1-1,2.2,6.769,6.769,0,0,1-2.3.4q-6.7.3-11.8,1a11.588,11.588,0,0,0-3.25.9q-1.3.6-1.75,3a9.067,9.067,0,0,0-.05,3.9A6.745,6.745,0,0,0,2.138,18a4.646,4.646,0,0,0,3.1,1.1,16.808,16.808,0,0,0,3-.4q2.6-.1,13.1-.9,8.1-.6,13.1-.6,21,.1,63.1.9a92.884,92.884,0,0,0,13.1.3q4.35-.4,4.85-1.1a8.122,8.122,0,0,0,1.35-6m-11.3-.6a3.843,3.843,0,0,1,2.65-.65,6.327,6.327,0,0,1,2.5.4q.651.35,1.15,2.25a2.469,2.469,0,0,1-.9,2.9q-4.149.45-4.75-.35a7.43,7.43,0,0,1-1-2.4q-.45-1.549.35-2.15m-31.5-1.9q1,.6.55,4.85a10.138,10.138,0,0,0-.1,1.3q-20.2-.45-30.55-.65a252.566,252.566,0,0,0-33,1.3,14.078,14.078,0,0,1-1.9.2q-1-.1-1.3-1.4a5.2,5.2,0,0,1,.7-3.7,3.229,3.229,0,0,1,3-1.5q5.7,0,25.9-.7,16.1-.5,28.95-.2h5.15a4.778,4.778,0,0,1,2.6.5m6.1.2q13.6.8,17.6,1.1,3.6,0,4.4,1.2a21.547,21.547,0,0,1,.7,4.7h.1l-.1.05V16l-23.5-1.2.8-5.8m-77.7,4.65a3.718,3.718,0,0,1,.85-2.8q1.05-1.45,1.95,0a4.622,4.622,0,0,1,.25,3.65q-.6,2.2-1.75,1.35a3.069,3.069,0,0,1-1.3-2.2m62.9-4.25q-2.6-.1-3.4,1.4-.4,1.3,1.3,2.1,3,1.5,4.8-.7,1.751-2.25-2.7-2.8"/></svg>