<svg overflow="visible" width="100%" height="100%" viewBox="0 0 114.155 68.556" xmlns="http://www.w3.org/2000/svg"><path d="M73.506,3.95a2.17,2.17,0,0,0,1,1.6l13.95,12.8a6.575,6.575,0,0,0,1.6,1.2,1.226,1.226,0,0,0,1.3-.35q.65-.649-.65-2.05l-15.2-14.1q-.5-.5-.9-.3-1.1.8-1.1,1.2m-50.2,43.5a5.677,5.677,0,0,0-1.65-1.2q-1-.5-1.5.15a1.265,1.265,0,0,0-.05,1.55,12.435,12.435,0,0,0,1.3,1.4,51.451,51.451,0,0,0,21.6,14.3q10.8,3.9,26.85,4.8,7.4.55,11.85-1.75,4.4-2.3,11.7-5.95,1.849-.9,3.4-1.5a3.012,3.012,0,0,0,1.8-1.5,1.453,1.453,0,0,0,0-1.3,1.3,1.3,0,0,0-1.15-.6,3.533,3.533,0,0,0-1.75.6q-1,.55-2.3,1.2-6.55,3.35-10.2,5.1-7.7,3.7-13.8,3-15.6-2.1-20.3-3.2-11.3-2.7-18.6-8.5l-7.2-6.6m-20.4-22.4q.1.2,1.3.5a6.018,6.018,0,0,0,2.1.2q.6,0,4.7-.7a15.5,15.5,0,0,1,4.6-.1q3.4.6,10.5,3.9,16.3,8.5,18.3,9.3,10.8,4.4,20.1,3.2a90.43,90.43,0,0,0,13.4-1,42.076,42.076,0,0,0,10.45-2.6q3.2-1.55,3.65-2.4t0-1.1q-1.65-.85-5.65,1.05-4.05,1.85-11.65,2.45-16.2,1.9-26.3-1.2-6-1.9-23.6-11.7-.9-.75,1.9-.7,16.2.2,25.6-2.4a3.6,3.6,0,0,1,3.1,1q4.7,4.3,12.5,1.5a5.245,5.245,0,0,1,3.2,0q9.6,3,22.3,5.6,7.65,1.5,16.4,2.9l2.4.3q1.7,0,1.9-1.1.3-1.05-1.25-1.45t-9.05-1.6q-7.5-1.249-9.3-1.65l-1.1-.2q-7.3-1.451-13.25-3t-8.1-3.45q-2.149-1.95-5.85.6-3.75,2.55-6.85-.05a22.3,22.3,0,0,0-4.6-3.2,3.289,3.289,0,0,0-3.15.35,14.25,14.25,0,0,1-4.7,1.45q-3.05.5-6.25,1a38.884,38.884,0,0,1-5.85.5,186.544,186.544,0,0,0-28.7,1.9,8.219,8.219,0,0,0-2.1.2,1.423,1.423,0,0,0-1.1,1.7m3.2-8q-3.75.851-5.15,1-1.4.1-.75,1.7.35,1.7,9.4-.3,9-2,18.9-5.2a106.117,106.117,0,0,0,23.2-10.4,6.067,6.067,0,0,1,2.8-1.1,3.944,3.944,0,0,1,3.1,1.2,8.509,8.509,0,0,0,3,1.55,19.915,19.915,0,0,0,3.5.75,9.463,9.463,0,0,0,3.55-.3q1.9-.5,1.85-1.3a1.1,1.1,0,0,0-.9-1,7.909,7.909,0,0,0-1.7-.1,16.439,16.439,0,0,1-8.5-2.3,7.843,7.843,0,0,0-8.5,0q-8.4,5.5-13.6,7.1-6.5,2.1-16.45,5-10,2.85-13.75,3.7"/></svg>