<svg overflow="visible" width="100%" height="100%" viewBox="0 0 112.476 69.986" xmlns="http://www.w3.org/2000/svg"><path d="M96.808,9.58q-2.15,2.25-4.75,4.65a54.562,54.562,0,0,0-4.4,4.5,15.42,15.42,0,0,0-2.5,3.6,8.144,8.144,0,0,0-.6,3.75v9.9q.1,2.8-2.8,2.2-.5-.1-10.7-1.8-3.3-.7-2.8-3.6.3-3.6.5-5.4a28.978,28.978,0,0,1,.75-4.3,3.656,3.656,0,0,0,.05-2.15q-.35-1.05-.5-1.45-.2-.4-2.8-6.1t-4.2-9.6q-1.2-2.7-2.3-2.9-1.2-.2-3.2,2.1l-11.3,12.4a3.911,3.911,0,0,0-.7,2.6q0,11.65-.05,17.95a20.719,20.719,0,0,0-3.95-.65l-4.3-.45q-1.9-.251-3.9-.55l.5-1.9q2.2-7.9,2.8-9.9a11.631,11.631,0,0,0,.6-3.05V17.48a16.06,16.06,0,0,0-.55-2.4q-.45-1.549-1.05-4.05-.6-2.55-1.7-8.05-.5-2.6-1.5-2.9-.9-.4-3,1.2-1.1.9-5,4.1-3.1,2.5-5.1,3.9a12.1,12.1,0,0,0-5.3,8.5q-4.6,26-12.3,44.1-1.2,2.7-.5,3.7t3.9,1.1l16.9.4q2.5.1,3.4-.7a6.171,6.171,0,0,0,1.6-3.4l1.9-8.7q.8-3.6,1.6-4.25.75-.7,5.35-.2,2.55.251,5.55.75,2.5.3,2.2,2.6-1.9,13-.6,14.6,1.4,1.7,14.7,1.9,3.8,0,5.2-1.1t2.3-4.9a93.312,93.312,0,0,0,2.2-11.2,3.076,3.076,0,0,1,1.3-2.6,4.833,4.833,0,0,1,2.7-.1q6.8.9,7.4.9,2.55.3,4.1.45,1.3.15,1.05,1.55l-1.25,8.2a5.686,5.686,0,0,0,.2,3.8,4.51,4.51,0,0,0,2.9,1.9q3.5,1.1,10.5,2.9,3.7.9,5.1.2,1.5-.8,2.5-4.4,1.3-4.7,7.15-28.4.75-2.9,1.05-4.2.5-2.3.95-4.5a11.664,11.664,0,0,0,.35-3.05,18.922,18.922,0,0,0-.7-2.4q-.55-1.65-1.25-3.5t-2.05-4.85q-1.35-3-3.55-7-2.25-4-4.65-1.5-1.3,1.4-3.45,3.7m1.15,2.3a34.4,34.4,0,0,0,4.1-3.9,63.2,63.2,0,0,1,6.1,11.3q2.2,5.4,1.9,6.6l-9,37.5q-.7,2.9-1.5,3.5t-2.6-.1q-4.5-1.4-10-2.7-2.7-.6-2.3-3.6.2-.8,1.3-9.5.7-5.7.85-6.95.049-1.249.1-1.85a27.033,27.033,0,0,1,.3-2.75,58.091,58.091,0,0,0-.2-9.3q-.45-7.05,3.85-11.5a79.464,79.464,0,0,1,7.1-6.75m-80.8,2.1q.2-.2,13.1-10.6.5,2.5,1.85,8.8,1.3,6.3,1.4,6.8a41.448,41.448,0,0,1-1.65,5.85,140.242,140.242,0,0,0-3.65,14.25q-1.95,8.9-4.55,22a7.874,7.874,0,0,1-.7,2.3,2.5,2.5,0,0,1-2.2,1l-17.8-.3q1-3.2,3.9-10.7a105.118,105.118,0,0,0,3.7-10.7q1.3-5.2,2.9-13,1.7-8.7,2.6-13a5.444,5.444,0,0,1,1.1-2.7m41.5-9.3q4.7,8.9,5.95,11a30.405,30.405,0,0,1,2.5,6.95q-.7,4.95-1.65,13.65-1,8.7-2.95,19.6t-5.15,10.8l-8.4-.1q-3.9-.1-4.5-.9-.7-.8,0-4.6,1.9-10.7,2.6-17.1a117.633,117.633,0,0,0,.7-14.7q-.2-5.3-.3-8.3a12.344,12.344,0,0,1,.15-3.55A120.094,120.094,0,0,0,58.658,4.68m9.05,36.15q.35-2.449,3.05-1.85l5.4,1q3.2.6,5.4.8a3.368,3.368,0,0,1,2.4,1,3.959,3.959,0,0,1,.3,2.5l-.5,3.45q-.251,1.1-1.6.95-3.9-.6-6.6-.85a48.648,48.648,0,0,1-5-.75q-3.3-.6-3.2-2.2.049-1.6.35-4.05m-36.15-3.25q1.45.35,8.35,1.25,3.45.4,4.6.45-.05,1.9-.05,2.9-.1,4.1-1,4.8-.8.7-4.9.5l-3.5-.3q-4-.4-4.6-1.2-.5-.7.3-4.6.3-1.7.8-3.8"/></svg>