<svg overflow="visible" width="100%" height="100%" viewBox="0 0 100.671 116.061" xmlns="http://www.w3.org/2000/svg"><path d="M58.146,5.731q-1.5,4-6.3,3.5a25.192,25.192,0,0,0-8.05.3,45.339,45.339,0,0,0-8.15,2.45q-4.1,1.6-4.35.75a6.815,6.815,0,0,0-3.45-3.9,15.425,15.425,0,0,0-6.9-1.2,6.734,6.734,0,0,0-6.5,4.3,10.378,10.378,0,0,0-.5,7.3,9.909,9.909,0,0,0,4.6,5.6q3.4,1.2,4.1,3.6,1.6,10.2,10.1,15a2.4,2.4,0,0,1,1,1,1.612,1.612,0,0,1,.4,1.2q-.1.8-1.7,16.4-2.1-2.6-2.3-2.9-3.6-5.6-12.1-7a15.682,15.682,0,0,0-11.5,2.3,12.474,12.474,0,0,0-6.2,9q-1.6,11.4,4.2,19.4.2.2,7.3,10,4.4,6,6.9,10.2-5.7,1.3-8.1,2.1-3.4.9-3.4,3.7-.1,3.3,3.4,4.5a60.386,60.386,0,0,0,12.5,1.2q10.5.1,12.6.3,4.3.5,6.5-3.6.6-1.6,1.1-2.95a2.183,2.183,0,0,1,2.1-1.5q.65.049,1.45.1,4.95.35,7.25.45a8.356,8.356,0,0,1,3.6.6q1.6.8,3.05,4.35,1.45,3.5,5.75,3.7a38.778,38.778,0,0,0,6.5-.1,7.432,7.432,0,0,0,5.6-3.15,6.016,6.016,0,0,1,2.8-1l5.8-1.1q3.5-.9,4.2-3.1t-1.6-5q-.1-.2-4.1-3.3-2.4-2-.9-4.3,3.5-6.1,12.4-22.6,5-9.6,2.7-18.7-1.4-5.2-5.8-6.8a28.236,28.236,0,0,0-9.25-.95q-9.15.251-14.95,8.85l-2.7,3.4q-.2-12.4-.2-13.6a6.5,6.5,0,0,1,1.3-3,27.686,27.686,0,0,0,5.6-14.1q.1-2.7.3-4.1a8.166,8.166,0,0,1,1.2-3.6,11.942,11.942,0,0,0,2.1-5,36,36,0,0,0,.3-5.3,9.053,9.053,0,0,0-2.9-7.1,9.185,9.185,0,0,0-7.2-2.3,15.155,15.155,0,0,0-5.7,1.4,8.263,8.263,0,0,0-3.9,4.3m2,2.1q1.9-5.4,8.6-4.9,6.6.6,6.5,6.7,0,1.1-.15,3.1a13.879,13.879,0,0,1-1.8,4.95q-1.6,2.95-2.7,11.3a18.512,18.512,0,0,1-7.65,13.05,20.843,20.843,0,0,1-13.1,4.2,35.775,35.775,0,0,1-16.1-5.4q-8.1-5.4-8.5-13.8a5.062,5.062,0,0,0-.7-2.5,4.941,4.941,0,0,0-2.2-1.3,13.992,13.992,0,0,1-5-3.2q-2-1.9-.6-6.5.8-2.9,4.6-2.9a15.038,15.038,0,0,1,4.6.5,4.981,4.981,0,0,1,3,2.5q.75,1.7,1.3,1.95a2.458,2.458,0,0,0,1.4,0,24.784,24.784,0,0,0,4.2-1.6,23.9,23.9,0,0,1,7.7-1.75,79,79,0,0,1,8.7.1q6,.2,7.9-4.5m31.3,41.3a6.7,6.7,0,0,1,4.2,2.1,6.374,6.374,0,0,1,1.9,4.1q.7,10.2-3.2,16.8-3.9,6.7-11.3,20.4-2.3,4.4-2.1,5.5.3,1.2,4.1,4a8.768,8.768,0,0,1,3.2,3q1.1,2.1-1.7,2.8-2.4.7-3.7,1a8.526,8.526,0,0,1-3.6.2,54.993,54.993,0,0,1-9.9-3.8q-.6-.3-.6-2.8l-1-36.7a19.466,19.466,0,0,1,.1-2.4,2.61,2.61,0,0,1,.6-1.45q.55-.7,1.45-2.05l1.55-2.3q6-9.7,15.3-8.9,4,.4,4.7.5m-49.5,17a56.035,56.035,0,0,1,1.2,13.4q0,4.4-.3,13.3a69.807,69.807,0,0,1-2.1,14.7q-.7,3-2,3.8-1.2.7-4.4.5-2.7-.1-5.8-.3-3.1-.251-2.1-1.35a5.331,5.331,0,0,1,1.75-1.45,8.185,8.185,0,0,1,2.5-.65q2.75-.35,3.55-1.25t.8-4q.2-4.3.5-28.5.2-17.3,1.4-28.4,13.8,6.7,27.2-1.1,1,19,1.6,56.7.1,4.3.8,5.3t4.9,2.6q4.2,1.55,3.2,2.4a21.205,21.205,0,0,1-5.2,1.35,7.207,7.207,0,0,1-4.7-.75q-1.9-1.1-3.1-5.5-1.7-7.6-2.45-22.1-.8-14.5-1.55-18.15-.2-.949-.7-1.1a.888.888,0,0,0-.95.15q-.4.35-.35,3.95,0,3.551.8,14.95,1,13.3.9,18a1.97,1.97,0,0,1-.55,1.25,2.57,2.57,0,0,1-1.45.85,20.127,20.127,0,0,1-4.05.05q-3.15-.2-4.75-.35t-1.5-3.25q.7-18.551.9-28.35a27.45,27.45,0,0,0-.6-5.15q-.6-3.1-2.7-3.15-1.05,0-.7,1.6m-9.9,1.4a14.611,14.611,0,0,1,.9,7.4q-.2,2.1-.2,5.2,0,1.7-.2,5.2v16.4q.2,3.8-3.4,3.8a5.635,5.635,0,0,0-5.8,3.8,3.24,3.24,0,0,1-3.8,2.2l-7.8-.9a1.849,1.849,0,0,1-1.2-.55,1.161,1.161,0,0,1-.1-1.25,2.151,2.151,0,0,1,1.4-1.2,34.214,34.214,0,0,1,5.3-1.2q4.5-.7,5-1.9.5-1.1-2-4.8-9-12.7-13.6-18.9-5.3-7-2.9-18.5a8.146,8.146,0,0,1,3.2-4.8,11.671,11.671,0,0,1,5.5-2.3q9.7-1.7,15.8,5.8a26.053,26.053,0,0,1,3.9,6.5m-15.75,1.5a30.345,30.345,0,0,0,1.8,6.4q1.5,4.2,4.15,10.6t3.2,7.5a1.638,1.638,0,0,0,1.45.75q.8-.1.85-1.1a6.391,6.391,0,0,0-.45-2.4q-.55-1.451-4.85-11.65-3.1-7.2-3.25-10.1t-1.4-3.4a.9.9,0,0,0-1.35.35,5.494,5.494,0,0,0-.15,3.05m74.85-15.1q.5-1.05-.5-1.35a1.208,1.208,0,0,0-1.5.45q-.5.7-1.2,1.6a86.585,86.585,0,0,0-7.4,14.6q-2.1,5-6.2,15.1a7.6,7.6,0,0,0,.5,2.1,4.989,4.989,0,0,0,1.9-1.1,20.456,20.456,0,0,0,1.3-3.2q4.1-9.6,7.45-16.45t5.65-11.75m-67.8-35a4.9,4.9,0,0,0,.5-3.35,3.41,3.41,0,0,0-.4-1.35,2.579,2.579,0,0,0-1.2-1.1q-1-.4-2.2,1a4.425,4.425,0,0,0-1.1,2.7q0,2.8,2.5,3.1a1.748,1.748,0,0,0,1.9-1m27.6,24.8a.951.951,0,0,0,.85-1.35,1.6,1.6,0,0,0-1.55-1.35l-2.4-.3q-4-.2-5.1-.4a8.629,8.629,0,0,1-3.9-1.6,3.046,3.046,0,0,0-1.75-1.05,2.044,2.044,0,0,0-1,.2q-.4.2-.1.95a6,6,0,0,0,1.4,1.95,8.212,8.212,0,0,0,3.95,1.85,61.308,61.308,0,0,0,6.4,1.2,15.58,15.58,0,0,0,3.2-.1M55,27.231q.45.15,1.05-.45.55-.649-1.2-2.35t-2.4-1.1q-.65.551.05,1.6a7.7,7.7,0,0,0,1.35,1.6,3.412,3.412,0,0,0,1.15.7m-12.75,1.1q.5.75,1.7-.65a4.3,4.3,0,0,0,1.15-2.45q-.049-1-.6-1.2-.551-.25-1.65,1.65t-.6,2.65M70,8.031q.15-2-2.2-1.8-2.4.2-2.85,1.65a7.447,7.447,0,0,0-.5,2.45,2.85,2.85,0,0,0,.65,1.85,1.712,1.712,0,0,0,1.85.45,4.377,4.377,0,0,0,1.5-1.1A5.616,5.616,0,0,0,70,8.031"/></svg>