<svg overflow="visible" width="100%" height="100%" viewBox="0 0 108.957 119.628" xmlns="http://www.w3.org/2000/svg"><path d="M35.262,7.77a21.228,21.228,0,0,1-3.5,1.75,11.515,11.515,0,0,0-3.8,2.55q-2.25,2.05-5.4,8.55-1.451,2.9-3.9,9-3.3,7.95-8.4,21.4-2.1,6.1-3.4,9.3a19.383,19.383,0,0,1-2.65,4.7q-1.3,1.551-3.15,3.4-1.9,1.8-.4,3.7a3.331,3.331,0,0,0,3,1.55,6.4,6.4,0,0,0,3.15-1.35,74.594,74.594,0,0,0,6.9-7.35q5.4-6.2,5.95-8.8.549-2.649,1.05-4.45t.85-2.9a19.107,19.107,0,0,1,.75-2.2q.4-1.1,1.2-4.2a20.815,20.815,0,0,0,.7-5.1,5.761,5.761,0,0,1,.7-3.3,17.6,17.6,0,0,1,3.6-3.75q2.9-2.55,4.3-3.7t1.55.05q.1.4.2.9.15,1.05.25,2.1a85.015,85.015,0,0,1-.55,20.6q-.3,2.8-2.3,3.5a12.576,12.576,0,0,0-4.6,3.3,26.76,26.76,0,0,0-3.2,4.2q-7.1,15.7-7.6,17.7a35.578,35.578,0,0,0-1.1,11.8q.9,9.6,9.4,16.2,8.5,6.5,16.3,4.1a64.2,64.2,0,0,0,6-2.3q3.4,9.1,5.6,10.35t6.35-.3a8.39,8.39,0,0,0,5.4-5.55,14.355,14.355,0,0,0,.05-8.3q9.7,2.8,15.5,2.1,7.9-.8,13.2-7.8,8.9-11,3.6-30.6a36.463,36.463,0,0,0-3.8-9.6,13.807,13.807,0,0,0-8.3-6q-3.4-.8-2.7-4.4a34.616,34.616,0,0,0-.4-12.2q-.55-2.3-1.9-6.8-.7-2.25-1.6-5-1.2-7.5,2.6.35a17.041,17.041,0,0,0,.7,1.85q.7,1.6,1.25,2.8.5,1.2.85,1.95.6,1.45.95,2.2t.95,2.45q2.7,7.8,10.8,21.1.7,1.1,1.9,3.1a100.454,100.454,0,0,0,5.5,9.5,23.413,23.413,0,0,0,1.65,2.25,2.462,2.462,0,0,0,1.6.8,1.647,1.647,0,0,0,1.6-1,3.736,3.736,0,0,0,.35-2.65,64.967,64.967,0,0,0-3.3-9.3q-6.7-15.3-10.1-22.9-1.751-3.949-3.45-7.5a142.668,142.668,0,0,0-8.05-14.7q-1-1-1.6-1.7-5.2-5.649-6.6-6.5a25.01,25.01,0,0,1-2.2-1.55,42.126,42.126,0,0,0-6.15-3.2A18.6,18.6,0,0,0,56.662.17a73.356,73.356,0,0,0-7.75,1.3,27.786,27.786,0,0,0-6.1,2.45q-3.75,1.9-4.65,2.3a18.756,18.756,0,0,0-2.9,1.55m4,5.75q.6-1.4,1.05-2.55a9.853,9.853,0,0,1,1.05-2.15,7.621,7.621,0,0,1,2.1-2q1.449-1,8.4-2.2t9.25-.75a25.335,25.335,0,0,1,4.55,1.35,34.157,34.157,0,0,1,3.5,1.5,5.784,5.784,0,0,1,2.15,2,14.306,14.306,0,0,1,1.65,3.5q.649,2.05,1.05,3.85a27.209,27.209,0,0,1,.55,4.4,20.084,20.084,0,0,0,.75,4.6q.6,1.95,1.3,4.55,1.05,3.651,2.45,8.9a18.725,18.725,0,0,1,.3,9.3q-.8,4.1,0,5.4.7,1.3,4.7,2.4a10.973,10.973,0,0,1,7,5.8,32.5,32.5,0,0,1,3.4,9q.5,2.6,1.4,9.5,1.4,6.9-2.5,14.2-4.1,7.6-10.7,9.3a22.875,22.875,0,0,1-14.4-.85q-7-2.749-8.4-6.8t-2.05-4.7a1.561,1.561,0,0,0-1.45-.5,2.49,2.49,0,0,0-1.5,1.15,6.212,6.212,0,0,0-.7,2.8,8.581,8.581,0,0,1-3.4,6.4q-1.6,1.3-4.8,4.2a15.859,15.859,0,0,1-5.6,3.1q-6.2,1.7-13-3-11.4-7.8-8.7-23.6a49.173,49.173,0,0,1,10.1-21.9,7.539,7.539,0,0,1,3.3-2.8,7.221,7.221,0,0,0,4.1-3.4,15.35,15.35,0,0,0,1.3-5.2,100.6,100.6,0,0,0,.3-10.6q-.2-4.849-.3-8.1-.051-1.5-.2-3.1-.1-1.6-.15-3.4a12.254,12.254,0,0,1,.4-3.5q.4-1.749.75-3.25a13.691,13.691,0,0,1,1-2.85m23.2,92.85a13.6,13.6,0,0,1-.7,5.9,7.254,7.254,0,0,1-4.2,4.15q-3.15,1.35-5.4-2.85a21.765,21.765,0,0,1-2.5-6.15,1.574,1.574,0,0,1,.2-1.6,32.058,32.058,0,0,1,4.2-2.35q.3,2.65.55,5.05.2,2.4,1.85,1.95,1.6-.45,1.85-2.7.2-2.3.4-4.25,3.4-.2,3.75,2.85m-2.7-25.45a11.562,11.562,0,0,0,.85-3.05q.3-2.049.4-3.4a12.083,12.083,0,0,0-.3-3q-.351-1.65-2.95-1.55a8.28,8.28,0,0,0-3.5.55,5.468,5.468,0,0,0-1.8,2.6,5.223,5.223,0,0,0,.2,4.65q.7,1.4,2.4,4.1a2.089,2.089,0,0,0,2.4,1.1,3.023,3.023,0,0,0,2.3-2m-4.8-5.35a2.139,2.139,0,0,1,.8-2.4,1.2,1.2,0,0,1,1.8-.15q2,2,.4,5.6-.6,1.4-1.55-.2a15.285,15.285,0,0,1-1.45-2.85m10.75-26.75a7.988,7.988,0,0,0,.5-3.25q.05-2.45-2.85-4.55-1.4-1.2-2.3.4a7.7,7.7,0,0,0-.8,4.6q.3,2.5,1.65,3.3a3.161,3.161,0,0,0,2.35.55,2.178,2.178,0,0,0,1.45-1.05m-20.75-5.9a5.762,5.762,0,0,0-.8,4.6,3.929,3.929,0,0,0,2.35,3.2q1.8.6,2.7-1.45a10.408,10.408,0,0,0,.75-4.4,4.949,4.949,0,0,0-.8-2.95,3.32,3.32,0,0,0-1.8-.9q-1.1-.1-2.4,1.9"/></svg>