<svg overflow="visible" width="100%" height="100%" viewBox="0 0 114.3 83.8" xmlns="http://www.w3.org/2000/svg"><path d="M2.5,3.9Q-.3,3.5.2,8.35a160.678,160.678,0,0,1,.2,17.3Q.1,38.1,0,39.5V67.7q0,3.6.9,4.5.9,1.1,4.4.9l20.8-1q2.7-.2,3.5-1t.9-3.5l.2-56.4q0-2.5-.6-3.1a5.442,5.442,0,0,0-3-1.1L2.5,3.9m1.2,7.5q0-2.9.5-3.4.6-.5,3.4-.2L25.3,9.5a2.908,2.908,0,0,1,2.4,1,3.062,3.062,0,0,1,.6,2.4L27.7,66a2.929,2.929,0,0,1-3.2,3.3l-18.3.8q-2.5.1-2.9-.4-.5-.4-.5-2.8V38.6l.9-27.2m7.35,22.75q.15-1.849-2.2-1.9-2.4-.05-2.55,1.7-.2,1.75.9,2.15a4.816,4.816,0,0,0,2.4.1q1.3-.251,1.45-2.05M24.4,26.6q-.15-1.55-4.45-1.35-4.35.15-8.85,0Q6.551,25.1,6.7,27q.1,1.151,1.5,1.2h7.4q6.2,0,7.7-.15t1.1-1.45m-5,6.15a2.652,2.652,0,0,0-1.3-.65,2,2,0,0,0-1.7.4,1.741,1.741,0,0,0-.7,1.8q.1.5,1.45,1.1,1.3.551,1.9-.3a5.828,5.828,0,0,0,.7-1.35,1.083,1.083,0,0,0-.35-1M41,66.1a37.675,37.675,0,0,0-1.9,5.1q-1.5,3-4.7,8.7-1.9,3.9,2.4,3.9a155.824,155.824,0,0,1,24.8-2.6q8.3-.2,24.9-.2,16.2,0,24.3-.2a9.234,9.234,0,0,0,3.5-1.2,14.164,14.164,0,0,0-3.9-6q-4.5-4.5-5-5.2-3.3-3.7-13.7-4-10.4-.35-26.9-.45t-19.5-.3A4.022,4.022,0,0,0,41,66.1m1.9,3.7a2.227,2.227,0,0,0,.4-1.25q.1-.8,1.15-.95a14.574,14.574,0,0,1,2.65-.2q25.25-.45,50.7,0,3.6,0,4.1,2.5-27.049-.251-43.2.1-16.2.3-15.8-.2M100.4,72q2.3-.1,3.55-.1l2.25,1.95a94.026,94.026,0,0,0-11.95.05Q58.2,74.1,53,74.6L39.6,75.9q.7-3.1,3.3-3.1,2.55,0,15.85-.25Q72,72.25,83.1,72.2q11.051-.05,17.3-.2m7.9,3.65,2.4,2.05q-6.5.3-36.8.7a298.1,298.1,0,0,0-36.1,2.1,9.494,9.494,0,0,1,.7-2.2l4.8-.4a146.118,146.118,0,0,1,22.6-1.8q7.8-.1,23.3,0h2q1.35,0,17.1-.45M101.2,7.9q-.1-3.2-1.5-4.6Q98.4,2,95.1,1.6A230.4,230.4,0,0,0,65.4,0Q48.45.35,38.75.25q-.7,0-.75.8.1,3.649.2,5.65l.1,30.8q.1,2.8.9,3.7.9.9,3.8,1.3,4.6.7,13.8,1.7,3.8.5,4.6,1.1.3.3.1,1.7a38.774,38.774,0,0,0-.3,5.6,17.2,17.2,0,0,0,.3,4.4q.251.65,3.35,1a33.153,33.153,0,0,0,4.4.3l5.45-.4q4.1-.3,4.7-4.1a55.777,55.777,0,0,1,.6-6.9q14.3,0,17.2-.1,2.8-.1,3.8-1.1,1.2-1,1.1-3.6Q102,25,101.2,7.9M95.4,4.6q3.3.5,3.3,3.7l1.1,32.2q.2,3.4-3.2,3.4a135.758,135.758,0,0,1-25.9-.8q-17.2-2.4-25.9-3.3a6.758,6.758,0,0,1-3-.9,7.454,7.454,0,0,1-.5-3.2L40.7,9.4q0-3.251-.05-5.35,0-1.249,1.05-1.3Q51,2.8,65.5,2.6a206.185,206.185,0,0,1,29.9,2M65.2,45.5a16.637,16.637,0,0,1,3.8,0l4.2.25a6.384,6.384,0,0,1,3.5.95q1,.75.55,4.1T75.8,54.9q-1,.7-6.35.8T63.9,54.65a25.835,25.835,0,0,1,.15-5.1q.35-3.9,1.15-4.05M90.5,9.4a98.11,98.11,0,0,0-10.4-.55q-9.2-.3-18.7-.35-9.5-.1-11.35.5-1.849.551-1.8,7.9.05,7.3.05,9.9.1,3.1,1.3,4.3t4.5,1.5l34.2,1.8q3.7,0,3.8-2.9.6-12.5.9-18.7a3.07,3.07,0,0,0-2.5-3.4m-3.95,2.8q2.65.1,3.05,1.7a20.9,20.9,0,0,1,.4,4.8q0,3.2-.2,7.45t-.7,4.75q-.5.6-2.8.5-20.8-1-31.2-1.7-2.8-.1-3.3-.7t-.6-3.4l.2-10.4q-.05-2.85,2.55-3,16.2-.3,32.6,0"/></svg>