<svg overflow="visible" width="100%" height="100%" viewBox="0 0 115.864 66.136" xmlns="http://www.w3.org/2000/svg"><path d="M54.306,8.057a63.537,63.537,0,0,0-8-1.5q3.1-3.1,5.3-3.4a12.827,12.827,0,0,1,3.7.2,7.954,7.954,0,0,0,3.7-.2q1.05-.45,1.05-.95t-1.45-1.2a9.493,9.493,0,0,0-3-.95q-6.8-.5-10.4,3.4a25.2,25.2,0,0,1-4.9,4,10.984,10.984,0,0,0-4.2,4.6l-5.8,12.1q-1.6,3.3-2.8,3.9a2.724,2.724,0,0,1-1.9-.1q-3.6-.7-4.2-.8-7.9-.9-15,6.8-6.6,7.2-6.4,14.2.3,7.9,3.9,12.1,3.549,4.149,6.2,4.85a37.024,37.024,0,0,0,6.4,1,19.25,19.25,0,0,0,8.4-1.65q4.65-1.95,9.3-8.4,7.8-10.9,2.4-20.3a54.674,54.674,0,0,0-3.9-5.5q-1.4-1.8-.7-3.1l2.45-3.1q1.8-1.251,4.25.75,2.8,2.25,3.5,2.75,14.3,9.9,22.5,18.5,3.9,4.2,7.6,3.2t5.6-6.7q2.6-9.1,4-13.7.5-1.6,1.2-1.8t1.9.9a14.178,14.178,0,0,1,2.5,3.3,2.769,2.769,0,0,1-1.1,3.6,18.649,18.649,0,0,0-4.8,6,32.149,32.149,0,0,0-1.7,4.4q-1.1,3.251,1.6,9.8t10.6,8.7a27.744,27.744,0,0,0,5.95.9,16.683,16.683,0,0,0,6.65-.6q7-3.4,10-11.6,3.1-8.8-2.1-14.6a17.18,17.18,0,0,0-8-4.5q-6.1-1.3-8.15-1.05a6.982,6.982,0,0,1-6.55-2.45,33.755,33.755,0,0,0-4-5.5,6.216,6.216,0,0,0-1.8-1.9,3.181,3.181,0,0,1-.05-1.25q.2-1.7.2-1.85,2.45,0,2.45-.95a1.8,1.8,0,0,0-1.05-1.65,9.718,9.718,0,0,0-2.65-.75,2.211,2.211,0,0,0-2.3.65q-.9,2.049,1.6,2.55-.45,1.9-.65,3.2a6.273,6.273,0,0,0-1.15.45,8.953,8.953,0,0,1-3.9.3l-40.4-3a.547.547,0,0,0-.15.1l.05-.1a25.862,25.862,0,0,1,2.5-6.8,8.1,8.1,0,0,1,6.3-3.5,14.506,14.506,0,0,1,5.3.1,34.5,34.5,0,0,1,5.3,2.2,13.286,13.286,0,0,0,5.5,1.6q2.15-.6-.4-2.5a24.225,24.225,0,0,0-6.3-3.2m38,36.9q.7,1.9-1.3,2a40.315,40.315,0,0,1-5.8.6q-3.3.2-2.1-3.1a21.591,21.591,0,0,1,2.2-4.5,8.2,8.2,0,0,1,4.1-3.3l2.9,8.3m-1.4,4.9a56.411,56.411,0,0,0,6.5-2.5q3.3-1.5,3.45-2.1a1.211,1.211,0,0,0-.25-1.1q-.9-.9-3.3.4a1.652,1.652,0,0,1-2.6-1.2l-2.7-8.2q9.1-.4,14.7,2,7.8,3.3,5.9,11.2a24.856,24.856,0,0,1-3.3,8.75,10.587,10.587,0,0,1-7.6,4.65,17.842,17.842,0,0,1-10.05-1.2,16.3,16.3,0,0,1-7.75-7.2q-1.6-2.4,1.8-2.8,5.1-.6,5.2-.7m-35.4-16.3q-8-5.7-11.9-8.8,2.8-.8,15.6-.1a150.853,150.853,0,0,1,20.4,2.2l-4.3,14.4q-1.2,4.3-3.5,5-2.3.8-5.5-2.5a62.145,62.145,0,0,0-10.8-10.2m-30.1-2.5q.4.7-.6,2.5l-5,8.6a11.577,11.577,0,0,0-1.3,2.8q-.251.9.35,1.25a1.384,1.384,0,0,0,1.25.1,1.759,1.759,0,0,0,.8-.55q1.5-2.2,8.6-14.3,5.7,4.8,6.3,10.8.6,5.8-3.7,11.9-4.6,6.4-10.05,7.95a17.341,17.341,0,0,1-9.8.25q-4.3-1.3-5.55-2.95a15.063,15.063,0,0,1-2-3.25,30.6,30.6,0,0,1-2-7,10.919,10.919,0,0,1,1.6-7.1q3.2-6.5,7.3-9.3a16.374,16.374,0,0,1,11.3-2.5q2.2.2,2.5.8"/></svg>