<svg overflow="visible" width="100%" height="100%" viewBox="0 0 58.588 115.404" xmlns="http://www.w3.org/2000/svg"><path d="M44.521,3.229a1.622,1.622,0,0,0,.1-2.2,2.011,2.011,0,0,0-2.1-1,9.2,9.2,0,0,0-2.6.65,20.247,20.247,0,0,0-8.2,6.95,24.028,24.028,0,0,0-4.1,10.2,7.317,7.317,0,0,1-.8,2.5,4.388,4.388,0,0,1-2.1,1.5q-5.8,2.2-7.1,9.4-1.1,6-3.2,19.6-2.3,15.5-8.75,24.55-6.5,9-5.55,18.2.8,7.55,5.5,11.35,8.6,6.9,15.9,7.4a11.037,11.037,0,0,1,3.1.5,2.746,2.746,0,0,1,1.6,1.4,2.264,2.264,0,0,0,1.2,1.15,1.17,1.17,0,0,0,.95-.2l1.6-1.4a5.121,5.121,0,0,1,3.05-1.2,42.4,42.4,0,0,0,4.8-.75q2.9-.6,9.3-4.1a22.776,22.776,0,0,0,6.45-5.6q3.85-4.65,4.35-7.1,2-11.4-2-19.9a46.407,46.407,0,0,1-1.9-5.1q-1.2-3.5-1.9-5.1a49.472,49.472,0,0,1-4.5-20.7q.1-8.2-5.1-17.3-1.9-3.9-8.2-5.7-2.3-.7-1.5-3.1a51.893,51.893,0,0,1,2.1-5.75,9.763,9.763,0,0,1,2.9-3.6q2-1.6,4.1-3.3,2.1-1.75,2.6-2.25m-10.9,20.8q6.2,1.8,9.2,9.4a39.731,39.731,0,0,1,2.3,13.6q-.1,6.9,3.6,16.8,5.6,14.8,6,16.2,5.2,15.6-9.2,25.2-5.2,3.5-7.5,4.1a51.006,51.006,0,0,1-8.7.75q-13.7.849-22.6-8.05a10.051,10.051,0,0,1-2.5-3.5,13.488,13.488,0,0,1-1.2-4.3q-.9-9.3,3.1-14.7,9.8-13.1,11.6-32.1,1.1-11.8,3-16.9,3.3-8.9,12.9-6.5"/></svg>