<svg overflow="visible" width="100%" height="100%" viewBox="0 0 114.492 46.106" xmlns="http://www.w3.org/2000/svg"><path d="M114.336,18.962a20.6,20.6,0,0,0,.1-4,30.823,30.823,0,0,0-.2-3.5,4.774,4.774,0,0,0-2.7-2.8,37.8,37.8,0,0,0-5.3-1.9,51.276,51.276,0,0,1-5.3-1.7q-11.4-4.4-19.5.1-1.2.6-4-.4-10.3-3.6-12.6-4.1a25.829,25.829,0,0,0-13.2.4,72.863,72.863,0,0,1-7.2,1.7q-4.9.7-7.4,1.1a5.534,5.534,0,0,0-4.3,2.9q-1.9,3.8-6,11.3a5.093,5.093,0,0,1-3,2.9l-11.8,4.1q-7,2.5-11.6,4.6-.549.2-.2.95t2.35,1.1q1.95.35,1.65,3.35a33.263,33.263,0,0,1-.5,5.3q-.6,2.3-.3,2.8t2.6.7q15.9,1.6,23.2,2.2a15.216,15.216,0,0,0,5.4-.5q5.6-1.8,16.8-5.8,2.7-.9,3.5-.5.6.2,2.2,2.7,1.8,2.7,3.4,3.1a9.93,9.93,0,0,0,7.5-1.5,10.587,10.587,0,0,0,4.5-6.3,5.206,5.206,0,0,1,3.4-3.8l19.2-6.6q1.6-.7,2.3.6,3.2,5.4,8.3,4.1,5-1.4,5.7-7.3a6.474,6.474,0,0,1,.5-2.3,3.531,3.531,0,0,0,2.5-3m-2.4-5.3q0,3.8-.6,4.4-.6.5-4.4-.2-4-.8-6.2,2-2.1,2.8-7,4.4l-19.2,6.6a7.719,7.719,0,0,1-2.5.6,1.769,1.769,0,0,1-1.55-1.1q-.6-1.1-3.6-2.05a9.309,9.309,0,0,0-5.95.05,5.322,5.322,0,0,0-3.65,3.25,7.492,7.492,0,0,1-2.35,3.55,9.3,9.3,0,0,1-4,1.8q-2.9.7-10.9,3.3-6.8,2.2-9.75,2.15a43.968,43.968,0,0,1,.65-7.45,3.707,3.707,0,0,1,2.3-2q6.1-2.5,15.2-6.05,6.9-2.7,7.85-3.65,6.651,1.6,14.55-1.8a7.206,7.206,0,0,1,1.7-.6,2.067,2.067,0,0,1,1.8.8q.5.7,3.1-.1,12-4.3,34.3-10.4l.2,2.5m-26.2-6.45q7.6-2.351,11.5-.75a69.01,69.01,0,0,0,8.4,2.8l-28.6,9.2q-.4.249-.4-.8-.2-5.6.7-6.9.8-1.2,8.4-3.55m21.5,14.75a3.929,3.929,0,0,1,1.3,3.4q0,.549-1.1,1.55a5.014,5.014,0,0,1-2.15,1.25,4.642,4.642,0,0,1-1.7.15,3.27,3.27,0,0,1-1.25-.55q-.549-.4-.5-2.4a3.264,3.264,0,0,1,1.95-3.5,3.174,3.174,0,0,1,3.45.1m-33.7-15.7q1.451.549,0,.95a125.028,125.028,0,0,1-14.4,2.15l-14-4.1q11.6-2.3,14.7-2.6a27.056,27.056,0,0,1,6.9,1.5q5.7,1.8,6.8,2.1m.2,3.9q.55-.051.65,1.35a13.707,13.707,0,0,1-.15,3.5,5.449,5.449,0,0,1-.55,2,3.228,3.228,0,0,1-.95.55q-.7.3-3.7,1.5-6.4,2.7-11,1.2a5.759,5.759,0,0,1,.5-3.25q.8-2.151,1.25-3.05a3.113,3.113,0,0,1,.95-1.35,2.226,2.226,0,0,1,.9-.45l12.1-2m-18.8,2.5q-1.4,1.6-4.5,5.7-2.9,3.3-5.4,3.5-8.5-.9-12.4-1.5-2.2-.3-2.6-1.1t.6-2.8q2.6-5,4.1-7.3a2.749,2.749,0,0,1,2.7-1.4q5.5.7,16.5,2.5,2.5.5,1,2.4m12,27.2a7.057,7.057,0,0,1-4.3,1.4q-2.1.4-2.3-2.3a6.707,6.707,0,0,1,1.3-4.2,4.071,4.071,0,0,1,3.3-1.6,2.939,2.939,0,0,1,2.2,1.1,3.647,3.647,0,0,1-.2,5.6m-54.3-7.7q.9-.1,5.4-.1a26.4,26.4,0,0,1,7.5,1q2.7.9,2,6.5-.1,1-.25,1.8a1.5,1.5,0,0,1-.55,1.05,2.822,2.822,0,0,1-1.4.25l-16.3-1.4q-1.8-.1-2.1-2.2-.5-4.3.4-5.4,1-1.2,5.3-1.5m2.35-2.9a27.119,27.119,0,0,0-5.15.1,53.279,53.279,0,0,1,17.3-5.9,37.5,37.5,0,0,1,17.7,1.9q-8,4.7-14.9,5.1a66.469,66.469,0,0,0-7.6-.75q-5.1-.25-7.35-.45"/></svg>