<svg overflow="visible" width="100%" height="100%" viewBox="0 0 115.43 101.867" xmlns="http://www.w3.org/2000/svg"><path d="M47.415,30.259h-1.5a6.551,6.551,0,0,0-3.7,1.2,6.356,6.356,0,0,0-1.6,3.5l-7.6,46.8a3.4,3.4,0,0,1-1.1,2.4,3.8,3.8,0,0,1-2.5.5h-18.8a38.364,38.364,0,0,0-5.75.2,13.567,13.567,0,0,0-3.15.55,8.726,8.726,0,0,0-1.25.65,1.032,1.032,0,0,0-.45,1.1,1.94,1.94,0,0,0,1.1,1.4,7.511,7.511,0,0,0,1.7.8q6,2.2,17.9,6.7a114.614,114.614,0,0,0,18.4,4.8,77.178,77.178,0,0,0,12.5,1,35.672,35.672,0,0,0,12.4-2.3q3.8-1.4,11.3-4.3a65.779,65.779,0,0,0,11-5.2,7.974,7.974,0,0,1,7.2-.55,26.876,26.876,0,0,0,7.25,1.7,31.041,31.041,0,0,0,6.6-.1,10.081,10.081,0,0,0,5.7-2.95q2.55-2.5,2.35-7.3a14.567,14.567,0,0,0-5.2-11.3,10.653,10.653,0,0,0-6.8-2.7,9.375,9.375,0,0,0-6.5,3,121.8,121.8,0,0,0-9,10.5,5.781,5.781,0,0,1-4.4,2.6l-22.3,1.6q-2.4.2-2.8-.3t.1-2.8q2-9.7,2.8-14.6a105.963,105.963,0,0,0,1.7-14.7q.1-3.1,1.3-12.8.7-5.9-.1-7.3-1.3-2.2-7-1.75-5.7.4-3.1-4.95,1.3-2.7,2.5-4.9a22.172,22.172,0,0,0,1.7-7.35,15.73,15.73,0,0,0-2.1-9.75q-2.7-4.6-5.1-2.9-6.8,4.7-7.4,11.8t3.15,11.6q3.75,4.449,3.35,5.35a1.622,1.622,0,0,1-1.25.95q-.849.05-1.55.1m5.25-26.45q.4.2,2.3,4.6,1.851,4.35-1.15,10.15-.549,1.149-.35-1.7a9.108,9.108,0,0,0-.2-3.7,2,2,0,0,0-1.05-1.1,1.809,1.809,0,0,0-1.7.35,2.564,2.564,0,0,0-1.3,1.45,11.876,11.876,0,0,0-.25,3.45q.051,2.55-.45,3.05t-1.7-1.95q-1.2-2.451.4-7.35,1.551-4.9,3.3-6.15,1.7-1.3,2.15-1.1m-8.45,29.75q.7-.7,4-.8h10.5q3.4-.1,3.1,3.2-.2,2.1-.7,8.7-.3,5.4-.8,8.6-1.4,9.5-4.7,28.3-.4,3.2-3.4,3.1h-13.9q-2.9.1-2.4-2.7l7-44.5q.5-3.3,1.3-3.9m46.5,48.2a3.584,3.584,0,0,1,1-2.2l6.3-6.9q3.4-3.6,7.6-2.4a10.208,10.208,0,0,1,6.1,5.5,13.74,13.74,0,0,1,1.2,5.7,5.807,5.807,0,0,1-1.5,4.5,7.026,7.026,0,0,1-4.3,2.3,21.576,21.576,0,0,1-5.2.5q-6.9-.4-10.2-4.6a3.586,3.586,0,0,1-1-2.4m-9.2,4.3q5.4-.6,4.7,0-12,6.7-13.9,7.6a34.971,34.971,0,0,1-4.25,1.65q-2.85.9-6.6,2.2a31.311,31.311,0,0,1-9.3,1.45,84.429,84.429,0,0,1-15.2-1.6,116.036,116.036,0,0,1-20.85-5.95q-11.25-4.251-8.5-4.05h47.7q15-.2,26.2-1.3"/></svg>