<svg overflow="visible" width="100%" height="100%" viewBox="0 0 83.555 116.206" xmlns="http://www.w3.org/2000/svg"><path d="M35.828,6.569a4.985,4.985,0,0,1-2.7.3q-4.4-.1-7.5,5.049-3.15,5.151-6.15,2.8t-6.05,3.151q-3.1,5.5-3.7,6.7a34.922,34.922,0,0,0-2.8,7.8q-3.2,15.6-4.5,25.6-1.9,14.1-2.4,25.851a35.217,35.217,0,0,0,4.9,19.45q5.7,9.7,15.9,11.6a62.932,62.932,0,0,0,17.8,1.1,37.345,37.345,0,0,0,16.9-5.8q10.7-5.3,15.5-14.6a79.05,79.05,0,0,0,6.5-14.7q3.2-10.3,4.9-15.4a21.258,21.258,0,0,0,1.1-8.3q-.5-5.5-.6-8.3a6.219,6.219,0,0,0-2.4-4.3,3.648,3.648,0,0,0-4.5-.1q-6.6,3.6-8.8,7.7-.9,1.8-6.2,10-.8,1.65-.8-.3,0-18.3.3-36.5a44.3,44.3,0,0,0-1.9-14.2q-1.5-4.9-3.4-5.5-1.9-.7-5.9,2.4-.9.9-1,.2-.9-6.7-3.8-8-3.1-1.4-7,4.5a6.405,6.405,0,0,1-1.7,1.8m5.8-2.5a2.074,2.074,0,0,1,1.7-.9q.8.2,1.2,1.5a29.083,29.083,0,0,1,.7,9.8q-.6,8.7-.6,9.9-.2,14.2-.1,21.3a4.364,4.364,0,0,0,.05.7q0,1.349,1.45,1.4a1.438,1.438,0,0,0,1.1-.5q.349-.45.5-5.65.1-5.25.3-9.951.3-8.2.8-13.9.3-2.9,3.2-8.1.7-1.3,1.8-1.1,1.1.1,1.5,1.5.6,2.2,1.7,6.7a41.679,41.679,0,0,1,.9,6.8q.2,8.2-.6,24.8v13.9q-.1,8.6-.1,11.449t.45,3.351a1.892,1.892,0,0,0,1.55.45q1.05-.051,1.1-1.75a26.413,26.413,0,0,1,2.3-9.45,148.415,148.415,0,0,1,7.4-12.95,14.573,14.573,0,0,1,5.6-5.4q2.4-1.3,3.3-.9t1.3,2.9q1.7,10.3-1,17.6-1.6,4.5-4.7,13.6a90.612,90.612,0,0,1-7,14.851q-4.1,6.95-9.4,10.05t-7.35,4.1a36.444,36.444,0,0,1-6.15,2.1,56.1,56.1,0,0,1-7.8,1.1q-26.3,1.6-31.8-16.5a29.473,29.473,0,0,1-2.05-10.55q.349-11.25,2.15-25.55.7-6.2,3.9-25.2.8-6.3,5.6-14.7a22.868,22.868,0,0,1,1.4-2.3,2.709,2.709,0,0,1,2.5-.9q1.1.2,2,2a5.326,5.326,0,0,1,.6,3.4,79.179,79.179,0,0,0-1.2,12.6q-.1,4.2-.1,12.6,0,.8-.2,2.8a1.587,1.587,0,0,0,1.6,1.7q1.9.1,1.9-1.7.05-1.7.05-2.5t1.1-17.4q1.05-16.6,6.35-20.7,1.1-.9,1.8-.6a1.887,1.887,0,0,1,.9,1.7,40.087,40.087,0,0,1-.1,8.9q-2,10.2-2.15,28.25,0,2.8,1.75,3.25,1.35.3,1.6-.5a22.251,22.251,0,0,0,.5-3.6q.2-2.8.8-13l1.1-20.3a16.2,16.2,0,0,1,4.9-10.5"/></svg>