<svg overflow="visible" width="100%" height="100%" viewBox="0 0 92.266 116.497" xmlns="http://www.w3.org/2000/svg"><path d="M89.72,108.913q6.2-9.7-2.7-16.8-7.5-5.6-14.1-7a65.139,65.139,0,0,1-22.45-9.85q-10.1-6.95-10.2-12.6-.15-5.85-.25-8.75a21.949,21.949,0,0,1,1.1-8.5q3.5-11.6,8.9-31a52.987,52.987,0,0,0,1.35-10.2q.2-3.949-.8-3.55a18.117,18.117,0,0,1-3.9,1.05,52.335,52.335,0,0,1-16.15,1,108.46,108.46,0,0,1-13.3-2.5q-2.9-.9-3.2,2-.4,3.4-.5,9.1-.2,6.9-.3,9.1-2.6,18.5-4.1,26.7a187.193,187.193,0,0,1-6.7,26.1,65.644,65.644,0,0,0-2.1,9.1q-.8,4.9.4,6.6a21.337,21.337,0,0,0,3.7,3.8q6.1,5.3,16.4,6a86.283,86.283,0,0,1,36.8,12.4,41.588,41.588,0,0,0,15.5,4.9q10.5,2.4,16.6-7.1m-8.1-16.6a10.113,10.113,0,0,1,3.15,1.5q4.65,3.3,4.25,8.2-.2,6.5-6.5,9.6a16.1,16.1,0,0,1-11.25,1.6q-5.6-1.35-6.5-1.95a2.834,2.834,0,0,1-.95-2.5,19.884,19.884,0,0,1,.7-4.65q.4-1.8,1.85-6.35t5.5-5.2q4.05-.75,5.5-.9a12.309,12.309,0,0,1,4.25.65m-7.7-4.15q1.8.9-.35,1.15a13.078,13.078,0,0,0-8.15,4.8q-2.7,3.4-4.25,12-.251,1.251-.35,2.2-.15,1.35-2.15.3a37.271,37.271,0,0,1-3.45-1.9q-12.1-7.3-20.65-8.65-8.55-1.4-8.55-2.4t.1-5q.049-4,.15-8.35t-4.55-10.3q-4.7-6-11.45-5.6-1.05.05-1.8.15-1.4.1-1-1.1,2.5-10,5.45-24.35.9-4.3,1.7-10.7.9-7.2,1.4-10.8a5.273,5.273,0,0,1,1-2.8q.6-.6,4.5.65a22.872,22.872,0,0,0,7.9,1.1,145,145,0,0,0,15.7-2.2q1.5-.249,1.2.55-.5,1.7-2.9,11.1-1.8,6.8-3.3,11a40.65,40.65,0,0,0-2.6,12.6,80.842,80.842,0,0,0,.55,12.9,12.991,12.991,0,0,0,5.05,9.05,82.666,82.666,0,0,0,12.8,8q8.35,4.4,12.3,5.05a21.544,21.544,0,0,1,5.7,1.55M48.62,6.313q-.1.7-.15,1.6-.45,5.5-6.4,6.45-6,.95-8.45,1.25a22.591,22.591,0,0,1-5.4-.05,79.805,79.805,0,0,1-9.3-1.95,3.2,3.2,0,0,1-2.9-3.4q0-4.4.1-4.9.6-2.5,3.5-1.7.5.1,5.4,1.3a30.1,30.1,0,0,0,6.35.9q3.15.051,12.1-.65,2.3-.2,3.7-.4,1.6-.15,1.45,1.55m-42.7,64.9q.75-1.95,4.2-1.35,1.6.251,3.6.6,4.4.75,7.4,6.15a18.379,18.379,0,0,1,2.6,10.15q-.349,4.7-.45,6.85t-.9,2.1q-.851-.1-7.35-1-6.55-.95-9.65-5.8-3.15-4.9.45-17.4c.033-.1.067-.2.1-.3"/></svg>