<svg overflow="visible" width="100%" height="100%" viewBox="0 0 65.19 114.7" xmlns="http://www.w3.org/2000/svg"><path d="M61.479,0q-1.7.05-1.9,3.6-.2,3.5-1.4,13.9-.4,2.9-.9,3.3-.5.5-3.3.4a151.5,151.5,0,0,0-22.2,0q-3.6.3-4.4,1.1-.8.9-1,4.5l-1.7,39.6a10.437,10.437,0,0,1-2.4,6.3L1.479,99.3q-4.3,5.1,3.9,9.2a116.9,116.9,0,0,0,12.8,5.3,6.8,6.8,0,0,0,4.4.8,7.876,7.876,0,0,0,3.9-2.5q12.7-13.3,32.3-32.9a15.7,15.7,0,0,0,4.7-10.1q.35-4.75.6-8.45.3-4.45.4-7.35.5-10.8.7-24.3.2-5.1-3.4-7.2a2.02,2.02,0,0,1-1.1-1.5q0-.3.2-1.9l2-16.8q.2-1.6-1.4-1.6m-1.9,24.5q2.6.1,2.6,3.5l.1,14.8q-.551,11.55-.9,17.85-.349,7-.4,7.45a13.66,13.66,0,0,1-3.9,8.8q-19.1,19.1-31.6,32.2a6.948,6.948,0,0,1-3.6,2.3,6.935,6.935,0,0,1-4.1-.8q-8-3.1-11.9-5-2.7-1.3-2.9-2.4-.3-1.1,1.6-3.5l19-24.1a17.344,17.344,0,0,0,4.1-11.3q0-.949.1-3.65.15-8.05,1-31.45.2-3.6.8-4.4.8-.8,4.3-.8,2.8,0,25.7.5M40.029,75.9q-7.5-2.5-9.55-2-2.049.45-5.35,4.9t-6.95,10.1a84.444,84.444,0,0,1-6,8.25q-2.349,2.65-.9,3.35,1.4.7,4.75,2.35l4.15,2.35q3.251,1.751,6.7-1.35a91.447,91.447,0,0,0,9.3-10.7q5.9-7.65,8.6-11.2t-4.75-6.05m-10.65,4.7q-1.751-.55-.6-1.9a1.9,1.9,0,0,1,2.4-.75,1.182,1.182,0,0,1,.6,1.85,1.769,1.769,0,0,1-2.4.8m-4.1,3.15a1.6,1.6,0,0,1,2.9,1.35q-.5,1.4-2.1.65t-.8-2m5.15,3.7q-1.549-.8-.6-2a1.86,1.86,0,0,1,2.3-.75q1.3.5.6,2.05a1.492,1.492,0,0,1-2.3.7m2.7-6.65a3,3,0,0,1,1-1.5,1.915,1.915,0,0,1,2.1-.2q1.3.45.35,1.85a1.987,1.987,0,0,1-2.3,1q-1.35-.4-1.15-1.15m1.5,6.45a1.383,1.383,0,0,1,2.15-.6,1.349,1.349,0,0,1,.5,2.1,1.469,1.469,0,0,1-2.15.55,1.258,1.258,0,0,1-.5-2.05m6.85-4.55q-1.249,1.55-2.65.85t-.4-2a2.278,2.278,0,0,1,2.65-.85q1.65.45.4,2m-13.45,7.9q1.8.7.55,2.35-1.25,1.6-2.25,1.1a4.5,4.5,0,0,1-1.3-.85q-.4-.35.4-1.85a1.8,1.8,0,0,1,2.6-.75m1.8,3a1.9,1.9,0,0,1,2.6-.6q1.6.7.45,2.3-1.2,1.6-2.65.6a1.4,1.4,0,0,1-.4-2.3m-6.6-5.35a1.688,1.688,0,0,1,.65,2.6q-1,1.6-2,1.1a6.76,6.76,0,0,1-1.5-1.05q-.45-.55.4-2.05a1.546,1.546,0,0,1,2.45-.6m1.2,9.75a2.781,2.781,0,0,1-1.15,1.75q-1.1.95-2.85,0a1.632,1.632,0,0,1-.65-2.65,1.959,1.959,0,0,1,2.9-.8q1.8.9,1.75,1.7m34.15-61.8q0-4.2-1.1-5.2-1.1-1.1-5.4-1.1-6.8.2-12.5.1a7.238,7.238,0,0,0-4.4,1.2q-1.2,1-1.8,4.1a143.24,143.24,0,0,0-2.15,25.35q0,1.65.05,3.25.2,2.8.9,3.5.8.8,3.5.8,9.8.2,17.8-.1,3.4,0,4.5-1.2t1.2-4.8l-.35-13.2q-.251-9.9-.25-12.7m-3-2.9a4.057,4.057,0,0,1,.5,2.3l.1,26.8q0,2.7-2.6,2.7l-16.3.6a3.2,3.2,0,0,1-2.3-.5,3.493,3.493,0,0,1-.8-2.3V60.65a127.884,127.884,0,0,1,2.2-25.85,3.089,3.089,0,0,1,.8-1.7,2.445,2.445,0,0,1,1.8-.6h14.3a2.914,2.914,0,0,1,2.3.8m-10.6,9.2q1.9-2.4,3.4.5a28.344,28.344,0,0,1,.45,8.5q-.35,5.35-1.35,4.85a7.135,7.135,0,0,1-2.15-1.9Q44.18,53,41.879,54.7q-2.4,1.7-1.1,3.9a3.842,3.842,0,0,0,3.15,2.05h.5a2.341,2.341,0,0,0,.45-.05,8.023,8.023,0,0,0,4.1-1.6,6.962,6.962,0,0,0,1.7-4,107.937,107.937,0,0,0,1-10.8q.1-3.4-3.6-5.4a4.451,4.451,0,0,0-3.7-.2,10.816,10.816,0,0,0-3.3,1.3q-2.2,1.3-1.2,3.2.9,1.9,3.3,1a5.833,5.833,0,0,0,1.8-1.6"/></svg>