<svg overflow="visible" width="100%" height="100%" viewBox="0 0 75.436 117.137" xmlns="http://www.w3.org/2000/svg"><path d="M53.778,2.7A63.953,63.953,0,0,0,40.628.147a24.237,24.237,0,0,0-14.95,3.2A61.8,61.8,0,0,0,11.528,14.9a35.665,35.665,0,0,0-9.2,17.5q-.6,2.4-1.65,7.2a25.45,25.45,0,0,0,3.45,19.9q5.1,8,15.8,13.2-2.9,4.9-1.2,13.1.7,3.3.1,4.2-.5.8-3.6,1.9-5.6,1.8-6.4,3.2-.8,1.1-.8,7.3a13.6,13.6,0,0,0,4.9,10.8,15.39,15.39,0,0,0,9.6,3.8,101.77,101.77,0,0,0,15.7-.35,73.928,73.928,0,0,0,12.8-2.7,22.24,22.24,0,0,0,10.25-6.4,13.538,13.538,0,0,0,3.45-10.75,7.008,7.008,0,0,0-1.6-4.2,5.1,5.1,0,0,0-3.9-1.6,122.33,122.33,0,0,0-14.8.8q-2.6.2-3-.2-.6-.5-.3-3.1,1.4-8.7,1.8-13.2a4.279,4.279,0,0,1,2.4-3.7l13.1-8a26.774,26.774,0,0,0,7.2-7.1q4-5.449,4.9-6.9.9-1.5,1.2-2.15.3-.7,1.9-5.6a38.818,38.818,0,0,0,1.8-10.6,18.314,18.314,0,0,0-2.3-9.9q-2.451-4.2-2.9-4.8-.5-.6-2.65-3.45a28.635,28.635,0,0,0-3.5-4.1q-1.35-1.25-3.15-2.9t-7.15-3.4M42.028,7.6a11.157,11.157,0,0,1,3.05,4.95q.849,2.8.05,9.95t-4.15,7.4q-3.4.251-8.05-2.55-4.7-2.85-5.1-4.3a52.435,52.435,0,0,1-.9-6.5,25.208,25.208,0,0,1-.05-7,5.05,5.05,0,0,1,2.55-3.2q2.1-1.25,6.4-.85,4.4.3,6.2,2.1m-2.2-4.8q4,.4,9.45,1.35,5.4.951,13.55,8.25,8.149,7.2,2.4,6.9a18.5,18.5,0,0,0-11.55,3.65q-5.751,3.951-6.75,4.55a52.866,52.866,0,0,0,1-11.3,18.011,18.011,0,0,0-2.4-8.3q-2.2-3.7-9-3.75-6.8-.1-3.75-.9a19.2,19.2,0,0,1,7.05-.45M17.778,13.5q8.55-7.8,7.5-5.35t.75,16q-1.75-1-5.65-.85-3.951.15-10.15,7.85-6.2,7.65-1.9,16.75,1.4,3.2,3.4,4.1t5.3-.3a61.268,61.268,0,0,0,7.5-3.8q4.8-2.8,7.6-4.4-.2,1-.7,4a22.953,22.953,0,0,1-.7,3.5q-1.9,6,2.1,13.8,2.7,5.6,9.1,4.7-3,1.8-13.5,1.55a23.911,23.911,0,0,1-17.85-8.45q-7.35-8.2-7.35-16.8,0-5.2,3.1-15.25,2.9-9.3,11.45-17.05m14.15,15.7a7.391,7.391,0,0,1,1.95,3.1,7.013,7.013,0,0,1,.35,3.55,17.3,17.3,0,0,1-.6,2.5,6.743,6.743,0,0,1-.55,1.25,26.543,26.543,0,0,1-4.25,2.75q-4,2.351-9.3,5.25t-7.7.8q-2-1.8-2.5-7.7a14.435,14.435,0,0,1,4.8-11q4.9-4.8,8.65-4.25a18.909,18.909,0,0,1,5.75,1.5,15.487,15.487,0,0,1,3.4,2.25m4.65,6.15a8.226,8.226,0,0,1,1.25-2.15q.75-1.05,2.55-.35a4.319,4.319,0,0,1,2.15,1.25,3.139,3.139,0,0,1,.45,1.05,11.5,11.5,0,0,1-.15,2.05,2.381,2.381,0,0,1-1.3,2.05,4.621,4.621,0,0,1-2.15.35,3.338,3.338,0,0,1-2.15-1.6,2.784,2.784,0,0,1-.65-2.65m-3.4,17.1q.549-5.75,2.05-7.95a7.467,7.467,0,0,1,1.65-1.4,14.451,14.451,0,0,1,3.4-1.3,5.872,5.872,0,0,1,3.75-.15,4.626,4.626,0,0,1,2.2,2.35q1.2,2.1,3.7,6a13.878,13.878,0,0,1,1.8,6.9,8.635,8.635,0,0,1-2.9,7.1,11.17,11.17,0,0,1-7.4,2.5,8.342,8.342,0,0,1-4.4-.9,7.7,7.7,0,0,1-2.5-3.4,18.4,18.4,0,0,1-1.35-9.75m27.45-30.3q6.3-2.7,8.1,1.3a21.411,21.411,0,0,1,1.95,5.5q.15,1.551.35,3.85.1,6-4.1,8.9-4.2,2.8-10.4,1.2-3.2-.8-9.2-4.7a3.942,3.942,0,0,1-1.8-3.5q.1-2.3,4.45-6.05a40,40,0,0,1,10.65-6.5m-6.2,40.45a26.816,26.816,0,0,0-5.2-19.4q9,5.2,19.4,1.3,1.65-.8.9.9t-1.6,3.6q-.9,1.851-5.4,7a22.455,22.455,0,0,1-8.1,6.6M39.828,77l-1.5,10.8q-.75,4.8.2,6.05.95,1.2,6.05.55a67.206,67.206,0,0,1,10.45-.5q5.4.1,6,.9a5.635,5.635,0,0,1,.7,3.1q.2,9.7-8.9,12.5-9.7,2.8-10.8,3a33.834,33.834,0,0,1-10.25,1.05q-10.251-.549-10.55-.65a12.071,12.071,0,0,1-8.4-4.8,11.125,11.125,0,0,1-1.9-5.7,23.749,23.749,0,0,1,.35-5.55,3.621,3.621,0,0,1,1.45-2.15,33.4,33.4,0,0,1,6.2-2.1q3.6-1.4,3-4.7-1.7-9.1,0-14.5.2-.8,1.8-.8,1.5.1,6.9.5,4.3.3,6.9.3a2.475,2.475,0,0,1,2.1.7,2.982,2.982,0,0,1,.2,2"/></svg>