<svg overflow="visible" width="100%" height="100%" viewBox="0 0 100.358 116.067" xmlns="http://www.w3.org/2000/svg"><path d="M39.15,4.027A7.61,7.61,0,0,1,35,5.827q-3.7.8-5.5,1.3-2.3.8-3.5,1.1a18.469,18.469,0,0,1-5.35.05q-3.25-.351-4.05,3.05-1.55-.651-5.1-1.7a3.35,3.35,0,0,0-4.1,1.7,22.614,22.614,0,0,0-2.15,4.9,6.036,6.036,0,0,0,.1,4.35,9.832,9.832,0,0,0,1.25,2.25q.4.3,1.45,1.05a7.954,7.954,0,0,0-2.8,2.65,10.633,10.633,0,0,0-1.45,3.2,70.393,70.393,0,0,0-1.1,9.9q-.6,8.2-1.2,28.4-.4,11.5-1.3,34.5a23.988,23.988,0,0,1-.2,2.4q.1,1.3,1.7,1.5.3,0,.9-1.4a7.191,7.191,0,0,0,.5-2.3q.2-3,.3-12.8a106.913,106.913,0,0,1,.6-12.7q.9,4.4,2,15.7.3,3.7,1.3,4a2.8,2.8,0,0,1,2.1,2.1,17.657,17.657,0,0,1,0,2.7q.1,2,.15,4.35a12.384,12.384,0,0,0,.25,3.1q.25.8,1.4.55,1.151-.15,1.15-2.45-.05-2.351-.05-3.45v-41.1q.2,8.1,1.3,17.6.9,8,3.2,22.5a19.831,19.831,0,0,1-.2,7.4q-1,4.5-.4,5.2.5.8,5,.6l2.5-.1q34.5-3,44.9-4.1,5.4-.5,13.5-1.7l13.5-1.9q3.5-.5,4-3,1.2-7.3.5-11.3-.9-4.9-1.9-12.7-1.4-11.1-1.6-12.8-1.3-11.7-4.3-26.1-1.8-8.6-5.9-25.8-1-3.9-2.5-4.3a1.8,1.8,0,0,1-1.35-2.45,8.043,8.043,0,0,0-.2-4.15,6.95,6.95,0,0,0-2-3.25,4.625,4.625,0,0,0-3.65-.9,4.747,4.747,0,0,0-3,1.05,6.289,6.289,0,0,0-2.9-1.8,5.694,5.694,0,0,0-3.6.2,9.5,9.5,0,0,1-3.3.7,28.213,28.213,0,0,1-3.7-1.2,8.306,8.306,0,0,0-4.95-.1,42.249,42.249,0,0,0-4.85,1.45,8.235,8.235,0,0,1-4.6.3,6.374,6.374,0,0,0-3.85.05,8.683,8.683,0,0,0-2.8,1.9m-4.1,5.85q2.951,1.149,2.55,3.8-.45,2.649-2.25,3.25a18.242,18.242,0,0,1-4.25.8q1.3-1.1.75-3.6t-4.05-3.6q4.249-1.851,7.25-.65m5.2-.35q-2.7-1.35-1.4-2.6,1.249-1.251,4.8-1.45a8.534,8.534,0,0,1,6.05,1.85q2.5,2,1.1,4.05a9.176,9.176,0,0,1-2.6,2.7q-1.151.649-6.8,1.35,1.55-4.551-1.15-5.9M63.8,7.777a5.028,5.028,0,0,1-.7,4.45q-1.45,2.4-8.6,2,4.5-4.9-2.7-9.5,6.9-3,10-.1a8.267,8.267,0,0,1,2,3.15m9.2,2.45q.45,3.4-5.6,3.4,2.149-4.151.35-6.75a14.159,14.159,0,0,1-1.8-3q0-.351,1.65-.4a4.308,4.308,0,0,1,3.3,1.6,8.858,8.858,0,0,1,2.1,5.15m6.4-2.15a11.706,11.706,0,0,1-.2,2.7q-.251,1.249-2.8,1.45.649-4.7-1.2-6.7a2.507,2.507,0,0,1,2.95.1,3.126,3.126,0,0,1,1.25,2.45m.5,6.6a3.1,3.1,0,0,1,2.5.1q.8.549,1.4,3.05,11.3,44.8,13.6,83.8,0,2.5-.8,3.3a7.293,7.293,0,0,1-3.4.9q-23.1,3-25.6,3.4-9.6,1.6-23.1,2.6-15.5,1-23.2,1.5-1.5.1-1.9-.5a2.19,2.19,0,0,1-.1-1.8q1.1-4.6-.3-12.8a198.466,198.466,0,0,1-3.3-30q-.7-20.1-1.3-30.2a27.027,27.027,0,0,1,.2-4.4q.5-3.7.5-4.4a35.976,35.976,0,0,0,.3-3.7v.2a11.285,11.285,0,0,1,3.5-2.05q1.3-.4,4.45-1,3.15-.651,4.15-.85a157.359,157.359,0,0,1,21.2-3.6q7.1-.8,21.4-2.3a18.248,18.248,0,0,0,3-.4,45.558,45.558,0,0,0,6.8-.85m-60-2.2q.15-1.551,2-1.45,6,1.05,5.7,4.3t-2.65,3.95q-3.1.9-2.6-1.4.45-2.351-.5-3.35t-1.95-2.05m-3.05,3.8q1.45,1.749,1.25,2.55-.3,1.3-3.2,2.35a3.617,3.617,0,0,1-2.35.3,8.977,8.977,0,0,1-2.5-1.1,2.938,2.938,0,0,1-1.5-2.2,4.832,4.832,0,0,1,1.15-3.15q1.3-1.9,2.6-1.8,1.95.049,4.55,3.05m-10.1,19.9a51.556,51.556,0,0,1,1.7-8.75q1.6-1.3,1.55.9-.1,3.4-.1,5.3l-.5,59.4-.9.1q-1.1-20.7-1.7-36.4-.649-15.7-.05-20.55m33.15,4.55q-.7-1.9-2.4-.6-5.6,8.3-16.1,25.6a5.607,5.607,0,0,0-1.15,2.05,1.612,1.612,0,0,0,.55,1.75q1.7.4,6.3-7.4t9.7-15.95q.35-.4,0,1.25L33,78.827a15.067,15.067,0,0,0-.2,3.35,2.622,2.622,0,0,0,.45,1.75,1.118,1.118,0,0,0,1.1.15q.649-.251.95-1.75.2-1.8.3-2.5l4.4-35.8a6.1,6.1,0,0,0-.1-3.3m11.85,1.85a13.1,13.1,0,0,1,2.75-.1l4.85.4q3.6.249,6.45,4.75,5.2,7.1,1,15.9a22.519,22.519,0,0,1-12.4,11.6q-9.5,2.2-10-7.5.3-7.4.5-8.6a12.035,12.035,0,0,1,3.7-7.5,13.428,13.428,0,0,1,2.4-2l2.7-1.9q2.55-1.7,4.45-.7t2.1-1.2q.15-2.2-5.05-1.4a29.066,29.066,0,0,0-7.8,4.4q-4.2,3.3-4.7,7.6,0,3.4-.9,11.5,0,6.9,4.8,9.4,6.4,3,11.7-.9,7.6-5.4,10.3-10.5.3-.6.6-1.15,2.2-5.3,1.8-8.75a15.516,15.516,0,0,0-6.8-13.6,12.916,12.916,0,0,0-6.4-2.3,68.012,68.012,0,0,0-6.9-.2,5.574,5.574,0,0,0-2.85,1.05A2.314,2.314,0,0,0,47,43.827a.926.926,0,0,0,1.1.45,2.707,2.707,0,0,0,.9-.45,4.641,4.641,0,0,1,2.75-1.25m26.25.95q-1.3.4-1.8,2.55t-1.6,13.25q-.3,4-3.8,4.1-.5-.051-.4.9t1.45,1.35a2,2,0,0,1,1.55,1.85q0,.1-.4,3-.1.7-.4,2.2-.1,1.3,1.4,1.4a1.378,1.378,0,0,0,1.6-1.2q.1-1.6.2-2.3a15.335,15.335,0,0,1,.4-3.1,4.932,4.932,0,0,1,2.1-3q-.6,6-.7,8.05t1.5,1.85q1.25.049,2.25-3.75t2.55-4.8q1.549-1.05,1.4,1.65a44.255,44.255,0,0,1-.7,5.25q-.55,2.55.7,3.35,1.2.5,2-2a26.253,26.253,0,0,0,1.05-6.1,8.581,8.581,0,0,0-2.15-6.4q-1.55-1.9-5,3.2.8-9.5,1-12.05.15-2.6-1.1-2.45-1.249,0-1.5,1.65-.3,1.65-.7,5.25-.1.8-.2,2.5a3.348,3.348,0,0,1-1.6,2.5,58.3,58.3,0,0,1,.9-8.5,80.178,80.178,0,0,0,1.15-8.05q.1-2.451-1.15-2.15"/></svg>