<svg overflow="visible" width="100%" height="100%" viewBox="0 0 94.904 115.28" xmlns="http://www.w3.org/2000/svg"><path d="M70.254.753A22.717,22.717,0,0,0,63.6,0q-3.95.049-13.95,2.85Q43.2,4.6,42.9,6.353A8.569,8.569,0,0,0,37,4.4q-4.3,0-13.1-.3-8.8-.4-13.2-.4a2.362,2.362,0,0,0-1.3.6Q5.255,6.654,4.3,8.2A20.306,20.306,0,0,0,.1,19,15.136,15.136,0,0,0,3.4,30.7a15.37,15.37,0,0,0,2.8,2.8q1,.7,8.95,4.6,7.9,3.851,14.1,2.55Q35.4,39.3,39.5,38.8q.6.9,1.6,2.8A4.956,4.956,0,0,0,43,43.7a55.956,55.956,0,0,0,10.9,5.7q5.1,1.7,5.8,2.8.8,1.1.4,6.4-.9,5.8-3.1,17.5-.9,6.1,5.3,6.9a15.254,15.254,0,0,0,5.8-.2,3.164,3.164,0,0,1,2.7,0,6.368,6.368,0,0,1,1.7,1.8,38.817,38.817,0,0,0,4.5,6,18.19,18.19,0,0,0,6.5,4.1q4.7,1.6,8,9.6a4.882,4.882,0,0,1-.1,4.2,24.37,24.37,0,0,1-2,3.5,8.583,8.583,0,0,1-.9,1.5,1.216,1.216,0,0,0,.6,1.5q1,.6,1.6-.1a7.146,7.146,0,0,0,1-1.4,36.52,36.52,0,0,0,2.3-3.8,6.59,6.59,0,0,0,.8-4.3Q91.5,94.8,84.2,91.8q-5.4-2.1-9.3-8.4a3.892,3.892,0,0,1-.8-2,3.076,3.076,0,0,1,.9-2.2,37.765,37.765,0,0,0,3.1-3.9q1-1.3,2.8-4.1a18.319,18.319,0,0,0,3.4-11.5q-.4-5.651-7.5-15.1,9.3-10.85,6.7-28a21.909,21.909,0,0,0-2.15-7.05,17.376,17.376,0,0,0-5-5.5,19.175,19.175,0,0,0-6.1-3.3m-6.8,2.4A14.542,14.542,0,0,1,73.7,5.9a18.572,18.572,0,0,1,7,11q1.1,5,0,12.9-1.4,9.5-5.6,13.05t-6.05,4.85a11.218,11.218,0,0,1-2.3,1.35l-2.05.2a8.181,8.181,0,0,1-3.2-.45q-1.6-.55-3-.95-1.4-.45-2.2-.65a31.515,31.515,0,0,1-10.7-4.9q-2.2-1.5-2.3-2.5a7.266,7.266,0,0,1,1.2-3.2A14.246,14.246,0,0,0,46.2,30q0-.3-1.8-21.6.3-.2.8-.5A21.274,21.274,0,0,1,48,6.8a65.386,65.386,0,0,1,15.45-3.65M37,7.4q3,.1,4,1,1,1,1.3,3.9l.9,19.4q.2,2.8-2.1,3.4a63.019,63.019,0,0,1-12.95,3.2,17.52,17.52,0,0,1-8.95-.95,94.279,94.279,0,0,1-8.8-4.7,11.244,11.244,0,0,1,1-1.05,15.088,15.088,0,0,0,6.2-11.7q.3-7-5-13.3L37,7.4M65.6,51.3q5-.4,9.5-4.9,4,7.65,5,9.4,2.9,4.8.3,10.6-.5,1.1-6.1,9.3-2.6,4.2-9.3,4.9-6.1.7-5-6l3.1-21a2.485,2.485,0,0,1,2.5-2.3M9.954,7.2q1.6,2.85,2.65,4.4a12.933,12.933,0,0,1,2.2,9.5,13.019,13.019,0,0,1-4.5,7.8q-1.8,1.5-2.8,1.3-1-.1-2.4-2Q1.5,23.8,3.2,17.4A18.336,18.336,0,0,1,6,11.353,16.925,16.925,0,0,1,9.954,7.2m57,.25A1.27,1.27,0,0,0,65.8,7a1.477,1.477,0,0,0-1.1.55,2.946,2.946,0,0,0-.35,1.3,14.976,14.976,0,0,0,.35,3.45q-1.449.9-3.5,2.45-1.4,1-2.6,1.95a11.259,11.259,0,0,0-.9-1.35,1.867,1.867,0,0,0-1.45-.65,1.2,1.2,0,0,0-.95.6,1.456,1.456,0,0,0-.3,1.05,3.62,3.62,0,0,0,.95,1.8,3.793,3.793,0,0,0,.35.4Q54.555,20,53.254,21.2q-.5-.551-1-1.15A2.919,2.919,0,0,0,50.8,19a1.353,1.353,0,0,0-1.05.25,1.509,1.509,0,0,0-.65.95q-.1.949,1.4,2.45.351.349.7.75a2.652,2.652,0,0,0-.5.85,1.6,1.6,0,0,0,.15,1.4,1.3,1.3,0,0,0,1.2.7,2.275,2.275,0,0,0,1.05-.5q.55.851,1.15,1.65a13.3,13.3,0,0,0-1.05.85q-1.65,1.35-1.5,2.45a1.354,1.354,0,0,0,.7,1,1.423,1.423,0,0,0,1.15.2A4.043,4.043,0,0,0,55,30.9q.351-.349.95-.85.75,1.15,1.5,2.35-.5.45-1,.95a3.383,3.383,0,0,0-1,1.65A1.375,1.375,0,0,0,56,36.2a1.28,1.28,0,0,0,1.2.35,5.057,5.057,0,0,0,1.35-.9c.167-.167.35-.333.55-.5q.7,1.2,1.4,2.45a3.573,3.573,0,0,0,1.35,1.5,1.279,1.279,0,0,0,1.05-.05,1.361,1.361,0,0,0,.75-.8,2.7,2.7,0,0,0-.55-2.35q-.9-1.55-1.75-2.95,1.251-1.25,2.4-2.25.3.9.6,1.85.551,1.4.65,1.55a2.1,2.1,0,0,0,1.35.95,1.377,1.377,0,0,0,1-.3,1.408,1.408,0,0,0,.55-.85,2.176,2.176,0,0,0-.3-1.6l-.8-2.05q-.35-.9-.65-1.65,1.151-1,2.15-1.75.351-.251.75-.5l1.5,3.7q.651,1.65,1.65,1.85a1.421,1.421,0,0,0,1.1-.4,1.846,1.846,0,0,0,.5-1.1,3.822,3.822,0,0,0-.45-1.75q-1-2.25-1.7-4.05.7-.45,1.45-.9a3,3,0,0,0,1.55-1.45,1.392,1.392,0,0,0-.2-1.35,1.274,1.274,0,0,0-1.2-.6,2.715,2.715,0,0,0-1.35.5q-.7.4-1.35.85-.4-1.05-.6-1.8V19.8q.5-.251,1-.45a4.171,4.171,0,0,0,1.5-.9,1.45,1.45,0,0,0,.25-1.25,1.367,1.367,0,0,0-.8-.95,2.541,2.541,0,0,0-2.15.2c-.166.067-.35.15-.55.25q-.649-1.9-.95-2.95a16.83,16.83,0,0,1,3.6-1.7,4.214,4.214,0,0,0,1.65-.85,1.279,1.279,0,0,0,.3-1.1,1.237,1.237,0,0,0-.6-1,2.7,2.7,0,0,0-2.3,0,16.553,16.553,0,0,0-3.4,1.5,3.964,3.964,0,0,1-.1-.85,3.958,3.958,0,0,0-.45-2.3m-10.7,17.6-1-1.4Q56.505,22.4,58.2,21q.9,1.2,1.55,2.15-1.55,1.2-3.15,2.45l-.35-.55m5.55-4.4q-.75-.8-1.3-1.5,1.45-1.2,3.2-2.45.951-.7,1.85-1.25.351,1.15.9,2.8a30.587,30.587,0,0,0-2.7,1.85q-.75.55-1.55,1.15l-.4-.6m-2.15,9.6q-.65-1.05-1.3-2.05l3.05-2.4q.55.949,1.05,1.95-1.4,1.151-2.8,2.5m4.2-6.35,1.15-.95q1.2-.9,2.3-1.6.2.8.45,1.8l.1.3q-1.5,1.05-3,2.3-.45-.8-1-1.85"/></svg>