<svg overflow="visible" width="100%" height="100%" viewBox="0 0 114.47 87.139" xmlns="http://www.w3.org/2000/svg"><path d="M21.767,30.1a103.888,103.888,0,0,0-9.5,5.3,34.243,34.243,0,0,0-5.5,4.9q-1.7,1.8-5,5.6a9.924,9.924,0,0,0-.65.95,7.993,7.993,0,0,0-.7,1.7,12.619,12.619,0,0,0-.4,4.4q.1,3,.25,8.1.1,5.051.2,12.45,1.3,9.8,2.9,11.1,1.3.9,11.3,1.1l88.9,1.4q4.5.3,5.9-1.7.9-1.3,1.3-6.3l1-21.3q0-2.6.1-3.9a5.537,5.537,0,0,1,1-3.3,7.85,7.85,0,0,0,1.5-3.6q.1-.7.1-3.7V29.9q.1-4.8-3.4-6.9a7.123,7.123,0,0,0-2.95-1.05,6.407,6.407,0,0,0,2.55-2.25,7.537,7.537,0,0,0,1.5-3.4,22.448,22.448,0,0,0,.2-2.7,5,5,0,0,0-2.3-3.9,6.983,6.983,0,0,0-4.8-1.6,3.361,3.361,0,0,0-3.1,2.5,14.329,14.329,0,0,0-2.95-1.45,6.766,6.766,0,0,0-3.95-.55l-.1-.1q-3.7-6-8-8.5-2.3,4.3-6.7,12.3a4.786,4.786,0,0,1-4.1,2.8q-1.8.1-9.2,1.6-3.3.9-18,3.5-11.1,1.9-17.5,5.2-6.6,3.1-9.9,4.7m-2.1,4.5a1.9,1.9,0,0,1,1,.1,1.788,1.788,0,0,1,.9.6,13.579,13.579,0,0,0,6.9,3.7,10.418,10.418,0,0,0,7.4-.8q1.1-.6,1.8-3.2a1.6,1.6,0,0,0-.7-1.55q-.3-.2-5.3-5.05l4.75-1.6q2.85,5.351,4.2,6.2a5.407,5.407,0,0,0,5.35.2,48.561,48.561,0,0,0,5.2-2.8,3.827,3.827,0,0,0,2.2-3q.2-1.9-1.5-5.1a43.383,43.383,0,0,0,10.3-1.1,93.379,93.379,0,0,0,9.5-2.7q.3-.1,3.4-.4,3-.1,3.5.4.6.5.8,3.6a13.913,13.913,0,0,0,5.4,10.2,13.008,13.008,0,0,0,11,2.9,27.237,27.237,0,0,1,4.2-.6,8.981,8.981,0,0,1,4.4,1.1,6.877,6.877,0,0,0,3.2.4q1.2-.1,3.9-.3v6.1q0,2.8-1,3.9-.9,1.2-3.7,1.7a79.882,79.882,0,0,1-13.6,1q-9.1-.1-14.85-.15,2.15-2.95,1.85-4.25a4.364,4.364,0,0,0-1.9-2.55,14.958,14.958,0,0,0-5-2.25,6.009,6.009,0,0,0-5.6,1.35q-2.65,2.1-2.2,3.6a12.641,12.641,0,0,0,2.4,3.95,232.44,232.44,0,0,1-23.7,0q-15.9-.7-24-1,5.9-7.8-.9-8.5a25.89,25.89,0,0,1-5.6-1.1l6-3M9.367,45.8q-.8.6-3.5.1.1-.1,4.3-4.95-.051,4.2-.8,4.85m-6.9,5.4q-.15-1.5.75-2l17.25.9q51.8,2.7,85.3.5,2.7-.1,3.1.3.5.4.4,3.1-.3,13.5-1,24.3-.2,4.2-1.2,5-1,.9-5.5.8L8.767,83a9.023,9.023,0,0,1-3.5-.4q-.7-.6-1.1-3.2a125.551,125.551,0,0,1-.95-13.8q-.351-10.35-.75-14.4m11.75-4.65q-2-.55-1.95-2.25,0-1.75.1-3.1.1-1.451,3.7-1,3.549.45,3.55,1.55a4.935,4.935,0,0,1-1.65,3.55,3.8,3.8,0,0,1-3.75,1.25m20.15-11.9a3.638,3.638,0,0,1-.95,2.15q-.951,1.2-4.05.25-1.15-.45-3.1-1.4t-1.7-1.75a4.628,4.628,0,0,1,.9-1.55,8.143,8.143,0,0,1,2.1-1.4q1.7-.949,4.25.9,2.5,1.849,2.55,2.8m5.3-6.7q-.5-1.4-.75-2.15a33.074,33.074,0,0,1,5.15-1.8,6.127,6.127,0,0,1,3.4.7q1,.6,3.2,1.9a7.37,7.37,0,0,1-2.9,2.6q-.7.3-3.5,1.4-3.3,1.1-4.6-2.65m65-15.65a1.634,1.634,0,0,1,1.7-1,3.891,3.891,0,0,1,2.4.9,3.378,3.378,0,0,1,.9,2.5,6.571,6.571,0,0,1-1.3,3.55,7.044,7.044,0,0,1-2.7,2.55q-1.451.551-1.5-1.7a19.981,19.981,0,0,1,.15-4.3q.249-2,.35-2.5m-4.9-.55a4.887,4.887,0,0,1,1.85,1.7q.5.649.45,3.55-.1,2.9-.95,1.5-.9-1.4-1.75-3-.9-1.6-2.8-4.75a5.338,5.338,0,0,1,3.2,1m-16.2.75a90.858,90.858,0,0,0,4.5-8.3,45.632,45.632,0,0,1,8.8,11.6,25.648,25.648,0,0,1,2.5,6.75q1,4.1-.25,6.15t-1.85,2.25l-2.4.6-2.6.65a4.223,4.223,0,0,1-1.3,0q-3.2-.6-6.1-4.1a11.968,11.968,0,0,1-3.1-6.8,15.636,15.636,0,0,1,1.8-8.8m27.45,15.65q1.65,3.3-.7,4a24.518,24.518,0,0,1-3.8.8,4.09,4.09,0,0,1-2.85-.85q-3.1-1.5-1.4-4.4a5.14,5.14,0,0,1,5.2-2.7q1.9-.15,3.55,3.15M69.667,44.2a1.6,1.6,0,0,1-.05-1.5,1.475,1.475,0,0,1,1.15-.8,8.707,8.707,0,0,1,3.05.2,4.23,4.23,0,0,1,3.05,2.05q.9,1.6-1,2.45a4.378,4.378,0,0,1-3.15.35,5.715,5.715,0,0,1-1.95-1.2,5.47,5.47,0,0,1-1.1-1.55m20.5-15.9q-1.751.4,0,1.5,1.4.25,1.25-.2a3.279,3.279,0,0,0-1.25-1.3m7.8-6.7q-.45-1.65-1.7,0,1.65,2.149,1.7,0m-3.1,4.7q1-.8.6-1.5-2.3-1.35-1.8,0-.15,1.65,1.2,1.5m-9.7-9.5q.849.949,1.35-.55.65-2.149-1.05-.85l-.3.4v1m4.75,7.2q.549.5,1.25-1.1-.651-1.249-1.05-1.05-.45.15-.2,2.15M4.467,71.05q-.2.9,1.2,1.3a7.893,7.893,0,0,0,2.5.35l87.3,1.5a24.28,24.28,0,0,1,3.2,0q2.1-.2,2.3-1.6-.4-1.6-3.2-1.4L8.067,70h-2.2a1.35,1.35,0,0,0-1.4,1.05m-.2-9.35a1.352,1.352,0,0,0,.45,1.1q.5.5,3.85,1a54.593,54.593,0,0,0,6.4.6l87.9.3q2.3-.5,2.1-1.4-.3-1.4-2.3-1.5-2.4,0-3.3-.1-7.2-.1-46.6-.1-28.5.1-37.9-.45-9.45-.6-10.05-.2t-.55.75m99.85-16.9q3.15-1.7,3.55-2.9.6-1.9-1.85-3.05t-3.55,1.05q-4.2,8.2,1.85,4.9m-71.7-1.4a2.71,2.71,0,0,0,2.25,2.4,104,104,0,0,0,12.25.65q3.75-.2,5-1.4T49.767,41a9.76,9.76,0,0,0-6.75-2.6,19.328,19.328,0,0,0-7.3,1.5q-3.7,1.5-3.3,3.5m4-.85a18.253,18.253,0,0,1,4.95-2.1q2.85-.8,6.5,1.75,3.6,2.55-2.4,2.25T36.917,44q-2.6-.2-.5-1.45"/></svg>