<svg overflow="visible" width="100%" height="100%" viewBox="0 0 94.812 116.6" xmlns="http://www.w3.org/2000/svg"><path d="M14.7,8.186a9.765,9.765,0,0,1-2.5-.2,3.944,3.944,0,0,1-2.2-2,3.674,3.674,0,0,0-3.6-2.1,4.593,4.593,0,0,0-3.9,2.1,11.6,11.6,0,0,0-1.8,6.3q-.2,4.1,1.4,6.3a13.8,13.8,0,0,1,2.1,7.9l-.7,73a7.6,7.6,0,0,1-1.6,4.9,9.138,9.138,0,0,0-1.85,5.1q-.249,3.1.65,4.2a4.01,4.01,0,0,0,2.4,1.4,23.3,23.3,0,0,0,5,.9,6.724,6.724,0,0,0,4.8-1.9q2.9-2.5,8.3-2.5l54.5-.1q4.4-.2,6,2.6,1.5,2.7,5.2,2.5a9.425,9.425,0,0,0,4.9-.8,3.839,3.839,0,0,0,1.7-3.2q.2-3.7-1.3-5.5-3.4-4-3.6-11.6-.4-7.9-.4-11.9-.3-21.6-.4-32.4,0-19,1.1-32.5a14.334,14.334,0,0,1,2.6-6.3q6.3-9.5.6-11.7a9.4,9.4,0,0,0-6.2-.3,9.559,9.559,0,0,0-5,3.7,6.111,6.111,0,0,1-5.2,3.1q-29,1-61,1m-10.4.7a2.3,2.3,0,0,1,2-1.8q1.4-.1,1.9,1.5a3.669,3.669,0,0,0,2.1,2.4,8.866,8.866,0,0,0,2.9.3l60-1a17.472,17.472,0,0,0,6-1,9.459,9.459,0,0,0,4.4-4.3q.7-1.4,3.6-1.8,2.8-.5,3.9.5a3.762,3.762,0,0,1,.5,3.7,8.42,8.42,0,0,1-2.1,3.3,12.294,12.294,0,0,0-3,7.5,353.329,353.329,0,0,0-1.1,51.6q.3,6.6.3,26.3,0,7.7,3.9,12,1.8,2.1,1.1,3.9-.8,1.9-4.1,1.55a6.818,6.818,0,0,1-4-2.7q-2-2.451-6.7-2.45-28,.3-56.1.3a12.463,12.463,0,0,0-7.8,2.7,6.723,6.723,0,0,1-6.4,1.4,4.5,4.5,0,0,1-3-2.2q-.7-1.5.8-3.1a9.832,9.832,0,0,0,2.9-5.5,37.742,37.742,0,0,0,.3-6l.1-70q0-6.1-2.2-9-2.1-2.9-.2-8.1m13.3,10a15.95,15.95,0,0,0-3.1,0q-1.95.2-1.95,1.35,0,2.5-.15,6.95l-1.1,44.2v24.8q-.1,6,1,7.3,1.4,1.6,8,1.3,2.6-.1,28.7-1.3,17.4-.7,28.7-1.6,3.6-.3,3.4-3.9l-.3-6.9a139.244,139.244,0,0,1-1-19.3q0-.6.6-19.4,1-22.1,1.4-33.1.2-3.1-.7-3.8-.8-.8-3.8-.5-26.3,2.4-39.5,3.4a126.779,126.779,0,0,1-20.2.5m-1.4,3.7a4.549,4.549,0,0,1,2.1-.5q10-.4,14.8-.8l43.4-3.4a2.868,2.868,0,0,1,1.9.3,2.143,2.143,0,0,1,.5,1.7q-.2,12.8-1.5,38.2a282.98,282.98,0,0,0,.8,38.1q.2,2.3-.2,2.7-.3.5-2.4.6l-27.4,1.2q-16.5.7-27.5,1.5a21.28,21.28,0,0,1-4.5-.2q-2.6-.6-2.5-3,.1-3.7.1-33.2.6-27.5,1.7-41.2a2.51,2.51,0,0,1,.7-2"/></svg>