<svg overflow="visible" width="100%" height="100%" viewBox="0 0 116.594 102.349" xmlns="http://www.w3.org/2000/svg"><path d="M19.509,4.973q-3.1-4.95-4-4.95-1.35-.55-3.35,12.2-2.051,12.75-1.65,19.9.4,7.1-2.65,9.75a21.172,21.172,0,0,0-5.2,7.4,26.349,26.349,0,0,0-2.45,7.75q-1.3,10.3,5.5,20.2,4.7,6.9,15,15.5,8,7,20.1,8.9,8.8,1.4,22.2.1,12.4-.9,29.4-9.8a16.217,16.217,0,0,0,4.5-3q11.5-12.8,9.3-29.2a23.409,23.409,0,0,0-2.1-6.2q-1.35-2.451-3.05-5.35,1.3-2.8,4.55-9.85,8.4-18.5,10.6-24.9.9-2.3-.3-3.4-1.1-1-3.7-.2-20.4,6.8-30.1,11.4-2.1.9-2.9,1.3-1.4-.7-5.6-2.25-7.6-2.85-10.7-3.65a29.447,29.447,0,0,0-9.6-.9q-8,.5-11.4.9a15.572,15.572,0,0,0-5.45,1.4q-.9.4-7.35-3.85a31.116,31.116,0,0,1-9.6-9.2m-2.3,2.5q1.25,2.85,8.9,8.9,7.65,6,11.7,4.55a30.122,30.122,0,0,1,6.05-1.45,84.07,84.07,0,0,1,11.85-.95,38.33,38.33,0,0,1,15.55,3.85q6.849,3.45,9.95,2.35l31.3-12.3q1.6-.5.9,1.1l-6.15,13.5q-10.45,19.35-9.1,21.6,1.3,2.2,3,5a16.547,16.547,0,0,1,2.05,4.7q1.7,16.1-6.3,26.1a3.934,3.934,0,0,1-2.1,1.6,3.721,3.721,0,0,1-2.4-.6q-9.7-4.8-18-8.8-1.7-.8-2.5-1.1a1.266,1.266,0,0,0-1.8.6,1.462,1.462,0,0,0,.4,2.2q.7.4,1.95.95,6.45,3.049,18.65,8.85,1.5.549.2,1.1-1.4.6-9.6,4.5a65.58,65.58,0,0,1-9.8,3.9q-14.5,2.8-24.7,2.1-13.7-.9-23.1-7.8a61.845,61.845,0,0,1-16.6-17.45q-6.2-10-4.1-19.15a48.193,48.193,0,0,1,7.3-11.55q3.6-3.9,3-14.25a72.276,72.276,0,0,1,.8-17.6q1.4-7.3,2.7-4.45m60.4,63.95q-2.3-.4-3.15.25a1.223,1.223,0,0,0-.45,1.65q.45,1,3.1,1.1,8.7.7,9.6.8,5.4.7,7.4,1.85a8.051,8.051,0,0,0,4.05,1.15q2.049,0-.3-2.4t-9.85-3.4q-8.1-.6-10.4-1m4.15-32.8q-.1-1.5-.35-1.6a1.661,1.661,0,0,0-.65-.2.92.92,0,0,0-.8.2q-.4.3-.4,3.05-.051,2.749-.05,5.55a15.485,15.485,0,0,0,.15,3.1.9.9,0,0,0,.75.45,1.4,1.4,0,0,0,.95-.2q.35-.251.4-2.3t.1-4.3q0-2.25-.1-3.75m-22.3,34.9q-1,.049-.95,1.9a13.19,13.19,0,0,0,2.2,6.5,5.331,5.331,0,0,0,5.5,2.6q2-.5-1.15-2.25t-3.4-4.55a8.9,8.9,0,0,0-.75-3.55,1.435,1.435,0,0,0-1.45-.65m2.85-8.1a4.244,4.244,0,0,0-.9-2.6,2.914,2.914,0,0,0-2.1-1.3,4.815,4.815,0,0,0-3.2,1.2,4.213,4.213,0,0,0-1.8,2.8q0,4.9,3.8,4.9,3.8-.1,4.2-5m-2.5.1q-.1,1.95-1.5,2-1.05,0-1.2-1.4a1.382,1.382,0,0,1,1.35-1.65q1.5-.2,1.35,1.05m10.15-.85a.944.944,0,0,0,0,1.1q.349.65,1.9.7,1.5,0,10.9-.7,9.4-.75,13.6-.15,1.749.1.15-2.5a1.174,1.174,0,0,0-1.2-.7,64.192,64.192,0,0,0-12.3.2q-2.9.3-7.8.95t-5.25,1.1m-24.15,12.45q0,1.1,1.3,1.1,5.149.15,6.9-2.3a14.066,14.066,0,0,0,1.9-3.1,1.216,1.216,0,0,0-.6-1.2q-1.05-.651-2.6,1.1a19.149,19.149,0,0,1-1.8,1.8,6.284,6.284,0,0,1-3.5,1.3q-1.5-.051-1.6,1.3m-.55-38.15a.9.9,0,0,0-1,0q-.4.3-.7,2.75t-.45,4.95a9.994,9.994,0,0,0,.05,2.95q.2.4,1,.4a.934.934,0,0,0,1-.75q.15-.75.65-6.05.1-1.6.1-2.5-.1-1.5-.65-1.75m-28.15,37.15a4.151,4.151,0,0,0-1.8,1.1,1.165,1.165,0,0,0-.3,1.25,1.272,1.272,0,0,0,.6.75.915.915,0,0,0,.7.1q8.9-3,26.6-8.9,2.2-1,1.1-1.7a3.831,3.831,0,0,0-3.4-.3l-23.5,7.7m9.7-20.85q-4.15-.351-4.2,1.35.049,1.149,2.55,1.65,2.45.45,5.35.75a37.084,37.084,0,0,1,8,2.2q2.049.75-.1,1.1a47.012,47.012,0,0,1-9.2,1.1q-6.2.2-9.3.4a5.042,5.042,0,0,0-1.7.2q-.9.2-1,.9-.15.7.7,1.05a8.756,8.756,0,0,0,3.1.3q2.2-.051,9.6.15,6.5-.2,10.4-2.6a3.549,3.549,0,0,1,3.35-.65q1.749.549,4.1,1.2t2.65-.55q0-1.6-4.6-3.15t-10.1-3.3a44.968,44.968,0,0,0-9.6-2.1"/></svg>