<svg overflow="visible" width="100%" height="100%" viewBox="0 0 89.953 114.974" xmlns="http://www.w3.org/2000/svg"><path d="M89.268,9.888a13.746,13.746,0,0,0-2.4-4.451,14.2,14.2,0,0,0-5.2-4.2,9.188,9.188,0,0,0-6-1.1q-9.9,2.3-15.2,9.4a54.939,54.939,0,0,0-9.5,20,15.773,15.773,0,0,1-8.2,10.5q-3.1,1.6-3.45,2.449t.35,3.75a5.383,5.383,0,0,0,1.95,3.1,2.651,2.651,0,0,1,1.05,2.9q-.2,1-7.75,10.5-7.6,9.45-12.4,16.6t-9.05,8.551a12.736,12.736,0,0,0-7.05,6.2,98.336,98.336,0,0,0-5.25,10.6q-2.5,5.85.35,8.351,2.8,2.45,4.3,1.8,1.451-.7,5.9-6.1t7.45-9.4a20.829,20.829,0,0,0,2.9-4.85,12.138,12.138,0,0,0,.9-3.5q0-1.2,6.65-9.449,6.551-8.25,18.05-23.7a3.359,3.359,0,0,1,3.3-1.3,11.823,11.823,0,0,0,8.55-1.7,11.606,11.606,0,0,0,4.75-6.9,17.744,17.744,0,0,1,6.6-9.6,73.071,73.071,0,0,0,11.1-9.65,37.643,37.643,0,0,0,5.55-7.5,38.581,38.581,0,0,0,2.05-4.75,8.161,8.161,0,0,0,.35-3.149,22.14,22.14,0,0,0-.65-3.4m-14.8-3.5q-.8.75-3.1,3.15-1,1.1-10.3,12.6a19.372,19.372,0,0,0-3.15,5.049q-1.05,2.5-.1,3.55a3.2,3.2,0,0,0,2.35,1.1q1.251.151,2.5-1.5,1.2-1.7,9.4-12.8,4.551-6.2,8.15-10.351,1.7-2,2.9,0a19.5,19.5,0,0,1,2.35,4.55q.4,2.8-3,6.4l-14.7,17.4a23.279,23.279,0,0,0-4.6,7.6,25.307,25.307,0,0,1-3.25,5.9q-1.4,1.65-3.3-1.4a10.264,10.264,0,0,0-4.55-4.2q-2.649-1.249-4.4-1.9-1.749-.7.05-1.551a8.971,8.971,0,0,0,3.2-3,21.285,21.285,0,0,0,2.55-6.449,53.477,53.477,0,0,1,8.9-18.7q6.8-8.3,14.25-7.9.1,0,1.25.05,1.1.051-.8.85a8.664,8.664,0,0,0-2.6,1.551m-31.7,38.549q.1-2,.7-2.35a1.19,1.19,0,0,1,1.2-.049,6.53,6.53,0,0,1,1.65,1.449,2.082,2.082,0,0,1,.35,2.6q-.8,1.4-1.45,1.6-.65.15-.85-.049a3.5,3.5,0,0,1-1.6-3.2m7.4,5.2q-.8,1.1-6.2,8.049l-.15.2a3.184,3.184,0,0,0-.3.349l-.1.151q-1.6,2.949-11.75,15.65-10.2,12.7-11.15,15.449a47.66,47.66,0,0,1-2.15,5.151,47.781,47.781,0,0,1-3.45,5.65q-2.6,3.75-5.9,7.7-3.35,3.951-4.15,4.1t-1.55-.85q-.75-1,.65-6.65a20.944,20.944,0,0,1,4.25-8.9,46.043,46.043,0,0,1,8.45-7.2q5.55-3.95,18.9-22.9,13.35-19,14.1-18.65a2.688,2.688,0,0,1,1.1.851q.351.5-.6,1.85m2.6.4q1.5-.951,3.25.649,1.8,1.6-1.25,2.351-3,.7-3.25-.7a2.06,2.06,0,0,1,1.25-2.3"/></svg>