<svg overflow="visible" width="100%" height="100%" viewBox="0 0 98.321 116.604" xmlns="http://www.w3.org/2000/svg"><path d="M64.911,27.425q-1.4-6.7-2.8-11.5-2.9-10.5-10.7-13.9-6.1-2.7-18.1-1.8a10.8,10.8,0,0,0-7.6,3.6,11.971,11.971,0,0,0-3.4,7.8l-.9,15.8a18.454,18.454,0,0,1-.2,2.15q-.2,1.5-2.05,1.75a15.126,15.126,0,0,0-3.55.5q-1.4,1.1-1.3,7.9l1.7,64.5q.1,2.9-.4,3.4-.4.6-3.2,1l-9.3,1.4q-3.3.6-3.1,3.2.2,2.4,1.8,2.85,1.6.4,11.4.5t24.2-.15q14.4-.251,23.45-.75,9-.5,16.6-1.2,7.551-.75,17.75-2.45a9.47,9.47,0,0,0,2.2-.6,1.772,1.772,0,0,0,.9-1.8q-.1-1.6-2.55-3a10.325,10.325,0,0,0-5.05-1q-4.4,0-5.2-.1-2.4-.1-2.8-.5-.4-.5-.3-3,1.4-25.5-.6-65a15.049,15.049,0,0,0-.9-4.4q-.9-1.7-3.8-1.8-8.7-.6-8.9-.6a3.133,3.133,0,0,1-3.3-2.8m-3.1-1.3q.5,2.6,0,3.2-.5.7-3.4.8l-32.55.9q-1.8,0-1.6-2.95.1-3.949.45-8.15.6-6.9.7-7.9.3-6.1,5.4-8.2,3.6-1.6,10.5-1.3,10.1.3,14.9,7.3,3.4,4.9,5.6,16.3m14.1,7.3q2.9,0,3,3,.1,3.4.9,15.1.5,9.3.6,15.1.1,11.9-.6,35.8a3.33,3.33,0,0,1-.7,2.4,4.113,4.113,0,0,1-2.5.8q-11.15.6-20.25,1.1a97.5,97.5,0,0,1-.6-10.2q-.4-9.049-.25-13.1.1-4.1-1.6-5.05a13.259,13.259,0,0,0-5.35-1.25q-3.549-.3-4.45.6a3.237,3.237,0,0,0-.8,2.6q.3,11,.85,18.4a81.036,81.036,0,0,1,.35,8.65q-8.1.4-14,.65-8.6.45-10.3-.1-1.7-.6-1.8-9.7t-.35-25.25q-.249-16.15-.5-26.8t.45-11.35a3.381,3.381,0,0,1,2.4-.8q6.2,0,27.8-.4,17.1-.3,27.7-.2m-23.9,47.4q.9.9.9,3.7.1,1.9.4,8.85.251,6.95.4,10,.1,2.951.05,3.5-3.6.2-6.9.35a28.068,28.068,0,0,1-.2-2.95q-.1-2.5-.35-12.25v-9.8a1.917,1.917,0,0,1,2-2.2q2.8-.1,3.7.8m36.65,27.65a10.256,10.256,0,0,1,4.5,1.05q2.35,1.05-29.95,2.95-32.349,1.85-51.4,1.7-10.849-.05-6-1.7,4.8-1.65,14.45-1.4t26.05-.85q21.15-1.451,42.35-1.75m-37.95-51.65a15.048,15.048,0,0,0-2.45-4.55,3.459,3.459,0,0,0-3.15-1.25,2.824,2.824,0,0,0-2.45,1.85,15.049,15.049,0,0,0-.85,3.25,28.237,28.237,0,0,0,.3,6.7,12.779,12.779,0,0,0,3.6,8q1.1,1,1.9.6a7.517,7.517,0,0,0,2.15-2.85,15.922,15.922,0,0,0,1.75-5.55,12.6,12.6,0,0,0-.8-6.2m-2.85,1.15a12.521,12.521,0,0,1-.45,8.55q-1.05,2.05-2.35-3.6t.3-8q1.251-1.849,2.5,3.05"/></svg>