<svg overflow="visible" width="100%" height="100%" viewBox="0 0 67.602 115.886" xmlns="http://www.w3.org/2000/svg"><path d="M44.852.486Q35.3-1.265,31.7,3.286t-4,8.1q-.4,3.5-1.65,10.45a71.261,71.261,0,0,0-1.25,8.65l-10.3-6.6q-5.1-3.2-10,.7a10.988,10.988,0,0,0-4.5,9.1,16.573,16.573,0,0,0,3.9,10.1,47.011,47.011,0,0,0,8.2,7.6,23.144,23.144,0,0,1,2.7,2.7,5.038,5.038,0,0,1,.7,4.1q-.5,2.4.25,1.95a8.4,8.4,0,0,0,1.85-1.75q1.1-1.3,2.3.2.6.7,1.65,1.95a2.423,2.423,0,0,1,.2,2.9q-.851,1.7.4,1.3a1.731,1.731,0,0,1,1.8.15q.6.55.4,2.85-.249,2.25-1.25,2.25a2.4,2.4,0,0,0-2.4.9,5.029,5.029,0,0,0-.6,2.5,74.61,74.61,0,0,1-.9,7.9q-.5,2.5,2.4,3.5,1.15.3,2.15.6.5,10.8,1.55,22.1.2,3.6,1.3,5,1.2,1.4,4.6,2a78.467,78.467,0,0,0,13.3,1.4q9.7-.2,10.6-11.9.1-6.7.2-10,.2-5.9,1.6-8.8a11.766,11.766,0,0,0-.15-6.2,26.14,26.14,0,0,0-3-6.35,10.169,10.169,0,0,0-.7-.95,14.325,14.325,0,0,0,.75-2.6q.6-3.1,2.25-3.7,1.65-.649,2.3-.95a9.977,9.977,0,0,0,2.25-1.65q1.6-1.4-1.5-.55t-3.5-.05q-.4-.9.3-4.45a14.837,14.837,0,0,0,.4-3.1q.6-.4,3.7-3,4.2-3.6,2.4-3L57,51.086l2.6-17.4a3.841,3.841,0,0,1,3.4-3.7,28.02,28.02,0,0,0,4.15-1q1.2-.45-.8-.75a20.468,20.468,0,0,0-2.75-.35q-.75-.049-3.4-.1,0-10.9.1-12.2a1.373,1.373,0,0,1,0-1.05q.2-.3,3.95-3.6,3.75-3.35,1.95-3a15.048,15.048,0,0,0-4.5,1.95q-2.9,1.8-4.3-1.2-3-6.5-12.55-8.2m-6.8,8.9a9.783,9.783,0,0,0,1.25,2q.7.851,1.25.75.55-.15-.2-2.85a40.069,40.069,0,0,1-1.25-5.3q-.249-1.85,3.1-1.2,14.9,1.5,14.9,16.8a136.765,136.765,0,0,1-2.1,24.9q-3.4,21.3-3.8,24.8-.3,3-2.6,2.9-12.9-1-16.8-1.25t-4.5-1.1a7.982,7.982,0,0,1-.7-3.75,17.76,17.76,0,0,1,.65-5.75q.8-2.85.3-2.9a3.3,3.3,0,0,0-1.9.8q-1.35.9-3.95-1.6-2.6-2.55-1.5-4.25.5-1.2.7-1.8a3.066,3.066,0,0,0,0-1.9q-.3-.851-.7-.35t-1.6,2.15a2.45,2.45,0,0,1-1.9,1.4l-6.1-5.7q-2.4-1.9-1.1-3.4a5.449,5.449,0,0,0,1.35-2.5q.1-.95-.45-.8a3.232,3.232,0,0,0-1.65.7,8.279,8.279,0,0,0-1.65,2.2q-3.6-4.1-4.1-6.9a8.677,8.677,0,0,1,1.3-6.1q2.7-5.2,8.7-3a26.123,26.123,0,0,1,8.8,6.2q2.5,2.3,4.1,1.8,1.6-.6,1.9-3.8l1.3-13.65q1.75,2.5,2.3,2.15.45-1.249-.55-4.05a7.642,7.642,0,0,1-.05-5.5,14.434,14.434,0,0,1,4.6-5.6l2.65,5.45M23.4,73.686q.5-.4,3.1-.2l17.1,1.1q2.7.251,7.75.35,1.65-.1,2.1,1.75.4,1.8.8,3.55a7.122,7.122,0,0,1,.1,2.6q-.249.851-3.35.95-8.1.3-12.1.4a56.321,56.321,0,0,1-12-.9q-3.8-1-4.4-1.8-.5-.9,0-4.9.4-2.5.9-2.9m3,12.4,1.6.4a26.718,26.718,0,0,0,6.7.5q2.3-.1,7.7-.1,4.9.1,7.6-.1a3.8,3.8,0,0,1,2.6.5,3.013,3.013,0,0,1,.5,2.5q-.8,10.7-1,15.8a8,8,0,0,1-2.2,5.4,6.528,6.528,0,0,1-5.3,2.1q-2.3-.1-13.3-1.6-3-.4-3.5-7.7-.55-7.3-1.15-15.15-.1-1.6-.25-2.55m20.9-25.1q-3.3,3,.6,1.2a10.755,10.755,0,0,0,3.7-2.4q.6-1.249-.8-1a7.316,7.316,0,0,0-3.5,2.2m-10.5-8.9q.95.551,1.1.2a13.257,13.257,0,0,0-1.5-4.9q-.35-.551-1.4.6a1.831,1.831,0,0,0-.6,1.9,2.593,2.593,0,0,0,.8,1.05,9.054,9.054,0,0,0,1.6,1.15m8.6-16.6-2.6-4.5q-1.4-2-1.1.4a44.076,44.076,0,0,0,1.1,5q.2.5,1.7.5,1.249.049.9-1.4m8.4-15.1q.3-1.35-1-1.1a6.747,6.747,0,0,0-2.9,1.4,12.162,12.162,0,0,0-3.3,3.4q-1,1.6-.2,1.5,6.6-2.8,7.4-5.2"/></svg>