<svg overflow="visible" width="100%" height="100%" viewBox="0 0 116.437 69.796" xmlns="http://www.w3.org/2000/svg"><path d="M94.287,3.051q-1.8-.949-5.1-2.3-3.3-1.3-19.1-.35a121.907,121.907,0,0,0-33.35,7.15,8.331,8.331,0,0,1-1.4.4q-.7,0-1-1-.7-3.3-3.4-2.7-4,1-4.8,2.1a9.462,9.462,0,0,1-6.6,4.5q-5,1.6-9.9,7.2-8,8.9-8.3,9.2a3.293,3.293,0,0,0-1.1,3.9,5.131,5.131,0,0,0,3.4,3.1,19.781,19.781,0,0,0,9.35,1.15q4.8-.6,16.75-2.8,2.651-.5,4.3-.8-.2,1.9-.45,4.7-.95,9.649-1.65,13.55a43.833,43.833,0,0,1-4.4,13.1q-1,1.9,1.1,3.9,9.4,8.3,18.5-8.5,1.7-3,5.4-11.7,1-2.5,3.4-1.6,13.6,4.5,23.1-.6a55.933,55.933,0,0,1,5.5-2.5q2,3.4,5.6,9.6a4.856,4.856,0,0,1,1,2.5,3.95,3.95,0,0,1-1.3,2.5q-1.9,2-1.2,3.6.6,1.6,3.3,1.9a62.206,62.206,0,0,0,10.8.7,23.711,23.711,0,0,0,10.4-3q3.3-1.4,3.3-5.6,0-18.9-1.5-26-3.2-14.1-14.2-20.7a51.784,51.784,0,0,0-6.45-4.6m6.65,8.2a32.464,32.464,0,0,1,5.2,4.4,35.619,35.619,0,0,1,7.1,20.7l.1,16.4q-.1,3.3-.6,4.1-.6.8-3.7,2a22.374,22.374,0,0,1-8.4,1.2q-5.8-.4-8.9-.4,2.9-3.7,2.9-4.9.1-1.2-2.5-4.9-3.6-4.6-4-8.1-.6-4.3,3.3-8a15.59,15.59,0,0,0,1.7-1.95q.55-.9-.05-1.4a1.4,1.4,0,0,0-1.15-.4,1.319,1.319,0,0,0-.8.25l-5.1,6a6.819,6.819,0,0,1-1.9,2.7q-11.2,6.8-21.7,5.1a69.2,69.2,0,0,1-7.1-2.1q-.4-.1-.7-.8a1.606,1.606,0,0,1-.3-1.1q.4-1.7.6-2.6.2-1.5-.9-1.7a1.579,1.579,0,0,0-2,1.2,22.189,22.189,0,0,0-.4,2.7,42.2,42.2,0,0,1-3.3,10.1q-.2.4-4.6,9.6-6.2,10.3-11.9,6.4-1.8-1.1-1-2.7a74.4,74.4,0,0,0,6-27.4q.1-4.25.05-7.3a20.048,20.048,0,0,1-2.65.55q-1.7.251-8.45,1.55-6.7,1.249-12.15,1.8-5.5.5-7.2-1-1.7-1.55-.5-4.5,7.6-10.1,16.1-13.6l2.9-1.3a5.012,5.012,0,0,0,2.2-2.2q1.6-2.9,4.3-2.3a2.461,2.461,0,0,1-.4,1q-.7,1.1-.9,1.5a1.465,1.465,0,0,0,.6,1.5q1.5.9,5-.5,4.751-1.2,13.45-3.75a106.04,106.04,0,0,1,18.15-3.6,105.614,105.614,0,0,1,14.2-.95,22.23,22.23,0,0,1,9.9,2.95,106.877,106.877,0,0,1,9.5,5.75m-84.1,7.45a1.412,1.412,0,0,0-1.1,1.55q.05.949,1.5.9a1.5,1.5,0,0,0,.95-1.55q0-1.249-1.35-.9"/></svg>