<svg overflow="visible" width="100%" height="100%" viewBox="0 0 115.689 67.722" xmlns="http://www.w3.org/2000/svg"><path d="M11.653,6.608q-1.8-1.1-5.7.6-2.6,1.2-2.8,4.7-.2,3.4-.8,16.05a153.741,153.741,0,0,1-1.5,17.5,41.5,41.5,0,0,0-.85,7.8q.049,2.85.4,6.2t1.149,4.15q.7.7,3.3,1,10.8,1.3,26.8,1.9,8.9.3,26.7.65,33.9.651,40.7.55a67.858,67.858,0,0,0,12.2-1.9,6.236,6.236,0,0,0,3.7-1.9,6.49,6.49,0,0,0,.7-4.1q-.4-10.3-.9-20.5a87.463,87.463,0,0,1,.3-10.55,77.415,77.415,0,0,0,.3-9.75,5.261,5.261,0,0,0-1-3.3,2.98,2.98,0,0,0-2.5-1.4,28.174,28.174,0,0,0-6.2-.1q-4.1.7-4.1,4.4a31.652,31.652,0,0,1-1,5,3.468,3.468,0,0,1-4,2.3,2.782,2.782,0,0,1-3.149-2.95,55.2,55.2,0,0,0-.55-5.85,5.487,5.487,0,0,0-1.1-3.4,6.045,6.045,0,0,0-3.5-1.2q-8.3-.2-9.3.3-2.4,1.2-3,8.3a3.08,3.08,0,0,1-1.3,2.4,8.069,8.069,0,0,1-2.4.7,2.382,2.382,0,0,1-2.9-2.2q-.2-3.2-.3-4.4-.6-12.7-.6-12.8-.3-2.8-1.5-3.8-1.2-1.1-4-1-7.2.4-10.9.9a4.829,4.829,0,0,0-3.2,1.1,5.16,5.16,0,0,0-1.2,3.2q-.6,5.6-.8,16.8,0,3.3-2.9,2.85-3.4-.549-5.5-.85a9.71,9.71,0,0,1-2.4-.5q-.3-.2-.1-3.25a61.016,61.016,0,0,0,.2-9.55q-.4-5-6.1-2.9a33.4,33.4,0,0,1-4.3,1.3q-3.7.7-4,4.8-.2,3-.6,8.9a2.027,2.027,0,0,1-1.4,2.3q-.3.1-2.9.4-3.4.3-3.3-3.2.1-3.4-.1-10.4-.1-4.2-1.8-5.3M5.3,15.858q-.148-4.749,2.351-6.35,2.7-1.8,3,1.4.3,3.6.5,10.8.2,5.2,1,6,.9.8,6.1.6,3.4-.1,4.4-1.1,1-.9,1.4-4.4,0-7.6.6-9.1.8-1.7,7.8-3.65,1.35-.5.4,11.85,0,2.9.5,3.6.6.7,3.5,1.2,5.2.8,7.8,1,2.6.3,3.5-.5t1.1-3.6l.9-16.2a4.657,4.657,0,0,1,.8-2.8,3.374,3.374,0,0,1,2.6-1q2.6-.1,7.9-.8,2.7-.2,3.5.5t.9,3.5q.4,9.2.8,13.8.4,5.3,3.5,6.4a6.475,6.475,0,0,0,5.9-.9,6.187,6.187,0,0,0,2.8-5.1q.2-4.5.8-5.1.6-.5,5.5-.4,3.5.1,4.1.5.6.5.8,3.7.3,1.8.8,5.7a3.972,3.972,0,0,0,4,3.1q4.7.4,6.6-.7,2.5-1.4,2.4-5.8.05-4.6,3.9-4.55a19.166,19.166,0,0,1,4.15.2,6.306,6.306,0,0,1,.649,2.6,17.8,17.8,0,0,1,.051,4.4q-.25,2.05-.551,3.45-.3,1.35-.1,17.65t-.1,15.75q-8.8-2.6-13.3-3.7a158.835,158.835,0,0,0-39.6-5q-19.35.1-26.5.65-7.2.551-17.6,4.3t-11,2a13.411,13.411,0,0,1-.65-3.95,42.19,42.19,0,0,1,.55-6.4q1-7.2,1.4-16.9.3-11.3.149-16.65m5.8,47.05q-1.751-.65.65-1.4,3.8-1.2,12.3-3.7a65.163,65.163,0,0,1,13.851-2.1q6.35-.2,14.9-.25t19.651.95q7.8.8,20.1,2.8a61.279,61.279,0,0,1,14.351,4.35q.949.851-5.15,1.25l-46.6-.7q-24.4-.8-36.75-.8a67.778,67.778,0,0,1-7.3-.4m50.65-48.2a7.1,7.1,0,0,0-2.25-1.7,3.919,3.919,0,0,0-1.85-.25,3.712,3.712,0,0,0-1.75.5,8.572,8.572,0,0,0-2.15,2.3q-1.35,1.8-.85,5.1a6.437,6.437,0,0,0,2.2,4.5,6.912,6.912,0,0,0,3.05,1.4q1.249.1,3.35-3.05,2.1-3.2,1.9-5.3a5.592,5.592,0,0,0-1.65-3.5m-2.75.95a9.411,9.411,0,0,1,1.15,1.7,3.231,3.231,0,0,1-.15,3.05,4.293,4.293,0,0,1-1.75,2.1q-.85.351-2.05-.9-1.251-1.3-.4-3.6.8-2.349,1.8-2.55a1.519,1.519,0,0,1,1.4.2"/></svg>