<svg overflow="visible" width="100%" height="100%" viewBox="0 0 114.255 68.952" xmlns="http://www.w3.org/2000/svg"><path d="M48.43,2.814q-11.3-.2-16.9.3-9.6.8-15.7,5.4-3.5,2.7-4.45,3.65-1,.9-1.5,1.3-.551.4-2.3,5.35-1.75,4.9-2.85,15.5a74.922,74.922,0,0,1-2.8,14.7,39.968,39.968,0,0,0-1.9,8.7,10.839,10.839,0,0,0,2.4,8.1,3.535,3.535,0,0,0,2.9,1.6,3.055,3.055,0,0,0,2.45-2,4.333,4.333,0,0,1,2.65-2.4,43.555,43.555,0,0,1,9.4-1l58.7,1.1a2.957,2.957,0,0,1,2.7,2.1q1.3,3.3,5.5,3.7a7.727,7.727,0,0,0,7.2-3.45,11.739,11.739,0,0,1,7.25-4.75,15.519,15.519,0,0,1,7.45,0q3,.951,4.4-1.15,1.4-2.149,1.2-8.45v-22.3q-.3-20.6-.4-24.8,0-2.8-.7-3.5-.8-.6-3.7-.5l-61,2.8m-28.3,6.15a14.28,14.28,0,0,1,6.3-2.25q8.7-.7,10.4-.7,13.3.4,34.1-.9,27.4-1.6,34.1-1.8-7.1,3.4-8.1,3.8a25.309,25.309,0,0,1-8.2,2q-33.3,2.3-55.15,4.2-21.9,1.9-19.2-.25a49.5,49.5,0,0,1,5.75-4.1M9.83,19.414a1.943,1.943,0,0,1,1.15-1.9q1-.45,26.9-2.05t39.95-2.7q14-1.149,14.5,2.35.1.5.6,3.1a15.7,15.7,0,0,1,.4,3.1l-.5,34.2q-.4,3.5-1.2,4.2-.8.8-4.3.7l-36.3-.3q-20.7-.2-28.05-.45a136.96,136.96,0,0,0-17.05.65q-2.2.1-2.7-.4-.6-.6-.2-2.6,1.6-6.7,2.3-10.1,1.6-9.2,2.4-13.8,1.5-8.3,2.1-14m85-7.4a3.658,3.658,0,0,1,1.7-1.3l14.2-6.7q.5,8.9.4,23.2,0,18.4.1,23.1a14.515,14.515,0,0,1-.3,4.2q-.5.7-4.2,1.9l-11,3.5v-18.2q0-.3.5-13.9a39.177,39.177,0,0,0-1.3-13.6,3.619,3.619,0,0,1-.1-2.2m16.45,45.05a1.239,1.239,0,0,1-.05,1.75q-.75.951-2.3.2t.05-1.75q1.55-1.05,2.3-.2m-27.7,7q.1-.45,1.55-.6a41.987,41.987,0,0,1,4.85-.05q3.349.051.8,1.95t-4.5,1.05a6.59,6.59,0,0,1-2.4-1.4.985.985,0,0,1-.3-.95m-79.9-1.45a2.547,2.547,0,0,1,2.2,0q1.1.45.1,2.1t-2.2,0q-1.2-1.65-.1-2.1m21.65-42.8q-5.9.2-7.7,3.5-3,5.5-1.1,8.9,2,3.4,8.2,3.6,18.15.15,36.6.6,11.85.3,15.5.1t5.8-4.3q2.1-4.1,1.9-10.9-.1-2.4-.9-3.1-.9-.8-3.4-.7l-54.9,2.3m-4.8,4q.9-.9,4.9-1.1.6,0,38.6-1.8,5-.2,14.9-.6,2.1-.1,2.7.5.5.5.3,2.5a20.629,20.629,0,0,1-.8,4.4q-1,3.9-2.6,5.1-1.5,1.1-5.7,1.1-27.85.15-48.1-1.1a22.736,22.736,0,0,1-4.1-.8,2.674,2.674,0,0,1-1.7-3.3q.7-4.1,1.6-4.9m26.5,3.45q-2.9-.15-3.25,1.2a1.388,1.388,0,0,0,.65,1.85,8.815,8.815,0,0,0,3.15.65,5.619,5.619,0,0,0,3.3-.55q1.15-.7.85-1.45a2.205,2.205,0,0,0-1.05-1.15,11.146,11.146,0,0,0-3.65-.55m-28.1,10.15a6.528,6.528,0,0,0-3.5.8,4.037,4.037,0,0,0-1.5,2.8,105.56,105.56,0,0,0-1.9,10.7q-.5,3,.55,3.85a11.437,11.437,0,0,0,4.4,1.6,45.236,45.236,0,0,0,9.3.75q5.85,0,50.55-.3a8.111,8.111,0,0,0,5.3-1.7q1.8-1.6,2.75-5.5a41.146,41.146,0,0,0,1.15-6.95,3.72,3.72,0,0,0-2.4-4.1q-2.6-1.05-10.7-1.15l-54-.8m64.05,7.2q-.551,2.4-1.05,5.7a5.117,5.117,0,0,1-1.4,3.2,5.9,5.9,0,0,1-3.5,1l-11.5.1q-4.6,0-20.7.6-16.1.551-22.2-.35-6.2-.649-7-1.85-.7-1.2,0-5.2.4-2.6.6-3.9a4.858,4.858,0,0,1,1.2-3,5.406,5.406,0,0,1,3.2-.7q1.3,0,4.95.05l47.25.35q1.6.1,5.2.2a10.048,10.048,0,0,1,4.3.7q1.15.651.65,3.1m-30.6,2.9a2.212,2.212,0,0,0-1.75-1.15,11.428,11.428,0,0,0-2.3-.3,2.294,2.294,0,0,0-1.65.75,1.417,1.417,0,0,0-.25,1.85,2.122,2.122,0,0,0,2,1.15q1.4,0,2.15-.05a2.651,2.651,0,0,0,1.45-.75,1.263,1.263,0,0,0,.35-1.5"/></svg>