<svg overflow="visible" width="100%" height="100%" viewBox="0 0 97.247 115.39" xmlns="http://www.w3.org/2000/svg"><path d="M21.962,6.967q-4.35.65-6.05,2.05a43.736,43.736,0,0,0-3.95,3.8,11.605,11.605,0,0,0-3.15,10.1,6.287,6.287,0,0,0,1.1,3.3,4.618,4.618,0,0,0,3.1,1q4.25.3,7.55.2,3.3-.15,10.4-.5,5.25-.3,4.35-5.3-1.1-6.8-4.8-10.7-4.2-4.6-8.55-3.95m-10.55,14.75q-.2-3.2,2.9-7.1t6.3-4.4q6.6-1,9.5,4.6,3.6,7.7,1.8,9-.8.5-9.8.5l-7.9.1a2.547,2.547,0,0,1-2.8-2.7m41.9,1.7a6.9,6.9,0,0,1,1.6,4.9,11,11,0,0,1-1.3,4q-.6,1.3-1.6,3.75a1.191,1.191,0,0,0,.3,1.55q.7.5,1.6-.4a14.294,14.294,0,0,0,2.6-3.4,11.889,11.889,0,0,1,11.3-7q1.149.15-.45,4.8a49.129,49.129,0,0,0-1.95,6.25q-.3,1.6,1,1.75,1.35.2,3.45-2.9a33.579,33.579,0,0,1,2.65-3.7,2.758,2.758,0,0,1,1.1-.8,2.468,2.468,0,0,1,1.3-.2,5.2,5.2,0,0,1,3.6,2.4,5.635,5.635,0,0,1,.8,4.2,13.348,13.348,0,0,0-.5,2.4,2.444,2.444,0,0,0,.6,2.2q.9.5,2.5-.45,1.549-.951,5.7-3.15,3.2-1.7,5.5.3,1.4,1.1.9,5-.6,5.4-2.4,15.2a50.337,50.337,0,0,0-1.2,14.2q.2,4.8.55,14.4.15,4.6-3.35,12.4-3.7,8.1-3.85,10.75t1.25,3.35q1.549.8,1.45-2.1a17.06,17.06,0,0,1,1.75-7.3q2.5-5,3.7-7.5a24.211,24.211,0,0,0,2-13q-1.4-14.7.3-22.7.9-4.4,2.9-18.1.9-6.8-4.2-8-3.6-.9-8.85,1.2-1.1.45-1.45-.5-2.25-9.15-11.1-8.1-.651.15-.8-2.85-.2-3.051-3.1-3.05-1.6,0-6.2,2.1a4.259,4.259,0,0,1-2.6.6,3.285,3.285,0,0,1-2-2.1q-2-5.4-7.3-3.5a37.985,37.985,0,0,0-8.7,5.1,31.537,31.537,0,0,0-.5-15.3q-2.5-6.8-8.3-7.7-1.2-.2-3.1-.7-2.8-.8-3.1-.9-8.9-2.1-14.7,1.2-5.85,3.249-7.8,8.1t-2.65,7.2a19.038,19.038,0,0,0-.65,6.2q.1,1.4.7,18.6.5,11.2,1.3,18.5,1.1,7.5,4.3,22.3a28.74,28.74,0,0,1,.7,10.8l-1,10.8q-.2,2.1,1.2,1.8,1.85-.15,2.1-4,.2-3.9.5-7.1a53.074,53.074,0,0,0,.1-9.7q-1.7-9.8-3.4-16.9a104.643,104.643,0,0,1-2.9-27.6,37.995,37.995,0,0,0-.15-5.35q-.251-2.2-.35-4.35-1.1-16.7,4.8-23.4,6.7-7.6,22.8-2.9a9.551,9.551,0,0,1,7.5,7.8q.7,3.4-.2,11.7-.1,1.2-.4,3.6a6.753,6.753,0,0,1-1.6,3.4,2.392,2.392,0,0,0-.1,2.6q.7,1.6,1.9,1.7,1.3.1,1.6-.9a12.547,12.547,0,0,1,.4-1.9q2-5.9,9-9.3a24,24,0,0,1,2.4-1,1.934,1.934,0,0,1,2.1.7"/></svg>