<svg overflow="visible" width="100%" height="100%" viewBox="0 0 60.9 115.158" xmlns="http://www.w3.org/2000/svg"><path d="M38.9,1.536a1.693,1.693,0,0,0-.7-.8,7.717,7.717,0,0,0-3.8-.7q-12.4,1.4-18.6,2.4a4.981,4.981,0,0,0-3.1,1.3,5.243,5.243,0,0,0-1,3.3,68.055,68.055,0,0,0,.4,7.4l1.6,16.8a3.012,3.012,0,0,1-.5,2.2,3.249,3.249,0,0,1-2.1,1q-5.8,1.2-8.4,4.3-2.5,3.1-2.7,9.1v10q-.015,8.9.7,17.8,1.1,15.7,4.2,25.8a14.924,14.924,0,0,0,1.7,4,4.946,4.946,0,0,0,3.45,2.1q2.134.291,1.55,3.15t1.65,3.35q2.277.486,3.8-2.1,1.57-2.525,1.95.05.42,2.577,2.25,3.05a2.353,2.353,0,0,0,2.9-1.25,4.3,4.3,0,0,0,.65-3.45q-.4-1.6,2.1-1.8,5.4-.3,6.4-.4a3.568,3.568,0,0,1,4.1,2.3,5.694,5.694,0,0,0,3.1,3.05q2.037.76,3.3-1.95,1.322-2.71,2.9-2.5a2.317,2.317,0,0,1,2,1.65,8.729,8.729,0,0,0,1.05,2.15q.612.862,3.05.45t2.15-3.85q-.243-3.4,1.35-5.1,4.1-4.3,4.1-8.2.5-12.7.5-19a64.979,64.979,0,0,0-2.6-18.9q-1.6-6.2-2.4-9.3a39,39,0,0,0-3.5-9q-3.3-5.6-8.7-5.3a3.009,3.009,0,0,1-2.5-.5,3.82,3.82,0,0,1-.8-2.5l-1.1-29a2.027,2.027,0,0,0-.4-1.1m-21.7,7.3q4.8-.4,14.3-1.3,2.4-.1,3.1.6t.9,3.4l1.6,20.2a4.4,4.4,0,0,1-.2,2.6q-.4.4-2.7.5l-14.9-.2a2.323,2.323,0,0,1-2.6-2.2q-.5-6.9-1.9-20.7a2.476,2.476,0,0,1,2.4-2.9m27,28.9a6.083,6.083,0,0,1,5.5,3.4,47.25,47.25,0,0,1,5,13.9q1,4.7,2.9,14.1a53.163,53.163,0,0,1,.6,14.3q-.5,10.1-.7,11.9-.7,8.6-9.5,9.1-7.8.5-11.6.7-6.9.3-11.6.4-2.7,0-6.7-.4-5.8-.5-6.6-.6a3.271,3.271,0,0,1-2.5-1.1,5.9,5.9,0,0,1-1.3-2.6,117.894,117.894,0,0,1-3.8-20.4q-.4-5.9-.65-9.8t-.6-11.1q-.344-7.2-.45-11.95a9.424,9.424,0,0,1,3.7-7.85,10.6,10.6,0,0,1,8.8-2.2,107.456,107.456,0,0,0,19.2.6,22.772,22.772,0,0,0,2.55-.15q1.366-.11,2.6-.15t2.55-.15a22.3,22.3,0,0,1,2.6.05m-12.8,7.3a40.157,40.157,0,0,0-6.9.5,4.264,4.264,0,0,0-2.7,2,4.565,4.565,0,0,0-.7,3.3q.4,2.8,3.9,3a44.944,44.944,0,0,0,6.4,0,4.416,4.416,0,0,0,3.1-1.7,5.058,5.058,0,0,0,.9-3.6,3.575,3.575,0,0,0-1.2-2.5,4,4,0,0,0-2.8-1m-4.9,2.7a23.636,23.636,0,0,1,4.35-.25,1.429,1.429,0,0,1,1.55,1.75q.039,1.394-1.55,1.7-1.553.3-3.15.45a7.748,7.748,0,0,1-2.6-.1q-.953-.257-1.15-1.75-.151-1.44,2.55-1.8"/></svg>