<svg overflow="visible" width="100%" height="100%" viewBox="0 0 115.139 77.876" xmlns="http://www.w3.org/2000/svg"><path d="M84.227,9.169q-3.1-5.7-3.6-6.5-1.3-2.3-2.2-2.6a5.526,5.526,0,0,0-3.3.7q-12.2,5.1-18.2,7.8a147.645,147.645,0,0,0-17.7,9.1q-.5.351-2.5,1.9-1.1.851-1.1,0a3.306,3.306,0,0,0-.15-.95,2.237,2.237,0,0,0-.95-1.05q-.85-.6-1.85.65-1,1.2-1.35.95a4.67,4.67,0,0,1-.9-1q-.55-.75-2-.45-1.5.3-.3,2.9,1.2,2.55-2.45,8.5t-11.75,20.15q-1.9,3.4-5.5,10.2a37.27,37.27,0,0,1-7.3,9.2,2.9,2.9,0,0,0-1.1,2.6q.2,1.5,2.1,1.7a32.945,32.945,0,0,0,3.5.1l25.8.6q16,.4,24,3a19.2,19.2,0,0,0,6,1.2,10.362,10.362,0,0,0,5.45-2.05q23.25-16.85,35.25-24.45,6.1-3.4,9.1-5.1,3.7-2,3.9-3.3t-2.8-4.1q-8.6-7.3-12.8-11a67.543,67.543,0,0,1-11.5-12.3q-1.6-2.4-3.8-6.4m-6.9-5.7q.5.2,1.6,2.2,6.3,13.6,15.7,21.4,4.1,3.4,14.8,13.2,1.9,1.6,1.8,2.2-.1.5-2.4,1.9l-3.4,2a248.7,248.7,0,0,0-30,18.4q-4.8,3.5-10.7,7.2-2.2,1.5-2.9,1.4t-2.3-2.1q-6.1-7.5-9.6-12.6a131.518,131.518,0,0,1-8.5-14.6q-4.8-10.1-6.3-13.4a36.216,36.216,0,0,1-1.8-4.3q-.3-1,5.3-4.7,1.6-1.2,2.2-1.6a177.151,177.151,0,0,1,16.5-8.5q2.2-1,17.1-7.4,2.2-1,2.9-.7m-45,28.4q9.7,19,11.4,21.9a96.932,96.932,0,0,0,14.6,20q-8.3-1.3-12.3-1.8a77.923,77.923,0,0,0-12.3-.9q-2.6,0-3.1-.5t-.5-3.1a278.868,278.868,0,0,1,2.2-35.6m-6,38.5q-.2.1-6.7.1-9.9-.3-15.6-.4a142.071,142.071,0,0,0,13.3-21.1q8.3-15.4,12.2-21.2-1,11.9-1.9,35.2-.3,6.7-1.3,7.4"/></svg>