<svg overflow="visible" width="100%" height="100%" viewBox="0 0 115.856 67.264" xmlns="http://www.w3.org/2000/svg"><path d="M44.153,19.2q1.65-1.15,1.5-2.1-.3-1.3-2.05-1.15a6.811,6.811,0,0,0-2.65.65,3.456,3.456,0,0,0-1.7,2,2.055,2.055,0,0,0,.1,2.1q1,1.1,2,.5a31.687,31.687,0,0,1,2.8-2m9.9,2.7q-.2-.9-.6-1.1-1.8-.8-4.5.7t-2.9,2.7a4.277,4.277,0,0,0,0,1.85,2.6,2.6,0,0,0,1.3,1.35q1.55.6,4.3-2,2.7-2.6,2.4-3.5m-33.6,14.8a1.668,1.668,0,0,0,1.3.75,8.631,8.631,0,0,0,3.1-1.05,4.2,4.2,0,0,0,2.25-1.75q.3-.649-.65-1.45a4.113,4.113,0,0,0-3.5-.1q-2.3.7-2.8,2a1.553,1.553,0,0,0,.3,1.6m-12.7-3.2a1.277,1.277,0,0,0,1.15-.05,4.8,4.8,0,0,0,1.95-1.25q1-1.2-2.55-2.55-2.349-1-2.2.6a4.056,4.056,0,0,0,.75,2.25,4.623,4.623,0,0,0,.9,1M82.7,15.05q-.049-1.5-2.25-1.15-2.2.3-5.55,1l.8-.2q-1,.2-1.55.3-3.3.6-4.2.8-.95.15-.95.8a1.245,1.245,0,0,0,.65,1.1,5.266,5.266,0,0,0,3,.35,33.124,33.124,0,0,0,5-.75,35.548,35.548,0,0,1,3.55-.45,1.623,1.623,0,0,0,1.5-1.8m4.5,9.85q5.1,2.05,6.95.7.8-.5,0-1.15t-6.4-2.2q-5.6-1.55-10.8-3.05-3.549-.551-3.8,2a1.527,1.527,0,0,0,.8,1.05q.75.5,4.45.55a24.085,24.085,0,0,1,8.8,2.1M76.153,10.6q-4.3.3-6.65.65a7.129,7.129,0,0,0-3.2,1q-.8.649-.55,1.15a2.409,2.409,0,0,0,1.15,1.15,2.917,2.917,0,0,0,1.9.2q1.15-.25,9.2-1.55.75-.349.4-1.5-.35-1.2-2.25-1.1m33.7-2.1q2.95-.551,2.6-1.7-1.1-1.7-6.1-1.35a58.926,58.926,0,0,1-10.5-.25,50.883,50.883,0,0,1-14.5-3.4q-8.1-3.3-19.7-.55-11.6,2.7-18.15,4.8-6.55,2.051-7,3.05a21.706,21.706,0,0,0-.8,2.05,12.273,12.273,0,0,1-2.3,3.3,50.655,50.655,0,0,1-6.15,5.65q-3.3,3-9.3,3.4-6.8-.1-10.2.2a7.99,7.99,0,0,0-6.1,3.5,7.647,7.647,0,0,0-1.4,6.7q3.3,12.2,4,14.2,2,5.5,10.2,7.2a81.051,81.051,0,0,0,13.5,1.3q4.4.4,10-3.2,6.7-4.3,9.7-4.9,8.6-2.8,21.7,1.2a28.294,28.294,0,0,0,10.9,1.1q3.6-.2,12.25-.3a57.336,57.336,0,0,1,6.35.05c-.2.033-.25.067-.15.1a19.075,19.075,0,0,1-2.75,1.1A63.349,63.349,0,0,1,85.3,53.6q-7.8.9-10.55,2.8Q72,58.25,72.1,59.55a2.429,2.429,0,0,0,1.25,2.05,1.284,1.284,0,0,0,1.65,0,6.318,6.318,0,0,1,2.5-1.05q1.65-.45.8,1.75a6.14,6.14,0,0,0-.65,3q.3,1.2,2.15.6a3.852,3.852,0,0,1,2.85-.1A19,19,0,0,1,84.7,67q1.05.65,3.75-.3a11.764,11.764,0,0,1,6.05-.35,7.426,7.426,0,0,0,5.65-1.05q6.2-4.9,9.5-7.1a12.182,12.182,0,0,0,5.3-7.3,25.237,25.237,0,0,0,.9-6.2q.05-3.45-.85-4-.949-.65-1.55,1.45a30.418,30.418,0,0,0-.8,6.55q-.6,4-2.9,5.7l-8.5,6.8a15.847,15.847,0,0,1-3.7,2.2,5.942,5.942,0,0,1-4.4-.3q-1.2-.5-3.95.55a11.776,11.776,0,0,1-6.05.45q-3.3-.6-2.3-2a2.045,2.045,0,0,0,.05-2.65,1.966,1.966,0,0,0-2.55-.6,6.653,6.653,0,0,1-3.25.45q-1.55-.25,1.3-2a12.054,12.054,0,0,1,7.2-1.6,37.008,37.008,0,0,0,8.9-.7,38.035,38.035,0,0,0,7.95-2.4,13.3,13.3,0,0,0,4.4-2.75q.951-1.2-10.1-1.8-12.1-.65-14.4-.25-6.9,1-16.7-3.5,2.8-1.1,3.1-1.2,7.7-1.8,11.8-9.8a7.557,7.557,0,0,0,1.1-1.6,1.179,1.179,0,0,0-.6-1.7,1.337,1.337,0,0,0-1.8.2,8.415,8.415,0,0,0-1,1.7q-3.6,6.8-11.9,9-9.8,3.1-14.7,4.3-9.3,2.3-14.4,6.3a8.731,8.731,0,0,1-5.3,2.1,52.346,52.346,0,0,1-21.4-3.4q-1.1-.4-2.05-2.75a3.508,3.508,0,0,1,.4-3.9q1.35-1.549,2.95.15a22.824,22.824,0,0,0,3.2,2.85A1.625,1.625,0,0,0,15.7,46q1.05-1.751,1.7-1.65t1.1,1.2a15.343,15.343,0,0,0,1.55,2.55q1.05,1.4,1.95-.45.851-1.9,1.85-2.1.9-.2,2.35,1.55,1.4,1.7,2.2.55a5.756,5.756,0,0,0,.95-2.15,2.557,2.557,0,0,1,1.2-1.7q1-.65,1.8.85a5.13,5.13,0,0,0,1.8,2.15q1.05.65,2.05-.5a7.737,7.737,0,0,0,1.45-2.6,5.275,5.275,0,0,1,1.2-2.15q.75-.8,2.1,1,1.35,1.751,2.3,1.75a2.667,2.667,0,0,0,1.85-1.15,5.135,5.135,0,0,0,1.05-2.75q.1-1.65.95-1.85.8-.25,2.2,1.4,1.9,2.15,2.85.6a4.686,4.686,0,0,0,.75-3.1,3.318,3.318,0,0,1,1.25-3,11.211,11.211,0,0,1,3-2.15q1.5-.7.8-1.6-1-.9-3.3.4-17.1,10.9-42.3,9.7-2,0-2.75-.05-.8-.05-2.7,0a2.4,2.4,0,0,1-2.5-1.6q-.649-1.65-.85-2.35a24.218,24.218,0,0,1-.35-3.65,7.3,7.3,0,0,1,.95-4.55,4.591,4.591,0,0,1,4-2h8.5q5.2.5,10.6-3.2a74.1,74.1,0,0,0,8.7-7.4,12.392,12.392,0,0,0,2.1-3q.7-1.4,1.15-2.35.1-.3,1.6-1a53.912,53.912,0,0,1,8.35-2.5Q56.053,5.4,64.4,3.6A28.25,28.25,0,0,1,80.6,4.65Q88.5,7.5,91.8,7.5a20.8,20.8,0,0,1,4.2.25q.9.2,2,.45,1.05.2,4.95.55a27.013,27.013,0,0,0,6.9-.25M14.9,43.95a1.917,1.917,0,0,1-.35,1.55q-.551.6-1.6-.7-1.1-1.4.35-1.55,1.4-.2,1.6.7m6.85,1q-.851,1.7-1.15,1.2-.3-.55-.8-1.5-.551-1.05,1.15-1.2,1.65-.15.8,1.5m12.4-2.85q1.3-.251,1.55.3a2.705,2.705,0,0,1-.3,1.75q-.5,1.249-1.5-.3t.25-1.75M27.6,45.7q-.5.45-1.5-.75-1-1.25.5-1.6,1.549-.4,1.55.75a2.225,2.225,0,0,1-.55,1.6M51.453,38q-.249,1.1-1,.95a1.652,1.652,0,0,1-1.2-1.15q-.45-1,.7-1.7,2.05-1.4,1.5,1.9M42.5,39.6q1.851-.8,1.9.4a3.753,3.753,0,0,1-.45,1.95q-.45.7-1.9-.45t.45-1.9"/></svg>