<svg overflow="visible" width="100%" height="100%" viewBox="0 0 116.869 93.35" xmlns="http://www.w3.org/2000/svg"><path d="M48.906.033q-2.6.15-3.25.25a25.31,25.31,0,0,0-3.3,1,70.482,70.482,0,0,0-9.1,4q-6.5,3.2-14.6,19.95t-9.9,20.95q-7.1,16.5-8.6,30.3a7.48,7.48,0,0,0,3.4,8q2.6,1.8,8.7,3.4,5.6,1.5,7.6-8.4l7.1-25.5q0,20-.6,33.3-.2,3.6,1.3,5,1.7,1.6,5.8.8,7.3-1.4,12.25-2.4a71.115,71.115,0,0,1,7.1-1.25q2.15-.2,2.55-.25t1.05-.15q1.149-.2,1.1-2.1-.051-1.95-.05-2.65l-1.4-34.2q-.3-4-.5-6a19.673,19.673,0,0,1,.2-5.8,9.8,9.8,0,0,0-.2-5.2,32.46,32.46,0,0,0-2.3-4.3l-12.5-20.2-1-1.9q-.3-1.1,2.1-2.2a13.515,13.515,0,0,1,3.8-1.35,40.308,40.308,0,0,1,4.9-.2,93.439,93.439,0,0,1,9.95.6,68.931,68.931,0,0,1,8.95,1.3q2.5.651,2.7,1.25t-1.2,2.6q-.3.5-2.4,3.2a20.117,20.117,0,0,0-2.2,3.3,45.2,45.2,0,0,0-3.6,9.2,17.857,17.857,0,0,0,.5,10.1,17.447,17.447,0,0,1,1,5.3q.3,3.5,1.4,20.5.8,12.6,1.2,18.25a65.283,65.283,0,0,0,.7,7.3q.35,1.7,4.85,1.35,4.449-.4,11.35-.45,4.6-.049,6-1.05,1.5-1,2.6-5.3a56.375,56.375,0,0,0-1.1-23.3,56.672,56.672,0,0,1-1.25-6.3q-.4-2.949.35-2,4.8,7.1,6.9,10.8a42.855,42.855,0,0,1,4.7,12.2,11.934,11.934,0,0,0,1.75,4.65,3.582,3.582,0,0,0,2.25,1.5q1.2.1,6.7-3.3,5.45-3.45,3.85-12.7t-8.05-19.75a148.279,148.279,0,0,0-9.9-14.95q-5.65-7.55-9.05-11.6-3.35-4.1-3.45-4.2a11.917,11.917,0,0,0-1.2-1.35q-2.65-2.8-4.8-4.9a8.132,8.132,0,0,0-4.05-2.4q-1.85-.3-3.35-.55A65.7,65.7,0,0,0,61.106.683q-6.851-.4-8.2-.55a23.882,23.882,0,0,0-4-.1m58.1,74.5q-1.451.8-2.8-5.05a47.762,47.762,0,0,0-5.55-13.1q-5.2-8-7.6-12.1-1.6-3-3.4-2.3-1.7.8-1.3,4.3a34.577,34.577,0,0,0,1.3,5.8q4.1,16.7,1.6,28.8-.45,3.251-5.5,3.35t-8.7.1q-1.3,0-2.25.05-2.35.2-2.65-2.3-.051-.549-.1-1.15-.9-15.849-2.1-28.95-.3-6.7-.5-10.1a35.562,35.562,0,0,0-1.9-10,1.2,1.2,0,0,1,.2-1.5,1.967,1.967,0,0,1,1.6-.6q6.2,0,7.4-.1a6.1,6.1,0,0,0,5.4-3.8,2.586,2.586,0,0,0-.2-2.6,9.011,9.011,0,0,0-2.1-1.8q-2.4-1.7.3-3.3,4.5-2.6,5.1-3.1a5.165,5.165,0,0,1,.45-.3,1.2,1.2,0,0,1,1.6.45q1.4,1.9,4.55,5.6a128.068,128.068,0,0,1,15.9,22.25,155.447,155.447,0,0,1,7.5,18.2q3,7.8-6.25,13.25m-24.95-63.15q-.2,1.5-2.6,2.9-3.3,2-3.5,2.2-3.1,2.1-2.2,4.3a27.778,27.778,0,0,0,3.1,4.7,11.8,11.8,0,0,1-5.9,1.8q-4.8,0-5.25-.95t.95-5.05a48.134,48.134,0,0,1,4.3-7.6,24.882,24.882,0,0,1,2.9-4.2,9.606,9.606,0,0,1,3.5-3.1q5,3.75,4.7,5m-48.4-2.3q1.6-1.6,2.5-1.5.8,0,2,2,11.3,18.4,12.9,21.1c.133.234.267.484.4.75q.8,1.65-1.35,1.6-3.951-.05-7.05-.15-4-.1-6-.2-3,.1-2-3.4a19.666,19.666,0,0,0,1.7-5.6q.5-2.8-.1-3.9-.7-1-3.4-1.8-2.8-.7-3.2-1.5-.5-.9.7-3.4a17.251,17.251,0,0,1,2.9-4m-.65,11.45a2.02,2.02,0,0,1,1.15,2.65,73.922,73.922,0,0,0-2.2,7.9q-.4,4.6,4.5,4.6,6.3.2,13.3.15h.6q2.1.15,2.3,1.7.3,5,.6,13.15l1.35,33.75q.1,1.9-1.1,2a62.941,62.941,0,0,0-8.8,1.4q-7.35,1.451-12.05,2.25-2.6.4-3.2-.1t-.5-3.1l1.2-35.2a14.3,14.3,0,0,0-.25-3.7q-.351-1.6-.95-1.9a2.361,2.361,0,0,0-1-.3,2.47,2.47,0,0,0-1.1.4,2.019,2.019,0,0,0-.8.9,35.383,35.383,0,0,0-1.4,4.2l-8,29.6q-.9,3.3-2.4,4.1-1.5.7-4.8-.5a23.465,23.465,0,0,1-4.7-2.3,4.457,4.457,0,0,1-1.8-4.5q1.4-14.4,8.4-31.1,4.4-10.5,13.75-28.15,3.15-.2,7.9,2.1"/></svg>