<svg overflow="visible" width="100%" height="100%" viewBox="0 0 115.278 78.082" xmlns="http://www.w3.org/2000/svg"><path d="M115.128,26.6a6.759,6.759,0,0,0,0-3q-.4-.6-2.9-1.4l-17.1-5.3a6.01,6.01,0,0,1-4.2-3.7,8.133,8.133,0,0,0-4.8-4.7,7.547,7.547,0,0,0-6.6.9,8.6,8.6,0,0,1-7,.5q-11.8-3.4-21.1-5.6-7-1.6-10.6-2.4Q34.528.6,30.128,0l-19.6,5.3q-3.2,1-3.1,4.8l.1,24.8a10.367,10.367,0,0,1-2.3,6.8,19.444,19.444,0,0,0-2.9,5.9q-.7,2.2-1.8,6.4-1.6,4.5,1.65,8.8,3.25,4.249,6.4,5.4a26.23,26.23,0,0,0,6.3,1.5,17.115,17.115,0,0,0,4.05.1q.849-.2,2.8-.7l13.4-5.05,14.2,4.45,32.6,9a9.964,9.964,0,0,0,4.3.5q4-.9,21.1-5.6a3.709,3.709,0,0,0,2.9-3.5l2-19.7q1.7-14.7,2.9-22.6M25.228,4a12.959,12.959,0,0,1,7.7-1q3.8.7,14.6,3.2,10.8,2.449,18.55,4.8,7.7,2.3,9.1,2.75a5.379,5.379,0,0,1,1.6.7q.25.251,1.65,1.75a6.976,6.976,0,0,0,3.8,2q1.4.4,4.3,1a15.549,15.549,0,0,0,5.1-.4l17.7,5.5q1.35.551-.1.9l-1.4.4q-7.8,1.5-11.55,1.95-.6.1-5.5.35l-25.55-8.8q-16.2-4.6-24.4-6.8a148.353,148.353,0,0,0-24.8-4.4,14.409,14.409,0,0,1-3.7-.55A82.5,82.5,0,0,0,25.228,4m-15.2,8.5q0-2.3,2.2-2a218.533,218.533,0,0,1,35,6.5q11.5,3,22.55,6.7,11,3.7,13.55,4.7a19.985,19.985,0,0,1,3.3,1.55q.6.45.8.35a24.026,24.026,0,0,1,0,5.4q-.9,9.9-1.7,21.6-.85,11.7-1.2,16.45-.05.6-.05,1.05a16.157,16.157,0,0,1-4.15-.6l-28.7-8q-1.7-.6-10.85-3.1a17.935,17.935,0,0,0-1.85-.5l6-2.3a2.7,2.7,0,0,0,1.8-1.8,28.918,28.918,0,0,0,1.7-16.55q-1.6-8.4-6.35-13.25a27,27,0,0,0-3.55-3.3q.1-.2-4,.65-7.05,1.5-13.3,3.1a32.358,32.358,0,0,0-11.2,5.05V12.5m-1,28.55q.349-.6.6-.95a20.572,20.572,0,0,1,3.2-3.4,8.329,8.329,0,0,1,6.1-2.3q3.6.5,6.35,5.65a18.5,18.5,0,0,1,1.8,11.7,37.936,37.936,0,0,1-3.1,11.05q-2.149,4.4-8.65,3.5a18.183,18.183,0,0,1-8.4-3.2,8.669,8.669,0,0,1-3.8-6.9q.3-2,2.7-10.5a8.052,8.052,0,0,1,.75-1.3l2.45-3.35m19-2.65a80.361,80.361,0,0,1-5.3-7q3.9-1.1,14.7-3.5a26.816,26.816,0,0,1,1.95,1.95q10.55,11.95,5.25,25.55a3.66,3.66,0,0,1-1.9,2.2l-14.3,5.8q2.1-15.4,2.2-17a12.186,12.186,0,0,0-2.6-8m53.5-27.3q4-1.05,6.7,2.9,1.151,2.25-2.8,2.4-6.8-1.4-3.9-5.3m9.1,21.1a15.262,15.262,0,0,1,.15-1.75q1.65-.049,4.4-.15a80.58,80.58,0,0,0,13.95-2.2q2-.4,2.4.1.4.4.2,2.4l-3.9,34.9a6.194,6.194,0,0,1-1.1,3.4,4.97,4.97,0,0,1-3.2,1.7q-1.4.2-11.6,3a33.1,33.1,0,0,1-4.25.95l2.55-37.85q.3-2.85.4-4.5m-29.2.4q-1.9.2-3.7,2.9t-1.4,4.5a7.627,7.627,0,0,0,3.6,4.2,7.711,7.711,0,0,0,5.4,1.4q1.9-.3,4.3-2.8,2.4-2.4,2.5-4.3a4.739,4.739,0,0,0-2.2-4.8,7.09,7.09,0,0,0-3.75-1.5,36.5,36.5,0,0,0-4.75.4m.2,9.3a4.282,4.282,0,0,1-2.4-2.3,3.316,3.316,0,0,1,2.4-3.4,10.243,10.243,0,0,1,3.75-.9,3.566,3.566,0,0,1,2.5.75,3.778,3.778,0,0,1,1.25,1.8q.3.949-1.2,2.75a5.237,5.237,0,0,1-2.9,2,5.156,5.156,0,0,1-3.4-.7"/></svg>