<svg overflow="visible" width="100%" height="100%" viewBox="0 0 115.31 60.224" xmlns="http://www.w3.org/2000/svg"><path d="M115.3,3.512a3.535,3.535,0,0,0-.8-2.9,5.271,5.271,0,0,0-3.3-.6q-2.8.2-5.75.3t-3.4.15h-9.8Q82.9.412,70.1,1.213q-11.1.7-16,.8-2.25.051-3.85.1-5.449-.1-9.2-.149-3.349-.1-5.35-.15L3.3,3.063a4.153,4.153,0,0,0-2.15.5Q.1,4.112,0,4.612a12.442,12.442,0,0,0,4,5.2q1.8,1.5,5.4,4.2a53.747,53.747,0,0,0,20.8,8.8q4,.649,10.85,1.25,2.75.2,5.95.449a4.071,4.071,0,0,1,2,.7,2.814,2.814,0,0,1,.4,2q-.6,5.5-.9,11.3,0,2.8-2,3.5-2.3.7-2.1,4,.9,9.5.9,9.8.4,3,1.2,3.7.8.8,3.8.7,10.3-.4,30.8-1.5l14.9-.9a10.264,10.264,0,0,0,3.1-.5,3.594,3.594,0,0,0,2.1-2.3q.6-1.7,2.8-9.5.7-2.8-2.4-3.6-3.1-.7-3.5-.8a4.945,4.945,0,0,1-2.9-2.1q-1.5-2.1-2.5-9-1.1-7.5,2.1-6a21.1,21.1,0,0,0,8,1.5q2.8.1,8.2.1,3.1.3,3.3-2.9.8-12.8,1-19.2m-76.15,1.1a11.66,11.66,0,0,1,1.9.15,13.485,13.485,0,0,1,2.8.551q1.95.65,1.8,1.1l-1.35,11.4a3.8,3.8,0,0,1-1,2.7,3.054,3.054,0,0,1-2.25.551,3.3,3.3,0,0,1-.55-.051q-21.4-.95-36.4-15.2,6.9-.5,19.65-.85,12.7-.4,15.4-.351m9.45,1.2q.6-.7,3.8-.9l35.7-1.85a65.055,65.055,0,0,1,7.9.449,12.037,12.037,0,0,1,.2,3.4,30.394,30.394,0,0,0,.3,5.2q.1,1.7.5,5.2a3.96,3.96,0,0,1-.3,2.5,3.25,3.25,0,0,1-2.5.9q-4-.1-21.7.5-13.3.4-21.4-.05a7,7,0,0,1-3.6-.85q-.8-.7-.7-3,.9-7.6.9-7.9.2-3,.9-3.6m3.6,21.4q.3-2.7,3.3-2.8,10.4-.1,31.2-.7,3.2-.1,3.3,3.1.3,3.9,1.4,12.4-7,.3-18.3.5-15.3.2-18.4.3-3.6.2-3.3-3,.4-6.6.8-9.8m48.3-23.7,9.9-.7q2.7-.3,2.5,2.7-.6,7-.9,14.2,0,2.8-2.1,3-2.7-.2-4.2-.2-4.4-.1-5.2-.9-.8-.7-1-5.1-.4-6.9-.8-10.4a2.735,2.735,0,0,1,.2-1.9q.3-.6,1.6-.7M95,43.362a6.472,6.472,0,0,1,1.6.451q.851.349,1.55.7a9.285,9.285,0,0,0,1.7.551q1,.249,1.05,1.049-1.4,6.5-2.7,7.6-1.3,1-7.9,1.4-6.3.3-16.9,1-12.4.8-16.8,1-2.9.2-4.3.2a5.531,5.531,0,0,1-3.4-.8q-.9-.7-1-3.2a33.577,33.577,0,0,0-.5-4.1q-.8-3.3,0-4.2.5-.6,3.8-1.4a25.631,25.631,0,0,1,6.3-1.1l18.2-.2a137.6,137.6,0,0,1,18,.8q.5.1,1.3.25"/></svg>