<svg overflow="visible" width="100%" height="100%" viewBox="0 0 97.422 116.867" xmlns="http://www.w3.org/2000/svg"><path d="M35.514.712a36.933,36.933,0,0,0-5.4,2.15,81.532,81.532,0,0,0-6.95,4.3q-4.849,3.15-10.95,11.65a62.927,62.927,0,0,0-8.6,17.2,47.284,47.284,0,0,0-2.7,13.5l-.9,13.8q-.4,15.2,10.7,31,10.9,15.6,25.4,20.9a26.476,26.476,0,0,0,7.6,1.3q2.5.2,7.6.3,7.7.6,15.7-5.3,10.151-7.251,13.4-11a74.107,74.107,0,0,0,7.7-11.9,98.35,98.35,0,0,0,4.95-9.65q.5-1.551,1.55-6.05,1-4.5,1.7-8.3a54.308,54.308,0,0,0,1.1-10.95q-.1-6.251-.2-8.35a20.115,20.115,0,0,0-1.8-7.4q-4.1-8.5-5.7-11.3a46.921,46.921,0,0,0-7.6-10.1,84.344,84.344,0,0,0-10.1-8.6,33.963,33.963,0,0,0-12.2-5.4,93.271,93.271,0,0,0-13.4-2.3q-7.7-.6-10.9.5m2.85,2.45a27.263,27.263,0,0,1,4.4-.35,47.643,47.643,0,0,1,26.85,7,47.849,47.849,0,0,1,18.6,20.1q4.6,8.1,5.4,11,.8,3,.8,12.5-1.1,12.1-1.4,13.7-2.7,16.7-16.9,33.1a48.4,48.4,0,0,1-6.05,5.8,54.03,54.03,0,0,1-8.35,5.45,17,17,0,0,1-7.3,2.05q-3.7.15-11.35-.3t-18.25-7.7a69.088,69.088,0,0,1-15.4-18.4q-6.6-11.5-6.5-22.7.7-15.9,1.2-19.8a21.512,21.512,0,0,1,1.4-5.4q1.8-5.2,1.9-5.5a40.9,40.9,0,0,1,11.6-18.7q8.15-7.551,10.9-9a21.823,21.823,0,0,1,4.5-2,24.026,24.026,0,0,1,3.95-.85m48.05,51a20.234,20.234,0,0,0-.7-3.65,78.15,78.15,0,0,0-6.4-15.7,43.252,43.252,0,0,0-10.3-12.55,98.94,98.94,0,0,0-9.55-6.95,29.987,29.987,0,0,0-5.35-2.75,30.515,30.515,0,0,0-4.6-.95,33.989,33.989,0,0,0-5.45-.5,25.211,25.211,0,0,0-7.45,1.55q-5,1.55-10.4,8.25-5.8,7.8-7.4,20.4-1,7.3-1.7,22-1.4,13.7,2.4,22.4a38.151,38.151,0,0,0,8,12.1,24.187,24.187,0,0,0,13.2,6.4,24.739,24.739,0,0,0,17.8-3.9,78.823,78.823,0,0,0,20.5-18.5q7.95-10.551,7.75-18.15t-.35-9.5m-38.35-36.75q.05.7.05,2.3-.6,19.8-1.05,26.5t-2.75,5.1q-2.3-1.6-7.9-9-5.651-7.4-6.6-8.75t-2.45-3.25q-.5-.651-.9-1.15a2.767,2.767,0,0,1,0-3.45,26.527,26.527,0,0,1,6.25-7.4,39.637,39.637,0,0,1,4.4-2.7,11.672,11.672,0,0,1,5.05-.7,9.2,9.2,0,0,1,4.6.9q1.249.849,1.3,1.6m2.55,3.9q.1-3,1.3-3.8,1.2-.9,3.9.3,7.3,3.4,9.9,5.5a39.628,39.628,0,0,1,10.85,12.6q.7,1.55-1.4,2.65a90.713,90.713,0,0,0-8.55,5.45,111.759,111.759,0,0,0-8.95,7.5,3.164,3.164,0,0,1-2.6.95,19.259,19.259,0,0,1-2.55-.55,3.119,3.119,0,0,1-1.8-1.3,6.769,6.769,0,0,1-.5-3.6l.4-25.7m-3.35,32.35a31.481,31.481,0,0,1,4.15.4,3.9,3.9,0,0,1,2.9,1.45q.75,1.149-.05,4a6.48,6.48,0,0,1-2.45,3.8,4.994,4.994,0,0,1-3.9.5,4.5,4.5,0,0,1-3.7-3.05,10.962,10.962,0,0,1-.65-3.6,4.36,4.36,0,0,1,.9-2.3,2.966,2.966,0,0,1,2.8-1.2m10.3,2.8q.249-1.1,2.7-3.4,2.449-2.35,6.75-5.75,5.2-3.5,7.9-5.45.9-.7,1.65-1.2,1.7-1.2,2.15,0,.55,1.3,1.3,2.95a49.357,49.357,0,0,1,2.5,6.4,24.975,24.975,0,0,1,.7,5.2q.15,3.45.3,5.2a23.516,23.516,0,0,1-.3,4.5q0,1.7-2.7.9a24.818,24.818,0,0,0-2.85-.85q-10.15-2.651-18.05-4.85-2.1-.45-2.15-1.5a5.806,5.806,0,0,1,.1-2.15m11.45,9.55q5.85,1.8,8.1,2.4,2.2.549,2.85.8.65.2,1.55.5.9.251,0,2.2a34.779,34.779,0,0,1-5.9,9.7q-5.9,6.7-6.2,7a29.952,29.952,0,0,1-5.25,4.4q-2.35,1.549-3.05.05-1.549-4.2-4.6-11.35-3.5-8.5-4.25-11.05-.8-2.55.4-3.7a30.214,30.214,0,0,0,3.05-3.65,2.391,2.391,0,0,1,3.05-.65q1.2.4,2.05.65,2.7,1,8.2,2.7m-24.45-.2a2.848,2.848,0,0,1,1.2,1.9,3.12,3.12,0,0,1-1.15,2.45l-19.2,17.75q-1,.9-2-.8a33.329,33.329,0,0,1-3.9-12,51.851,51.851,0,0,1,.1-7.1q.3-4.8.4-7.2.2-3.1,3.2-2.4l15.85,4.15a7.305,7.305,0,0,1,3.35,1.45q1.05.95,2.15,1.8m1.75,7.05q2.2-2.05,3.55.2a74.8,74.8,0,0,1,4.55,9.65q1.5,4,4.3,11.9.6,2.1-.9,3-8.9,5.9-18.4,3.75a15.816,15.816,0,0,1-6.7-2.85,29,29,0,0,1-5-5,2.51,2.51,0,0,1-.7-2.3,4.854,4.854,0,0,1,1.3-1.8l18-16.55m-23.2-39.15.2-.7q.7-1.9,2.2,0,1.15,1.4,2.2,2.8,8.9,11.7,11.7,15a6.093,6.093,0,0,1,1.6,3.45,33.039,33.039,0,0,1,0,3.65q-.1,2.049-1.1,1.85l-1.4-.35q-10.3-2.5-15.4-3.7a2.565,2.565,0,0,1-1.9-1.3,5.9,5.9,0,0,1-.5-2.4,73.89,73.89,0,0,1,2.4-18.3"/></svg>