<svg overflow="visible" width="100%" height="100%" viewBox="0 0 110.389 78.303" xmlns="http://www.w3.org/2000/svg"><path d="M19.163,31.4q-8.9,4.7-12.6,9.4a14.505,14.505,0,0,1-3.4,2.9q-2,1.5-2.2,1.6a1.956,1.956,0,0,0-.2,2.5q1.3,2.7,6.2.8a25.821,25.821,0,0,1,7.9-2q2.8-.3,6.1-.65a14.822,14.822,0,0,1,5.7.35q2.4.7,1.95,1.2a39.367,39.367,0,0,1-10.65,8.1q-6.1,3.2-14.5,0a9.1,9.1,0,0,0-1.8-.6,1.242,1.242,0,0,0-1.45.55,1.387,1.387,0,0,0,.05,1.55q.5.8,3.65,2.6t8.05,4.1q5.7,2.6,10.6.05,3.6-1.851,6.65-3.75a57.083,57.083,0,0,0,6.15-4.55,14.871,14.871,0,0,0,3.95-4.65,3.556,3.556,0,0,1,4.65-2.2q.6.3-.95,5.15a16.7,16.7,0,0,1-4.05,7.2,49.508,49.508,0,0,1-6.5,5q-4,2.649-3.8,3.75a1.822,1.822,0,0,0,1.7,1.3,11.736,11.736,0,0,0,10.6-2.4,47.859,47.859,0,0,0,8.1-8.5,47.815,47.815,0,0,1,1.3,5.9q.7,4.2,1.1,5.8a2.531,2.531,0,0,0,2,1.7,1.2,1.2,0,0,0,1.1-.2,1.451,1.451,0,0,0,.8-.9,18.726,18.726,0,0,0,1.3-6.1,13.9,13.9,0,0,1,1.6-6.2,68.748,68.748,0,0,0,6.05,6,7.834,7.834,0,0,1,2.25,4.25,10.591,10.591,0,0,0,1.2,2.95,24.835,24.835,0,0,0,3.6,4.1,2.15,2.15,0,0,0,2.3.7q1.1-.3,1.4-1.9.9-4.9,1.2-7.3a20.53,20.53,0,0,0-.3-7.4q-.4-1.5-1.6-9.2a13.059,13.059,0,0,1,5.7,2.4,47.941,47.941,0,0,1,4.55,4.15q2.9,2.949,4.45,2.75,1.5-.2,5.25-.75a19.566,19.566,0,0,1,7.6.4,38.251,38.251,0,0,0,5.95,1.1,2.1,2.1,0,0,0,2.5-1.8q.35-1.95-4.1-4a100.167,100.167,0,0,1-10.05-5.4,22.035,22.035,0,0,0-11.55-3.35,4.009,4.009,0,0,1-3.1-1.7,4.416,4.416,0,0,1-1.2-2.8,1.778,1.778,0,0,1,1.4-1.6,11.455,11.455,0,0,1,2.2-.3q7.1-.8,12.2-7.4,4.7-6.2,5-11.75a25.771,25.771,0,0,0-1.4-10.25,38.3,38.3,0,0,0-2.9-6.5,8,8,0,0,0-3.3-2.8q-8.7-5.1-20-.9a27.962,27.962,0,0,0-8.7,5.6q-2.6,2.3-7.7,7a11.879,11.879,0,0,0-4.2,7,15.634,15.634,0,0,1-1.1,3.7,5.749,5.749,0,0,1-2.9,2.7,2.418,2.418,0,0,0-1.3,1.6,7.219,7.219,0,0,0-.4,2.1q-1.2,6.8-7.4,4.8a78.111,78.111,0,0,1-12.3-5.2,8.585,8.585,0,0,0-8.4.2m.4,30.2q-2.7,1.1-7.2-.9a18.289,18.289,0,0,0,9-3.4q4.6-3.8,6.9-5.6a8.113,8.113,0,0,1,3.9-1.8,6.4,6.4,0,0,1,4.1,1.3,59.476,59.476,0,0,1-16.7,10.4M7.663,44.5q4.3-6.8,13.2-10.8a5.3,5.3,0,0,1,5.1,0,80.612,80.612,0,0,0,9,4.2,33.73,33.73,0,0,0,9.5,2.4,19.843,19.843,0,0,1,3.9.9,7.953,7.953,0,0,1-7.1,4.2q-7,.3-7.6.3a15.934,15.934,0,0,1-7.3-2.2,7.529,7.529,0,0,0-4.3-.3q-4.3.3-14.4,1.3m44.4-15.3q2.5-1.5,3.6-6.2a17.989,17.989,0,0,1,4.9-8q.6-.5,7.3-6.4,9.4-7.4,19.4-5.4a13.9,13.9,0,0,1,5.25,2.1,9.3,9.3,0,0,1,3,3.35,53.157,53.157,0,0,1,2.65,7.75q1.65,5.7-2.5,13.8-4.2,8.1-11.8,8.5a17.566,17.566,0,0,0-4.65.9,7.036,7.036,0,0,0-2.8,1.3,4.173,4.173,0,0,0,0,2.5q.35,2,3.45,4.9a10.092,10.092,0,0,0,6.7,3,20,20,0,0,1,6.1,1.25q2.651,1.05,9.55,4.6t-1.3,1.75q-8.25-1.9-10.65-1a3.468,3.468,0,0,1-4.2-1.3,25.03,25.03,0,0,0-14.5-8.5,23.777,23.777,0,0,0,.3,7.7q.5,2.6,1.5,7.7a29.632,29.632,0,0,1,.45,6.45q-.05,4.2-1.2,3.7-3.15-1.25-3.35-5.25a28.657,28.657,0,0,0-1.8-9.5q-.9-2.6-2.6-6.75-1.751-4.15-2.9-3.05-.95.75-.3,2.7.6,1.9,3,7.5a32.3,32.3,0,0,1,1.2,3.75q.35,1.8-.95,0-.649-.85-1.5-1.9-3.55-4.45-5.45-6.65a9.871,9.871,0,0,1-1.2-1.8,2.006,2.006,0,0,1,.25-1.8,2.138,2.138,0,0,0,.25-1.75q-.249-.9-.85-.9a2.222,2.222,0,0,0-1.95,1.45,25.722,25.722,0,0,0-1.5,2.6q-.8,1.5-1.6,1.6a3.8,3.8,0,0,0-2.3,1.5,21.976,21.976,0,0,0-1.4,2,76.856,76.856,0,0,1-8.65,9.95q-1.45,1.4-5.1,1.8-3.7.349-.45-1.2A24.634,24.634,0,0,0,38.313,65q5.5-4.551,8.55-13,.9-3.5,3.2-4.7a5.691,5.691,0,0,0,2.4-2.95,18.468,18.468,0,0,1,1.8-3.5q.851-1.2-.1-3.45a8.462,8.462,0,0,0-1.5-2.75,11.823,11.823,0,0,1-1.75-2.3q-1.249-1.851,1.15-3.15m-3.8,7.1q.15-1.251,1.55-.5,1.4.7,1.2,1.85t-1.55.55a1.713,1.713,0,0,1-1.2-1.9m4.65,31.6a19.679,19.679,0,0,1-.9-7.6,6.487,6.487,0,0,1,3.25-4.8q.7-.351-.15,8.35-.9,8.7-2.2,4.05m8.8-28a3.986,3.986,0,0,0,3.05,3.1,3.59,3.59,0,0,0,4.2-1.1q1.6-1.9,1-3.4a4.612,4.612,0,0,0-2.15-2.35,8.315,8.315,0,0,0-3.35-1.2,2.729,2.729,0,0,0-2.3,1.25,4.307,4.307,0,0,0-.45,3.7m3.6.5a2.026,2.026,0,0,1-1.3-2.3q.3-1.45,2.05-.3,1.7,1.149,1.25,2.3-.45,1.1-2,.3"/></svg>