<svg overflow="visible" width="100%" height="100%" viewBox="0 0 106.548 116.251" xmlns="http://www.w3.org/2000/svg"><path d="M31.123.09a2.874,2.874,0,0,0-2.75,1.9,2.78,2.78,0,0,1-2.45,1.95q-2.2-.1-3.3-.2l-17.2-1.2a5.34,5.34,0,0,0-2.149.3,1.008,1.008,0,0,0-.75,1.2,1.13,1.13,0,0,0,1,1l25.4,2a2.972,2.972,0,0,1,1.55.45,1.431,1.431,0,0,1,.75,1.3,1.477,1.477,0,0,1-.35,1.15,4.871,4.871,0,0,1-2.15.2q-4.5-.2-12.1-.9-9-.8-12.349-1.25-1.651-.15-2.551-.15a1.516,1.516,0,0,0-1.7,1.6q-.2,1.3,1.3,1.6a11.132,11.132,0,0,0,2.2.25q14.6,1.25,24.6,1.75a4.75,4.75,0,0,1,2.5.8,3.5,3.5,0,0,1,.7,2.5q-.2,27.3-.1,82,0,3-.5,3.7-.4.7-3.2,1.7a4.039,4.039,0,0,0-3,3.5,30.536,30.536,0,0,0-.1,4.9q.1,2.6.9,3.4.7.8,3.2.7l39.2-2q3.6-.2,4.4-1.2.8-.9.8-4.05a21.639,21.639,0,0,0-.349-4.6,2.563,2.563,0,0,0-2.25-1.85q-1.851-.35-1.9-1.5l-.9-82.5q0-3.2.6-3.8t3.9-.5q4.5,0,16.6.4,10.5.4,13.951.35,3.45-.1,3.8-.55a1.267,1.267,0,0,0,0-1.3q-.35-.9-2.349-1.1l-3.2-.1q-30.45-.949-31-.95a4.675,4.675,0,0,1-1.351-.25q-.8-.3-.5-1.25a1.3,1.3,0,0,1,1.25-1.05q.9,0,4.2-.1h27.3q1.8,0,3.15-.1t1.5-1.15q.15-1.05-1.049-1.45a9.813,9.813,0,0,0-3.4-.3h-25.9a26.532,26.532,0,0,1-2.7-.1,3.807,3.807,0,0,1-2.451-1.7q-.95-1.4-1.6-1.6a6.878,6.878,0,0,0-2.3-.2,3.529,3.529,0,0,0-2.9,1.85q-1.251,1.8-2.451,1.8l-22.8-.65q-2.5-.2-2.3-2.4a2.136,2.136,0,0,0-.2-1.65,1.886,1.886,0,0,0-1.3-.65,17.56,17.56,0,0,0-2.9.05m5.1,10.05q-2.4-.15-1.8-1.6a2.092,2.092,0,0,1,2.2-1.05l25.5.85a3.5,3.5,0,0,1,2.151.5,1.061,1.061,0,0,1,.4,1.45q-.449.851-5.45.65t-9.5-.3q-11.1-.4-13.5-.5m-2,7.3q0-3.1.6-3.6.5-.6,3.5-.5l23.3.7q2.4.1,2.9.6.4.4.4,2.9l.8,81q0,2.8-.5,3.3-.6.6-3.4.6-11.9.2-23.8,0-2.8,0-3.3-.5-.5-.6-.5-3.5v-81m33.8,90.7q-.151-2.7,1-2.9t1.4,1.15a14.141,14.141,0,0,1,.1,2.95q-.151,1.549-1.25,1.55-1.15-.05-1.25-2.75m-3.2-2.5a2.013,2.013,0,0,1,1,1.9q.2,3.2-2.6,3.2l-26.7.5q-2.5,0-2.3-2.4a14.712,14.712,0,0,1,.1-2.1,1.82,1.82,0,0,1,1.7-1.3q4.5-.1,26.7-.1a4.739,4.739,0,0,1,2.1.3m-37.7,2.45a2.158,2.158,0,0,1,1.651-2.35q1.6-.45,1.8,1.1.148,1.549.25,3.15.049,1.6-1,1.8a4.026,4.026,0,0,1-1.651.05q-.549-.15-.8-1a10.778,10.778,0,0,1-.25-2.75"/></svg>