<svg overflow="visible" width="100%" height="100%" viewBox="0 0 66.326 116.669" xmlns="http://www.w3.org/2000/svg"><path d="M25.223,3.457a9.085,9.085,0,0,0-2.4-1,12.667,12.667,0,0,0-8.1,1.8,15.092,15.092,0,0,0-6.3,5.9,107.762,107.762,0,0,0-6.6,14.6,32.978,32.978,0,0,0-1.4,15.8,43.129,43.129,0,0,0,10,20.2q7,7.6,13.2,22a3.472,3.472,0,0,0,1.4,1.8,1.255,1.255,0,0,0,1.149.05q.551,3.049.951,5.45t.8,5.1a7.106,7.106,0,0,1-1,4.95q-1.4,2.25-.5,6.75.3,1.3,2.7,7.7a3.014,3.014,0,0,0,1.3,1.3,4.763,4.763,0,0,0,1.9.7,67.564,67.564,0,0,0,10.3-.2q4.3-.3,4-5.1l-1.1-9.8q-.2-3.8-2.451-4.7a2.738,2.738,0,0,1-1.65-2.8q-.049-1.549-.25-3.5-.15-1.95-.149-4.95a10.872,10.872,0,0,0-.351-3.7,3.482,3.482,0,0,0,1.65-.95q.8-.85,1.9-5.2,1.05-4.45,6.949-10.4,3.551-3.65,9.951-16.9a39.238,39.238,0,0,0,4.6-11.5,26.39,26.39,0,0,0-.2-12.1,35.831,35.831,0,0,0-12.3-19.2q-10.3-8.2-21.4-4.3a6.005,6.005,0,0,0-2.2,1.5,6.326,6.326,0,0,1-2.2,1.4,4.2,4.2,0,0,1-2.2-.7m-.651,2.65q.4.551-1.449,2.65-6,7.7-6.8,19.7-1.2,10.5,2.7,24.2,2.2,7.8,5.1,16.95,2.9,9.049,3.7,10.4a2.852,2.852,0,0,1-3.1-1.75q-1.8-5.3-13.3-20.7-9.1-12.2-8.6-22.2,1-11.2,7.9-23.2,3.5-6.4,7.349-6.8a17.678,17.678,0,0,1,4.951-.1,2.7,2.7,0,0,1,1.549.85m3.451,3.15q.549-.15.35,2.6-1.851,25.4.449,44.2.9,10.4,1.551,15.45a34.575,34.575,0,0,1,.449,5.7,8.238,8.238,0,0,1-.75,1.8q-.6,1.1-1.9-3.55l-6.949-24.9a51.811,51.811,0,0,1,.9-34.9,38.991,38.991,0,0,1,2.1-4.35,3.527,3.527,0,0,1,3.8-2.05m3.6.9q.2-1.7.8-2,.6-.4,2,.4,5.8,2.9,8,6.9,2.3,4.3.551,16.55-1.8,12.251-5.75,30.75-3.951,18.45-4.551,8.6t-1.8-20.95a162.776,162.776,0,0,1-1.051-20.05q1.1-13.5,1.8-20.2m2.1-5.6q-1.15-.55.3-1.1,8.4-2.2,16.2,3.5a33.849,33.849,0,0,1,10.8,13.6q5.4,12.4-1.5,25.1-7.2,14.5-10.451,17.85-6.65,6.9-7.9,11.9-1.249,4.95-2.449,4.45a6.857,6.857,0,0,1-1.3-.65q-1.2-1.249-.7-4.35t4.4-17.75a186.649,186.649,0,0,0,5.4-30.95q1.3-13.3-8.8-18.9-2.6-1.8-4-2.7m2.15,77.85a12.1,12.1,0,0,1,1.35-.1q.5-.05.9,2.95.45,2.951.65,5a35.651,35.651,0,0,1,.049,4.25q-.1,2.2-1.449,2-1.4-.251-1.951-4.5-.6-4.249-.949-6.05a3.958,3.958,0,0,1,.05-2.5,1.624,1.624,0,0,1,1.35-1.05m-4.951.55a6.558,6.558,0,0,1,.6,1.9q.35,1.7,2,12.1,0,.7-.9.9a1.261,1.261,0,0,1-1.3-.1q-1.1-1.4-1.6-7.7-.1-1.2-.7-4.8-.3-1.7.25-1.9,1.4-.6,1.649-.4m-.2,28.3q-1.6-5.7-1.7-6.2-.2-1.1-.3-1.7a1.338,1.338,0,0,1,.3-1.1q.35-.55,2.3-.95t5.551-.8q3.6-.45,5.2.7a3.924,3.924,0,0,1,1.651,3.2q.05,2.051.3,4.9.2,2.85-.3,3.45-.5.7-2.5.8l-7,.2a2.938,2.938,0,0,1-3.5-2.5"/></svg>