<svg overflow="visible" width="100%" height="100%" viewBox="0 0 116.219 67.891" xmlns="http://www.w3.org/2000/svg"><path d="M59.406,62.3a10.632,10.632,0,0,0-2.4,1.15,11.954,11.954,0,0,1-5.8,1.6,8.481,8.481,0,0,1-5.5-2.7,4.783,4.783,0,0,0-3.6-1.7q-1.95,0-.4,1.6a44.623,44.623,0,0,0,4.5,4,10.781,10.781,0,0,0,6.8,1.6,16.658,16.658,0,0,0,6.25-2.1q2.55-1.6,2.5-2.35a1.283,1.283,0,0,0-.8-1.1,2.073,2.073,0,0,0-1.55,0m7.15-56.15q.15,1.8,1.55,1.7a4.282,4.282,0,0,0,2.45-.95q1.05-.851.95-1.45-.7-3.6-2.15-3.1a6.143,6.143,0,0,0-2.2,1.2,3.231,3.231,0,0,0-.6,2.6m-23.2-.55q-.9-1.75-1.6-1.35a6.208,6.208,0,0,0-1.6,1.3,3.046,3.046,0,0,0-1.05,1.6,2.417,2.417,0,0,0,.6,2.1,2.275,2.275,0,0,0,2,.6q.6-.1,1.4-1.2a2.606,2.606,0,0,0,.25-3.05m63.25,31.05a15.872,15.872,0,0,1-10.4-.1,158.622,158.622,0,0,1-15.2-5.9,22.135,22.135,0,0,0-11.1-2.2,11.547,11.547,0,0,1-4.6-.2,2.656,2.656,0,0,1-1.85-2.75,8.325,8.325,0,0,0-.1-2.5q-.2-.6-1.15-.45-1,.15-1.25,1.65a5.853,5.853,0,0,0,.2,2.85,6.364,6.364,0,0,1-.05,3.45,28.455,28.455,0,0,1-1.55,4.35q-1.05,2.2-6.45,2.7-5.5.6-6.1-2.1-1.2-4.9-1.6-7.3a14.176,14.176,0,0,1,.8-7.6q3.6-9,3.8-9.4a34.777,34.777,0,0,0,2.1-8.2q.15-2.8-.9-2.95-.549,0-1.3,1.25-1.2,2.2-5.6,16.9-2.2,6.2-1.6,9.6.3,1.4-.2,1.9a3.1,3.1,0,0,1-2.2.6q-7-.3-11.5,3.4-7.1,5.7-9.4,7.3a33.652,33.652,0,0,1-10.7,4.9,8.322,8.322,0,0,1-2.6,0q-2.5-.4-2.8-.4-4.6-.2-2.8,3.9,3.1,6.9,7.7,8.8,4.6,2,11.9-.5a4.53,4.53,0,0,1,3.1.9q5.2,4.2,9.2,4.2t9.2-4.3q2.3-1.8,3.1-1.8,1-.1,3.2,1.7a6.765,6.765,0,0,0,4.4,1.9,4.74,4.74,0,0,0,4-2,4.67,4.67,0,0,1,3.5-2.1,8.6,8.6,0,0,1,3.6,1.2q7.5,3.8,10-4.7,6.2,2.5,9,.7a8.463,8.463,0,0,1,2.8-1.4,7,7,0,0,1,3.5.1q2.2.4,6.8,1.4a14.9,14.9,0,0,0,6.8-.3q12.5-5.8,13.4-16.9,0-.1.5-3.6.15-1-1.4,0a44.062,44.062,0,0,1-8.2,4m-75.6-1.2a13.173,13.173,0,0,1,7.3-2.7q4.8-.3,6,3.3,2,5.8,9.5,4.4,7.2-1.3,9.8-6.3,3.5-5.3,12.5-2.4a129.139,129.139,0,0,1,13.8,5.8,25.287,25.287,0,0,0,11.1,2.5,39.741,39.741,0,0,0,11.5-2,3.957,3.957,0,0,1-.2,1.85,21.9,21.9,0,0,1-2.95,4.9,16.864,16.864,0,0,1-7.75,5.65,18.06,18.06,0,0,1-7.5-.2q-6.4-1.3-7.5-1.4-3.4-.2-4.6,1a4.02,4.02,0,0,1-3.1,1.4,9.052,9.052,0,0,1-3.2-.9q-3.3-1.5-4-1.2t-1.7,3.4a4.557,4.557,0,0,1-1.4,2.6q-.7.5-2.7,0a6.8,6.8,0,0,1-1.9-.7q-5.4-3.1-8.5.6-2.9,3.4-6.4.8-3.3-2.4-4.4-2.3-1.1,0-4.4,2.5a21.379,21.379,0,0,1-5.9,3.4q-4.9,1.8-8.8-2.8-2-2.4-2.9-2.6-.8-.3-3.8.7-11,4.8-15.1-6.1a33.251,33.251,0,0,0,7.7-.4,14.8,14.8,0,0,0,6.9-3.3q8.5-6.2,12.6-9.5"/></svg>