<svg overflow="visible" width="100%" height="100%" viewBox="0 0 113.822 71.685" xmlns="http://www.w3.org/2000/svg"><path d="M44.28,3.629a20.054,20.054,0,0,0,0,5.8,8.339,8.339,0,0,1,.1,3.4,7.2,7.2,0,0,1-2.7,1.8l-9.8,4.8a3.725,3.725,0,0,0-2.4,3.3q-.2,1.8-1.5,12.6-.251,2.3-.5,4.35-.151,2.049-1.45.3a21.809,21.809,0,0,0-3.3-3.2q-4.851-3.851-11.75-1t-10,11.85a11.58,11.58,0,0,0,.8,10.8,16.317,16.317,0,0,0,8.6,7.3,27.789,27.789,0,0,0,8.8,2.4q3.4.3,7.45.3a50.944,50.944,0,0,1,5.1.15q1.05.1,6.95,1.55a51.206,51.206,0,0,0,11.4,1.55,36.823,36.823,0,0,0,10.55-1.3q5.049-1.35,8.95-2.65t6.1-2.1a27.252,27.252,0,0,1,3-1.1q.7-.251,4.15-1.65,3.449-1.45,7.5-3.35a19.612,19.612,0,0,0,7.35-6.4q3.8-5.2,2.9-13.3-1.3-12.3,7.8-18a10.746,10.746,0,0,0,5.35-6.75q.5-1.851-1.7-2.9a7.381,7.381,0,0,0-4.25-.75q-10.4,1-14.2,9.3-1.9,4.2-4.5,8.8a5.773,5.773,0,0,1-5.3,3,5.343,5.343,0,0,1-5.2-2.7q-3.6-6-7.9-14.3a9.934,9.934,0,0,0-2-3,5.305,5.305,0,0,0-3.2-.1,8.116,8.116,0,0,1-5.35-.55,24.484,24.484,0,0,1-3.65-2.25,5.643,5.643,0,0,1-1.85-3.45,9.785,9.785,0,0,0-2.35-4.45,4.728,4.728,0,0,0-4.7-1.6,4.451,4.451,0,0,0-3.3,3.5m2.6,1.4a2.12,2.12,0,0,1,1.85-1.75q1.5-.25,2.2,2.05a5.984,5.984,0,0,1,.25,3.4,2.2,2.2,0,0,1-1.75,1.35q-1.35.249-2.1-1.65a5.552,5.552,0,0,1-.45-3.4m-15.4,29.1q.6-4.251,3-4.9,2.45-.651,5.4-1.5l26.55-7.7q2.749-.75,3.45.45l12.9,22.45q2.4,4.3,2.6,4.9,1.1,2.8-1.8,7.2-2.95,4.35-3.7,5.2a14.815,14.815,0,0,1-3.4,2.05,52.782,52.782,0,0,1-7.9,3.05q-5,1.5-9.2,2.6a34.651,34.651,0,0,1-16.45.05q-8.95-1.95-10.85-2.25a3.186,3.186,0,0,1-2.4-1.25,7.076,7.076,0,0,1-.8-1.75,9.172,9.172,0,0,1-.35-1.9,26.6,26.6,0,0,1-.15-3.3,21.273,21.273,0,0,1,.3-3.5q2.249-15.7,2.8-19.9m3.95-8.2q-2.8.8-2.7.15a4.315,4.315,0,0,1,3.85-4.05l20.85-4.95q7.849-1.8,8.35-1.35a11.6,11.6,0,0,1,1.1,1.35q.65.849-9.5,3.3t-21.95,5.55m20.65-12.15q1.9.95-5.1,2.6-7,1.6-6.15.3.8-1.35,5.1-2.6,4.249-1.3,6.15-.3m35.7,16.65q2.6-5.7,4.9-9.8a11.3,11.3,0,0,1,6.15-5.45,16.3,16.3,0,0,1,6.7-1.1q2.8.249-.75,3.3-3.6,3-4.8,4-7.1,5.749-6.1,19.95.5,11.4-9.3,16-1.1.649-3.15,1.6-2.4,1.149-.75-1.15,3.8-5.951,4-7.45a6.2,6.2,0,0,0-1-4.3,85.26,85.26,0,0,1-4.4-7.7q-1.1-2-.7-2.6.3-.6,2.5-.6,4.6.1,6.7-4.7m-66.45,13.6a9.648,9.648,0,0,1,1.15,5.7q-.351,2.3-.75,6a22.236,22.236,0,0,0-.1,6.3,3.889,3.889,0,0,1-.2,2.85q-.651.949-3.45,1.1t-9-2.05q-6.7-2.4-9.2-7.9-1.9-5.5,2-11.6,3.8-6,9.6-6.8a8.258,8.258,0,0,1,5,.65,11.333,11.333,0,0,1,4.05,4.25q.5.8.9,1.5"/></svg>