<svg overflow="visible" width="100%" height="100%" viewBox="0 0 114.874 64.851" xmlns="http://www.w3.org/2000/svg"><path d="M17.5,32.4q-1.1.8-1.7,4.15-.6,3.3-1.15,6.55t-3,3.05a2.672,2.672,0,0,1-2.7-2.55Q8.7,41.3,7.9,40.8q-.7-.5-3.1-.1-3.5.6-4.1,1.4-.7.8-.7,4.3l.2,7.9q0,1.8,1.3,1.8,1.65-.05,1.5-2.7-.2-2.7-.5-6.5-.2-2.8,2.1-3.2,1.3-.3,1.8.5a6.6,6.6,0,0,1,.5,2.2,2.483,2.483,0,0,0,1.15,2.15q.949.45,5,.1.9-.1.6,2.05-.3,2.1-.6,4.4-.35,2.3-.55,3.5a1.285,1.285,0,0,0,2.45.6q.551-.95,1.45-7.55Q17.3,45,18.3,38.9q.5-3.549,2.7-3.65a7.427,7.427,0,0,1,3.95.9Q26.7,37.1,26.6,40.8q-.1,3.651-.25,7.1-.2,3.4,2.65,3.65,2.8.25,5,.4T36.2,53a22.141,22.141,0,0,1-.15,2.25,25.461,25.461,0,0,0-.1,3.35q0,1.95,1.05,1.75,1.1-.2,1.2-1.05l1-8.9q.4-3.1,1.2-3.6.7-.5,3.8.1a2.8,2.8,0,0,1,2.2,1.3,13.879,13.879,0,0,1,.7,3.4,7.953,7.953,0,0,0,1.3,3.9q.9,1,4.8.8,3-.1,2.8,2.85-.251,2.9-.3,4.15t.85,1.5a1.31,1.31,0,0,0,1.4-.45,4.043,4.043,0,0,0,.4-2.7,34.272,34.272,0,0,1-.1-4.6q.05-2.55,1.9-3.3a10.488,10.488,0,0,1,5-.4q3.1.351,3.4,3.95.15,1.7.3,4.1t1.55,2.35c.367-.033.683-.066.95-.1q1.05-.2.9-1.45-.049-1-.25-2.7-.4-3.9-.9-6.8t-.9-5.8a11.12,11.12,0,0,1-.2-3.75q.251-.8,2.6-.9a21.223,21.223,0,0,1,3.6,0,1.37,1.37,0,0,1,1.4,1.3q.1,1.15.15,3.2t.05,8.35q-.1,1.9.95,1.95,1.451-.15,1.45-1.2t.05-2.75a6.577,6.577,0,0,1,.2-2.15q.2-.4,2.7-.45,2.45-.1,2.55,3a25.691,25.691,0,0,0,.65,4.5q.55,2.4,1.95,2.1,1.4-.2,1-2.25t.3-2.45a5.608,5.608,0,0,1,1.3-.15q1-.05,2.7-.2a4.633,4.633,0,0,0,2.1-.55q.4-.349.1-2.5l-1-9.3a5.725,5.725,0,0,1,.1-2,1.775,1.775,0,0,1,1.6-1.1,1.816,1.816,0,0,1,2,.8,5.113,5.113,0,0,1,.5,2l1.8,17.3q.3,1.65,1.6,1.3a1.623,1.623,0,0,0,1-1.9,19.589,19.589,0,0,1-.2-2.5,1.527,1.527,0,0,1,1.15-1.45,2.234,2.234,0,0,1,2.1.15,2.749,2.749,0,0,1,1.25,2,2.971,2.971,0,0,0,.8,1.9,2.667,2.667,0,0,0,2.3.4,2.292,2.292,0,0,1,2.15.3,1.815,1.815,0,0,0,1.25.4q.8-.05.65-1-.2-.95-.3-1.5a4.6,4.6,0,0,0-.35-1.15q-.251-.6-2.55-.1T109,54.3a2.622,2.622,0,0,0-3.25-2.5q-2.85.3-3.05-2.1l-.9-8.8q-.2-3.2-2.4-4-3.7-1.3-5.9.4-2.1,1.8-1.7,5.6l.95,8.25q.3,1.7-1.45,1.8-1.8.15-2.05-.6a12.792,12.792,0,0,1-.55-2.75q-.3-2.049-3.55-2.05Q81.9,47.5,81.1,46.7t-.75-4q.049-3.2-1.2-3.55a18.72,18.72,0,0,0-5.3-.2Q69.8,39.1,69.7,38t-.4-4.4q-.1-7.9-.3-11.9a15.022,15.022,0,0,0-.7-4,5.986,5.986,0,0,0-2.8-3.2q-1.1-.8-1.1-3.4.4-5.9.5-7.65a3.788,3.788,0,0,0-.55-2.6A1.965,1.965,0,0,0,63.1,0q-.6-.1-1.2,2.1-.8,5.6-1.1,10.3-.2,3.3-2.3,4.6-3.4,2.3-3.2,7.4l1.1,22.8a28.992,28.992,0,0,1,.05,3,4.856,4.856,0,0,1-.45,2.25q-.4.6-2.35.8a4.786,4.786,0,0,1-2.75-.35,3.111,3.111,0,0,1-1-2.4,11.38,11.38,0,0,0-.8-3.4q-.8-2.2-4.8-3.4-4-1.3-5.8.1a5.647,5.647,0,0,0-1.4,2.9,16.127,16.127,0,0,0-.3,1.95q-.1,1.05-1.6.7a23.082,23.082,0,0,0-3.15-.5,2.763,2.763,0,0,1-2.2-1.05,6.44,6.44,0,0,1-.4-3.2,48.439,48.439,0,0,0-.2-7.2q-.349-3.05-2.7-3.8t-5.1-1.35Q18.7,31.6,17.5,32.4M65.35,19.3a5.386,5.386,0,0,1,.2,2.7q-.3,1.251-2.6,1.15-2.35-.1-2.85-1.55a2.851,2.851,0,0,1,1-3,2.971,2.971,0,0,1,3.1-1,2.578,2.578,0,0,1,1.15,1.7m0,6.75q-.1,1.35-.85,1.65-1.1.4-1.3-1.35a1.208,1.208,0,0,1,1.05-1.5q1.35-.3,1.1,1.2m-.65,4.6q1.15-.249,1.3,1.25.15,1.451-.95,1.7t-1.3-1.25q-.2-1.5.95-1.7m1.55,5.45q0,1.5-1.05,1.8-1.1.3-1.3-1.2-.251-1.55.95-1.8,1.35-.3,1.4,1.2m-6.4,1.3q-.05-1.55,1.15-1.8,1.35-.3,1.35,1.15a1.652,1.652,0,0,1-1.2,1.8q-1.249.351-1.3-1.15M60.6,34q-1.05.3-1.1-1.15-.1-1.449,1.1-1.7,1.35-.3,1.2,1.15A1.825,1.825,0,0,1,60.6,34m.75-7.1a1.757,1.757,0,0,1-1,1.7q-.9.351-.9-1.15-.05-1.5,1.05-1.75,1.1-.3.85,1.2m-.3,16.85q-1.2.051-1.4-1.45-.2-1.55,1-1.8,1.35-.3,1.45,1.45t-1.05,1.8m-.3,5.85q-1.3-.1-1.1-1.8.15-1.7,1.1-1.65.95,0,1.15,1.8.15,1.751-1.15,1.65m3.75-1.45q0-2.2,1.2-2.25,1.249-.05,1.6,2,.3,2-1.25,2.25-1.6.2-1.55-2m2.25-6.55a1.921,1.921,0,0,1-1.25,2.1q-1.3.4-1.3-1.4-.05-1.85,1.15-2.1,1.35-.3,1.4,1.4"/></svg>