<svg overflow="visible" width="100%" height="100%" viewBox="0 0 116.043 113" xmlns="http://www.w3.org/2000/svg"><path d="M54.478,1.881q-19.4-4.6-32.5,2.05t-15.7,19.55q-2.6,12.851-.7,22.5,1.85,9.649,2.25,10.9a13.889,13.889,0,0,1,.55,2.35q.1,1.05-1.4.9a20.841,20.841,0,0,0-2.4-.05,4.3,4.3,0,0,0-4.2,3.5q-1.1,4.1,1,4.9a3.9,3.9,0,0,1,2.6,2.6,13.174,13.174,0,0,1,.3,3.5q0,7.5.2,10.6a47.149,47.149,0,0,0,1.8,10.5q.9,3.4,3.1,4.1,4.5,1.7,13.2,5.6a56.475,56.475,0,0,0,13.8,4.1q2,.3,10.8,1.8a100.85,100.85,0,0,0,10.7,1.5,84.814,84.814,0,0,0,24.7-1.9,139.8,139.8,0,0,0,22.9-6.3q6.4-2.4,6.4-7.8-.2-12.8-.3-16.7-.049-1.3-.15-2.3-.1-2.651,1.15-3.15a6.538,6.538,0,0,0,3.2-4.85q.7-3.5-.45-4.9a5.494,5.494,0,0,0-3.15-1.85,25.872,25.872,0,0,0-5.85-.4q-1.3.05-1.4-1.05-.049-.5-.1-1.1-.45-4.249-.7-6.35l-1.55-13.95q-2.5-17.749-9.25-22.9a98.138,98.138,0,0,0-12.6-8.4,42.617,42.617,0,0,0-12.7-4.45q-6.849-1.3-13.55-2.55m-1.2,4.7a86.783,86.783,0,0,0-27.1,1q-8.2,1.6-11.3,7.4a41.5,41.5,0,0,0-5,20.5q.2,13.1,3.1,20.5,1,3.1-.8,3.9-.7.349-1.2-1.2-.649-3-2.1-8.55-1.5-5.85-.2-22.85a20.973,20.973,0,0,1,1.8-7.6q4.5-11.1,17.9-15.1,9.8-2.8,23.1-.6,7.1,1.3,16.75,3.6t15.45,6.35a96.648,96.648,0,0,1,8.95,6.95q3.15,2.85,4.95,10.5a98.615,98.615,0,0,1,2.2,11.7l1.5,12.4q.15,1.249.6,3.9.251,1.55.45,2.5.15.9-.3.9-.7,0-1.25.05-.6,0-.6-.7-.15-1.55-.5-4.15-1.2-7.65-3.1-15.85-1.9-8.25-3.5-13.05a17.5,17.5,0,0,0-4.6-7.55q-3-2.749-6.25-5.5t-12.85-5.75a87.41,87.41,0,0,0-16.1-3.7m-27.5,4.2q13.5-2.5,21.6-1.9,17.3,1,29.7,7.4,4.4,2.6,5,3.1,9.5,8.7,10.8,18.4.1.8,2,9.2.3,1.6.55,2.9.2,1.249,1.3,6.7.6,3.049.8,4.7.2,1.6-.45,1.8l-10.5.7q-26.1.8-65.9-2.8a4.806,4.806,0,0,1-2.7-.8,5.417,5.417,0,0,1-1.6-2.4,73.613,73.613,0,0,1-3.4-16.9,51.325,51.325,0,0,1,2.7-21q2.6-7.9,10.1-9.1m-21.8,52.6a7.662,7.662,0,0,1,2.9-.4l30.7,2.4q11,.9,18.3,1,8.9.2,21.9-.1,7.2-.1,14.75-.35,7.55-.3,13.25-.55t6.5,1.6a5.235,5.235,0,0,1,.35,3.35q-.45,1.45-3.55,2.65a54.945,54.945,0,0,1-6.2,1.7q-13.8,2.3-34.1-.2-16-1.9-32.1-3.6l-29.1-3.2a9.578,9.578,0,0,1-3.8-1.2,1.428,1.428,0,0,1-.8-1.6,1.484,1.484,0,0,1,1-1.5m2.8,10.3q-.1-2.6.4-3a7.619,7.619,0,0,1,3.2,0l5.3.6q1.549.2.3,1l-7.45,4.9q-1.451,1.05-1.5-.45-.25-2.55-.25-3.05m4.95,4.9q1.4-.851,4-2.6.75-.55,1.4-1,1.3-.8,1.8-.3l1.75,1.75q1.2,1.2,3.55,3.45,2.3,2.2,1.35,2.8l-7.5,3.7a2.417,2.417,0,0,1-3.45-.9q-1.3-1.8-3.3-4.8a1.243,1.243,0,0,1,.4-2.1m-2.1,3.55q1.05,2,1.95,3.55a6.045,6.045,0,0,1,.9,2.6,1.561,1.561,0,0,1-.85,1.55q-.95.5-1.95,1.15-1.4.9-1.5-.3-.35-2.449-.9-6.3a3.93,3.93,0,0,1,.45-3.1q.75-1.151,1.9.85m5.2,9.4a2.209,2.209,0,0,1,1.15.45,52.881,52.881,0,0,1,7.35,9.5q.7,1.1-1.95.2-4.55-1.55-7.35-2.8a19.609,19.609,0,0,1-4.3-2.35,5.907,5.907,0,0,1-.85-1.05,1.478,1.478,0,0,1-.05-1.05q.15-.8,2.45-1.85a8.112,8.112,0,0,1,3.55-1.05m26.8-11.9,1.9,1.95q3.251,3.3,3.05,4.7-.2,1.3-4.6,3.7-1.9,1-5.05-1.85t-3.9-3.35a1.745,1.745,0,0,1-.9-1.25.84.84,0,0,1,.5-1q.55-.251,4-2.3,3.45-2.1,5-.6m1.95-5.1q2.65-.049,13.55,1.05,2.4.2.9,1.2-2.9,2.3-5.4,4.35-.8.6-1.75,1.45-1.6,1.249-2.75,0-3.8-4.2-5.15-5.5a8.057,8.057,0,0,1-.95-1q-1.4-1.7,1.55-1.55m-10.5,4.8q-3.2,1.95-6.6-1.3t-5.15-4.75q-1.8-1.549,1.6-1.25l2.85.25q7.35.8,10.8,1.25,3.45.4,1.6,2.15a35.351,35.351,0,0,1-5.1,3.65m-3.4,6.25,6.4,5.5q1.849,1.45.95,1.95l-9.15,5.75q-1.8,1.2-3.3-.7l-4.6-5.8q-1.4-1.9-1.3-2.4.1-.6,2-1.6l5.95-2.75q2-.851,3.05.05m-.5,15.8q2.1-1.6,3.2-2.45a39.1,39.1,0,0,1,4.7-2.75q2.8-2,5.1.4,3.3,3.4,4.6,4.75t1.85,1.95q.55.6-.4,1.25t-2.25,1.65q-2.45,1.85-3.7,1.6l-10.95-2.1a5.308,5.308,0,0,1-3-1.45q-1.249-1.2.85-2.85m24.5-17.1q.7-.6,1.3-1.1,1.55-1.4,5.2-4.2,2.051-1.6,3.05-.7.951.9,2,2.05,1,1.15,1.95,2.15l4.3,4.65q1.35,1.3.35,2.55a22.179,22.179,0,0,1-5.65,4.9q-.8.4-1.3.7a2.971,2.971,0,0,1-4-.5l-7.4-7.3q-1.8-1.7.2-3.2m-3.8,4.3q1.2,0,3,1.7,1,1,2.9,3.1,3.3,3.2,3.1,4.1-.1.9-4.5,2.9-3.1,1.5-5.2-.8-1.05-1.151-5.65-5.45-1.45-1,.1-2.05,1.151-.8,2.65-2a7.005,7.005,0,0,1,3.6-1.5m6.05,16.7q-.9-.7-1.4-1.05-.849-.649,2.15-2.1a19.7,19.7,0,0,1,4.7-1.75,3.23,3.23,0,0,1,2,.8q.6.45,1.65,1.3.15.15,1.35,1.05,1.15.85,3.9,3.1.3.251.85.75.5.45-.2,1.15a10.934,10.934,0,0,1-1.35,1.1,3.533,3.533,0,0,1-1.4.5q-.8.1-1.4.15-1.55.1-3.05.1a4.628,4.628,0,0,1-2.7-1.15,4.836,4.836,0,0,1-.4-.35q-1.4-1.15-2.2-1.75-1.2-.95-2.5-1.85m-5.6,1.15a2.176,2.176,0,0,1,2.5-.2q1.5,1.05,3.7,2.75,1.95,1.4.85,1.3a73.412,73.412,0,0,1-8.85-1.2q-1.5-.3-.7-.95.45-.3,1-.65.8-.6,1.5-1.05m38.65-25.4q-1.2-1.2-.7-1.55a2.124,2.124,0,0,1,.75-.45,15.59,15.59,0,0,1,1.8-.05q1.551-.049,4.45-.45,2.8-.4,10.6-1.75,2.051-.45.9,1-3.9,4.6-6.7,7.4-2.2,2.2-3,2.2-.7.1-2.9-1.9l-5.2-4.45m-7.05-2.75q3.15.25,1.7,1.65-3.949,3.65-4.85,4.35a13.924,13.924,0,0,1-3.2,2.1,13.183,13.183,0,0,1-2.7-2.3q-2-2-5.85-5.45-2.349-2.3-.3-2,12.05,1.35,15.2,1.65m-8.25,13.8q1.9-1.7,3.8.6l4.6,5.5q1.1,1.45.05,2.2-1.1.7-2.05,1.35-2,1.35-4.45,3.15a2.609,2.609,0,0,1-3-.1q-1.6-1.2-2.9-2.15-1.6-1.2-3.4-2.5t1.8-3.85q3.6-2.55,5.55-4.2m17.5-5.7q3.4,3.1,3.4,3.6.1.7-3.3,4.1l-.4.3q-2.7,2.3-3.8,2.3-1.1.1-3.7-2.2l-4.3-4.1q-1.6-1.4.2-2.9,2.9-2.3,5.2-4.3l.5-.5q1.35-1.3,2.5-.15l3.7,3.85m-9.2,17.6q1.25-.9,2.3-1.7,2.1-1.6,6.25,1.4c.1.067.217.15.35.25q2.55,1.8,1.4,1.8-3.251.9-5.3,1.35-3.1.7-6,1.25-.15.05-.95.2a2.773,2.773,0,0,1-1.75-.3q-.95-.45-.95-.7t1.7-1.45q1.7-1.2,2.95-2.1m8.95-4q-1.3-1.15,1.8-3.75,3.05-2.65,3.8-3.45t3.45,1.65q2.7,2.449,5.9,5.3,1.3,1.05.2,1.55-.65.3-1.5.6-3.6,1.2-5.8,1.85t-3.1.1a16.068,16.068,0,0,1-1.55-1,13.41,13.41,0,0,1-1.3-1.15q-.65-.649-1.9-1.7m16.05-18.3q1.751-2.4,1.8-.55l.1,14.55q0,.75-.05,1.4,0,1.6-1.3.25-2.9-2.5-6.45-5.65a2.166,2.166,0,0,1-.1-3.4q2.9-2.9,6-6.6m-34.1,28.1a2.284,2.284,0,0,1,1.55-.9,1.22,1.22,0,0,1,1.55.6q-3.25.6-3.1.3"/></svg>