<svg overflow="visible" width="100%" height="100%" viewBox="0 0 90.994 115.829" xmlns="http://www.w3.org/2000/svg"><path d="M1.986,63.229a13.918,13.918,0,0,0-1.9,9.1q.3,3.4,1.6,21.7.8,10.6.8,15.8a4.226,4.226,0,0,0,2.9,4.4,15.321,15.321,0,0,0,5.55.75l70.35.85a18.349,18.349,0,0,0,5.75-.65q1.4-.6,1.95-2.95a32.991,32.991,0,0,0,.6-6.65q0-4.251.6-15.65.6-12.6.8-17.9a79.233,79.233,0,0,0-1.1-10.8q-.4-3.6-4.4-4.6a40.059,40.059,0,0,0-7-.5,4.4,4.4,0,0,1-2.6-.6,2.519,2.519,0,0,1-.8-2.4q.3-25.1,1.75-37.8,1.4-12.7.1-13.9a5.314,5.314,0,0,0-3.1-1.4,2.582,2.582,0,0,0-2.65,1,2.034,2.034,0,0,0-.3,2.25,3.686,3.686,0,0,0,1.95,1.7,3.45,3.45,0,0,1,1.85,2.65,13.487,13.487,0,0,1,0,4.1q-.5,6.3-1.8,19a140.646,140.646,0,0,0-.6,19.2,35.042,35.042,0,0,1-.1,4.4q-.4,2.2-3.2,2.1l-59.9,2.6a8.381,8.381,0,0,0-7.1,4.2m1,5.8q.7-3.9,1.9-5.1,1.2-1.3,4.9-1.8,13.7-.9,35.7-1.8,28.6-1.1,35.7-1.5,3.1-.1,4.4.9,1.4,1.1,1.7,4.2a122.211,122.211,0,0,1,.6,16.3q0,2-.5,12.2-.4,7.4-.35,10.8a12.12,12.12,0,0,1-.8,5.2,8.507,8.507,0,0,1-2.55,3.05,6.169,6.169,0,0,1-4,1.25l-71-.6a4.669,4.669,0,0,1-3.1-1.1q-.7-.8-.8-3.4l-.9-25.8q0-1.5-.6-6.4a32.477,32.477,0,0,1-.3-6.4m60.8,18.3q-4.7-.4-5.6.6-1,.9-.7,10.15a28.591,28.591,0,0,0,.25,3.75l.05.5a2.246,2.246,0,0,0,.3.8,1.087,1.087,0,0,0,.8.5q.4.1,5.85.5a53.487,53.487,0,0,0,8.55.1q6.7-.4,8.1-2.1,1.5-1.7.8-8.4-.4-3.2-1.4-4.2t-4.1-1.2l-12.9-1m-3.1,3.9q.4-1.4,2.6-1.1l13.3,1q2.5.1,2.5,2.9.2,5.6-.2,6.1t-5.5,1.1a52.433,52.433,0,0,1-7.1-.1q-2.2-.1-3.85-.15-2.149-.1-2.1-1.45v-2.55q-.05-1.851,0-2.35a25.794,25.794,0,0,1,.35-3.4m18.4-9.8q1.6-2.2-.1-5.7t-4.5-3.8q-6.3-.7-11.3-.8-3-.1-3.9.9a4.455,4.455,0,0,0-.85,3.15q.051,2.1.05,3.35a4.383,4.383,0,0,0,.9,2.6q.949,1.4,6.3,1.55t8.95.15q3.55,0,4.45-1.4m-6.5-6.85a8.1,8.1,0,0,1,2.6.45,1.766,1.766,0,0,1,1.05,1.4,13.674,13.674,0,0,1,.3,2.55q.051,1.449-1.05,1.45-1.149-.051-3.35-.1-1.05-.051-4.8-.25-3.7-.25-3.95-.3-1.449-.1-1.7-.65a3.368,3.368,0,0,1-.3-1.05,9.322,9.322,0,0,1-.05-1.8,2.805,2.805,0,0,1,.5-1.75q.45-.5,4.7-.3t6.05.35m-1.1,3.05q-.3-1.251-2.5-1.5-2.25-.3-2.85,1-.649,1.249,2.5,1.5,3.15.2,2.85-1m-31.2-9.7a23.751,23.751,0,0,0-12.5-3.5,18.276,18.276,0,0,0-4.6,1,20.353,20.353,0,0,0-4.2,2q-5.9,3.9-7.1,7.9-4.95,16.55,10.3,24.3a24.439,24.439,0,0,0,5.4,1.95,25.973,25.973,0,0,0,7.75.65q13.151-.951,14.95-14.7a13.223,13.223,0,0,0,.05-5.5,23.39,23.39,0,0,0-1.2-3.5,16.652,16.652,0,0,0-.85-1.8,23.461,23.461,0,0,0-8-8.8m-7.7,9.2q7.4.05,9.65.05a9.765,9.765,0,0,1,3.05.25,1.812,1.812,0,0,1,1.1,1.65q.2,1.3-8.3,1.05t-23-.5q-2.3-.051-1.65-1.3.6-1.251,6.15-1.25,5.5,0,13,.05m4.8-7.1q1.5.849-6.95.85-11-.051-8.65-1.4,7.9-4.45,15.6.55m-6.9,3.1q10,.2,11.75,1.15t-.25.85l-24.9-.5q-2.8-.1.3-.9,3.1-.85,13.1-.6m-16.9,9.7a8.919,8.919,0,0,1,3.6-.5q9.2-.1,27.2.1a8.454,8.454,0,0,1,2.4.2,1.6,1.6,0,0,1,1.2,1.35,1.707,1.707,0,0,1-.25,1.25,1.287,1.287,0,0,1-.6.3q-.35,0-9.9-.15-9.549-.2-16.6,0-7.05.15-7.55-.95a1.073,1.073,0,0,1,.5-1.6m6,12.3q-4.449-2.55,4-2.45,8.4.1,15.55.2,7.1.1,6.65,1.2a5.121,5.121,0,0,1-1.9,2.05,16.824,16.824,0,0,1-5.15,1.85,29.274,29.274,0,0,1-9.2.2,24.873,24.873,0,0,1-9.95-3.05m-4.65-5.45a1.021,1.021,0,0,1-.15-1.55q.6-.8,13.25-.65t17.05.15h.6q2-.15,1.95.6a2.476,2.476,0,0,1-.5,1.35q-.5.549-7.8.7-7.35.15-15.45.15-8.1-.051-8.95-.75"/></svg>