<svg overflow="visible" width="100%" height="100%" viewBox="0 0 116.393 104.516" xmlns="http://www.w3.org/2000/svg"><path d="M91.958,16.932q-3.95-3.051-6.95-5.55-3.05-2.5-12.55-7.1A38.461,38.461,0,0,0,53.808.032q-24,1.449-40.4,21.35-16.7,20.2-12.6,43.8,3.1,19.4,18.9,30,14.6,9.9,35,9.3,25-.2,42.5-10.3,21.9-12.6,18.8-35.5a52.065,52.065,0,0,0-10.85-26.75q-9.3-12-13.2-15m-33.9-13.5q3,.5,5.05.7a49.634,49.634,0,0,1,8.35,2.3q6.3,2.049,21.1,15.4a62.542,62.542,0,0,1,19.35,32.85q4.5,19.4-9.4,32.4-7.5,7.1-20.15,10.85a102.628,102.628,0,0,1-25.2,4.15q-12.551.45-20-1.75a63.131,63.131,0,0,1-14.15-6.25q-14.3-8.6-18.9-26.3-5.2-20.5,7.9-39.7,12.5-18.4,33.3-24.2a62.356,62.356,0,0,1,6.9-.8q.6,0,1.7-.05a19.953,19.953,0,0,1,4.15.4m32.45,69.45q2.2-4.551.9-5.5t-2.8,3.55q-1.549,4.5-7.5,9.6-6,5.1-17.45,6.05-11.449,1-18.05-5.9t-8.1-9.9a12.359,12.359,0,0,0-2.1-3.4.834.834,0,0,0-1.1.15q-.6.45-.4,1.65a20.308,20.308,0,0,0,3.4,6.3q1,1.3,4.6,5.4,6.5,7.5,18.95,8.55,12.4,1,19.9-5.5,7.55-6.551,9.75-11.05m-38.3-20.15q1.35-.3,1.3-1.45l-2-15.2a1.669,1.669,0,0,0-.55-1.2,1.426,1.426,0,0,0-1.35-.4q-.8.1-.65,1.95.75,7.6,1.3,12.05.55,4.5,1.95,4.25m13.55-15.8a7.031,7.031,0,0,0-.35,2q-.1,2.2-.7,6.7a27.748,27.748,0,0,0-.2,5.45q.2,1.55,1.05,1.6a1.247,1.247,0,0,0,1.25-.65,6.563,6.563,0,0,0,.6-2.3l.7-11.5q0-1.4-1.05-1.65t-1.3.35"/></svg>