<svg overflow="visible" width="100%" height="100%" viewBox="0 0 116.325 97.619" xmlns="http://www.w3.org/2000/svg"><path d="M116.25,7.769a27.185,27.185,0,0,0-.75-3.15q-.6-1.9-5.1-2.9A60.735,60.735,0,0,0,93.7.019q-3.6,0-16.8,1.1a99.63,99.63,0,0,0-11,1.6q-6.1,1.2-7.45,1.65a1.691,1.691,0,0,0-1.3,1.8q0,1.35.1,3.1t.2,3.75q.049,2,.55,6,.3,2.3,1.1,7,.4,2.5.8,7.4.4,4.85.4,6.2-.049,1.3-.2,4.15a41.891,41.891,0,0,1-.55,5.1q-.45,2.2-1.6,6.3t-1.9,4.4a8.584,8.584,0,0,1-2.95.05q-31.9-3.9-49.1,11.3Q.1,74.32.05,78.169q-.1,3.8,0,6.1t.55,5.75q.3,3.9,13.4,4.7,31.05,2.25,43.9,2.1,12.8-.2,18.5-.25,5.7-.1,14.9.45l14.8.6q4,0,3.9-2.7a11.543,11.543,0,0,1,.9-4.4,37.955,37.955,0,0,1,2-3.8,15.843,15.843,0,0,0,.7-8.9,16.9,16.9,0,0,0-4-8.1q-5.2-6.1-5-10.4a108.891,108.891,0,0,1,4.2-20.5q2-7,6.3-20.2a24.742,24.742,0,0,0,1.15-6.25,33.291,33.291,0,0,0,0-4.6m-6.05-3.35a3.711,3.711,0,0,1,2.6,2,2.577,2.577,0,0,1-.4,2.9,33.207,33.207,0,0,1-3.3,3.4,10.768,10.768,0,0,1-4.4,2.3q-12.5,3.4-29,3.1a26.585,26.585,0,0,1-8.6-1.5q-4.3-1.6-5.95-3.65-1.7-2.05-1.35-6.05.05-.8,1.8-1t15.35-2.05Q90.5,2.019,97.5,2.419a116.086,116.086,0,0,1,12.7,2m3.7,9.25a14.712,14.712,0,0,1-.9,4.35q-7,20-7.9,23a73.193,73.193,0,0,0-1.7,7.7q-.5,2.6-1.3,7.7-1.3,7.8,1.6,10.9a54.2,54.2,0,0,1,4.4,5.2q5.651,7.249,1.25,14.8-.7,1-3.95,1.05-1.95-.049-4.95-.1-8.051-.049-30.55-.25-24.3-.2-35-.6-8.6-.2-19.45-1.35T3.9,84.269a2.324,2.324,0,0,1-.8-1.35,18.97,18.97,0,0,1-.1-5.8,8.466,8.466,0,0,1,3.3-5.1q10.9-8.2,22-9.4a6.372,6.372,0,0,1,2.7.1,3.334,3.334,0,0,1,1.7,2.5,8.075,8.075,0,0,0,1.4,2.7q.7.9,1.9,2.35,1.2,1.4,2.2.65,1.3-.9-.7-3.5a29.66,29.66,0,0,1-2.2-2.85q-.6-1-.25-1.3a3.842,3.842,0,0,1,1.9-.55q1.549-.251,2.75,1.8,2.4,3.7,2.95,4.6t1.85.4q1.249-.7.4-2.1l-2.65-4.5q-.4-.6,1.05-.8,3-.349,4,.3a24.144,24.144,0,0,1,3,4q.1.1,1.7,2.9,1,1.7,2.5.7,1.1-.7.1-2.3a13.733,13.733,0,0,1-1.9-2.7,2.98,2.98,0,0,1-.6-1.7q0-.7,3.25-.95a12.675,12.675,0,0,0,2.55-.4,1.1,1.1,0,0,0,.6-.75q1-3.8,1.45-5.55.4-1.8,1.65-1.5,1.2.3.75,2.1a21.1,21.1,0,0,1-1.8,4.4q-1.35,2.55-1.95,3.8-.649,1.2.5,1.65a2.165,2.165,0,0,0,1.3,0q.7-.2,2.75-4.2a141.934,141.934,0,0,0,5.95-15.1q4.1-12.8,7.15-22.4.75-2.4,1.05-3.5,13.05-.2,17.2-.7,11.9-1.5,17.7-6.55,1.8-1.451,1.7,0m-40.45,9.75q-.15.35-1.1.2-1-.15-1.8-.25-8.55-1.35-9.15-2.15a10.353,10.353,0,0,1-.6-3.55q.05-1.35,1.2-.55,5.749,3.7,10.9,3.8,1.3,0,1.05.9a3.834,3.834,0,0,0-.25.85q-.1.35-.25.75m-1.15,3.9-.6,2.1q-.2.75-1.65.7-2.9-.3-4.5-.45a4.731,4.731,0,0,1-2.25-.55,2.271,2.271,0,0,1-.9-1.9,1.519,1.519,0,0,1,.8-1.7q.5-.2,8.3.95,1.05.049.8.85m-8,5.35a9.165,9.165,0,0,1,2.9.05,7.663,7.663,0,0,1,1.95.55q1.35.551.9,1.7-.7,2.149-1.4,4.4-.3,1.45-1.95,1l-1.8-.55q-1.9-.4-2-1.9a20.2,20.2,0,0,0,0-2.9q-.3-2.2,1.4-2.35m1.2,10.05q2,.2,1.45,2.35-.6,2.1-1.4,4.4a6.768,6.768,0,0,1-1.25,2.6,3.161,3.161,0,0,1-1.9-.1q-1.45-.35-.9-2.35a50.743,50.743,0,0,0,1.1-5,2.01,2.01,0,0,1,1-1.6,4.487,4.487,0,0,1,1.9-.3m-30.1,51q-3.9,0-9.9-.6t-8.35-.8q-2.4-.2-3.45-.2-1.1-.049-3.25-.1a28.929,28.929,0,0,1-4.2-.4q-2.1-.35-2.1-3.75a17.227,17.227,0,0,0,3.85.55q4.7.2,11.9.9a103.46,103.46,0,0,0,12.15,1l69.15,1.1q2.55,0,4.4-.05,2.75-.049,2.4,1.05a3.054,3.054,0,0,1-.6,1.6q-.7.6-3.3.5-10.5-.1-20.85-.4-10.35-.35-23.75-.35-16.1-.049-24.1-.05"/></svg>