<svg overflow="visible" width="100%" height="100%" viewBox="0 0 93.095 116.54" xmlns="http://www.w3.org/2000/svg"><path d="M46.105,2.322q-22.9,1.5-36.4,2.1-5.55.351-7,1.6a5.473,5.473,0,0,0-1.75,2.2,7.883,7.883,0,0,0-.35,2.7,23.18,23.18,0,0,0,0,3.1q-.1,13.8-.6,41.1a368.62,368.62,0,0,0,1.8,41.1q.8,8.2,1.4,12.3.6,3.2,2,4.3,1.3,1,4.7,1.2,25,.8,53.1,1.85,28.05,1.05,28.95.45a2.532,2.532,0,0,0,1.05-1.2,11.743,11.743,0,0,0,.05-2.65q-.1-2.049-.15-4l-3.6-101.25q-.049-2.9-.1-5-.1-2.1-1.6-2.2t-8.15.25q-6.649.349-33.35,2.05m-36.5,9.5q12.3.1,32.2-.8,25.4-1,32.1-1.2,3.9-.1,5.9,1.5t2.5,5.4q1,16.6.8,42.7-.3,35.9-.2,42.7.1,3.2-.4,3.9-.7.7-3.7.6l-57.5-.9q-5.3-.2-6.5-.9-1.8-1.2-2-6.1-2.1-19.1-2.7-28.6-.7-10.7-1.3-28.8-.6-18.65-1-26.8-.1-2.8,1.8-2.7m7.5-4.9q9.5-.9,20.15-1.5l46.3-2.65q1.2,0,.45,1.05-.75,1.151-1.8,2.6a2.269,2.269,0,0,1-2.35,1.15,49.782,49.782,0,0,0-7.4-.3q-6.15-.05-17.45.45-3.4.2-22.7.8-14,.4-18.4.8-4.45.4-5.4.55-1,.15-.95-.95,0-1.149,9.55-2m69.2-.55q.7-.649.75.8,2.45,88.3,3,103.3.049,1.5-1.25,0a13.162,13.162,0,0,1-2.35-3.05q-.35-.649-.7-20.35-.4-19.749-.15-40t-.3-27.65q-.55-7.4-1.45-8.85-.65-1.149,1.15-2.95a15.45,15.45,0,0,1,1.3-1.25m-71.95,102.2q.6-.45,6.55-.2,5.9.251,58.7,1.25,1.849,0,3.25.1,1.35.05,2.35,2.05,1,1.95-.7,1.85l-64.4-1.95q-2.3-.049-4.95-.1-2.7-.1-2.05-1.35a4.458,4.458,0,0,1,1.25-1.65m-3.15-5.35q.75,4-.9,5.65-1.6,1.65-2.5,1.5a1.914,1.914,0,0,1-1.4-1.25,8.685,8.685,0,0,1-.5-2.1q-1.9-19.4-2.3-23.9-1.1-13.6-.9-24.1.2-5.6.2-22.7,0-14.3-.05-21.75t1.7-3.7q1.751,3.7,1.75,23.65,0,19.9.4,25.6,1.4,17.8,1.9,23.4,1.4,13.2,2.6,19.7m11.3-75.15a21.226,21.226,0,0,0-3.5,7.9q-1,4.4.5,13.75,1.4,9.4,2.55,16.7a18.7,18.7,0,0,1-3.05,13.75q-4.2,6.4.35,14.6,2.8,4.95,7.6,4.5a8.6,8.6,0,0,0,7.45-5.5,18.051,18.051,0,0,0,.7-11.6q-1.6-6.2-3.15-15.4-.4-2.2,1-.45a49.328,49.328,0,0,0,7.5,7.5,16.378,16.378,0,0,0,9,2.95,13.6,13.6,0,0,0,7.85-1.5q1.35-.8,1.15.55-.1,1.5-.05,4.1a81.664,81.664,0,0,0,.95,11q1.35,8.9,3.65,11.4,3.45,3.9,10.1-2.4,2.05-1.8,2.25-3,.1-1.249-1.7-3.2-2.9-3.15-2.15-8.3l3.15-19.8q1.15-7,1.7-10.55a47.859,47.859,0,0,0,.35-10.7,77.759,77.759,0,0,0-1.9-12.3q-1.9-6.95-7.3-9.45a110.662,110.662,0,0,0-13.1-6.45,26.3,26.3,0,0,0-11-1.1,23.212,23.212,0,0,0-12.5,5.05,41.859,41.859,0,0,0-8.4,7.95m25.05-5.3a20.525,20.525,0,0,1-3.7.1q-2.95-.1-3.6-.15a1.912,1.912,0,0,0-1.2.3,1.327,1.327,0,0,0-.65.8q-.1.45.6,1.05a2.293,2.293,0,0,0,.95.45q1.1.15,0,.9a24.206,24.206,0,0,0-3.85,2.95,22.468,22.468,0,0,0-2.85,5.3,52.524,52.524,0,0,0-3.55,10.55q-1.35,7.751-1.6,11.4a33.686,33.686,0,0,0,1.15,11.45q1.3,4.6,3.25,13.95a19.641,19.641,0,0,1,.2,9.2q-1.249,5.3-5.85,5.9-3.251.4-5.5-3.75-3.4-6.6.25-11.8a15.679,15.679,0,0,0,3.55-9.55,86.788,86.788,0,0,0-1.1-12.95q-1.35-9.55-1.9-15.65a22.646,22.646,0,0,1,2.05-11.75q2.55-5.6,10.8-10.8,8.2-5.25,18.65-2.05,5.15,1.65,14.7,7.5a10.163,10.163,0,0,1,3.75,5.85q3.349,10.9,1.45,24.3-1.451,10.45-4.85,31.2a7.652,7.652,0,0,0,1.6,6.25q2.149,2.6,2.35,2.9.15.3-2,2.05a16.109,16.109,0,0,1-4.1,2.5q-2.1.8-2.7-1.9-1.9-7.449-2.2-9.55a131.781,131.781,0,0,1-.35-14.7,1.66,1.66,0,0,1,.05-.4,5.34,5.34,0,0,1,1.6-3.7,27.593,27.593,0,0,0,4.85-5.55q3.7-5.85,3.45-10.3-.2-4.4-.3-7.2a32.5,32.5,0,0,0-1.25-7q-.75-2.25-2.9-7.45a9.793,9.793,0,0,0-2.5-3.6q-6.7-4.8-7.6-5.25a14.2,14.2,0,0,0-9.15-1.8M35.6,35.972q3.95-8.7,8.7-8.55a40.64,40.64,0,0,0,5.85-.05,1.54,1.54,0,0,0,1.35-1q.25-.8,1.55-.55a8.718,8.718,0,0,1,1.85.55q12.551,6.051,13.1,20.65.15,3.75.25,4.4a16.984,16.984,0,0,1-1.45,10.35,31.839,31.839,0,0,1-6.4,8.1,15.214,15.214,0,0,1-11.25,4.3q-4.151,0-8.45-3.65a69.169,69.169,0,0,1-5.65-5.15q-1.35-1.6-2.65-3.15-1.3-1.6-1-9.6a43.359,43.359,0,0,1,4.2-16.65m10.9,11.9q.649-.7-.1-2-.7-1.3-5.05-1.2-4.5.051-4.5,2.85,0,2.9,5,2.4a9.026,9.026,0,0,0,3.1-.75,6.534,6.534,0,0,0,1.55-1.3m-4.4.1q-2,.351-2.3-.1-.349-.5.35-.85a5.474,5.474,0,0,1,2.15-.4q1.5-.05,1.65.5.15.5-1.85.85m8.85,19.7q2,0,2.7-.05.7-.1.55-1.3-.15-1.3-2.3-1.3a23.6,23.6,0,0,1-4.3-.5q-2.149-.45-2.5-.5c-.233-.033-.367.2-.4.7a2.226,2.226,0,0,0,.25,1.25,1.967,1.967,0,0,0,1.05,1.05q.9.5,4.95.65m4.35-21.3q-1.2.1-1.2,1.8t.3,5.5a10.739,10.739,0,0,1-1.2,5.45,5.108,5.108,0,0,1-1.15,1.2q-.649.6.25,1.45.3.251,1.35-.1a4.042,4.042,0,0,0,1.55-.9,5,5,0,0,0,1.45-3.25q.05-1.15-.05-3.6-.15-2.9-.2-5.2-.05-2.349-1.1-2.35m10.35,0q-.2-2.25-3.85-2.45-3.349-.1-3.55,2.6t3.4,2.45q4.15-.35,4-2.6m-4-.6a2.7,2.7,0,0,1,1.75.3q.85.45-.05.85a3.623,3.623,0,0,1-2,.15q-1.1-.15-.8-.65a1.254,1.254,0,0,1,1.1-.65"/></svg>