<svg overflow="visible" width="100%" height="100%" viewBox="0 0 115.681 83.951" xmlns="http://www.w3.org/2000/svg"><path d="M24.075,31.654q-.8,1.451-.2,2.3a2.04,2.04,0,0,0,1.75.9q1.249,0,2.55-2.1a17.523,17.523,0,0,0,1.7-3.4,1.829,1.829,0,0,0-.3-1.9,1.439,1.439,0,0,0-1.35-.5,4.689,4.689,0,0,0-2.05,1.7,19.047,19.047,0,0,0-2.1,3m60.6,1.45q.8-.2,3.85,1.8,2.2,1.35,3.1,1.2l.2-.1a4.823,4.823,0,0,0,.85-1q.8-1.149-3.15-2.85-5.05-2.049-6.35-2.55-8.65-4.249-6.9-4.8a28.089,28.089,0,0,0,4.1-1.9,5.183,5.183,0,0,1,3.8-.3,2,2,0,0,0,2.45-.65q.95-1.2-1.3-1.8a51.284,51.284,0,0,0-5.05-1.05,11.563,11.563,0,0,1-2.7-.6,2.656,2.656,0,0,0,.7-.5q1.5-1.2.9-1.9a3.821,3.821,0,0,0-1.9-.9l-8-1.4,2.2-1a3.126,3.126,0,0,0,1.4-1q.5-1-.3-1.4a14.708,14.708,0,0,1-1.7-.5.64.64,0,0,1-.4-.6q1.3-2.5,0-3a19.767,19.767,0,0,0-3-.1l-5.5.4a19.189,19.189,0,0,1-5.3-.1,42,42,0,0,0-19.1.6,3.418,3.418,0,0,1-3.4-1q-4.9-6-9.8-6.1-5.5-.2-4.5,8.7.1,1-2.55,0a12.119,12.119,0,0,0-5.85-.6,32.683,32.683,0,0,0-5.05.6,6.55,6.55,0,0,0-2.55,1.35q-1.2.951-.9,1.95a4.465,4.465,0,0,1,0,2.3,6.754,6.754,0,0,1-1.8,2.9,2.068,2.068,0,0,0-.2,1.4,2.134,2.134,0,0,0,.5,1.3,3.1,3.1,0,0,1,1.1,2.1,4.45,4.45,0,0,1-.8,2.2,1.846,1.846,0,0,0-.2,1.3,2.134,2.134,0,0,0,.5,1.3,2.549,2.549,0,0,0,2.8.4q1.9-.6,1.8-1.9-.1-1.7,1.8-4.4,1.1-1.5-.1-2.5a6.22,6.22,0,0,0-2.9-.9,16.269,16.269,0,0,1,3.9-2.7q2.2-1.1,2.3-1.6.2-1.9,1.5-2.2a9.361,9.361,0,0,1,2.5.2,17.47,17.47,0,0,1,5.4,1.3,5.923,5.923,0,0,1,1.25.95q-.851.1-2.25,1.75a40.58,40.58,0,0,1-5.6,4.8,12.154,12.154,0,0,0-4.1,6.5q-2.4,11.1-8.7,17.8a6.229,6.229,0,0,0-1.6,3.4,7.293,7.293,0,0,0,.6,4.1q4.4,8.8,7.2,10.1,3.7,1.9,11.5-3.4,1.1-.8,2.1-5.1.8-3.7,2.6-4.2t4.3-1.3a4.413,4.413,0,0,1,3.6.1q7.2,6,9.4,11.3a27.042,27.042,0,0,1,2.2,8.1q.1.8.8,8.4a20.378,20.378,0,0,0,1.8,6.05q1.3,2.65,2.95,1.95,1.249-.4-.1-3.45a22.7,22.7,0,0,1-1.45-3.75q-1.5-12.7-3-17-2.7-7.3-10.6-13.7,6.6-2.4,9.7-3.9,5.4-2.7,5.65-5.2a7.415,7.415,0,0,0-.15-3.35.953.953,0,0,0-1.4-.5q-.949.4-1.1,2a5.134,5.134,0,0,1-2.3,3.15,18.212,18.212,0,0,1-4.3,2.3q-12.1,4.9-15.1,5.9a13.172,13.172,0,0,0-4.9,2.7,6.323,6.323,0,0,0-1.6,5.3q.1,1.4-2,3-2,1.5-2.8.7a2.107,2.107,0,0,0-2.25-.95,26.754,26.754,0,0,0-2.65.75q-1.2.4-1.4-.4a2.633,2.633,0,0,1-.2-2.2,3.91,3.91,0,0,0,.5-2.3q-.2-.8-1.5-1.2-2.6-.8-3.1-2-.6-1.2.7-3.2a10.445,10.445,0,0,1,1.5-1.6q1.1-1,1.6-1.5.9-.7,1.3-1,.7-.7.7-1.1a18.559,18.559,0,0,1,1.5-5.7,32.96,32.96,0,0,0,1.8-5.5,14.228,14.228,0,0,1,6.5-10,33.019,33.019,0,0,0,3.95-3.35,7.235,7.235,0,0,0,1-1.25,9.826,9.826,0,0,1,.5,1.8,2.773,2.773,0,0,0,.9,1.65q.7.6,1.1.35,1.6-1.05.9-2.1a14.632,14.632,0,0,1-1.45-4.7,7.646,7.646,0,0,0-2.2-4.4q-.5-.4-.65-2.45-.2-2.1.9-2.25,4.05-.2,8.15,3.9a69.217,69.217,0,0,1,4.7,5.5q2.351,3.1,4.1,2,.2-2.4,1.7-2.4a2.978,2.978,0,0,1,1.95.7,4.949,4.949,0,0,0,3.4.45q2.3-.3,2.95.35,0,1.7,1.2,2.1a7.544,7.544,0,0,0,2.3.1,30.242,30.242,0,0,1,9.6.9,7.072,7.072,0,0,0-.65,1.2q-.251.6-1.5.6a2.332,2.332,0,0,0-1.95.9q-1.5,2.351,4.6,1.7a58.39,58.39,0,0,1,9.7-.4,9.952,9.952,0,0,0-2.6,2.2q-.3.5.4,1.8a6.359,6.359,0,0,0,1.5,1.8q1.2,1.151-4.65-.45-5.9-1.6-6.5-1.3t-.45,1.4q.1,1.05,3.4,1.75,2.7.6,8,1.6a27.034,27.034,0,0,1,7.6,2.9q1.751,1.1-3.85,1.2-5.65.1-8.25-2.5a2.918,2.918,0,0,0-1.8-.9,1.925,1.925,0,0,0-1.9.8q-.4.7.5,1.6l8.4,7.9a95.83,95.83,0,0,0,8.8,7.5q5.1,2.8,15.1,8.6,8.9,4.6,12.9,5.5,3.95.85,4.6.45t.6-.9q.1-1.05-1.4-1.55a9.358,9.358,0,0,1-1.4-.4,70.331,70.331,0,0,1-11.7-4.3,107.04,107.04,0,0,1-9.6-7.4,1.348,1.348,0,0,1-.5-1.6,1.512,1.512,0,0,1,1.6-.8,37.2,37.2,0,0,1,8.4,4,17.267,17.267,0,0,0,1.6.8,1.064,1.064,0,0,0,1.3-.8q.3-.7-1.7-2.4-4-2.3-10.1-5.6-6.251-3.2-8.65-4.45a1.254,1.254,0,0,1-.65-1.9q1.15-2.2,1.8-2.45m-8.2,5.8q1.9-.3,1.8,1.7l-1.8-1.7m8.1,6.3a1.137,1.137,0,0,1-.6.4.9.9,0,0,1-.6,0l-2.8-2.7,3.8,1.2a.722.722,0,0,1,.3.5q0,.5-.1.6"/></svg>