<svg overflow="visible" width="100%" height="100%" viewBox="0 0 115.361 79.07" xmlns="http://www.w3.org/2000/svg"><path d="M110.716,1.543a7.793,7.793,0,0,0-5.6-1.5,5.355,5.355,0,0,0-4.5,2.6q-5,8.4-10.3,18.6-2.7,5.3-6.4,7.2a26.327,26.327,0,0,0-1.7-4.8q-1.2-1.4-4.6-.1l-22.5,7.6a5.4,5.4,0,0,0-1.8.9,1.414,1.414,0,0,0-.6,1.7q.3,1.4,2.3,2.1,4.7,1.5,13.5,3.7-3.4,2.1-5.1,3a15.658,15.658,0,0,1-4.8,2.1q-15.3,2.3-22.1,2.7a87.148,87.148,0,0,1-13.85,0,63.61,63.61,0,0,1-8.35-1.2,23.417,23.417,0,0,1-4.2-1.5,21.175,21.175,0,0,0-5.75-1.55q-3.1-.4-3.9.5a1.244,1.244,0,0,0-.15,1.8q.7.9,2.95,3.4t8.65,6.15q4.95,2.9,10.75,5.85,2.85,1.45,5.95,2.95,6.2,2.9,17,7.4,17.3,6.7,30.8.1,3.4-1.7,10.4-4.8a4.891,4.891,0,0,1,3.2-.6,5.841,5.841,0,0,1,2.9,1.7q2.8,2.8,11.3,10.4a3.169,3.169,0,0,0,2.6,1.1q1.2-.2,1.5-1.8,1.3-7.7,1.8-12a60.979,60.979,0,0,0,0-12.1,5.694,5.694,0,0,0-4-5.2,13.121,13.121,0,0,0-1.5-.5q2.2-5.15,2.9-7.1a118.42,118.42,0,0,0,5.3-14.1,53.736,53.736,0,0,0,2.5-14.8q.5-5.9-4.6-9.9m-5.3,1.2a5.2,5.2,0,0,1,3.9,1.5q5.9,5.2,1.9,18.5a153,153,0,0,1-7.8,19.3,43.608,43.608,0,0,1-2.2,4.1.622.622,0,0,0-.15.25q-.8-.2-1.55-.35a15.188,15.188,0,0,1-8.9-4.5,13.748,13.748,0,0,1-3.4-8.8q-.3-2.7,2.6-5.7,3.5-3.6,3.9-5.2a44.792,44.792,0,0,1,4-8.5q1.5-2.7,4.7-8.1a4.092,4.092,0,0,1,3-2.5m-40.6,33a18.91,18.91,0,0,1-6.6-2.3l21.7-7.6q.7,4.9-1.9,8a7.807,7.807,0,0,1-7.1,2.5,47.593,47.593,0,0,1-6.1-.6m19.3-3.6q1.6,6.7,1.8,8.1a2.923,2.923,0,0,1-1.1,2.5,32.8,32.8,0,0,1-15.2,10.3,68.151,68.151,0,0,1-14.6,2.9q-4.5.5-14.8.9a10.653,10.653,0,0,1-4.4-1q-4.4-1.7-4.5-1.7a10.838,10.838,0,0,0-2.1-1,1.314,1.314,0,0,0-1.8.7,1.357,1.357,0,0,0,.6,2,17.088,17.088,0,0,0,2.4.9q9.5,4.4,22.9,2.7,7.7-1.1,22.8-5.7,4.5-1.7,9.8-8a4.006,4.006,0,0,1,2.3-1.6,3.169,3.169,0,0,1,2.6,1.1,13.792,13.792,0,0,0,5.2,2.9q1.8.6,5.7,1.5,4.1,1.1,4.8,1.9.7.9.7,5.1a114.375,114.375,0,0,1-1.6,17.8l-4.1-16.9a7.84,7.84,0,0,0-2.4-5.1q-2.3-1.9-4.9.9-.1.2.45,1.4,1.35,1.1,3.35-.2l4.3,17.8q-7.2-6.5-7.9-7.2-3.7-4-8.4-1.5-1.7.9-5.4,2.5-3.6,1.5-5.4,2.4-13.6,6.9-34.8-2.8-10.8-4.8-16-7.3-.9-.45-1.75-.85a53.1,53.1,0,0,1-13.05-9.05q10,1.2,10.6,1.3,1.2.25,2.45.4a57.091,57.091,0,0,0,11.85.2q4.8-.3,14.3-1.2a36.785,36.785,0,0,0,13.7-3.5q4.3-1.9,12.5-6.3a18.867,18.867,0,0,0,4.5-3.1q1.4-1.3,4.6-4.2m-3.2,26.5a16.051,16.051,0,0,0,1.6-1.1,1.273,1.273,0,0,0-.1-1.8c-.067-.2-.466-.233-1.2-.1a4.447,4.447,0,0,0-1.6.6,33.159,33.159,0,0,1-12.3,5.1,67.394,67.394,0,0,1-13.2,1.1,21.455,21.455,0,0,0-3.8-.2,3.764,3.764,0,0,0-3,1.05q-.3.35.5,1.05a2.479,2.479,0,0,0,.9.5Q67.717,67.742,80.916,58.643Z"/></svg>