<svg overflow="visible" width="100%" height="100%" viewBox="0 0 104.436 112.256" xmlns="http://www.w3.org/2000/svg"><path d="M104.37,3.156a3.351,3.351,0,0,0-1.6-2.5q-2.6-1.6-5.5.7a41.543,41.543,0,0,0-6.7,6.6q-4,5.3-11.8,16a158.92,158.92,0,0,1-12.7,15.3q-3.2,3.5-9.7,10.3a130.362,130.362,0,0,0-9.2,10.8q-2.95,3.951-4.3,4.45a4.129,4.129,0,0,1-3.4-.65q-6.2-2.9-10.6,1.1l-24.7,20.2a12.077,12.077,0,0,0-3.75,4.7,4.213,4.213,0,0,0,.25,4.15q1.2,1.751,1.85,1.6a2.66,2.66,0,0,0,1.2-.65q.549-.5-.15-1.8a2.887,2.887,0,0,1,.05-2.8q.75-1.5,4.25-4.5,7.4-6.249,23.2-19.1,1.749-1.35,2.5.15,1.849,3.8-1.9,7.55-8.7,9.2-18.8,18.6-3,2.9-2.35,6.05.6,3.1,2.15,3.25a1.367,1.367,0,0,0,1.1-.55q.35-.5-.25-1.9a3.587,3.587,0,0,1,.45-3.35,40.612,40.612,0,0,1,2.7-3.1q6.5-6.6,19.3-20a5.641,5.641,0,0,1,1.5-1.2,1.921,1.921,0,0,1,1.8.4,1.435,1.435,0,0,1,.7,1.5,6.778,6.778,0,0,1-.8,1.5q-2.4,3.1-7.1,9.3-4.2,5.4-8.05,9.75-3.9,4.35-3.35,7.8t.9,4.7a1.326,1.326,0,0,0,1.7,1.05q2.1-.3.9-4.2a6.42,6.42,0,0,1,.1-4.6,14.776,14.776,0,0,1,2.6-3.8q4.1-4.8,15.4-19.5a3.079,3.079,0,0,1,2.5-.8q2.2.5,2.6,1.5t-.7,3l-11.3,19.9q-2.1,3.6-.3,5.9,2.7,3.3,4.1,4.8t1.95,1.5a1.8,1.8,0,0,0,.9-.2,1.677,1.677,0,0,0,.4-.95,3.608,3.608,0,0,0-.9-2.1,23.855,23.855,0,0,0-2.45-2.85,4.429,4.429,0,0,1-1.6-2.9,7.332,7.332,0,0,1,1-3.3q2.6-4.2,10.6-19.4,1.2-2.25,2.3-2.3,1.1-.15.35,2.8l-4.15,17.2q-1.3,4.8,1.4,7.1,2.649,2.25,3.3,1.3a1.5,1.5,0,0,0-.35-2.4,4.129,4.129,0,0,1-1.55-3.3,16.419,16.419,0,0,1,.6-4.1,168.075,168.075,0,0,1,3.6-16.5q1.5-4.4-.8-6.7a32.1,32.1,0,0,1-2.75-2.95q-.5-.65-.95-1.2-.5-.6.55-1.4t3.4-3.05q8.149-8,11.35-11.5,19.2-21.2,29-31.6a46.8,46.8,0,0,0,4-4.65q1.449-2.1,3.7-6t2.35-5.5a21.351,21.351,0,0,0-.05-2.65m-6.3,1.1q1.65-1.149,2.7-.6,1.8.9-1.2,5.9a212.858,212.858,0,0,1-16.7,21q-5.9,6.6-12.7,13.9-6.8,7.251-12.5,13.55-5.7,6.251-7,6.1a2.387,2.387,0,0,1-1.75-.9q-.45-.75,1.05-2.25,27-28.6,42.3-50.7a44.672,44.672,0,0,1,5.8-6m-57.45,65.4q-1.35-2.55.65-1.4a41.749,41.749,0,0,1,5.25,3.7q2.5,2.05.6,1.65a36.181,36.181,0,0,1-3.55-.9,5.935,5.935,0,0,1-2.95-3.05"/></svg>