<svg overflow="visible" width="100%" height="100%" viewBox="0 0 103.89 115.601" xmlns="http://www.w3.org/2000/svg"><path d="M63.29,2.4q-9.6,2.8-15.7,12.1a139.175,139.175,0,0,0-13.3,28.2,26.648,26.648,0,0,1-5.6,9.4q-1.8,2-7.7,7.5-2.2,2.1-2.4-1.1,0-4.6-.05-5.55a1.614,1.614,0,0,1,.3-1.35,17.714,17.714,0,0,0,1.7-2.85q1.25-2.5,1.2-9.45,0-3.3-.1-4.5a25.276,25.276,0,0,0-.4-2.95,3.8,3.8,0,0,0-1.1-1.75,3.115,3.115,0,0,0-1.85-1q-.95-.1-2.55,2.45a12.136,12.136,0,0,0-1.65,6.4,68.636,68.636,0,0,0,.4,8.1q.45,4.25,1.15,5a2.149,2.149,0,0,1,.65,1.15q0,.349-.15,5-.15,4.6-.95,6.2-.8,1.5-5.4,4.95-2.449,1.751-2.5.75,0-4.5.15-5.75t2.45-3.8a9.3,9.3,0,0,0,2.2-6.65q-.1-4.05-.6-4.95-.5-.95-1-1.05a2.415,2.415,0,0,0-1.5.4c-.167.067-.317.133-.45.2q-1,.4-1.25-.8-.2-3.35-.3-5.2a15.253,15.253,0,0,1,.7-6.2,18.243,18.243,0,0,0,1-4.85q.1-2.2.05-5.6A25.713,25.713,0,0,0,7.59,17.8q-1.1-3.649-2.4-3.7a3.252,3.252,0,0,0-2.5,1.25Q1.49,16.6,1.19,20.3a42.14,42.14,0,0,0-.1,6.4,19.078,19.078,0,0,0,.5,3.65,4.479,4.479,0,0,0,1,1.75,3.4,3.4,0,0,0,.8.75A2.2,2.2,0,0,1,4.64,34.3a78.356,78.356,0,0,1,.35,12.2q-.1,3.8-.1,22.4,0,.7.1,2a4.925,4.925,0,0,1-.3,1.9,35.458,35.458,0,0,0-2.7,9.8q-.5,3.4-1.5,10.1-1.4,7.6,1.2,12.5,2.5,4.7,9.7,8.2a18.331,18.331,0,0,0,6.2,1.7q2.1.2,6.4.4,11.4,1,21.1-7.9a115.911,115.911,0,0,0,10.8-11q11.5-13.9,30-21.1,10.6-4.2,15.3-18.1a47.645,47.645,0,0,0,2.4-21q-.8-7.1-1-8.4a26.4,26.4,0,0,0-2.3-7.5q-3.9-7.4-14.3-17a12.863,12.863,0,0,0-3.6-2.2A23.968,23.968,0,0,0,76.89.05a19.131,19.131,0,0,0-2.8,0,12.666,12.666,0,0,0-1.7.15q-5.3,1.1-9.1,2.2M49.79,16.5q4.4-8.4,14.8-11.5,2.9-.9,8.7-2.3.049,0,.6-.1.551-.049,4.35.25T87.49,8.9a102.069,102.069,0,0,1,7.6,8.7,20.033,20.033,0,0,1,4.2,8.2q3,15.3.3,26.5-3.7,15.4-16.2,21.2-10,4.6-11.2,5.1a24.053,24.053,0,0,0-8.5,5.9q-6.4,6.7-19.5,19.9a30.807,30.807,0,0,1-11.2,7,14.633,14.633,0,0,1-5.35,1.1q-2.6-.049-8.4-.25T6.79,107.1q-4-3.7-3.6-8.3.6-8.4,1.7-16.8a15.7,15.7,0,0,1,3.3-8.6,35.073,35.073,0,0,1,7.85-6.85,13.756,13.756,0,0,0,.1,3.5,1.112,1.112,0,0,0,1.25,1.05q.9-.049,1.05-.75a6.868,6.868,0,0,0,0-2.05,5.1,5.1,0,0,1,.85-3.1,13.3,13.3,0,0,1,2.9-3q10.9-8.8,14.8-18.9a262.98,262.98,0,0,1,12.8-26.8M5.94,20.45a43.076,43.076,0,0,1,.4,4.95,17.232,17.232,0,0,1-.65,5.3q-.7,2.1-1.9-2.85a17.826,17.826,0,0,1,.2-9.55q.75-2.351,1.2-1.05a17.525,17.525,0,0,1,.75,3.2M17.84,32.9q1.35-2.4,1.45,4.5.05,6.9-1.2,9.75t-1.35-4.2q-.1-7.05,1.1-10.05M9.19,56.6q-1.549,2.85-1.8.8V52.25a1.962,1.962,0,0,1,.75-2q1.95-1.1,2.25,1a8.737,8.737,0,0,1-1.2,5.35m80.2,7.5a5.577,5.577,0,0,0,2.3-1.45q.8-.9.65-1.25-.8-1.65-3.3-.35a35.087,35.087,0,0,1-4.05,1.75l-8.2,1.9q-3.4.8-4.2,3.35t-.15,2.9a2.256,2.256,0,0,0,1.5.2q.8-.15,1.25-1.55a3.761,3.761,0,0,1,2.65-2.15A43.86,43.86,0,0,1,83.49,66q4.4-1.4,5.9-1.9m-4.4-23.75a5.881,5.881,0,0,0-5.6,2.75q-2.15,3-1.4,3.9,1.249,1.249,3.05-1.15a5.923,5.923,0,0,1,5.25-2.3,19.407,19.407,0,0,0,6.35-.8q2.85-.9,2.35-2.25-.349-1.249-3.45-.55a21.228,21.228,0,0,1-6.55.4M44.89,91.1a1.784,1.784,0,0,0,0,2.2q.75,1,1.55.25a5.087,5.087,0,0,0,1.35-2.1q.5-1.35,3.4-3.85.3-.3,4.4-2.75,4.1-2.5,2.7-3.55-1.55-1.4-4.3.6-2.8,2-4.3,3.3a18.377,18.377,0,0,0-4.8,5.9m-2.7,8.65q-.3-2.15-2.4-1.25-9.3,3.5-15.1,5.9a11.691,11.691,0,0,0-2.9,1.75,6.892,6.892,0,0,0-1.5,1.45q-.349.55.55,1.5.851.95,2.05-.1a35.853,35.853,0,0,1,6.5-3.4q3.7-1.6,11.4-4.6,1.5-.5,1.4-1.25M54.59,53.4a69.074,69.074,0,0,0-7.05,4.45Q43.99,60.3,43.69,62.4a2.721,2.721,0,0,0,1.2,3q1.05.3,1.5-.3a3.315,3.315,0,0,0,.4-1.75A3.205,3.205,0,0,1,48.39,61a32.509,32.509,0,0,1,3.1-1.7q.8-.5,6.1-3.9,1.849-1.05,1.5-1.9-.5-1.2-1.2-1.35t-3.3,1.25M21.49,83.9q-2.9,1.3-3.1,3.25a3.119,3.119,0,0,0,1.1,2.95q1.05,1,1.4-.8a3.467,3.467,0,0,1,1.7-2.6,12.274,12.274,0,0,1,2.6-1.2l6.9-2.7q2.5-1.2,5.1-5.8.5-.95-.85-1.05-1.35-.15-1.75.55a8.839,8.839,0,0,1-3.5,3.5,19.751,19.751,0,0,1-4.5,1.9q-3.4,1.2-5.1,2m-.5-3.85q1.8-.8,1.05-1.75-1.151-1.65-5.45.3-4.3,1.9-5.3,2.5a9.018,9.018,0,0,0-3.5,4,23.393,23.393,0,0,0-1.2,3.3,4.5,4.5,0,0,0-.15,3.4q.6,1.1,1.5.8.85-.349,1.7-4.65.851-4.35,8.15-6.75a29.75,29.75,0,0,0,3.2-1.15M59.89,27.1a6.85,6.85,0,0,0-2.25,1.25,2.2,2.2,0,0,0-.65,2.15q.3,1.2,2.45.35t6.15-2.45q2.3-.9,5.25-1.95a12.675,12.675,0,0,0,4.05-2.05q1.1-1,.8-1.6-1.249-1.95-2.5-.9a19.037,19.037,0,0,1-6.5,3.2q-4.6,1.2-6.8,2M46.44,48.15a7.62,7.62,0,0,1,4.35-5.2,11.855,11.855,0,0,0,3.95-2.25q.75-.9-.15-1.5-1.25-.85-5.5,1.15a9.4,9.4,0,0,0-5.5,6.05q-1.25,4.05.1,4.8,1.6.75,2.75-3.05"/></svg>