<svg overflow="visible" width="100%" height="100%" viewBox="0 0 115.875 79.312" xmlns="http://www.w3.org/2000/svg"><path d="M85.173,1.612a32.515,32.515,0,0,0-9.6-1.6,96.25,96.25,0,0,0-12,1.6,28.015,28.015,0,0,1-9.8.4q-15.3-4.2-28.8,1.9-15.5,7-10.9,23.1a12.043,12.043,0,0,0-6.8,2.4,67.593,67.593,0,0,0-5,4.7q-2.9,2.8-2.1,8.2.7,5.2,4.2,7.5a59.449,59.449,0,0,0,6.3,2.9,3.915,3.915,0,0,1,2.7,3.6q.3,6.8.9,13.3.5,5.1,1.9,6.7,1.5,1.6,6.6,2.5a23.921,23.921,0,0,0,5.3.4q2.4-.5,2.3-4,.25-4.151.4-7.4,1.1.05,3.8.2h2.4q15.8-.4,48.2-1.6,3.1-.1,3.8.6.6.7.7,3.9l.1,4q.1,3.4.8,4t4.1.3l6.4-.9q3.2-.4,3.9-1.2.8-.9.9-4.1.1-5.3.1-7.9a66.791,66.791,0,0,0-.4-7.9,11.523,11.523,0,0,1,.9-6.5,11.945,11.945,0,0,1,4.9-4.7q4.6-2.6,4.5-6.7-.1-4.2-4.9-6.5a10.65,10.65,0,0,1-5.6-5.3,22.76,22.76,0,0,1-1.6-7.4q-1.3-8.9-6.85-12.8a38.7,38.7,0,0,0-11.75-5.7m6.85,6.4a16.047,16.047,0,0,1,7.75,8.2,52.51,52.51,0,0,1,2,10q.4,2.4-2.7,2.2a16.361,16.361,0,0,0-6.4,1q-1.3.5-5.9,2.6-4.2,1.9-3.8,5.6a2.394,2.394,0,0,1-.8,2.3,4.534,4.534,0,0,1-2.3.4l-15.8.4a2.527,2.527,0,0,1-1.8-.5,6,6,0,0,0-3.2-1.9,19.751,19.751,0,0,0-3.6-.5q-7-.5-9.9-.6a45.439,45.439,0,0,0-9.9.8,20.262,20.262,0,0,1-3.3.4,1.952,1.952,0,0,1-2.2-1.7q-1.5-7.9-11.3-9.5a2.843,2.843,0,0,1-1.8-.8,4,4,0,0,1-.9-2q-1.1-4.1,1-9.4,2-5.4,5.7-7.3,7.6-3.9,11.6-4.4a74.349,74.349,0,0,1,8.4-.55,16.216,16.216,0,0,1,6.6.95,20.844,20.844,0,0,0,9.5,1.5q2.7-.2,10.9-1.55,8.149-1.35,12.3,0a65.123,65.123,0,0,1,9.85,4.35m6.75,22.95a14.019,14.019,0,0,1,6.7,1.65,45.437,45.437,0,0,1,5.5,3.7q3.1,2.3,1.1,5.4a14.493,14.493,0,0,1-5.3,4.1q-4.3,2.1-4.1,7.6.2,5.8.2,17.4,0,3.2-.6,3.8-.5.6-3.6,1.1l-3.5.3q-2.2.3-2.5-2.2l-2.6-15.5q-.5-1.8-.7-2.8a13.49,13.49,0,0,0-.4-1.8,7.056,7.056,0,0,1-.25-.9,16.254,16.254,0,0,0-.6-1.95,30.583,30.583,0,0,1-.95-4.95,32.189,32.189,0,0,0-1-6,5.714,5.714,0,0,1-.2-3.6,7.468,7.468,0,0,1,3.1-2.2q6-3.1,9.7-3.15m-24,11.95h6.4a3.177,3.177,0,0,1,3.5,2.7q1.1,4.2.5,5.1t-4.8,1.4q-2.8.3-6.7.4a54.894,54.894,0,0,1-5.55-.05,16.14,16.14,0,0,1-2.45-.35q-.75-.2-.95-1.6-.251-1.4-.65-2.9-.7-2.2-.8-2.4-.5-1.65,3.1-2.1a38.994,38.994,0,0,1,8.4-.2m12.7,14.9q.7,4.35,0,4.7-.5.8-21.7,1.5-21.2.649-28.25,1.15-7.05.45-6.6-.2.251-5.751.25-7.55a3.785,3.785,0,0,1,.7-2.4,2.975,2.975,0,0,1,2.5-.7q10.3.5,20.3.6,4.8.1,14.4.6a70.311,70.311,0,0,0,14.3-.9q3.5-.7,4.1,3.2m-72-28.3q6.5.8,9.2,2.9,3.6,2.7,3.3,8.6a44.535,44.535,0,0,0,.15,6.2q.25,3.5.25,12.1-.1,4.9-.4,14.6a1.98,1.98,0,0,1-2,2.2q-2.5-.2-3.5-.3-3.3-.6-4.1-1.5t-1.1-4.3l-.9-13.8q-.1-4.6-4.3-5.9-5.7-1.4-8.3-4.9-3.1-4,.3-8.8a23.881,23.881,0,0,1,4.7-4.9,10.263,10.263,0,0,1,6.7-2.2m22.15,10.85a65.874,65.874,0,0,1,13.05-.25q7.55.549,8.85,1.75,1.249,1.2,1.95,5a20.111,20.111,0,0,1,.55,4.75q-.15.9-7.65.5h-9.6a88.164,88.164,0,0,1-11.7-.45q-1.9-.251-1.9-2.65-.1-6.4.2-6.8.7-1.1,6.25-1.85"/></svg>