<svg overflow="visible" width="100%" height="100%" viewBox="0 0 115.869 116.143" xmlns="http://www.w3.org/2000/svg"><path d="M112.256,55.06a132.3,132.3,0,0,1-3.65-13.45q-1.4-7.1-7.8-18.2a30.88,30.88,0,0,0-7.8-9.5,119.83,119.83,0,0,0-12.5-8.4,38.629,38.629,0,0,0-11.05-4.2,28.526,28.526,0,0,0-3.25-.5l-9.9-.8a52.117,52.117,0,0,0-11.1.8q-.9.2-1.95.5a105.873,105.873,0,0,0-10.05,3.6A50.1,50.1,0,0,0,6.556,29.06q-1.4,2.651-2.95,5.75a32.327,32.327,0,0,0-3.5,13.5,60.987,60.987,0,0,0,.25,10.15,36.68,36.68,0,0,0,.75,5.6,3.077,3.077,0,0,0,.35.6q.05.15,1.05.25a33.974,33.974,0,0,0,4.6-.2,22.173,22.173,0,0,1,2.8-.1,31.507,31.507,0,0,1,1.45,7.1q1.249,9.3,1.95,13.2a33.663,33.663,0,0,0,1.9,8.1q7.6,16.5,24.2,21.2a56.8,56.8,0,0,0,11.9,1.8,71.1,71.1,0,0,0,13.15-.4q6.251-.85,5.75-1.95-.5-1.15-2.25-.95-3.851.5-5.85.6a70.822,70.822,0,0,1-17.3-.6,35.932,35.932,0,0,1-15.8-6.8q-10.7-8.4-12.7-18.9-1.5-9.5-2.75-19.2a17.934,17.934,0,0,1-.2-3.4.91.91,0,0,1,.55-.1l58-1.4q4.5-.1,5,.7.45.8,1.3,2.7a14.9,14.9,0,0,0,1.1,2.2,45.878,45.878,0,0,0,5.8,8.2,18.1,18.1,0,0,0,8.6,5.2,17.261,17.261,0,0,0,9.9-.3,29.829,29.829,0,0,0,8.5-4.7,9.251,9.251,0,0,0,3.4-5.4,11.787,11.787,0,0,0-.05-6q-.75-2.55-3.2-10.45m-7.55-17.15q2.5,8.3,3.65,12.8,1.1,4.45,2.5,9.2,1.4,4.7,1.5,5.25.1.5.35,2.95a7.523,7.523,0,0,1-3.6,7.6,20.277,20.277,0,0,1-5.2,2.8q-10.1,3.3-16.1-3a30.34,30.34,0,0,1-6.7-10.3q-1.4-4-2.5-4.7-1-.7-5.4-.6l-61,1.4q-1.3,0-2.15.05-.8.05-2.2.05l-2.9-.1q-1.55-.1-1.75-2.5-.25-2.45-.3-5.2-.5-12.1,4.6-19.9a56.144,56.144,0,0,0,2.7-5.3q3.6-8,13-14.7,14-10,26.9-10.5,2.1,0,12.3.2a36.68,36.68,0,0,1,15.9,4,83.792,83.792,0,0,1,13.4,9.1q8.8,7.2,13,21.4m-7.2,33.9a7.554,7.554,0,0,0,4.6-1.3,4.63,4.63,0,0,0,2.3-3.4,3.675,3.675,0,0,0-1.2-3,6.534,6.534,0,0,0-3.4-2.1q-3.6-1-6.8,3a4.5,4.5,0,0,0-.8,1.7,3.423,3.423,0,0,0-.1,1.8q1.1,2.9,5.4,3.3m-1.7-4.4q-.551-1.849,2.25-3.1,1.1-.551,2.15.7a3.079,3.079,0,0,1,.85,2.55q-.2,1.35-2.25,1.6a2.685,2.685,0,0,1-3-1.75"/></svg>