<svg overflow="visible" width="100%" height="100%" viewBox="0 0 55.392 116.525" xmlns="http://www.w3.org/2000/svg"><path d="M40.273,3.919q-4-4.6-12-3.8t-12.2,6.2q-10.1,12.4-13.8,30.8-2.9,14.4-2.1,34.1a77.164,77.164,0,0,0,1.5,11.8,4.185,4.185,0,0,0,4.2,4,70.641,70.641,0,0,1,8.4.8q5.1.8,5.4,1.1.7.6.9,5.6a75.708,75.708,0,0,1-.05,8.35q-.25,6.651,1.15,9.85a6.563,6.563,0,0,0,3.4,3.3,7.945,7.945,0,0,0,5,.2q4.7-.9,4.7-6.6v-19.3q10.1-.3,16.4-.7,4.5-.3,4.2-4.2-2.6-27.3-3.5-40.9-.7-9.7-1.3-13.8a74.438,74.438,0,0,0-2.9-13.5,39.078,39.078,0,0,0-7.4-13.3m-6.4-.7q3.5.5,6.4,5a45.366,45.366,0,0,1,6.1,14.4,105.344,105.344,0,0,1,2.2,15.3q1.4,15.1,3.9,45.4a3.485,3.485,0,0,1-.4,2.5,4.053,4.053,0,0,1-2.4,1q-9.8,1.2-24.2-.6-11.8-1.4-17.7-1.9a5.423,5.423,0,0,1-2.6-.8,5.784,5.784,0,0,1-1.3-3.349q-.4-2.6-1.1-20.8-.75-18.2,5.25-32.049,5.951-13.9,9.45-18.2,5.9-7.4,16.4-5.9m-10.7,104.7-.1-16.3q-.1-1.7.6-2.2a2.8,2.8,0,0,1,2.3-.4q4.6.5,5.3,1.4.8.9.7,5.7l-.2,13.4a5.572,5.572,0,0,1-.4,2.4,2.509,2.509,0,0,1-1.9,1.4,4.215,4.215,0,0,1-4.6-.9,5.606,5.606,0,0,1-1.7-4.5m-6.85-83.3a58.634,58.634,0,0,0-.95,10.25q-.15,6.451.25,20.2.35,13.749,1,15.8a2.353,2.353,0,0,0,2.7,1.85q2.05-.2,3-3.75t.9-15q-.049-11.449-.55-26.9a17.125,17.125,0,0,0-.75-4.65q-.7-2.351-2-2.4a3.453,3.453,0,0,0-2.05.35q-.8.4-1.55,4.25m2.15-.1q.349-3.4,1.35-1.3.7,1.45.85,18.3.15,16.8-.8,23.6-1,6.8-1.25,2.1-1.05-18.5-.8-28.9t.65-13.8m18.8.4a5.341,5.341,0,0,0-.6-2.75,2.974,2.974,0,0,0-1.75-1.35,2.544,2.544,0,0,0-2.15.149,2.94,2.94,0,0,0-1.45,1.75,19.467,19.467,0,0,0-.95,3.351,49.763,49.763,0,0,0-.45,9.149q.05,7,.55,20.75.45,13.7,1.2,15.5.7,1.8,3.25,1.5,2.55-.35,3.1-3.9a70.152,70.152,0,0,0,.45-10.75q-.1-3.9-.4-13.1l-.8-20.3m-4.8,13.449q0-17.6,1.75-15.049t1.6,19.85q-.2,17.25-.7,23.549-.5,5.8-1.2,0a210.886,210.886,0,0,1-1.45-28.35"/></svg>