<svg overflow="visible" width="100%" height="100%" viewBox="0 0 115.5 79.328" xmlns="http://www.w3.org/2000/svg"><path d="M100.8,13.7q-1-.2-1-2.6-.05-2.4-5-4A8.209,8.209,0,0,1,93,5.9a3.093,3.093,0,0,1-1.1-1.8A4.507,4.507,0,0,0,89.7.8,8.421,8.421,0,0,0,85.6,0,102.082,102.082,0,0,0,69,2.3q-8.1,1.5-16.5,8.5-4.9,4-13.9,12.7-3.8,4-11.3,6.3-8.5,2.1-12.6,3.6Q7.5,35.8,2.1,43.3a11.011,11.011,0,0,0-2,5q-.1.9-.1,5.3,0,9.8,5.1,15.6t14.8,6.9a9.555,9.555,0,0,1,3.3,1.6,25.43,25.43,0,0,0,2.9,1.1,19.841,19.841,0,0,0,6.2.5,59.526,59.526,0,0,0,8.1-.85q4-.75,10.3-1.85A38.6,38.6,0,0,0,59.6,74Q85.9,61.7,95.1,55.1q19.7-14.2,20.4-31.9-.8-12.5-12.7-9.9a5.794,5.794,0,0,1-2,.4m-4.5-2.9a11.294,11.294,0,0,1,1.45,1.85q.55.9-1.9,6.95-2.45,6-13.95,13.2A255.852,255.852,0,0,1,44,52.1,40.353,40.353,0,0,0,24.2,68.35q-.35-.15-.8-.3-3.7-1.35-6.1-2.25a6.48,6.48,0,0,1-2.4-1.5q-4.7-5.2-2-10.3,2.5-4.7,9.15-7a7.584,7.584,0,0,1,7.05,1,58.667,58.667,0,0,1,5.7,4.5q2.1,2,3.3.6,1.1-1.3.15-3.8A10.806,10.806,0,0,0,36.1,46q-2.4-2.8-2.9-3.4L38,40.5a5.322,5.322,0,0,1,4.8.3,9.143,9.143,0,0,1,3.3,3.6l1.2,1.8a1.489,1.489,0,0,0,2,.3,2.245,2.245,0,0,0,1.4-1.9,4.428,4.428,0,0,0-.55-2.55A9.572,9.572,0,0,0,48.7,40.2Q46.9,38,47,37.5t2.5-1.6q3.8-2,6.3-1.1,2,.6,5.8,4.25a9.475,9.475,0,0,0,1.1.85q1,.6,1.5.4,2.5-.7,1-4.2A21.27,21.27,0,0,0,62,31.8a1.642,1.642,0,0,1,.1-2.5q5.6-6.2,7.2-6.8,1.6-.5,7.9,5.1,1.6,1.4,2.4,1.1,1-.4,1.2-2.4.7-4.3-3.6-7.6-1.7-1.3-1.8-1.4-.8-1,.5-2.3a4.388,4.388,0,0,1,2.8-1.6,3.406,3.406,0,0,1,2.6,1.4l4.7,5q1.1,1.3,2.2.7t.7-1.3a3.648,3.648,0,0,0-.7-.95q-.3-.251-5.5-5.8a16.1,16.1,0,0,1,3.2-1.3q1.35-.35,2.45-.7A19.989,19.989,0,0,1,91.1,9.8a10.993,10.993,0,0,1,3.05-.15A3.363,3.363,0,0,1,96.3,10.8m6.5,5.5a6.647,6.647,0,0,1,4.9-.6q4,1.4,4.9,6.4a15.588,15.588,0,0,1-1,8.5Q106.7,44.1,90,55.2q-7.8,5.1-30,15.6-9.7,4.4-25.7,4.9a51.579,51.579,0,0,1-6.9,0q-3.9-.9-1.7-4.7,6.1-10,19-16Q69.4,44.2,82.6,35.7a61.229,61.229,0,0,0,9.3-6.9,32.436,32.436,0,0,0,7-9.2,7.563,7.563,0,0,1,3.9-3.3M79.4,3.2a40.337,40.337,0,0,1,5.9-.4q2.3,0,2.8.5a2.884,2.884,0,0,1,1.1,2.5q0,.3-.7.8a2.027,2.027,0,0,1-1.1.4Q80,6.8,71,16q-8.4,9.4-11.6,11.7-3.4,2.4-15,7.1-17.2,7-23,9.2a31.548,31.548,0,0,0-9.8,6.6,9.18,9.18,0,0,0-2.4,5.7,11.387,11.387,0,0,0,1.1,6.3q1.8,3.6,9.15,6.85a24.548,24.548,0,0,0,3.3,1.3A5,5,0,0,1,20.6,72.4a8.107,8.107,0,0,1-3.7.2A13.162,13.162,0,0,1,12,71.1a23.779,23.779,0,0,1-5.65-4.95,13.048,13.048,0,0,1-3.4-9q-.05-5.25.1-6.75A14.13,14.13,0,0,1,5,45.65,34.521,34.521,0,0,1,8.55,40.3a10.839,10.839,0,0,1,5.05-3.2q5.9-1.8,17.5-5.5a18.129,18.129,0,0,0,7.6-4.4q1.9-1.8,7-6.4,4.4-3.9,6.8-6.4A35.307,35.307,0,0,1,65,6.4,66.5,66.5,0,0,1,79.4,3.2m-.2,23q-.2.05-1.8-1.55a17.955,17.955,0,0,0-3.65-2.8q-2.1-1.2-1.25-2.15.8-1,2.25.25A32.068,32.068,0,0,1,77.4,22.5,6.773,6.773,0,0,1,79,25q.35,1.1.2,1.2M45.8,39.15a3.945,3.945,0,0,1,1.3,1.15,20.214,20.214,0,0,1,1.15,2.2,4.3,4.3,0,0,1,.6,2.05q-.1.551-1.8-1.85a7.918,7.918,0,0,0-2.85-2.9q-1.151-.5-.2-.8a2.016,2.016,0,0,1,1.8.15M58.6,33.3q-1.35-.65-.3-1.2,1-.55,1.85.55A26.911,26.911,0,0,0,61.9,34.7a14.161,14.161,0,0,1,1.5,2,2.574,2.574,0,0,1,.55,1.6q-.1.5-1.4-1.1-1.35-1.6-2-2.4a6.163,6.163,0,0,0-1.95-1.5M31.25,46.75q-3-2.1-1.55-2.7t4.6,3.2q3.15,3.8,2.7,4.3-.45.45-1.6-1.1a17.7,17.7,0,0,0-4.15-3.7"/></svg>