<svg overflow="visible" width="100%" height="100%" viewBox="0 0 115.659 90.508" xmlns="http://www.w3.org/2000/svg"><path d="M49.818,55.6q-1.45-.4-1.1,7.4,0,14,.1,16.55a14.2,14.2,0,0,1-.65,4.7q-.7,2.15-1.85,2.4a2.641,2.641,0,0,1-1.95-.3,2.491,2.491,0,0,1-1-1.15q-.249-.7-1.25-6.2-2.1-13.3-2.55-17.2a16.026,16.026,0,0,0-1.25-5.2q-.75-1.3-1.5-1-.549.1-.8,1.5a11.57,11.57,0,0,0,.35,4.15Q36.918,64,38.118,73a120.88,120.88,0,0,0,2.6,13.3,8.45,8.45,0,0,0,1.55,3.1,3.316,3.316,0,0,0,2.9,1.1,5.679,5.679,0,0,0,3.65-1.9,6.363,6.363,0,0,0,2.1-3.6q.2-2.8.2-7.2V70.7q0-9.5.05-11.35.051-1.45.05-2.15a1.756,1.756,0,0,0-1.4-1.6m49.8-44.05q-2-.4-5.1,2.65l-.3.3q-4.6,5.5-6.3,15.4-.9,5.5-2.4,16.6-2,10.2-8.8,13.8-1.2.65-10.1,4.65-1.35.6-1.6-1l-1.3-8.25q-.6-4.7-.9-7.1a16.987,16.987,0,0,0-2.2-6.8q-.5-.8.9-2.5,5.4-6.1,8-9.4,1.8-2.2,1.5-3.5-.4-1.2-3.1-2.3a43.478,43.478,0,0,0-4.6-1.7q-7.2-1.7-10.5-9a98.289,98.289,0,0,0-4.8-8.6q-1.5-2.5-2.8-2.6-1.4,0-3.2,2.3a54.963,54.963,0,0,0-4.6,7.6q-3.9,5.9-8.4.6a50.708,50.708,0,0,0-4.6-4.4q-3.4-2.7-5-4.1a2.131,2.131,0,0,0-3.2-.1,6.824,6.824,0,0,0-1.7,3.4,19.134,19.134,0,0,1-11.8,14.1Q.219,22.7.018,24t1.8,3.3l14.7,14.1a26.211,26.211,0,0,0-6.25,11.35,36.458,36.458,0,0,0-1.2,12.75q.551,6.251,1.15,11.2.6,4.9,1.6,5.65a7.462,7.462,0,0,0,1.65,1,22.11,22.11,0,0,0,2.25.65,5.168,5.168,0,0,0,3.2.3,4.018,4.018,0,0,0,1.8-2.4,44.871,44.871,0,0,0,2.7-12.3q.4-8.4.65-10.95t.5-4.5q.25-1.95-1.3-1.6a2.229,2.229,0,0,0-1.85,1.85,17.9,17.9,0,0,0-.3,2.65l-1.1,17.25a25.607,25.607,0,0,1-.9,4.45q-.75,2.4-1.6,2.5a1.662,1.662,0,0,1-1.3-.2,5.936,5.936,0,0,1-1.3-2.1,12.771,12.771,0,0,1-.75-5.25q.051-3.5.75-10.7a12.46,12.46,0,0,1,.6-2.4,19.971,19.971,0,0,0,.6-2.4,7.88,7.88,0,0,0,.1-1.45,1.178,1.178,0,0,0-1.25-1.35q-.5-.05-1.15,1.55a43.153,43.153,0,0,0-1.6,4.35,24.843,24.843,0,0,1,7.1-19.1q9.5,5.3,13.95,6.35a38.023,38.023,0,0,0,6.35,1.05,11.086,11.086,0,0,0,3.4-.4,46.54,46.54,0,0,0,6.05-2.8q4.5-2.4,8.65-4.2a36.6,36.6,0,0,1,2.7,9.1q.1.7,1.2,9.4.3,2.8.6,8.05a37.462,37.462,0,0,1-.3,8.55,36.341,36.341,0,0,0-.65,5.35q-.05,2.05-.05,2.25.1,1.5,1.5,1.5,1.3-.15,1.55-2.15.251-1.5,2.3-1.3,2.85.35,8.25.65,12.551.55,25.9-5.4t14.9-29q.4-7.7-3.1-23.2-3.4-15.3-3-19.6.351-4.3,0-5.25t-.9-1.1a1.693,1.693,0,0,0-1.2.15,2.27,2.27,0,0,0-.8.8q-2.3,5.1-4,8.95a2.554,2.554,0,0,1-3,1.6m-.85,2.7q2.55-1.05,1.8.45-.549,1.2-.9,2.1a2.784,2.784,0,0,0-.25,1.7,1.557,1.557,0,0,0,.85,1.2.89.89,0,0,0,1.15-.3,42.381,42.381,0,0,0,2.85-5.75q2.35-5.3,2.6-3.15,1.4,8.7,4.95,24.4,2.5,15.5.6,21.85a53.006,53.006,0,0,1-5.95,12.85q-3.8,5.6-11.45,7.8a59.231,59.231,0,0,1-14.5,2.4l-11.45.5a22.113,22.113,0,0,0-3.05.35q-1.249.4-1.05-1.95.15-2.4.75-6.15a7.153,7.153,0,0,1,4.6-6.15q7.2-3,9.9-5.2,7-5.4,8.7-18.3,2.3-17.2,3.9-20.7a35.883,35.883,0,0,1,3.65-6.2,6.452,6.452,0,0,1,2.3-1.75M45.718,6.9l5.1,8.6a21.612,21.612,0,0,0,8.4,8.7,56.484,56.484,0,0,1-7,1.1,14.462,14.462,0,0,1-6.3-.9q-7.4-3.2-8.2-3.6a8.883,8.883,0,0,0-8,0,53.083,53.083,0,0,0-7.8,3.1q-5.1,2.9-10.8,0l-3.4-1.6a12.8,12.8,0,0,0,6-5.6q.3-.7,2.9-7.2.8-2,1.5-2.2.6-.2,2.4,1.2a34.586,34.586,0,0,1,6.1,5.7q5.7,6.2,10.7,1.8,1.8-1.549,6.35-9.05,1.05-1.9,2.05-.05M22.268,30.05q.15,2.2-1.05,2.2a2.663,2.663,0,0,1-2.15-1.15q-.95-1.25,1.05-2.2,1.95-1.05,2.15,1.15m30.3,2.45q-1.1-.1-1.55-1.9-.5-1.8,1.35-1.6,1.849.15,1.75,1.2-.15.949-.3,1.65-.2.7-1.25.65m-7.2,9.3a13.675,13.675,0,0,0-3.1-1.75,6.6,6.6,0,0,0-4.6.05,6.881,6.881,0,0,0-4.15,3.2q-1.4,2.3-3.9.95-2.55-1.35-9.5-5.25,7.4-4.5,17.8-4.2a35.324,35.324,0,0,1,18,5.1q-3.9,1.65-7.3,3.5a1.2,1.2,0,0,1-1.45-.05,23.386,23.386,0,0,0-1.8-1.55m-2.35,1.85q1.6.95-1.1,2.6a4.558,4.558,0,0,1-5.45-.45.842.842,0,0,1,0-1.2q1.7-2.051,3.35-2a6.374,6.374,0,0,1,3.2,1.05m32.75,29.8A13.171,13.171,0,0,1,78.818,70q2.5-2,5.8,1.2a30.5,30.5,0,0,0,6.05,4.6q3.15,1.8,6.35-1.1,2-1.7,3-2.6a6.423,6.423,0,0,0,1.85-3.25q.251-1.35-.3-1.5-.6-.15-1.65.8-1.05.9-4.1,3.85t-5.6.4q-6.9-6.3-9.7-6.3-3.4,0-6.1,4.2-2.75,4.2-2.6,4.8a.85.85,0,0,0,.7.7,3.313,3.313,0,0,0,1.15,0q.6-.1,2.1-2.35M91.518,35.4a1.22,1.22,0,0,0-.5,1.7l1.55,2.7q1.45,2,3.05,1.4a9.624,9.624,0,0,0,1.95-1.35q1-.9,1.55.2,3.55,7.1,4,7.95a1.78,1.78,0,0,0,1.05,1.05,1.885,1.885,0,0,0,.95.05,1.764,1.764,0,0,0,.8-.5,1.464,1.464,0,0,0,.4-.8l-.1-12.9a1.143,1.143,0,0,0-1-1.4q-1.149-.2-1.45.25a2.521,2.521,0,0,0-.3,1.55q.051.75.05,3.7-.1,1.6-.95.15a23.082,23.082,0,0,0-2.45-3.75q-1.6-1.7-4.55,2.6-.5.8-1.2-.55a14.935,14.935,0,0,0-1.15-1.85,1.1,1.1,0,0,0-1.7-.2"/></svg>