<svg overflow="visible" width="100%" height="100%" viewBox="0 0 98.086 115.803" xmlns="http://www.w3.org/2000/svg"><path d="M94.833,1.778q-1.7,2-4.65,4.85-3,2.8-7.7,8.2-4.751,5.4-8.5,5.3-5.95-.1-8.951-.4a7.012,7.012,0,0,0-4.2.8,10.008,10.008,0,0,0-3,3.2q-4.6,7.2-23,35.4-11.7,17.9-14.6,22.5-1.7,2.8-1.4,3.6t3.5,2.2q.9.3.5.95l-6.1,10a12.715,12.715,0,0,1-1.8,2.5,3.168,3.168,0,0,1-2.449.95,16.675,16.675,0,0,1-4.2-.95,9.347,9.347,0,0,0-5.4-.2q-2.649.65-2.85,1.75a2.205,2.205,0,0,0,.8,2,37.4,37.4,0,0,0,8.95,6.65q4.151,2.049,7.75,3.5a15.431,15.431,0,0,0,6.65,1.2q3.1-.2,2.35-3.15a10.074,10.074,0,0,0-2.2-4.45q-1.449-1.451-2.65-2.45-1.149-1,.35-3t6.8-10.4q5.5,4,7.9,3.6,2.4-.3,6.2-5.6l.3-.4q11.6-15.7,17.5-23.5,10.2-13.5,15.549-19.9a68.243,68.243,0,0,0,7.05-9.65q1.751-3.3-1.55-9.25-3.35-6,4.15-13.55,7.45-7.549,9.8-10,2.3-2.5,2.349-3.15.051-.7-.8-.9-.849-.25-2.45,1.75m-18.95,21.1a2.8,2.8,0,0,1,1.45.8,10.226,10.226,0,0,1,1.25,2.35q.8,1.849,1.4,3.35a14.64,14.64,0,0,1,.7,4.05,8.609,8.609,0,0,1-.949,4.6,18.027,18.027,0,0,1-3.5,4.5l-.7.65a.872.872,0,0,1-1.2.2,27.443,27.443,0,0,0-2.9-2.4,41.045,41.045,0,0,0-3.65-2.5,1.189,1.189,0,0,0-1.5.05,1.354,1.354,0,0,0-.5,1.4q.15.9,3.15,3.5,1.651,1.4,2.7,2.2,1.2,1,0,2.4-1.7,1.8-2.5,1.9-.9,0-3.35-2.5a13.093,13.093,0,0,0-1.65-1.5q-.8-.6-1.3-.2-1.249,1,0,2.55,1.1,1.4,3.651,4.3a1.12,1.12,0,0,1-.051,1.55q-1.8,2.3-2.8,2.4-1.2,0-3.1-1.9a16.655,16.655,0,0,0-2.75-2.45,1.419,1.419,0,0,0-1.75.25,1.2,1.2,0,0,0-.45,1.6,5.145,5.145,0,0,0,1.3,1.55q.851.65,2.6,2.2t1.75,2.25a3.726,3.726,0,0,1-.851,1.85q-.849,1.149-1.85.75l-6.4-3.6a5,5,0,0,0-1.6-.7,1.194,1.194,0,0,0-1.3.9q-.3.9,2,2.35l5.149,3.15q1.351.8.351,2.2l-9.4,12.5q-.949,1.249-1,0,.251-4.35-2.5-6.3-3.249-2.3-4.1-2.8a13.327,13.327,0,0,0-2.6-1,18.589,18.589,0,0,0-3.649-.65h-.5q-1,.15-.6-.65.8-1.4,1.95-3.2,22.6-34.5,24.9-38.2a6.95,6.95,0,0,1,5.649-3.85q3.551-.3,6.75-.25a20.589,20.589,0,0,1,4.25.35m-31,58.65q.8.1.3.85-6.05,8.55-6.35,8.95-1.5,1.8-2.8,1.8a4.8,4.8,0,0,1-3.1-1.3,2.785,2.785,0,0,1-.7-4.1q1.95-2.85,3.049-4.8a23.136,23.136,0,0,1,2.4-3.5q1.3-1.6,4.4.6a9.778,9.778,0,0,0,2.8,1.5m-13.05-7.85a2.142,2.142,0,0,1,.25,3.05q-1.149,1.65-3.95,5.05t-3.9,3.35a1.706,1.706,0,0,1-1.5-.9,2.084,2.084,0,0,1,.3-2l5.3-8a4.762,4.762,0,0,1,1.25-1.35q.8-.6,2.25.8m3.05,3.25q.6.1.6.85,0,.7-2.5,4.95-2.55,4.25-3.451,4.5-.849.2-1.1-.4-.3-.6,2.75-5.3t3.7-4.6m5-3.15q5.451,3.649,2.55,3.5a11.077,11.077,0,0,1-6.15-2.65q-3.2-2.55-2.5-3.5.651-1,6.1,2.65m-14.7,16.8c.1-.1.284-.067.551.1q.4.2-.351,1.8-.8,1.55-2.4,4.05-1.652,2.5-4.051,6.4-2,3.5.35,5a11.416,11.416,0,0,1,2.951,2.35,4.907,4.907,0,0,1,.849,2.1q.15,1.1-.9.95a71,71,0,0,1-8.35-3.8q-7.3-3.6-8.8-5.1t-.95-1.75q.55-.3,6,1.6,5.4,1.9,9-4.2,3.6-6.15,4.75-7.75a10.5,10.5,0,0,1,1.35-1.75"/></svg>