<svg overflow="visible" width="100%" height="100%" viewBox="0 0 92.555 114.914" xmlns="http://www.w3.org/2000/svg"><path d="M90.5,4.814a8.176,8.176,0,0,0-.6-3.95q-.75-1.65-1.6-.15l-.8,1.4-.95,1.15Q85.5,4.515,84.5,5.614l-6.7,8q-3.1,4.2-5.55,7a15.442,15.442,0,0,1-4.5,3.75,28.651,28.651,0,0,0-2.7,1.4q-.75.45-3.45,1.85a50.072,50.072,0,0,0-6.8,3.7q-1.4.9-6.95,2.25-5.6,1.35-5.75,1.45a22.172,22.172,0,0,1-2.5.8,52.747,52.747,0,0,0-8.6,2.3q-14.4,4.5-26,22.6a57.717,57.717,0,0,0-3.1,5.6,17.368,17.368,0,0,0-1.6,6.4l-.2,11.7a9.917,9.917,0,0,0,1.6,6.7q3.4,5.6,3.5,5.8t.7.4a1.2,1.2,0,0,0,.8-.1l.5-.6a1.985,1.985,0,0,0,0-.9q-1-2.1-1.5-3.2a8.627,8.627,0,0,1-.6-3.5,2.073,2.073,0,0,1,1.25-.5q.851-.1,8.3,3.15t10.85,4.95a13.559,13.559,0,0,1,6.6,5.9,63.239,63.239,0,0,1,3.8,8.3l-6.3,1.6-.8.5q-.45,1.05,0,1.5.5.5.8.5a28.094,28.094,0,0,0,5.9-.6,31.282,31.282,0,0,0,9.1-3.4q.2-.2,8.2-5.1,17.4-10.8,25.1-24.7a131.169,131.169,0,0,0,11.8-28.7,64.186,64.186,0,0,0,2-6.1,27.346,27.346,0,0,0,.85-6.15q.049-3.3-.2-7.4a77.735,77.735,0,0,1-.05-8.35,63.8,63.8,0,0,0-1-10.5,48.987,48.987,0,0,1-.8-9.1m-34.8,29.2q11.2-6.3,13.6-6.7,4.3-.6,14.1,4.6a9.39,9.39,0,0,1,4.4,4.4,9.926,9.926,0,0,1,1,6.2,87.843,87.843,0,0,1-5.3,19.9q-.3-.05-.55-1.05-2.25-8.55-15.55-19.65-7.1-4.7-11.7-7.7m-30.65,16.6a26.631,26.631,0,0,1,12.35,3.8q12.1,7.2,17.3,11.5a33.6,33.6,0,0,1,5,5.4q1.1,1.5,4.2,6.1,2.4,3.8,3.2,5.15a34.691,34.691,0,0,1,1.8,3.45q1,2.1-1.65,4.95a58.969,58.969,0,0,1-17.2,12.75,46.631,46.631,0,0,0-.85-5.75,38.306,38.306,0,0,0-4.5-11.65,24.124,24.124,0,0,0-11.3-10.4q-8.4-4.4-10.75-5.45T7.3,68.714l-2.9-.4a41.094,41.094,0,0,1,13.9-18.4,30.284,30.284,0,0,0,6.75.7"/></svg>