<svg overflow="visible" width="100%" height="100%" viewBox="0 0 116.433 54.645" xmlns="http://www.w3.org/2000/svg"><path d="M7.805,11.91a25.375,25.375,0,0,1-3.3,5.5,15.236,15.236,0,0,0-3.6,6.8,37.721,37.721,0,0,0-.9,7.5q-.2,7.5,7,14.6,7.1,7,14.5,6.8a17.962,17.962,0,0,0,10.5-3.7,11.476,11.476,0,0,1,7-2.2,10.589,10.589,0,0,1,5.05,1.1q2.063,1.1,6.4,3.55t11.6,2.75a30.218,30.218,0,0,0,12.85-2,53.616,53.616,0,0,0,9.9-5.6,21.988,21.988,0,0,0,1.8-1.65,9.38,9.38,0,0,1,3.7-1.65l18.5-3.8q2.8-.6,3.6-1.6.8-.9.7-3.7-.5-5.3-.5-7.9-.2-4-2.3-4.75a7.431,7.431,0,0,1-2.55-1.25,2.152,2.152,0,0,1-.25-1.8q.206-1.3.3-1.6a2.024,2.024,0,0,1,1.7-1.6q3-.8,3.65.75a11.916,11.916,0,0,0,1.1,2.15,1.2,1.2,0,0,0,1.35.4.991.991,0,0,0,.75-.6,4.765,4.765,0,0,0-.3-2.5,3.988,3.988,0,0,0-1.95-2.7q-3.4-1.9-6-.6a5.071,5.071,0,0,0-2.9,4,14.219,14.219,0,0,1-.6,3.45q-.307.9-1.8,1.15a11.735,11.735,0,0,1-2.9.15,3.537,3.537,0,0,1-2.6-1.55q-2.7-2.9-3.9-4.5a24.554,24.554,0,0,0-12.6-9.2q-6.4-2-15.7-1.3-3.1.3-11.2,2-3.4.7-10.2-2-6.753-2.649-9.9-3.85a20.558,20.558,0,0,0-8.35-.9,22,22,0,0,0-10,3.3,20.382,20.382,0,0,0-7.65,8.55m4.5,5.9q1.6-1.2,5.5-1.5a35.579,35.579,0,0,1,5.4,0,11.607,11.607,0,0,1,5.2,1.5q7.7,4.4,7.4,11.9-.6,10-9.8,13.5a35.3,35.3,0,0,1-5.6,1.8,8.95,8.95,0,0,1-5.8-.7,12.769,12.769,0,0,1-5.25-5.05,17.62,17.62,0,0,1-2.05-6.8,19.994,19.994,0,0,1,.3-6.25,21.394,21.394,0,0,1,1.85-4.85,10.789,10.789,0,0,1,2.85-3.55m9-4.4a51.864,51.864,0,0,0-6.45.2q-2.657.3-3.25-1.1a2.315,2.315,0,0,1,.6-2.6,24.781,24.781,0,0,1,4.2-3.3q9.3-6.7,19.2-2.1,3.7,1.8,11.5,4.7a11.839,11.839,0,0,0,6.8.6,100.6,100.6,0,0,1,10.2-2,47.859,47.859,0,0,1,11.1-.1,22.978,22.978,0,0,1,10.4,4,40.979,40.979,0,0,1,8.2,8.4q4.1,5.4,9.7,4.3l1-.1q4.1,0,4.8.7t.8,4.7v3.5a4.441,4.441,0,0,1-.5,3,3.952,3.952,0,0,1-2.8,1.3q-2.4.3-6.1,1.1-5.8,1.3-6.1,1.3a6.485,6.485,0,0,1-3,.1q-.6-.4-1.1-2.7-.9-3.6-1.7-4.3-.7-.6-4.5-1.1a20.144,20.144,0,0,0-2.9-.3,5.968,5.968,0,0,1-3.6-.9,5.62,5.62,0,0,1-1.7-3.5,8.351,8.351,0,0,0-2.8-5.1,33.8,33.8,0,0,0-5-3.3,18.36,18.36,0,0,0-10.1-2.3,12.3,12.3,0,0,0-9.8,5,8.009,8.009,0,0,0-1.2,1.9,20.63,20.63,0,0,0-.75,2.3,3.768,3.768,0,0,1-.95,1.95,3.543,3.543,0,0,1-2.5.55,4.6,4.6,0,0,1-3.2-1.3,12.486,12.486,0,0,1-2.3-3.5q-5-10.6-16.2-10m43.45,29.4a.4.4,0,0,0,.55-.25,2.207,2.207,0,0,0,.25-.9,1.863,1.863,0,0,0-.5-1.35q-.612-.839-6.2-6.7t-7.35-7.45q-1.7-1.545.4-3.95a8.074,8.074,0,0,1,3.2-2.2q4.2-1.5,9.7.5,5.6,1.9,7.9,5.6a12.554,12.554,0,0,1,1.4,9,15.981,15.981,0,0,1-4.6,8.6,12.447,12.447,0,0,1-9.6,3.2q-5.847-.292-8.6-3.7t-3.1-5.55a26.081,26.081,0,0,1-.15-4.8,9.011,9.011,0,0,1,.35-2.15q.357-2.091,2.65.05l10.65,9.55q.69.608,1.7,1.5a4.361,4.361,0,0,0,1.35,1m11.25-4.4q1-3.3,1.7-3.8.8-.5,4.2-.1l2.5.3a5.489,5.489,0,0,1,3.1,1.9,4.292,4.292,0,0,1,.6,3.4,1.632,1.632,0,0,1-.8,1.2,21.282,21.282,0,0,0-5,3.6q-3.312,2.795-11.5,5.9a20.4,20.4,0,0,1-15.55.05,99.691,99.691,0,0,1-11.15-5.25,8.98,8.98,0,0,0-7.95-.65,67.541,67.541,0,0,0-7.95,3.55,11.361,11.361,0,0,1-6.4,1.5,17.5,17.5,0,0,1-3.9-.65q-2.489-.6,0-.85a24.235,24.235,0,0,0,5.4-1.3q2.4-.9,7.3-3.3a15.309,15.309,0,0,0,5.5-5.5,3.89,3.89,0,0,1,2.8-2,23.365,23.365,0,0,1,3.2,0,3.341,3.341,0,0,1,2.4,1,6.776,6.776,0,0,1,1.3,2.75,12.236,12.236,0,0,0,1.8,3.65,14.883,14.883,0,0,0,4,3.35,12.889,12.889,0,0,0,6.15,2.1,42.852,42.852,0,0,0,5.15.15q10-.9,13.1-11m-32.5-7.3q1.417.4,1.3,1.45a1.22,1.22,0,0,1-1.7,1.15l-2.4-.4q-2.619-.32-2.05-1.45a2.2,2.2,0,0,1,2-1.15,9.575,9.575,0,0,1,2.85.4m-39.8-6.65a7.237,7.237,0,0,1,1.35-2.95q2.324-2.328,1.1.6a29.619,29.619,0,0,0-1,15.65q.525,1.937-.35.8a11.1,11.1,0,0,1-2.2-6.35,31.713,31.713,0,0,1,1.1-7.75m66.9,9.75q0-.2-.55-.75l-11.45-9.85a9.736,9.736,0,0,0-1.55-1.1q-.941-.528-1.4.55a1.7,1.7,0,0,0,.4,1.9q.845.844,4.15,3.85l8.6,7.5a1.359,1.359,0,0,0,.9.2c.4,0,.634-.066.7-.2a3.488,3.488,0,0,0,.2-2.1m-49.2-15.95a1.31,1.31,0,0,0-1.1.1.9.9,0,0,0-.35,1.05,1.875,1.875,0,0,0,.45,1l10.9,12.1a1.277,1.277,0,0,0,1.5.4,1.057,1.057,0,0,0,.7-1.15,2.236,2.236,0,0,0-.6-1.45l-10.7-11.6a1.508,1.508,0,0,0-.8-.45m8.5,19.65q.2-1.215-2.95-4.9t-7.3-8.75q-4.167-5.012-4.95-3.85a1.428,1.428,0,0,0-.1,2.1l12.9,15.7a3.389,3.389,0,0,0,1.1.75q.951.34,1.3-1.05"/></svg>