<svg overflow="visible" width="100%" height="100%" viewBox="0 0 111.764 115.091" xmlns="http://www.w3.org/2000/svg"><path d="M38.6,3.491a1.515,1.515,0,0,0-.2-1.25.927.927,0,0,0-.95-.35,2.366,2.366,0,0,0-.9.3,5.514,5.514,0,0,0-2.5,5,5.168,5.168,0,0,0,3.2,4.4,9.337,9.337,0,0,1,2,1.3,2.976,2.976,0,0,1,.8,2.2,75.976,75.976,0,0,1-.6,15.8q-.2,1.6,1,1.8a1,1,0,0,0,1.25-.5,5.883,5.883,0,0,0,.45-1.1,48.037,48.037,0,0,0,1-7.8,30.222,30.222,0,0,0-.4-3.8,21.773,21.773,0,0,1-.2-3.9,8.446,8.446,0,0,0-.4-3.9,4.365,4.365,0,0,0-2.9-2.3q-3.2-1.1-1.3-4.25a5.139,5.139,0,0,0,.65-1.65m-15.35,2.1a16.5,16.5,0,0,0,.25-3.25A2.3,2.3,0,0,0,22.45.291q-1-.649-1.6.15t-.25,3a12.651,12.651,0,0,1-.35,4.55,13.092,13.092,0,0,0,.6,7.4q.6,1.7,3.3,7.1a22.065,22.065,0,0,1,.9,2.4,1.382,1.382,0,0,0,1.95.8q1.35-.549,1.1-1.3t-3-5.65q-2.75-4.95-1.85-13.15m27.3-2.45a28.2,28.2,0,0,0-1.8,4.25q-1,3.3,0,4.4.8,1.2,4.4,1.3h2q3.1-.1,2.5,3l-1.5,8.7q-.3,2,.7,2.6a.953.953,0,0,0,1.3-.25,4.448,4.448,0,0,0,.8-2.1q.2-1.449,1.2-8.05a10.79,10.79,0,0,0-.05-4.65q-.5-1.35-5.55-2.1-4.2-.45-3.1-3.25a13.852,13.852,0,0,1,1.75-3.4,3.027,3.027,0,0,0,.8-1.7q.05-.8-.55-.9-1.7-.2-2.9,2.15m24.05,1.9a1.72,1.72,0,0,0-.15-2.25,1.157,1.157,0,0,0-1.3,0,4.811,4.811,0,0,0-2.3,3.6,4.091,4.091,0,0,0,2,3.6,7.257,7.257,0,0,1,3.2,7.2,24.3,24.3,0,0,0,.1,4,3.3,3.3,0,0,0,.6,1.9,1.923,1.923,0,0,0,.85.55q.35.051.8-.45a3.06,3.06,0,0,0,.35-2.1,21.075,21.075,0,0,1,.15-4.2,10.659,10.659,0,0,0-.2-4.05,7.72,7.72,0,0,0-2-2.95,19.826,19.826,0,0,1-2.25-2.55,2.029,2.029,0,0,1,.15-2.3M.35,38.991q-.7,1,0,4.4l.6,2.4a132.014,132.014,0,0,1,4.3,37.2q-.3,12.3-.3,12.4a7.169,7.169,0,0,0,4.1,7.2q12,6.4,15.9,9.1a18.083,18.083,0,0,0,4.7,2.3,19.012,19.012,0,0,0,2.8.7,34.58,34.58,0,0,0,8.1.3q6.1-.45,14.6-1,2.351-.15,4.9-.3,6.5-.3,19.6-.5h18.4q4.3,0,5.1-.7.9-.8,1.2-5.2.6-9,1.4-27.7a5.984,5.984,0,0,1,.6-2.7,3.76,3.76,0,0,1,2.5-1.5q2.3-.5,2.8-1.7a4.946,4.946,0,0,0-.6-3.4l-.7-1.3q-8.1-16-18.5-25.5a60.635,60.635,0,0,1-7.5-8q-3.4-4.1-9.7-3.5-.4,0-32.6,2.7l-37.6,3q-3.3.2-4.1,1.3m78.1-4.3q.949-.1,2.5,1.6,15.5,16,17.5,18.2,1.1,1.2,2.8,3.4a13.169,13.169,0,0,1,1.5,2.45q1.451,3.1-1.6-.1l-22.5-24.15q-1.2-1.1-.2-1.4m-63.1,9.2q-2.7-2.649-.4-2.95a52.574,52.574,0,0,1,5.85-.35q3.551-.1,8.95.2,15.7.8,41.6-2.6a8.288,8.288,0,0,1,8.1,3q.1.1,7.05,7.85,1,1-.15,1.45a7.82,7.82,0,0,1-7.2-1.1,8.321,8.321,0,0,0-6.1-1.4q-4.3.7-5.6.8-1.3.051-1.65.55a1.342,1.342,0,0,0-.1,1.25q.251.7,1.75.75a33.165,33.165,0,0,0,4.7-.35q4.4-.7,7,1.6,3.3,2.9,8.8.4a5.893,5.893,0,0,1,1.3-.5,1.331,1.331,0,0,1,1.2.6l10.3,11.2q1.2,1.35.15,1.65-2.05.7-19.15,1.5-17.1.75-34.8,1.95-2.15.15-3.1.25-5.25.351-6.55-1.1-.85-1.05-1.75-2.05l-20.2-22.6m-7.7-3a8.648,8.648,0,0,1,4.1,3q4.5,5.4,11.4,13.1,3.9,4.3,11.7,12.8a27.272,27.272,0,0,0,2.45,2.55,3.413,3.413,0,0,0,2.35.65q1.65-.05,2.3-.1.65-.1,5.8-.5l53.5-3.7q2.35-.049,4.2-.25t2.1,1.35l.6,2.3q.3,1.4-2,1.55a13.922,13.922,0,0,1-2.3-.05q-.6-.1-2.2-.3-1.9-.1-2.8-.1-8.6.2-12.9,0-17.2-.7-44.1,2.8a7.5,7.5,0,0,1-6.8-2.7q-9.8-10.9-23.9-25.9-.5-.5-6.75-5.25-1.5-1-.45-1.2a8.193,8.193,0,0,1,3.7-.05m-4.1,3.7q.251-.3,2.6,1.7a8.414,8.414,0,0,1,2.9,5.15q.6,3.25,1.1,7.75l4.05,41.3q.2,1.35-1.35.75l-1.2-.55q-4.5-1.7-4.2-6.8.2-3.5-.05-19.25-.251-15.8-2.15-22.75-1.95-6.949-1.7-7.3m8.8,13q-.6-5.25.2-4.4l8.2,8.8a3.423,3.423,0,0,1,1.1,2.1q.8,10.1,2.3,30.5a49.755,49.755,0,0,0,1.9,8.1q.3,1.05,1.6,4.45,1.65,4.15-1.65,1.95-2.6-1.449-5.95-3.6a5.128,5.128,0,0,1-2.7-3.8q-.3-2.9-5-44.1m12.2,13.8q-.45-5.649,1.8-3.4a31.993,31.993,0,0,1,3.6,4.2,14.2,14.2,0,0,1,2.4,7.3q.7,9.6,1.1,12.8a61.537,61.537,0,0,0,2.6,12.6q.7,2.25,2.35,6.15.5,1.1-1.9,1.05-1.249-.049-2.45-.2a2.084,2.084,0,0,1-1.9-1.25q-.6-1.7-2.1-5.4a66.11,66.11,0,0,1-3.6-13.05l-1.9-20.8m14.75,7.6a30.857,30.857,0,0,0,3.5-.2q2.75-.3,3.45.2a2.837,2.837,0,0,1,.8,2.2q.4,9.6,1,14.3.3,2.6,1.1,6.3l1.3,6.3q.5,2.3.1,2.7-.3.4-2.6.7l-2.4.1q-1.35.15-2.55.25a1.083,1.083,0,0,1-1.3-.65q-1.4-3.15-1.55-3.4a50.485,50.485,0,0,1-3.7-14.4q-.35-2.4-1-13.05-.05-1.849,1.55-1.65,1.55.251,2.3.3m10.75,2q-.3-3.2,2.6-3.3,4.5-.5,5.2.1.8.5,1.4,4.6.55,4.1,1.15,10.05a83.853,83.853,0,0,0,1.55,10.1q.949,4.1,1.4,5.95.251,1.7-1.55,1.95-5.9.85-7.15.05-1.4-1-2.4-7-.7-4.5-1.3-11.2-.5-7.5-.9-11.3m11.75.75q-.75-3.6.45-4.4,1.2-.849,5.5-1.05,5.1-.1,5.7.7.3.2.6,5.4l2.1,25.1a2.61,2.61,0,0,1-.2,1.9,1.932,1.932,0,0,1-1.7.6q-3.2.2-4.4.2a4.68,4.68,0,0,1-2.8-.5,4.085,4.085,0,0,1-1.3-2.5q-.6-2.8-1.1-5a91.158,91.158,0,0,1-1.35-9.55q-.8-7.35-1.5-10.9m15.15-2.55q-.1-2.9,2.9-2.9h6q1.3-.15,1.45,1.3.1,1.451,0,6.05t.55,14.2q.3,3.951,1.05,8.3.25,1.5.45,2.55.4,1.551-1.8,1.45l-4-.05q-2.9-.1-3.5-.6-.5-.5-1.4-4.65a77.137,77.137,0,0,1-1.25-12.1q-.35-9.05-.45-13.55m13.05-.8q-.1-2.049,1.15-2.1h4.1q2.8-.049,2.55,1.65l-.15,7.25q0,8.4.35,20.1.049,2.1.15,3.45.25,1.551-.9,1.5-.55,0-1.3-.05h-2.8q-1.25,0-1.3-1.7-.1-1.3-.3-3.25-.6-6.549-.9-10.15l-.6-14.55q-.05-1.35-.05-2.15m10.55,1.7q.15-2.25.25-3,.05-.8.9-.7a1.741,1.741,0,0,1,1.55,2l-1.1,18.8q-.1.75-.65,11.8a.89.89,0,0,1-.55.95q-.6.051-.55-.85.25-21.349.15-23.7a35.1,35.1,0,0,1,0-5.3m-31.9-17.7,3.9.6q1.751.251,2-.8.5-1.6-5.45-3.15t-13.65,2.65a18.806,18.806,0,0,1-3.6,1.5,3.8,3.8,0,0,1-2.1-.1q-1.7-.4-1.6,1,0,1.1,2.4,1.75t6.2-1.45a17.134,17.134,0,0,1,11.9-2M32.2,53.841q-.8.6-.15,2.25a3.946,3.946,0,0,0,2.6,2.3,4.478,4.478,0,0,0,4-.3,12.127,12.127,0,0,1,4.25-1.45,11.843,11.843,0,0,1,3.1.65,7.543,7.543,0,0,0,4.85-.35,5.153,5.153,0,0,1,4.55,0q1.85,1,2.85-.55.65-1.2-1.8-2.5a6.55,6.55,0,0,0-5.6-.1,4.618,4.618,0,0,1-5-.5q-2-1.7-2.9-1.7-.8,0-2.7,1.9a6.613,6.613,0,0,1-3.2,2.1,2.689,2.689,0,0,1-2.85-.95q-1.2-1.4-2-.8m1.05-6.75q1.9.9,6.25,0a17.26,17.26,0,0,1,8.45.2q4.1,1.1,6.75-.55t2.85-2.35c.133-.466.167-.733.1-.8q-.251-1.3-2.1-.6a15.4,15.4,0,0,0-2.5,1.1,6.208,6.208,0,0,1-2.5.7q-3.3-.1-8.8-.4-6.4-.3-8.8-.4a1.994,1.994,0,0,0-1.6.5,1.1,1.1,0,0,0-.2,1.1q.2.6,2.1,1.5"/></svg>