<svg overflow="visible" width="100%" height="100%" viewBox="0 0 115.733 97.667" xmlns="http://www.w3.org/2000/svg"><path d="M84.6,0q-9.9.3-13.1.2-3.1,0-4.3,1.2-1.1,1.1-1.7,4.5-.5,2.1-1.7,6.6a6.608,6.608,0,0,1-4.7,4.4,16.72,16.72,0,0,0-4.651,2.25,54.411,54.411,0,0,0-4.65,3.05,33.641,33.641,0,0,1-6.449,3.2q-4.952,2-17.75,10.5Q11.294,46.2,4,51.2-1.405,55,.5,61.3a84.383,84.383,0,0,1,2.85,11.25q.5,3.75.7,7.7T6.5,85.8q2.2,1.6,6.1,1,3.4-.5,3.1-3.6l-.4-7.7q5.1,1.6,14.5,4.8,9.6,3.3,14.4,4.8a28.577,28.577,0,0,0,3.3.6,4.941,4.941,0,0,1,2.7,1,4.292,4.292,0,0,1,.7,2.8q.1,3.2.1,3.4.3,3,1.6,4.1,1.4,1,4.3.5,4-.7,3.9-4.8-.6-7.2-.9-10.9a3.631,3.631,0,0,1,1.6-3.7q13.2-8.8,38.6-26.2.3,3.1.6,7.3a5.229,5.229,0,0,0,2.1,3.9,6.73,6.73,0,0,0,4.7.7q4.4-.6,3.8-5.8a73.1,73.1,0,0,1-1.4-12.1q0-8.2-.1-12.3a61.187,61.187,0,0,1,2.4-7.7,74.75,74.75,0,0,0,2.7-7.8q4.4-13.9-14.3-17A95.829,95.829,0,0,0,84.6,0M72.5,3.1q14.5-.1,16.3-.1A69.952,69.952,0,0,1,105,5.2q4.8,1.3,6.4,3.4,1.7,2.2,1,6.7-1.5,9.4-5.7,14.3a6.084,6.084,0,0,1-1.4,1.4q-.5.3-1.7-.2a18.869,18.869,0,0,1-7.1-4.5q-2.2-2.55-2.3-4.25a13.057,13.057,0,0,1,.2-3.25q.6-3.3.2-3.8-.4-.6-2.9-.9L77,12.3a2.263,2.263,0,0,0-2.5,1.6q-1,2.7-1.8,3.1-.7.4-3.8-.1l-3.3-.3q2.4-8.9,2.6-9.9a5,5,0,0,1,1.3-2.8,4.739,4.739,0,0,1,3-.8m-17.2,18.8a11.033,11.033,0,0,1,6.6-2.5q2.1,0,10.1.8-1.052,3.949-.4,5T81,28q8.749,1.7,9.949,1.15A2.866,2.866,0,0,0,92.394,27q.351-1.55.65-1.2.3.3,2.551,2.8,2.2,2.5,8.9,6-14.5,8.1-16.6,9.2a2.646,2.646,0,0,1-1.3.1q-.9-.2-1.1-.6-2.3-4.2-9-6.6a17,17,0,0,1-4.1-2.7,15.675,15.675,0,0,0-11.7-4.5q-6.8.2-9.4-5.05,1.35-.8,4-2.55M36.1,32.6a26.413,26.413,0,0,1,5.3-2.5q1.9-.6,5.7-1.9,2.2-1,4.5,1.2a11.91,11.91,0,0,0,8.7,2.9,15.5,15.5,0,0,1,10.4,4,21.263,21.263,0,0,0,4.4,2.6,42.347,42.347,0,0,1,5.049,3.3Q82.7,44,83,45.3a1.563,1.563,0,0,1-.9,2,15.183,15.183,0,0,0-2.3,1.1l-23.1,17.8q-6.1,4.8-12.9,2.2-6-2.4-19.5-7-12.6-4.3-19.5-7.1,28-19.5,31.3-21.7M10.745,73.8a3.856,3.856,0,0,1,2.549,2.9,14.742,14.742,0,0,1-.25,4.85q-.549,2.95-2.35,2.75A2.943,2.943,0,0,1,8.1,83a4.053,4.053,0,0,1-.8-2.2L6,71.6q2.5,1.2,4.75,2.2m19.149,3.5q-11.8-4.2-17-5.6Q7.2,70.1,5,66.2q-1.2-2.2-2-9.25L47,72.5q.6.2,2,.5,1.2.3,1.4.8a11.163,11.163,0,0,1,1,5.8q-.2,2.4-1.1,3t-3.4.1a174.372,174.372,0,0,1-17-5.4m75.4-39.5q.7-.1.9.2a3.789,3.789,0,0,1,.75,1.35,6,6,0,0,1-.1,2.85,4.837,4.837,0,0,1-2.25,3.15q-1.9,1.15-4.3,2.85l-37.1,25.6q-.7.5-6.7,3.5a1.467,1.467,0,0,1-1.7-.2,2.819,2.819,0,0,1-.9-2.1,8.983,8.983,0,0,1,.6-3.5,10.927,10.927,0,0,1,2.2-1.9q21.7-17.8,39.6-27.1,5.7-3.3,7.8-4.3a3.189,3.189,0,0,1,1.2-.4m-2.5,14.4q0-3.3,3.9-5l1.7,11.3q.2,2.2-2,2.1a5.943,5.943,0,0,1-1.9-.2,1.884,1.884,0,0,1-.9-1.7,44.132,44.132,0,0,1-.8-6.5m-47.7,28q2.1-.8,2.3,3.15t.351,7q.15,3.049-.3,3.8-.249.45-1,.3a1.282,1.282,0,0,1-.8-.35,4.629,4.629,0,0,1-1.6-2.75Q52.246,80.9,55.1,80.2"/></svg>