<svg overflow="visible" width="100%" height="100%" viewBox="0 0 96.325 116.03" xmlns="http://www.w3.org/2000/svg"><path d="M57.845,1.38q-.5-.3-1.4.4a9.333,9.333,0,0,1-6.1,1.8q-4.2-.6-6.2-.9a14.662,14.662,0,0,0-8.7,1.7,50.076,50.076,0,0,0-6.8,4.9q-1.4,1.7-2.2,2.55a1.4,1.4,0,0,1-1.8.35q-1-.5-3,.4a30.424,30.424,0,0,0-5.8,2.7q-3.1,1.7-4.6,2.7a8.119,8.119,0,0,0-3.5,3.9l-7.3,19.5q-.7,2.2-.3,2.8,2.4,3.3,2.8,3.7a5.286,5.286,0,0,0,4.2,1.8,2.243,2.243,0,0,1,1.8.7,6.847,6.847,0,0,1,.9,1.6q2,4.9,4.7,10.1a2.413,2.413,0,0,0,1.8,1.3,1.537,1.537,0,0,0,1.8-.8,4.846,4.846,0,0,1,3.3-2.5q1.3-.2,4.1-.5,1.9-.4,2.4,1.7,2.5,11.3,2.8,13.1a47.526,47.526,0,0,1,.3,13.3q0,.3-1.2,8.6-1.249,8.3-1.4,11.25-.2,2.951.35,3.25c.2.134.434.284.7.45q.4.2.9.5.551.3,1.3.75a28.75,28.75,0,0,0,11.35,3.4,98.906,98.906,0,0,0,11.1,0,4.066,4.066,0,0,0,3.1-1.1,7.748,7.748,0,0,0,.7-3.6q-.1-15.9.5-23.8a105.608,105.608,0,0,1,1.8-14.2,34.267,34.267,0,0,1,5.9-13.1q.9-1.1,3.65-4.35.7-.9,2.2.2,1.451,1.05,2.85,2.05,1.7,1.3,4.1-.3,4.7-2.8,8.4-.4,3,2.1,4.1-1.6,4.2-15,4.8-17.6a2.684,2.684,0,0,0-.1-1.6,2.772,2.772,0,0,0-.8-1.4,5.708,5.708,0,0,1-1.8-2.7,20.981,20.981,0,0,1-.4-3.1q-.3-3.9-1.2-4.5a5.194,5.194,0,0,1-2.3-3.4q-.2-2.7-.3-4.1-.2-4.4-1.4-5.5a12.523,12.523,0,0,1-3.6-6.8q-.5-2.8-3-2.3a6.073,6.073,0,0,1-5.5-1.5q-2.8-2.2-8.7-.3-6.4,2-9.3.5m-1.4,3.7a2.092,2.092,0,0,1,1.4-.5,9.653,9.653,0,0,0,6.2.4q1.9-.5,5.8-1.8a10.331,10.331,0,0,1,2.9-.3,3.753,3.753,0,0,1,2.4,1.4,3.955,3.955,0,0,0,2.3.9,13.93,13.93,0,0,1,3.2.9q1.4.6,2.5,3.3a11.929,11.929,0,0,0,1.4,2.9q2.6,1.7,2.4,7.3-.2,5.4,2.9,7.1.5.2.7,1.3.4,4.9.5,5.1a7.637,7.637,0,0,0,2.4,4.5,2.413,2.413,0,0,1,.1,1l-3.7,13.9q-.7,2.9-3.3,1.4-3.3-2-7.9.7-1.9,1.2-2.7.8a20.1,20.1,0,0,1-4.3-3.2q-.3-.3.5-2.2,2.3-5.1-3.8-4.5-7.4,1.8-9.1,2.3t-1.95-.25q-.249-.7-.8-2.95a8.518,8.518,0,0,0-.85-2.6q-.4-.3-2.9.5-6.3,1.8-9.4,2.9a2.2,2.2,0,0,1-1.6,0,7.45,7.45,0,0,1-1.3-1q-2.1-1.8-3.1-1.6-.8.1-2.6,2.3a4.246,4.246,0,0,1-4.5,2.2,3.691,3.691,0,0,1-3.4-3.6q-.4-2.2-1.9-2.45-1.55-.249-1.3.75,1.05,4.8,2.4,10.4.6,2.8-.1,3.7a3.267,3.267,0,0,1-2.5,1.1q-1.95.15-2.8.15t-3.8,2.7a40.863,40.863,0,0,0-2.75-5.2,14.32,14.32,0,0,1-2.15-5.35q-.3-2.1-3.7-2.7-3.7-.6-4.6-2.3-1-1.6.3-5.1,3.3-8,4.6-12.1,2-6.1,6-7.9a41.019,41.019,0,0,0,5.1-2.6,10.393,10.393,0,0,1,5.7-.9,2.987,2.987,0,0,0,2-.8,7.646,7.646,0,0,0,1.8-1.8q2.2-3.4,8.3-6.7a6.872,6.872,0,0,1,2.9-.7q1-.1,3.2-.1a53.452,53.452,0,0,1,6.5.6,10.172,10.172,0,0,0,6.4-1.3M33.3,52.43q.351,1.251.45,1.55a33,33,0,0,1,1.6,9q.2,3.1.3,9.2a33.446,33.446,0,0,0,.15,4,10.489,10.489,0,0,0,.85,2.5q.7,1.551,2.7.7,1.251-.3,1.15-6.45a42.828,42.828,0,0,1,.25-7.95q2.3-8.6,1.3-13.6a2.493,2.493,0,0,1,.2-1.7,2.128,2.128,0,0,1,1.3-1q.3-.1.8.3a1.96,1.96,0,0,1,.5.7,33.048,33.048,0,0,1,1.35,10.6q-.249,4.851,1.15,5.5,2.25.3,1.6-3.9l-1.3-12.3a4.24,4.24,0,0,1,0-2.3q.3-1,2-1.2a20.851,20.851,0,0,0,2.8-.6q1.35-.4,1.75,1.3a9.232,9.232,0,0,0,1.4,3.15q.951,1.45,4.75,1.5a39.2,39.2,0,0,0-3.4,3.45q-1,1.3.2,2,.8.5,2.5-.8l5.7-5.5q1.7,1.3,1.4,2.7a11.1,11.1,0,0,1-1.3,2.4q-3.3,5.4-4.8,8.1a28.577,28.577,0,0,0-3.1,8.8q-3.1,21.9-2.4,37.6,0,3.3-3.3,3.2-5.1,0-7.6-.2a23.284,23.284,0,0,1-7.65-1.7,53.664,53.664,0,0,0-5.5-2.05q.351-4.05,1.05-9.75.8-6.7,1.3-10.2a60.419,60.419,0,0,0,.4-10.6,88.014,88.014,0,0,0-1.6-11.8q-.5-2.6-2.6-11.6-.9-4.1-.3-4.9A4.188,4.188,0,0,1,32,49.43a12.766,12.766,0,0,0,2.4-.55q.4-.249,1.5-1.1a4.344,4.344,0,0,1,2.05-1,26.255,26.255,0,0,1,1.5,7.5,21.917,21.917,0,0,1-1.1,6.9q-2-7.55-2-7.95a2.392,2.392,0,0,0-.55-1.1,1.8,1.8,0,0,0-1.4-.7q-.95-.1-1.1,1m12.3,20.3a13.208,13.208,0,0,0-.4-3.4q-.45-1.55-1.15-1.55-1.2.1-1.2.8t.05,2.6a31.458,31.458,0,0,0,.15,3.3,22.824,22.824,0,0,1,.1,3.1q-.1,1.7,1,1.6,1.6-.1,1.55-2.3-.1-2.25-.1-4.15m3.05-2.85a4.058,4.058,0,0,0-.4,2.85q.251,1.6.85,1.65.951.4,1.6-1.1a9.15,9.15,0,0,0,.75-3.1q.251-2.45-1.3-1.9a3.531,3.531,0,0,0-1.5,1.6m-30.5-37.2q-.3,2.6-3.2,2.4a9.068,9.068,0,0,0-2.5.2,1.589,1.589,0,0,0-.8.6l-.7.9q-1.05,1.35,1.4,1.1,3.3-.3,8.3,2.6a3.239,3.239,0,0,0,1.45.15q1-.05.1-2-2.349-2.949-.95-5.75.9-1.8,5.1-5.8,2.05-1.7-.75-2.2a2.7,2.7,0,0,0-1.6.6q-.549.5-3.1,2.8t-2.75,4.4m22.4-15.55q-.1-.949-1.2-.75-1.249.051-1.8,2l-2.5,8.7a20.709,20.709,0,0,1-.45-5.05q-.1-3.9-1.15-3.95-1.65-.6-1.65.95-.05,1.551-.05,4.05l-.1,5.4q-1.6-.849-2.25-1.15t-1.3.5q-.649.8.8,1.75a8.74,8.74,0,0,1,2.8,3.6q1.35,2.7,1.95,2.5.6-.1.7-1.1a8.955,8.955,0,0,1,.3-3.9,5.08,5.08,0,0,1,1.7-1.3q1.3-.6,1.3-1.5,2.2-7.3,2.6-9.1.1-.4.3-1.65"/></svg>