<svg overflow="visible" width="100%" height="100%" viewBox="0 0 113.893 116.172" xmlns="http://www.w3.org/2000/svg"><path d="M81.891.451a15.3,15.3,0,0,0-7.75.1q-4.1,1-12.25,8.45-.7-3.2-.9-3.7a4.853,4.853,0,0,0-2.2-3,4.9,4.9,0,0,0-5.3.6,4.952,4.952,0,0,0-2.5,4.8q1.95,11.2,2.7,21-.45-.3-1-.6a49.662,49.662,0,0,0-11.45-4.7,36.47,36.47,0,0,0-16.05-.5q-10,1.7-18.6,9.9a7.189,7.189,0,0,0-1.5,2.6,70.573,70.573,0,0,0-4.2,12.8,52.749,52.749,0,0,0-.6,15.3,96.869,96.869,0,0,0,2.8,16.4,34.073,34.073,0,0,0,9.2,15.6,80.513,80.513,0,0,1,5.3,6.2,21.374,21.374,0,0,0,6,5.4q5.8,2.8,17.6,8a11.112,11.112,0,0,0,7.7.7,40.157,40.157,0,0,0,7.5-2.6q8.9-3.8,16.8,0a12.8,12.8,0,0,0,9.2.6q2.2-.7,6.9-2a15.981,15.981,0,0,0,6.1-3.5q14-16.5,18.3-32.1a59.424,59.424,0,0,0-2.2-21.6,63.542,63.542,0,0,0-9.4-19.5q-11-14-22.3-14a12.725,12.725,0,0,1-3.1-.5q-2.9-.7-3.7-.8a180.02,180.02,0,0,1,12.1-14.2,3.149,3.149,0,0,0,.9-2.9q-.4-1.3-4.1-2.25m-1.6,23.25a20.169,20.169,0,0,1,7.7,2.5,43.856,43.856,0,0,1,16.2,17.8,62.354,62.354,0,0,1,6.6,23.1q.2,4.5.2,5.7a16.259,16.259,0,0,1-.8,5.5,64.386,64.386,0,0,1-10.7,20.5q-5.3,6.7-7.2,8.1-2.3,1.6-9.9,4.1a10.422,10.422,0,0,1-7.7-.3q-9.6-4.4-20.1.1-3.3,1.4-5.1,2a10.132,10.132,0,0,1-5.3.5q-13-5.1-15.5-6.4a31.944,31.944,0,0,1-12.5-11.1l-1.7-1.9a31.076,31.076,0,0,1-9.3-17.5,104.786,104.786,0,0,1-2-19.1,44.55,44.55,0,0,1,3.9-18.8q5.1-10.7,17.8-12.9,11-1.9,18.4,1.3,7.35,3.15,9.65,4.4a7.683,7.683,0,0,0,.95.45q.05,1.251.1,2.45.1,2.7-.5,3.2t-3.4.3q-1.4-.1-2.2-.1a1.6,1.6,0,0,0-1.6,1.1q0,1.3.8,1.5a71.951,71.951,0,0,0,8.3.8,14.61,14.61,0,0,0,7.9-2.5q1.1-.8.9-1.5a1.087,1.087,0,0,0-.5-.8q-.5-.5-.7-.4-1.3.4-1.8-.2a3.441,3.441,0,0,1-.3-1.8,7.037,7.037,0,0,1,2-5.2,22.663,22.663,0,0,1,6.45-4.5,7.934,7.934,0,0,1,2.85-.8q6.6.2,8.1.4M57.791,5.9a2.557,2.557,0,0,1,.8,1.3l-.3,12.3q-.1,1.1.3,7.8a21.245,21.245,0,0,1-1,8l-3.5-25.9a5.458,5.458,0,0,1,.2-3,2.119,2.119,0,0,1,2.3-1.3q.5,0,1.2.8m12.5,13.4a20.62,20.62,0,0,1-4.2,2.8q-3.9,2.1-4.4,2.4-1.7-8.6,5.2-15.7t15.6-5.5l-12.2,16"/></svg>