<svg overflow="visible" width="100%" height="100%" viewBox="0 0 115.634 72.252" xmlns="http://www.w3.org/2000/svg"><path d="M43.474,1.194q-1.65-.75-2.55-1.05-1.7-.7-2.65,2-1.249,3.649-1.75,2.6a10.639,10.639,0,0,0-1.4-3.3,3.342,3.342,0,0,0-2.9-1.4,1.524,1.524,0,0,0-1.2.45,1.023,1.023,0,0,0-.35.95q.1.5,1.1.95a3.515,3.515,0,0,1,1.55,2.15,16.045,16.045,0,0,1,.75,3.05q.35,2.051,1.1,2.45a1.8,1.8,0,0,0,1.65,0q-.05,4.75.95,5.15,1.4.55,1.6-1.35a6.329,6.329,0,0,1,.65-2.7,3.363,3.363,0,0,1,2.05-1.75,1.567,1.567,0,0,1,1.8.8,20.727,20.727,0,0,1,1.4,2.85,1.288,1.288,0,0,0,1.75.8q.6-.2.6-1.1a6.141,6.141,0,0,0-1.8-4.15,7.007,7.007,0,0,0-3.85-2.2q-2.2-.4-1.75-1.35a3.1,3.1,0,0,1,.8-1.3,2.353,2.353,0,0,1,1.5-.25,6.58,6.58,0,0,1,1.7.25q.6.15.75-.85.1-1-1.5-1.7m32.35,30.3q-.6.2-.7,1.1a14.786,14.786,0,0,0,.4,3.9,11.074,11.074,0,0,0,3,5.65q2.5,2.6,8.3,4.1,2.9.8,3.4,1.4a8.253,8.253,0,0,1,.95,3.15,12.526,12.526,0,0,1,.15,4.25q-.3,1.7-3,5.25t-4.9,4.05a13.115,13.115,0,0,1-9.6-1.2,13.3,13.3,0,0,1-6-7.7q-.3-.9-2.3-7.8a40.594,40.594,0,0,0-2.9-7.6,91.152,91.152,0,0,0-7.5-11,35.361,35.361,0,0,0-10.25-8.3,33.5,33.5,0,0,0-6.55-2.6,4.349,4.349,0,0,1-2.1-.8,7.244,7.244,0,0,1-1.3-2.6,36.5,36.5,0,0,0-3.8-7.3q-2.8-3.6-5.15-3.65a5.2,5.2,0,0,0-3.25.65q-.851.7-.6,1.2a3.081,3.081,0,0,0,3.25,1.6q2.351-.2,4.45,3.4a54.555,54.555,0,0,1,3.1,6.6q-4.9,1.2-7.2,1.7a27.525,27.525,0,0,0-6.8,2.5,64.393,64.393,0,0,0-10.3,8.3,25.968,25.968,0,0,0-6.5,11.5q-1.9,6.8-2,7.7a10.838,10.838,0,0,0,1.7,7.8q2,3-.2,4.8-.7.6,0,2.7a6.537,6.537,0,0,0,5,4.2,103.794,103.794,0,0,0,28.2,3.8q6.4.1,28.4-1.1,12.2-.7,21.8-1.6,12.9-1.2,15.8-11.9.7-2.4.2-9.2-.1-2.6.65-3.4.7-.8,3.85-1.45a17.935,17.935,0,0,0,6.35-2.8q3.2-2.2,3.6-3.45t-.2-1.3a5.665,5.665,0,0,0-1.3.05,4.444,4.444,0,0,0-1.85,1.15,3.584,3.584,0,0,1-2.9.75q-1.65-.251-4.95-.9a45.861,45.861,0,0,0-5.45-.8,12.9,12.9,0,0,0-3.35.1,13.216,13.216,0,0,0-1.65.4q-.45.1-5.5,1.9-5.049,1.75-7.6-2.55-2.6-4.249-3.45-4.55a2.25,2.25,0,0,0-1.45-.1m11.5,9.75a41.868,41.868,0,0,1,5.85-1.9,39.341,39.341,0,0,1,4.75-.7,16.5,16.5,0,0,1,5,.15,18.442,18.442,0,0,1,4.1,1.3q1.85.8-.9,1.45-2.749.6-6.45,1.25-1.9.2-1.7,1.75a14.285,14.285,0,0,1,.25,2.2l.4,4.4a12.592,12.592,0,0,1-2.4,9.8,13.381,13.381,0,0,1-7.4,4.8q-2.25.65-.2-1.55t3.6-4.2a9.836,9.836,0,0,0,1.75-5.25,30.426,30.426,0,0,0-.15-5.85,6.783,6.783,0,0,0-1.1-3.55q-.7-.9-3.3-1.5l-4.2-.9q-1.65-.251,2.1-1.7m-71.25-14.1a47.025,47.025,0,0,1,7.3-4.75,16.978,16.978,0,0,1,9.95-1.8q5.6.5,7.65,1.45a53.412,53.412,0,0,1,6.5,3.9,26.988,26.988,0,0,1,6.85,6.3,55.84,55.84,0,0,1,9.7,20.4q1.8,8.749,7.3,11.65,5.451,2.9,3.9,3.35a25.234,25.234,0,0,1-3.8.6q-2.25.2-6.15.65a9.75,9.75,0,0,1-6.05-.9q-2.2-1.3-6.2-3.6a21.994,21.994,0,0,1-6.7-6.05,9.327,9.327,0,0,1-1.7-2.5,2.235,2.235,0,0,1,.45-2.3,2.4,2.4,0,0,0,.6-2.05,1.213,1.213,0,0,0-1.25-1.1q-1.05-.05-7.15,5.15-6.15,5.15-15.95,5.45t-12.95-1.1q-3.15-1.45-3.95-5.65a20.248,20.248,0,0,1,.1-10,39.412,39.412,0,0,1,2.9-7.8,17.988,17.988,0,0,1,3.65-5q2.051-1.95,5-4.3m26.55,38.2-4.8-4.25q-1.249-1.1-.2-1.7l2.35-1.45q1.65-.95,2.4,0a29.176,29.176,0,0,0,10.7,9.45q1.85.95-.2,1.35-1.65.251-2.65.3a10.5,10.5,0,0,1-2.7.05,3.876,3.876,0,0,1-1.25-.6q-.65-.45-3.65-3.15m-5.45-1.6a40.354,40.354,0,0,0,3.4,3.15q.45.349,1.2.85,2.1,1.549-.55,1.6a54.032,54.032,0,0,1-7.2-.1,11.586,11.586,0,0,1-7.05-4.15q-.9-1,.8-1.75a18.469,18.469,0,0,1,4.95-1.75q2.051-.251,4.45,2.15m-18.25.6a8.092,8.092,0,0,1,4,.85,30.824,30.824,0,0,1,3.3,2.8q1.2,1.249-1,1.15a21.112,21.112,0,0,1-5.15-.55,5.244,5.244,0,0,1-2.9-2.45q-1.2-1.9,1.75-1.8m-12.5-1a9.782,9.782,0,0,0,3.6.65,4.837,4.837,0,0,1,3.45,1.7q1.549,1.6-1,1-2.45-.45-3.65-.75a6.056,6.056,0,0,1-3.1-2.15q-.649-.9.7-.45m59.15-1.55q-.2-1.9-1.75-1.4a1.507,1.507,0,0,0-.85,1.55,9.743,9.743,0,0,0,.4,2.55q.4,1.5-.45.9a31.316,31.316,0,0,0-3.05-3.2q-1.6-1.451-1.95-.3a1.9,1.9,0,0,0,.65,2.05q1,.949,2.05,2a4.448,4.448,0,0,0,2.55,1.2q1.451.2,1.85-.55a7.661,7.661,0,0,0,.55-1.8,11.047,11.047,0,0,0,0-3m-15.45-11.85q-1.749.65-1.5,1.9.25,2.149,1.7,1.4,1.35-.75,1.3-1.45a4.313,4.313,0,0,0-.35-1.4.836.836,0,0,0-1.15-.45"/></svg>