<svg overflow="visible" width="100%" height="100%" viewBox="0 0 116.616 70.018" xmlns="http://www.w3.org/2000/svg"><path d="M114.516,29.825a5.176,5.176,0,0,0-3.1-.5q-7,.5-10.4.6-2.9,0-3.4-.5-.6-.5-.8-3.3-.1-6.9-.3-10.4-.1-2.4-1.2-3.1-.9-.7-3.3,0a24.88,24.88,0,0,1-7.5,1.25q-3.551,0-12.5-.45-9-.5-9.8-1.6-.6-.8-.4-4.5.2-3.1-2.8-3.1-18.2-.6-39.2-2-2.7-.2-7.1-.9-5.4-1-7.7-1.2a11.989,11.989,0,0,0-3.5,0q-1.2.2-1.45.9t.45,4a100.245,100.245,0,0,1,2.6,31.9,54.483,54.483,0,0,0,.1,6.8q.8,3.4,4.9,3.1,11.2-.8,12-.8a17.326,17.326,0,0,0-2.5,5.65,14.852,14.852,0,0,0-.1,4.55,11.523,11.523,0,0,0,1.7,4.7q1.449,2.4,5.45,2.75a30.034,30.034,0,0,0,7.75-.3,7.531,7.531,0,0,0,5.4-3.25,13.382,13.382,0,0,0,1.8-6.4q.15-3.849-1.15-5.75-1.35-1.95,1.85-1.8,2.6.1,6.8.15,7.749.049,8.8,1a12.585,12.585,0,0,0,6.8,3.3,46.746,46.746,0,0,0,7.5.4h11.2a108.426,108.426,0,0,1,11.1.3q1.6.2.5.9-4.2,1.9-6,7.5a7.379,7.379,0,0,0,.5,5.1,7.14,7.14,0,0,0,3.2,3.8q6.5,3.4,13.9-1.5,7.5-5.1,5.2-12.4-.8-2.2,1.45-2.4a4.7,4.7,0,0,1,2.05.3q2,.6,2.5.1a4.6,4.6,0,0,0,.7-2.8l.1-12.4a33.433,33.433,0,0,0-.7-4.9,4.533,4.533,0,0,0-1.4-2.8m-1.1,4.9q.4,8.8.4,13.3a2.1,2.1,0,0,1-.2.85q-.2.45-1.7.3-13.8-.45-20.8-.75-12.2-.6-17.2-.4-5,.15-6.2.2-1.2,0-3-.05t-1.6-2.05q2-11.25-.7-25.4a6.63,6.63,0,0,1,.05-3.2,2.04,2.04,0,0,1,1.95-1.3,21.506,21.506,0,0,1,2.9-.1q4.6.3,13.1,1a39.782,39.782,0,0,0,10-.8q3.15-.851,3.15,1.15.3,4.05.75,10.65.2,3.4,1.1,4.2.8.8,4.3.7l10.4-.8q3.2-.3,3.3,2.5m-8.25,19q3.35,2.6,1.95,6.1a10.281,10.281,0,0,1-4,5.1,12.227,12.227,0,0,1-7.4,1.7q-5.8-.1-6.1-4.5-.3-4.3,2.45-6.5a18.007,18.007,0,0,1,6.2-3.35,7.184,7.184,0,0,1,6.9,1.45m-50.25-46.7q2.8.2,3.3.7t.5,3.3a24.071,24.071,0,0,1-.2,3.2q-.4,1.5-2.5,1.3-11-.5-18.9-.4a104.188,104.188,0,0,1-14.1-.9q-9.3-1.2-14-1.8a6.035,6.035,0,0,1-3.2-1,4.221,4.221,0,0,1-1.5-2.9q-.2-1.65-.65-3.8-.5-2.149.95-2.05t2.4.25q.9.1,6.4,1.2a60.347,60.347,0,0,0,8.3,1.2q11.1.9,33.2,1.7m-49.3,10.1q-.1-2,2-1.9a288.274,288.274,0,0,0,45.5,3q4.4,0,5.2.7.9.8,1.6,5.2.8,4.3.2,5t-4.9.8q-9.2.7-17.5.55t-17.2-.65q-8.9-.5-11.5-.65-.851-.05-1.45-.1-1.75.05-1.7-1.5l-.25-10.45m.35,15.8q-.2-1.149,2.85-.95.85,0,1.95.05,4.05.05,10.9.45,6.849.349,15.75.45h19.9q2.9-.1,3.6,1a10.717,10.717,0,0,1,.4,3.9q-.1,5-.9,5.8-.9.8-6,.4a256.557,256.557,0,0,0-44.1-.2q-3.1.1-3.7-.4-.5-.5-.5-3.5l-.15-7m14.5,19.85a11.721,11.721,0,0,1,2.05-3.85q1.149-1.35,4.55-1.95a10.144,10.144,0,0,1,5.4.2q2.049.75,3.6,4.3,1.5,3.55-.35,6a8.524,8.524,0,0,1-4.75,3.1,16.627,16.627,0,0,1-6.05.2,5.069,5.069,0,0,1-4.25-2.95,6.636,6.636,0,0,1-.2-5.05m71.05-20.45a5.9,5.9,0,0,0,0-2.7q-1-4.9-4.6-6.85a13.141,13.141,0,0,0-5.7-1.95,4.277,4.277,0,0,0-2.8.55,2.307,2.307,0,0,0-.9,1.5,24.611,24.611,0,0,0,0,4.65q.2,3.7.25,5a2.085,2.085,0,0,0,.6,1.75,2.217,2.217,0,0,0,1.45.45q8.8-1,9.5-1.1a3.2,3.2,0,0,0,2.2-1.3m-5.05-6.3a20.779,20.779,0,0,1,2.25,3.5q.7,1.55-1.35,1.75-2.1.2-4.45.5a2.168,2.168,0,0,1-2.7-2.1,51.884,51.884,0,0,1-.45-5.9q0-1,2.6-.35a6.875,6.875,0,0,1,4.1,2.6"/></svg>