<svg overflow="visible" width="100%" height="100%" viewBox="0 0 114.07 71.179" xmlns="http://www.w3.org/2000/svg"><path d="M63.957,8.3a13.783,13.783,0,0,0-1.4-5.2q-1.3-2.9-2.7-3.1-1.4-.1-3.2,2.5-7.6,10.7-12,17.7-5,8.1-5,13.7a5.01,5.01,0,0,1-1.1,3.5,8.66,8.66,0,0,1-3.1,1.7q-7.7,2.6-19.3,6.8-9,3.249-10.95,4.2a2.2,2.2,0,0,0-.7.75l-.65,1.5q-.5,1.4-.9,2.55-.45,1.1-1.6,4.35a20.765,20.765,0,0,0-1.3,5.4,6.147,6.147,0,0,0,.3,3.15q.5,1,3.3,1.9a33.889,33.889,0,0,0,20.1-.1,125.127,125.127,0,0,0,21.5-8.75q2.651-1.35,4.4-2.3,6.6-2.651,6.8-2.75a20.009,20.009,0,0,1,7.6-1.2l45.7-.8q4.3-.5,4.3-5.6a4.178,4.178,0,0,0-.6-2.9,5.39,5.39,0,0,0-3.1-1.3l-22.6-3.3a111.648,111.648,0,0,1,10.3-7.1q6.651-4.2,8.8-5.35a23.471,23.471,0,0,1,3.35-1.55,9.114,9.114,0,0,1,1.6-.5,1.957,1.957,0,0,0,1.8-2.25q-.15-2.25-4.25-3.35-1.2-.3-7.3-1-3.1-.2-3.7-.9-.5-.6-.6-3.9.1-2,.1-3a9.218,9.218,0,0,0-.4-2.9,4.933,4.933,0,0,0-3-3.6q-2.3-.9-3.9,1.9a15.141,15.141,0,0,0-2.1,6.2q0,.5-.3,6.7a3.483,3.483,0,0,1-2.6,3.7q-10.05,3.7-23.75,7.35.15-.5.35-1.15a42.268,42.268,0,0,0,1.45-8.5q.351-5,.35-13.2m-4.5-5.2q.7,1.7,1.5,3.5,0,3.6.4,10.9a24.382,24.382,0,0,1-2,10.5,40.786,40.786,0,0,0-.95,4.05q-2.55.6-5.15,1.25-.349.1-4.5,1.15-3.5.849-3.7.95-2.1.7-2.6-.5a11.9,11.9,0,0,1,.1-2.5q1.5-6.7,7.1-14.9,6.7-9.2,9.8-14.4m23.4,36.4q-2.5,2.6.9,3.6a27.473,27.473,0,0,0,5.7.9l21.9,3q.1,2.6-1.4,3.4a7.709,7.709,0,0,1-3.3.6q-.4,0-47.6.6a7.639,7.639,0,0,0-4.2.45q-1.55.75-2.1,1.05l-.9.45q-.4.2-14.1,6.9Q25.708,66.3,18.857,68a25.7,25.7,0,0,1-14.2-.9q-2-.7-1.6-2.5l3.45-11.4a4.357,4.357,0,0,1,1.8-1.5q1.5-.9,2.05-.55t.4,2.75q-.2,2.4,3.9,2.1,3.1-.3,3-4.8a2.935,2.935,0,0,1,.8-2.5,7.813,7.813,0,0,1,2.2-1.1q4.15-1.551,22.05-8.45l-.05.05q10.6-3,11-3.1l33.7-10a4.985,4.985,0,0,0,3.8-5.2V13q.2-4,3.3-4.6.5-.2.4,1.2V16q.1,4.3.8,5.1.8.9,4.9,1.2.2,0,5.2.6,6.4.5.7,2.4l-3.8,1.6a108.047,108.047,0,0,1-9.8,6.5q-7.4,4.3-10,6.1m-68.8,13.3a1.714,1.714,0,0,1-.55-1.05,2.006,2.006,0,0,1,1.45-1.55,1.615,1.615,0,0,1,.75,1.8q-.3,1.149-1.65.8m32.7-10.1a4.6,4.6,0,0,0-1.85-.1,4.462,4.462,0,0,0-1.6.7,8.871,8.871,0,0,0-1.15.8q-1.9,2.4-1.7,4.2.3,2,3.3,2.6a3.881,3.881,0,0,0,4.9-2.9,4.006,4.006,0,0,0-1.9-5.3m-1.8,2.95q.7-.251,1.05.75-.15,1.549-1.3,1.35-1.151-.25-.95-.95a2.333,2.333,0,0,1,1.2-1.15m27.5-5.45a4,4,0,0,0,3-1.6,2.136,2.136,0,0,0,.5-1.3,1.694,1.694,0,0,0-.6-1.45,5.385,5.385,0,0,0-2.2-1.15,1.959,1.959,0,0,0-2.4,1.5,3.907,3.907,0,0,0,.1,2.6q.6,1.4,1.6,1.4m10.15-9.9a4.3,4.3,0,0,0-3.05-.2,3.519,3.519,0,0,0-2.3,1.5,2.068,2.068,0,0,0,.15,2.25q1.251,1.95,2.95,1.65a3.49,3.49,0,0,0,2.7-1.6,2.772,2.772,0,0,0,.35-2.7,2.206,2.206,0,0,0-.8-.9m-15.3,10.75a12.507,12.507,0,0,0-.3-1.8,11.029,11.029,0,0,0-.65-1.15q-.649-.951-2.3-.35a4.808,4.808,0,0,0-2.1,1.45,1.919,1.919,0,0,0-.4,1.3q.5,2.6,1.7,3.1a2.627,2.627,0,0,0,1.8.2,3.652,3.652,0,0,0,1.7-.7q.7-.5.55-2.05m-12.15-.1q-.949-.4-2.55.9a2.976,2.976,0,0,0-1.15,3.2q.4,1.849,3.1,1.95,2.7.2,2.55-3.95a4.359,4.359,0,0,0-.55-1.05,3,3,0,0,0-1.4-1.05"/></svg>