<svg overflow="visible" width="100%" height="100%" viewBox="0 0 111.114 69.178" xmlns="http://www.w3.org/2000/svg"><path d="M5.914.178q-3.3.3-4.2,1.3-.9.9-1.1,4.2l-.3,9.9a25.9,25.9,0,0,1-.2,3,7.734,7.734,0,0,0-.05,2.3q.15.6,1.25,1.05l45.7,20.05-8.7,23.7q-1.2,3.4,3.4,3.4,9.7.2,19.4,0,2.7,0,3.3-1.1.6-1-.7-3.5-1.1-2.3-5.3-9.7a92.784,92.784,0,0,1-5-10.1l53.4,18.2q3.45,1.151,3.8-.5a14.526,14.526,0,0,0,.35-3q-.049-1.4-.05-2.1.2-8.3.2-24.8,0-3.3-3.5-4.1l-3-.4q-3.1-.4-3.8.1-.8.6-1.1,3.7l-1.2,13.9-12.4-.9q-3.5-.4-4.2,1.2a29.824,29.824,0,0,0-1.3,4.9,350.688,350.688,0,0,1-46-17.5q-3.1-1.4-3.6-2.2t-.4-4.3q.1-3.9-.8-4.9t-4.9-1.6l-12.3-1.7q-3-.3-2.2-3.2a87.534,87.534,0,0,0,2.2-11.2q.5-3.2-1.7-4a12.729,12.729,0,0,0-5-.1m1.2,2.65q3,.3,2.8,1.85l-2.2,10.4q-.7,3.2-.1,4.4.8,1.7,4.3,2,3.7.3,13.7,2.1a4.949,4.949,0,0,1,1.5.5q.7.4.8.8a12.2,12.2,0,0,1-.2,3.25q-.349,1.3-1,1.4t-7.45-2.75q-6.849-2.9-11.2-4.7t-4.95-2.6q-.6-.8-.35-3.4t1.05-11.2q.25-2.351,3.3-2.05m41.6,42.25q.551-1.5,1.35,0l11.25,20.7h-20.2l7.6-20.7m37.7,7.8a2.847,2.847,0,0,1-2.2-3.3q0-2.5,2.4-2.1,7.5.8,8.8,1a3.635,3.635,0,0,1,2.7,1.7q.3.5.8,1.5.5.8,1.4.2a4.78,4.78,0,0,0,1.5-1.7,3.077,3.077,0,0,0,.5-1.8,23.186,23.186,0,0,1-.5-8.1,52.025,52.025,0,0,0,.4-8.1q-.3-1.7,1.9-1.5,2.7.2,3.6,1.2,1,1.1,1,3.9v9.3q-.2,6.6-.3,8-.1,3.5-.9,4.2-.8.6-4.5.3a30.979,30.979,0,0,1-4.9-.7l-11.7-4"/></svg>