<svg overflow="visible" width="100%" height="100%" viewBox="0 0 116.101 60.568" xmlns="http://www.w3.org/2000/svg"><path d="M71.81,25.039a74.962,74.962,0,0,0-7.9.45,22.917,22.917,0,0,1-2.5.25q-.651,0-1.15-2.6a14.182,14.182,0,0,0-1.65-4.55q-2.2-3.8-7.4-3.4-4.8.4-6.3,1.3a10.293,10.293,0,0,1-5.6,1.6q-3.7-.1-7.05,0-1.35.1-1.5-.95a6.087,6.087,0,0,1,.95-3.95,36.961,36.961,0,0,1,2.6-3.2,57.808,57.808,0,0,1,6.5-6q2.9-2.3,5.3-.6a15.281,15.281,0,0,1,3.5,4.7q.549,1,1.2.75a3.458,3.458,0,0,0,1.05-.6q.4-.4-.3-2a35.562,35.562,0,0,0-1.7-3.35,5.113,5.113,0,0,0-3.05-2.4q-4.9-1.5-8.3,1.6-7.7,6.9-10.3,11.2-.5.9-1.5,2.6a4.146,4.146,0,0,0,0,3.1q.6,1.6-2,5.3-.2.3-1.5.2-1.5-.2-2.1-.3-9.6-.2-15.3,5.5a25.359,25.359,0,0,0-4.4,5.5,13.465,13.465,0,0,0-1.35,7.45,26.123,26.123,0,0,0,.8,5.6,10.606,10.606,0,0,0,2.15,3.45,24.074,24.074,0,0,0,3.95,3.85q2.3,1.8,7.2,1.45a25.687,25.687,0,0,0,8.25-1.9,19.742,19.742,0,0,0,7.3-5.9q6.7-7.7-1.5-20.8a4.083,4.083,0,0,1-.2-4.1q1.3-2.2,1.9-3.4a3.136,3.136,0,0,1,.2-.35,4.674,4.674,0,0,1,.65.05q3.849.2,6.75.3a2.179,2.179,0,0,1,2.3,1.3,8.686,8.686,0,0,1,.4,2.9q0,1-.1,2.65a18.613,18.613,0,0,1-.95,4.25,14.19,14.19,0,0,0,.1,7.1,44,44,0,0,0,3.65,9.9,10.54,10.54,0,0,0,9.6,6l20.3.5a5.153,5.153,0,0,0,3.5-.8,6.046,6.046,0,0,0,1.6-3.3l2.2-8.2q.7,6.8,5.1,10.15,4.35,3.351,6,4.35a26.693,26.693,0,0,0,3.1,1.55,32.519,32.519,0,0,0,6.55,1.25q5.049.6,11.35-3.35t2.4-10.85a40.641,40.641,0,0,0-4.3-6.7,32.369,32.369,0,0,0-5.9-5.3,12.175,12.175,0,0,0-7.5-2,30.3,30.3,0,0,0-8.1,1.5,13.269,13.269,0,0,0-6.5,5.1q-2.25,3.351-2.05,1.15a8.508,8.508,0,0,1,1.3-4.1,10.788,10.788,0,0,1,1.6-2.15q.4-.4,4.15-2.95a18.2,18.2,0,0,1,9.35-3,14.265,14.265,0,0,1,10.55,3.65,19.542,19.542,0,0,1,2,2.2q1.35,1.7,2.45,1.35a1.138,1.138,0,0,0,.8-1.5,7.973,7.973,0,0,0-2-2.85q-1.65-1.7-3.15-3-2.4-2.1-7.25-2.8t-6.95.4a18.561,18.561,0,0,1-3.7,1.45q-1.6.4-.8-1.05,3.4-5.6,4.4-7.6a10.916,10.916,0,0,0,.5-1.3.988.988,0,0,0-.75-1.3q-.951-.35-2.85,1.7-1.9,2-6.7,7.8-1.4,1.7-2.3,1.3-3.1-1.4-9.1-1.25m-6.5,6.45,11.4.9a14.943,14.943,0,0,0,2.45,0,17.82,17.82,0,0,0-.95,3.3l-2.6,14a3.331,3.331,0,0,1-3.8,2.9l-19.8-.7a7.476,7.476,0,0,1-6.7-4.4q-4.5-8.3-3.15-13.45.9-2.349,4.5-2.5t7.35-.4a84.853,84.853,0,0,1,11.3.35m7.05-1.6q-8.051.3-8.6-1.1-.6-1.449,7.65-1.5t8.6,1.15q.349,1.151-7.65,1.45m33.3,27.5a12.9,12.9,0,0,1-4.7.75,15.161,15.161,0,0,1-4.9-.9,35.306,35.306,0,0,1-6.6-3.55q-4.251-2.7-5.45-5.9a7.726,7.726,0,0,1,.2-6.2q1.7-3.6,7.5-5.5t9.4,0q4.8,2.1,9.3,8.3,5.1,7.2.7,10.3a38.326,38.326,0,0,1-5.45,2.7m-82.95-29.5q.3.6-.5,2.1a76.544,76.544,0,0,1-4,6.95q-2.4,3.7-1,4.65a1.992,1.992,0,0,0,1,.05,4.429,4.429,0,0,0,1.75-1.4,27.225,27.225,0,0,0,2.85-4.55q1.9-4,3-6.5a35.08,35.08,0,0,1,3,5.75,14.231,14.231,0,0,1,1.05,8.1q-.651,4.251-5.45,7.45a21.586,21.586,0,0,1-8.9,3.75q-4.1.5-6.3-.95a20.623,20.623,0,0,1-3.5-2.9,10.336,10.336,0,0,1-2.6-5.6q-1.1-7.5,3.5-12.2,6.1-6.3,14.2-5.4,1.6.2,1.9.7m29.9-9.85q3.2.75,3.9,2.45a22.747,22.747,0,0,1,1.1,5.8,1.19,1.19,0,0,1-.2.9q-.3.5-3.3,1.15a47.963,47.963,0,0,1-7.2.9q-4.2.25-3.15-4.35,1-4.65,3.35-6.1a6.83,6.83,0,0,1,5.5-.75m3.05,22.7q.05-1.749-3.95-1.7-4,0-4.8,1.1-.8,1.05.55,1.8a5.69,5.69,0,0,0,3.2.65,19.543,19.543,0,0,0,3.4-.45q1.5-.35,1.6-1.4m-.95-6.55h-3.6q-4.2.2-4.9.35a1.12,1.12,0,0,0-.85,1.05q-.15.85.25,1.15a8.021,8.021,0,0,0,2.95.4q2.55.049,5.25,0,2.7-.1,2.9-.55a1.419,1.419,0,0,0,.1-.9q-.3-1.4-2.1-1.5m13.2-.6a34.086,34.086,0,0,0-5.2.3,4.487,4.487,0,0,0-2.9,2,7.323,7.323,0,0,0-1.1,3.2,6.026,6.026,0,0,1-1.7,4.1,6.7,6.7,0,0,1-4.2,1.3,4.21,4.21,0,0,0-1.9.4q-1,.5-.8,1a19.079,19.079,0,0,0,2.1,4q.4.4,3-.6.4-.2,1.65-.95a2.591,2.591,0,0,1,2.1-.55l1.95.65q1,.349,2.05.65,1,.251,1.65.4a12.5,12.5,0,0,0,2.45-.05,13.335,13.335,0,0,0,2.6-.4,13.108,13.108,0,0,0,1.9-.8,4.41,4.41,0,0,0,1.75-1.75,16.973,16.973,0,0,0,.95-2.05,28.525,28.525,0,0,0,.85-4.05,4.7,4.7,0,0,0-1.9-4.7,9.431,9.431,0,0,0-5.3-2.1m3.8,5.35a18.352,18.352,0,0,1-.95,5.5,3.044,3.044,0,0,1-3.75,2.25,8.248,8.248,0,0,1-4.7-2.45,4.608,4.608,0,0,1-1.3-4.4q.5-2.4,1.8-3.05a13.143,13.143,0,0,1,5.1-.65q3.8-.05,3.8,2.8"/></svg>