<svg overflow="visible" width="100%" height="100%" viewBox="0 0 114.935 110.908" xmlns="http://www.w3.org/2000/svg"><path d="M57.7.291q-6.6.9-9,3.3-2.5,2.5-3,9.4a17.9,17.9,0,0,0,1.05,7.7q.7,1.65-1.45.6a11.361,11.361,0,0,0-5.8-1.4q-3.5.3-6.7,4.8a51.108,51.108,0,0,0-7.6,16q-2.4,8.3-6.95,9.75-4.6,1.4-5.65,3.2-1.1,1.751.1,2.35a13.781,13.781,0,0,0,4.7.65q3.5.05,9.8-.15,1.6,0,1.9.6a3.058,3.058,0,0,1-.2,2.1,111.278,111.278,0,0,1-6.6,16.1q-2.6,5.4-8.1,15.3-5.5,10.1-10.15,13.85-4.7,3.7-3.95,5.85.2.45,1.05.6a9.525,9.525,0,0,0,3.75-1,40.713,40.713,0,0,0,5.4-2.7,47.766,47.766,0,0,0,6.15-4.05q2.151-1.751,4.05-3.6t3.55-3.4q1.65-1.55,4.2-4.25t16.35-9.9q2.6-1.3,3.7-1,1,.4,2.1,3.2.2.6.5,1.7a.8.8,0,0,0,1.2.3q.75-.4.55-1.9t-.25-2.15a9.3,9.3,0,0,1-.1-1.4,1.26,1.26,0,0,1,.7-1.15,1.589,1.589,0,0,1,1.5-.05,23.135,23.135,0,0,1,2.25,1.2q1.45.851,1.85-.85.3-1.7,1.2-1.5a2.275,2.275,0,0,1,1.4,1.1,20.762,20.762,0,0,1,2.2,4.8,1.223,1.223,0,0,0,1.1.7q.3,0,.5-.45a4.658,4.658,0,0,0,0-2,14.8,14.8,0,0,0-1.1-3.7,13.327,13.327,0,0,0-1.85-3.3q-.949-1.15,2.05-2.5,3-1.4,10.1-3.95a133.868,133.868,0,0,0,13.2-5.4q17.8-9.6,26.5-15.5,1.4-.9.9-1.6a1.576,1.576,0,0,0-1.25-.7q-.7,0-4.5,2.1-3.849,2.1-17.95,10.4a115.97,115.97,0,0,1-22.45,9.95,9.664,9.664,0,0,1-1.9.4q-.949.05-.4-1.6L72,50.191q.3-.9,2.6-8.7,2.3-7.849,3.05-9.95t2.05-2.35a38.4,38.4,0,0,1,5.2-.55,9.7,9.7,0,0,0,6.55-3.05q2.6-2.75,6.8.25t4.4-.55a9.908,9.908,0,0,0-1.35-6q-2.9-5.6-5.5-7.9a10.474,10.474,0,0,0-8.3-2.45q-4.4.649-5.9-2.35-2.2-3.7-10.7-5.45a45.273,45.273,0,0,0-7.45-1.1,28.875,28.875,0,0,0-5.75.25m-9.65,14q.251-6,2.55-8.4,2.2-2.4,8.6-2.9a48.653,48.653,0,0,1,6.35-.15,28.953,28.953,0,0,1,5.3.95,29.938,29.938,0,0,1,4.85,1.55,8.319,8.319,0,0,1,3.3,2.9q1.5,2.051,1.6,6.35a20.769,20.769,0,0,1-2.2,9,70.467,70.467,0,0,1-4.9,8,3.955,3.955,0,0,1-2.6,1.3,19.96,19.96,0,0,1-9.6-.3,12.93,12.93,0,0,1-7.6-6.3q-2.6-3.8-3.7-5.7a11.327,11.327,0,0,1-1.95-6.3m-4.2,9.5q5.55,1.55,7.8,5.4,3.651,6.15,4.15,8.5,1.8,7.9-7.5,11.9Q33,55.04,20.2,54.091q-3.049-.15-.95-1.05,4.35-1.9,5.75-4.45.4-.8,2.3-5.9,3.1-8,3.2-8.2a35.643,35.643,0,0,1,4.3-7.8,7.822,7.822,0,0,1,9.05-2.9m50.5-10.15q.9,1.249,2.55,3.45,1.6,2.2,2.15,3.15,2.3,4.151-.6,2.65a17.8,17.8,0,0,0-5.7-1.95,11.709,11.709,0,0,0-5.65.2q-1.95.75-1.65,1.7.2.7,1.65,1.35,1.05.45,0,.9-4.1,1.849-5.5,1.35-1.6-.6.4-4.45a14.494,14.494,0,0,0,1.5-8.4,1.492,1.492,0,0,1,.9-1.5q1-.6,5-.1,4,.4,4.95,1.65M73.2,36.291q-1.6,5.3-4.6,15.8a83.3,83.3,0,0,1-5.75,14.3q-2.85,5.2-6.05,6.8l-6.3,3.05a23.874,23.874,0,0,1-8.2,1.95,42.319,42.319,0,0,1-11.3-.8,2.394,2.394,0,0,0-1.6.1,1.977,1.977,0,0,0-.7,1.4q-1,4.5-1.65,7.5-.7,3-10.35,12.35-9.7,9.35-6.05,3.4t9.55-17.3q5.9-11.35,6.5-12.65a82.9,82.9,0,0,0,5.2-14.1,2.407,2.407,0,0,1,1.6-1.5q1.8-.5,9.7-2.5a40.112,40.112,0,0,0,8.4-2.7q8.1-4.2,7.1-15.8l14.5.7m-43.6,50.7q1.1-4.9,1.9-5.4.8-.4,6.6.7l-8.5,4.7m38.75-73.5a1.76,1.76,0,0,0,1.35-1.4,2.742,2.742,0,0,0-.05-1.6,3.516,3.516,0,0,0-1.45-1.25,4.615,4.615,0,0,0-3.1-.4,11.011,11.011,0,0,0-2.75.7q-.849.4-.65,2.05.15,1.65,2.2,2.2a7.988,7.988,0,0,0,4.45-.3"/></svg>