<svg overflow="visible" width="100%" height="100%" viewBox="0 0 114.483 93.609" xmlns="http://www.w3.org/2000/svg"><path d="M64.868.009q-2-.1-11.8.9-9,1-11.4,8.9a2.691,2.691,0,0,1-1.1,1.5,3.345,3.345,0,0,1-1.9.1,142.454,142.454,0,0,0-17.3-.2q-11.5.6-14.1.9a19.643,19.643,0,0,0-3.9.75,13.241,13.241,0,0,0-2.6,1.25q-1.3.75-.4,1.25a47.617,47.617,0,0,0,5.4,2,70.5,70.5,0,0,0,13.7,2.35q6.5.7,16.8,1a8.626,8.626,0,0,1,3.2.6,8.844,8.844,0,0,1,1.2,3.1,16.87,16.87,0,0,0,2.8,6.5,9.022,9.022,0,0,0,4.8,3.45q2.55.6,4.85,1.1a49.877,49.877,0,0,0,9,.45q6.651-.1,21.45-.8,1.05-.1,3.7-.3,0,.551-.05,1.55-.15,6.1-.05,14.6.1,8.449,0,11.25,0,2.9-.5,3.5a9.362,9.362,0,0,1-3.6,1.3,77.715,77.715,0,0,1-8.25.8q-4.35.2-4.6,1.5a59.1,59.1,0,0,0-.25,8.4q0,7.1.2,11.8a4.2,4.2,0,0,0,1.2,3.2,6.519,6.519,0,0,0,3.5.8l13.9.1q3.6-.1,15.1-.6,10.4-1.2,10.6-7.7a38.106,38.106,0,0,0-2.3-15.1,5.908,5.908,0,0,0-1.9-2.7,7.434,7.434,0,0,0-3.4-.5q-1.95,0-4.05-.05.15-1.5.2-5.5.051-7.55.15-10.95.3-6,.2-10.2a12.2,12.2,0,0,1,1.4-6.9,18.379,18.379,0,0,1,4.1-4.85q2.5-2.1,2.3-6.45a31.951,31.951,0,0,0-.65-7.2q-1.549-6.2-4.35-8.8-2.7-2.5-9.2-3.6-7-.9-32.1-2.5m-4.9,33.5a33.987,33.987,0,0,1-9.2-1.7,10.3,10.3,0,0,1-6.2-4.4,11.493,11.493,0,0,1-1.5-7.6,73.858,73.858,0,0,1,1.5-9.9,8.179,8.179,0,0,1,7.1-5.8,73.322,73.322,0,0,1,19-.9q6.4.4,19,1.6,2.7.5,9.3,1.05,5.6.851,6.8,4.95a31.985,31.985,0,0,1,2.4,10.85q-.049,4.4-2.6,6.4a23.176,23.176,0,0,0-3.2,2.75q-.649.7-6.5.9-5.9.2-10.45.8t-12.05.9q-4.4.2-13.4.1m40.7,0-.5,16.9q.049,8.3.15,9.6.05,1.249-.05,3.65-.1,2.351-1.35,2.65a21.943,21.943,0,0,1-4.75.2q-3.5-.1-4-.8-.5-.6-.5-3.7.2-15.2.15-23.9,0-2.5-.1-3.55,2.4-.2,5.7-.5,3.4-.349,5.25-.55m-68.7-17.2q.2,1.45-1.45,1.4t-3.15-.15a1.745,1.745,0,0,1-1.7-1.55q-.25-1.451.6-1.85a5.163,5.163,0,0,1,2.55-.25,5.339,5.339,0,0,1,2.3.5,2.534,2.534,0,0,1,.85,1.9m5.35,1.9q-2.15-.2-2.45-.8a5.439,5.439,0,0,1-.45-1.3,6.133,6.133,0,0,1-.25-1.4q-.05-.75,2.05-.7a14.414,14.414,0,0,1,2.9.2q.8.15.85,1.4a4.959,4.959,0,0,1-.25,2q-.3.7-2.4.6m-19-4.15a12.882,12.882,0,0,1,3.2,0q1.6.15,1.8,1.15a5.136,5.136,0,0,1,.1,1.7q-.1.649-3.1.5-3.05-.2-3.3-1.65-.3-1.5,1.3-1.7m-7.8,2.2q-4.549-1.5-1.65-1.8a24.567,24.567,0,0,1,4.3-.25q1.4.05,1.65,1.8.2,1.7-4.3.25m87.7,52.95a37.182,37.182,0,0,1,9.25.6q2.8.9,3.7,6.7a72.611,72.611,0,0,1,.7,8.4q.4,4.2-7.05,4.9a216.92,216.92,0,0,1-29.35.8,2.2,2.2,0,0,1-2.6-2.5q-.049-3.7-.15-6.1-.15-2.449-.15-6.9-.05-4.5,4.4-5,4.4-.5,9.65-.6,5.25-.15,11.6-.3"/></svg>