<svg overflow="visible" width="100%" height="100%" viewBox="0 0 116.515 71.486" xmlns="http://www.w3.org/2000/svg"><path d="M94.113,3.567q-1.749.7-6,2.35-4.3,1.65-8.9,3.55-4.65,1.9-6.25,2.4l-31.9,12.4q-1.6.8-2.75,1.45-1.2.649-2.5,1.3a4.328,4.328,0,0,1-1.8.55q-.549-.05-1.3-.05-.75-.049-5.85-.15-5.7.1-8.6-.1a29.954,29.954,0,0,0-8.5.6,11.278,11.278,0,0,0-7.15,5.4,17.912,17.912,0,0,0-2.6,10.45,35.357,35.357,0,0,0,1.1,8.85,23.661,23.661,0,0,0,3.15,6.2,65.822,65.822,0,0,0,4.5,5.8,50.135,50.135,0,0,0,4.9,5.2,5.149,5.149,0,0,0,4.2,1.7,5.53,5.53,0,0,0,2.35-.7q.351-.2,6.25-3.65a123.547,123.547,0,0,0,13.4-8.95,57.644,57.644,0,0,0,7.5-6.75l.15-.15q2.95-1.35,6.05-3a220.94,220.94,0,0,1,21.55-10.4q11.8-5,18.45-7.55,6.651-2.6,8.45-3.35a57.418,57.418,0,0,1,5.6-1.9,14.622,14.622,0,0,0,6.55-4q2.7-2.9,2.3-9.1a13.52,13.52,0,0,0-3.95-9.65q-3.8-3.65-10.25-1.55-6.45,2.051-8.15,2.8m-7.25,5.9q5.55-2.6,6.5-3a11.361,11.361,0,0,1,1.8-.6,16.03,16.03,0,0,1,1.9-.45,6.023,6.023,0,0,1,2.45,0,8.058,8.058,0,0,1,3.05,1.45q1.8,1.1,2.9,5.2a28.247,28.247,0,0,1,1.15,6.2,4.847,4.847,0,0,1-1,3.35,8.154,8.154,0,0,1-3.7,2.5q-2.649,1-6.9,2.7t-20.55,8.6q-16.3,6.85-20.95,9.7t-4.65-.6a14.339,14.339,0,0,0-2.35-7.3,37.94,37.94,0,0,0-6.85-7.6q-1.3-1.2.3-1.8,8.151-3.4,22.7-8.85,16.5-6.3,24.2-9.5m-81.9,26q2.4-3.8,5.3-1.1a28.046,28.046,0,0,1,9.3,13.35q2.6,7.9,1.7,12.95a42.987,42.987,0,0,1-1.35,5.95q-.45.85-2.3,1.15a2.7,2.7,0,0,1-2.7-.85q-.9-1.2-5.25-6.05a26.191,26.191,0,0,1-5.8-9.8,24.287,24.287,0,0,1-1.15-8.7,14.246,14.246,0,0,1,2.25-6.9m7.7-3q-1.749-1.45,2.8.15t9.1,12.45q4.551,10.849,1.35,16.75-3.249,5.85-1.8-1.45a23.576,23.576,0,0,0-1.7-14.3,45.524,45.524,0,0,0-9.75-13.6m12.7-1.9a40.894,40.894,0,0,1,10.1.95,14.363,14.363,0,0,1,7.5,5.55q3.3,4.2,2.8,8.4a9.075,9.075,0,0,1-1.25,3.5,16.815,16.815,0,0,1-3,3.55q-1.95,1.65-4.2,3.6a43.822,43.822,0,0,1-5.15,3.8q-2.9,1.8-2.4-1.5t-.95-10.65a25.658,25.658,0,0,0-5.75-12.15q-4.3-4.8-4.3-4.95a53.83,53.83,0,0,1,6.6-.1m76.9-27.05a14.483,14.483,0,0,1,3.7-.35,11.756,11.756,0,0,1,5.1,1.75q2.9,1.65,2.85,7.7a10.409,10.409,0,0,1-3.8,8.35q-1.2,1-1-.3a18.067,18.067,0,0,0-1.2-10.5q-2.1-4.549-4.95-5.4-2.949-.851-.7-1.25"/></svg>