<svg overflow="visible" width="100%" height="100%" viewBox="0 0 116.251 101.295" xmlns="http://www.w3.org/2000/svg"><path d="M115.988,1.463q1.05-1.95-2.1-1.3-1.35.351-1.5,3.8.45,1.85,1.5.65a25.74,25.74,0,0,0,2.1-3.15m-113,29.1a4.964,4.964,0,0,0-1.3,3.9q1.8,13.4-1.4,32-.7,4,.3,5.3,1,1.2,5.1,1.4a105.624,105.624,0,0,1,19.2,2q3.8.7,18.9,4.2,3.9.8,4.2,4a13.664,13.664,0,0,0,3.9,8.4,58.393,58.393,0,0,0,7.3,5.8q6.7,6.2,16.1,2.1,12.8-5.9,14-6.8,6-4.5,6.5-13.5a8.706,8.706,0,0,1,3.4-6.8q9.2-6,8.8-17.6a31.148,31.148,0,0,0-7.6-19q-2.1-2.7-1.6-4.9l2.9-11q1.6-5.5,8.2-9.4.6-.3,2-.9a1.325,1.325,0,0,0,.6-1.75q-.45-1.149-2.7-.6a10.008,10.008,0,0,0-4.55,2.85,44.409,44.409,0,0,0-3.15,3.3,13.1,13.1,0,0,0-3.1,5.6q-1.1,4.3-3.7,12.8a52.235,52.235,0,0,0-14.6-3.7,64.3,64.3,0,0,0-13.1.4q-30.8,4.3-46.3,6.1a31.681,31.681,0,0,1-6.6-.1,18.323,18.323,0,0,1-5.75-1.25,18.581,18.581,0,0,1-3.15-2.349q-1.8-1.6-2.8-.5m1.9,5.4a40.355,40.355,0,0,0,12.2,2,80.159,80.159,0,0,0,11.9-1.1q23.3-3.3,39.9-5.2a88.822,88.822,0,0,1,14.8,0q6.3.3,14.8,6.2,9,12.7,5.7,24.1a15.152,15.152,0,0,1-3.6,5.7q-3.4,2.9-5.2,4.5-3.9-6.1-5.55-8.949a17.256,17.256,0,0,0-4.1-4.9q-2.45-2-12.5-2.651a31.447,31.447,0,0,0-11.15,3.8,63.343,63.343,0,0,0-11,8.4q-1.1,1-2.7,5.6-1,2.9-1.6,3.3t-3.5-.3q-17.4-3.9-18.6-4.2a110.411,110.411,0,0,0-18.9-2.1q-2.4-.1-2.9-.8-.6-.7-.1-2.8a66.826,66.826,0,0,0,1.8-15.2q0-10.2.3-15.4m58.5,35.1q-5.4-5.2-5.6-5.4,6.6-5.2,12.8-5.4,0,10.8-.05,13.551t-1.35,1.849a37.617,37.617,0,0,1-5.8-4.6m-5.9-1.3q1.5,1.251,3.3,2.6a24.2,24.2,0,0,1,4.4,4.9l-12.9,1.7q-2.4.3-1.9-2a19.226,19.226,0,0,1,1.8-6.1q1.8-3,5.3-1.1m-5,18.3q-1.8-3.1-1.1-4.5.7-1.3,4.2-1.8l10.5-1.4-5.9,5.7a47.228,47.228,0,0,0-3.9,4.75c-.167.233-.316.433-.45.6a17.6,17.6,0,0,1-3.35-3.349m9.5,7.9q-.1-.1-3.95-2.9,1-1,5.85-5.75t5.7-5.35a98.472,98.472,0,0,1,.4,12.6q-.049,2.549.05,3.75a10.2,10.2,0,0,1-8.05-2.35m23.9-32.4q.4,0,.5.2,5.4,7.1,4.8,8.5-.5,1.4-9.3,2.6l-6.9.8a48.185,48.185,0,0,1,4.7-5.15,72.537,72.537,0,0,0,6.2-6.949m-11.05-4.7a4.843,4.843,0,0,1,2.5-.351q3.951.2,5.65,1.851a1.555,1.555,0,0,1,0,1.1l-10.25,13.3.65-9.4q.1-3.3.25-4.4a7.165,7.165,0,0,1,.2-1.4q.1-.251,1-.7m-2.45,34.8.55-11,11.75,5.6q2.95,1.1,4.25,1.451a10.777,10.777,0,0,1-3.05,2.15l-13.2,5.7-.4.2q.1-1.249.1-4.1m1.9-14.2a40.811,40.811,0,0,1,6.6-1.5q2.3-.3,6.8-.9,4.2-.5,5.1.4t-.1,5.1a17.063,17.063,0,0,1-2.1,5.05,18.959,18.959,0,0,0-2.25-.951q-6.649-2.7-8.65-3.5a18.893,18.893,0,0,1-5.4-3.7"/></svg>