<svg overflow="visible" width="100%" height="100%" viewBox="0 0 79.156 116.565" xmlns="http://www.w3.org/2000/svg"><path d="M57.656,2.453q-2.4-3.9-7.4-1.6-5.85,3-9,5.05t-3.45,4.55q-.349,2.5.35,3.1a7.757,7.757,0,0,0,1.4,1q.5.2.2,1.8l-2.8,21.6a5.871,5.871,0,0,1-3.8,5.1,19.462,19.462,0,0,0-11.1,10.7,25.2,25.2,0,0,0-1.9,8q-.2,2.7-.4,8.1-.3,5.3-1.5,6.5t-8.3,2.3q-7.1,1.1-8.55,1.4A1.641,1.641,0,0,0,.006,82q.1,1.6,2.95.8a91.086,91.086,0,0,1,12.1-1.75q-8.3,11.3-2.8,23.3a20.6,20.6,0,0,0,6.35,8.2q5.25,3.951,13.25,4,6.5.2,17.4-3.1a14.309,14.309,0,0,0,2.25-.9,19.061,19.061,0,0,0,7.15-5.65,14.823,14.823,0,0,0,3-7.05,51.242,51.242,0,0,0,.25-7.65,12.727,12.727,0,0,0-3.65-8.05,19.568,19.568,0,0,1-3.7-5.2,13.979,13.979,0,0,1-.9-7.2q.2-.7,1.9-1.3,1-.4,3-1.1,6.3-1.8,19.2-5,.4-.1.7-.9a11.476,11.476,0,0,1,.7-1.2,7.847,7.847,0,0,0-1.1-.4,1.834,1.834,0,0,0-1-.1q-14.6,3.9-22.5,5.3,1.7-5.9,2.6-8.5a14.468,14.468,0,0,0,.2-10.3,12.972,12.972,0,0,0-7.8-7.5,3.062,3.062,0,0,1-2.1-3.4l1.6-20.8a7.118,7.118,0,0,1,.7-3.2,4.536,4.536,0,0,1,2.25-2,35.321,35.321,0,0,0,4.7-2.8q3.3-2.2.95-6.1m-3.8,1a3.525,3.525,0,0,1,1.2.9,1.312,1.312,0,0,1,.2,1.1,1.894,1.894,0,0,1-.4,1.1,19.46,19.46,0,0,1-6.7,3.7q-7.35,2.85-7,1,.3-1.9,3.3-3.75a70.644,70.644,0,0,1,8.2-4.15,1.57,1.57,0,0,1,1.2.1M43.356,17.2a7.4,7.4,0,0,1,.35-1.7,1.915,1.915,0,0,1,1.7-1.25q1.4-.249,1,2.3-.45,2.55-1.65,2.6-1.2.1-1.3-.55a4.8,4.8,0,0,1-.1-1.4m-4.3,26.75q-1.1,8.6-2.1,18.45t-1.85,10.05q-.849.2-5.55,1.25,1.3-4.549,1.3-4.75a2.593,2.593,0,0,0-1-3,2.454,2.454,0,0,0-2.5-.5q-1.1.5-1.1,1.25t.95,1.1a1.144,1.144,0,0,1,.75,1.45q0,.2-.6,2.35a15.858,15.858,0,0,1-.95,2.65,3.434,3.434,0,0,1-1.7.9,8.173,8.173,0,0,1-2.05.45v-5.05q-.049-10.3,1.8-15.2,3.4-8.2,14.6-11.4m-23.85,42.3a33.671,33.671,0,0,1,3.55-4.5,7.051,7.051,0,0,1,3-2.2,2.413,2.413,0,0,1,1.7,0q.551.251-.1,2.15a5.927,5.927,0,0,0,.2,4.25,3.99,3.99,0,0,0,3.9,2.9q.9-.15.65-.95a4.807,4.807,0,0,0-1.35-1.85,4.2,4.2,0,0,1-1-3.3,24.142,24.142,0,0,1,.8-3.4,2.885,2.885,0,0,1,2.15-2.3q1.551-.3,6.2-1.15-.349,2.751-.85,6.65-.3,2.1-.9,6.5-.3,2.1.6,2.4,1.3.5,1.7-.7.6-1.6,1.1-1.8,1.2-.35,1.2,1.35-.05,1.65,1.5,1.1t1.65-6.65a56.209,56.209,0,0,1,.55-8.8l.3-1.65q2.2-.7,2.55.4a35.441,35.441,0,0,1,.7,5.75q.351,4.6.35,4.8A3.574,3.574,0,0,1,44.306,88a2.433,2.433,0,0,0-1.1,1.55q-.1.8.6.95t2.55-1.3q1.851-1.449,1.3-5.5-.8-6.35-.9-8.65a4.058,4.058,0,0,1,0-1.9q.7-.8,3.35-1.1.1,0,.35,1.3t.45,3.35a9.841,9.841,0,0,0,1.55,4.35q.7,1,3,3.9,5.1,6.1,3.1,14.5a14.894,14.894,0,0,1-10.5,11.4q-3.249,1.05-6.2,1.7a39.679,39.679,0,0,1-11.2,1,21.38,21.38,0,0,1-5.6-1,16.975,16.975,0,0,1-8-5.4q-5.1-6-4.1-14.7a13.909,13.909,0,0,1,2.25-6.2m29.15-17.1q-.1,1.2-2,1.2,1.8-15.6,3-23.8.6-4.9,5-2.4a9.4,9.4,0,0,1,4.4,5.1,13.16,13.16,0,0,1,.1,7.4q-.8,3-2.7,9-1.1,3.7-5.6,4.15.351-2.8,1.45-3.4a3.813,3.813,0,0,0,1.4-1.3q.351-.649-.75-1.05a2.244,2.244,0,0,0-2.75.8,10.345,10.345,0,0,0-1.1,1.7,2.235,2.235,0,0,0-.25.9,15.092,15.092,0,0,0-.2,1.7"/></svg>