<svg overflow="visible" width="100%" height="100%" viewBox="0 0 106.772 114.692" xmlns="http://www.w3.org/2000/svg"><path d="M30.257,11.692q-1.859-3.285-1.6-5.35a4.49,4.49,0,0,0-.2-2.85q-.5-.861-1.5-.05-.977.865-.65,3.8a14.5,14.5,0,0,0,1.1,4.35,7.947,7.947,0,0,1,1,3.4,4.985,4.985,0,0,1-1.4,3.3,30.632,30.632,0,0,0-7.1,16l-1.2,4.8a47.627,47.627,0,0,0-1.8,14q0,3.664.25,10.15a7.341,7.341,0,0,1-1,4.55q-.346.648-.8,1.4-5.654,10-7.45,12.7-6.4,9.7-7.15,14.8a73.922,73.922,0,0,0-.75,8.9,20.359,20.359,0,0,0,.35,5.2,10.211,10.211,0,0,0,1.25,2.5,2.31,2.31,0,0,0,2.2,1.4,2.121,2.121,0,0,0,2.1-1.4q.6-1.8.8-2.7,3.3-11.4,13.2-29.3,1.3-2.3,2-2.4a1.611,1.611,0,0,1,.95.3,11.761,11.761,0,0,1,1.65,1.5q3.2,3.4,6.4,2.9,4.3-.7,7.2,3.2l1.4,1.4q1.6,1.7,3.8-.1a5.151,5.151,0,0,0,1.6-1.9,2.53,2.53,0,0,1,1.6-1.3,3.892,3.892,0,0,1,2,.8q3.6,2.6,5.3,2.4,1.8-.3,4-3.7a5.028,5.028,0,0,1,2.5-2.2,4.682,4.682,0,0,1,3.1.6,8.971,8.971,0,0,0,1.9.6q2.5.8,3.4.4a6.492,6.492,0,0,0,2.2-2.6q1.5-2.6,3.3-6.6a2.336,2.336,0,0,1,3.2-1.2,43.988,43.988,0,0,0,6.6,2,8.756,8.756,0,0,1,2.6,2.85q2.3,3.3,4.6,7.4a98.069,98.069,0,0,1,8.85,21.2q.2.9.8,2.7a2.121,2.121,0,0,0,2.1,1.4,2.454,2.454,0,0,0,2.25-1.25,7.53,7.53,0,0,0,1-2.45,35.664,35.664,0,0,0,.55-5.9,47.157,47.157,0,0,0-.7-7.9,29.329,29.329,0,0,0-4.9-11.8q-4.089-6.162-9.8-14.2t-6.7-9.1a288.4,288.4,0,0,0-6.05-33.65,43.05,43.05,0,0,0-1.4-5.2,14.412,14.412,0,0,0-2.9-4.7,1.617,1.617,0,0,1-.5-1.15,7.509,7.509,0,0,1,1.05-3.05,9.644,9.644,0,0,0,.6-5.75,15.682,15.682,0,0,0-.9-4.35.842.842,0,0,0-1.15-.4q-.861.288-.8,1.55.1,1.254.1,3.95a18.647,18.647,0,0,1-.1,3.5,1.609,1.609,0,0,1-1,1.6,1.5,1.5,0,0,1-1.7-.7,15.936,15.936,0,0,0-6.7-4.7,30.126,30.126,0,0,0-8.2-1.8q-12.8-1.4-21.1,7.1l-2,2q-.7.723-1.65-.9m6.2.1q1.981-1.923,7.95-4.65a17.724,17.724,0,0,1,12.6-.75q6.587,1.933,8.35,3.25a13.644,13.644,0,0,1,3.25,3.65,11.042,11.042,0,0,1-4.5,2.7,58.078,58.078,0,0,0-5.6,2,9.761,9.761,0,0,0-4.9,6.65q-.591,2.352-1.5-.35a9.51,9.51,0,0,0-2.3-4,8.693,8.693,0,0,0-4.3-2.3,95.764,95.764,0,0,1-10.8-3.9q-.229-.374,1.75-2.3m15.15,18.6a1.782,1.782,0,0,0,2.2,1.2,1.957,1.957,0,0,0,1.7-1.8,26.182,26.182,0,0,1,.1-2.8q.5-5.1,6-7l6-2.3a6.415,6.415,0,0,0,2-1.3,1.692,1.692,0,0,1,2.3.2,18.1,18.1,0,0,1,2.7,4.1,13.483,13.483,0,0,1,1.1,3.3,272.3,272.3,0,0,1,7,41.4l.8,7-5.8-1.9a5.477,5.477,0,0,0-3.3-.3,5.3,5.3,0,0,0-2.3,2.4l-2.8,5.3q-1.3,2.5-1.9,2.8a7.757,7.757,0,0,1-3.2-.6l-1.8-.7q-3.6-1.4-5.6,1.7l-1.1,1.6q-1.7,2.2-2.4,2.4-.7.1-3-1.6-2.8-2.2-3.8-2.1-.9.1-3.5,2.7-2,2.2-3.5.1-3.006-4.4-7-3.9-3.933.565-5.3-1.15a8.926,8.926,0,0,0-2.45-2.3,7.921,7.921,0,0,1-1.4-.95c-.168-.2-.334-.417-.5-.65a22.477,22.477,0,0,1-1.25-2.9q-.979-2.55-1.15-3.2a34.4,34.4,0,0,1-.85-5.45q-.5-16.9,2.6-28.9a52.867,52.867,0,0,1,7.6-15.9,3.9,3.9,0,0,1,5.1-1.7q1.3.5,3.7,1.5a24.693,24.693,0,0,0,3.8,1.1,10.768,10.768,0,0,1,8.5,7.9q.2.8.7,2.7m34,35.7q-.261-2.007,1.15,0,1.407,1.92,3.55,4.65a150.589,150.589,0,0,1,9.55,14.5,26.762,26.762,0,0,1,3.1,8.9q.5,3.1.95,6.7a17.843,17.843,0,0,1,.15,5.05q-.3,1.436-1.2.25a19.831,19.831,0,0,1-1.9-5.45,68.061,68.061,0,0,0-5-12.15,124.663,124.663,0,0,0-7.15-12.15,12.547,12.547,0,0,1-2.35-4.45l-.85-5.85m-68.7,6.45q.863-1.34,1.35-.8a2.952,2.952,0,0,1,.65,1.4,11.561,11.561,0,0,1,.35,2,3.778,3.778,0,0,1-.75,2.55q-.135.284-.3.6-2.4,4.7-7.4,14a59.3,59.3,0,0,0-5,12.9q-.965,4.833-2.05,5.1-1.038.314-1.25-1a23.028,23.028,0,0,1,.3-4.8q.5-3.5,1-6.6a26.739,26.739,0,0,1,3.1-8.9q5.6-9.4,7.4-12.25,1.8-2.805,2.6-4.2m28.4-44.15v-.5a7.569,7.569,0,0,0-.85-3.9,4.763,4.763,0,0,0-1.6-1.85,7.184,7.184,0,0,0-1.3-.6,13.6,13.6,0,0,0-1.55-.35,11.424,11.424,0,0,0-3.15.05,7.4,7.4,0,0,0-3.1.9,7.829,7.829,0,0,0-1.85,2.1,6.96,6.96,0,0,0-.8,3.95,10.491,10.491,0,0,0,1.7,5.1q1.5,2.5,2.8,3,1.3.6,4.1-.1a6.662,6.662,0,0,0,3.9-2.7,8.994,8.994,0,0,0,1.7-5.1m-5.15-3.75a4.148,4.148,0,0,1,2,3.2,5.493,5.493,0,0,1-1,4,3.369,3.369,0,0,1-3.05,1.85q-1.894-.1-3.65-2.95-1.718-2.859.25-4.9,2.013-2.041,2.85-2.2a4.723,4.723,0,0,1,2.6,1m-3.3,4.75q-.138,1.346.9.85,1.084-.443,1.05-.8t-.95-.9q-.871-.5-1,.85m23-3.25a6.63,6.63,0,0,0,.35,5.15q1.1,2.4,5.4,3.3,3.2.7,4.9-.4,1.7-1,2.8-4.4a5.168,5.168,0,0,0-.1-4.1,5.578,5.578,0,0,0-2.6-2.95,8.485,8.485,0,0,0-2.7-.9,15.565,15.565,0,0,0-2.15-.05,13.3,13.3,0,0,0-3.05.8q-1.941.7-2.85,3.55m2.85,1.5a3.056,3.056,0,0,1,1.25-2.7,3.48,3.48,0,0,1,2.05-1,5.146,5.146,0,0,1,2.25.45,4.782,4.782,0,0,1,2.05,2,2.788,2.788,0,0,1,.4,2.55,4.31,4.31,0,0,1-1.4,1.95,5.417,5.417,0,0,1-1.9.9q-2.5.4-3.5-.5a6.723,6.723,0,0,1-1.2-3.65m4.3.9q.115-.57-.85-.7-.967-.078-.9.85t.85.7a1.1,1.1,0,0,0,.9-.85m-9.95,8.15a19.967,19.967,0,0,0-6.45-1.05,14.12,14.12,0,0,0-6.7,1.55q-3.139,1.655-4.35,2.45-1.17.844-2.05,1.5-.833.658-1.45,1.25a1.486,1.486,0,0,0-.2,1.7,7.618,7.618,0,0,0,2.2,2.55q1.73,1.447,6.2,5.25,4.526,3.858,9.4,1.4a60.466,60.466,0,0,0,8.1-4.7,27.754,27.754,0,0,0,4.95-4.3q1.791-2.011-2.5-4.3a54.02,54.02,0,0,0-7.15-3.3m-12.8,5.5q-2.352.015-.75-.75,5.319-2.555,8.05-2.6,2.749-.043,7.05,2.55,1.288.766-1.15.8h-13.2m-1.05,4.3q-1.569-1.089.4-1h14.2q2.958-.057.95,1l-7.95,4.3a1.742,1.742,0,0,1-1.8,0l-5.8-4.3"/></svg>