<svg overflow="visible" width="100%" height="100%" viewBox="0 0 116.808 48.017" xmlns="http://www.w3.org/2000/svg"><path d="M68.718,13.973q-.9.4-1.2-.45a7.95,7.95,0,0,0-1.85-2.85q-6.9-5.6-14.1-5.3h-7.9a73.442,73.442,0,0,0-19.55,1.85q-8.749,2.15-10.15,2.75t-3.75,1.8q-2.349,1.2-6.45,3.6a8.137,8.137,0,0,0-3.4,4,6.011,6.011,0,0,0,.4,5,13.562,13.562,0,0,1,1.7,5.1q.2,1.8.4,5.3.5,5.5,3.3,8.2,2.8,2.8,8.4,3.4,3,.3,9.1,1.1a51.2,51.2,0,0,0,9.1.5q14.6-1.1,31.5-11a12.366,12.366,0,0,0,5.8-7q1-3.5,5.65-5.25,4.6-1.75,10.35-4.1a129.292,129.292,0,0,1,17.5-5.3q11.7-2.9,12.75-6.35a10.544,10.544,0,0,0-.15-6.8q-1-3.7-8.3-1.1l-32.5,10.6q-1.9.6-6.65,2.3m-4.15,8.8a3.726,3.726,0,0,1,1.3-.6q.7-.1,1.2,2.25a13.95,13.95,0,0,1,.35,4.05,5.949,5.949,0,0,1-1.2,3.1,8.854,8.854,0,0,1-2.55,2.3q-15,9.9-31,11a79.969,79.969,0,0,1-22-2.7,5.685,5.685,0,0,1-4.4-4.3q-.7-4.6-1.2-6.7a75.445,75.445,0,0,0,13.6,3,31.936,31.936,0,0,0,7.25.15q1.849-.349,8.05-1.6t12.5-2.85a67.011,67.011,0,0,0,18.1-7.1m1.1-6.2a3.993,3.993,0,0,1-2.2,3.3q-5.9,3.3-8.3,4.4a47.074,47.074,0,0,1-8.6,3.1q-8.749,2.1-14.9,3.25a55.155,55.155,0,0,1-8.2,1.15q-2.149-.05-5.35-.2a19.511,19.511,0,0,1-5.8-1.1,26.7,26.7,0,0,1-4.45-2.1q-3.3-2.2-4.15-3.9a5.2,5.2,0,0,1-.6-3.2,6.554,6.554,0,0,1,.55-2,4.4,4.4,0,0,1,1.5-1.2q4.9-2.5,10.7-5.1a53.139,53.139,0,0,1,5.8-1.9,73.61,73.61,0,0,1,14.8-2.3q2.9-.3,15.6-.5,6.1-.1,11.8,4.6a4.28,4.28,0,0,1,1.8,3.7m2.7,1a.937.937,0,0,1,.9-1q.4-.1.95-.25,2.55-.851,6.65-2.05l15.1-5a3.37,3.37,0,0,1,1.6-.3q.8.1,1.2,1.2.9,2.8-1.1,3.8-9.549,3.649-16.15,6.4-6.65,2.7-7.65,2.1t-1.5-4.7v-.2m45.7-12.4a9.167,9.167,0,0,1-1.3,4.05q-1,1.35-4.3,2.05t-3.65.4a4,4,0,0,1-.8-1.35,22.066,22.066,0,0,1-1.2-4.55q-.2-1,8.75-2.8,2.8-.5,2.5,2.2m-15.55,1.85q2.2-.7,2.95,1.9.75,2.55.05,3.05a4.419,4.419,0,0,1-1.9.65q-1.15.15-1.4-.2a18.615,18.615,0,0,1-1.1-2.55,1.888,1.888,0,0,1,1.4-2.85m-61.8,11.1q8.85-1.35,11.55-.95a24.087,24.087,0,0,1,5.35,1.45q2.65,1,3.05-.25.6-1.8-2.9-2.65-3.55-.9-5.3-1.3-1.8-.45-7.95.2a41.67,41.67,0,0,0-9.8,1.9,71.114,71.114,0,0,0-8.5,3.8,24.85,24.85,0,0,0-6.6,4.5q-1.749,1.9-.25,3.15,1.151.9,6.85-3.8a29.013,29.013,0,0,1,14.5-6.05"/></svg>