<svg overflow="visible" width="100%" height="100%" viewBox="0 0 115.91 65.735" xmlns="http://www.w3.org/2000/svg"><path d="M1.9,10.6A6.182,6.182,0,0,0,.8,14.5V29.4L0,43.7A7.483,7.483,0,0,0,.6,47q.5,1.15,1.35,1.25A2.583,2.583,0,0,0,3.6,47.7a2.319,2.319,0,0,0,.95-1.9q.05-1.3.3-9.85.2-8.55.2-9.35-.049-.851,1-.75a1.98,1.98,0,0,1,1.5.8q.45.7,2,3.85,1.5,3.15,2.9,5.9a12.6,12.6,0,0,1,1.15,6.4V60.1A5.685,5.685,0,0,0,16,65.2a2.645,2.645,0,0,0,2.4.4,2.237,2.237,0,0,0,1.4-1.8q.2-3.6.2-10.2,0-7,.1-10.1,0-2.7.55-3.3t14.9-2.35q14.3-1.8,32-4.65t34.35-5.05q3.3-.349,3.6,2.95l2.7,21.6q.5,4.5,4.2,4.05,3.7-.5,3.5-4.9t-.95-12.75q-.75-8.4-1.05-10.55a3.437,3.437,0,0,1,.85-3.2,3.228,3.228,0,0,0,1.1-2.6,6.15,6.15,0,0,0-.55-2.55,6.382,6.382,0,0,0-2-2.1Q111,16.5,96.1,4.7,91,.7,89.1.1q-1.9-.5-14.65,1.45-12.75,1.9-25.85,3.3t-22.25,2.2Q17.2,7.8,5.6,9a5.816,5.816,0,0,0-3.7,1.6m3.65,2.35q-.6-1.05,1.75-1.2,39.651-3,77.1-8.95a9.082,9.082,0,0,1,7.4,1.8q6.4,5.3,14.15,11,7.7,5.65,6,6.75-1.749,1.1-11.65,2.45-9.9,1.3-39.1,5.45-29.25,4.15-33.65,4.7-4.451.5-6.6.55A4.468,4.468,0,0,1,18,34.8a15.709,15.709,0,0,1-2.2-3.2q-2.4-3.7-5.4-9.4-3-5.8-4.85-9.25M111.3,29.5a72.777,72.777,0,0,1,.9,7.5q.45,5.7.95,11.05.5,5.3-.5,5.65-1.1.3-2.15-5.7-1.05-6.05-1.65-13.05t.15-7.2a2.881,2.881,0,0,1,1.35-.15q.5.1.95,1.9m-94.55,10q1,.1.85,6.05-.15,5.9-.1,11.75.05,5.8-.75,5.75t-1-6.1q-.2-6.1-.1-11.8.1-5.749,1.1-5.65"/></svg>