<svg overflow="visible" width="100%" height="100%" viewBox="0 0 115.918 94.766" xmlns="http://www.w3.org/2000/svg"><path d="M96.635,32.194a26.78,26.78,0,0,0-11-3.3q-12.9-1-21.3-.95a56.956,56.956,0,0,0-12.85,1.1,24.566,24.566,0,0,1-5.25,1.05,2.507,2.507,0,0,1-1.6-1q-.75-.9-2.45-2.85a24.894,24.894,0,0,1-2.25-2.75q-2.6-4-7.2-10.3-5.8-7.7-7.25-10.1a18.85,18.85,0,0,1-1.15-2.1,1.238,1.238,0,0,0-1.7-.9,2.717,2.717,0,0,0-1.35,1.2q-.551.85-1.25,2.15a3.276,3.276,0,0,0-.15,2.8,2.786,2.786,0,0,1-.55,2.85,10.971,10.971,0,0,1-2.6,2.1l-5.4,3.6a24.116,24.116,0,0,0-5.9,5.6q-1.6,2.2-4.7,6.7a2.55,2.55,0,0,0-.3,3.2,3.4,3.4,0,0,0,3.1,1.4,14.649,14.649,0,0,0,4.3-1q1.4-.6,4.1-1.8,3.6-1.5,4.5-1.2.8.2,2.9,3.5,4.2,6.4,13.9,19.9.4.5,1.3,1.9a9.269,9.269,0,0,1,1.6,4.3,200.65,200.65,0,0,0,5.1,34.8q.45,2.55,2.55,2.65a12.772,12.772,0,0,0,3.55-.25,1.881,1.881,0,0,0,1.5-1.8,17.256,17.256,0,0,0-.8-4.8,97.8,97.8,0,0,1-1.9-11.6q-.9-9.1-1.5-13.7-.3-2.1,1.9-2.1,3.7.1,11.2.5a54.558,54.558,0,0,0,11-.6q3.8-.8,18.3-4.6a17.986,17.986,0,0,1,1.9-.4,24.451,24.451,0,0,1,2.5-.4q1.4-.251.9,1.55a10.371,10.371,0,0,0-.1,4.6q.4,2.749,1.4,11.65.9,7.9,1.6,13.35.45,3.75.5,4.55a5.6,5.6,0,0,0,.4,1.65q.349.9,2.95,1.4a10.393,10.393,0,0,0,3.85.15q2.5-.7,1.8-4.9-1.6-14.3-1.4-42.8,3.8,4.6,5.5,7.15a14.083,14.083,0,0,1,2.2,5.55,46.807,46.807,0,0,0,1.2,5.4q.65,2.351,1.75,2.4a1.749,1.749,0,0,0,1.6-.7q.5-.8.25-4.1-.3-3.3-3.7-9.9-1-2-6.9-11.4a24.7,24.7,0,0,0-8.6-8.4m-12.85,1.3q-.051-1.95,1-1.7,1.1.2,2.05.4a4.341,4.341,0,0,1,1.6.7q1.1.8,1.3,3.5.2,3.3.25,7.05,0,3.75.15,5.65.2,1.5,1,1.75a1.194,1.194,0,0,0,1.2-.2,3.9,3.9,0,0,0,.55-2.1q.15-1.75.05-6.15v-5.85q0-1.849,1.85-1.1,2.7,1.05,3.15,1.75.7.9.5,4.6-.1,2.3-.6,6.9.15,2.4,1.2,2.95a2.627,2.627,0,0,1,1.25,2,32.445,32.445,0,0,1,.25,3.55l1.3,31.7q-.051,2.4-1.95,2.2-1.9-.249-2.15-4.9-.3-4.7-1.65-15.1t-.85-13.65a12.327,12.327,0,0,0,.2-3.95,1.887,1.887,0,0,0-1.3-1,11.094,11.094,0,0,0-3.9.1q-2.9.4-3.6.6-13,3.3-19.5,4.3a67.313,67.313,0,0,1-20,.2q-5.9-.9-5.1,5.2,1.1,10.4,2.3,18.1,1.2,7.65,1.45,9.5.2,1.8-.85,1.95t-1.95-4.6q-.951-4.749-2.05-14.25-.1-.2-.85-8.7-.8-8.55-1.05-9.5a19,19,0,0,0-1-2.4,7.569,7.569,0,0,0-1.65-2.3,62.875,62.875,0,0,1-4.35-5.45q-3.5-4.65-4.1-5.55a77.164,77.164,0,0,1-6.5-10.3q-2.4-4.7-3.7-5.1-1.2-.4-6.1,1.6-2.4,1.2-3.7,1.8a15.117,15.117,0,0,1-4,1.1q-.951.2,0-1.5,4.6-8.1,14.6-13.9a13.132,13.132,0,0,0,3.8-2.9,4,4,0,0,0,.7-3q-.351-1.25.7-.45,1.1,1,2.6,2.45a5.842,5.842,0,0,1,2.1,2.9,5.233,5.233,0,0,1-1.2,3.4q-4.5,6.5-5.25,7.75a2.972,2.972,0,0,0-.7,1.85,2.148,2.148,0,0,0,.65,1.2q.7.7,1.8-.8l5.8-8.6q1.249-1.6,1.85-.65a2.019,2.019,0,0,1,.4,1.65,52.637,52.637,0,0,1-2.9,5.65q-2.751,4.849-3.4,6.3a1.481,1.481,0,0,0,.45,2.15q1.25.7,3.25-3.1,1.95-3.8,3.25-6.35t1.95-2.1a4.62,4.62,0,0,1,1.15,1.4,3.616,3.616,0,0,1,.55,1.8,8.935,8.935,0,0,1-1.05,2.85q-1.3,2.7-4,8-.951,1.7,0,2.1,1.249.4,2.4-1.35.949-1.549,3.1-5.2,2.15-3.7,3.5-2.25,1.3,1.45-.65,4.55-1.95,3.05-3.05,5a15.74,15.74,0,0,0-1.3,2.65q-.2.7.75,1.4t1.4-.05q.45-.75.65-1.05l1.8-3q1-1.7,2.5-4.2,1.449-2.5,2.15-1.15.6,1.2-1.45,4.9-2.1,3.649-2.65,4.75-.6,1.1-1.55,3.2-.9,1.7.65,2.35,1.5.65,2.3-1.15t1.4-3.05q.549-1.249,2-4.45.45-1.05.9-1.9,1.35-3,1.65,0,.249,2.6.3,5.9.1,6.7.2,7.7a3.85,3.85,0,0,0,.25,1.4q.15.35,1.2.2,1-.15,1-2-.051-1.9.15-7.2.3-6.3.4-8.4.1-2.6,3.5-2.6,1.2.1,1.4.9a9.949,9.949,0,0,1,.1,1.7q.2,9.9.3,13.35.05,3.45,1.5,3.45,1.3.05,1.3-2.2-.1-10.2-.1-15.3a9.515,9.515,0,0,1,.1-1.9q.3-.9,1.75-.95t1.8.5a16.3,16.3,0,0,1,.95,3.75q.6,3.2,1.55,9.2.9,6,2.35,5.7,1.449-.35,1.45-1.5a7,7,0,0,0-.2-1.65q-.15-.45-1-3.75a54.556,54.556,0,0,1-1.4-7.3q-.551-4-.05-4.6a4,4,0,0,1,2.4-.5,2.572,2.572,0,0,1,2.9,2.5q.2,1.5.85,6.4a62.471,62.471,0,0,0,1.05,6.65,17.186,17.186,0,0,0,.65,2.35q.251.6,1.2.5.949-.15.75-2.4l-2-13.2q-.4-2.7,2.4-2.7a6.145,6.145,0,0,1,3.1.5q.7.5,1.2,2.8.1.3,1.4,6.5.8,3.9,1.2,5.85t1.2,1.8a1.686,1.686,0,0,0,1.4-1.95,58.388,58.388,0,0,0-1.3-7.1,32.454,32.454,0,0,1-.95-5.8"/></svg>