<svg overflow="visible" width="100%" height="100%" viewBox="0 0 116.135 63.131" xmlns="http://www.w3.org/2000/svg"><path d="M9.024,21.649a12.372,12.372,0,0,0-7.1,6.1,13.1,13.1,0,0,0-1.85,7.9q.4,3.7.8,8,.849,9.8,13.3,14.45t22.25,5q9.8.35,23.95-3.1,14.1-3.45,19.55-2.75a84.637,84.637,0,0,0,10.8.7,74.248,74.248,0,0,0,8.6-.4,18.017,18.017,0,0,0,11.8-6.4,19.168,19.168,0,0,0,4.9-12.7,33.142,33.142,0,0,0-3-17.2,26.628,26.628,0,0,0-12.4-12.4,22.07,22.07,0,0,0-5.2-1.6,34.522,34.522,0,0,1-5.2-1.2,74,74,0,0,0-11.3-2.9q-10.9-2-11.4-2.1-16.9-3.9-33.5,6.7-10.9,7-12.1,7.7a72.453,72.453,0,0,1-12.9,6.2M4.274,29.6a12.122,12.122,0,0,1,6.95-5.75,80.918,80.918,0,0,0,20.8-11.4q11.6-8.5,23.5-9.3,8.6-.6,25.1,3.2a19.424,19.424,0,0,1,2.9.7q1.5.5,3.15,1.1a29.041,29.041,0,0,0,3.35.9q1.7.35,6,1.6a16.186,16.186,0,0,1,7.8,3.4q7.4,6.5,8.4,13,1.3,10.3.3,16.2-2,8.8-12.5,11.2a51.514,51.514,0,0,1-15.7.7,73.688,73.688,0,0,0-15.85,0,151.663,151.663,0,0,0-18.7,4,44.085,44.085,0,0,1-24.7-.9q-12.75-4-16.85-7.05t-4.5-7q-.4-3.949-.95-7.3a11.685,11.685,0,0,1,1.5-7.3m48.35,24.6a1.461,1.461,0,0,0-.3-1.4q-.6-.75-2.6-.15-2.2.8-2.85,1a1.843,1.843,0,0,0-1.05.7,2.218,2.218,0,0,0-.25,1.5q.1,1,1.65.5l4.5-1.4a1.371,1.371,0,0,0,.9-.75m7.35-29.3q-.951-.75-1.45-.35a1.155,1.155,0,0,0-.5,1.2q.1,1.8,2.5,4.1a10.3,10.3,0,0,0,3.4,2.5,1.766,1.766,0,0,0,1.95-.8.891.891,0,0,0-.15-1.25,61.668,61.668,0,0,0-5.75-5.4m2.25-12.1a1.156,1.156,0,0,0,.65-1.2q-.1-.8-.65-.9a12.86,12.86,0,0,0-2.8.2q-2.3.251-2.3,1.35a1.191,1.191,0,0,0,.95,1.15,7.617,7.617,0,0,0,2.15,0,5.07,5.07,0,0,0,2-.6m36.6,13q1.7,2.95.1,6.85a18.1,18.1,0,0,0-.7,2.2,1.518,1.518,0,0,0,.65,1.85,1.954,1.954,0,0,0,2.2-.35q1.249-.9,1.3-5.5,0-4.6-.7-5.9a2.571,2.571,0,0,0-1.75-1.45q-2.85-.7-1.1,2.3m-73.8,17.9a3.893,3.893,0,0,0,3.4.05q1.05-.6.4-1.3a11.512,11.512,0,0,0-3.35-1.85,5.807,5.807,0,0,1-3.45-4.55q-.5-2.9-1.6-.9a4.9,4.9,0,0,0,.7,5.4,8.872,8.872,0,0,0,3.9,3.15"/></svg>