<svg overflow="visible" width="100%" height="100%" viewBox="0 0 111.05 115.52" xmlns="http://www.w3.org/2000/svg"><path d="M46,71.6a1.409,1.409,0,0,0,.35-1.25.944.944,0,0,0-1.1-.65,2.9,2.9,0,0,0-1.35.4.985.985,0,0,0-.45.95q.1.656,1,1.05A1.386,1.386,0,0,0,46,71.6M39.15,61.2a3.33,3.33,0,0,1-1.35.8q-.583.136-1.35,1.6-.09.534.7.85a3.785,3.785,0,0,0,1.8.2q.994-.1,5.2-.35a9.918,9.918,0,0,1,5.7,1.3,2.465,2.465,0,0,0,.7.3,3.214,3.214,0,0,0,2.6-.95q1.455-1.131.9-2.15-.5-.8-1.1-.6a5.569,5.569,0,0,1-3.9.2,11.345,11.345,0,0,1-3.5-1.6q-2.6-2-3.7-1.9a2.059,2.059,0,0,0-1.3.85,11.357,11.357,0,0,1-1.4,1.45M42.6,39.6q-.306-1.833-.85-1.8a2.437,2.437,0,0,0-1.1.6,1.756,1.756,0,0,0-.45,1.65,3.677,3.677,0,0,1-.85,2.55,14.925,14.925,0,0,1-2.5,2.3,7.534,7.534,0,0,0-2.1,2.1q-.9,1.9-.3,2.7a28.268,28.268,0,0,0,3.2,2.9q1.881,1.482,2.55.6t.15-1.4l-2.5-1.9q-.939-.8.25-1.95l2.75-2.55a6.133,6.133,0,0,0,1.75-5.8M60.35,16.35a4.166,4.166,0,0,0-1.8-.4.945.945,0,0,0-1.05.8q-.1.846,1.15,1.95.5.5,5.2,4.6a45.6,45.6,0,0,1,4.8,4.9,44.782,44.782,0,0,1,5.7,8.9,18.79,18.79,0,0,1,1.5,10.5,41.171,41.171,0,0,1-5.7,16.7,11.154,11.154,0,0,1-3.4,3.6,103.159,103.159,0,0,1-12.2,6.6,30.77,30.77,0,0,1-8.5,2.3q-1.8.3-4.5-1.4a18.156,18.156,0,0,1-3.4-3.6L27.75,57.3a10.105,10.105,0,0,1-2.1-4.4q-.8-5.7-1.3-12.9-.1-2.2.7-2.7.9-.5,3.3.2a5.1,5.1,0,0,0,4.5-.4,4.732,4.732,0,0,0,1.6-4.2,7.572,7.572,0,0,0-.8-2.8q-.6-1.9,1.2-2.2a8.5,8.5,0,0,0,5.5-3.7q2.206-3.793,2.9-4.95a3.543,3.543,0,0,0,.6-2.05q-.069-.881-.7-1a1.687,1.687,0,0,0-1.2.25,3.686,3.686,0,0,0-1.15,1.2,39.386,39.386,0,0,0-1.85,3.55,8.253,8.253,0,0,1-2.7,2.8q-1.743.825-11.55,4.75-1.783.785-1.25-.8,2.48-6.156,3.2-7.95a3.117,3.117,0,0,0-.15-3.25q-.8-1.043-1.85.65a52.221,52.221,0,0,0-2.4,4.8,24.694,24.694,0,0,0-1,3.7,7.545,7.545,0,0,1-1.8,3.5q-.4.4-.1,2.4,2.2,21.4,3.5,32t-3.2,17.6q-1.5,2.3-5.7,10.5a40.089,40.089,0,0,0-2.05,5.45q-.789,2.906.45,3.05,1.614.064,2.25-2.65a40.3,40.3,0,0,1,3.75-8.35q4.6-8.2,5.1-9.3,3.9-8.4,2.4-14.4a12.281,12.281,0,0,1-.4-2.7q-.025-.587-.05-1.05.126-1.794,1.55,0,1.374,1.452,2.8,3.25,1.3,1.7,3.7,4.9,1.9,2.5,6.1,7.2,2.3,2.9,7.1,2.4l4.7-.5a42.592,42.592,0,0,1,.4,4.9v5.55q.044,1-2.45,3.45a15.186,15.186,0,0,1-6.35,3.6q-3.859,1.229-8.4,2.8-4.486,1.615-4.55,1.6l-1.2.35q-2.688.72-4.5,1.2-1.762.483-5.5,1.2-3.747.758-5.8,5.6-1.992,4.839-.65,5.85.834.6,1.55-.45a20.237,20.237,0,0,0,1.35-2.15q2.2-5.2,8.4-7.1,13.806-4.095,18.9-6.15A40.011,40.011,0,0,0,52.3,93.7q1.85-1.45,1.85-1.9a20.9,20.9,0,0,0,.2-3.4q0-7.1.1-8.5a3.034,3.034,0,0,1,1.5-2.8q8.9-4.8,13.9-7.5-.6,3.7-1.5,9.8a22.137,22.137,0,0,0,.9,12.7l2.7,6.9a18.616,18.616,0,0,1,1,3.1q.6,1.8,1.8,1.3a1.707,1.707,0,0,0,1.1-2.5,17.333,17.333,0,0,1-1.5-2.9,85.924,85.924,0,0,1-2.8-8.4,24.13,24.13,0,0,1-.5-8.9,87.81,87.81,0,0,1,6.4-24.2,72.123,72.123,0,0,0-2.3,14.9q-.2,4-.2,14.8a35.926,35.926,0,0,0,.6,5.9q.4,2,.85,4.45.435,2.513,1.45,2.85,1.344.258,1.2-1.8-.1-2.3-.1-3.5l-1-21.2a38.635,38.635,0,0,1,1.7-12.7q1.9-6.8,3.1-11.95a34.239,34.239,0,0,0,1.2-6.3q-.047-1.2-.7-.85a4.42,4.42,0,0,0-2.15,2.25,40.171,40.171,0,0,0-1.85,6.55q-.1-3.8-.2-5.4a19.85,19.85,0,0,0-.7-4.3q-4.1-12.1-15.4-22.1a18.91,18.91,0,0,0-2.6-1.75M30.25,31q1.189-1.142,1.4.65.846,4.319-.5,4.05a4.427,4.427,0,0,1-2.25-1.6q-.706-1.024,1.35-3.1m35.6-3.6a7.49,7.49,0,0,0-2.75-1.85q-1.449-.5-4.5.9-3,1.394-2.45,5.7.6,4.354,1.8,5.55,2.3,2.3,5.6.6,2.2-1.1,2.9-5.4.7-4.2-.6-5.5m-6.5,7.5q-.644-.956-.1-3.7.54-2.7,1.4-2.85a4.351,4.351,0,0,1,1.85.1q.951.247,1.15,1.9a5.861,5.861,0,0,1-.4,3.05,4.8,4.8,0,0,1-1.4,2,2,2,0,0,1-1.3.45q-.55,0-1.2-.95m31.9,13.3a15.7,15.7,0,0,1,.4,3.1q0,11-.6,21.9-.5,10.2-.3,15.3a61.042,61.042,0,0,0,2.1,15.2q.2.8.5,2.9.4,1.6,1.7,1.3t1.2-2q-.1-.3-.7-2.8a71.249,71.249,0,0,1-1.8-19.2q.2-4.5.7-27.3a38.63,38.63,0,0,0-.6-9.45q-.735-3.345-1.5-4a1.188,1.188,0,0,0-1.5-.2,1.166,1.166,0,0,0-.4,1.45q.3,1,.8,3.8m10.1-4.5q.3.9,0,1.1a4.256,4.256,0,0,0-1,3.1,16.963,16.963,0,0,0,.4,3.1q2.4,16.5,7,46a6.373,6.373,0,0,0,.8,2.2q.3.7,1,2.1a2.192,2.192,0,0,0,1.5-2.2q-.3-1.7-.4-2.5-2.9-18.9-4.3-28.3-.5-3.1-2.5-19.6a1.971,1.971,0,0,0,1.7-.3q.6-.517-.95-4.35t-8.05-13.2q-6.5-9.356-21.1-19.25Q61.75,2.2,49.95.4A35.954,35.954,0,0,0,44.9,0Q42.661,0,36,.8q-6.661.846-13.6,8.1A45.737,45.737,0,0,0,12.05,27.1q-.4,1.5-1.5,4.5-.9,2.7-1.8,11.6a67.632,67.632,0,0,0-.3,13.55,40.19,40.19,0,0,1,.2,8.55,136.055,136.055,0,0,1-7.4,30.2,18.9,18.9,0,0,0-1.2,3.55,2.407,2.407,0,0,0,.15,1.6,1.351,1.351,0,0,0,1.05.45q1.257.142,2.35-4Q4.748,93,5.95,89.6q6.6-19,5.4-35.5a67.95,67.95,0,0,1,6.3-33.7q6.2-13.2,16-16a38.809,38.809,0,0,1,26.2,1.5q21.2,9.2,36.1,29.4a70.874,70.874,0,0,1,4.8,6.9,4.4,4.4,0,0,1,.6,1.5"/></svg>