<svg overflow="visible" width="100%" height="100%" viewBox="0 0 72.344 116.315" xmlns="http://www.w3.org/2000/svg"><path d="M26.793,3.365a8.761,8.761,0,0,1,5,3.45,9.624,9.624,0,0,1,2.2,5.9,20.821,20.821,0,0,0-4.5-2.95,3.018,3.018,0,0,0-1.5-.1,1.3,1.3,0,0,0-.8.45,1.355,1.355,0,0,0-.2.9.9.9,0,0,0,.3.8,44.1,44.1,0,0,0,4,2.8q4.3,3.1,3.5,9.1a39.293,39.293,0,0,1-3.8,10.3,11.821,11.821,0,0,0-4.15-4,7.04,7.04,0,0,0-4.25-.75,10.917,10.917,0,0,0-3,.7q-.8.35-3.9,1.95-.9.5-4.9,3.6a7.467,7.467,0,0,0-2.1,2.7,6.874,6.874,0,0,0-.9,3.2,14.165,14.165,0,0,1-4.3,10,11.882,11.882,0,0,0-3.4,7.3,9.8,9.8,0,0,0,1.7,7.3,6.609,6.609,0,0,1,1.1,6.2q-2.4,8.1.7,13.3,2.7,4.5,10.8,8.4-5.4,8.7-1.6,14a19.039,19.039,0,0,0,11.4,7.9,18.717,18.717,0,0,0,12.7-1.5q10.1-4.9,9.5-13.8a3.345,3.345,0,0,1,.3-2.1,2.24,2.24,0,0,1,1.9-.3q5.4.7,8.5-4.4a14.612,14.612,0,0,0,1.5-10.65,4.388,4.388,0,0,0-.4-1.35q-.25-.45.8-1.35a41.341,41.341,0,0,1,3.6-2.6q2.5-1.751,3.3-6.35.1-.4.6-2.95a5.143,5.143,0,0,0-.7-4.1,3.322,3.322,0,0,1-.75-2.95,6.123,6.123,0,0,1,2.35-2.9,14.089,14.089,0,0,0,3.5-4.5q2.8-5.1.2-9.7-2.5-4.5-8.3-5.1a7.413,7.413,0,0,0-4.1.9q-3.2,1.7-3.5,1.8a40.763,40.763,0,0,0-3.5-8.3,11.8,11.8,0,0,0-7.1-5.4q-.3-.1-.15-.75.1-.651.45-4.25.3-3.651,5.05-5.5a23.888,23.888,0,0,1,9.8-1.65q5.049.15,6.4.05t1.35-1.3a3.407,3.407,0,0,0-.25-1.6q-.251-.4-2.35-.6a43.86,43.86,0,0,0-6.9.2q-7,.7-8,.7a47.871,47.871,0,0,0,4.75-6.65,11.858,11.858,0,0,0,.95-2.65,2.49,2.49,0,0,0-.3-1.6q-.45-.651-1.85-.3a4.012,4.012,0,0,0-2.15,1.15q-.7.75-4.9,7.25t-4.55,10.45q-.25,3-1.65,3.2-1,.05-.8-1.7a21.692,21.692,0,0,0-4.8-17.2q-6.351-7.7-10.25-4.55-1.551,1.3-.15,1.8a18.268,18.268,0,0,0,2.5.65m-12.45,33q3.35-2.451,4.15-2.9a22.181,22.181,0,0,1,2.55-1.45q2.6-1.251,5.75,1.4a5.677,5.677,0,0,1,1.55,2.05,8.613,8.613,0,0,1,.45,3.45,31.928,31.928,0,0,1-1.3,6.6q-1.2,4.6-4.65,4.95a18.009,18.009,0,0,1-4.75-.6q-2.55-.651-5.25-1.4-2.7-.8-2.95-1.8a11.653,11.653,0,0,1,.4-4.4,9.627,9.627,0,0,1,4.05-5.9m18.5-.45a6.123,6.123,0,0,1,1.95-3.25,11.613,11.613,0,0,1,2.4-1.7,4.714,4.714,0,0,1,2-.55,19.255,19.255,0,0,1,3.85.5,7.965,7.965,0,0,1,3.75,1.4,15.28,15.28,0,0,1,4.4,6.15q1.25,3.4,1.05,4.65a20.959,20.959,0,0,1-.55,2.4q-.3,1.149-2.9,3.75a9.535,9.535,0,0,1-4.65,2.9,12.85,12.85,0,0,1-5.85-.95,21.037,21.037,0,0,1-6.45-2.45q-1.751-1.251-.55-6.45,1-4.4,1.55-6.4m-30.45,24.4q-.2-4.3,1.8-6.65a11.744,11.744,0,0,1,4.4-3.35,7.067,7.067,0,0,1,2.55.05q2,.2,5.25.85a11.2,11.2,0,0,1,5.1,2.15q3.1,2.6,1.95,5.7a27.214,27.214,0,0,0-1.55,6.55,11.717,11.717,0,0,0,.35,5.4q.7,1.9-1.7.95-2.4-1-6.45-2.65-4.05-1.7-6.55-2.65a11.62,11.62,0,0,1-3.65-1.95q-1-.9-1.5-4.4m66.6-9a32.656,32.656,0,0,1-2.85,4.65,10.952,10.952,0,0,1-3.25,3.35,20.365,20.365,0,0,1-4.9.95q-3.6.349-6.45-3.1-2.9-3.5-.95-6.15l2.4-3.25a13.657,13.657,0,0,1,6.6-4.45,10.442,10.442,0,0,1,7.4.5,4.135,4.135,0,0,1,2.2,3,6.5,6.5,0,0,1-.2,4.5m-18.75,11.5a4.234,4.234,0,0,1,2.5-.95,30.326,30.326,0,0,1,5.25.45q3.9.5,5.6,2.7,1.9,2.4-1.1,8.2a10.451,10.451,0,0,1-12.5,5.2,4.9,4.9,0,0,1-2.7-3.05,7.826,7.826,0,0,1-.7-4.2,24.452,24.452,0,0,1,1.1-4q.8-2.25,1.1-2.85a4.513,4.513,0,0,1,1.45-1.5m-1.05,19.5a9.429,9.429,0,0,1,2.9.05q3.1.45,3.6.95.6.6.6,3.4.1,6.1-4.4,7.9-4.1,1.6-9.3-1.4a1.552,1.552,0,0,1-1.1-1.4,5.2,5.2,0,0,1,.75-2.3,17.02,17.02,0,0,1,1.45-2.5q.75-1.05,2-2.5a6.894,6.894,0,0,1,3.5-2.2m-14.7-26.85q6.349.249,9.35,3.1,2.949,2.85,2.65,5.75-.251,2.55-2.95,8.95-.55,1.4-3.3,1.25-7.7-.6-10.8-.95-3.1-.4-4.3-1.8-1.2-1.45-.8-5.85a18.773,18.773,0,0,1,2.1-7.6q1.7-3.15,8.05-2.85m-28.45,14.4q.049-1.1,1.1-.6,1,.45,5.3,1.95a68.843,68.843,0,0,1,7.65,3.05q3.3,1.55,1,3.35l-1.2.9q-6.3,4.6-2.4,11.6-7.4-.4-11-5.5-3.5-5.1-1.2-11.5a14.437,14.437,0,0,0,.75-3.25m17.45,8.85a2.117,2.117,0,0,0,.75-1.7,2.073,2.073,0,0,1,.4-1.6q.45-.551,2.5-.15,2.1.4,5.05.7,2.9.249,6.45.45a11.879,11.879,0,0,1,4.7.9,1.637,1.637,0,0,1,.75,2.15,20.548,20.548,0,0,1-2.2,4.05,36.725,36.725,0,0,0-2.8,5.05q-1.1,2.45-4.6,1.95-2.751-.3-4.05-.5t-7.5-1.15a7.773,7.773,0,0,1-3.1-1,9.227,9.227,0,0,1-1.15-2.75q-.7-2.3,1.7-4,2.349-1.751,3.1-2.4m13.3,13.85q2.4.4,4.7,3.85,2.3,3.4,2,6.2a9.737,9.737,0,0,1-2,4.8q-4.8,6.2-13.6,5.8-8.7-.4-13-6.9a7.152,7.152,0,0,1-1-4.8,7.964,7.964,0,0,1,2.2-4.7q.8-.8,5.8-4.7a7.764,7.764,0,0,1,3.55-.85,25.105,25.105,0,0,1,4.2.45,21.008,21.008,0,0,0,3.6.5,19.37,19.37,0,0,1,3.55.35"/></svg>