<svg overflow="visible" width="100%" height="100%" viewBox="0 0 115.218 74.776" xmlns="http://www.w3.org/2000/svg"><path d="M50.347,2.5q-2.4-2.6-3.6-2.5-1.3.1-3.1,3L1.447,70.7a13.891,13.891,0,0,1-1.3,1.9,1.38,1.38,0,0,0,.7,1.9,1.244,1.244,0,0,0,1.9-.4q.7-1.5,1-2L26.347,36q1.6-2.5,2.2-2.6.7-.2,2.9,1.4,3.5,2.5,4.7,2.5,1.2.1,4.7-2.4,3.8-2.7,7.2-.5,5,3.4,10.1-.3a8.857,8.857,0,0,1,8-1.2,6.334,6.334,0,0,0,4.8-.05,3.824,3.824,0,0,1,2.85-.6,7.758,7.758,0,0,1,2.75,2.25l34.3,36.5q1.9,1.9,2.65,2.6.551.5,1.35-.35.851-.7-.25-1.95-11.95-13.05-31.55-33.9-24.4-26-32.7-34.9m-18.3,29.4a6.777,6.777,0,0,1-1.2-2.05,1.124,1.124,0,0,1,.1-1.05Q41.347,12,46.847,3L70.5,28.254q1.7,1.6,0,1.7-1.4.049-2.15.05a14.425,14.425,0,0,1-2.7-.2,9.391,9.391,0,0,0-8,1.6q-4.3,3.3-9.1.2-4.4-2.7-9.1.9a4.989,4.989,0,0,1-4.3,1.3,5.276,5.276,0,0,1-3.1-1.9"/></svg>