<svg overflow="visible" width="100%" height="100%" viewBox="0 0 115.836 88.117" xmlns="http://www.w3.org/2000/svg"><path d="M109.8,22.343a6.166,6.166,0,0,0-1.4-5.9,50.576,50.576,0,0,0-6.3-6.2q-1.7-1.4-7-5.5a16.934,16.934,0,0,0-6.7-3.2,66.942,66.942,0,0,0-7.2-1.4q-4.9-.5-5.55.75-.65,1.2.8,1.95a17.026,17.026,0,0,1,3.8,3.15,45.706,45.706,0,0,1,5.25,6.65,22.568,22.568,0,0,1,3.6,7.6l-7.4-4.3a1.827,1.827,0,0,0-1.5-.3.89.89,0,0,0-.7,1.1,20.842,20.842,0,0,0,2.8,11.6,14.015,14.015,0,0,0,9.5,6.8q3.3.6,3.6,2.8a21.292,21.292,0,0,1,.2,6.4,10.324,10.324,0,0,1-3.2,5.5,14.05,14.05,0,0,1-1.5,1.2q-1.5,1-2.45,1.7a22.372,22.372,0,0,0-2.45-1,91.575,91.575,0,0,0-16.95-3q.2-.851.4-2.35,1.05-7.05,1.9-11.25l.25-1.2q2.3-1.4,2.5-2.2.55-4.1-1.7-4.35a6.185,6.185,0,0,0-3.15.2,7.189,7.189,0,0,0-1.95,1.45,5.462,5.462,0,0,0-1.3,1.8q-.4,1,1,2.2a4.054,4.054,0,0,0,1.65.95q-.1.549-.4,2l-2.6,12.5a92.391,92.391,0,0,0-11.75.15q-4.55.349-8.95,1.05a18.594,18.594,0,0,0-.7-2.3,43.769,43.769,0,0,1-2.4-8.1,6.325,6.325,0,0,1,1.05-4.25,2.5,2.5,0,0,0,.3-1.3v-1.1q-.1-2.3-1.05-2.95a5,5,0,0,0-3.3-.35q-2.349.249-2.9,1.1-.549.8-1.3,2.15a2.974,2.974,0,0,0-.4,2.55,3.005,3.005,0,0,0,1.1,1.65,15.847,15.847,0,0,0,1.85,1.05q1.6,1.1,3.8,8.7.8,2.7,1.2,3.65a94.446,94.446,0,0,0-19.7,6.15q-3,1.8-6.1-.8a7.515,7.515,0,0,1-3-5.7,15.051,15.051,0,0,1,3-9.1,13.145,13.145,0,0,1,8.1-5.3,9.822,9.822,0,0,0,6.35-3.7q2.151-2.95,5.3-8.3,3.1-5.4,1.3-5.45l-3.4-.1a15.913,15.913,0,0,0-3.9.6,39.59,39.59,0,0,1-3.95.75,7.1,7.1,0,0,1-4.6-.4q-.3-.851.7-1.7a47.156,47.156,0,0,1,8-5.7q3.351-1.8,6.95-3.55,3.5-1.8,5.6-2.9a15.778,15.778,0,0,0,2.6-1.6q.551-.55.45-.95,0-.7-1.5-1.15a19.138,19.138,0,0,0-9.8.05,93.045,93.045,0,0,0-9.3,3.2,29.913,29.913,0,0,0-9.7,6.1,44.781,44.781,0,0,0-6.8,8.95q-6.148,9.949-6.95,13.55T.4,39.543q-.65,2.8-.25,9.65A19.608,19.608,0,0,0,5.1,61.343a18.526,18.526,0,0,1,2.5,3.6,16.5,16.5,0,0,1,.4,4.6,28.793,28.793,0,0,1-2.3,11,29.086,29.086,0,0,1-1.55,4.05q-1.25,2.649-.05,3.35,2.25.9,3.25-2.85.951-3.75,1.85-6.35a19.877,19.877,0,0,0,1.4-8.3q-.3-3.4,3.5-2.9a2.689,2.689,0,0,1,2.2,1.1,5.4,5.4,0,0,1,.2,2.8q-.3,3.4-.8,15.3a1.474,1.474,0,0,0,.4.8,1.73,1.73,0,0,0,1.15.45,1.006,1.006,0,0,0,1-.35,16.885,16.885,0,0,0,.3-4.2q.051-3.8.45-7.4.4-3.4,1-3.8.5-.4,3.8.3,8.7,1.8,12.9,2.25t5.65.45q1.451,0,14.35.75a59.49,59.49,0,0,0,23.65-3.1q10.8-3.9,11.85-4.8,1-.951,2.5.05a3.33,3.33,0,0,1,1.3,2.8,20.193,20.193,0,0,1-.4,3.2,20.383,20.383,0,0,1-.7,3.4,20.523,20.523,0,0,1-.6,2.6,2.115,2.115,0,0,0,.5,2.05,1.025,1.025,0,0,0,1.25.2q.55-.35,1.35-3.25a46.745,46.745,0,0,0,1.2-5.6q.8-4.9-2-7.5a4.27,4.27,0,0,1-1.5-1.9,1.839,1.839,0,0,1,.2-1.1q.2-.7.6-.8a4.191,4.191,0,0,1,3.9.3,3.92,3.92,0,0,1,1.9,3.4l.7,13.9q.2,1.849,1.2,1.8,1.9-.251,1.6-6.4-.3-6.2-.5-9.8a8.034,8.034,0,0,1,.5-4,6.937,6.937,0,0,1,2.9-2.8q6.4-3.5,7.6-13.2a9.2,9.2,0,0,0-.4-4.75q-.849-2.05-3.3-6.6a51.98,51.98,0,0,1-2.6-4.9,17.111,17.111,0,0,1-.1-2.6,17.486,17.486,0,0,1,.5-4.25m-2.8-2.3a4.267,4.267,0,0,1-.1,2.4,15.164,15.164,0,0,0-.35,4.15,11.226,11.226,0,0,0,.25,3.25q.2.45,1.95,3.55,1.751,3.15,3.05,6.05a14.6,14.6,0,0,1,1.3,3.9q.6,5-3.4,10.3-4.2,5.4-9.4,5.2a33.37,33.37,0,0,1-7-2.2q-2.2-1.2-2.4-1.9a5.862,5.862,0,0,1,2.6-2.35,5.33,5.33,0,0,0,2.8-2.85q2.4-7,2.4-10.1-.2-5.5-6.1-7a19.685,19.685,0,0,1-7.2-4.3q-3.4-3.5-2-7.7.351-1.1,7.1,4.1,1.8.8,2.2.4,1.2-1.7.8-2.6a37.873,37.873,0,0,0-5-10.2q-8.8-9.3-7.2-9.4a41.372,41.372,0,0,0,4.8,1,12.96,12.96,0,0,1,4.1,1.5q11.2,6.7,15.6,12.8a8.686,8.686,0,0,1,1.2,2M70.9,31.993a.813.813,0,0,1-1.3,0,1.444,1.444,0,0,1-.25-1.75q.4-1.1,1.7-.4,1.3.649-.15,2.15m-4,19.55a47.866,47.866,0,0,1,9.05.75,39.273,39.273,0,0,1,7.2,2,24.519,24.519,0,0,1,4.35,2q1.052.7,3.15,2.45,2.051,1.7,2.05,2.95a4.761,4.761,0,0,1-.45,2.15,11.1,11.1,0,0,1-3.1,2.8q-2.7,1.9-8.75,3.5-6.1,1.6-8.2,2a47.835,47.835,0,0,1-13.1.9q-.7-.1-17.6-.7A56.79,56.79,0,0,1,21,67.493l-.05-.05a4.554,4.554,0,0,1-1.6-2.35q-.649-1.751,1.75-4.25a12.758,12.758,0,0,1,5.2-3.2q14.4-4.3,15.7-4.6a55.032,55.032,0,0,1,16.2-1.6q2.9.2,8.7.1m-33.25-45.1a34.018,34.018,0,0,0-5.9,2.95q-1.948,1.3-4.55,3.35a16.059,16.059,0,0,0-4.2,4.8q-1.5,2.4-.4,4,1.2,1.6,4.3,1l11.2-2h.05a.147.147,0,0,0,.05.1q-1.1,2.1-3.7,6.7-2.4,3.9-5.5,4.8a14.1,14.1,0,0,0-6.8,3,68.76,68.76,0,0,0-5,5.2,9.273,9.273,0,0,0-2.2,5.2,26.551,26.551,0,0,0,0,5.7q.4,5.4,4.6,7.1,1.6.7.7,2.5a27.1,27.1,0,0,1-1.7,3,17.369,17.369,0,0,1-11.2-10.9,20.492,20.492,0,0,1-.65-8.8,68.5,68.5,0,0,1,1.2-8.2q.651-2.751,5.3-11.25,4.65-8.45,8.25-11.6,3.551-3.2,5.55-4.7a36.212,36.212,0,0,1,9.05-4.15q10.851-2.451,8.2-.95-2.649,1.45-6.65,3.15m5.45,25.9q2.1-.6,1.85,1.3-.3,1.849-1.3,2a2.984,2.984,0,0,1-1.6-.1q-.6-.251-.85-1.4-.249-1.2,1.9-1.8"/></svg>