<svg overflow="visible" width="100%" height="100%" viewBox="0 0 74.909 116.246" xmlns="http://www.w3.org/2000/svg"><path d="M3.675,8.144q-6.3,8.5-1.8,18.4a116.221,116.221,0,0,0,7.8,14.5,91.574,91.574,0,0,1,6.35,11.7q2.9,6.45,10.25,25.8,7.2,19,11.1,27.5a15.94,15.94,0,0,0,9.7,9.2,21.608,21.608,0,0,0,13.6-.2q8.7-1.7,12.3-8,3.6-6.4.5-14.5-14.8-38.3-16.6-42.8-9.7-24.2-18.5-41.9a12.252,12.252,0,0,0-6.8-6.5,18.615,18.615,0,0,0-9.05-1.25q-1.849.051-3.9.05-9.049,0-14.95,8m4.6,24.35a24.757,24.757,0,0,1-4.6-12.5q-.7-7.05,3.4-11.45,4-4.4,8.4-4.9,8.8-1,11.9-.5a10.685,10.685,0,0,1,8.8,6.8l17.3,37.7q-9.5,2.8-14.1,4.2-8.1,2.6-10.15,3.8l-2.65,1.55a5.579,5.579,0,0,0-1.55,1.5q-.95,1.15,1.7,8.75,2.6,7.551,3.5,9.7,1.3,2.55,3.65,2.3a11.508,11.508,0,0,0,4.4-1.5q2.051-1.249,9.95-3.35,7.849-2.149,8.15-2.45a5.492,5.492,0,0,0,.55-1.1,4.31,4.31,0,0,0,.25-1.35,2.755,2.755,0,0,0-.05-.95,3.945,3.945,0,0,1-.2-1.2q-.1-.9-.15-1.6l-1.4-11q3.5,7.3,7.9,18.7,6.2,16.2,7.3,18.9a12.263,12.263,0,0,1,.5,11.3,13.826,13.826,0,0,1-8.6,7.9,42.276,42.276,0,0,1-8.7,1.8,14.009,14.009,0,0,1-7.9-1.8,13.392,13.392,0,0,1-5.4-5.8q-2.5-5.2-5.7-12.7-3.5-8.9-5.5-13.6-.25-.7-1.55-4.4-1.35-3.7-5.05-15.1-.45-1.35-.8-2.35-.251-.549-.5-1.25l-7.05-14.65q-.8-1.35-1.45-2.65a76.872,76.872,0,0,0-4.6-6.75m31.2,22.35q4-1.2,12.5-3.6l2.2,15.4q.6,3.2-4.45,4.6-5.051,1.35-11.25,3.6t-6.7-.8q-1.8-5.049-3.25-9.35-1.5-4.35-.5-4.95a50.085,50.085,0,0,1,11.45-4.9m15.35,50.6q-.3,1,.25,1.1.75.15.7-.7v-.55q-.649-.8-.95.15m6.45-6.1q-1.65-.049-1.2.5.25.8,1.2.35c.4-.166.567-.317.5-.45-.133-.266-.3-.4-.5-.4m.6-10.9a1.791,1.791,0,0,0,.5,1.1q.45.6,1.2-.6.3-.949-.8-1.3-.55-.049-.9.8m-19.95,5.6q-.55-.2-.65,1.2-.15.951,1.1.8.85-.549.5-1.15a1.916,1.916,0,0,0-.95-.85m9.05,1.2q-.3,1.5.3,1.55,1.4.15,1.4-1.25-.049-1.749-.75-1.55-.75.15-.95,1.25m-1.15-12.65q.049.351,1.45-.25.3-.049,0-.6-.55-.649-1.1-.3a2.325,2.325,0,0,0-.35,1.15m-9.35,2.35q.4-.8-1.6-2.2-2.5.1-2,1.7a8.024,8.024,0,0,0,1.85,1.55q.251.051.85-.35.3-.2.9-.7m-14.15-42.15q.9.6,1.05.1.1-.5-1.1-2.05-.851-.15-.6.8l.65,1.15m17.6,3.5q.85-.9-1.15-.6-2.05.25-.9.85a1.554,1.554,0,0,0,2.05-.25m-9.45-13.85q-.551.051-.75,1-.251.9.8.45,1-.5-.05-1.45m-14.15-2.05q-.049.55.95.15a2.7,2.7,0,0,0,1.7-1.8q-.251-.75-.75-.55-.649.15-1.9,2.2m10.3-7.6q-.05,1.15,1,.8,1.05-.4.05-1.15-1-.8-1.05.35m-19.35,4.35q.9.951,1.45.65a1.809,1.809,0,0,0,.65-1.45,1.484,1.484,0,0,0-.4-1.1q-.4-.7-.7-.7-1.4,0-1.5,1a2.55,2.55,0,0,0,.5,1.6"/></svg>