<svg overflow="visible" width="100%" height="100%" viewBox="0 0 117.302 44.62" xmlns="http://www.w3.org/2000/svg"><path d="M114.575,1.977q-2.55-1.749-4.55-.35-5,3.5-6.7,5-10.6,9.5-15.3,18.6-.5-5-5.4-5.55a91.675,91.675,0,0,0-12.85-.4q-8.75.25-13.25.25-3.8.2-4.5.8-.7.7-1,4.5-.3,3.4-.9,4t-3.6.75q-3,.15-6.2.55a17.852,17.852,0,0,1-4.25.15q-1.05-.249-1.7-4.55-.75-4.3-1.9-5.15t-5.35-.85l-11.4.1q4.2-4.5,6.8-7.25,2.6-2.8,6.3-6.45t7-3.2a30.722,30.722,0,0,0,3.8.4q.5-.05.7-.8a2.5,2.5,0,0,0,.05-1.3q-.15-.549-1.8-1a13.367,13.367,0,0,0-5.4.1q-3.8.551-8.1,5a107.287,107.287,0,0,0-7.35,8.35,33.937,33.937,0,0,1-5.05,5.35q-1.95,1.5-5.85,1.3t-5.2.75a3.192,3.192,0,0,0-1.4,2.45q-.3,12.6-.2,14.2.3,4.7,5.7,4.8l25.8.7q4.2.3,4.7-3.5a18.781,18.781,0,0,0-.1-3.15q-.2-2.449-.3-3.1-.15-.649,1.15-.6,1.249,0,4.5-.25t5.5-.45q2.2-.249,2.75.2a2.624,2.624,0,0,1,.7,1.65q.1,1.1.4,2.9a13.8,13.8,0,0,0,2.9,5.9q2.2,2.2,6.2,1.7,13.749-.6,20.1-.9t7.5-1.95q1.1-1.65.8-7.75a13.466,13.466,0,0,1,2.1-7.9,55.968,55.968,0,0,1,7.3-9.9q2.6-2.8,8.7-8.7a17.857,17.857,0,0,1,2.9-2.5,4.248,4.248,0,0,1,4.3.15q2.4,1.2,3.1.8a1.178,1.178,0,0,0,.55-1.3q-.15-.9-2.7-2.6m-111.7,27.1q-.05-4.65.65-5.35.8-.8,5.4-.4l-6.05,5.75m8.75-4.45a6.207,6.207,0,0,1,3.8-1.6l12.3-.3a5.149,5.149,0,0,1,2.1.3,2.327,2.327,0,0,1,1.2,1.8q.4,2.3,2.6,13.5.3,2.1-2,2.1h-7.9q-16.35-.2-17.25-.15a4.427,4.427,0,0,1-1.9-.35,2.191,2.191,0,0,1-1.35-1.7,23.948,23.948,0,0,1-.4-3.4,4.831,4.831,0,0,1,1.3-3.1q6.2-5.9,7.5-7.1m42.05,3.6q.2-5.1,1.15-5.4a11.789,11.789,0,0,1,2.45-.55q1.5-.2,9.3-.4,7.751-.249,13.25-.05,3.6.2,4.5,1.2t.9,4.4l.2,10.3a2.493,2.493,0,0,1-.5,2,2.809,2.809,0,0,1-2,.7l-23.7,1.1a6.059,6.059,0,0,1-3.7-.7q-1.2-.9-1.6-4.2a49.773,49.773,0,0,1-.25-8.4"/></svg>