<svg overflow="visible" width="100%" height="100%" viewBox="0 0 78.726 116.455" xmlns="http://www.w3.org/2000/svg"><path d="M9.182,21.6q-1-.851-1.65-1.3-.7-.45-1.8.25a7.676,7.676,0,0,0-1.95,1.8,39.291,39.291,0,0,0-2.9,5.25,6.337,6.337,0,0,0,.8,7.55,7.1,7.1,0,0,1,1.6,6.4q-.8,4.3,2.5,6.4,2.1,1.2,1.4,4.3-1,4.7.6,7t6.5,3a4.047,4.047,0,0,1,1.6.5,1.5,1.5,0,0,1,.5,1.5q-.5,4.6,4.9,6.4a4.849,4.849,0,0,1,2.3,1.2,3.137,3.137,0,0,1,.7,2.5q-.3,4.8,4.1,6,2.4.7,1.4,2.9-3.9,9.8-1.6,24.5a11.594,11.594,0,0,0,3.6,6.6,7.341,7.341,0,0,0,7.2,1.8q5.2-1,8.8-6.5.9-1.4,5.1-10.4,4-9.8-1.9-17.15-.349-.45-.75-.9-2-2.05,0-2.5a8.188,8.188,0,0,0,3.75-2.15,5.894,5.894,0,0,0,1.4-5.15,1.342,1.342,0,0,1,1-1.65,8.11,8.11,0,0,0,4.2-3.65,35.585,35.585,0,0,0,1.7-3.2q.15-.6.3-1.45.15-.8,1.55-1.45a10.8,10.8,0,0,0,3.35-3.5q2-2.85.85-4.55-.3-.85.45-1.1a9.641,9.641,0,0,0,1.4-.45q2.5-1,2.85-5.65a15.536,15.536,0,0,0,.05-2.75q-.349-2.651.55-2.9a7.923,7.923,0,0,0,3.75-3.1,8.142,8.142,0,0,0,.8-7.5q-1-3.7-4.3-3.3a5.129,5.129,0,0,0-1.1.25,2.149,2.149,0,0,1-2.95-1q-4.549-7.5-9.85-14.7a20.192,20.192,0,0,0-14.9-9.4q-8.3-1.3-18.1,2.2a18.75,18.75,0,0,0-10,6.7,93.941,93.941,0,0,0-5.6,8.35,24.42,24.42,0,0,0-2.2,4m1.7,1.4a19.457,19.457,0,0,0,1.85-2.65,68.028,68.028,0,0,1,5.05-7.5q3.7-4.7,5.9-5.8,11.9-5.7,21.1-4,7.7,1.5,11.1,6,2,2.4,6.9,9.9,2.051,3.2,3.9,5.6a4.043,4.043,0,0,1,.2,4.95,11.3,11.3,0,0,0-1.3,2.5,7.913,7.913,0,0,0-.1,5.4,1.162,1.162,0,0,1-.15,1.25q-.5.65-1,1.4a4.094,4.094,0,0,0-.5,2.25q-.05,1.5,0,2.25a6.565,6.565,0,0,1-.05,1.4,1.372,1.372,0,0,1-1,1.05,8.709,8.709,0,0,0-3.05,1.7q-2.5,1.85-1.95,4.2.551,2.3-1.95,4.5a11.337,11.337,0,0,0-3.45,6.5,12.379,12.379,0,0,0-.35,2.1q-.049,1.45-2,2a7.386,7.386,0,0,0-3.45,1.9,6.349,6.349,0,0,0-1.35,3.85q0,.3.15,1.65.15,1.249-2-.1-2.2-1.4-5,.35-2.85,1.7-3.7-.9-.551-1.95-.9-3a10.667,10.667,0,0,0-1.35-2.95q-1.451-2.051-3.3-.95-1.05.6-.9-.5,0-1.6-.05-2-.1-.6-.3-1.6a20.121,20.121,0,0,0-.9-2.95q-.7-1.95-3.6-2.8a6.888,6.888,0,0,0-2.85-.35q-2.051.3-2.45-1.35a9.84,9.84,0,0,0-2.05-4.05q-1.05-1-1.5-1.5t-1.3-1.4q-.9-.9-.2-1.4a5.012,5.012,0,0,0,1.25-2.5,6.577,6.577,0,0,0-1.05-4.75,10.419,10.419,0,0,0-4.55-4.25q5.7-5.1,5.1-8.8a8.348,8.348,0,0,0-2.9-4.65m-7.2,9.5a4.35,4.35,0,0,1-.5-4.15,9.162,9.162,0,0,1,2.5-3.9q1.7-1.6,3.65.45t1.85,3.4q-.15,1.35-2.55,4-2.45,2.6-3.05,2.3a7.664,7.664,0,0,1-1.9-2.1m7.3,9.75a3.187,3.187,0,0,1,0,2.7q-.5,1.4-1.6,1.2a5.111,5.111,0,0,1-3.4-2.2q-.7-1,.3-3.7.15-.35.3-.65.6-1.45,2.3.1a7.056,7.056,0,0,1,2.1,2.55m-1.3,10.6a2.1,2.1,0,0,1,1.05-1.15q.95-.6,2.2.4a8.6,8.6,0,0,1,1.75,1.75,7.875,7.875,0,0,1,.75,1.5,3.721,3.721,0,0,1-.05,2,1.924,1.924,0,0,1-1.3,1.7q-2.4,1-4.1-1.8a7.665,7.665,0,0,1-.3-4.4m58.4-19.55a5.741,5.741,0,0,1,.95-2.5,11.052,11.052,0,0,1,1.75-1.55,4.726,4.726,0,0,1,2.8-1.05q1.65-.15,2.2.8a5.4,5.4,0,0,1,.05,3.1,8.115,8.115,0,0,1-1.35,3.4,4.06,4.06,0,0,1-2.9,1.2,3.864,3.864,0,0,1-3-.8,2.869,2.869,0,0,1-.5-2.6m2.5,9.5a6.531,6.531,0,0,1-.15,2.45,5.727,5.727,0,0,1-.6,1.55,5.687,5.687,0,0,1-.75.8,1.5,1.5,0,0,1-.8.3,1.273,1.273,0,0,1-.75-.15,3.594,3.594,0,0,1-1.05-1.4,5.034,5.034,0,0,1-.1-3.65q.55-2.5,1.9-2.2a4.48,4.48,0,0,1,1.75.6q.4.3.55,1.7m-9.75,8.75q1.45-2.2,3.55-1.05,2.05,1.1.55,5.05-1.55,3.95-3.55,1.1-2.05-2.9-.55-5.1m-3.8,15a1.663,1.663,0,0,1-2.15.2,1.933,1.933,0,0,1-.65-2.3,7.056,7.056,0,0,1,2-3.35q1.65-1.75,2.95-.8,1.249.95.1,3.15a12.409,12.409,0,0,1-2.25,3.1m-6.8,4.1q1.751-1.6,2.6,1.25a3.554,3.554,0,0,1-1.8,4.35,1.846,1.846,0,0,1-1.2.4,2.545,2.545,0,0,1-2.05-1.6,2.061,2.061,0,0,1,.15-1.8,10.155,10.155,0,0,1,2.3-2.6m-10,7.35q2.45-.8,5.7,2.85a29.53,29.53,0,0,1,4.75,6.7q2.3,4.9-.3,10.7-1.4,3.3-4.9,9.7a9.718,9.718,0,0,1-7.2,5.4q-2.8.55-5.35-2.15a8.863,8.863,0,0,1-2.65-5.75q-.1-3-.15-6.85-.15-9.35,2.55-15.05a7.175,7.175,0,0,1,3.15-3.6,24.017,24.017,0,0,1,4.4-1.95M24.482,63.1q2.05,4.05-1,4.75a3.8,3.8,0,0,1-3.2-.8,3.151,3.151,0,0,1-1.2-3,4.8,4.8,0,0,1,1.45-3.2q1.9-1.849,3.95,2.25m7.5,10.75q1.151,4.95-1.55,4.3-2.749-.7-3.3-2.4t1.6-4.3q2.1-2.55,3.25,2.4"/></svg>