<svg overflow="visible" width="100%" height="100%" viewBox="0 0 114.13 92.988" xmlns="http://www.w3.org/2000/svg"><path d="M5.323,2.538q-3.5.3-4.75,1.45-1.3,1.1.35,1.85a8.515,8.515,0,0,0,2.95.75,2.424,2.424,0,0,1,1.65.4q.5.5.5,2.9l-.2,74.9a13.107,13.107,0,0,1-.2,2.9,2,2,0,0,1-2.05,1.25q-1.5-.05-1.75.5a1.691,1.691,0,0,0-.05,1.35q.2.8,2.2.85,1.95.051,4.05-.05h65.1q12,.1,36.2,1.2.7,0,2.5.2,1.4-.2,1.3-1.8a1.253,1.253,0,0,0-1.3-1.4q-1.7.1-2.4.1l-2.65-.1q.15-1.849-.15-8.3.1-5.9-.2-34.4-.3-21.1.3-33.2a57.445,57.445,0,0,0,.1-6.55q1.65.15,3.4.35.8.1,2.5.5,1.3,0,1.4-1.6a1.533,1.533,0,0,0-1.3-1.7q-1.8-.2-2.6-.3-20.2-2.2-30.3-3.2a193.447,193.447,0,0,0-30.4-1.2q-7.6.6-18.1,1.2-12,.5-18.05.7-4.549.1-8.05.45m3.6,5.75q-.2-2.8,2.5-2.9,4.85-.4,8.6-.7-.15,1.7-.1,5.8-.2,23.3.15,47.65.3,24.3.65,27.4t-1.8,3.05h-7.4a6.086,6.086,0,0,1-2.8-.5q-.5-.5-.5-3l.7-76.8m14,6.5q0-3,.1-7.6.05-1.849,0-2.75,9.9-.849,10.1-.85,3.3-.2,3.9.4.5.5.6,3.8v34.5q.7,35.2.7,41.8.1,3.2-.5,3.8t-3.8.6l-6,.1a8.865,8.865,0,0,1-3.2-.35q-.75-.4-.75-1.75a33.843,33.843,0,0,0-.1-3.5q-.15-2.1-.25-3.1a24.448,24.448,0,0,1,0-3.2l-.8-61.9m65.35,1.85q.15-7.65.25-10.05.1-1.149,1.1-1.05,5.85.6,14.1,1.6.05,2.1-.2,11.25l.6,62.9q.251,6.2.5,8.4l-13.25-.55q-.9-11.1-1.55-21.45-.8-12.7-.8-17.3-.7-12.1-.9-18.2-.1-4.2.15-15.55m-2.8-11q-.1.4-.1,5.95-.05,5.55.1,13.7.15,8.1,1.15,36.1.3,4,.5,11.9.3,7,.9,13.1a5.991,5.991,0,0,1-.25,2.7l-11.05-.5q-2.8-.1-3.4-.6-.5-.5-.6-3.4l-.1-33.7a4.761,4.761,0,0,1,.3-1.35,8.125,8.125,0,0,1,1.8-2.5,2.2,2.2,0,0,0-.1-3.35,6.182,6.182,0,0,1-1.8-3.6,36.351,36.351,0,0,1-.2-3.8l-.1-24.8q.1-1.8.2-5.65a18.962,18.962,0,0,0,0-1.95q6.1.55,9.5.95,3.35.351,3.25.8m-35.15,18.9a6.169,6.169,0,0,1,1.7-.35q1.3-.2,1.4,2.3v14.3q-6.2-.8-7.8-3.7-1.4-2.3.15-6.5,1.5-4.25,2.8-5.05a10.214,10.214,0,0,1,1.75-1m1.2-2.6a14.354,14.354,0,0,0-1.4.45,20.082,20.082,0,0,0-3.2,1.9,10.62,10.62,0,0,0-4,5.5,11.887,11.887,0,0,0-.7,6.65q.6,2.95,4.4,6.15l-6.1,5.5q.2-22.8-.5-41.3a6.725,6.725,0,0,1,.3-2.4,2.114,2.114,0,0,1,2.1-1q3.3-.1,9.7-.5.7,0,1.35-.05.05,4.2.05,6.35v5.8a16.929,16.929,0,0,1-.55,5.2q-.55,1.5-1.45,1.75m18.3-18.3q-.15,1.2-.2,3.15-.2,4.1-.1,9.4,0,5.8-.2,10.55-2.95-3.95-5.7-4.8a23.16,23.16,0,0,0-4.65-1,4.352,4.352,0,0,1-2.45-.75q-.551-.549-.5-3.85,0-3.35-.05-7.85-.05-4.4.05-5.6a55.073,55.073,0,0,1,5.8.1q3.7.25,8,.65m-5.3,21.65q4.1,3,3.85,6.5-.251,3.45-3.7,6.25-3.5,2.8-5.7,3a5.834,5.834,0,0,1-2.65-.15q-.5-.3-.55-4.05t.05-8.05q.1-4.3,1.2-4.9,3.3-1.5,7.5,1.4m-4.4,18.1a5.839,5.839,0,0,0,2.55-.55q.5.851-.65,2.2-1.25,1.451-.85,2.05a2.432,2.432,0,0,0,1.6.85,2.08,2.08,0,0,1,1.55,1.65v2.8l-.1,5.7q-.15,3.55-.3,6.05t-.4,6.15q-.3,3.6-.85,4.05a4.461,4.461,0,0,1-3.55,1.2q-3.649-.05-3.7-.75,1.4-9.8.6-26.5-.1-3.3.4-4,.6-.8,3.7-.9m6.9,5.2q.2-.4,1.6-.7,1.1.3,1.1,2.9l.5,33.2q0,2.8-.5,3.3t-3.4.6h-11.1q-.1-7.549,3.3-6.9a8.014,8.014,0,0,0,3.9,3.5q2.7,1.1,3.2-2.8a270.11,270.11,0,0,0,1.1-30.1,11.182,11.182,0,0,1,.3-3m-.35-6.9q.2-1.35,2.65-3.6,0,1.3-.1,4-.15,2.7-1.45,1.85a2.117,2.117,0,0,1-1.1-2.25m-15.9,5.7-.25.15q-.4.2-4.25,1.75-3.9,1.551-2-.95a10.8,10.8,0,0,1,4-3.45q2.05-.949,3.1.1,1,1,.4,1.6a7.281,7.281,0,0,1-1,.8m-2.15,3.5v19.7q0,4.5.1,5.1a7.982,7.982,0,0,0,1.2,3.75,4.733,4.733,0,0,1,.85,2.8q.1,1.9.9,1.85.75-.049.4,4.4h-7.05q-2.9,0-3.5-.5-.5-.5-.6-3.3v-32.4q2.15,1.65,7.7-1.4m2,16.75q-.25-5.15-.05-15.85-.15-1.6.9-1.7a2.071,2.071,0,0,1,1.5.2q.5.351.55,3.55,0,3.15-.15,6.9t-.35,8.9q-.2,5.1-1.25,5.4-1.05.251-.95-.55.05-.8-.2-6.85m11.7,13.6a10.2,10.2,0,0,1-1.65-2.55q-.8-1.65,1.2-1.6,1.95.051,1.55,3.1-.251,1.9-1.1,1.05"/></svg>