<svg overflow="visible" width="100%" height="100%" viewBox="0 0 116.474 110.952" xmlns="http://www.w3.org/2000/svg"><path d="M57.914,41.723q-5.391.045-8.25.25-2.815.215-9,1.15-6.2.995-15.1,3.2-14.6,3.6-22.4,11.1a9.078,9.078,0,0,0-2.9,4.4,14.193,14.193,0,0,0-.05,5.25,30.116,30.116,0,0,0,.95,4.75,27.673,27.673,0,0,0,1.25,3.2,20.27,20.27,0,0,0,2.3,3.75q1.551,2.124,5.95,3.85l-.1,25.8q-.1,2.8,1.25,2.5a1.389,1.389,0,0,0,1.4-1.35,36.372,36.372,0,0,0,.15-3.95l.3-17.9a32.778,32.778,0,0,0-.05-4.1q.831.4,6.55.8a120.988,120.988,0,0,0,12.3.3q5.35-.194,14.35-1.1,1.682,1.426,1.75,7.7v13.1a1.316,1.316,0,0,0,.45,1.15,1.294,1.294,0,0,0,.95.35,1.5,1.5,0,0,0,.95-.35q.452-.317.4-1.3-.047-.945.15-6.65l-.1-6.4a75.649,75.649,0,0,0-.05-8.3l30.85-3.6q2.2-.3,11.8-2,3.3-.5,3,2.6l-1.4,13.3q-.394,3.258-1.2,9.6-.183,1.985,1.2,2,1.217-.04,1.35-.9.178-.8.35-1.8,1.1-8.9,1.6-13.3a77.339,77.339,0,0,0,.55-11.6,11.783,11.783,0,0,0,3.1-.95,27.8,27.8,0,0,0,5.4-3.4q.3-.206.55-.4a9.1,9.1,0,0,1,1.2,2.85q1,4,2.9,11.8a56.308,56.308,0,0,1,1.3,12.1q-.039,1.836,1.3,1.7a1.485,1.485,0,0,0,1.25-1.3,29.523,29.523,0,0,0-.15-5.1,65.191,65.191,0,0,0-2.05-12.95q-1.453-5.254-2.05-7.35a35.29,35.29,0,0,0-1.3-3.8.615.615,0,0,0-.05-.15,7.428,7.428,0,0,0,1.35-2.15q.837-2.18-5.55-9.85a33.61,33.61,0,0,0-17-10.65q-10.606-3-14.1-3.8t-7.3-1.35a71.947,71.947,0,0,0-10.3-.75m-16.35,4.2q2.9-.435,1.55,1.1a10.147,10.147,0,0,1-5.05,3.5,47.491,47.491,0,0,0-9.05,4.25,9.593,9.593,0,0,0-3.95,4.35q-.822,2.249-2.25,2.35-1.38.108-3.9.15-3.095.039-7.45.1-3.261.087-6.3.1-1.842.038-.9-1.25a24.035,24.035,0,0,1,6.8-5.65q12.124-6.3,30.5-9m5.9,3.05q-1.349.159-.1-1.75,1.251-1.87,7.55-2.15a83.1,83.1,0,0,1,12.15.2,47.552,47.552,0,0,1,10.05,2.25q.916.306,1.75.6,2.409.69-1.8,1a35,35,0,0,0-3.9.65,11.407,11.407,0,0,1-4.75-.35,36.343,36.343,0,0,0-10.2-1.25q-5.707.23-7.55.45-1.8.255-3.2.35m35.1,1.7a9.513,9.513,0,0,1,5,.1,45.905,45.905,0,0,1,7,3.35q.446.252.9.5,1.285.864-.7,1l-4,.4-11.95.9a2.876,2.876,0,0,1-2.4-1.35q-.846-1.111-1.8-2.15-.675-.848.6-1.2,2.805-.588,7.35-1.55m-3.25,9.6q-.4-1.323,1.15-1.5,7.572-.373,16.15-1.1,2.952-.372,4.15.6,1.311.954,2.7,2.05a15.122,15.122,0,0,1,2.1,2.1q4.3,4.7-1.6,6.2a66.208,66.208,0,0,1-11.3,1.6,96.514,96.514,0,0,1-17.15-.6q-1.153-.137.05-1.45a21.373,21.373,0,0,0,2.7-3.05,5.691,5.691,0,0,0,1.05-4.85m-.35,12.45q1.839.2,6.45.55,2.779.206,6.05.35,5.749.216,0,1.2a310.5,310.5,0,0,1-42.05,5.5q-2,.112-1.35-1.5a9.862,9.862,0,0,1,1.4-3.1q.5-.6,3.8-1.1,7.5-1.1,9.3-1.4,3.238-.622,5.4-1.15a10.376,10.376,0,0,1,3.85-.3q1.73.287,3.5.5,1.814.254,3.65.45m-38.25,3.2a17.1,17.1,0,0,0,2.4,0,3.681,3.681,0,0,1,2.05.4q.757.44-.25,2.4a3.653,3.653,0,0,1-2.55,2.3,66.028,66.028,0,0,1-12.15.75q-1.714-.027-.4-1.25,2.3-1.729,2.95-2.3.815-.717,2.1-1.75a3.811,3.811,0,0,1,2.1-1,10.386,10.386,0,0,1,1.7.2q1,.172,2.05.25m-17.8-11.95q1.428-.06,1.55.6a9.807,9.807,0,0,0,.55,2.05q.426.85-1.1,1.15a1.037,1.037,0,0,1-.2.05q-12.046,2.4-14.25,2.8a3.869,3.869,0,0,1-4.7-2.4q-.9-2-.6-2.5t2.5-.7l5.9-.4q6.791-.276,10.35-.65m6.45,7.45q1.35.829,3.4,1.95,1.048.663,0,1.3-3.8,3.021-4.65,3.6-.513.419-1.55,1.3-2.113,1.728-3.75,1.4a32.955,32.955,0,0,1-4.45-1.15,21.164,21.164,0,0,1-3.5-1.6,2.781,2.781,0,0,1-1.2-2.8,3.3,3.3,0,0,1,2.2-2.5l.9-.3q5.663-1.265,8.8-2.05a6.133,6.133,0,0,1,3.8.85M51.214.623a7.559,7.559,0,0,0-6.25.1,6.7,6.7,0,0,0-3.5,3.45,8.5,8.5,0,0,0-.55,3.4,5.319,5.319,0,0,0,1,2.55,6.069,6.069,0,0,0,2.25,1.75q1.437.693,2.9,1.55a2.059,2.059,0,0,1,1.2,1.8,11.906,11.906,0,0,1-.5,2.3q-1.712-1.026-3.7-2.5-.988-.675-2.8-1.75-1.8-1.032-3.35-2-1.5-.906-3.35-1.8-1.842-.845-2.4.5-.549,1.39,2,2.55t3.5,1.6a19.173,19.173,0,0,1,2.6,1.6q1.642,1.108,4.2,3.05,2.6,1.952,2.8,2.95a8.2,8.2,0,0,1-.8,3.2,3.346,3.346,0,0,1-1.9,2.1,6.939,6.939,0,0,1-2.9-.3q-8.3-2.2-10.5-4.7-2.154-2.465-3.85-1.55-1.119.614,1.05,2.6a25.733,25.733,0,0,0,5.4,3.75q1.5.8,7.3,3.1a16.12,16.12,0,0,1-5.15,1.95q-6.863,1.146-8.65.35-2.469-1.1-2.55.3a2.053,2.053,0,0,0,.9,2.05,4.262,4.262,0,0,0,2.75.4q1.8-.153,7.2-.35a25.353,25.353,0,0,0,8-1.8,21.712,21.712,0,0,0,4.4-2.55,6.075,6.075,0,0,0,1.95-2.35,6.846,6.846,0,0,0,.55-2q.114-.81.3-2.05.183-1.181,5.65-3.85,5.462-2.623,7-4.2t.85-2.5q-.7-.9-3.95,1.1a47.346,47.346,0,0,0-4.2,2.75,13.322,13.322,0,0,1-2.95,1.85q-2.019,1.084-2.25,1.2a8.948,8.948,0,0,1,.4-3.2,12.512,12.512,0,0,1,1.25-3.2,13.691,13.691,0,0,0,1.15-1,7.971,7.971,0,0,0,1.7-3.05,9.43,9.43,0,0,0,.8-3.6,7.365,7.365,0,0,0-.8-2.75q-.681-1.461-4.2-2.8"/></svg>