<svg overflow="visible" width="100%" height="100%" viewBox="0 0 114.15 92.417" xmlns="http://www.w3.org/2000/svg"><path d="M.193,17.5q.4.9,2.05.7,1.65-.251,5.45-.8,3.75-.6,17.2-2.15t10.65-.1q-2.85,1.4-8,4.55a50.459,50.459,0,0,0-19.35,22q-1.249,2.7-.6,3.55a1.445,1.445,0,0,0,1.85.3,18.988,18.988,0,0,0,1.8-1.1q23.5-15,31.2-19.8,1.85-1.1.95.95a9.058,9.058,0,0,1-.65,1.25q-7.9,13.3-10.4,18.3a85.313,85.313,0,0,0-7.5,19.6q-.9,3.4-3,10a62.265,62.265,0,0,0-2.2,10.1,4.265,4.265,0,0,0,2,4.6,21.243,21.243,0,0,0,9.3,2.9,11.552,11.552,0,0,0,5.55-.65,16.079,16.079,0,0,0,4.5-3.1q2.3-2.151,2.85-9.55.5-7.4.9-13.7a106.888,106.888,0,0,1,2.7-18.5q2-9.4,3-14a8.423,8.423,0,0,1,1.1-3.2q.6-.6,3.5-1.2a3.775,3.775,0,0,0,1.8-.7q2.7-2,6.9.2a90.116,90.116,0,0,1,23.2,17.7q2.2,2.4,2.85,2.95a8.791,8.791,0,0,0,1.7,1.15,1.422,1.422,0,0,0,1.85-.15q.75-.7.3-2.95l-1.4-6.8a61.226,61.226,0,0,0-2-6.9,24.222,24.222,0,0,0-8.1-12.1q-2.951-2.151-11.3-5.75-2.55-1-.25-.8,22.751,1.65,31.7,7,9.3,5.55,10.65,5.2a1.442,1.442,0,0,0,1.2-1.65q-.1-1.251-2.5-3.8a68.8,68.8,0,0,0-5.45-5.25,16.79,16.79,0,0,0-7.05-3.65q-4-1.05-1.75-1.45a26.24,26.24,0,0,1,4.7-.4,33.825,33.825,0,0,0,3.85-.25,1.992,1.992,0,0,0,2-1.3,2.162,2.162,0,0,0-.4-2.3,5.563,5.563,0,0,0-2.3-1.8,47.087,47.087,0,0,0-23.1-4.6q-16.5.6-26.1,5.1a8.61,8.61,0,0,1-3.4.9l-14.3-1.1q-13.1-1.2-22.85,2.45-9.8,3.6-12.2,5.45a12.622,12.622,0,0,0-2.95,2.8,1.781,1.781,0,0,0-.15,1.85m7.8-2.4q-3.8.7-1.8-.75,4.451-3.15,13.65-5a84.815,84.815,0,0,1,21.15-1.4q2.351,0,1,1.75a4.036,4.036,0,0,1-2.05,1.65,65.622,65.622,0,0,1-7.85.7q-6.35.35-24.1,3.05m25.55,4.15q.6-.351.85-.5,6.1-4.35,8.45-1.4,1.9,2.4-.45,3.9-14.9,9.249-29.55,19.1-2.3,1.749-2.1.6a6.839,6.839,0,0,1,1.85-3.15q1.65-1.9,7.55-8.25a49.961,49.961,0,0,1,13.4-10.3m12.25-8.8q2.1-1.3,4.25.85,2.149,2.1.25,4.6-1.849,2.5-4.2.75-2.35-1.8-2.35-3.35-.05-1.551,2.05-2.85m22.75-2.7a21.322,21.322,0,0,1-6.9,0q-4-.551,0-1.7a76.175,76.175,0,0,1,20.6-3.2,49.507,49.507,0,0,1,17.2,3.2q4.35,1.55,1.25,1.4-3.1-.2-4.85-.3-1.8-.15-9.25-.3a97.993,97.993,0,0,0-10.55.1q-3.049.249-7.5.8M56.693,16.2a3.937,3.937,0,0,1-1.75-2.35,3.649,3.649,0,0,1,1.1-2.6,3.946,3.946,0,0,1,3.15-1.4,5.118,5.118,0,0,1,3.15.9,1.972,1.972,0,0,1,1,1.95,9.034,9.034,0,0,1-1.35,2.85q-1.2,1.8-2.5,1.8a5.19,5.19,0,0,1-2.8-1.15m-4,4.25a4.835,4.835,0,0,1,3.7-.4q2.25.5,1.6,3.25-.7,2.7-2.55,2.95a4.369,4.369,0,0,1-2.75-.45,3.748,3.748,0,0,1-1.2-2.55,2.479,2.479,0,0,1,1.2-2.8m37.2-6.1q-5.05-1.2-16.7-1.9-3.4-.1-3.35-1.1.5-1.6,7.85-1.1a90.321,90.321,0,0,1,14,1.65,78.733,78.733,0,0,1,9.45,3.15q2.25.75,7.25,5.45,4.95,4.7-3.95-.05-8.9-4.8-14.55-6.1m-27.45,5.4q5.3-3.3,12.2-.1a21.709,21.709,0,0,1,11.1,10.1q2.2,4.2,4.5,14.8.55,2.349-2.95-2a50.677,50.677,0,0,0-8.45-8.2q-2.7-2-9.2-6.4a35.916,35.916,0,0,0-3.7-1.9q-2.8-1.3-3.8-1.9a3.078,3.078,0,0,1-1.1-1,1.484,1.484,0,0,1-.4-1.1,3.435,3.435,0,0,1,1.8-2.3m-20.4,13.8a87.8,87.8,0,0,1,4.6-8.6q.45-.951,2.65.35,1.2.7.05,3.45-1.85,5-2.5,7.1-.6,2.2-3.8.9-2.3-1.1-1-3.2m-1.15,5a48.152,48.152,0,0,0,4.95,2.1l-1.7,9.2a2.857,2.857,0,0,1-2.8,2.3q-5.3.3-8.4-2.6l5.1-9q1.45-2.751,2.85-2m1.35,17.7a2.935,2.935,0,0,1,.4,1.9q-.1.8-.3,2.4-.3,4.8-6.7,4.5-5.5-.1-6.3-1.2t.8-6.2q1-4.3,2.4-4.35a8.157,8.157,0,0,1,3.5.75,29.751,29.751,0,0,0,3.9,1.3,5.138,5.138,0,0,1,2.3.9m-14.5,11.3a5.789,5.789,0,0,1,2.8-.2q1.5.1,11.2.6l-.3,3.6q-.3,4.1-1,5-.6.8-4.5,1.9-4.4,1.2-11.9-.8,2.1-6.7,2.2-7.6a3.1,3.1,0,0,1,1.5-2.5m-4.1,13.75q.7-.7,3.6-.1a29.005,29.005,0,0,0,6.3.55,13.579,13.579,0,0,0,6.5-1.9q.4,2.9.4,3.5a3.822,3.822,0,0,1-1,2.75,17.575,17.575,0,0,1-3.35,2.5,8.419,8.419,0,0,1-5.95.85,22.362,22.362,0,0,1-5.9-1.7q-2.351-1.2-1.85-3.45a6.066,6.066,0,0,1,1.25-3"/></svg>