<svg overflow="visible" width="100%" height="100%" viewBox="0 0 71.565 115.889" xmlns="http://www.w3.org/2000/svg"><path d="M33.352,0Q29.7-.046,28.5.653a4.731,4.731,0,0,0-1.75,1.5,12.745,12.745,0,0,0-1.3,5.1q-.2,23.2-1.6,34.7a8.9,8.9,0,0,1-4,6.4q-1.5,1-2.3.7-.9-.3-2.35-4.2a27.131,27.131,0,0,1-1.25-10.1v-4.3l-.1-1q-.5-4.1-5-4.3-5.3-.3-6,3.7-1.7,7.5-2.1,10.35-.45,2.85-.7,14.4t.7,12.95q.9,1.4,4.5,3.1a19.43,19.43,0,0,0,6.3,1.5q.9.1,6.3.2,5.1.2,5.9,1.1.8.8.9,5.7l.8,31.2q.2,3.3,1.6,4.4a9.447,9.447,0,0,0,8.9,1.7,3.89,3.89,0,0,0,2.7-2.4,26.365,26.365,0,0,0,.8-3.6l5-37.8a2.778,2.778,0,0,1,2.9-2.6l15.3-.9q6.5-.4,6.9-6.9l.6-6.4q1.2-15.8,1.4-19.3.3-7.1-6.6-9.3-3.6-1.3-5.5.1-1.8,1.3-2.2,5.2a58.292,58.292,0,0,1-2,12.7q-.9,3.1-2.3,3.5-1.2.5-4.35-.7t-2.95-4.1l2.5-34.1a6.179,6.179,0,0,0-3.6-6.4,19.821,19.821,0,0,0-5.3-2,38.151,38.151,0,0,0-5.9-.45m-30.4,60.65v-7.4a109.464,109.464,0,0,1,2.3-23.2q.6-2.1,3.5-2.1,2.1,0,2.25,3.35.1,3.3.05,6.7t2.2,9.5q2.2,6.051,6.2,4.15,6.4-3,7.4-9.1a114.867,114.867,0,0,0,1-15.3q0-13.1.1-15.3,0-4.6.1-5.5.3-3.9,3.6-3.6a62.7,62.7,0,0,1,10.3,1.7,4.451,4.451,0,0,1,2.9,1.6,6.761,6.761,0,0,1,.5,3.5l-2.2,33.1a7.629,7.629,0,0,0,.7,4.4,7,7,0,0,0,3.5,2.4,25.85,25.85,0,0,0,3.8,1.1q3.5.8,5-2.1A27.738,27.738,0,0,0,58.6,42.9a27.33,27.33,0,0,0,.85-4.1q.2-1.749.5-6.15t3.2-3.9a7.117,7.117,0,0,1,4.3,2.4,5.815,5.815,0,0,1,1.6,4.5q-1,13.2-2.2,24.2-.4,3.6-1.2,4.4-.8.7-4.7.9l-12.4.8q-4.2.3-5.4,1.4-1.2,1.2-1.7,5.3-1.6,12.3-4.8,36.8a6.393,6.393,0,0,1-.8,2.5,2.288,2.288,0,0,1-2.3.9q-5.2-.1-5.5-3.6-.1-5.6-.2-8.4-.4-18.2-.8-27.3-.1-3.1-.8-3.8t-3.9-.9q-7.5-.4-10.9-.7a20.958,20.958,0,0,1-3.4-.5q-3.7-1.2-4.4-2.2t-.7-4.8"/></svg>