<svg overflow="visible" width="100%" height="100%" viewBox="0 0 116.199 74.38" xmlns="http://www.w3.org/2000/svg"><path d="M112.269,57.78a54.5,54.5,0,0,0,3.3-8.6,10.682,10.682,0,0,0-2.8-11.5q-4.3-4.6-6.6-6.7a16.366,16.366,0,0,0-5-2.9q-8-2.7-14.2-4.4a3.974,3.974,0,0,1-3.1-3.3q-.7-4.2-2.7-12.6-1.3-5-5.1-6.9-3.9-1.9-8.7.3-8,3.7-10.2,4.9-4.3,2.3-7.6,1.1-4-1.4-6.8,2.6l-4.6,6.4q-1.1,1.3-1.7,1.4l-17.7,4.3a31.338,31.338,0,0,0-8.7,3.65,55.947,55.947,0,0,0-6.3,3.95,7.892,7.892,0,0,0-1.9,2.2q-2.7,4.3-1.5,10.8,1.3,6.6,5.4,9.3,9.5,6.4,16.1,8.7,17.9,6.3,36.5,11.1a88.424,88.424,0,0,0,10.6,1.7q3.4.4,9.7,1.1,4.6-.5,11.2-1.2,8.7-1.2,16.6-8a23.091,23.091,0,0,0,5.8-7.4m-.7-17.2a6.7,6.7,0,0,1,1.75,3.4,10.689,10.689,0,0,1-.05,3.2q-2.5,9.7-7.7,15.2-5.8,6.2-15.5,8-14.9,2.6-31.9-1.8-18-4.7-33.2-10.1a63.844,63.844,0,0,1-8.7-4q-2.2-1.2-8.4-4.9-2.7-1.5-4.2-6.1a13.936,13.936,0,0,1-.6-7.6,7.7,7.7,0,0,1,3.4-4.6,53.291,53.291,0,0,1,13.2-6.7,122.966,122.966,0,0,1,14.3-4q1.851-.4,1.5.4-.2.4-3.3,6.5a19.364,19.364,0,0,1-4.1,5.9q-3.3,3-.3,7.2a15.945,15.945,0,0,0,4.5,4.5,46.993,46.993,0,0,0,21.5,6.9q8.3.6,12,.5a38.36,38.36,0,0,0,12-1.9q6.012-2,7.25-6.6a36.446,36.446,0,0,0,1.3-5.55q.073-.969-.15-4.8a21.664,21.664,0,0,0-.6-5.1q-.4-1.254.2-1.75.5-.5,1.6-.1,2.3.7,7,1.9a41.1,41.1,0,0,1,6.7,2.5,14.394,14.394,0,0,1,3.9,2.8q1.2,1.2,3.5,3.6,2.8,2.7,3.1,3.1m-43.2-36.7q7.7-3.6,9.9,4.2,1.1,4.2,2.8,12.6.2,1,.7,2.9.4,1.6.8,3.8a24.582,24.582,0,0,1-.1,6.7,7.955,7.955,0,0,1-3.85,6.4q-3.345,2-12.95,3.5-7.276.557-19.1-1.9a28.237,28.237,0,0,1-10.7-5.1q-3.8-2.6-2.1-6.3,3.6-7.4,5.1-10.1a58.79,58.79,0,0,1,6.4-9.5,3.134,3.134,0,0,1,3.9-1.2q4,1.7,9.4-1.2,4.5-2.4,9.8-4.8m-33.4,35.9a28.856,28.856,0,0,0,8.8,4.45,74.194,74.194,0,0,0,10.85,2.1,59.257,59.257,0,0,0,11.45.5,37.78,37.78,0,0,0,9.6-1.95,23.473,23.473,0,0,0,7.3-3.8q-1.5,5.4-6.2,6.9a33.883,33.883,0,0,1-9.5,1.8,82.361,82.361,0,0,1-9.6-.2,55.811,55.811,0,0,1-24-6.9,7.589,7.589,0,0,1-3.2-2.8,6.472,6.472,0,0,1-.4-4.1l4.9,4"/></svg>