<svg overflow="visible" width="100%" height="100%" viewBox="0 0 116.508 95.217" xmlns="http://www.w3.org/2000/svg"><path d="M63.877,13.973q.349-.4,1.4-1.7,1-1.251.35-4.85a8.46,8.46,0,0,0-3.45-5.65q-3.8-1.9-5.5,3.5-1.6,5.2.4,8a4.457,4.457,0,0,0,1.8,1.2,6.441,6.441,0,0,0,3,.5,3.385,3.385,0,0,0,2-1m-.65-3.75q-1.1,2.649-1.65,2.7a2.955,2.955,0,0,1-1.75-.9,3.467,3.467,0,0,1-1-3.1,7.608,7.608,0,0,1,1.85-4.25q3.6,2.949,2.55,5.55m-33.55,15.85q-.4.1-5.4-.1-8.5-.3-10.6,7-1.1,3.5.5,8.9,2,6.2,1.7,8.8l.1,8.9a35.017,35.017,0,0,0,.8,4.8,34.968,34.968,0,0,1,.8,4.8q.1,3.1-.5,3.6-.5.6-3.5.6-4.8-.1-10,3.6-8.5,7.5,3.2,13.6,10,5.1,19.2,4.6,26.7-.9,80.4-1.6l3.4-.1a7.745,7.745,0,0,0,6.4-5.7q1.5-4.9-3.8-7a29.6,29.6,0,0,0-8.1-2.1,43.289,43.289,0,0,0-5.45-.45h-.25q.049-.3.1-.65a35.951,35.951,0,0,0,.6-6.4,50.2,50.2,0,0,1,.4-6.4q1.1-4.6,4-15.3a5.391,5.391,0,0,1,1.6-2.9,9.512,9.512,0,0,0,4.2-4.5,34.723,34.723,0,0,0,1.7-5.8q.8-4-1.1-6.4t-6-2.6h-7.4q-2.8-.1-3.3-.6-.6-.5-.8-3.4a23.529,23.529,0,0,0,0-3.1,4.909,4.909,0,0,0-.6-2.7,3.623,3.623,0,0,1-.9-2.5,6.052,6.052,0,0,1,.7-2.3q2.5-3.4,0-9.4t-6.3-1q-3.5,5.3-1.4,9.35,2.05,4,1.8,5.8t-.7,7.05q0,2.9-3,2.9-6.2,0-12.4.3a2.782,2.782,0,0,1-2.5-.6,3.5,3.5,0,0,1-.7-2.5,33.2,33.2,0,0,0-.9-5.3,4.261,4.261,0,0,0-1.4-2.8,5.417,5.417,0,0,0-3.1-.5,3.627,3.627,0,0,0-2.6.9,4.894,4.894,0,0,0-.9,2.9,18.273,18.273,0,0,0,0,4.8,2.393,2.393,0,0,1-2.9,2.5l-13.25-.3q-.2-1.35-1.45-5.85-1.251-4.551-1.45-5.55t1.05-4a11.305,11.305,0,0,0,1.1-4.3q-.1-5.6-3.8-4.8-3.7.9-4.2,5.2a20.683,20.683,0,0,0,1.35,4.1,6.077,6.077,0,0,1,.35,4.7,42.128,42.128,0,0,0-1.7,8.1q-.7,1.4-3.1,1.7m5.65-18.15a3.258,3.258,0,0,1,2.45-3.15,7.106,7.106,0,0,1,0,7.1q-.7.95-1.8,0a8.414,8.414,0,0,1-.65-3.95m3.1,15.9q0,1.8-.05,2.85-2.4-.1-2.9-.7-.4-.4-.5-2.8,0-5.6,1.6-5.2,1.9-.1,1.85,5.85m22.55,2.55a31.624,31.624,0,0,1-.4-4.1q.1-3.5,1.2-3.3a1.92,1.92,0,0,1,1.5,1.5,9.894,9.894,0,0,1,.2,2.4,21.328,21.328,0,0,1,.1,3.4,1.1,1.1,0,0,1-.4.7,1.471,1.471,0,0,1-.8.4,1.33,1.33,0,0,1-.8-.3,1.189,1.189,0,0,1-.6-.7m25.35-17.55a9.1,9.1,0,0,1,1.85-5.45,8.03,8.03,0,0,1,1.95,6.75q-.45,4.249-1.85,4.65a11.776,11.776,0,0,1-1.95-5.95m4.05,17.35a1.172,1.172,0,0,1-1.4,1.1q-1.3,0-1.45-2.1a37.734,37.734,0,0,1,.25-6.6q1.05-1.7,2.1,0a45.518,45.518,0,0,1,.5,7.6m17.1,5.3q1.5,1.8.2,7.3-.9,3.8-3.1,4.8-1.7.8-5.5,0-2.4-.5-10.5,1.3-6.3,1.4-10.1-2-2.6-2.3-5.9-.3-7.6,4.4-14.4-.8-2.3-1.8-5.4.2-3.9,2.6-6.9,2.2-3.1-.4-6.4-3.9a3.71,3.71,0,0,0-4.4-1q-6,3.1-15.3,3.3a3.386,3.386,0,0,1-1.6-.5,2.794,2.794,0,0,1-1.2-1.1,10.237,10.237,0,0,1-.2-8.6q1.5-3.4,6.1-3.5,2.6-.1,10.1.1,21.2.9,68.2,1,5,0,6.3,1.5m-35.1,14.4a5.506,5.506,0,0,1,5.9.4q5.5,3.8,13.3.8a12.532,12.532,0,0,1,9.4.5q-1.2,6.7-2.5,7.8-1.2,1.1-7.6,1.1h-68q-2.8-.1-3.3-.6-.5-.6-.7-3.4-.4-5,.4-5.9.8-.8,6-1.5a57.712,57.712,0,0,0,9-2.5,3.64,3.64,0,0,1,2-.2,3.77,3.77,0,0,1,1.8,1.1q7.3,6.9,15.8,1.3a3.3,3.3,0,0,1,4,.1q6.1,4.4,14.5,1m23.5,19.8q.5.5.5,3.5-.1,2.3-.2,8.1-.8,4.6-5.3,4.2-9.6-.1-28.8-.7l-36.6-1.3q-3.2-.1-3.8-.6t-1-3.7q-1.1-7.6,0-8.8,1.1-1.3,8.7-1.3h62.9q3.1,0,3.6.6m2.1-5.3a1.646,1.646,0,0,1-1.2,1.9,9.76,9.76,0,0,1-2.5.2h-73.3q-2.1-.1-2.3-1.8t2.5-1.7h73.3a18.68,18.68,0,0,0,2.2-.2,1.423,1.423,0,0,1,1.3,1.6m-.2,21.5a2.07,2.07,0,0,1,1.95-.5q4.7.75,10.35,1.4,3.6,1.1,3.2,4.1a3.71,3.71,0,0,1-2.2,3,9.378,9.378,0,0,1-4.4.95l-62.2,1.05q-12.4.3-19.4.7-7,.5-16-3.8-9.8-4.8-3.7-9.8a13.26,13.26,0,0,1,6.6-2.7q4.4-.7,6.2,2a4.9,4.9,0,0,0,2.4,3.6,10.065,10.065,0,0,0,4.3.7q21.8.4,65.5,2,4.1.1,5.8-1.4.949-.8,1.6-1.3"/></svg>