<svg overflow="visible" width="100%" height="100%" viewBox="0 0 106.438 116.66" xmlns="http://www.w3.org/2000/svg"><path d="M56.6,93.76a21.311,21.311,0,0,1,2.4.2,2,2,0,0,0,1.8-1.5q.251-1.9-9.5-1.7-9.8.2-35.6-5.1-7-.9-7.3-.9a17.679,17.679,0,0,0-7.3.8A7.882,7.882,0,0,0,0,87.36a16.644,16.644,0,0,0,1.6.6,28.421,28.421,0,0,1,8.7-.3q.6.1,8.5,1.5,5.1.9,15.1,3.1a71.454,71.454,0,0,0,15.3,1.5h7.4M43.7,20.51q.3-1.35-1.3-1.8a7.658,7.658,0,0,0-3.6-.05,3.543,3.543,0,0,0-3.1,2.9q-.05.9,2,.35a6.219,6.219,0,0,1,3.1-.25,13.76,13.76,0,0,0,2.05.35q.75.049.85-1.5M3.4,47.86q-1.451-.2-1.7.6a1.739,1.739,0,0,0-.05,1.35q.2.55,1.15.65l6.7,1.4q2,.4,1.8-1.4-.2-1.5-3.5-2-3-.4-4.4-.6m3.2-22.2q-3.3-.3-4.65,2.05-1.4,2.351-.7,2.75a2.346,2.346,0,0,0,1.35.35c.4-.033.633-.117.7-.25A5.173,5.173,0,0,1,7,28.66a30.894,30.894,0,0,1,4.1.1l6.9.2q.1,0,5.2.4,3.1.2,4.75.3a4.408,4.408,0,0,0,2.25-.25,1.063,1.063,0,0,0,.6-.95q-.05-1.5-2-1.6L6.6,25.66M43.9,8.36a4.766,4.766,0,0,0-2.5-.2q-1.1.2-.8,1.15a2.3,2.3,0,0,0,.8,1.3,35.16,35.16,0,0,0,4.65,1.95q4.05,1.5,4.95.8a1.067,1.067,0,0,0,.25-.65,2.336,2.336,0,0,0-.65-1.25,7.6,7.6,0,0,0-2.95-1.7q-2.3-.949-3.75-1.4m11.4-8q-1.1-.6-1.7-.2a1.1,1.1,0,0,0-.6,1,7.85,7.85,0,0,0,.35,2.2,9.548,9.548,0,0,1,.25,3.25,3.336,3.336,0,0,0,.1,2.15q.3.4,2.6.3,1.1-.6.6-4.35T55.3.36m43.4,106.9a21.636,21.636,0,0,1-2.9,1.1l-5.4,2a32.551,32.551,0,0,1-5.4,1.6,118.316,118.316,0,0,1-20,1.3,64.856,64.856,0,0,1-19.8-3.5,116.363,116.363,0,0,0-13-3.8,44.333,44.333,0,0,0-13.7-.8l-9.7,1.5a1.187,1.187,0,0,0-.7.7q1.2,2.3,2.5,1.7,13-3.2,28.8,2,9.2,3,11.6,3.7a49.768,49.768,0,0,0,12.1,1.9q3.6-.3,10.6-.8a99.869,99.869,0,0,0,10.6-1.3,60.1,60.1,0,0,0,8-2.1q2.7-.9,8-2.8.6-.2.9-1.4a2.462,2.462,0,0,0-2.5-1M74.8,67.71a1.278,1.278,0,0,0,.05-1.35,2.447,2.447,0,0,0-1.05-1.3,54.535,54.535,0,0,0-12.5-1.3q-4.3-.1-12.7.4a155.216,155.216,0,0,1-37.9-1.9,9.689,9.689,0,0,0-2.4-.2,1.608,1.608,0,0,0-1.8,1.2q.1,1.8,2.9,1.8,12.4,1.9,18.6,2.4a99.2,99.2,0,0,0,18.9,0q3.3-.4,9.9-.8a109.4,109.4,0,0,1,11.6.85q6,.7,6.4.2m9.5-1.35q1.1-.2,1.1-1.1a9.946,9.946,0,0,0-.3-1.7q-2.3-7.9-6.6-12Q66,39.661,55.6,37.66q-2.6-.3-2.2-2.5,1.3-4.5,1.8-6.8.9-3.5,1.35-4.85a22.577,22.577,0,0,0,1.05-4.9q.251-2.55-1.9-2.35A9.272,9.272,0,0,0,53,17.31a4.744,4.744,0,0,0-1.35,1A4.986,4.986,0,0,0,51,19.56q-2.3,10.1-2.7,13.1a3.95,3.95,0,0,1-1.1,2.6,4.613,4.613,0,0,1-2.7.6q-8.6,0-14,2.8-5.7,2.9-10.1,9.9a18.742,18.742,0,0,0-1.9,4q-.4,1.4-.9,3.25-.55,1.849-.25,2.2a2.726,2.726,0,0,0,1,.65q.6.251,1.65-2.2a12.2,12.2,0,0,1,.9-2.7A24.781,24.781,0,0,1,30,42.36a21.126,21.126,0,0,1,14.2-3.6q13.7,1.2,23.3,7.1a33.185,33.185,0,0,1,15.1,18.7,3.746,3.746,0,0,0,.7,1.2q.6.7,1,.6m17.1,15.1a3.217,3.217,0,0,0,1.4-.4q.8-.4.8-.8.2-1.1-.6-1.4a5.113,5.113,0,0,0-1.8-.3,46.434,46.434,0,0,1-13-1q-8.5-2.1-12.9-2.8l-42-3.1q-6.7-.1-9.4,0a45.7,45.7,0,0,0-9.3,1.2,2.433,2.433,0,0,0-.8.6q-.8.8.3,1.6a1.483,1.483,0,0,0,1.1.4q1-.1,3.9-.5a24.749,24.749,0,0,1,3.9-.4q41.1.2,68.5,6.5,2.5.6,9.9.4M81.05,43.31q.8.05,3.45.15l20.7,1.6q1.65.2,1.1-1.15-.6-1.35-1-1.35-15.9-1.8-23.7-1.9-1.65.2-1.5,1.4t.95,1.25M89.7,57.76q5.3,1,8.5,1.65t3.5.1a2.789,2.789,0,0,0,.3-1.35q0-.8-.95-1.05T93.6,55.36q-3.3-.9-3.75-.15a5.481,5.481,0,0,0-.65,1.85q0,.7.5.7M60,23.01q.251.649,2.3,1.65a5.936,5.936,0,0,0,3.75.6q1.7-.4-.8-2.7a16.807,16.807,0,0,0-3.15-2.6,1.95,1.95,0,0,0-1.3-.05q-1.849.9-.8,3.1m7.7-12.25q-2.7.2-5.35.2-2.7-.05-1.35,3,.55.649,4.5.05a28.147,28.147,0,0,0,4.25-.85.8.8,0,0,0,.35-.6q.251-2.051-2.4-1.8"/></svg>