<svg overflow="visible" width="100%" height="100%" viewBox="0 0 54.709 116.675" xmlns="http://www.w3.org/2000/svg"><path d="M23.732,8.3a13.859,13.859,0,0,0,.7-5.8q-.2-3.2-3.4-2.3a8.048,8.048,0,0,0-5.7,5q-2.8,6.393-3.75,8.75-.951,2.418-2.3,2.3a3.957,3.957,0,0,0-2,.2q-.651.355-.65.65a2.315,2.315,0,0,0,.8,2.1,14.306,14.306,0,0,1,2.3,4.05q1.5,3.35,2.75,3.7t1.75,2.55l2.6,11.1a155.28,155.28,0,0,1,3.5,27.5q.2,3.5-1.9,4.1-2.6.8-4.7-1.9l-5.7-10.4q-1.6-2.7-3.5-2.8-2,0-3.5,2.7a7.206,7.206,0,0,0-.9,5.1q1,8,5.6,12.4,1.7,1.6,4.7,5.1a6.126,6.126,0,0,1,1.9,5.8q-.8,5.6-1.1,9.8a15.179,15.179,0,0,0,1.4,7.7q1.74,3.6,8.1,7.45,6.411,3.842,12.1,3.5a45.513,45.513,0,0,0,8.9-1.2,39.513,39.513,0,0,0,7.9-3.35,8.815,8.815,0,0,0,4.8-6.4,9.582,9.582,0,0,0-1.6-8,64.549,64.549,0,0,0-6.7-8q-3.6-3.8-2.9-8.1a76.887,76.887,0,0,1,2.4-11,9.352,9.352,0,0,0-1.2-8q-1.4-2.2-3.1-2.1-1.6.2-2.7,2.6l-1,2.6a7.867,7.867,0,0,1-1.4,2.2,6.572,6.572,0,0,1-2.3,1.2,8.1,8.1,0,0,1-2.35.55q-.783.074-3.1-10.15-2.256-10.188-2.85-13.6-1.8-9.4-2.6-14.1a63.144,63.144,0,0,1-1-14.4q.4-6.2,1.7-9.1m-5.5-2.8a3.819,3.819,0,0,1,1.6-1.8,2.08,2.08,0,0,1,1.35-.3q.66.084.8.95a1.953,1.953,0,0,1-.15,1.45,30.8,30.8,0,0,0-2.9,14,90.491,90.491,0,0,0,1.8,14.1l5.8,31.7q.276,1.127-1.2,1.65-1.431.564-1.8-.3a12.659,12.659,0,0,1-.7-2.6,34.618,34.618,0,0,1-.4-4.35,108.3,108.3,0,0,0-2.1-16.4q-1-4.9-3.8-16.1a8.248,8.248,0,0,0-2.8-3.7q-2.4-1.9-1.4-4.2l5.9-14.1M2.732,62.7a18.535,18.535,0,0,1,1.6-2.3q.768-.755,1.7,1.5l4.4,8.3q2.823,5.592,6.2,5.55a18.726,18.726,0,0,0,4.1-.3,7.349,7.349,0,0,0,2.1-1.3,5.5,5.5,0,0,0,1.95-2.75q.561-1.647,3.55.7,3.039,2.337,5.2,1.35a11.934,11.934,0,0,0,6.8-6.95q1.042-2.853,1.75-2.2a4.105,4.105,0,0,1,1.05,2.3,10.778,10.778,0,0,1-.2,2.7,49.5,49.5,0,0,1-1.5,5.3q-3.7,10.9,3.8,18.2a33.773,33.773,0,0,1,5.1,6,7.166,7.166,0,0,1,1.4,6.2,8.083,8.083,0,0,1-4.1,5,24.054,24.054,0,0,1-17.2,3.1,27.009,27.009,0,0,1-9.6-3.2,15.17,15.17,0,0,1-6.5-8,7.376,7.376,0,0,1-.6-3.8q1-6.5,1.5-9.8a7.54,7.54,0,0,0-1.9-6.9,66.271,66.271,0,0,0-5.7-6.2,16.224,16.224,0,0,1-3.2-4.7q-.7-1.8-1.7-5.4a3.643,3.643,0,0,1,0-2.4m30.2,30.25q2.6-.15,2.8-2.15a3.363,3.363,0,0,0-1-2.4,2.872,2.872,0,0,0-2.3-1.3,55.883,55.883,0,0,0-6.2,1.05q-2.16.544-2.55,1.15a2.206,2.206,0,0,0-.25,1.55,2.492,2.492,0,0,0,.55,1.3,4.638,4.638,0,0,0,1.9.7,30.484,30.484,0,0,0,7.05.1m-9.4-15.6q-1.36.207-1.5,1.05-.4,2.4.2,3.2.6.9,3,1.1a29.112,29.112,0,0,0,6.4-.1,3.5,3.5,0,0,0,2-.9,1.919,1.919,0,0,0,.5-2.15,3.441,3.441,0,0,0-1.85-2.1q-1.378-.739-8.75-.1m13.4,23.85a4.065,4.065,0,0,0,.95-2.95,1.914,1.914,0,0,0-1.3-1.95,10.125,10.125,0,0,0-2.45-.5q-1.269-.054-2.8-.05t-3,.05a4.081,4.081,0,0,0-2.2.7,3.791,3.791,0,0,0-1,2.5,3.99,3.99,0,0,0,.7,2.9,4.618,4.618,0,0,0,3.1,1,53.417,53.417,0,0,0,5.4-.2,3.559,3.559,0,0,0,2.6-1.5"/></svg>