<svg overflow="visible" width="100%" height="100%" viewBox="0 0 72.945 119.822" xmlns="http://www.w3.org/2000/svg"><path d="M1.15,7.256Q0,7.057,0,7.906q0,2.3,3.1,5.15,1.65,1.65,10.95,11.35,6.7,7,11,11.8-.2.1-3.1,1.3-1.7.8-5.4,2.1a8.109,8.109,0,0,0-5.15,5.35q-1.45,4.05-1.6,4.7-.2.651-1.6,4.15-1.45,3.45-2.65,7.25a74.714,74.714,0,0,0-3.4,13.95q-2.9,20.5,11.1,34.9,14.7,15.2,34.6,7.1a87.052,87.052,0,0,0,16.8-11.3q7.2-6.8,5.7-23.8-3.6-27.3-5.8-38.1a8.318,8.318,0,0,0-4.8-6.1q-2.3-1-8.2-1.4,10.6-9.6,14.95-13.55a44.951,44.951,0,0,0,5.5-5.65q1.15-1.749.9-2.55a1.031,1.031,0,0,0-1.05-.85,3.588,3.588,0,0,0-1.8.6q-1,.6-4.7,3.3l-11.5,9,4.3-11.3a5.114,5.114,0,0,0,.35-1.85q-.1-.649-1.05-.9t-2.1,1.15q-6.649,7.751-9.6,11.6-3,3.851-4.35,4.55t-9.3-16.5q-7.95-17.2-8.4-12.25a27.346,27.346,0,0,0,1.95,12.95,61.073,61.073,0,0,0,5.7,10.95q3.1,4.7,2.6,5-.5.25-1.25-.3L3.55,8.406a5.648,5.648,0,0,0-2.4-1.15M28.2,35.306q-1.1-1.35-7-7.8-2.449-2.7.7-.6,2.1,1.3,4.65,3.1,2.1,1.5,3.85,2.7a11.042,11.042,0,0,0,3.35,1.55,14.8,14.8,0,0,0,3.6.3,19.289,19.289,0,0,0,4.2-.6,9.914,9.914,0,0,0,4.2-2.6,28.994,28.994,0,0,0,3.85-5.2q3.251-5.4,2.15-1.25a31.755,31.755,0,0,0-1.2,8.1q-.049,3.85-6.7,3.8-6.649-.1-10.5-.05-3.9.051-5.15-1.45m32.65,6.8a5.37,5.37,0,0,1,1.1,2.4q1.2,5.7,1.2,5.8a17.736,17.736,0,0,1,.1,6.2q-2.6-1.9-3.9-2.9a11.849,11.849,0,0,1-3-3.3,2.453,2.453,0,0,1,.5-1.8q.9-1.6,3.4-6.25a.4.4,0,0,1,.6-.15m-5-2.4a4.231,4.231,0,0,1,2.35.45q-.15,1.151-2.45,4.65l-.85,1.35q-.851,1.45-1.85,1.25-.7-.1-6.35-3.6-5.7-3.549-5.8-3.65-.1-.2,0-.3a1.562,1.562,0,0,1,.9-.15H55.85m4.3,18.1a20.4,20.4,0,0,1,3.75,3.9,8.765,8.765,0,0,1,1.2,4.1q.251,2.6-1.35,3.7-1.6,1.2-3.8-.1-1.5-.8-10.9-6.8-1.3-.7-.4-2.4,3.2-6.1,4.8-6.5,1.6-.3,6.7,4.1m-.5,14.8q1.35.75,1.1,1.4-2.2,4-7.2,11.6-1.7,2.7-4,1.2l-10.9-6.8q-2.3-1.2-1-3.2,4.8-7.5,6.15-9.55t2.25-2.25a2.142,2.142,0,0,1,1.4.05l12.2,7.55m1,7.2a58.531,58.531,0,0,1,5.2-7.5,103.925,103.925,0,0,1,1.5,19.6,21,21,0,0,1-.5,4.75q-.85-.549-2.75-1.55-5.05-2.7-7.85-4.3-2-1.2-.6-3.2.8-1.2,5-7.8m1.85,17.6a38.9,38.9,0,0,0,3.55,1.8,12.029,12.029,0,0,1-3.9,5q-6.3,4.9-8.1,6.1a44.8,44.8,0,0,1-4.85,2.9,6.781,6.781,0,0,1-2.1-1.45q-3.95-3.5-4.05-4.35,5.2-8.4,8-12.5,1.4-2.1,1.9-2.2.6-.2,2.7,1,1.3.7,6.85,3.7M39.75,42.856q.2-.15,2.1.9,1.849,1.05,5.15,2.9,3.3,1.8,3.65,3.8.3,1.95-3.7,7.25a4.667,4.667,0,0,1-1.8,1.6,2.55,2.55,0,0,1-2.2-.6q-2.4-1.8-7.4-5-2.6-1.5-.8-4.1,1.9-2.5,4-5.4a8.64,8.64,0,0,1,1-1.35m-4.7-3.35h3.2a4.274,4.274,0,0,1-1.05,1.85,54.038,54.038,0,0,0-4.35,6.05q-1.7,2.6-2.4,2.7a13.6,13.6,0,0,1-2.7-1.5l-6.3-4a7.646,7.646,0,0,1-2.65-2.5q3.5-1.149,6.3-2.35a7.594,7.594,0,0,1,4.45-.9q1.7.351,2.6.5a19.717,19.717,0,0,0,2.9.15m-3.3,15.7q1.2.8,5.3,3.1a46.1,46.1,0,0,1,5.1,3.3,1.534,1.534,0,0,1,.45,2.4q-.95,1.5-8.15,12.4-8.6-7.9-9.1-9.8-.2-1,6.4-11.4m-17.4-8.5a4.051,4.051,0,0,1,1.45-2.5,5.681,5.681,0,0,1,2.55,1.35q2.8,2.151,4.9,3.55,1.3.9,3.8,2.4,2.4,1.6,1,3.7-1.7,2.5-5.5,9-5-5.3-6.3-6.4a35.5,35.5,0,0,1-4.75-4.15,1.614,1.614,0,0,1,.25-.65,35,35,0,0,0,2.6-6.3m-4.3,10.1a4.575,4.575,0,0,1,1.55,1q5,4.451,7.5,6.75,2.45,2.25.75,4.85-3.1,5.4-4.9,9.2a10.058,10.058,0,0,1-1.8,2.7q-1.3,1-4.45-1.3-3.2-2.349-3.45-3.1a7.633,7.633,0,0,1,.05-2.9,85.62,85.62,0,0,1,2.4-9.75q1.3-4.6,2.35-7.45m5.6,29.3q-.4-2.1,3.1-8.6l4.5-8.4q6.8,6.8,8.5,8.7a2.4,2.4,0,0,1,.6,1.5,2.489,2.489,0,0,1-.1,1.6q-2.4,4.8-7.8,14.6l-3-2.4q-5.5-5-5.8-7m-10.8-5.65a23.677,23.677,0,0,0,3.8,2.95,3.863,3.863,0,0,1,2,2.2q.2.9-1.3,3.65a14.412,14.412,0,0,1-3.3,4.2A26.587,26.587,0,0,1,4.5,81.606q.15-1.35.35-1.15m43.2,8.65q2.4,1.4,1,3.6l-8.3,12.9a2.406,2.406,0,0,1-1.1.7q-.9.3-1.2.1-5.9-4.1-10.7-7.8a1.949,1.949,0,0,1-.4-1.4,3.216,3.216,0,0,1,.2-1.7q1.2-2.4,7.7-14.1l12.8,7.7m-12.2,19.1a3.614,3.614,0,0,1,1.7,1.6q.5,1-1.75,5.7a14.279,14.279,0,0,1-1,1.7,23.329,23.329,0,0,1-15.95-5.85,4.021,4.021,0,0,1,.9-2.55q4.1-6.3,5.1-7.9,7.4,5.1,11,7.3m-24.9-15.8q1.35-2.15,1.5-2.35l8.2,6.05q2.8,2,.8,5a78.255,78.255,0,0,0-4.15,6.8,2.047,2.047,0,0,1-1.25,1.05q-.5-.45-1.4-1.45a40.416,40.416,0,0,1-7.05-10.2q2-2.8,3.35-4.9m34.1,22.6a28.317,28.317,0,0,1-6.8,1.85q-.4-.3,1.15-3.3,1.5-3.05,4.2-1.3,2.65,1.7,2.75,2.25a13.864,13.864,0,0,1-1.3.5m-30-17.5a2.4,2.4,0,0,0-.9.65,1.685,1.685,0,0,0-.45.75,1.143,1.143,0,0,0,.35.8,1.052,1.052,0,0,0,.9.4,2.706,2.706,0,0,0,.95-.15,2.471,2.471,0,0,0,.65-.55q.25-.35-.4-1.2-.649-.9-1.1-.7m15,13.7q.6-.4-.15-1.3t-1.25-.6a3.251,3.251,0,0,0-.85.6.542.542,0,0,0-.15.7q.2.351.35.6a.81.81,0,0,0,.4.35,1.768,1.768,0,0,0,.65.1,2.5,2.5,0,0,0,1-.45m7.65-15.85q-1.2-.15-.85.9a10.724,10.724,0,0,0,.65,1.7,1.616,1.616,0,0,0,1.25.8q.85.15.65-.8a14.268,14.268,0,0,1-.35-1.7q-.15-.75-1.35-.9m-11.75-12.5q.949-.349.75-1.75a6.429,6.429,0,0,0-.9-2.4q-.649-1.05-1.2-.45a2.512,2.512,0,0,0-.5,1.85,5.246,5.246,0,0,0,.5,2.15.992.992,0,0,0,1.35.6M12.2,72.306q-.15.951,1.3.65a3.232,3.232,0,0,0,1.75-.7q.3-.45-.5-1.9-.851-1.449-1.65-.25a4.977,4.977,0,0,0-.9,2.2m6.35-18.3a1.187,1.187,0,0,0,.7.7,1.389,1.389,0,0,0,.9.15,1.405,1.405,0,0,0,.8-.7,2.1,2.1,0,0,0-.05-1.35q-.3-.949-1.1-.7a2.026,2.026,0,0,0-1.15.65,1.318,1.318,0,0,0-.1,1.25m16.8,11.75q-1.65.051-1.8,2-.15,1.9.85,1.6a4.5,4.5,0,0,0,1.55-.85,3.06,3.06,0,0,0,.8-1.65q.251-1.2-1.4-1.1m-5.4-21q.251-.549-.35-1.35-.649-.849-1.1-.75a.9.9,0,0,0-.65.6,2.377,2.377,0,0,0-.2.85,1.464,1.464,0,0,0,.4.8,2.107,2.107,0,0,0,.55.55.863.863,0,0,0,.75-.05,1.288,1.288,0,0,0,.6-.65m13.5,8.55q.2-1.6-.65-1.75a1.655,1.655,0,0,0-1.65.75q-.8.951.65,1.8,1.451.8,1.65-.8m10.1,49.1a1.929,1.929,0,0,0,.85.05.915.915,0,0,0,.85-.75,1.1,1.1,0,0,0-.35-1.2,1.507,1.507,0,0,0-.9-.55,1.123,1.123,0,0,0-.75.4,1.047,1.047,0,0,0-.45.85,1.339,1.339,0,0,0,.25.8.959.959,0,0,0,.5.4m10.7-15.65a1.094,1.094,0,0,0-.1-1.25q-.5-.7-1-.6a1.106,1.106,0,0,0-.55.5,1.511,1.511,0,0,0-.15,1.05,4.665,4.665,0,0,0,.2.9.77.77,0,0,0,.3.45c.167.1.367.034.6-.2q.3-.349.7-.85m-17.8-13.3q-1.8-.05-1.55.95a4.674,4.674,0,0,0,1.55,2.1q1.249,1.1,1.5-.95t-1.5-2.1m11.4-12.7a7.483,7.483,0,0,0-1.1.65,1.43,1.43,0,0,0-.45.7,1.82,1.82,0,0,0,.15.85q.2.55.6.6a3.163,3.163,0,0,0,.9-.15,5.47,5.47,0,0,0,.6-.2q1.1-.65.65-1.45-.65-1.35-1.35-1"/></svg>