<svg overflow="visible" width="100%" height="100%" viewBox="0 0 116.128 82.849" xmlns="http://www.w3.org/2000/svg"><path d="M111.757,51.81q1-2,2.9-7,3.3-8.3-.8-18.3-5.5-12.5-19.8-17.9a44.649,44.649,0,0,0-27.2-1.7q-2.4.6-12.4,3.5-3.2,1-4,.7t-2.2-3.2a7.413,7.413,0,0,0-5-4.3q-1.8-.5-2.45.05-.7.55-.25,4.5a13.642,13.642,0,0,1-.3,5.6,37.63,37.63,0,0,0-5.6.2q-4.5.349-5.6-1.95a15.434,15.434,0,0,1-1.5-4.65,12.363,12.363,0,0,1-.151-3.55,6.178,6.178,0,0,0,.1-1.85q-.1-.7-.3-1.6-.251-.9-2.8.45-2.6,1.3-4.7,5.85a8.377,8.377,0,0,0,.649,8.75q1.8,2.7-.9,3.4a27.873,27.873,0,0,1-6.8,1.1,14.017,14.017,0,0,0-11.4,6q-1.7,2.5-1.1,3.3a5.508,5.508,0,0,0,1.6,1.4,3.653,3.653,0,0,0,2,.5q4.1-.6,13.1-2.7a1.617,1.617,0,0,0,1.25-.8q.351-.7.851.3.2.3-.2,1.1a3.534,3.534,0,0,1-.9,1.2q-2.4,2-7.3,5.9-4.9,5.35-2.651,10.35a10.275,10.275,0,0,0,7.851,6.05,50.011,50.011,0,0,0,6.2.7q1.2.1,6.2.2a4.3,4.3,0,0,1,2.5.7q.8.6.5,2.4-.1,2.3-1,13.5,0,10.2,4.2,10.2,1.8-.2,2.2-2.9,1.6-10.8,2.349-17.15.651,0,3.45-.2t3.1.25q.249.4.1,6.15a34.969,34.969,0,0,0,.2,7.35,10.908,10.908,0,0,0,1.5,2.9,4.84,4.84,0,0,0,2.3,1.8,2.148,2.148,0,0,0,2.3-1.1,24.073,24.073,0,0,0,1.4-2.9q1.4-3.4,2-12.1,0-2.9,2.7-2.6l10.8,1.2,11.1,1.5a47.827,47.827,0,0,0,11.1.1q4-.4,4.7.3.6.7.4,5a57,57,0,0,0,0,9.55q.4,4.55,2.65,5.4,2.2.85,4.05-6.45.9-4.549,1.2-7.45t1-6.45q.7-3.6,2-4.5a19.534,19.534,0,0,0,4.8-6.1m1.4-16.5a26.563,26.563,0,0,1-2.5,12.7q-4.6,13.9-29.8,11.8-4.8-.5-12.25-1.4-7.449-.949-9.5-1.15t-3.549-.25q-5.5-.1-10.9.2-4.048.349-5.349.4-1.352.05-2.151.15t-.9,1.55q-1.4,18.3-2.351,17.55-2.1-1.8-1.1-9.25a103.275,103.275,0,0,0,.95-12.6,3.127,3.127,0,0,1,1.7-3q10.2-4.6,11.1-11.1a3.466,3.466,0,0,0-1-2.5q-1.6-1.8-2.3-2.7a6.387,6.387,0,0,1-1.4-2.5q.1-.7,1.9-2.2a4.26,4.26,0,0,1,4-.8q1.8.4,8.8,1.4,3.6.7,4.7-2.6a5.054,5.054,0,0,0-1.3-5.6,6.327,6.327,0,0,0-3.8-1.7,53.887,53.887,0,0,0-5.849-.65,3.194,3.194,0,0,0-.8,0,12.85,12.85,0,0,1,.149-1.85,7.63,7.63,0,0,1,5-5.9q16.6-6.2,29.6-4.2-5.2,8.2-5.7,9.7-1.6,5.3,3.9,9.7a32.811,32.811,0,0,0,11.4,7.6,9.962,9.962,0,0,0,10.6-2.2,12.562,12.562,0,0,0,3.7-10.5,22.322,22.322,0,0,1,5,11.9m-82.05-18.6q5.351-.8,6.75-.3,1.45.5,2.3.8a22.521,22.521,0,0,1,3.1,1.5q5.2,2.7,2.8,6.3a38.365,38.365,0,0,1-6.2,6,6.521,6.521,0,0,0-1.1,1.8,1.627,1.627,0,0,1-2,.6l-3.8-1.15a17.353,17.353,0,0,0-2.6-.55,22.971,22.971,0,0,0-2.649-.05,21.591,21.591,0,0,0-4.5.9q-.8.3-4.15,1.35a2.236,2.236,0,0,1,.8-1.5q2.8-2.4,2.9-3.4.1-.9-2.2-4-1.7-2,1.75-4.75a17.867,17.867,0,0,1,8.8-3.55m12.4-9.2q-.75-4.4,1.95.9,2.649,5.3,2.449,6.65a2.872,2.872,0,0,1-.649,1.65,7.009,7.009,0,0,1-2.1-.4q-3.2-1-2.05-2.7t.4-6.1m15.349,18.5a2.618,2.618,0,0,1,0,1.6q-.5,1.4-3.4,1.25a42.7,42.7,0,0,1-6.15-.8q-3.251-.7.45-4.85.449-.75,3.6.2,3.1.949,4.1,1.3a2.242,2.242,0,0,1,1.4,1.3m-15.3,16.95a13.379,13.379,0,0,1-3.55,3.35,40.5,40.5,0,0,1-3.75,2.3,13.588,13.588,0,0,1-4.5,1.7q-9.5,1.5-13.351.4a12.046,12.046,0,0,1-5.649-3.05,18.419,18.419,0,0,1-2.55-3.3q-.8-1.3,2.55-4.7t13.55-4.5q10.2-1.15,14.2,2.55,4.05,3.649,3.05,5.25m6.8,16.85q2,0,1.8,2.7-.1,2.1-.1,6.3-.7,7.4-2.6,6.1a3.621,3.621,0,0,1-1.351-3.4q.151-2.3.151-9.1-.2-2.6,2.1-2.6m48.8,3.5q.25-3.4,3.2-2.5.951.949-.849,11.3-1.851,10.3-2.7,5.55-.9-4.8.349-14.35m-73-51.9a2.712,2.712,0,0,1-1.1,3.85q-2.25,1.4-3.451-2.3a8.19,8.19,0,0,1,1.3-7.4q2.5-3.7,2.4-2.05-.3,5.45.849,7.9m-10.3,13.9a2.215,2.215,0,0,1-1.3.7l-10.3,2.5q-1.651.25-.4-1.1,3.8-5.4,11.3-4.6,1.9.3.7,2.5m4.451,16.4a1.4,1.4,0,0,0-1.85-.6q-2.751,1.35-2.65,2.85a2.382,2.382,0,0,0,.95,2.05,4.623,4.623,0,0,0,1.649.7q.75.1,1.851-1.3,1.1-1.3.95-1.95a6.75,6.75,0,0,0-.9-1.75m13.75.7q-1.1-2.4-2.6-1.4a2.633,2.633,0,0,0-1.1,3.5q.4,1.2,2.25,1.2,2.65-.2,1.451-3.3m-6.55-14.1q-.651-1.35-1.75.8-1.151,2.149-.351,2,2.451-.2,2.651-.9a4.42,4.42,0,0,0-.55-1.9m5.7,2.7q.7-4.7-1.25-2-2,2.7,1.25,2m54.449,14.9q-1.1,2.5-.3,3.9a2.451,2.451,0,0,0,.9,1l1.2.9a3.31,3.31,0,0,0,4.85-.45q2.2-2.4,1.3-4.4a17,17,0,0,0-1.45-2.65,4.682,4.682,0,0,0-1.4-1.25,3.023,3.023,0,0,0-2.5-.05q-1.6.4-2.6,3m-23.8-7.7a14.523,14.523,0,0,0-5.3-.9q-6.9-.3-9.2,6.5-1.4,3.9.151,6.45t5.6,3.4a21.382,21.382,0,0,0,7.3.4q3.25-.45,5.151-6.85,2-6.6-3.7-9m5.7-20.8a4.614,4.614,0,0,0-3.5-1.1,3.056,3.056,0,0,0-2.1,1.6,4.863,4.863,0,0,0-.9,2.9,5.643,5.643,0,0,0,1.8,3.2,4.651,4.651,0,0,0,2.9,1.7,3.121,3.121,0,0,0,2.4-1.8,5.344,5.344,0,0,0,1-3.4,4.308,4.308,0,0,0-1.6-3.1"/></svg>