<svg overflow="visible" width="100%" height="100%" viewBox="0 0 82.96 110.263" xmlns="http://www.w3.org/2000/svg"><path d="M74.219,30.159q-2.9-4.35-8.2,1.65a70.183,70.183,0,0,0-7.2,9.1,32.242,32.242,0,0,0-2.8,5.3q-.849,2.2-.35,2.85.5.6,4.15.25t3.65,1.95q.1,4.6.7,13.8.2,2.5-2.2,2.4l-9.9-.2q-2.9,0-2.95-10.95-.05-11,.1-15.45.1-4.5,3.15-3.2,3,1.249,1.35-4.15t-6.5-16.95q-4.9-11.6-5.15-12.6a27.826,27.826,0,0,0-1-3.05q-.8-2-2.15.4a26.228,26.228,0,0,0-1.75,3.35l-.15.4v-.05q-.6,1.5-2,5.05-1.449,3.5-3.2,8.55-1.8,5-3.5,9t-2.55,6.7q-.849,2.7.9,2.85,1.7.15,1.8-.05t-.05,10q-.15,10.2-.5,13.4a18.769,18.769,0,0,1-.5,2.95,23.672,23.672,0,0,1-5.1-.05q-3.549-.349-4.05-.85t-.3-3.8a70.878,70.878,0,0,0,.35-10.1,3.737,3.737,0,0,1,.15-1.45q.2-.6,1-.45a3.439,3.439,0,0,0,2-.4q1.251-.551-.85-4.7-2.1-4.2-3.2-6.95a20.569,20.569,0,0,0-2.65-4.8,6.173,6.173,0,0,0-2.75-2.35,4.025,4.025,0,0,0-2.95.6,9.185,9.185,0,0,0-3.45,3.65,72.852,72.852,0,0,0-3.9,7.9q-2.4,5.2-1.45,5.55a4.812,4.812,0,0,0,1.8.25q.851-.1,1,2.95.1,3,0,5.9-.15,2.85-.4,6.65-.3,3.8-.35,5.05t-.15,10.45q-.2,17.25-.4,20.5t.4,4.15a7.372,7.372,0,0,0,3.4,1.5q1,.2,12.6,3.3,7.6,2,12.6,2.8a84.782,84.782,0,0,0,19.1,1.4,42.479,42.479,0,0,0,18.4-5.6,23.317,23.317,0,0,1,3.6-1.7q5.8-2.1,6.8-8.9a52.99,52.99,0,0,0,.5-11.3q-.5-6.1-1.4-15.25-.049-.35-.1-.75l-1.5-10.9q-1.149-6.6,0-6.4h.8q1.9.2,4.15.55t1.75-2.75a26.092,26.092,0,0,0-3.1-7.85q-2.649-4.8-5.55-9.15m-4.95,2.75a2.168,2.168,0,0,1,3.3.4,62.756,62.756,0,0,1,5.4,8.15q3.851,6.45-1.4,5.4a42.162,42.162,0,0,0-10.65-.75,62.588,62.588,0,0,0-6.3.45q-.9.2.15-2a34.692,34.692,0,0,1,4.4-6.25,31.882,31.882,0,0,1,5.1-5.4m-3.05,25.7q-1.2-10.2,1.55-10.05,2.7.15,3.95.2,1.151,0,1.95,8.6.5,5.3,1.2,10.1.351,2.749.45,6.75a69.856,69.856,0,0,0,.6,8.15,43.225,43.225,0,0,1,.1,8.85q-.45,4.65-1.7,6.2a9.535,9.535,0,0,1-2.65,2.35,156.91,156.91,0,0,1-14.4,6.5q-2.7,1.1-3.5.4-.7-.7-.2-3.7l1.1-5.3a26.24,26.24,0,0,0-.6-14.6q-.7-2.3-5.6-13.6l-.1-.1q14,1.2,14.2,1.2,3,.1,3.9-.9.9-.9-.25-11.05m-36.55-26.6a85.75,85.75,0,0,0,3.5-8.4l5.75-16.25q.7-1.9,1.4,0,5.751,15.45,9.1,22.2,3.3,6.75.6,5.55-2.7-1.249-8.7-1.65-6.05-.5-8.45.2-2.45.649-3.55.9-1.1.2.35-2.55m-21.85.8a4.079,4.079,0,0,1,3.1-2.2q1.9-.251,5.25,6.95,3.3,7.2,1.9,6.85a39.649,39.649,0,0,0-4.95-.7q-3.549-.35-6.45-.4-.7,0-3.5.15-.849.2,1.25-4.25a54.653,54.653,0,0,1,3.4-6.4m-1.85,22.55a39.943,39.943,0,0,0-.5-7.7q-.549-2.25,1.2-2.2,1.7,0,5.4.25t3.6,2.85q-.1,3.5-.2,10.4-.3,6,1.2,6.8a21.033,21.033,0,0,0,3.95.4q3.55.15,4.95.25,1.35.1,1.75.15l1.6.2q1.551.2,1.65-1.1.3-4.3.55-14.3.2-10.05.2-12.85-.049-2.8,4.3-2.45,4.35.3,10.25.7a20.952,20.952,0,0,1,.4,5l.2,26.8a51.468,51.468,0,0,0-6.85-1.8q-1.65-.2-4.3,2.45a115.348,115.348,0,0,0-8.75,10.85,31.306,31.306,0,0,0-5.1,15q-.45,6.9,0,8.7l-15.2-3.7q-2.2-.4-1.55-5.75a100.059,100.059,0,0,0,.6-11.15q0-5.8.3-11,.25-5.25.25-6t.1-4.1q.1-3.4,0-6.7m24.1,24.4,4.5-6.8q1.251-1.8,1.1.3.4,9.4.3,22.25-.1,8.749.1,11.45a63.786,63.786,0,0,1-7.55-1.35q-3.2-.8-4.55-1.2h-.05v-1a67.357,67.357,0,0,1,.3-7.55,23.467,23.467,0,0,1,1.1-6.55,80.727,80.727,0,0,1,4.75-9.55m8.5-5.5q-.05-2.1,0-3.45.051-1.4,1.65-1.25,1.551.15,1.75,3.5.15,3.3.4,12.9.4,8,1.05,21.4-1.95,0-2.95-.1-1.05-.1-1.6-.1,0-.7.05-1.7.15-5.55-.1-17.3-.249-11.8-.25-13.9m8.2-.75a29.259,29.259,0,0,1,2.5,4.55q5.55,12.15.9,27.6a2.661,2.661,0,0,1-.6.9,1.739,1.739,0,0,1-1,.5q-1.2,0-2.25.05.1-2.05-.15-7.75-.1-2.4-1-13.7-.7-8.4-1-14.5a5.8,5.8,0,0,1,2.6,2.35"/></svg>