<svg overflow="visible" width="100%" height="100%" viewBox="0 0 116.446 68.252" xmlns="http://www.w3.org/2000/svg"><path d="M11.885,21.847q-8.5,2.7-10.7,13-4.3,22.7,7,30.9a11.945,11.945,0,0,0,6.35,2.5,44.916,44.916,0,0,0,6.45-.4q3.55-.45,6.25-.85a18.476,18.476,0,0,0,5.3-1.8,8.541,8.541,0,0,0,3.85-3.65l1-1.9q.5-.9,3.2-7.4,1.7-4.2,5.2-5.1,16.3-5.351,25.25-8.55,7.551,6.2,10.9,6.7a18.707,18.707,0,0,0,5.05.25,19.111,19.111,0,0,1,2.45-.25q.7-.049,7-1.15a53.693,53.693,0,0,0,8.45-2,10.783,10.783,0,0,0,4.1-3.1,24.884,24.884,0,0,0,3.2-4.6,64.5,64.5,0,0,0,2.9-7.1,24.4,24.4,0,0,0,1.3-9.75q-.4-4.95-4.4-12.1T95.635.5q-12.4,2.1-14.1,2.4-1.751.3-3.05.6a17.187,17.187,0,0,0-2.25.55,16.8,16.8,0,0,0-3.45,2.2,24.843,24.843,0,0,0-5.15,5.35,13.436,13.436,0,0,0-2.5,8.6q.1,5.1-.4,5.7t-8.9,2.15q-8.4,1.45-11.7,1.85t-4.15-3q-.8-3.45-4.9-5.45a24.432,24.432,0,0,0-5.55-2.25,41.531,41.531,0,0,0-5-.2q-3.649-.05-12.65,2.85m-6.4,9.3q3.7-7.4,12.9-6.5,4.5.2,7.1,4.6a30.252,30.252,0,0,1,2.8,25.6,15.94,15.94,0,0,1-6.7,8.8q-5.5,3.7-10.3.6-9.3-5-8.6-17.5.6-11.1,2.8-15.6m16.8-9.2q10.7-2.2,15,6.1,3.2,6.4,2.3,17.5a35.218,35.218,0,0,1-.85,5.25,21.623,21.623,0,0,1-2.7,5.6q-2.15,3.45-3.15,4.85a8.936,8.936,0,0,1-7.8,3.85h-.65q8.9-7.05,8.45-20.85-.5-14.7-10.6-22.3m20.4,13.9a5.522,5.522,0,0,1,.5-2.2q.5-1.2,5.6-1.75t16.35-3.05q11.25-2.5,13.6-2.95,2.3-.5,3.9-.85,1.551-.45,1.4-1.55-.15-1.151-1.6-1.15a13.694,13.694,0,0,0-3.3.45q-1.85.45-8.05,1.85-2.7.5-3.3,0-.6-.6-.2-5.7.351-5.149,7.45-10.75t15.7-1.95q8.55,3.6,10.25,9.4a21.067,21.067,0,0,1-.1,13.6,22.014,22.014,0,0,1-8.5,10.6q-2.5,1.6-4.55,2.75a6.8,6.8,0,0,1-4.45.7,15.045,15.045,0,0,1-5.65-2.7q-3.2-2.2-4.1-3,2.55-.95,6.55-2.7a44.247,44.247,0,0,0,5.7-2.8q1.251-.9.7-1.8t-4.55.8q-4.05,1.7-6.05,2.6-2,.85-6.1,2.25-17.8,6.3-27.2,8.8-.2-4.45,0-8.9m59.5-33.8a24.13,24.13,0,0,1,3.1.7,9.136,9.136,0,0,1,3.3,2.7,18.091,18.091,0,0,1,3.15,4.75,41.56,41.56,0,0,1,2.1,6.85q1,4.249-2.1,12.4-3.2,8.1-6.55,9.85a48.715,48.715,0,0,1-9.5,3.2q-6.1,1.45-4.15.45,1.95-1.05,3.05-1.55a13.129,13.129,0,0,0,2.9-2.15,16.627,16.627,0,0,0,2.3-2.5,21.9,21.9,0,0,0,4.9-15.9q-.6-9.6-7.8-14.2l-6.25-3.3q9.7-1.65,11.55-1.3M15.235,43.6q-.15-3.851-2.45-4.05a17.415,17.415,0,0,0-3.45-.05q-1.1.1-2.15,2.3a8.343,8.343,0,0,0-1,4.15,4.506,4.506,0,0,0,.9,2.8,3.734,3.734,0,0,0,1.7,1.1,8.537,8.537,0,0,0,1.85.3,6.037,6.037,0,0,0,2.8-1.3q1.9-1.4,1.8-5.25m-6.05,3.15q-1.3-4.249,1.5-4.5,2.749-.251,1.25,3.1-1.5,3.4-2.75,1.4"/></svg>