<svg overflow="visible" width="100%" height="100%" viewBox="0 0 116.419 47.988" xmlns="http://www.w3.org/2000/svg"><path d="M79.854,2.9q-1.8.9-2.4-.7-1.2-3-5.3-1.9-8.6,2.4-13,3.4-2.7.7-3.7,0a8.138,8.138,0,0,0-3.8-1.1,22.26,22.26,0,0,0-3.9.2q-22.6,2.6-33.9,4.1-10.7,2-13.3,13.7-2.6,11.8,7,18.8a15.8,15.8,0,0,0,8,3.4,13.068,13.068,0,0,0,8.3-2.3,51.083,51.083,0,0,0,6.2-4.2q1.4-1.3,2.3-1,.8.2,1.8,1.7a35.624,35.624,0,0,0,3.7,4.9,12.554,12.554,0,0,0,5.2,3.4l8,2.3a9.893,9.893,0,0,0,6.65-.4q9.15-3.5,13.95-5.8,2.7-1.3,7.35-3.85,4.05-2.25,7.5-4.45a18.957,18.957,0,0,0,2.65-2.2,16.609,16.609,0,0,1,2.6-2.2,90.376,90.376,0,0,1,10.2-5.1,10.074,10.074,0,0,0,6.35-8.3q1-.45,2.8-1.25,6.251-2.85,5.15-6.35-1.1-3.6-4.9-2.4a31.438,31.438,0,0,0-3.45,1.65q-1.2.7-2.3-.85a2.993,2.993,0,0,0-2.65-1.5,10.267,10.267,0,0,0-2.4.5,24.282,24.282,0,0,0-4.3,2.4q-5.1,2.9-6.2,2.4a2.521,2.521,0,0,1-.85-1.25,31.867,31.867,0,0,1-1.55-4.95q-.4-3-3.1-2.5a37.8,37.8,0,0,0-4.7,1.7m-4.6,2q.3,2.3.3,2.4a2.047,2.047,0,0,1-1.7,1.7l-13.1,2.7a1.7,1.7,0,0,1-2-.9q-.3-1.4-.5-2a1.483,1.483,0,0,1,.4-1.1,1.94,1.94,0,0,1,.9-.9l12.9-3.6q2.5-.6,2.8,1.7m-14.4,14.75a29.685,29.685,0,0,1,2.4,3.35,14.326,14.326,0,0,1,2.3,8.3q-.3,5.8-7.7,12.5a4.6,4.6,0,0,1-3.7,1.1,32.31,32.31,0,0,1-9.3-1.9,15.476,15.476,0,0,1-7.4-6.1q-2.7-3.8-1.4-9.2a22.58,22.58,0,0,1,4.3-8.7,9.354,9.354,0,0,1,5.6-3.4,25.548,25.548,0,0,1,3.6-.35,15.147,15.147,0,0,1,5.75.7,8.734,8.734,0,0,1,4.25,2.2,14.9,14.9,0,0,0,1.3,1.5m-.1-4.55a61.859,61.859,0,0,1,10.4-2.6q8.7-1.6,10.5-2,.5-.15,5.15-1.25,1.1,3.3,1.35,3.85,4.1,8.6-2,17.1-.5.2-1.1.5-5.349,2.5-19.8,10.2,4-7.2,2.6-13.8-1.3-5.9-7.1-12m-5.2-4.3a1.739,1.739,0,0,1-.5,1,1.585,1.585,0,0,1-.8.6,14.671,14.671,0,0,1-4.9.3,10.219,10.219,0,0,0-8.2,1.7,50.183,50.183,0,0,0-6.2,6.2q-1.6-7.2-9.3-11.6,2.7-.9,3.1-1l20.1-2.5a5.677,5.677,0,0,1,4.4,1.3,5.455,5.455,0,0,1,2.3,4m-31.4.9q7.1,2.7,8.2,10.6a12.93,12.93,0,0,1-5.3,12.7q-10.5,8.5-16.7,3a21.456,21.456,0,0,1-5.4-5.3,11.69,11.69,0,0,1-1.8-7.1q-.6-9,5.9-13.5,6.6-4.5,15.1-.4m84.65-2.85a8.817,8.817,0,0,1,3.95-1.75q3.45,2.85-4.2,5.4-1.3-2.4.25-3.65M101.354,8a1.84,1.84,0,0,1,2.8.8q3.2,5.9-.7,9.9-2.1,2.2-9.5,5.5l-1.2.1q-.5-8.5-.5-10.1-.1-.8,1.4-1.8l7.7-4.4M84.7,4.6a3.832,3.832,0,0,1,1.25,2.1l.05.05a6.145,6.145,0,0,1-1.65.55q-1.4.3-3.3.75-1.95.4-2.1-.45-.75-2.149,2.1-2.85T84.7,4.6"/></svg>