<svg overflow="visible" width="100%" height="100%" viewBox="0 0 113.87 61.975" xmlns="http://www.w3.org/2000/svg"><path d="M36.132,2.575a1.642,1.642,0,0,0-.2-1.9,1.581,1.581,0,0,0-1.8-.6,7.052,7.052,0,0,0-5.1,3.8q-.2.4-2.7,6.2-4.3-3.3-5-3.9-3.7-3.3-11-4.1-6.2-.5-9.3,3.6-1.4,1.8-.9,2.9a2.009,2.009,0,0,0,1.2.9,2.4,2.4,0,0,0,1.6.2,11.312,11.312,0,0,1,7.8.6,56.018,56.018,0,0,1,6.9,4.1q-4.1,2.3-4.1,6.2a1.924,1.924,0,0,0,1.2,1.7,6.585,6.585,0,0,0,2.2.5q1.4.1,4.7.6a27.174,27.174,0,0,0-3.8,4.9,3.794,3.794,0,0,0-.65,2.3,1.9,1.9,0,0,0,.45.9,2.288,2.288,0,0,0,1.7.2,2.6,2.6,0,0,0,1.6-1.1,9.486,9.486,0,0,1,6.3-4.05,87.85,87.85,0,0,1,9.6-.75,43.114,43.114,0,0,1-.4,5,7.947,7.947,0,0,0,1.3,4.6,27.458,27.458,0,0,0,14,10.4q25.7,8.1,34.6,10.1,2.6.6,7.65,1.6t7.95,1.85q2.9.85,4.55,1.3t4.85,1.25a2.842,2.842,0,0,0,1.5,0q.9-.2,1-.6.8-4.4-15-15.2-17.4-11-20.15-13.3-9.051-7.4-13.35-11.1-7.8-6.7-15.1-4.3-9.1,3.1-15.9-10.6a2.731,2.731,0,0,1,.5-1.9l1.3-2.3m23.6,18.7a50.868,50.868,0,0,1,5.1,3.7q4.3,3.6,12.9,10.9a4.137,4.137,0,0,1,1.4,4.3q-.3,1.8-.9,5.3-.251,1.35.9,1.5,1.1.05,1.75-3,.649-3.1.85-4.05t1-.5q.8.45,1.1.65a40.9,40.9,0,0,1,7.5,4.8,4.264,4.264,0,0,1,.9,2.2q.1.9.1,2.8l.1,1.5q0,2-.4,2.3-.5.4-2.5-.1-11.2-2.5-19.6-5-3.5-1-9.5-3-6.7-2.3-9.4-3.1a16.818,16.818,0,0,1-6.6-3.9,42.227,42.227,0,0,1-4.8-5.8q-1.7-2.4.4-5.6a16.1,16.1,0,0,1,11.3-7.2q2.3-.2,1.4,1.8a42.544,42.544,0,0,1-2.2,4.6,12.218,12.218,0,0,0-1.2,4.9,1.339,1.339,0,0,0,.35.75,1.247,1.247,0,0,0,.85.55q.549.1,2.15-3.55,1.55-3.649,2.95-6.55,1-2,1.6-2.2t2.5,1m-18.2-.2q-3.2,1.5-4.9.8-1.7-.6-2.9-3.8l7.8,3m53.55,31.7a22.078,22.078,0,0,0,.25-5.9q3.2,2.5,7.9,6a2.551,2.551,0,0,1,.6,1.2,2.458,2.458,0,0,1,0,1.4,1.883,1.883,0,0,1-1.75,1.05,10.2,10.2,0,0,1-2.85-.35q-1.65-.45-3.05-.8t-1.1-2.6m13.55,4.05a3.984,3.984,0,0,1,1.65,2.6q-1.7-.6-3.5-1.25-1.8-.75-.85-2.95,1.6.949,2.7,1.6M6.432,6.275a8.412,8.412,0,0,1,7-1,15.9,15.9,0,0,1,7.1,4.6q-10.1-2.9-14.1-3.6m27,5.4a2.426,2.426,0,0,1,1.2,2.1q-.9-.3-1-.6-.1-1-.2-1.5m-12.2,8.8a24.828,24.828,0,0,1-4.7-1.2q3.5-2.5,4.8-2.4,1.2.1,3.9,3a13.593,13.593,0,0,1-4,.6m52.4,19.9a3.831,3.831,0,0,0-1.3-2.7q-.9-.55-1.35,1.65-.45,2.25-.55,3.35a1.942,1.942,0,0,0,.65,1.85q.7.5,1.6-1.15a6.928,6.928,0,0,0,.95-3m-14.2-4.15q2.2-5.55,3-7,.75-1.5-.1-1.85a1.529,1.529,0,0,0-1.3-.1,1.134,1.134,0,0,0-.6.4,94.9,94.9,0,0,0-5.8,11.7q-1.3,2.45,1.7,2.6.9-.251,3.1-5.75"/></svg>