<svg overflow="visible" width="100%" height="100%" viewBox="0 0 59.629 114.839" xmlns="http://www.w3.org/2000/svg"><path d="M54.427,2.533q-2.3,6-2.7,7.4-1,3-1.8,3.4-.7.4-3.8-.3-7.449-1.3-10.4-2-1.249-.3-1.4-3.15.051-2.65,0-4.25-.2-2.9-2.5-2.9-2.1,0-3.25,2.5-1.4,3.1-4.4,18.3-3.05,15.2-4.85,22.1-3.3,12.2-9.4,32.5-7.3,24.2-9.7,32.5-.5,2.4.1,3a3.855,3.855,0,0,0,3.8,1.2,4.182,4.182,0,0,0,3.1-2.7q.1-.2,1.5-4.7.5-2.2,2.9-1.4l9.5,2.9q3.1.8,3.3,3.6a4.306,4.306,0,0,0,1.8,3,4.77,4.77,0,0,0,3.3,1.3q1.1-.2,2.05-3.35a57.153,57.153,0,0,1,2-5.85q1.1-2.751,5.35-18.1,4.2-15.4,6.3-23.6,1.05-4.35,2.45-10.45,1.2-5.3,3.95-16.55t4-16.95q1.251-5.7,3.2-12.25,1.9-6.6-.7-7.5-2.3-1-3.7,2.3m.9,2.6q1.151-2.451,1.95-1.65.8.75-1.8,10.95-2.6,10.149-3.85,15.6-1.25,5.5-5.65,23.5t-8.9,33.5q-7.4,25.3-9.1,24.85-1.749-.45-1.25-2.85a56.172,56.172,0,0,1,1.85-6.75q.45-1.4.85-3.25.55-2.6,1.1-4.5.7-2.3,1.7-7.3.9-3.4,1.3-5.1a21.407,21.407,0,0,1,.6-2.5q.75-2.751,2.8-11,1.6-4.5,1.95-5.8.351-1.35.5-1.85.1-.55.35-1.65.251-1.15,1.3-4.35.651-2.2,1.05-3.35.15-.6,3.65-13.1,2.051-7.5,2.85-10.7.75-3,3.15-11.6a93.677,93.677,0,0,1,3.6-11.1m-11.95,25.75q1.3.649.75,3.15-1.8,5.449-2.4,6-.6.5-4.05-.55-3.5-1.1-5.35-1.65-1.9-.6-3.45-1.2-1.6-.551-.85-3.15l1-3.85q.6-2.5,1.3-2.9.6-.3,3.1.6a74.214,74.214,0,0,1,9.95,3.55m5.45-11.25q-1.6,6.6-2.9,7.4-1.3.7-7.8-1.3-5.7-1.7-6.4-3-.7-1.2.8-7.1.8-2.7,2.7-2.4.3.049.65.1,4.551.9,10.55,2.4,3.1.7,2.4,3.9M31.677,3.483q1.851-1.2-.2,7.8a99.339,99.339,0,0,0-2.15,10.5q-.1,1.5-7.55,28.65-7.5,27.15-12.1,43.85t-6.3,15.75q-1.2-.551-.5-2.8l16.2-55.3q5.751-23.4,6.6-28.4.851-5.05,2.5-11.95,1.6-6.9,3.5-8.1m-2.05,35.75q1.6.6,4,1.45,7.1,2.45,7.2,2.95a43.711,43.711,0,0,1-1.15,6.25q-1.249,5.749-4.6,4.95-3.4-.85-5.8-1.65t-4.05-1.4q-1.65-.651-1.1-3.55l2.1-8.05q.551-2,3.4-.95m-4.95,14.85q.251.1.55.2a90.034,90.034,0,0,0,10.1,3.05,1.762,1.762,0,0,1,1.5,2.5l-3.6,11.4q-.6,2.2-2.9,1.4-3-1.3-7.1-2.95-1.8-.75-2.6-1.15a2.156,2.156,0,0,1-1.25-2.85l2.95-10.15q.651-2.151,2.35-1.45m-7.2,19.75q.75-2.7,1.7-2.35.9.3,2.9,1.15,2,.8,4.25,1.6,4.4,1.4,5,2.4.5,1-.7,5.6-1.3,5.6-2.5,6.1-1.1.6-6.4-1.4l-5.3-1.9a1.555,1.555,0,0,1-1.25-2.15l2.3-9.05m7.95,17.6a3.568,3.568,0,0,1,2.1,1.4,2.907,2.907,0,0,1,0,2.6q-.4,1.2-2.15,6.85-.649,2.2-4.2,1.45a41.619,41.619,0,0,1-5.45-1.4q-4-1.3-4.5-2.2t.5-4.6l2.1-7.85q.3-.75,1.35-.3.6.249,1.45.65,2.5,1,8.8,3.4"/></svg>