<svg overflow="visible" width="100%" height="100%" viewBox="0 0 116.633 114.679" xmlns="http://www.w3.org/2000/svg"><path d="M78.411,1.729a35.342,35.342,0,0,0-14.6-1.6q-.2,0-14.7,1.8-14,1.7-26.1,11.5-10.9,8.8-15.8,17.65-4.95,8.85-6.3,15.1a49.24,49.24,0,0,0-.7,14.3,57.427,57.427,0,0,0,3.4,15.65q3.1,8.7,12.8,11.2a36.529,36.529,0,0,0,16.8-1.2,47.866,47.866,0,0,0,15.2-7.6q7.8-5.1,11.6-7.7,4.1-3,12.2-3.2a4.768,4.768,0,0,1,3.3.8,5.319,5.319,0,0,1,1.7,3l3.2,13q.7,3,.4,3.7t-2.7,2.1q-13.3,7.3-40,21.9a1.424,1.424,0,0,0-.6,1.3,1.245,1.245,0,0,0,.9,1,3.772,3.772,0,0,0,2.7,0q3.2-1.2,9.6-3.9,22.4-7.7,29.55-10.7t7.75-3.15c.434-.134.667-.2.7-.2q8.451.3,18.6-4.85a15.075,15.075,0,0,0,7.9-8.1q1.6-4.2,1.4-11.5-1.2-15.3-2.3-22.9a72.731,72.731,0,0,0-6.4-22q-6.7-16.7-29.5-25.4m-14.65,1q5.1-.7,13.1,1.8a57.1,57.1,0,0,1,15.35,7.55,34.838,34.838,0,0,1,11.3,12.75,70.739,70.739,0,0,1,8.3,26.3q1.2,11.9,2.1,23.7,1,10.5-9.6,15.1a50.481,50.481,0,0,1-10.4,3.4q-7.2,1.2-8.7-3.3-4.7-16.3-5.3-18.5-1.3-4.5-3.8-6.1-2.4-1.5-7.2-.7a24.085,24.085,0,0,0-10.9,4.15q-5.349,3.549-17.3,10.65-12,7.1-21.7,5.7-9.5-1.8-13.3-11.1-2.4-6.1-2.8-18.1-.7-11.4,6.3-22.4a68.679,68.679,0,0,1,16.6-18.9,47.4,47.4,0,0,1,22.9-9.8q9.9-1.5,15.05-2.2m-2.15,100.7q-2.2.649,1.2-1.4l17.3-9.5q2.4-1.4,3.6.9.7,1.2-.1,1.9a4.681,4.681,0,0,1-1.6,1,101.164,101.164,0,0,1-10.2,3.8l-10.2,3.3m28.55-27.9q-1.95,3.7-1.85,4.65a4.838,4.838,0,0,0,.6,1.85,4.9,4.9,0,0,0,1.1,1.4,10.123,10.123,0,0,0,5,2.2,20.724,20.724,0,0,0,5.05.25,4.449,4.449,0,0,0,3.7-2.7,9.589,9.589,0,0,0,1.45-4.35,8.119,8.119,0,0,0-.4-2.25q-1-2.751-5.2-4.4t-5.85-1q-1.65.649-3.6,4.35m1.25,4.5a5.965,5.965,0,0,1,1.3-3.7,4.355,4.355,0,0,1,3.1-1.8q6.2-.1,6.2,3.9a5.869,5.869,0,0,1-1,3.5,3.408,3.408,0,0,1-2.7,1.3q-6.7,0-6.9-3.2"/></svg>