<svg overflow="visible" width="100%" height="100%" viewBox="0 0 76.277 114.779" xmlns="http://www.w3.org/2000/svg"><path d="M42.113,110.6q.1-1.2.05-3.65,0-2.5-.05-4.95a6.611,6.611,0,0,0-.35-2.8,1.233,1.233,0,0,0-.7-.3,1.37,1.37,0,0,0-.65.35q-.45.3-.85,4.45a45.468,45.468,0,0,0-.3,6,4.44,4.44,0,0,0,1.3,3q.7.7,1.05-.1a7.262,7.262,0,0,0,.5-2M35.563,3.9A18.6,18.6,0,0,0,33.513.6q-.949-1.15-1.75-.1a35.028,35.028,0,0,0-2.3,6.35q-1.2,4.25-2.5,7.75t-6.5,9.25q-5.2,5.75-7.75,7.45a23.45,23.45,0,0,1-5.2,2.55,13.469,13.469,0,0,0-4.75,2.8,9.169,9.169,0,0,0-2.55,3,2.778,2.778,0,0,0-.05,2,3.84,3.84,0,0,0,1.3,1.65,6.3,6.3,0,0,1,2.5,4.2q.1.6.1,4.8,0,8.2-.05,10.95Q3.914,66,5.363,66q1,0,1.1-2.45t.1-9.35q0-5.8.9-6.7,1-.9,6.6-.5t6.4,1.4q.9.9.4,6.4-.5,7.1-.5,7.8a16.522,16.522,0,0,0,2,7.8,13.931,13.931,0,0,1,1.4,6.1q.1,2.2.3,6.6a2.324,2.324,0,0,1-.5,1.8,13.922,13.922,0,0,1-1.5,1.2q-3.2,2.2-3,4.3.1,2.1,3.8,3.4a7.8,7.8,0,0,1,5,5.5,58.6,58.6,0,0,1,1.4,7q.4,2.4.75,5.05a8.371,8.371,0,0,0,.7,3.15q.4.5,1.2.1a2.053,2.053,0,0,0,.95-1.6,18.491,18.491,0,0,0-.2-2.1q-1.05-12.2-1.65-14.65a29.338,29.338,0,0,0,14.95.75,1.937,1.937,0,0,1,2,.4,4.243,4.243,0,0,1,.7,2.1q.3,2.7.85,5.35.551,2.6.95,2.85t1.05-.25q.651-.55.55-1.05a39.772,39.772,0,0,0-.8-6.4q-.5-3,2-3.7a16.312,16.312,0,0,0,4.5-2.1,2.35,2.35,0,0,0,1.2-2,4.611,4.611,0,0,0-.3-1.8q-.3-.75-3.1-2.6t-3.95-1.85q-1.149-.049-1.45-.45a2.311,2.311,0,0,1-.2-.8l1.2-12.3a2.256,2.256,0,0,1,1.8-2.1,18.432,18.432,0,0,1,2.9-.1q1.5,0,1.8,1.1a20.054,20.054,0,0,1,.1,2.45q0,4.05-.15,8.9-.2,4.8,1.35,5.05,1,.2,1.1-1.3-.1-6,.1-9a26.148,26.148,0,0,0,0-5.7,2.475,2.475,0,0,1,.9-2.65q1.15-.851.8-1.85a8.506,8.506,0,0,0-1.65-2.5,8.411,8.411,0,0,0-2.95-2.25q-1.65-.7-2.4-1.1-.75-.45-.5-3.25t.6-5.95q.351-3.2,1.4-3.8a38.346,38.346,0,0,1,3.85-1.75,23.788,23.788,0,0,1,4.45-1.5q.1,2.6-.5,12.2a77.447,77.447,0,0,0-.1,10.3,1.1,1.1,0,0,0,1,.9,1.03,1.03,0,0,0,1.1-.6,29.679,29.679,0,0,0,.9-7.1q.3-7.45.3-12.2t.75-5.6a24.731,24.731,0,0,1,3.7-3.05q1-.851,1,0,.251,7.5.2,14.2-.049,7,.35,7.6t1.5.35q1.551-.05,1.4-5.95-.2-5.951-.05-11.7.1-5.8-.85-8-1-2.149-7.9-3.85a41.883,41.883,0,0,1-13.25-6,34.218,34.218,0,0,1-9.95-10q-1.1-1.8-8.7-12.7M7.813,36.4q2.051-.95,4.15-1.85a19.7,19.7,0,0,1,8.15-1.95,114.58,114.58,0,0,0,11.4-1.25,58.831,58.831,0,0,1,10.45-.95,84.561,84.561,0,0,1,11.1,1,86.6,86.6,0,0,1,9.75,2.25q4.95,1.4,5.65,2.35a2.4,2.4,0,0,1,.2,2.35q-.549,1.4-5.65,4a26.254,26.254,0,0,1-10.85,2.75q-5.7.2-23.4-.1t-22.2-1.7a17.153,17.153,0,0,1-3.35-1.8q-.65-.649.05-1.8a4.816,4.816,0,0,1,1.6-1.75,20.4,20.4,0,0,1,2.95-1.55m11.15-6.3q3.5-3.9,5-5.7a36.9,36.9,0,0,0,4-5.4,39.8,39.8,0,0,0,2.8-6.2q1.6-4.5,2.5-6.8,9,14,17.8,22-12.7-1.7-32.1,2.1m6.05,31.35q2.2.05,7.5-.1,5.25-.15,5.35,1.2a34.322,34.322,0,0,1,0,3.75,3.147,3.147,0,0,1-.45,1.65q-.5.7-4.6-.35a27.12,27.12,0,0,1-9.15-5q-.849-1.2,1.35-1.15m-1.55-3.35q-.05-9,.9-9.9-.05-.1.5-.45.5-.349,4.85-.45a26.679,26.679,0,0,1,7.15.55,2.326,2.326,0,0,1,1.7,1.35,7.071,7.071,0,0,1,.35,2.35q.15,5.65-1.55,6.65-.8.5-7.3.6-6.6.3-6.6-.7m13.95,26.3q-.3.05-.35-1.9a103.089,103.089,0,0,1,.8-11.3q6.6-.2,7.65-.25a2.508,2.508,0,0,1,1.75.55q.75.6.45,2.9-.35,2.3-.85,10.55-2.9-.15-6.1-.2-3.249-.049-3.35-.35m-3.95-1a1.58,1.58,0,0,1-1.5,1.6q-1.7.1-2.5.1-2.5.2-2.8-2-.1-.7-1.2-15.7l8.5,3.6q-.2,9.7-.5,12.4m-2.25,10.55q-2.25-.55-5.65-1.75-3.45-1.2-3.1-2.7.25-1.6,7.3-1.75a150.648,150.648,0,0,1,17.3.85q1.4.1,3.25.25a9.782,9.782,0,0,1,4.25,1.55q2.451,1.45-.55,3-3.05,1.55-8.85,1.5-5.8-.1-8.75-.25a35.156,35.156,0,0,1-5.2-.7M44.163,48.4h2.7q5.4-.05,5.75.25t-.3,5.65q-.7,5.3-.8,5.8-.15.5-3.15-.2-3-.75-5.05-1.05t-1.95-3.4q.1-3.15.55-6.75a7.6,7.6,0,0,1,2.25-.3m12.55,16.15q3,2.25-.55,2.8t-4-.55a2.926,2.926,0,0,1,.4-3.1q1.1-1.45,4.15.85m-6.95-1.2a3.738,3.738,0,0,1,.05,2.05,2.859,2.859,0,0,1-1.45,2,5.8,5.8,0,0,1-1.7.4h-1.5q-2.9,0-3.7-.85a3.691,3.691,0,0,1-.65-3q.15-2.149,3.2-2.05a24.149,24.149,0,0,1,4.25.4,1.976,1.976,0,0,1,1.5,1.05"/></svg>