<svg overflow="visible" width="100%" height="100%" viewBox="0 0 115.622 54.245" xmlns="http://www.w3.org/2000/svg"><path d="M87.578,33.81l-20.2-.6a131.295,131.295,0,0,0-20.3,1.2,13.793,13.793,0,0,0-2.4.25,14.816,14.816,0,0,0-3.1,2.65l-1.2,1.3q-4.1,4.9.2,9.9a11.418,11.418,0,0,0,10,4.4l51-1q1.3-.1,3.2-.4,1.1-.1,3.2-.5a8.268,8.268,0,0,0,7.2-6.1q1.8-5.6-3.7-7.8a32.446,32.446,0,0,0-11.7-2.8q-8.1-.3-12.2-.5m-44.7,13.2a4.018,4.018,0,0,1-1.2-3.4,9.4,9.4,0,0,1,1.3-3.45q1.05-1.75,1.15-1.85a2.282,2.282,0,0,1,1-.35q.85-.251,2.35-.55a201.726,201.726,0,0,1,26.7-1q8.9.2,26.7.9,1.3.1,3.1.4a33.073,33.073,0,0,1,3.35.65,10.8,10.8,0,0,1,4.85,2.75q1.9,2.1-.6,4.7a11.033,11.033,0,0,1-5,2.5,34.585,34.585,0,0,1-5.6.8l-50,.8q-5.5,0-8.1-2.9m65.55-3.5q.45-2.4-1.4-2.95a14.94,14.94,0,0,0-2.65-.6,3.627,3.627,0,0,0-1.7.35,2.738,2.738,0,0,0-1,3.7,3.314,3.314,0,0,0,3.5,2.1q2.8-.2,3.25-2.6m-4.1-.95q.7-.8,1.25-.45a.84.84,0,0,1,.35,1,2.288,2.288,0,0,1-.5.95q-.35.25-1.1-.25t0-1.25m-35.25-.75a2.819,2.819,0,0,0-1.6-2.1,4.772,4.772,0,0,0-3-.9,5.748,5.748,0,0,0-3.3,1.4,3.193,3.193,0,0,0-1.5,2.6,3.133,3.133,0,0,0,1.3,2.6,3.929,3.929,0,0,0,3.1.9,5.786,5.786,0,0,0,3.6-1.5,3.522,3.522,0,0,0,1.4-3m-5.7,2.25q-1.849-.75,0-2.35a2.521,2.521,0,0,1,2.5-.6,1.086,1.086,0,0,1,.6,1.3q-1.249,2.35-3.1,1.65m20-3.15a5.405,5.405,0,0,0-3.3-1.4q-4.3.3-4.5,3.7-.1,3.3,4.4,3.6a5.269,5.269,0,0,0,3.3-.9,3.157,3.157,0,0,0,1.6-2.4,3.188,3.188,0,0,0-1.5-2.6m-5.1,2.45q-.35-2.5,2.75-1.5,3.051.95.3,2.5-2.749,1.5-3.05-1m15.9-3.85q-4.3-.1-4.8,3.6-.4,3.6,4.2,4,4.3-.1,4.8-3.6.5-3.6-4.2-4m-1.5,3.9q-.049-1.249,1-1.3,1-.05.95,1.35-.05,1.15-.85,1.05a1.274,1.274,0,0,1-1.1-1.1m-42.1-3.9q-3.5-1.1-3.9,2-.4,3,3.1,3.9,3.5.8,3.9-2.4.3-2.4-3.1-3.5m-1.85,2.35a.822.822,0,0,1,.75-.75,3.148,3.148,0,0,1,1.55.5,1.293,1.293,0,0,1,.4,1.25v.7a1.959,1.959,0,0,1-1.3.05,1.1,1.1,0,0,1-.35-.15,1.9,1.9,0,0,1-1.05-1.6M86.078,1.01a4.9,4.9,0,0,0-2.9.9,5.7,5.7,0,0,0-.9,3.1l-.8,7.9q-.3,2.5-.8,2.9-.5.5-3.1.4l-26.3-.8a35.579,35.579,0,0,0-5.4,0q-3.1.3-2.8,3.2.5,4.1.6,7.9.3,4.3,1.7,5.4t5.8.8q9.9-.6,29.2-.5h24.8q3.1,0,4-.8.8-.8.9-3.6V4.11q-.1-2.5-.9-3.3-.8-.9-3.3-.8-11,.3-19.8,1m-.9,3.7a3.378,3.378,0,0,1,2.6-1l17.4-1q1.9-.1,1.9,2.1l.1,21.7a2.594,2.594,0,0,1-.8,2.2,4.055,4.055,0,0,1-2.3.5l-53.1.4q-2.9.2-3.5-.4-.5-.4-.8-3.4l-.4-3.5q-.4-3.1,0-3.7.5-.5,3.9-.4,10.1.3,30.2,1.1a4.451,4.451,0,0,0,3-1,4.2,4.2,0,0,0,1-3,44.232,44.232,0,0,0,.1-7.8,4.3,4.3,0,0,1,.7-2.8m-83.7,49.2a30.719,30.719,0,0,0,6.8.3q11.8.4,19.5-3.8,9.7-5.1,9.3-16.1,0-9-8.8-13.6-2.9-1.4-4.2-1.1t-3.2,2.8l-19.1,26.3q-3.4,4.1-.3,5.2m21.3-29.5a3.551,3.551,0,0,1,2-1.6,3.9,3.9,0,0,1,2.5.6q7.7,3.8,7.3,12.1a13.789,13.789,0,0,1-6.3,11.6q-4,2.7-11.6,3.8a34.711,34.711,0,0,1-13-.2l19.1-26.3"/></svg>