<svg overflow="visible" width="100%" height="100%" viewBox="0 0 87.591 116.289" xmlns="http://www.w3.org/2000/svg"><path d="M52.678,9.032q-.15.15-2.2,2.4-2.049,2.2-3.7,1.65t-5.2-1.7a23.555,23.555,0,0,0-6.3-1.25,11.033,11.033,0,0,0-5.4,1.2l-17.9,9.5a8.265,8.265,0,0,0-1.7,1.1,1.4,1.4,0,0,0-.3,1.8q.4,1.1,2.6,1.6,2.25.351,4.4.65-.6.8-1.45,2.1a67.191,67.191,0,0,0-7.05,14.2q-3,8.051-3.1,8.45a59.862,59.862,0,0,0-2.9,15.1q-.3,5.8-.95,12.45-.7,6.6-1.3,12.4a69.886,69.886,0,0,0,.55,15.55q1.4,7,6.3,8.8a22.68,22.68,0,0,0,16-.4q17.7-6.9,34.9-21.3a40.221,40.221,0,0,0,7.9-7.5,96.313,96.313,0,0,0,8.3-11.85q4.05-6.85,6.35-11.1,1.15.851,2.45,1.85,3.5,2.8,4.4-.8.85-3.65-1.7-12.2-2.6-8.55-5.25-16.85-2.649-8.4-5.7-11a37.776,37.776,0,0,0-6.25-4.45,18.244,18.244,0,0,0-6.55-2.25q-5.049-.649-3.55-1.95l4.5-3.9a15.091,15.091,0,0,0,3.2-3.8,8.186,8.186,0,0,0,1.3-4.2,3.432,3.432,0,0,0-2.2-2.9,3.921,3.921,0,0,0-4.4.6,95.493,95.493,0,0,0-8.1,8m11.2-5.15q-.05,1.3-2.8,4.4-2.8,3.051-4.7,5.1-1.95,2-3.35,1.7a8.139,8.139,0,0,1-1.8-.5q-.35-.251.45-1t5.75-5.85q4.9-5.149,5.7-5.15t.75,1.3m-44.15,22.5q2.651.2,4.25.35,4.1.5,3.35,4.35t-1.55,9.15q-1.1,8.5,5.5,7.5,3.7-.6,11.9-4.2a3.463,3.463,0,0,1,2.7-.45q.9.4,2.6,3.95,1.7,3.5,6,13.9,2.3,4.4,5.5-2.6l4.75-8.3q1.1-1.849,2.35-.1a43.874,43.874,0,0,0,6.5,7.4q1.5,1.3,4.8,3.85-.3,1.35-5.2,9.75a108.879,108.879,0,0,1-7.1,11.15,56.689,56.689,0,0,1-7.1,6.95q-2.7,2.4-9.2,7.1-9.9,8.2-28.3,16a13.646,13.646,0,0,1-6,1.3,27.778,27.778,0,0,1-6.1-.6q-7.3-1.2-6.3-21.4,2.2-22.3,2.3-26.8a60.313,60.313,0,0,1,3.7-16.75q1.95-5,3.1-8.35a40.386,40.386,0,0,1,4.45-8.4l3.1-4.75m10.45,7.85q1.8-6.8-3.1-9.1-1.6-.8-10.8-2.3a42.381,42.381,0,0,1,6.4-4.5,52.786,52.786,0,0,1,8.6-4.4q4.9-1.7,12,.95,4.3,1.6,6.7,2.25,4.7,1.4,15.1,4,8.6,3.1,11.1,9.9,1.4,4,5.5,17.6,4.05,13.6,3.1,13.5t-6.2-4.25a45.068,45.068,0,0,1-8.55-8.55q-3.249-4.45-4.55-4.3t-3.7,4.3l-3.95,7.3q-1.1,2.1-1.95.15l-5-11.35q-2.749-6.85-7.75-5t-9.6,3.6q-4.65,1.751-4.8-1.45a25.31,25.31,0,0,1,1.45-8.35m-17.55,69.45a13.237,13.237,0,0,0-1.95-1.2q-1.4-.8-1.65,1.25a2,2,0,0,0,1.6,2.5q1.8.4,2.5-.4t.4-1.25a3.842,3.842,0,0,0-.9-.9m2.15-16.35q-.249,1.2.4,1.3a3.067,3.067,0,0,0,1.55-.25q.851-.35.9-.65.051-.35-1.25-1-1.35-.649-1.6.6m23.85,9.75a2.265,2.265,0,0,0-.15-1.9q-.45-.6-2.15-.35a2.538,2.538,0,0,0-2.15,1.4q-.5,1.2,2.55,1.8,1.6.35,1.9-.95m3.25-27.85q-.3-2.4-2.3-1.4-.3.3-2.2.2-1.5,0-1.5,1.7a3.539,3.539,0,0,0,1.2,2.5q1.1,1.3,2.1,1.1a3.619,3.619,0,0,0,1.9-1.6,3.357,3.357,0,0,0,.8-2.5m16.1,7.05a1.049,1.049,0,0,0,.95-.85q.3-1.15-.65-.7-.949.4-1,1,0,.55.7.55m-41.35-23a1.213,1.213,0,0,0-1.25.35,3.581,3.581,0,0,0-.4,2.05q0,1.55.85,1.3a3.963,3.963,0,0,0,1.5-.95,4.36,4.36,0,0,0,.85-1.25.761.761,0,0,0-.25-1,3.313,3.313,0,0,0-1.3-.5"/></svg>