<svg overflow="visible" width="100%" height="100%" viewBox="0 0 116.724 96.892" xmlns="http://www.w3.org/2000/svg"><path d="M56.909.06a78.061,78.061,0,0,0-29.8,7.25q-13.851,6.5-23,23.15-9.2,16.65,2.2,31.75,2,2.8,6.4,8.2.2.2,5.1,5.6a56.708,56.708,0,0,0,5.45,5.2,22.869,22.869,0,0,0,2.7,1.9,25.073,25.073,0,0,1,2.4,1.6,39.39,39.39,0,0,0,4.35,2.7,59.365,59.365,0,0,0,8.55,3.75q5.349,1.95,13.25,4.25a41.17,41.17,0,0,0,15.2,1.3q5-.5,15.1-2.6,10.7-2.1,20.9-13.2a31.265,31.265,0,0,0,5.7-8.7,90.413,90.413,0,0,0,3.5-9.8q5.2-17.8-4.5-33.2a64.733,64.733,0,0,0-22.7-21.3A55.417,55.417,0,0,0,56.909.06m-46,25.15a57.232,57.232,0,0,1,10.85-10.65q5.049-3.551,5.6-3.55t5.5,8.7q4.95,8.7,5.25,21.5a3.207,3.207,0,0,1-.5,2.3,2.8,2.8,0,0,1-2.2.7h-15.3l-13.8.9q-2.2,0-2.6-.5a4.7,4.7,0,0,1-.3-2.6q.8-8.4,7.5-16.8M53.659,3.16q8.049-.851,8.6.05.5.851-.4,7.05a141.281,141.281,0,0,0-1.15,17.85q-.1,4.8-.8,14.4a2.834,2.834,0,0,1-.9,2.2,3.1,3.1,0,0,1-2.2.3l-13.4-.9a2.2,2.2,0,0,1-2.3-2.4,67.929,67.929,0,0,0-9-29.5q-1.6-2.6.4-3.65a53.431,53.431,0,0,1,7.55-2.8,70.511,70.511,0,0,1,13.6-2.6m14.35-.05q.5.1,2.2.4a12.151,12.151,0,0,1,2.1.6l10.9,4.9a55.142,55.142,0,0,1,10.9,6.7q-10.4,6.7-12.4,21.2l-1.4,7.7q-.4,2.9-3.4,2.5l-10.8-1.3a6.022,6.022,0,0,1-2.9-.8q-.5-.6-.4-2.9.2-2.1,1.1-18.7.6-11.3,1.7-18.6.5-2.2,2.4-1.7m26.2,15.8q2.1-2.1,4.1.2l6.5,6.8a30,30,0,0,1,6.6,11.3,75.891,75.891,0,0,1,2.8,12.7q-.251,3.5-.8,6.8-4-1.151-4.5-1.4a67.206,67.206,0,0,0-22.1-6.7q-3.1-.3-3.7-1.2-.5-.7.1-3.9l1.7-8.7a27.884,27.884,0,0,1,9.3-15.9m18.45,41.45a53.343,53.343,0,0,1-3.65,10.25,37.4,37.4,0,0,1-13.9,16.1q-3.2,2-4,1.7-.9-.3-1.9-3.8-2.7-8.6-4-12.9a73.538,73.538,0,0,1-2.6-13.3q.4-6.4.5-6.5.7-.9,7.6.1a37.41,37.41,0,0,1,8.8,2.5q2.8,1.2,6.35,2.7,3.549,1.45,6.25,2.85.3.15.55.3M65.909,48.51q1.7.1,11.3,1.4a2.548,2.548,0,0,1,2.6,2.9,58.331,58.331,0,0,0,2.2,17q1.4,5.5,4.8,16.3.7,2.5.8,2.9a1.92,1.92,0,0,1-1.7,2,39.215,39.215,0,0,1-6.1,1.7,84.973,84.973,0,0,1-14.7,1.3,44.293,44.293,0,0,1-7.6-.8,46.938,46.938,0,0,1,.6-5.6q1.9-11.7,2.7-17.6a120.861,120.861,0,0,0,1.3-17.7q-.1-2.9.5-3.5.5-.5,3.3-.3m-21.3-1.9,12.8,1q2.5.2,2.3,3.1-1.1,14.9-1.3,16.8-.9,6.8-2.35,15.1-1.3,7.5-1.8,9.9a36.9,36.9,0,0,1-3.75-1.2q-7.9-2.8-11.9-4.5a51.257,51.257,0,0,1-11.3-6.3q11.3-12.1,13.9-30.8a4.166,4.166,0,0,1,1.1-2.5,2.892,2.892,0,0,1,2.3-.6m-7,.7q1.6.6,1,2.6-2.9,16.5-11.5,26.4-1.7,1.8-2.3,1.9-.7.1-2.5-1.5a31.933,31.933,0,0,1-5.2-5.2q-4.8-5.9-7.1-8.9a37.037,37.037,0,0,1-5.6-9.9q-1-3.2-.6-3.8.5-.6,3.8-.8l26.8-.9a9.073,9.073,0,0,1,3.2.1"/></svg>