<svg overflow="visible" width="100%" height="100%" viewBox="0 0 104.195 115.314" xmlns="http://www.w3.org/2000/svg"><path d="M75.09,47.3q-2.5-1.65-4.85-3.15a19.932,19.932,0,0,0-7.05-2.45,42.322,42.322,0,0,0-11.65-.25q-9.4,1-14,1.7a40.108,40.108,0,0,0-13.4,4.3q-2.4,1.1-1.6,3.9.5,1.8,6.9,25.7.7,2.6.4,3.1-.4.6-2.8.8a43.916,43.916,0,0,0-9.9,2.2q-.8.3-9.5,3.6a11.028,11.028,0,0,0-3.1,2.4q-3.7,3-4.4,8.9-.9,6.3,4,9.5a29.558,29.558,0,0,0,11.95,4.25q7.05,1.05,19.55,2.35a99.509,99.509,0,0,0,20.1,1,105.24,105.24,0,0,0,16-1.2q5.3-.7,15.9-2.6,3.7-.6,12.6-4.3a7.02,7.02,0,0,0,3.4-2.6,2.9,2.9,0,0,0,.2-3.1q-2.8-5.5-5.2-7-6.2-3.6-9.5-5.1a39.782,39.782,0,0,0-10.5-3.2q-4.7-1.15-10.25-2.3-1.05-.2-1.65-.3v-.1q1.55-4.5,2.85-8,1.5-.15,5.7-.7,9.5-1.3,13.1-1.95a9.554,9.554,0,0,0,5.65-3.1,13.36,13.36,0,0,0,2.7-4.45,7.641,7.641,0,0,0-.1-4.4,6.89,6.89,0,0,0-2.3-3.6q-1.8-1.5-6.7-1.8Q82.69,55,79.49,55a6.634,6.634,0,0,0-.9.05,2.669,2.669,0,0,0,.2-1.55,10.572,10.572,0,0,1-.2-1.25,16.44,16.44,0,0,0-.55-1.9q-.45-1.4-2.95-3.05m-.15,4.9a3.309,3.309,0,0,1-.1,2.85,96.908,96.908,0,0,0-3.8,9.1l-10.1,27.9q-.6,1.8-1,2.95a2.4,2.4,0,0,1-1.45,1.55,31.3,31.3,0,0,1-5.2.95,63.566,63.566,0,0,1-12.15-.05q-3.8-.3-5.2-1.7-1.4-1.5-1.6-5.4a97.17,97.17,0,0,0-3.5-18.7q-4.1-15.2-4.8-18.7a10.454,10.454,0,0,0,5.5,2.7,31.14,31.14,0,0,0,5.4.3l10.6.3A100.368,100.368,0,0,0,64.09,54.7q9.5-1.5,10.85-2.5M71.39,72.4q-.8,0,.15-1.95.949-2,2.6-6.65a27.97,27.97,0,0,1,2.9-5.95,2.055,2.055,0,0,1,1.5-.5q3.249.3,8.65.75,5.349.45,6.45,2.65a5.667,5.667,0,0,1,.05,4.6q-.951,2.4-4.75,4.1a20.053,20.053,0,0,1-6.55,1.95q-2.7.2-3.95.35-1.251.1-3.75.35t-3.3.3M65.74,86.35q.6.15,1.45.35,3.849.9,10.65,2.25l.5.1a33.283,33.283,0,0,1,9.8,2.8q2.2,1,8.9,4.8a9.615,9.615,0,0,1,2.4,2.5,5.82,5.82,0,0,1,1.3,3,2.674,2.674,0,0,1-1.6,2.5,18.934,18.934,0,0,1-3.1,1.2,68.1,68.1,0,0,1-18.3,4.2q-14.4,1.8-20.4,2.2a92.709,92.709,0,0,1-20.6-.8,152.33,152.33,0,0,1-25.4-4q-9.8-1.5-8.6-10.1a9.569,9.569,0,0,1,5.7-7.7q5.9-2.7,8.6-3.7a29.643,29.643,0,0,1,9.3-1.9q3.2-.1,4,.5.7.7.9,4.1a37.134,37.134,0,0,0,.5,4.4,9.449,9.449,0,0,0,2.1,4.8,7.433,7.433,0,0,0,4.7,1.9,79.406,79.406,0,0,0,8.6.4q4.9-.2,8.15-.5a12.231,12.231,0,0,0,4.6-1.15,10.173,10.173,0,0,0,1.9-1.35,6.074,6.074,0,0,0,1.05-2.1l2.9-8.7M82.89,60a8.865,8.865,0,0,0-4.95,3.55q-2.3,2.95-1.15,4.4a6.035,6.035,0,0,0,3.75,1.95q2.5.45,6-1.7,4.5-3.5,3.45-5.4a5.555,5.555,0,0,0-2.75-2.65A7.5,7.5,0,0,0,82.89,60m1.65,1.85q2.55.05,3.1,1.15t-1.2,2.85a7.593,7.593,0,0,1-5.25,1.8q-3.55.1-1.4-2.85,2.149-3,4.75-2.95m-42.8-47.7q-.5-1.7.6-5.7a52.644,52.644,0,0,0,2.45-6.1Q45.339.4,44.24.05q-.2-.15-.9.15t-1.1,1.7a49.942,49.942,0,0,1-2.8,6.05q-1.7,4.4-.95,6.6a4.473,4.473,0,0,1-.5,4.1A20.649,20.649,0,0,0,36.14,22a3.1,3.1,0,0,0,.4,3,3.055,3.055,0,0,1,0,3.35,9.392,9.392,0,0,1-3.1,2.7,3.273,3.273,0,0,0-1.2,1.5,1.424,1.424,0,0,0,.2,1.3.853.853,0,0,0,1.2.2l5.3-3.7q2.7-1.9,1-4-1.9-2.8.5-5.8a7.23,7.23,0,0,0,1.3-6.4m19-4.9q1.2-2.7,1.85-4.55t.35-2.35a1.348,1.348,0,0,0-1.05-.6q-.75-.1-1.45.9a43.915,43.915,0,0,1-2.3,5.2,10.614,10.614,0,0,0-1.1,5.5q.9,3.1-2.2,5.5-2.9,2-1.4,4.2a3.577,3.577,0,0,1,.5,2.9,8.782,8.782,0,0,1-1.5,2.4q-.1.1-3.5,4.5a14.23,14.23,0,0,0-2.8,4.8q-.351,1.2,1.1,1.4.45.05,3.8-4.15,3.3-4.249,5.3-7.25a4.522,4.522,0,0,0,.8-2,3.237,3.237,0,0,0-.2-2,3.177,3.177,0,0,1,1.1-3.8q3.5-2.8,1.9-6a3.032,3.032,0,0,1-.2-2.4q.7-1.4,1-2.2"/></svg>