<svg overflow="visible" width="100%" height="100%" viewBox="0 0 99.209 117.167" xmlns="http://www.w3.org/2000/svg"><path d="M54.84,3.5a29.41,29.41,0,0,0-5.7,2.45q-5.9,3-10.3,11.7l-36.5,73.3q-1.6,3.5-1.85,4.3a14.836,14.836,0,0,0-.45,3.6,4.664,4.664,0,0,0,.6,3.3,54.267,54.267,0,0,0,4.7,6,20.045,20.045,0,0,0,6.3,4.4,51.118,51.118,0,0,0,10.9,3.3,114.957,114.957,0,0,0,16.1,1.3q6.3.3,12.1-6.2,2.2-2.5,5.7-7.4,3.4-4.6,10.5-13.5a89.742,89.742,0,0,0,9.3-14.4q1.6-3.4,9.4-18,2.7-5.1,2.9-5.7l9.3-26.1q2.55-6.8.35-11.3a24.262,24.262,0,0,0-4.8-6.95q-2.6-2.4-9.95-5.3Q76.041-.6,70.09.154A72.165,72.165,0,0,0,61.24,1.6q-2.9.75-6.4,1.9m-28.1,47.45q-.4-1.7,2.5-7.6,11.4-22.8,12.2-24.5,4.8-10.4,14.5-12.9,9.65-2.5,15.4-2.4A25.555,25.555,0,0,1,81.59,5.6a45.943,45.943,0,0,1,6.15,3.15q1.7,1.1,5.55,5.85t2.05,9.95q-5.9,16.7-8,22.1a150.566,150.566,0,0,1-10.2,21.2,9.579,9.579,0,0,1-2.6,3.2q-.65.4-5.15-.1-14.6-1.95-19.65-3.7a51.056,51.056,0,0,1-17.3-10.1q-5.3-4.7-5.7-6.2m-22.9,43.7q1.1-2.5,3.7-7.5l14.3-28.9q1.6-3.3,2.4-3.4t3.9,2.2q8,6.3,13.2,9.6a33.5,33.5,0,0,0,8.55,3.6q4.7,1.3,11,2.55a94.468,94.468,0,0,0,9.55,1.45q3.2.2,1.8,2.55a45.37,45.37,0,0,1-3.3,5.85q-.7,1-5.1,6.8-9.2,11.7-13.6,17.7-6.3,8.2-15.7,7.2a86.668,86.668,0,0,1-21.3-4.3,17.365,17.365,0,0,1-5.4-3.5,51.858,51.858,0,0,1-4.2-4.7q-2-2.5.2-7.2"/></svg>