<svg overflow="visible" width="100%" height="100%" viewBox="0 0 115.614 98.831" xmlns="http://www.w3.org/2000/svg"><path d="M67.164,2.4q-4.8,8.6-6.3,11.6a68.8,68.8,0,0,0-4.9,12.1q-.45,1.551-1.15,3.7-.549,1.65-3.65,1.7a64.125,64.125,0,0,0-10.35,1.25,62.021,62.021,0,0,0-17.6,6.15q-8.8,4.5-18.1,18.3-3.7,6-4.4,7.2-1,1.9-.6,2.9a3.252,3.252,0,0,0,2.3,1.7q.85.251,1.65.5a2.1,2.1,0,0,1,1.35,1.6,15.312,15.312,0,0,0,.8,2.2q1.1,2.6,3.5,7.4a2.1,2.1,0,0,0,2.65,1.15q1.8-.5,2.25.75,4.1,11,12,11.6a30.45,30.45,0,0,0,15.6-2.1,142.468,142.468,0,0,0,14.1-7.1,6.358,6.358,0,0,1,7.9.1,56.335,56.335,0,0,1,5.8,6.5,13.619,13.619,0,0,0,5.1,4.3q1.5.8,6.1,2.6a2.392,2.392,0,0,0,2.6-.1,2.433,2.433,0,0,0,1-2.4,22.479,22.479,0,0,0-1.8-6.1q-1.8-3.9-2.6-5.9-1.2-2.7,1.8-2.9a55.772,55.772,0,0,0,14.35-2.2q5.5-1.849,5.9-.55.351,1.251.85,2.75.45,1.45.85,3.3a9.737,9.737,0,0,0,2.45,4.2,48.882,48.882,0,0,0,4.4,3.9q2.2,1.9,3.6-.7a10.625,10.625,0,0,0,1-4.8,120.861,120.861,0,0,0-1.4-13.2q-3.9-23.2-3.4-41,.1-2.8,2.2-19.6a9.882,9.882,0,0,0,.1-2.3,1.738,1.738,0,0,0-1.5-1.4q-2.1-.7-3.3,2.2-3.5,7.7-6.3,14.75t-5.75,8.85a9.057,9.057,0,0,1-6.25,1.3,20.033,20.033,0,0,1-5-1.35,12.643,12.643,0,0,1-3.95-4,14.712,14.712,0,0,1-2.8-5.95q-1-7.9-1.5-11.8a34.476,34.476,0,0,0-3.3-11.3q-1.3-2.3-3.2-2.2-1.8.1-3.1,2.4M17.014,47.5a63.935,63.935,0,0,1,8.7-6.45,45.506,45.506,0,0,1,7.85-3.7,57.524,57.524,0,0,1,11.55-2.4,95.774,95.774,0,0,1,9.7-1q2.2,0,3.95-5.75,1.7-5.75,4-11.6a66.794,66.794,0,0,1,6.75-12.5q1.6-2.25,2.25.15a72.16,72.16,0,0,1,2,9.35q.6,3.7,1.5,11.5a21.563,21.563,0,0,0,3.1,7.45q2.65,4.5,4.45,5.25a28.266,28.266,0,0,0,4.35,1.35,26.65,26.65,0,0,0,5.7.55q3.15-.05,6.4-3.8,3.251-3.8,7.75-15.1a14,14,0,0,1,1.75-3.25q1.1-1.2.85.25-.3,2.751-1.2,9.8a99.031,99.031,0,0,0-.8,11.1,162.338,162.338,0,0,0,2.3,26.35,206.942,206.942,0,0,1,2.7,22.2q.15,1.9-1.55,1.15a8.052,8.052,0,0,1-3.85-4.4,69.7,69.7,0,0,0-2.4-7.4,2.8,2.8,0,0,0-3.2-2.3q-.2,0-4.3,1.1L83.714,78q-5.6.8-5.8.9-2.5,1.1-.8,4.7.9,2.2,2.6,5.9.8,1.95,1.45,3.85.8,2.4-1.15,1.75a18.735,18.735,0,0,1-6.6-4.2q-4.2-4.8-6.6-7.2a9.644,9.644,0,0,0-5-3,9.839,9.839,0,0,0-5.7,1.4L44.714,88a31.42,31.42,0,0,1-18.3,3.1,8.414,8.414,0,0,1-6.9-4.5,26.944,26.944,0,0,1-2.4-5.25q-1.149-3.2.4-4.85.8-.9,2.75,2.25a40.822,40.822,0,0,0,2.25,3.45q1.3,1.7,2.3,1.8t2.5-1.4a7.338,7.338,0,0,1,2.8-2,4.4,4.4,0,0,1,3.3,1.3,3.763,3.763,0,0,0,3.5.8,3.941,3.941,0,0,0,2.9-2.2q1.8-3.8,3.7-8.5,1.851-4.751,1.7-5.55-.1-.8-.55-.9a1.414,1.414,0,0,0-1.05.25,2.5,2.5,0,0,0-.9,1.25,2.517,2.517,0,0,1-1.6,1.25,6.718,6.718,0,0,1-2.4.3q-16.2.3-24.3.1a28.679,28.679,0,0,1-4.6-.7q-3-.8-4.6-1.2-1.3-.3-1.4-1.1a3.329,3.329,0,0,1,.5-1.8,56.089,56.089,0,0,1,12.7-16.4m-8.2,23.25a39.946,39.946,0,0,0,10.1,1.05q5.8-.3,17.4-.5,3.3-.1,3.6.8.2.6-1,3.8-1.3,3.3-2.2,3.6t-4-1.5q-2.5-1.6-4.1-.4-.6.5-2,1.7-1.2,1-1.8.8a3.551,3.551,0,0,1-1.6-1.5q-.9-1.6-1.4-2.3-2.7-4.4-5.2-3.1a19.345,19.345,0,0,0-3.7,3.85q-1.3,1.4-2,0-1.4-2.749-2.55-5.3a1.822,1.822,0,0,0-.1-.25q-.4-.9.55-.75m24.5-20.6q1.35-.45,1.4-1.15-.05-.649-.9-.6-1.95.051-1.9,1.3,0,.851,1.4.45"/></svg>