<svg overflow="visible" width="100%" height="100%" viewBox="0 0 115.759 64.52" xmlns="http://www.w3.org/2000/svg"><path d="M112.833,19.656a24.449,24.449,0,0,1-2.8.9,67.407,67.407,0,0,1-25.3,4.1,63.075,63.075,0,0,1-24.9-6.1l-27.7-13.3a51.373,51.373,0,0,0-21.8-5.25,46.359,46.359,0,0,0-6.45.3,4.138,4.138,0,0,0-3.65,2.75q-1,3,2.3,4.3a2.327,2.327,0,0,1,1.6,3,32.692,32.692,0,0,0,1,18.5,40.753,40.753,0,0,0,9.8,15.9,3.365,3.365,0,0,1,1.1,2q.1,1-1.3,1.9a4.271,4.271,0,0,0-1.05,1,.33.33,0,0,0-.15.15,8.285,8.285,0,0,0-1.3,4.45,7.04,7.04,0,0,1-.25,2q-.25.9-.65,2l-.4,1q-.7,3,1.8,4l.8.3a8.7,8.7,0,0,0,1.3.2,4.026,4.026,0,0,0,1.1-.05,5.079,5.079,0,0,0,1.8-.65,5.022,5.022,0,0,0,2.4-4.3,5.616,5.616,0,0,1,0-1.5,3.641,3.641,0,0,1,.25-1,4.991,4.991,0,0,1,1.45-2.2,2.007,2.007,0,0,1,.3-.25,3.4,3.4,0,0,1,4.3-.05q4,2.4,10.4,2.4,1.7,0,28.1.3a215.229,215.229,0,0,0,28-1,3.779,3.779,0,0,1,3,.9,1.173,1.173,0,0,1,.3,1.6q-.3.4-1,1.3a2.973,2.973,0,0,0,0,2.8,3.591,3.591,0,0,0,1.65,1.65l1.6.65a6.1,6.1,0,0,0,3-.05l.8-.3a5.065,5.065,0,0,0,.6-.3q1.8-1.1,1.2-3.7-.2-.5-.4-1a4.473,4.473,0,0,1-.1-2.5q.249-1.4.4-3.05.1-1.7,3.4-5.25,3.35-3.65,3.85-15.65-.2-4.3,2.3-6.4,3.2-2.6,1.8-5.2a2.4,2.4,0,0,0-2.5-1.3m-14.7,6.6q7.3-1.7,14-3.6,1.449.651-4.35,3.5a33.559,33.559,0,0,1-12.95,3.25,96.378,96.378,0,0,1-12.45,0q-5.35-.45-10.35-.65a60.959,60.959,0,0,1-30.8-9.8q-.1,0-8.9-6.6a27.965,27.965,0,0,0-9.8-4.9q-2.9-.6-9.35-1.25a44.774,44.774,0,0,1-9.95-1.95q-.75-2.3,3.15-1.9,3.849.4,10.65,1.4a48.849,48.849,0,0,1,11.2,2.8q.9.3,7.5,3.5l21,10.2a71.154,71.154,0,0,0,22.7,6.5q11.349,1.2,18.7-.5m6.8,4q2-.8,2.65-.15t.7,5.25q.05,4.6-4.6,10.35a17.272,17.272,0,0,1-11.45,6.65,124.429,124.429,0,0,1-16.3,1.1h-16.4q-7.2-.2-10.9-.2-6.5-.1-10.9.2-8.4.4-15.9-5.7-17.4-14.4-15.4-34.6.4-3.3,1.1-3.9.8-.7,4.1-.4,9.8,1,12.4,2,3.1,1.1,15.6,10.7,12.45,9.6,38.7,10.4,4.5.25,13.4.1a40.956,40.956,0,0,0,13.2-1.8m-6.7,25.65q-.651-1.149.65-1.9,1.6-.95,2.15-.35a2.917,2.917,0,0,1,.3,2.4,5.426,5.426,0,0,0-.1,2.5,8.263,8.263,0,0,1,.35,1.8q.1,1.05-1.8,1.4t-2.1-1.05a14.126,14.126,0,0,0,.75-2,3.363,3.363,0,0,0-.2-2.8m-77.9-5.35q.5,1.3-.45,1.8a3.79,3.79,0,0,0-1.5,1.4,6.835,6.835,0,0,0-.95,2.5q-.1.5-.15,1a8.455,8.455,0,0,0-.05.95,6.924,6.924,0,0,1-.3,1.6q-.3,1.1-.9,1.1a1.363,1.363,0,0,1-1-.35,4.188,4.188,0,0,1-.4-2.3,6.7,6.7,0,0,1,.1-1.1q.1-.5.2-.9a18.515,18.515,0,0,0,.4-2.5,3.792,3.792,0,0,1,1.1-2.8,5.608,5.608,0,0,1,1.2-1,2.869,2.869,0,0,1,1.25-.45q.649-.05,1.45,1.05"/></svg>