<svg overflow="visible" width="100%" height="100%" viewBox="0 0 116.701 23.847" xmlns="http://www.w3.org/2000/svg"><path d="M111.7,15.56h-5q2.9-1.8,2.7-2.2t-1.9-.3q-2.5.1-3.1.2a6.692,6.692,0,0,0-2.9,1.2q-1.9,1.6-6.2,1.2l-61-7.7a5.007,5.007,0,0,1-2.2-.7,3.069,3.069,0,0,1-.8-2.2q-.1-2.9-.8-3.5-.6-.6-3.5-.8L14.6.16Q8-.04,5.9.01a10.463,10.463,0,0,0-3.55.6Q.9,1.11.2,1.41q-.75.3,1.3,1.9A30.19,30.19,0,0,0,5.1,5.76q4.2,2.5,19.8,9.1a4.837,4.837,0,0,0,3.2.8q1-.3,1.6-2.5a3.2,3.2,0,0,1,1.3-2.2,5.74,5.74,0,0,1,2.5-.1l56.2,6.8a53.93,53.93,0,0,1,5.8.9,9.324,9.324,0,0,1,4.9,3.2q.2.3,1,.3.8-.1.15-2.1-.65-2.05,1-.8t3.4,2.55q1.751,1.249,2.35,1.05.5-.2-1.6-3.1a13.88,13.88,0,0,1,5.6,2.95,4.525,4.525,0,0,0,4.4,1.1,10.257,10.257,0,0,0-2.3-2.1q-1.55-1.1-2.75-2.05-1.249-1,.8-2.3,2-1.35,1.85-1.65-.2-.349-2.6-.05m-87-11.8a8.611,8.611,0,0,1,2.3.2q.3.1.6.7.2.4.5,1.1l-1.8.6a8.437,8.437,0,0,1-3.35-.15,6.219,6.219,0,0,1-2.05-.95l-.9-.8a4.912,4.912,0,0,1,2.1-.7,15.948,15.948,0,0,1,2.6,0"/></svg>