<svg overflow="visible" width="100%" height="100%" viewBox="0 0 92.159 115.681" xmlns="http://www.w3.org/2000/svg"><path d="M46.006,7.1q-.7-1.849-1.3-1.95a2.265,2.265,0,0,0-.95,0,1.053,1.053,0,0,0-.65.7,1.758,1.758,0,0,0,.3,1.55,3.985,3.985,0,0,1,.25,2.7q-.2,1.1-.6,3-.3,1.3-.95,3.7a56.472,56.472,0,0,0-1.3,5.5q-.6,3.15-6.45,4.35-5.9,1.15-5.8,4.25.1,3-1.15,2.25a4.653,4.653,0,0,1-1.85-2.7,6.344,6.344,0,0,1-.35-2.8q.15-.849,1.8-6.45t2.45-8.8a18.839,18.839,0,0,0,.2-9.4q-1.6-5.2-5.5-1.4-2.3,2.4-6.6,7.4-1.6,1.9-2.2,1.9t-2.3-1.7a54.382,54.382,0,0,0-6.9-6.9q-4.6-3.5-5.9,2.6a18.442,18.442,0,0,0,.9,9.2q2.8,8.6,2.9,8.9,1.2,5.1,6.8,7.2a52.859,52.859,0,0,0,5.2,1.7,6.815,6.815,0,0,1,3.9,3.5,12.749,12.749,0,0,0,2.75,3.85,11.423,11.423,0,0,0,4.35,2.65q2.7.7,3.3,4.3a44.531,44.531,0,0,0,1.9,6.5,24.144,24.144,0,0,1,1.6,6.6,11.719,11.719,0,0,0,2.7,8.7,10.4,10.4,0,0,1,1.6,2.3,3.957,3.957,0,0,1,.1,2.9,6.306,6.306,0,0,0,1.1,5.55,3.951,3.951,0,0,1,.85,2.9,14.474,14.474,0,0,0,.3,4.9,15.645,15.645,0,0,0,1.45,4.85q2,3.3,0,9.35a34.892,34.892,0,0,0-2.1,10.6q-.05,4.551,2.45,3.45a17.84,17.84,0,0,0,4.65-3q2.1-1.9,2.65-.75a23.208,23.208,0,0,0,1.45,2.45q1.5,1.7,2.9.7a2.855,2.855,0,0,1,3.8.1q1.9,1.7,2.9,1.3a10.312,10.312,0,0,0,3.2-1.75,5.465,5.465,0,0,0,2.05-2.55,13.022,13.022,0,0,0,.3-3.15,10.406,10.406,0,0,0-2.15-5.15q-2.7-3.5-4.2-5.55-.6-.8-1.1-1.35a1.577,1.577,0,0,1,0-2.35,8.669,8.669,0,0,0,2.3-6.95,4.917,4.917,0,0,0-1.2-3.1,4.066,4.066,0,0,1-1.2-2.1,2.371,2.371,0,0,1,.9-2.1q3.4-3.4.2-7.2-1.3-1.5-.6-4.5,1.4-4.7,2-7.2.551-2.55.7-3.25.1-.7.4-1.9.251-1.249.55-2.85.251-1.6.6-3.45a5.239,5.239,0,0,1,1.3-2.8A21.048,21.048,0,0,1,67.756,44l1.35-.9q1.05-.7,1.55-1.05a12.736,12.736,0,0,0,1.75-1.5,18.984,18.984,0,0,1,4.15-2.6q3.15-1.65,9.45-8.6t6.15-14.55a70.847,70.847,0,0,0-.45-8.8,2.4,2.4,0,0,0-1.45-1.7,3.488,3.488,0,0,0-2.65.05q-1.451.551-4.35,1.95a74.07,74.07,0,0,0-7.1,4.5q-2.3,1.5-3.3-1.1l-2.9-6.4q-1.3-2.5-3.5-1.8a12.036,12.036,0,0,0-7.5,7,11.844,11.844,0,0,0-.25,9.45,77.624,77.624,0,0,0,4.25,8.5,42.186,42.186,0,0,0,3.7,5.85q1.4,1.7.4,2.9a5.617,5.617,0,0,1-3.4,1.6q-1.9.351-2.2-.3-.45-1.05-.9-2.2-2-5.4-4.1-7.55a3.857,3.857,0,0,1-1.2-2.25,9.941,9.941,0,0,1,.1-2.3q.3-2.2.8-7t-.9-5.05a1.406,1.406,0,0,0-.95.45q-.6.5-.75,4.7a27.187,27.187,0,0,1-.95,6.55,5.779,5.779,0,0,1-2.55,3.45,4.767,4.767,0,0,1-3.9.35q-2.2-.649-2.5-2.25a7.245,7.245,0,0,1,.4-3.6,63.838,63.838,0,0,0,1.8-6.9q.8-4,.15-5.8m14.95,3.75A11.387,11.387,0,0,1,64.056,7q2.1-1.9,2.9-1.7.7.1,1.9,2.6l2.1,4.5q1.1,2.2,2.2,2.5,1,.3,3.3-1.1,3.9-2.5,6.9-4.4a17.522,17.522,0,0,1,4.8-2.4q1.8-.45,1.1,7.4a22.466,22.466,0,0,1-6.05,13.5q-5.349,5.65-7.95,6.9t-4.7-1.55a87.314,87.314,0,0,1-5.3-8.55q-3-7.2-3.9-9.8a6.478,6.478,0,0,1-.4-4.05M26.556,3q1.549-.849.3,5.7-1.3,6.5-2.9,12.7-.5,2-1.1,4.7a8.091,8.091,0,0,1-1.95,4.05q-1.35,1.3-7.1-1.7Q8.057,25.4,6.856,22.1a84.9,84.9,0,0,1-3.7-11.2q-1.451-7.3.4-6.5a12.638,12.638,0,0,1,4.1,3q1.2,1.2,3.4,3.8,3,3.2,4.1,3.2,1.1.1,3.9-3.1,2.6-3,4.3-5.2a10.586,10.586,0,0,1,3.2-3.1m28.45,26.7a9.593,9.593,0,0,1,2.3,3.85q1.151,2.95,3.05,7.7,1.849,4.7-1.35,9.5a10.767,10.767,0,0,1-8.4,5.2q-5.25.351-7.45.45-7,.6-8.25-3.25a76.358,76.358,0,0,1-2.5-12.8q-1.2-9,4.3-10.7a30.247,30.247,0,0,1,11.35-1.25q5.8.45,6.95,1.3m-3.95,28.8q8.35-1.5,7.25,2.55-1.15,4-1.9,7.05-.75,3-4.65,4.5a7.888,7.888,0,0,1-7.4-.7,19.586,19.586,0,0,1-7.7-9.4q-1.1-2.5,1.7-2.5a78.723,78.723,0,0,0,12.7-1.5m-8.6,20.05q-2.9-1.95-1.45-3.6,1.4-1.6,4.2.55,2.749,2.1,7,.2,4.2-1.95,5.15-2.55.949-.649.9,1.35a5.759,5.759,0,0,1-1.2,3.35,26.97,26.97,0,0,1-3.25,3.2q-2.15,1.851-2.85,1.85a10.4,10.4,0,0,1-3.15-1.2,46.068,46.068,0,0,1-5.35-3.15m2.05,4.55a23.518,23.518,0,0,0,4.15,2.15q1.9.751,6-.65a2.139,2.139,0,0,1,2.9.9,4.073,4.073,0,0,1,.3,3.8,11.787,11.787,0,0,1-2.4,3.25,10.98,10.98,0,0,1-3.75,2.8q-1.751.6-4.55-1.65-2.85-2.25-3.4-4.05-.6-1.849-.95-3.2a10.717,10.717,0,0,1-.4-3.05q-.1-1.749,2.1-.3m3.75,14.5a8.769,8.769,0,0,0,5.7-.2q1.65-.7,2.2-.25a15.923,15.923,0,0,1,1.95,2.35q1.35,1.9,3.6,5.25t2.15,4.25a5.483,5.483,0,0,1-2.15,2.55q-1.95,1.5-2.15.35-.7-3.5-1.8-4.1-1.4-.8-3.45,2.55-1.35,2.151-2.65-1.55-.649-2.55-1.05-3.95-.551-1.65-1.65-.4a24.987,24.987,0,0,0-2.4,3.25,14.364,14.364,0,0,1-2.45,2.9q-1.751,1.35-1.35-.85,1.5-7.1,2.15-9.45.649-2.4,1.25-2.7a2.792,2.792,0,0,1,2.1,0"/></svg>