<svg overflow="visible" width="100%" height="100%" viewBox="0 0 109.296 116.566" xmlns="http://www.w3.org/2000/svg"><path d="M7.86,52.906q-2.8,1-3.2,4.7l-4.6,30.4a3.571,3.571,0,0,0,.9,3.349,2.586,2.586,0,0,0,2.85.4,7.243,7.243,0,0,0,2.8-1.85q1.05-1.2,1.6-1.85,1.35-1.651,1.95-.55,2.6,4.65,4.25,4,1.85-.8,2.9-10.8a92.7,92.7,0,0,0,.35-17.8q2.8,1,7.7,3a25.93,25.93,0,0,0,9.2,1.55,20.378,20.378,0,0,0,2.1-.15,14.452,14.452,0,0,0,1.15,4.5,6.353,6.353,0,0,0,2,3,7.444,7.444,0,0,0,3.15,1.1,5.221,5.221,0,0,1,.6.1q.3.049.65.1,2.049.3,5.65.9a14.036,14.036,0,0,0,6.4-.6,4.356,4.356,0,0,1,5,1q1.9,1.9,6.1,5.4a14.705,14.705,0,0,1,4.6,6.5,2.086,2.086,0,0,1-.1,1.9,2.419,2.419,0,0,1-1.8,1q-3.3.5-9.8,1.3-6.6.7-9.9,1.2-8.2,1.2-9.4,8-.4,2.4.2,3.1.8.9,3.1.2a13.851,13.851,0,0,1,7.15-.7q1.6.4,1,1.8-.6,1.352-1.9,4.7-1.35,3.249,5.2,4.35a30.665,30.665,0,0,0,13.3-.75q6.75-1.9,6.35-10.2-.4-4.6,1.4-13.3,1.9-8.8,1.6-13.2.2-4.9-4.6-6.9a35,35,0,0,0-6.05-1.35q-4.6-.8-5.05-.95-.45-.2-1.25-.651-.85-.549,1.05-.4,1.849.05,4.25.2a10.314,10.314,0,0,0,6.9-2c.166-.134.317-.25.45-.35a5.655,5.655,0,0,1,3.05-.7h2.35q2.1,0,4.8.2,1.4.1,1.65.9t.55,2.3a1.113,1.113,0,0,0,1.2,1q.9,0,1.3-1.2a5.317,5.317,0,0,0,.3-.85,4.3,4.3,0,0,0,0-2.9,3.532,3.532,0,0,0-1.9-1.65,14.643,14.643,0,0,0-5.5-.7h-4.5q-.6,0-.75-.351,0-.449.05-1.2.049-.951,1.6-.7a10.743,10.743,0,0,0,5.4-.55,9.155,9.155,0,0,0,4.7-4.4,8.231,8.231,0,0,1,2-2.9,5.126,5.126,0,0,1,1.85-.25,27.777,27.777,0,0,1,4.45.451q3.249.45,3.9,3.25a11.232,11.232,0,0,0,1.5,3.9,2.1,2.1,0,0,0,1.8,1.1q1-.1,1.1-.451a21.659,21.659,0,0,0-1.15-4.3q-1.3-4-2.4-5.15a17.165,17.165,0,0,1-1.45-1.65,1.144,1.144,0,0,1,0-1.3q.7-2.1,1.1-3.2a2.52,2.52,0,0,1,2.3-1.8q1.3.2.9.9-.2.3-.7,1-1.05,1.8.65,2.1,1.4.249,3.5-2.25,2.049-2.55,1.45-3.351a2.817,2.817,0,0,0-1.1-1.1,45.279,45.279,0,0,0-4.8-.7q3.7-6,2.1-11.8-1.251-4.952-5-6.651-1.551-.649-.35-1.349a7.628,7.628,0,0,0,2.65-2.4,6.222,6.222,0,0,0,.3-5.8,7.63,7.63,0,0,0-5-3.7,3.561,3.561,0,0,1-1.2-.5q-.4-.3-.1-1.3,1.1-3.6-1.15-4.6A18.575,18.575,0,0,0,90.96.355a17.857,17.857,0,0,0-3.6-.349,8.919,8.919,0,0,0-2.85.6,6.707,6.707,0,0,0-2.75,2.151,22.375,22.375,0,0,0-2.1,2.75,11.345,11.345,0,0,0-1.25,2.45q-.5,1.2-1.3,3.149-.85,1.951.75,1.25a8.049,8.049,0,0,1,3.25-.7,50.743,50.743,0,0,0,10.35-.9q1.8-.451,1.95,1.75.1,1.5.5,4.15.75,5.5.15,7.35a19.5,19.5,0,0,0-1,6.5q.049,3.3,0,3.8-.1,2.4-.6,2.8-.4.5-3,.9a21.409,21.409,0,0,0-5.35,1.95,7.029,7.029,0,0,1-2.95.85,12.411,12.411,0,0,0-5.4.9q-.3.2-4.9,2.4a10.273,10.273,0,0,1-4.1,1.5,21.563,21.563,0,0,0-10.1,2.8,41.318,41.318,0,0,0-8.2,6.2,21.209,21.209,0,0,1-7.4,4.6q-4.7,1.6-8-.7a69.319,69.319,0,0,0-6.7-3.8,13.808,13.808,0,0,0-7.4-1.4q-3.1.1-4,1a.144.144,0,0,0-.05.1q-.4.4-1.15,0-3.5-2.25-5.9-1.5m-.6,6.4a6.322,6.322,0,0,1,1-2.7q.8-1.048,4.35.4a2.241,2.241,0,0,1,1.55,1.8,118.225,118.225,0,0,1,.9,14.3,65.091,65.091,0,0,1-1.15,12.651q-.4,2.149-1.55,0l-1.1-2.05q-1.1-1.8-1.6-1.9-.5,0-1.8,1.6l-4.1,5.1q-1.1,1.2-.9-.5l4.4-28.7m77.8-55.65a4.563,4.563,0,0,1,1.9-1.051,25.931,25.931,0,0,1,3.75-.3,3.447,3.447,0,0,1,3.8,2.35q1,2.5-3.45,3.75a22.685,22.685,0,0,1-7.3.75q-2.651-.2-1.8-1.35a22.8,22.8,0,0,1,3.1-4.15m11.1,28.35q0-4.4.1-4.9a2.731,2.731,0,0,1,1.7-2.4,3.067,3.067,0,0,1,2.9.9,6.7,6.7,0,0,1,2.1,4.2,26.041,26.041,0,0,1-.3,4.5q-.3,2.7-4,3.8-2.4.9-2.6-1.7l.1-4.4m-24.7,18.3q3.9,4,2,9.75-1.95,5.7-5.35,5.95-3.45.2-5.2.15a4.843,4.843,0,0,1-2.95-1,21.021,21.021,0,0,0-3.5-2.15,44.805,44.805,0,0,1-6.4-2.9,2.081,2.081,0,0,1-1.4-1.4,1.714,1.714,0,0,1,.9-1.6q9.7-6.3,13.2-7.8a9.261,9.261,0,0,1,4.4-.7,6.153,6.153,0,0,1,4.3,1.7m21-9.5a4.992,4.992,0,0,1,.7.049q5.4.2,5,3.951-.2,3.3-3.8,3.8-.649.051-1.2.1a8.894,8.894,0,0,1-2.6-.351,2.127,2.127,0,0,1-1.45-1.549,9.709,9.709,0,0,0-.65-1.85,18.494,18.494,0,0,0-1.15-2q-.8-1.251.6-1.7a16,16,0,0,1,4.55-.45m-11.6,3q5.5.1,6.1,4.2a8.6,8.6,0,0,1-2.2,7.7q-3.9,4.2-7.3-.3-.5-.6-4.5-8.9a11.13,11.13,0,0,1,7.9-2.7m-59.7,12.4q2.8.3,7.55,3.05,4.75,2.7,6.9,3.849,2.1,1.151.65,2.151a3.521,3.521,0,0,1-2.25,0,44.464,44.464,0,0,1-7.15-2.151q-.9-.4-4.7-2.149t-3.6-2.851a1.888,1.888,0,0,1,1.1-1.5,3.882,3.882,0,0,1,1.5-.4m28.1,6.7q1.1.4,6.2,2.9a4.76,4.76,0,0,1,2.5,2,14.179,14.179,0,0,1-.3,4q-.4,2.5-6.8,2.2a47.02,47.02,0,0,1-6.9-.55q-.55-.251-1.3-.65a7.287,7.287,0,0,1-1.35-.85,4.552,4.552,0,0,1-1.75-3.25q-.1-2.6-.2-3.9-.1-2.8,3-3a15.132,15.132,0,0,1,6.9,1.1m-3.9,39.9q-1.551.45-.55-1.951a4.824,4.824,0,0,1,4.15-2.849l21.6-3q2.7-.3,2.4,2.1-.1,2-.3,5.9-.3,3.5-.7,5.9-1.2,4.3-8.3,4.8a32.5,32.5,0,0,1-9.15-.65q-2.151-.4-1.05-2.15,2.7-4.451,2.3-6.5-.6-3-7.6-2.3a19.015,19.015,0,0,0-2.8.7m18-27.8q-2.25-2.151-.15-2.2,10.6-.3,12.45,5.5a18.628,18.628,0,0,1,.1,4.4q0,1.1-.1,3-.15,1.55-1.25.35L63.36,75.006m36.3-62.8a6.49,6.49,0,0,1,.5,2.6,2.987,2.987,0,0,1-.5,1.65,1.971,1.971,0,0,1-1.95.9q-1.45-.05-1.65-3.349-.2-2.7,1.9-2.8a1.635,1.635,0,0,1,1.7,1"/></svg>