<svg overflow="visible" width="100%" height="100%" viewBox="0 0 61.768 115.698" xmlns="http://www.w3.org/2000/svg"><path d="M20.817,8.953q-9.8,12.4-9.5,22.3a37.844,37.844,0,0,0,2.4,13.5,20.31,20.31,0,0,0,8.6,10.5,4.708,4.708,0,0,1,2,2,3.975,3.975,0,0,1-.4,2.6l-10.6,26.7q-1.3,3.2-1.5,3.5a4.68,4.68,0,0,1-3.3,2q-.8.1-1.5,1.8l-6.6,14.4a4.1,4.1,0,0,0,.7,4.6q2.9,3.2,6.3,2.8t5.6-4.2q2.7-7,11.1-24.2,7.4-15.1,9.15-20.6t2.4-6q.651-.5,2.8-.2a5.9,5.9,0,0,0,4.55-1.7q18.7-14.6,18.75-33.75a27.476,27.476,0,0,0-4.05-15.151,20.259,20.259,0,0,0-10.5-8.4,22.72,22.72,0,0,0-13.8-.7,23.235,23.235,0,0,0-12.6,8.2m-4.5,12.5a56.412,56.412,0,0,1,5.3-9,26.378,26.378,0,0,1,8-7q7.7-4.8,17.5-.9,10.2,4.1,10.85,13.8.251,3.7.35,5t.1,3.25q-.1,9.75-7.2,20.35a19.4,19.4,0,0,1-1.8,2.3q-1,1.049-6.1,6.1a9.815,9.815,0,0,1-4.35,2.5,12.134,12.134,0,0,1-4.3.3,22.1,22.1,0,0,1-3.65-.75q-1.6-.5-1.95-.6t-2.05-.85a22.552,22.552,0,0,1-5.15-4.3,30.456,30.456,0,0,1-4.85-6,17,17,0,0,1-1.9-5.8,48.442,48.442,0,0,1-.9-9.3,21.028,21.028,0,0,1,2.1-9.1m14.6,37.8a3.61,3.61,0,0,1,.65.25q1.35.5.85,1.6-6.75,17-10.05,23.7-3.849,7.7-4.8,8.55a1.75,1.75,0,0,1-2.2.051q-1.2-.75-1-1.65a24.668,24.668,0,0,1,.85-2.7l11.1-28.1a8.425,8.425,0,0,1,1-2q.8-.8,3.6.3m-22.3,37.3a2.425,2.425,0,0,1,2-1.7,9.19,9.19,0,0,1,3.7,1q1.4.6,1.5,1.6a4.747,4.747,0,0,1-.7,1.9q-1.1,2.3-3.1,7.2a15.962,15.962,0,0,1-4.3,6.3,4.359,4.359,0,0,1-3.5-1.7,3.082,3.082,0,0,1-.6-3.3q3.2-7.6,5-11.3m19.15-85.4a27.453,27.453,0,0,0-5.85,11.1,61.426,61.426,0,0,0-1.8,12.8A27.681,27.681,0,0,0,21.767,45.5a13.428,13.428,0,0,0,4.7,6.5,17.467,17.467,0,0,0,4.6,2.449,18.533,18.533,0,0,0,4.4.5q2.751-.05,6.85-2.9a32.016,32.016,0,0,0,7.35-7.35,42.914,42.914,0,0,0,5.7-12.7q2.451-8.25-2.25-16.951a14.473,14.473,0,0,0-11.7-8.9,14.786,14.786,0,0,0-13.65,5M39.867,9.7q.2-.8,1.45-.7t.7,1.049a1.205,1.205,0,0,1-1.45.65q-.9-.249-.7-1m1.9,6.1q.5-1.3,1.05-1.149,3.1,2.049,3.05,2.949a3.228,3.228,0,0,1-.75,1.7q-.649.8-2.2-.35-1.55-1.2-1.6-1.549a4.443,4.443,0,0,1,.45-1.6m-2.55-2.75q.551.45.35,1.75-.2,1.251-1.2,1t-1.05-.5a1.407,1.407,0,0,1,0-.75,2.538,2.538,0,0,1,.7-1.25q.651-.75,1.2-.25m-4.05-2.3a1.882,1.882,0,0,1-.65,1.75,1.907,1.907,0,0,1-1.35.449.952.952,0,0,1-.75-.7q-.35-1.05,1.1-1.85,1.5-.8,1.65.35m1.6,10.4q-1.05,1.5-1.95,1.2-.95-.349-.35-2.15.551-1.8,1.4-2.049a1.165,1.165,0,0,1,1.4.6q.55.849-.5,2.4m2.65,1q.85-1.251,1.9-.4a7.205,7.205,0,0,1,1.35,1.4,1.473,1.473,0,0,1,.1,1.3,5.339,5.339,0,0,1-1.1,1.451q-.849.8-2.1-.15t-1.1-1.651a4.858,4.858,0,0,1,.95-1.949m-10.55-7.1q.951-1.05,2.45.05a2.5,2.5,0,0,1,1,1.25,2.942,2.942,0,0,1-.8,2.3q-1,1.249-2.3,0a8.74,8.74,0,0,1-1.3-1.5q-.45-.6.95-2.1M24.917,21.9a3.128,3.128,0,0,1,1.25-1.8q.75-.5,2.1.95,1.4,1.45,1.8,1.9t.05,1.9a6.639,6.639,0,0,1-1,2.35q-.649.851-2.45-.75a6.968,6.968,0,0,1-2.05-2.4,3.817,3.817,0,0,1,.3-2.149m7.1,6.35a2.545,2.545,0,0,1,.55-2.151,1.882,1.882,0,0,1,1-.55q.351,0,1.05.7t.15,2.449q-.549,1.751-1.05,1.65a2.2,2.2,0,0,1-1.7-2.1m-6.05.849a4.225,4.225,0,0,1,1.55,3.551q-.249,1.7-2.05.9-1.8-.849-2-1.9a6.145,6.145,0,0,1,.2-2.9q.45-1.451,2.3.349m4.45,4.2a1.178,1.178,0,0,1,1.7.05,1.894,1.894,0,0,1,.55,2.5q-.75,1.5-1.55,1.2-1.65-.9-1.85-1.8t1.15-1.951m5.65-1.649q-.3-.851.7-2.2,1-1.4,2.15-.5,1.1.9,1.05,1.65a5.152,5.152,0,0,1-.9,1.9q-.8,1.1-1.35.75a5.143,5.143,0,0,1-.95-.551,1.941,1.941,0,0,1-.7-1.049m6.9,1.049q.7.5.15,2-.549,1.45-1.25.9a4.6,4.6,0,0,1-.9-.849q-.249-.351.5-1.451.75-1.149,1.5-.6m2.45-19.549q-1.4-1.251-1.2-2.051.2-.849,1.55-.75a2.436,2.436,0,0,1,2,1.75q.651,1.6-.15,1.95t-2.2-.9m1.55,8.35a2.933,2.933,0,0,1,.85-1.75q.6-.4.95.8a3,3,0,0,1-.15,2.1q-.5.9-1.15.3a1.417,1.417,0,0,1-.5-1.449m3.55-4.2q-.7.15-1.05-.7t.45-.949a1.158,1.158,0,0,1,.9.75q.351.7-.3.9m.55,9.4q-1.1-.949.45-2.75,1.5-1.85,2.15.951.6,2.749-.45,2.75a3.55,3.55,0,0,1-2.15-.951m-6.35.451q1.05-1.15,1.55,0a1.766,1.766,0,0,1-.15,1.949q-.649.75-1.55,0-.95-.8.15-1.949m7.8,6.3q-.549,1-2.75-.4-2.25-1.4-1.6-2.5.6-1.1,2.8.351,2.1,1.449,1.55,2.549m-6.1,5.85q-2.2-1.4-1.55-2.649a2.172,2.172,0,0,1,2.35-1.1,3.826,3.826,0,0,1,2.65,1.3,1.79,1.79,0,0,1-.15,2.5q-1.1,1.351-3.3-.05m-.7,2.65q1.95,1.2.8,2.6-1.149,1.35-3.45.5t-.8-2.549a2.418,2.418,0,0,1,3.45-.551m-11.55-4.5q.6-1.55,1.65-1.4a1.367,1.367,0,0,1,1.35.951q.251.8-.95,2.1-1.249,1.251-1.95.6-.75-.7-.1-2.25m2.15,8.85q.7-1.449,1.45-1.3.7.149.15,1.7T36.467,48q-.9-.3-.15-1.7m-2-3.2q1.2.4.3,2.25-.849,1.8-1.7,1.35-.9-.45-.3-2.25.551-1.8,1.7-1.35m4.2-2.65q.951-1.349,2-.949,1,.35,0,1.949t-2,.951q-1-.651,0-1.951m-9.5-.9a4.956,4.956,0,0,1,1.7.55q1.151.5-.15,2.95t-2.3,2.1q-1.05-.4-.4-3,.6-2.6,1.15-2.6m-4.55-4.3a4.568,4.568,0,0,1,1.25,3.65,15.643,15.643,0,0,1-.75,3.149q-.7,2-1.2,0a34.352,34.352,0,0,1-.8-7.6q0-.8,1.5.8M33.517,51.8q-.2,1.3-1.9.851-1.749-.5-.95-1.551a1.762,1.762,0,0,1,1.9-.849q1.1.249.95,1.549m-5.3-2.25a.712.712,0,0,1-1.1.3,1.667,1.667,0,0,1-.8-1.449q-.05-1,1.15-.3,1.2.651.75,1.45m13.75.1q-1.449,1.65-2.4.5a1.945,1.945,0,0,1-.1-2.551,1.554,1.554,0,0,1,2.4-.5q1.551.851.1,2.551"/></svg>