<svg overflow="visible" width="100%" height="100%" viewBox="0 0 99.838 116.037" xmlns="http://www.w3.org/2000/svg"><path d="M58.811,4.22a4.264,4.264,0,0,1-1.9.6,2.859,2.859,0,0,1-1.9-.2,22.78,22.78,0,0,0-7.5-1.6l-7.7-.3a79.168,79.168,0,0,0-26.5,5,15.991,15.991,0,0,0-6.5,5q-3.2,3.8-4.949,6.3a11.623,11.623,0,0,0-1.851,6.5q-.2,10.7,3.1,16.65t6.5,12.55a38.756,38.756,0,0,1,4.2,15.7,78.112,78.112,0,0,1-.6,16.3,54.793,54.793,0,0,0,.8,19.2,17.812,17.812,0,0,0,1.7,4.4q.7,1.4,2.4,4.2a3.548,3.548,0,0,0,2.9,1.5q3.3.3,6-4.6,3-7,5-11,7.6-16.1,22.6-15.3a8.618,8.618,0,0,1,7,3.7q8,11.3,10.7,19.4a9.4,9.4,0,0,0,3.8,5q3.3,2.2,5-1.1,6.6-11.9,2.8-23.4a25.377,25.377,0,0,1-.7-15.5q2.6-8.6,4.25-13.2a121.428,121.428,0,0,1,7.151-14.95,41.684,41.684,0,0,0,5.2-21.65q-.449-11.3-2.1-14.8a15.382,15.382,0,0,0-5.55-6.05A14.068,14.068,0,0,0,84.311.02a126.9,126.9,0,0,0-13.1.3,28.633,28.633,0,0,0-12.4,3.9m9.6-.75a20.7,20.7,0,0,1,6.75-1h8.5q4.7,0,9.15,4.75a13.425,13.425,0,0,1,3.8,10.9q-.1.8-.5,11.1-.3,6.7-2.7,10.6a161.126,161.126,0,0,0-12,29.3,37.718,37.718,0,0,0-.1,20.9,24.934,24.934,0,0,1-2.2,19.6q-1.2,2.2-2.7.2a11.446,11.446,0,0,1-2-3.9,40.383,40.383,0,0,0-4.8-10.3q-1.5-2.5-6.4-9.4a8.533,8.533,0,0,0-5.6-3.7,23,23,0,0,0-16.2,2.6,24.361,24.361,0,0,0-11,12.4q-.8,1.8-6.2,12.9-1.4,3-3.3,2.4-1.4-.4-2.4-2.7a31.208,31.208,0,0,1-3-12,81.11,81.11,0,0,1,.7-12.3q2.7-20.9-5.2-35-3.3-6.1-4.8-9.2a41.4,41.4,0,0,1-3.3-9.8,16.031,16.031,0,0,1,1.3-10.7q1.7-3.6,6.75-8.1,5.4-4.8,15.7-6.15a129.51,129.51,0,0,1,22.25-.85q6.7.4,10.3,3.05a73.3,73.3,0,0,1,6.5,5.35q2.9,2.7,3.7,1.8,1.3-1.75-2.049-4.4-3.351-2.7-6.351-5.3a69.629,69.629,0,0,1,7.4-3.05"/></svg>