<svg overflow="visible" width="100%" height="100%" viewBox="0 0 116.039 94.484" xmlns="http://www.w3.org/2000/svg"><path d="M115.956,16.023q-.4-2.4-4.1-5.4-5.9-5-18.3-9.8a9.706,9.706,0,0,0-11,2.2q-4.6,4.5-14.3,13-2.1,2.1-2,2.6a4.028,4.028,0,0,1-1.1,3.3,24.565,24.565,0,0,1-2.6,2.1q-6.2,4.9-24.8,18.1-15.8,11.2-24.5,18.7a46.835,46.835,0,0,0-12,16q-3.8,8.6,3.9,14.2a14.683,14.683,0,0,0,6.7,2.7,57.4,57.4,0,0,0,7.1.3,31.352,31.352,0,0,0,12-3.1q4.2-1.9,6.9-3.1a8.7,8.7,0,0,0,.95,3.75q1.05,2.349,4.75,2.85,3.8.4,5.6-1.8,4-5.2,1.7-9.7a3.334,3.334,0,0,1-.5-2.7,3.683,3.683,0,0,1,1.9-1.9,115.3,115.3,0,0,0,19.7-14.2q2.6-2.25,17.1-16,1.749-1.9,1.45,0a4.505,4.505,0,0,0,.75,3.1,7.521,7.521,0,0,0,3.7,3.15,7.782,7.782,0,0,0,4.3.45,7.509,7.509,0,0,0,3.5-1.9,7.215,7.215,0,0,0,1.9-4.15,17.533,17.533,0,0,0,0-5.6,6.451,6.451,0,0,0-2.45-3.9q-1.751-1.1,0-2.9,3.549-3.8,5.45-5.95a79.726,79.726,0,0,0,6.3-8q2.5-3.8,2-6.4m-14-8.3a44.675,44.675,0,0,1,8.9,5.8,7.266,7.266,0,0,1,2.4,3.2q.3,1.3-1.1,3.5a40.517,40.517,0,0,1-5.2,6.6q-2.7,2.5-17.95,17.55-15.3,15.05-22.5,20.85t-23.25,15.85q-16.05,10-23.25,10.2-7.3.2-9.55-.55a17.342,17.342,0,0,1-4.5-2.4q-5-3.7-2.8-8.5,2.8-5.8,4.1-8a28.6,28.6,0,0,1,5.9-7.1q9.7-8.4,27.5-21.2,20.4-14.6,27.9-20.6a12.741,12.741,0,0,0,1.8-1.6,2.687,2.687,0,0,0,.2-2.5q-.3-.8,1.5-2.3l12.8-11.8a6.563,6.563,0,0,1,7.3-1.4q6.9,2.9,9.8,4.4m-6.25,35.95a6.846,6.846,0,0,1,2.15-.75,2.339,2.339,0,0,1,2,.55,3.392,3.392,0,0,1,1.1,1.4,6.425,6.425,0,0,1-.2,2.6,3.229,3.229,0,0,1-1.7,2.4,4.362,4.362,0,0,1-2.7.15,2.819,2.819,0,0,1-2.05-1.5,3.536,3.536,0,0,1-.5-2,2.892,2.892,0,0,1,.45-1.6,3.391,3.391,0,0,1,1.45-1.25m-47.65,41.9a2.343,2.343,0,0,1,.45,1.1,3.343,3.343,0,0,1-.3,1.5,4.731,4.731,0,0,1-2,1.85q-1.65.95-3.75-1.05-2.1-2.051.6-3.45,2.2-1.2,3.4-.8a3.836,3.836,0,0,1,1.6.85"/></svg>