<svg overflow="visible" width="100%" height="100%" viewBox="0 0 115.73 52.326" xmlns="http://www.w3.org/2000/svg"><path d="M2.352.114a2.407,2.407,0,0,0-1.4,1.4A8.809,8.809,0,0,0,0,5.264q-.049,1.95,1.6,1.6a11.984,11.984,0,0,1,5.25.55,107.732,107.732,0,0,1,10.75,3.6q5.55,2.1,10.149,3.75,2.6.951-.5,1.55-7.049,1.3-8.8,1.7-3.9,1.1-4.3,6.1-.3,4.4,3.2,6.1,7.4,3.8,8.1,4.1,4.6,2.6,6.9,4,2.25,1.35,4.25,2.35,1.95,1,3.25,1.6,1.25.6,9.549,3.65a21.32,21.32,0,0,0,16.151-.25q7.9-3.35,9.7-6.25a5.471,5.471,0,0,0,.6-5,23.359,23.359,0,0,0-1.151-3.1q-.75-1.65,4.1.45,4.849,2.051,9.05,4a29.883,29.883,0,0,1,8.4,6,47.116,47.116,0,0,1,7.2,8.95q2.8,3.5,4.4-.6,2.8-7,2.9-7.1a18.463,18.463,0,0,1,4.4-6.2,1.528,1.528,0,0,0,.4-1.9,2.237,2.237,0,0,0-1.8-1.4,12.97,12.97,0,0,0-2.9-.3q-11-.1-25.8-4.4Q68.3,23.315,62.4,21.764t-5.2-4.35a8.893,8.893,0,0,1,2.351-4.3q1.55-1.5.349-2.15a9.321,9.321,0,0,0-2.8-1q-1.551-.3-1.3,3t-.5,4.65q-.75,1.3-1.8,1.15a7.6,7.6,0,0,1-1.85-.55,2.123,2.123,0,0,1-1-.7q-.249-.35.6-2.8a5.69,5.69,0,0,1,1.95-3.1,2.139,2.139,0,0,0,1.151-1.55q.05-.9-1.3-1.45a4.734,4.734,0,0,0-2.6-.35q-1.3.2-.8,1.75a5.592,5.592,0,0,1,.2,2.95,26.472,26.472,0,0,1-.851,2.9q-.5,1.4-2.55.6a1.694,1.694,0,0,1-1.1-1.95,9.447,9.447,0,0,1,2-4.15q1.8-2.45-.05-3.1-1.952-.649-2.651-.25a1.155,1.155,0,0,0-.65,1.3,13.675,13.675,0,0,0,.25,1.9,8.815,8.815,0,0,1-.25,2.9q-.45,1.9-1.1,2.25-.649.4-8.7-1.9-8.049-2.349-15.4-4.85-7.4-2.5-8.8-3.1a23.166,23.166,0,0,1-3.05-1.75,11.369,11.369,0,0,1-3-3.05,1.186,1.186,0,0,0-1.6-.6m38.7,25.7q2.049-5.25,3.25-5.2t-1.051,5.2q-2.25,5.1-3.4,8.55-1.15,3.5-2.25,3t.149-3.4q1.251-2.9,3.3-8.15m8.2-4.3a7.535,7.535,0,0,1,1.75.9q1.1.7.25,3.1-1.449,4.1-5.2,13.7-.9,2.1-2.6,1.3a18.32,18.32,0,0,1-1.8-.9,1.777,1.777,0,0,1-.3-2.1l5.3-14.8q.6-1.9,2.6-1.2m5.3,3.8a2.031,2.031,0,0,1,2.7-1.3,31.522,31.522,0,0,1,13.4,6.2,5.978,5.978,0,0,1,2.7,5.9,6.855,6.855,0,0,1-4.1,5.3,29.649,29.649,0,0,1-5.5,2.3,38,38,0,0,1-6.5,1.1q-2.9.45-7.3-1.5-2.1-.9-1.2-3.3l5.8-14.7m-16.6-5.9q2.9.6,2.05,2.4l-5.05,12.4q-.7,1.7-2.8.6l-12.8-6.5a3.849,3.849,0,0,1-2.6-3.6q0-2.5,3.351-4.05a25.845,25.845,0,0,1,8.4-2.05,30.4,30.4,0,0,1,9.45.8m70.9,16.7q3,.051,1.3,2.1a24.263,24.263,0,0,0-3.5,7.35q-.7,2.55-2.5.4a112.4,112.4,0,0,0-9.45-9.9q-1.8-1.749,1.95-1.1,6.1.85,12.2,1.15"/></svg>