<svg overflow="visible" width="100%" height="100%" viewBox="0 0 102.486 117.181" xmlns="http://www.w3.org/2000/svg"><path d="M51.584.136q-3.149.65-11.9,5.25a62.5,62.5,0,0,0-16.7,12.95,111.035,111.035,0,0,0-16.2,21.8,56.813,56.813,0,0,0-6.7,24.2,53.489,53.489,0,0,0,4.4,24.6q6.9,17.4,25.9,23.2a105.074,105.074,0,0,0,37.25,4.9q18.351-1,21.75-1.8,3.3-.8,8.25-2.35t4.85-3.05q-.1-1.55-2.3-2.6a26.186,26.186,0,0,0-5.7-1.8q-16.7-3.2-25.9-8a30.2,30.2,0,0,1-10.9-9.1q-8.7-12.1-11.5-21.8a88.332,88.332,0,0,1-3.4-17.5,53.119,53.119,0,0,1,1.7-17.6q1.6-6,3.75-12.8a40.458,40.458,0,0,1,4.35-10.1,11.49,11.49,0,0,0,2.15-6.2q-.05-2.9-3.15-2.2m-9.8,7.65q9.1-3.949,7.8-1.65a70.464,70.464,0,0,0-6,13.75,97.7,97.7,0,0,0-3.05,16.5q-1.2,10.15-.75,13.5t1.5,8.85q3.3,17.6,12.55,29.75,9.2,12.1,22.55,15.4t18,4.5q4.651,1.151,1.1,2.35a44.891,44.891,0,0,1-11.3,2.5,155.732,155.732,0,0,1-36.6-.1q-28.8-3-38.3-20.4-9.1-17-5.3-34.8a70.1,70.1,0,0,1,16.25-32q12.45-14.2,21.55-18.15"/></svg>