<svg overflow="visible" width="100%" height="100%" viewBox="0 0 114.006 92.518" xmlns="http://www.w3.org/2000/svg"><path d="M75.444,62.014q.2-2.1-.4-2.6a5.023,5.023,0,0,0-2.7-.3q-2.9.2-8.4.4a104.6,104.6,0,0,0,7.3-12.45,24.051,24.051,0,0,0,3.25-7.3q.4-2.649-1.15-3.45-1.3-.75-3.7,1.4a27.014,27.014,0,0,0-3.45,3.55q-1.1,1.4-.9-1.8.148-3.249.349-4.95a1.869,1.869,0,0,0-1.25-2.25q-1.2-.4-1.7.4a62.057,62.057,0,0,0-3.05,6.55q-.849,1.95-1.349-.4a31.334,31.334,0,0,1-.651-4,21.285,21.285,0,0,0-1-4.15q-1.65-4.9-2.7.25a112.661,112.661,0,0,0-1.85,11.95q-.05,1.451-.95.35a20.552,20.552,0,0,0-2-2.2q-1.149-1.05-1.95-.25a4.772,4.772,0,0,0-1.1,1.25,2.4,2.4,0,0,0-.3,1.25q0,.75,7.649,17.05a35.357,35.357,0,0,0-5.4,1.6,3.911,3.911,0,0,0-2.7,4.1,31.581,31.581,0,0,0,1.9,10q1,3.2,3.4,9.5.9,3,4.5,3.2l12.9,1.2q2.7.2,3.5-.4,1-.7,1.4-3.4,1.5-11.1,2.5-24.1m-6.2-21.35q3.151-3.5,2.7-.6a20.459,20.459,0,0,1-3.149,7.15q-2.751,4.3-4.3,6.35-1.55,2-3.15,4.1-1.6,2.05-3.45,1.5-1.9-.549-4.15-4.75-2.3-4.2-4.3-8.2-2.049-4-.3-2,1.7,1.9,3.4,3.8,1.6,1.9,2-7.6.349-9.549,1.9.45,1.551,9.951,4.7,1.1,3.1-8.85,2.151-3.05-1,5.8-1.351,7.7-.4,1.9,1.9-.25,2.25-2.2,5.4-5.7m-20.6,25.5a3.566,3.566,0,0,1,2.4-1.6,39.878,39.878,0,0,1,4.75-1q2.849-.45,3.849-.6,1-.2,6.25-.4,5.25-.249,5.95.45.8.8.3,5.5-.5,5.6-1.9,16.7-.3,2.2-2.3,1.9-7.9-.7-11.8-1.2-2.5-.5-2.9-1.5a128.6,128.6,0,0,1-4.5-14.6,6.167,6.167,0,0,1-.1-3.65m-26.5-38.75q-1.4-.6-2.25,1.95t-1.7,5.6q-.849,3.051-1.4,6.15-.6,3.051-1.451,1.85a30.532,30.532,0,0,1-2.7-6.15q-1.85-4.95-2.75-2.9-1.05,2.3.05,10.4a57.668,57.668,0,0,0-5.85-6.45,3.866,3.866,0,0,0-2.15-1.1,3,3,0,0,0-1.1.25q-.8.5-.6,2a26,26,0,0,0,3.45,8.85q2.4,3.75,11.25,14.55l-10.45-.2q-5.3-.15-4.35,1.2,2.2,3,4.8,12.9,2.2,8.6,5.65,12.6a6.053,6.053,0,0,0,5.9,2.05l12.551-1.45q3.4-.3,3.5-3.5.9-13.1,1-16.8,0-4.1-1.4-5a3.731,3.731,0,0,1-1.9-3.1q.4-2.2.6-3.4l5.6-23.2a1.922,1.922,0,0,0-1.2-1.8,2.016,2.016,0,0,0-2.2.1,13.329,13.329,0,0,0-1.5,1.5,28.931,28.931,0,0,0-4.3,6,20.888,20.888,0,0,1-2.25,3.25q-1.349,1.5-1.15-2.05.15-3.95-.1-9.15-.2-4.4-1.6-4.95m10.2,11q.9-.75.1,2.4l-4.9,19.3a3.36,3.36,0,0,1-.9,1.9,3.538,3.538,0,0,1-2,.6,13.279,13.279,0,0,1-4.7-.5,8.6,8.6,0,0,1-3.95-2.35q-1.6-1.65-4.55-4.9a64.917,64.917,0,0,1-7.05-10.45q-4.149-7.2.4-2.35,4.55,4.8,6.549,7.25,1.95,2.4.75-5.05-1.249-7.5.8-2.3,2,5.151,2.85,6.75.8,1.6,1.95-2.95,1.1-4.55,2.7-10.55t1.4.55a90.94,90.94,0,0,0,.1,10.7q.3,4.151,3,1.3a39.065,39.065,0,0,0,4.8-6.4,10.421,10.421,0,0,1,2.65-2.95m-24.5,37.7q-1.9-6.7-2.9-10.3-.45-1.249,10.3-.65,10.7.551,12.2.55,3.2,0,3.1,2.6l-.8,16.3a2.4,2.4,0,0,1-2.5,2.5l-9.3,1.1q-4.2.7-5.8-2.5a42.824,42.824,0,0,1-4.3-9.6m61.5-54.5a3.4,3.4,0,0,0-1.1,2.8q.5,3,6,2.6,2.55-.15,6.65-.6,1.5-.15.85,1.5-.75,1.7-2.1,4.6-1.5,4.3.8,5.7,2,1.1,4.7-1.6l4.3-4.1q.9-.9,1.6-.6.9.2.9,1.5,0,1.9-.4,5.9l-.8,13.3a27.907,27.907,0,0,1-.25,2.85q-.2,1.45-1.15,1.55-6.049,1.15-7.15,1.75-2.349,1.2-1.95,2.55,1.1,5.2,3.5,13.4,3.1,10.6,3.8,13.2a8.122,8.122,0,0,0,1.6,3.1,3.513,3.513,0,0,0,3.9,1.4q5.9-1.2,11.7-1.8a9.118,9.118,0,0,0,3.9-1.1q1-.7,2-3.6a48.233,48.233,0,0,0,2.1-10.2q.3-3.7.95-10.1a42.76,42.76,0,0,0,.25-7.2q-.2-2.949-1.05-3.45t-10.849.3q-3.3.25-7.6.9-1.3.1-1.3-1.35,0-.9.1-2l1.15-17.2q.15-2.3,1.4-1.05a9.2,9.2,0,0,0,4.449,2.35q3.4.8,5.1-.3a5.542,5.542,0,0,0,2.1-4.7,6.1,6.1,0,0,0-2.2-4.8q-.849-.649-4.25-2.8-1.5-1.149,0-2.5a24.774,24.774,0,0,0,6.35-10.4q.9-2.7-2.3-3.7-3.7-1-5.8,1.2-1.549,1.451-3.75,3.45-1.2.9-1.35-1.55l-.8-8.6q-.1-1.7-1-2.1a2.335,2.335,0,0,0-2.3.6,8.363,8.363,0,0,0-3.2,6q-.249,1.9-.65,5.85-.148,1.551-1.05,0-7.4-13.2-10.5-5.85a9.04,9.04,0,0,0-.349,5.65,22.744,22.744,0,0,0,1.849,4.55q1.051,2-1.15,2.3a15.467,15.467,0,0,0-3.3.65,5.332,5.332,0,0,0-2.35,1.75m3,2.5q-2.349-.5-.549-1.35a12.192,12.192,0,0,1,4-1.1q2.25-.3,3.8-.65,1.5-.4,1.05-1.7a46.707,46.707,0,0,0-2.349-4.8q-1.9-3.45-1.2-5.65.6-2.25,2.8.7,2.151,2.951,4.45,6.25,2.351,3.251,3.4,1.7a6.8,6.8,0,0,0,1.1-3.95q0-2.349-.1-5-.15-2.7,1.5-3.1,1.6-.45,1.8,5.75.2,6.15,1.3,5.85,1.05-.3,5-3.8,3.951-3.549,4.9-3.25a2.005,2.005,0,0,1,1.2.75q.251.4-.4,2.15a15.1,15.1,0,0,1-2.051,3.65,36.005,36.005,0,0,1-4,4.4q-2.6,2.55-1.6,3.9a6.412,6.412,0,0,0,2.85,2.15,37.243,37.243,0,0,1,4,2q2.5,1.4,1.2,4.2-.7,1.3-1.7,1.3a5.082,5.082,0,0,1-1.8-.65q-1.35-.649-2.4-1.2a18.3,18.3,0,0,1-3.6-3.35q-2.55-2.749-7.649,2.4-5.1,5.2-4.3,2.4.651-2.149.95-3.45a19.493,19.493,0,0,0,.55-4.55q0-2.25-1.85-2.2a44.113,44.113,0,0,0-4.9.35,16.865,16.865,0,0,1-5.4-.15m10.8,38.45q-.449-1.249.3-1.7a21.2,21.2,0,0,1,4.9-1.15l19.1-2.6q2.5-.3,3,.1.6.4.4,2.8a129.182,129.182,0,0,1-1.9,18.15q-1.55,8.151-1.9,8.5t-7.7,1.5q-7.4,1.15-8,.75-.7-.3-1.4-3l-6.8-23.35"/></svg>