<svg overflow="visible" width="100%" height="100%" viewBox="0 0 115.679 67.177" xmlns="http://www.w3.org/2000/svg"><path d="M95.279,7.911q-7.2-8.2-16.6-7.9-20.4.6-32.9,20.3a24.508,24.508,0,0,0-2.4-.8,3.039,3.039,0,0,0-2.1-.2,3.073,3.073,0,0,1-2.7.3q-.3-.2-2-1.5-12.4-9.8-14.8-10.9-8.9-4.3-16.3,2.5-4.8,4.4-5.4,9.4-.8,5.8,6.5,6a17.453,17.453,0,0,1,12,4.7q11.2,9.6,24.4,9.5a36.1,36.1,0,0,1,5.4.6q2.2.3,2.4.8.3.5-.8,2.6-1.6,3.2-5,9.7-2.3,5.8-.25,10.55,1.249,3.049,2.85,3.55,1.5.4,4.3-1.6,9.2-6.6,11.1-20.7.4-2.8.9-3.2.4-.4,3.2-.1l7.2.9a44.6,44.6,0,0,0,7.1.2,4.176,4.176,0,0,1,2.8.6,4.6,4.6,0,0,1,1.5,2.1q3.6,9.1,6.1,12.7a19.578,19.578,0,0,0,11,8.2q2.2.7,2.8-1a5.391,5.391,0,0,0-.2-3.5q-4.1-17.1-5.05-20.85a15.993,15.993,0,0,0-.55-1.9,6.035,6.035,0,0,1,1.7-.15q4.7.3,9.5-4.5,4.6-4.7,4.7-9.6,0-1.4-2.1-2.2a5.391,5.391,0,0,0-4.4.3,19.116,19.116,0,0,1-3.6,1.7q-7-12.8-10.3-16.6m-15-4.9q.3.3.4,6.2,0,2.9-.5,3.4a4.64,4.64,0,0,1-2.65.8q-2.05.2-4.7.35-2.7.1-3.3-.55-.649-.7-.35-4.5.2-3.3.9-4,.6-.7,3.8-1.4,5.7-1.2,6.4-.3m3.75,3.4q.3-1.551,2.65-.95a12.3,12.3,0,0,1,3.3,1.45,5.01,5.01,0,0,1,2.45,3.75q.15,2.149-3.25,2.45h-3.5q-2.3.1-2.2-3.3.35-2.1.55-3.4m12.25,9.75q1.35-.45,2.4,1.15a10.492,10.492,0,0,1,1.3,2.45q.2.849.3,1.2t-1,.55a20.917,20.917,0,0,1-2.75.15q-1.65.049-1.65-2.5t1.4-3m-3.5,2.75q-.1,2.4-.7,2.8-.6.5-3.8.3a28.214,28.214,0,0,1-3.4-.1q-1.4-.5-1.3-2.9,0-2.9,1.9-3.05a46.977,46.977,0,0,1,5-.05q2.4.3,2.3,3m9,7.1q-.349,1.05-3,2.25-2.7,1.2-2.85.15a14.957,14.957,0,0,1-.25-1.9q-.1-.9,1.2-1.3t2.75-.85q1.6-.351,2,.65a2.79,2.79,0,0,1,.15,1m-9.1.3a4.243,4.243,0,0,1,.35,1.35,8.3,8.3,0,0,1-.35,2.25q-.3,1.2-3.7,1.95a33.146,33.146,0,0,1-3.75.65,1.3,1.3,0,0,1-1.65-1.15,12.941,12.941,0,0,1-.2-2.55q-.3-3.051,1.6-3.25a29.67,29.67,0,0,1,4.65-.05q2.749.1,3.05.8m.45,7.95a25.65,25.65,0,0,0,6.85-3.15q6.1-3.5,6.6-3.8,2.651-1.551,1,.9-6.7,8.8-19.3,10.9-9.1,1.5-22.9-.4-12.9-1.4-21.9-8.5a5.524,5.524,0,0,1-2.1-2.5,5.445,5.445,0,0,1-.15-3.05q.5-2.6,1.35-2.15,3.9,1.7,9,4.5,3,1.7,11.3,6.3a27.455,27.455,0,0,0,17.8,3.1q9.45-1.45,12.45-2.15m14.45-1.75a47.578,47.578,0,0,0,3.35-6.4q.45-1.4,1.7-.85t-.9,4.45a18.571,18.571,0,0,1-4.6,5.8q-2.5,1.9.45-3m-27.1-11.8a1.89,1.89,0,0,1-1.9,1.1q-4.9-.2-7.4-.3a2.271,2.271,0,0,1-1.9-.9,4.607,4.607,0,0,1-.4-2.2q.1-1.9,2.4-2,1.3-.1,3.8-.2a7.873,7.873,0,0,1,4.5.7q2.1,1,.9,3.8m.75,10.6q-.05,1.7-2.9,2.05a18.008,18.008,0,0,1-6.05-.45q-2.149-.2-2.65-3.8-.5-3.651.1-4.25.551-.651,4.05-.6a24.685,24.685,0,0,1,4.75.45,2.775,2.775,0,0,1,2.5,2.65,28.651,28.651,0,0,1,.2,3.95m10.45,21q-2.3-5.8-3.7-8.6-.9-2,1.7-2.4l5.8-1.1q1.751-.251,2.1,1,.3,1.149.45,1.9.45,2,2.45,9.5a49.392,49.392,0,0,1,1.55,8.6q.2,2.25-1.7.85-2.149-1.45-3.15-2.25a18.492,18.492,0,0,1-5.5-7.5m-30.4-44q2.6-1.4,4.3-2.45,1.151-.6,1.1,1.35v2.1q-.1,3.4-.9,4.1t-4,.5a4.074,4.074,0,0,1-1.4-.3q-.9-.4-.9-.7a4.179,4.179,0,0,1,1.8-4.6m-40.2,19.8a28.671,28.671,0,0,0-6.7-4.5,15.9,15.9,0,0,0-7.9-1.4q-2.3.1-3.1-1.3-.8-1.3,0-3.7a12.289,12.289,0,0,1,8-7.9,11.7,11.7,0,0,1,11.1,1.4q5.1,3.6,14.8,11.6,2.7,2.1,1.4,4.3a2.514,2.514,0,0,0-.2,2.7,6.33,6.33,0,0,0,1.8,1.7l4.65,3.8q2.65,2.049.6,1.9-15-.3-24.45-8.6m44.8-9.2a2.986,2.986,0,0,1-.8,2.3,7.709,7.709,0,0,1-3.3.6q-2.9.2-2.6-2.5.2-1.6,1-2a8.665,8.665,0,0,1,3.5-.65q2.4-.251,2.2,2.25m-11.25-5.25q-.45-.651,1-1.55t1.05.7q-.4,1.549-1,1.5a1.349,1.349,0,0,1-1.05-.65m1.75,6.55q-.6,2.3-3.35,2.25-1.7-.051-3.1-.15-1.6-.15-1.05-1.25a33.678,33.678,0,0,0,1.6-3.05q.7-1.7,2.2-1.4.8.1,2.5.45,1.9.249,1.2,3.15m3.6,5.3a6.1,6.1,0,0,1,1.1-.6q4.5-1.2,5.4.9a23.259,23.259,0,0,1,.75,5.15q.1,1.449-1.5.55l-5.25-2.9a2.623,2.623,0,0,1-1.1-2.4q0-.3.6-.7m-13.5,33.6a25.422,25.422,0,0,1,3.1-8.9q3-5.4,4.3-8.4a2.658,2.658,0,0,1,2-1.7,7.694,7.694,0,0,1,2.5.4q1.6.4,1.9,1.4a4.24,4.24,0,0,1,0,2.3,31.264,31.264,0,0,1-7,16.6q-3.3,3.6-4.8,3.2-2.35-1.1-2-4.9m-36.4-46.25q.4-1.05-.3-1a1.407,1.407,0,0,0-1.2.75q-.45.649.35,1,.8.249,1.15-.75"/></svg>