<svg overflow="visible" width="100%" height="100%" viewBox="0 0 104.949 116.905" xmlns="http://www.w3.org/2000/svg"><path d="M97.827.288a62.261,62.261,0,0,0-8.3,1.85q-4.5,1.3-9.8,2.9-5.25,1.6-28.551,11.95T15.227,34.438q-12.7,7.1-14.4,10-2.3,3.8,1.8,6.8a7.293,7.293,0,0,0,4,1.8,9.879,9.879,0,0,1,3.9,1.1,26.833,26.833,0,0,1,3.2,2.1q12.6,9.3,38.4,27,23.149,16.2,30.9,23.1a97.934,97.934,0,0,0,11.3,9.1q3.5,2.2,5.05,1.1t1.15-7.4q-.1-27.3,0-40.9.1-23.9,1.2-41,.9-11.749,1.55-18.2a12,12,0,0,1,1.45-4.9,2.269,2.269,0,0,0,.15-1.55,3.225,3.225,0,0,0-1.85-2.25q-1.4-.65-5.2-.05m2.7,2.85a1,1,0,0,1-.4,1.4,50.482,50.482,0,0,1-5.35,3.2q-10.551,5.8-15.65,9.1a246.706,246.706,0,0,1-29,16.3q-9.9,4.8-29.8,14.4-2.7,1.35-9,2.2a9.7,9.7,0,0,1-5.55-1.1q-3-1.45-2.7-2.3a5.3,5.3,0,0,1,1.8-2.4q1.4-1.151,16.15-8.6,14.7-7.5,28.6-14.3,24.3-11.8,43.4-16.9,7-1.9,7.5-1m-.1,4.65q-.1,1-.3,2.95-1.4,11.1-1.8,29.6-.5,22.6-1,29.6-4.5-2.9-6-2.6t-4.6,4.6a5.81,5.81,0,0,0-1.5,3.7,6.586,6.586,0,0,0,2,3.7q3.9,4.4,10.1-2.1l.349,35.6q0,1.549-3.449-1.4-3.5-2.95-9.5-7.8-1.05-.9-70.6-50.7l16.9-7.5a312.73,312.73,0,0,0,48.649-25.15q20.8-13.5,20.75-12.5m-10.8,64.6q1.7-1.95,2.549-1.65a4.578,4.578,0,0,1,1.6,1,5.119,5.119,0,0,1,1.149,2.7q.4,2-2.6,3.45t-3.7-1.05a4.53,4.53,0,0,1,1-4.45m-2.4,17.2a5.182,5.182,0,0,0-1.7.6q-1.15.5-2.2,4.15t1.15,5.8a8.708,8.708,0,0,0,4.4,1.95q2.85.55,5-2.8a5.064,5.064,0,0,0-.55-6.55q-2.8-3.2-5.1-3.2c-.267,0-.6.017-1,.05m-1.051,5.5q-.35-3.95,3.7-1.6,4.05,2.3,1.549,4.25t-3.7,1.6q-1.251-.4-1.551-4.25m-37.25-51.55q-2.749-.1-5.9,2.7a14.594,14.594,0,0,0-3,3.9,9.359,9.359,0,0,0-1.5,3.95,7.111,7.111,0,0,0,2,5.25,4.711,4.711,0,0,0,5.3,1.4q8.4-2.8,8.3-11.7a5.582,5.582,0,0,0-1.4-3.8,4.623,4.623,0,0,0-3.8-1.7m-3.25,4.1q2.751-1.7,4.151-.9a2.914,2.914,0,0,1,1.9,2.85,12.071,12.071,0,0,1-1.15,4.15,6.9,6.9,0,0,1-3.5,3.5,5.4,5.4,0,0,1-3.85.6,3.564,3.564,0,0,1-1.85-2.3,5.366,5.366,0,0,1,.5-3.95,8.77,8.77,0,0,1,3.8-3.95m22.9,15.6a9.052,9.052,0,0,0-4.45,0,8.555,8.555,0,0,0-4.8,2.9q-2.151,2.4-.25,5.8a15.994,15.994,0,0,0,2.849,4.2,6.384,6.384,0,0,0,3.8.9,10.029,10.029,0,0,0,5.7-1.9,5.845,5.845,0,0,0,2.7-5q0-1.5-1.9-3.9a7.722,7.722,0,0,0-3.65-3m2.6,6.3a1.892,1.892,0,0,1-.549,1.75q-.75.6-3.2,2.4t-4.25-.95q-1.8-2.8-1.549-3.8a4.057,4.057,0,0,1,1.95-2.15,5.136,5.136,0,0,1,2.95-1.05,5.126,5.126,0,0,1,2.9,1.35,4.179,4.179,0,0,1,1.75,2.45m8.951-41.95a7.221,7.221,0,0,0-2.35.85,26.179,26.179,0,0,0-3.95,2.5q-2.35,1.7-2.7,5.9-.4,4.15.5,5.4a15.8,15.8,0,0,0,4,3.35q3.05,2.05,7.75,1.15,4.65-.9,6.75-7a6.486,6.486,0,0,0-.5-5.05,13.248,13.248,0,0,0-3.1-4.2,14.6,14.6,0,0,0-3.4-2.25,4.981,4.981,0,0,0-3-.65m-1.6,3.25.4-.1q1.3-.45,4.1,1a10.316,10.316,0,0,1,4.1,3.65,3.968,3.968,0,0,1-.3,4.55q-2.7,4.2-6.2,4.1a6.954,6.954,0,0,1-4.3-1.9q-2.3-1.9-2.5-3.7a7.53,7.53,0,0,1,1.4-4.4,7.065,7.065,0,0,1,3.3-3.2"/></svg>