<svg overflow="visible" width="100%" height="100%" viewBox="0 0 115.898 99.162" xmlns="http://www.w3.org/2000/svg"><path d="M26.194,67.106a1.172,1.172,0,0,0-1.2.05,16.677,16.677,0,0,0-2.2,2.6q-1.7,2.25-5.3.05a8.293,8.293,0,0,1-3-3.7,7.117,7.117,0,0,0-4.5-4.2q-6.1-2-7.65-2.6-1.6-.651-2.05.5a1.872,1.872,0,0,0-.15,1.7q.35.549,2.5,1.1,2.1.549,3.65,1a11.3,11.3,0,0,1,3.9,1.7,6.687,6.687,0,0,1,2.6,3.5q1.6,4.6,7.4,4.8a4.876,4.876,0,0,0,3.7-1.3,10.415,10.415,0,0,0,2.2-2.75q1.05-1.9.1-2.45m42.95-4.6a75.6,75.6,0,0,1-7.8.9,39.289,39.289,0,0,0-11,2q-2.5.8-10.4,4-2,.8-1.5,2.6.3.9,1.3,5.3a30.274,30.274,0,0,0,1.5,5.1,10.245,10.245,0,0,0,8,6.3,9.253,9.253,0,0,0,3.45-.3q2-.6,13.95-5.1a39.995,39.995,0,0,1,13.2-2.2,2.844,2.844,0,0,0,2.6-1.1,3.138,3.138,0,0,0,0-2.9q-.9-2.2-2.6-5.5-2.5-4.6-2.9-5.5-2.1-4.6-7.8-3.6m-3.2,18.1q-8.6,2.9-12.9,4.2-4,1.1-6.2-.3-1.6-1-3.7-5.5t-1.6-6.1q.3-.9,2.2-1.8,5.1-2.2,7.1-2.8a24.909,24.909,0,0,1,7.5-1.5q2.4-.1,11.8-1.3a3.932,3.932,0,0,1,4.5,2.1l5.4,9.6q.351,1.1-3.15,1.15-3.549.049-10.95,2.25m49.2-28.7a1.794,1.794,0,0,0-.3-1.1q-7-10.9-19.4-10.6-6.9.2-16.3,5.2a10.361,10.361,0,0,0-3.3,3.05c-.033,0-.05.033-.05.1a9.1,9.1,0,0,0-1.8,3.15q-.2,1.05.85,1a2.125,2.125,0,0,0,1-.3,9.736,9.736,0,0,0,1.5-1.2q1.4-1.5,5.05-.15t5.85.05q1.8-1,2.4-.5t.5,2.6l-.6,19.3a1.625,1.625,0,0,0,1.3,1.7q1,.15,1.1-1.4l.3-2.4.5-14.9a32.587,32.587,0,0,1,.25-3.5q.2-2.2,1.45-1.4,2.9,2.2,6.2,0a5.928,5.928,0,0,0,3.8,2.2,12.106,12.106,0,0,0,4.3-.5,3.465,3.465,0,0,1,1.9.2q1.35.349,2.2.55t1.1-.1a2.177,2.177,0,0,0,.2-1.05m-13.35-7.75a2.679,2.679,0,0,1,1.05-.3q.4-.051.55.6a3.133,3.133,0,0,1-.45,1.75,9.216,9.216,0,0,1-1.5,2.05q-.949.95-1.5.55-.6-.4-.15-1.5a11.8,11.8,0,0,1,.9-1.95,2.447,2.447,0,0,1,1.1-1.2m3.75,6a1.252,1.252,0,0,1-.25-1.5,4.606,4.606,0,0,1,1.35-1.95q1-.951,1.4.25a2.435,2.435,0,0,1-.75,2.45q-1.2,1.249-1.75.75m-7.4-6.7a4.562,4.562,0,0,1-.7,1.25,19.28,19.28,0,0,1-1.35,1.6q-.8.75-1.7,1.65a3.725,3.725,0,0,1-1.55,1q-.649.1-.8-.45a1.059,1.059,0,0,1,.1-1,10.733,10.733,0,0,1,1.2-1.65,21.888,21.888,0,0,1,2.05-2.25,4.555,4.555,0,0,1,1.6-1.2.927.927,0,0,1,1.15,1.05m-10.35.3q1.05-.9,1.85-.45.75.4.55.7-.2.249-.7,1.05-.5.75-1.05,1.5-.6.7-2.05,2.45a1.826,1.826,0,0,1-1.3.7.868.868,0,0,1-.85-.6,1.191,1.191,0,0,1,0-.7,1.564,1.564,0,0,1,.15-.45,3.2,3.2,0,0,1,.5-.8q.45-.651,1.15-1.55a8.978,8.978,0,0,1,1.75-1.85m-62.85-26.35q.8.4,2.1,2.9a8.718,8.718,0,0,0,4.7,4.2,8.3,8.3,0,0,0,5.65.2q2.5-.9,2.65-2.3,0-1.251-3.45-.7-3.45.5-4.65-.1-1.3-.6-3.2-4.4-2-3.8-5.4-3.2-7.5,1-8.5,1.25a2.344,2.344,0,0,0-1.55.9,1.5,1.5,0,0,0-.3,1.35,1.212,1.212,0,0,0,.85.8,2.678,2.678,0,0,0,1.45,0q.75-.2,5.95-1,3-.3,3.7.1m-18.75,8.55q-.15,1.3.85,1.6a13.9,13.9,0,0,0,2,.1q3.9.2,5.9.1,4-.2,4.9,3.1,1.5,5.1,8.3,6,6.5.9,9.3-.45t2.6-2.5q-.2-1.15-2-.65-1.9.5-2.9.7a16.417,16.417,0,0,1-9.7-.8,5.079,5.079,0,0,1-2.6-2.3q-.9-2.1-1.4-3.1a4.749,4.749,0,0,0-4.85-3.1H8.844q-2.5-.051-2.65,1.3m.35-18q.15.45,1.65.65t11.2-1.45q9.65-1.65,33.35-2.15,12.251-.25,35.35-.2,6.8-.25,2.15.9l-22.2,5a51.132,51.132,0,0,0-17.8,7.4q-3.8,2.6-4.2,6.2t2.7,7l1.4,1.4q2.5,2.2-.1,4.1-3.2,2.7-4.8,4a46.98,46.98,0,0,1-4.9,3.6q-2.8,1.8-7.2,4.4-6.9,3.9-7.4,4.2a14.848,14.848,0,0,0-3.3,2.1,4.31,4.31,0,0,0-1.7,3.7,4.632,4.632,0,0,0,2.3,3.4l2.2,1q3.7,1.8,4.1,4.7.4,2.8-2.7,5.7l-12.9,10.1q-2.8,2.2-3.1,3.1-.2.8,1,4.1a5.675,5.675,0,0,1,.6,2.7q-.2.5-2.4,1.5-2.1.6-3.1.9-1.8.6-1.3,1.9a1.669,1.669,0,0,0,2.4,1.1q1.1-.4,3.05-1.15,3.851-1.451,4.35-2.45.6-1-.8-4.7a4.209,4.209,0,0,1,1.7-5.5q2-1.4,5.9-4.5l3.5-2.8a29.314,29.314,0,0,0,3.4-2.8q3.9-3.8,3.3-7.9-.7-4.1-5.5-6.5a7.7,7.7,0,0,1-1.9-.8,1.7,1.7,0,0,1-.9-1.4,1.762,1.762,0,0,1,.6-1.5,23.111,23.111,0,0,1,2.9-1.9q13.9-7.9,16.3-9.4a59.835,59.835,0,0,0,8.7-7.3q3.2-3.2.2-7.2a20.907,20.907,0,0,0-2.8-2.9,3.762,3.762,0,0,1-.8-4.1,8.429,8.429,0,0,1,3.6-4.5,60.784,60.784,0,0,1,17.5-6.6q14.3-3.5,19.9-4.3a94.949,94.949,0,0,0,9.8-2.6,35.216,35.216,0,0,1,10-1.9q.3,0,2.55-.3a6.333,6.333,0,0,0,2.9-.85,1.811,1.811,0,0,0,.6-1.5,2.144,2.144,0,0,0-.4-1.3q-.35-.4-1.8-.35a8.523,8.523,0,0,0-2.95.55,17.81,17.81,0,0,1-5.2.45q-44.4.7-55.6,1.2-8.3.4-20.2,1.5-13.5,1.3-20.3,1.9a9.607,9.607,0,0,0-2.4.5.959.959,0,0,0-.5.4.772.772,0,0,0-.2.7,1.943,1.943,0,0,0,.2.75"/></svg>