<svg overflow="visible" width="100%" height="100%" viewBox="0 0 116.462 80.253" xmlns="http://www.w3.org/2000/svg"><path d="M16.545,7.792a33.679,33.679,0,0,0-11.7,11.4,30.957,30.957,0,0,0-4.5,15.8q-1.3,6.8,2.3,16.4,2.4,6.5,6.3,9.3,14.2,10.7,28.6,14.1,11,2.5,18.4,3.6,10.2,1.4,20.6,1.85a37.167,37.167,0,0,0,10.7-1.75q3.9-1.1,11.9-4.05a30.654,30.654,0,0,0,7.9-4.25,34.526,34.526,0,0,0,5-5,15.378,15.378,0,0,0,3.6-7.6q.4-4.5.6-6.6.2-2.7.2-4.1a10.717,10.717,0,0,0-.4-3.8q-2.8-8.4-3.7-10.4a23.785,23.785,0,0,0-6.5-9,18.483,18.483,0,0,1-2.6-3q-8.7-10.1-25.8-14.5-20.95-4.6-29.7-5.9a46.946,46.946,0,0,0-31.2,7.5m-9.5,31.6a46.158,46.158,0,0,1-2.1-9.8q-1.1-10.3,13.2-18.6,14.3-8.351,21.25-8.15,7,.15,10.35.55t10.7,1.8q7.3,1.4,19,4.4,14.5,4,26.7,18.6a16.826,16.826,0,0,1,3.6,5.3q.4,1,2.2,6a4.868,4.868,0,0,1-.1,3.5,5.218,5.218,0,0,1-2.3,2.5,7.56,7.56,0,0,0-3.2,3.1,13.275,13.275,0,0,0-1.2,4.2q-.2,2.8-2.2,2.6a19.951,19.951,0,0,1-4.7-1.5q-7.7-3.1-11.3,2.2-1.5,2.1-4.9,6.2-2.8,3.7-9.1,2.6-5.8-1-8.8-4.6-2.6-2.9-7.2-1.4-8.3,2.8-14.7,2.1-8.7-.9-11.1-8.2-1.9-8.4-9.7-7.3a16.953,16.953,0,0,1-3.7,0q-2.8-.3-3.7-.3-5.1.1-7-5.8m32.8,24.1q7.7,1.5,17.1-1.7,3.9-1.4,6.3,1.4a11.974,11.974,0,0,0,5.9,3.9,30.2,30.2,0,0,0,7.1.8,9.051,9.051,0,0,0,7.7-3.6,55.791,55.791,0,0,1,5.6-6.8,6.654,6.654,0,0,1,7.8-1.1q1.7.5,5.9,1.7,3.5.5,4.3-2.7.9-4.9,1.7-6.1a6.506,6.506,0,0,1,2.1-1.8,29.017,29.017,0,0,0,2.5-1.6q0,.4-.5,3.7a18.1,18.1,0,0,0-.2,3.6q.2,9.6-9,15.3-2.9,1.9-17.4,7.4a11.853,11.853,0,0,1-4.3.7q-7.1.1-10.7.1a95.853,95.853,0,0,1-10.6-.5q-16.6-2.3-25.5-4.9-14-4-23.2-11.4a20.726,20.726,0,0,1-7.5-10.2,35.761,35.761,0,0,1-1.6-12.6q2.4,6.5,3.6,8,2.5,3.1,7.9,2.9l8.4.2q3.5-.3,4.5,3.7,2.4,9.6,12.1,11.6m39.05-8.9q2.4-1.55,1.2-3.1-1.249-1.6-2.3-1.05-1.1.55-3.2,1.9t-1.05,2.35a5.468,5.468,0,0,0,2,1.2q.9.2,3.35-1.3m10.4-19.8q-2.65,1.249-2.3,2.4a4.87,4.87,0,0,0,1.1,1.95q.7.851,2.8.1a8.767,8.767,0,0,0,2.9-1.45,1.009,1.009,0,0,0,.15-1.5q-.649-.8-1.35-1.8-.649-1.05-3.3.3m-48.55,16.5a3.961,3.961,0,0,0,2.3,1.7,3.67,3.67,0,0,0,2.35-.9q1.4-1.05-.3-2.45a9.12,9.12,0,0,1-2.1-2.25q-.45-.9-1.75,0-1.35.9-1.55,1.55-.251.649,1.05,2.35M38.2,37.042a3.076,3.076,0,0,0-.05,1.25q1.2,3.949,8.55,6.9a39.48,39.48,0,0,0,16.45,2.5,19.38,19.38,0,0,0,8.3-2.1A55.6,55.6,0,0,0,77,42.342q2.45-1.7-.3-4.85t-5.6-5.9a11.613,11.613,0,0,0-7.95-2.9,39.2,39.2,0,0,0-11,1.4,35.817,35.817,0,0,0-10.75,4.55q-3.05,1.849-3.2,2.4m4.75,2.35q-2.05-1.9,3.25-4.05a78.866,78.866,0,0,1,13.25-3.85,12.663,12.663,0,0,1,8.4,1.5,21.581,21.581,0,0,1,6.4,5.6q1.1,1.4-2.6,3.65a19.476,19.476,0,0,1-9.45,2.45,29.111,29.111,0,0,1-10.35-1.35,52.839,52.839,0,0,1-8.9-3.95M23.6,25.442a4.292,4.292,0,0,0,.75,3.35q1.151,1.8,4.15.7,2.95-1.1,2.45-2.15a25.532,25.532,0,0,0-1.2-2.3,6.546,6.546,0,0,0-1.6-1.9,2.358,2.358,0,0,0-2.55.1,3.415,3.415,0,0,0-2,2.2m33.6-10.75q-.55.2-1.45,1.9-.949,1.65,1.55,2.45t3.2.2a6.831,6.831,0,0,0,1.4-1.85q.7-1.251-.25-1.95a4.8,4.8,0,0,0-2.4-.85,4.54,4.54,0,0,0-2.05.1"/></svg>