<svg overflow="visible" width="100%" height="100%" viewBox="0 0 116.053 103.754" xmlns="http://www.w3.org/2000/svg"><path d="M20.183,3.843q-1.9-1.1-6.4-1.05-4.551,0-9.65,4a9.855,9.855,0,0,0-4.1,9.2q.2,3.9,3.1,10.2a8.87,8.87,0,0,1,.5,7.2,11.952,11.952,0,0,0-.2,7.8q.2.6,1.35,4.35,1.1,3.75,5.65,10.85,4.5,7.05,5,8.2.5,1.1,0,12-.4,9.1,1.25,14.15t4.8,5.65a16.7,16.7,0,0,0,6.55-.1,13.16,13.16,0,0,0,4.15-1.3q1.05,2.4,2.15,4.8a6.952,6.952,0,0,0,4.2,3.7,6.741,6.741,0,0,0,6.1-1.3q4.5-3.2.6-6.4a9.047,9.047,0,0,1-3.3-7.9q.5-10.6.9-15.8a57.731,57.731,0,0,1,1.2-9,2.711,2.711,0,0,0,.55.3q2.5,1.2,6.45,2.9,3.949,1.65,3.4,7.75a68.545,68.545,0,0,0-.35,9.55q.15,3.45.5,6.25.4,2.8,1.45,3.4a5.853,5.853,0,0,0,3.2.35l5.4-.4q5.4-.7,6.85-1.75a4.961,4.961,0,0,0,1.75-3.65q.3-2.6.6-6.6l.2-5.9a3.058,3.058,0,0,1,.8-2.4,3.335,3.335,0,0,1,2.2-.6q.2,1.8.4,8.8.15,6.949,4.9,7.4a14.448,14.448,0,0,0,8-1.2q3.2-1.65,3.05-7.85a44.466,44.466,0,0,0-.55-7.3q1.15-.1,2.5-.25,3.6-.4,3.1,2.8-1.5,11.3-1.5,11.8-.4,3.4,1.3,5l.5.4a5.827,5.827,0,0,0,4.6.4q6.1-1,8.7-4.4a14.07,14.07,0,0,0,3-6.7,39.571,39.571,0,0,0,.4-5.6,69.4,69.4,0,0,1,.35-7.55,51.88,51.88,0,0,0,.15-8.65,130.95,130.95,0,0,0-1.4-13.9,48.8,48.8,0,0,0-3.8-14.7,31.339,31.339,0,0,0-9.5-12,19.109,19.109,0,0,0-2.5-1.65,27.046,27.046,0,0,0-11.35-3.85,48.754,48.754,0,0,0-6-.3,6.63,6.63,0,0,0-.05-1.4,6.349,6.349,0,0,0-3-4.6q-11-7-21.7-4a15.463,15.463,0,0,1-9.2,0,58.951,58.951,0,0,0-12.8-2.9q-5.5-.55-9,2.15-3.551,2.65-5.45,1.6m-5.85,2.05a8.852,8.852,0,0,1,4.35.5,6.618,6.618,0,0,0,4.2.2q1.5-.6,5.75-2.9,4.2-2.3,12.7.4,2.7.7,7.9,2.2a13.472,13.472,0,0,0,7.8-.25,19.551,19.551,0,0,1,6.2-1.5,11.886,11.886,0,0,1,5.7,1q2.7,1.15,6.6,3.25,2.7,1.3,2.9,3,.3,1.6-3.1,6.35a37.215,37.215,0,0,0-3.8,5.85q-.4,1.151.6,7,1,5.8-.7,9.2a7.76,7.76,0,0,1-6.2,4.3,2.265,2.265,0,0,0-1.5.6,2.167,2.167,0,0,0-.8,1.4,1.084,1.084,0,0,0,.45.75q.4.4,6.75-1.15,6.3-1.55,5-9.75-1.35-8.2-.15-12a19.077,19.077,0,0,1,4.65-7.55,8.514,8.514,0,0,0,1-1.3q.9.1,2.75.4,3.15.5,6.25.9a19.994,19.994,0,0,1,9.1,3.55q.75.551,1.5,1.15a37.6,37.6,0,0,1,7.3,8.8,28.041,28.041,0,0,1,3.3,9.3q.6,3.2,1.4,9.8a70,70,0,0,1,.75,10.9q-.2,3-.4,9.35-.251,6.3-.3,8.6a24.135,24.135,0,0,1-1.15,5.7,6.641,6.641,0,0,1-4.5,4.55l-3.8,1.1q-2,.5-2.6,0t-.5-2.7q.4-4.1,1.6-12.3.5-3.6-.3-4.6a3.56,3.56,0,0,0-2.3-.85,13.994,13.994,0,0,0-2.1-.05q-.5,0-10.4.5a49.994,49.994,0,0,1-10.4-.4q-2.3-.4-3.2.5-.8.8-1,3.4l-.9,10.8q-.3,4.2-2.3,5.4a28.633,28.633,0,0,1-6,1.2q-3.9.5-4.7,0-.7-.5-.75-4.4-.051-9.1.15-13.8.2-8.4-4.8-9.75-5.05-1.35-6.75-1.95a8.279,8.279,0,0,0-.85-.25,27.44,27.44,0,0,1,1.2-3.65,2.584,2.584,0,0,1,.9-1.3,3.231,3.231,0,0,1,1.6-.3,8.476,8.476,0,0,0,5.9-2,8.075,8.075,0,0,0,3.1-4.9q0-1.3-.7-1.5-1.3-.3-2.2,1.3l-1.5,2.5q-4,4.2-6.9-.6a31.132,31.132,0,0,1-2.7-11.95q-.45-7.3,1-4.25t3.5,6.55q2,3.45,5.1,3.35a2.263,2.263,0,0,0,1.25-.25q.3-.3,0-1t-1.7-1.1q-1.45-.45-3.35-3.15-1.8-3.2-3.15-5.45-1.35-2.3-2.55-2.5a1.464,1.464,0,0,0-1.75.75q-.6.95-.85,6.95a22.937,22.937,0,0,0,1.7,10.35,12.509,12.509,0,0,1,.3,9.2q-3.7,10.6-3.9,28.3a30.957,30.957,0,0,0,.4,6.1,7.636,7.636,0,0,0,2.3,4.7,7.09,7.09,0,0,1,1.9,2.05.869.869,0,0,1-.2,1.05q-1.751,1.65-3.45.65a9.238,9.238,0,0,1-2.95-2.85,45.279,45.279,0,0,1-6.1-11.5q-.6-1.7-4-12.5-.1-.3-1-6,2.1.3,4,.65,1.9.3,2.05-.15a7.053,7.053,0,0,0,.25-1.35q.05-.95-1.4-1.15-1.3-.2-1.9-.3-2.6-.3-3.1-.8t-.6-2.9q-.1-2.8,0-9.1.2-6,0-9.2a2.615,2.615,0,0,0-.4-.7q-.4-.4-.5-.3-1.2.5-1.3,1.1l-.4,5.9a70.054,70.054,0,0,0,4.2,33q2.049,5.25,4.3,10.4-3.851,1-4.2,1.1-4.2.9-5.7,0-1.4-.9-2.1-5-1.5-12-1.15-18.05.4-7.05-.15-7.9-.6-.85-2.05-2.5-1.5-1.65-5.45-8.95-3.951-7.35-4.45-10.05a12.286,12.286,0,0,1-.05-5.05,13.51,13.51,0,0,0,.4-9.2q-2.1-5.7-3.1-8.8-1.6-5.8,2.3-8.8,2.5-2,8.9-3.4m65.2,69.7q-.1-2.1-.2-3.25,2.9.05,9.5.05.75-.049,1.65-.1a7.655,7.655,0,0,0-.05.95q-.1,3.251,0,6.3a9.561,9.561,0,0,1-.65,4.5q-.75,1.451-5.05,1.65a12.074,12.074,0,0,1-2.95-.05q-1.751-.251-2.25-10.05m-45.95-17.85q1.4-.35,1.4-1.1a1.54,1.54,0,0,0-.4-1.1,1.33,1.33,0,0,0-.95-.25l-6.7,1q-.6.05-.6.9a1.756,1.756,0,0,0,.5,1.3q.45.5,2.3.1,3-.5,4.45-.85m11.75-34.35a1.509,1.509,0,0,0,2.15,0q1.05-.95.3-1.8-.8-.9-2.1,0-1.35.9-.35,1.8m-34.15,13.05q.45-4.3,1.25-1.05a20.7,20.7,0,0,0,2.7,6.3q2.4,2.8,5.1.6a1.448,1.448,0,0,0,.6-1.3,1.578,1.578,0,0,0-.4-.6q-.3-.4-.5-.3-2.5.6-3.3-1a20.4,20.4,0,0,1-1.65-3.65,16.982,16.982,0,0,0-1.3-3.05q-.951-1.751-2.05-1.2a3.843,3.843,0,0,0-1.6,1.35,10.649,10.649,0,0,0-1,2.45,15.4,15.4,0,0,0-.55,4.1q-.051,2.449,2.3,8.45t5.75,6.65q3.4.6,3.3-.9-.051-.5-1-1.1a2.245,2.245,0,0,0-.7-.3q-3.7-.8-5.55-6a21.544,21.544,0,0,1-1.4-9.45m10.55-12q-.251,1.2.45,1.6a3.056,3.056,0,0,0,1.7.35q1-.05,1.2-1.2.15-1.151-1.5-1.55-1.65-.45-1.85.8"/></svg>