<svg overflow="visible" width="100%" height="100%" viewBox="0 0 114.103 115.506" xmlns="http://www.w3.org/2000/svg"><path d="M106.3,31.506a59.321,59.321,0,0,0,1.8-12.5q.3-3.6-1.2-3.7a1.351,1.351,0,0,0-1.45.75,4.43,4.43,0,0,0-.35,2.35,42.552,42.552,0,0,1-1.2,11q-.8,3.6-2.9,10.7a19.085,19.085,0,0,1-.8,3.1q-.5,1.9.7,2.6a.9.9,0,0,0,.6,0,1.143,1.143,0,0,0,.6-.4,3.249,3.249,0,0,0,.9-1.7q2.3-8.1,3.3-12.2M82,51.006q-1-.5-2.3.7a2.657,2.657,0,0,0-1.2,2.4,4.038,4.038,0,0,0,.7,1.6,3.979,3.979,0,0,0,1.4,1.2q.8.4,1.7-.9a3.681,3.681,0,0,0,.75-3q-.251-1.7-1.05-2m-6.7-47.8q-2.3-.1-2,5.3.1,3.9-.4,11.6a34.362,34.362,0,0,0,1.3,11.5q.9,2.8-1.5,3.8a12.348,12.348,0,0,0-4.8,3.5l-3.6,4.6a27.759,27.759,0,0,1-6.5,7,57.576,57.576,0,0,1-8.1,5.2q-2,1.2-2.7,1t-2.1-2.2q-9.4-14.4-14.3-21.5-1.5-2.2-2.5-1.9-3,1.3-3.5,7.9-.1.9-.9,17.3-.6,10.3-1.4,17.5l-9.1-8.5a5.872,5.872,0,0,0-5.3-1.6,5.187,5.187,0,0,0-3.8,3.7,24.607,24.607,0,0,0-1.6,10.9q.2,3.7,1.3,11.1a7.375,7.375,0,0,1-1.9,6.6q-1.9,2.3-1.9,3.8a10.74,10.74,0,0,0,1.9,4.1,9.922,9.922,0,0,0,5,4,25.364,25.364,0,0,0,6.2,1.2q4.5.5,6.6,2.9,1.8,2.1,6.2,2.6,16.3,1.8,27.2,0,2.1-.3,12.3-1.1l22.8-2.3a7.945,7.945,0,0,0,2.85-.75,1.692,1.692,0,0,0,1.05-1.6q-.1-1.05-2-.85a14.282,14.282,0,0,1-2.3.3q-1.3.1-30.6,3.3-18.4,2-30.6.3-2.4-.3-2.5-.3a2.718,2.718,0,0,1-1.9-1.7q25.6-5.1,29.9-5.8,11.3-1.9,23.5-11,2.2-1.451,1.75-2.35t-.95-.9a12.679,12.679,0,0,0-3.3,1.8q-2.8,1.75-4.1,2.65a41.02,41.02,0,0,1-16.8,7q-12.1,2.5-18.2,3.6a70.721,70.721,0,0,1-18.5,1.5q-6.4,0-10.1-2.5-4.5-3,.4-8a5.3,5.3,0,0,0,1.1-1.55q.5-1-.2-6.4-.7-5.45-1.4-8.85-.8-4,1.4-10.6a2.125,2.125,0,0,1,3-1.6q1.3.1,7.6,6.25,6.25,6.1,7.5.85a178.754,178.754,0,0,0,1.8-19.2q.7-16.1,1-19.3.2-1.4,1-.3,4.8,6.4,13.4,20,3.9,6.1,7.4,3.9,9.7-6.1,10-6.3a27.344,27.344,0,0,0,8-8.8,15.089,15.089,0,0,1,8.6-7,34.845,34.845,0,0,1,13.6-2,5.351,5.351,0,0,0,5.6-3.9q6.2-17,9.65-26.65.8-2.1,1.6,0a51.011,51.011,0,0,1,4.65,18.45q.8,12.6-4.8,20.9-.6,1-1.9,3-1.6,2.75-.4,3.5,1.249.5,6.15-6,4.849-6.5,3.75-21.7a59.107,59.107,0,0,0-5.6-20.9,2.563,2.563,0,0,0-2.4-1.7,3.048,3.048,0,0,0-2.8,1.5q-1.8,4.3-5.6,15-3.5,9.7-5.9,15l-.55.1q-.05-1.251-.75-5.6-.2-2-.4-3a6.814,6.814,0,0,0-.8-2.7q-2.5-4.2-8.8-13.2-3-3.8-5-3.9m4.6,7.8q1.7,2.4,5,7.2a22.735,22.735,0,0,1,3.1,8q.1.249.95,5.65l-9.15,1.05-.5.1q-1.5.3-2.1-1.4a35.761,35.761,0,0,1-1.6-11.7,95.4,95.4,0,0,1,1.1-12.3q.35-1.1,3.2,3.4"/></svg>