<svg overflow="visible" width="100%" height="100%" viewBox="0 0 51.599 116.389" xmlns="http://www.w3.org/2000/svg"><path d="M46.058,33.575q.7-10.9.3-14.3-1-8.1-5.9-12.25a28.929,28.929,0,0,0-11.6-6.2q-6.3-1.65-10,0a17.6,17.6,0,0,0-5.5,3.35q-1.75,1.75-5.6,9.2-3.9,7.4-3.4,18.6a49.026,49.026,0,0,1-.1,7.3,16.024,16.024,0,0,1-2.4,6.9q-2.4,4.8-1.7,12,.4,4.1,1.2,8.9.75,4.8,2.4,4.6,1.2-.05.8-2.2-.4-2.2-.5-3.2-1-11.5-1.1-13.8-.2-5.3,3.7-6.8a1.783,1.783,0,0,0,1.2-1.4q0-.2-.8-4.9-.8-4.751,1.45-17.7.551-3.15.55.15a28.535,28.535,0,0,0,.25,3.25,8.943,8.943,0,0,0,2.55,5.2q5.4,5.6,16.8,4.9a12.906,12.906,0,0,0,9-3.9,13.131,13.131,0,0,0,4.1-9q.7-5.7-4.4-9.3a11.707,11.707,0,0,0-10.3-1.9q-4.2.9-5.7.3-3-1.3-4.85-.7a13.564,13.564,0,0,0-4.3,2.4q-2.4,1.8.7-3.25,3.1-5.1,6.3-5.65a23.2,23.2,0,0,1,6.85-.2,20.339,20.339,0,0,1,11.3,4.8,18.268,18.268,0,0,1,6.1,10.5,37.557,37.557,0,0,1-.4,15.8,8.594,8.594,0,0,0,.1,4.3q1.1,4.2,1.1,4.3a12.869,12.869,0,0,0-7.4-2.4,8.554,8.554,0,0,0-6.9,3.1q-5.6,7.4-4.7,14.8a146.1,146.1,0,0,0,4.3,18.7q2.1,6.1,5.9,18.4a102.4,102.4,0,0,0,7.3,17.8q1.65,2.7,3.2,2.25a1.87,1.87,0,0,0,1.3-2.25q-.249-1.751-1.9-17.1,0-2.4.5-2.6a3.908,3.908,0,0,0,2.2-2.6q.3-2.2.4-3.3.4-2.5,1.6-8.1,1.1-5.3,1.5-8.1.15-15.251-.25-16.7-.349-1.451-.45-1.9a23.1,23.1,0,0,0-.8-2.4q-2-5.8-2.8-8.7a25.406,25.406,0,0,1-1.2-9m-15.1-19.8q5.7.4,7.3,4.5,1.5,3.8-1.75,9.3-3.3,5.449-8.2,5.45a41.782,41.782,0,0,1-8.65-.8,9.78,9.78,0,0,1-6.25-4.55,10.284,10.284,0,0,1-1.65-8q.8-4.3,3.1-5.4a6.11,6.11,0,0,1,5.1-.2,14.907,14.907,0,0,0,5.2.4,15.279,15.279,0,0,0,2.9-.4,20.157,20.157,0,0,1,2.9-.3m-.4,35q3.9-7.2,9.35-3.6t6.75,6.6a21.072,21.072,0,0,1,1.45,3.9q.1.85.35,5.2.2,4.35.2,7.65,0,3.25-.6,4.15-5.2,7.1-3.55,10.85a16.983,16.983,0,0,1,1.7,5.55q.05,1.8-.75,1.45a2.46,2.46,0,0,1-1.3-1.35q-1.05-2.449-2.3-1.75a1.957,1.957,0,0,0-.65.95q-.349.8.7,5.5t2.75,15.8q.6,3.851-1.4.6a78.573,78.573,0,0,1-3.2-9q-2.6-8.1-5.1-15.5a179.363,179.363,0,0,1-6.2-22.7q-1.6-8.1,1.8-14.3m-8.35-19.65a5.89,5.89,0,0,0,1.6,2.75q.851.7,1.5-.35a12.009,12.009,0,0,0,1-2.3,1.6,1.6,0,0,0-.5-2,3.135,3.135,0,0,0-2.6-.45q-1.75.251-1,2.35m-1.6-7.2a3.488,3.488,0,0,0-.25-2.25,3.521,3.521,0,0,0-1.55-.75,2.187,2.187,0,0,0-2.2.8,2.039,2.039,0,0,0-.75,2.05,2.269,2.269,0,0,0,.85,1.25,3.523,3.523,0,0,0,2.2.65q1.5,0,1.7-1.75m13.5-.15a1.949,1.949,0,0,0-1.15-1.2,4.191,4.191,0,0,0-1.7-.4,2.66,2.66,0,0,0-1.7.7,1.836,1.836,0,0,0-.5,1.9,2.533,2.533,0,0,0,1.2,1.9,2.6,2.6,0,0,0,2.1.3,2.8,2.8,0,0,0,1.4-1.25,2.293,2.293,0,0,0,.35-1.95"/></svg>