<svg overflow="visible" width="100%" height="100%" viewBox="0 0 85.564 114.615" xmlns="http://www.w3.org/2000/svg"><path d="M40.914.76q-.15-1.05-1.7-.65a1.311,1.311,0,0,0-1.05,1.95q.45,1.5-2.6,2.5-3.15.9-5.6,6.15-5.6,13-8.5,21.1a21.656,21.656,0,0,1-1.6,4.1,8.888,8.888,0,0,1-3,3.1q-3.1,1.6-2.1,4.7a4.713,4.713,0,0,0,4.2,3.4q1.6,0,2,.9a3.281,3.281,0,0,1,0,2q-.1,1-.35,3.2-.251,2.5-3.25,2.8a75.556,75.556,0,0,0-9.3,1.2q-3,.6-3.9,1.8a23.409,23.409,0,0,0-2.8,4.85,13.1,13.1,0,0,0-1.35,4.2,3.108,3.108,0,0,0,1.3,2.7q1.4,1.2,7,6.7,5.55,5.451,12.35,3.45.4,5,.5,14.65a129.043,129.043,0,0,1-.5,14.3q-.6,4.65,5.55,4.75,6.15.051,27.85-.4,8.8-.5,9.2-7.25a84.245,84.245,0,0,0,.15-10.2q-.251-3.4-.65-6.7-.4-3.35-.6-5.65-.3-5,.5-5.9.8-.8,5.6-.8h2q4.3-.1,6.2-1.9a7.351,7.351,0,0,0,2.35-4.8q.35-3,2.15-3.35a8.55,8.55,0,0,0,3.15-1.25,2.792,2.792,0,0,0,1.45-1.9,2.977,2.977,0,0,0-1.2-2,12.274,12.274,0,0,0-3.9-2.05,6.657,6.657,0,0,1-3.9-4.3q-1.3-3.349-6.4-3.55-6.4-.1-7.5-1.4-1-1.2-.7-5.8a62.153,62.153,0,0,1,8.05-.45q3.75,0-.05-4.75t-4.95-5.9a18.457,18.457,0,0,1-3.05-5.2,37.516,37.516,0,0,0-3.9-8.6q-5.1-8-10.5-14.9a9.353,9.353,0,0,0-3.7-2q-2.3-.7-2.55-1.25a4.666,4.666,0,0,1-.4-1.6m-8.65,11.55q1.2-2.7,5.7-4.4,4.4-1.7,7.1-.6a8.922,8.922,0,0,1,2.9,2.6q6.9,8.5,9.5,15.55a45.927,45.927,0,0,0,5,10.4q1.249,1.7,2.7,3.45a21.237,21.237,0,0,0,2.65,2.75q1.2.951-3.3.9-.2,0-11.1.3-5.4.15-17.5.65-12.15.5-14,.45a6.363,6.363,0,0,1-2.85-.6q-1-.549-1.1-.85a1.983,1.983,0,0,1,1.4-2.6,6.083,6.083,0,0,0,3-2.8,29.87,29.87,0,0,0,1.6-4q2.8-8.2,8.3-21.2m-7.6,35.3a6.537,6.537,0,0,1,3.1-.8l27.2-1q3.1-.1,3.6.4t.6,3.7q.1,4.5.2,18.8,0,11.8.5,18.8.251,5.751.45,9.25t.45,8.45a4.613,4.613,0,0,1-2.6,4.8,13.5,13.5,0,0,1-5.7,1.4q-17.749-.1-27.35-.1-1.35,0-1.25-1.4.1-2.55.1-5.8l-.7-47.2a49.551,49.551,0,0,1,.3-6.4,5.777,5.777,0,0,1,1.1-2.9m-6.7,11.1q2.3-.3,2.3,2.2l.3,12.8a8.512,8.512,0,0,1-.3,2.7,2.7,2.7,0,0,1-1.8,1.8q-3.8,1.3-7.8-2.45-4.05-3.75-5.55-4.85a8.728,8.728,0,0,1-2.1-2,2.07,2.07,0,0,1-.05-2.2,33.939,33.939,0,0,1,1.7-4,5.446,5.446,0,0,1,3.5-2.6q3.3-.6,9.8-1.4m56.7.8a4.453,4.453,0,0,0,1.55,1.95,21.365,21.365,0,0,0,4,1.85q2.951,1.15-.6,2.3-3.6,1.15-3.75,4.2.3,4.1-3.7,4.8-5.2,0-7.4.1-2.7,0-2.7-2.6l-.1-14.7q-.1-2.3,2.3-2.2,1.3.1,4,.3a5.874,5.874,0,0,1,6.4,4m-24.8-1.7a24.8,24.8,0,0,0-4.15-1.35,32.026,32.026,0,0,0-7.6.1q-5.7.45-7.25,2.4-1.6,1.95-2.85,7.5t6.05,9.4q7.249,3.851,12.65.25t6.5-7.35a11.183,11.183,0,0,0,.05-6.85,6.344,6.344,0,0,0-3.4-4.1m-8.05,1.35a28.466,28.466,0,0,1,5.35.65,7.115,7.115,0,0,1,2.1,1.55,4.118,4.118,0,0,1,1.45,2.55,9.038,9.038,0,0,1,.05,2.5q-.15,1.2-2.3,4.55a8.9,8.9,0,0,1-6.25,4,10.732,10.732,0,0,1-7.95-1.95,6.5,6.5,0,0,1-2.85-7.2q.9-4.65,3.6-5.75a15.072,15.072,0,0,1,6.8-.9"/></svg>