<svg overflow="visible" width="100%" height="100%" viewBox="0 0 31.554 115.354" xmlns="http://www.w3.org/2000/svg"><path d="M25.573,4.4q-.9,2.75-1.8,6.2-.7,2.75-1.6,6.3-.5,2.45-1.1.25-1.151-4.05-2.2-7.75-1.8-6.4-2.35-7.9-.6-1.551-1.75-1.5-1,0-1.2,2.45L12.123,19.6q-.2,2.049-.95.05L5.673,5.3q-.5-1.05-1.25-2.6T2.723,1a1.125,1.125,0,0,0-1.35.5,5.012,5.012,0,0,0-.65,2.1q-.2,1.449-.5,4.85a33.165,33.165,0,0,0-.15,5.95q1.449,11.75,3.15,16.8A18.128,18.128,0,0,0,9.973,40q2.3,1.8,2.8,5.8,1.9,14.2-1.8,36.5-1.8,11.2-3.3,23a8.949,8.949,0,0,0,1,5.5,7.44,7.44,0,0,0,3.4,3.7q2.9,1.4,7.9.5t7.3-3.4a3.557,3.557,0,0,0,1.1-2.6q.8-9.8-1.9-28-3.5-27.3-4.7-35.3a9.6,9.6,0,0,1,.2-4.9q.8-2,5.85-5,5-3.051,3.3-15.2-1.7-12.2-1.9-14.75-.25-2.6-1.5-3.4-1.249-.85-2.15,1.95m.8,6.05q.549-2.151.95,0a39.01,39.01,0,0,1,.35,19.65,15.529,15.529,0,0,1-1.1,3,5.148,5.148,0,0,1-2.2,2.1l-1.4.7q-3.8,2.5-4.2,3.7-.5,1.1.2,5.8,2.9,19.2,6.6,49.5.3,2.2.5,10.3.3,6.8-8,7.3-8.3.6-7.4-7.7,1.6-14,3.2-24,2.8-14.1,1.8-32.5-.3-5.9-1.05-7.55a6.231,6.231,0,0,0-2-2.55q-1.251-.9-1.75-1.3a16.03,16.03,0,0,1-5.3-8.2q-1.8-8.1-2.1-10.1a36,36,0,0,1-.25-9q.3-2.351,1.15,0l5.6,14.2a12.388,12.388,0,0,0,1.3,2.3q.9,1.4,1.55,1.15t1.05-1.6a12.84,12.84,0,0,0,.5-2.65q.9-8,1.25-11.25.4-2.451,1.05,0l3.2,10.85a4.041,4.041,0,0,0,.6,1.2,2.055,2.055,0,0,0,.85.8q1.65.35,2.05-2.3,1.7-7.5,3-11.85"/></svg>