<svg overflow="visible" width="100%" height="100%" viewBox="0 0 115.336 66.879" xmlns="http://www.w3.org/2000/svg"><path d="M112.727,23.245a6.593,6.593,0,0,0,2.4-2.4,5.706,5.706,0,0,0-.2-3.6,107.507,107.507,0,0,0-4.35-15.05,3.3,3.3,0,0,0-2.1-2,5.785,5.785,0,0,0-4.05.45,88.248,88.248,0,0,1-12.8,5.1q-24.5,6.2-47.1,13.6-13.6,4.6-17.4,5.7a115.831,115.831,0,0,1-16,3.7q-6,.75-7.35,1a14.056,14.056,0,0,0-2.1.5,3.027,3.027,0,0,0-1.35,1.2,1.617,1.617,0,0,0-.1,1.8q.4.5,1.3,1.55a68.205,68.205,0,0,1,8.9,13.95,5.383,5.383,0,0,0,5.6,3.2q9.2-.6,13.4-.8a45.115,45.115,0,0,1,17.8,2.2,27.812,27.812,0,0,1,14.3,10.4,10.5,10.5,0,0,0,2.2,2.3,4.3,4.3,0,0,0,3.1.8q10.4-1.8,13.75-2.45,3.3-.649,4.35-.85a2.569,2.569,0,0,0,.9-.35l.05-.05a29.122,29.122,0,0,0,1.1-6.45q.351-4.849.85-7.75a14.3,14.3,0,0,1,3.6-7.9q5.5-6.3,9.45-10a27.745,27.745,0,0,1,6.9-5.05,31.643,31.643,0,0,0,4.95-2.75m-18.6-15.2a76.353,76.353,0,0,0,10.95-4.25q2.6-1.3,2.85-.75,1.9,5.7,3.6,12.4,1,3.3.6,4.1-.3.9-3.1,2.6-2.2,1.4-6.7,4.1a30.467,30.467,0,0,0-6.1,5.1q-1.9,2.3-3.1,2.4-1.2,0-3.3-2.2a48.919,48.919,0,0,1-10.5-15.9q-1-2.3-.6-3,.4-.6,3-1.3,9.2-2.3,12.4-3.3m-17.6,8.2q5.5,13,14.7,20.3a21.353,21.353,0,0,0-5.6,9.6,95.9,95.9,0,0,0-2,11.1q-.249,4-1.8,4.1-7.6,1.1-12.6,2.3a5.1,5.1,0,0,1-5.6-1.8,42.125,42.125,0,0,0-8.55-8.2,21.729,21.729,0,0,0-8.9-4q-4.3-.75-3.95-2.55a56.138,56.138,0,0,1,2-6.6q1.6-4.75,1.6-15.95a3.323,3.323,0,0,1,.3-2,2.29,2.29,0,0,1,1.5-1.1q8.1-2.5,24.2-7.5,2.4-.7,3.1-.4a7.947,7.947,0,0,1,1.6,2.7m-35.8,7.4q2.7-.8,2.4,1.7-.3,3.1-.6,9.3a31.612,31.612,0,0,1-1.4,7.8q-.95,2.3-1.75,4.05-.849,1.751-3.4,1.7a45.36,45.36,0,0,0-5.2.1q-2.649.15-7.25.35-4.7.1-7,.3a4.5,4.5,0,0,1-4.5-2.9q-2.4-4.7-3.6-7a24.711,24.711,0,0,0-3.5-4.8q-1.1-1.2,1.35-1.6,2.451-.45,6.65-1.4,9.3-2.2,12.4-3a156.519,156.519,0,0,0,15.4-4.6"/></svg>