<svg overflow="visible" width="100%" height="100%" viewBox="0 0 93.143 115.267" xmlns="http://www.w3.org/2000/svg"><path d="M28.043,3.067q-2.5-2.6-7.3-3a12.155,12.155,0,0,0-7.9,1.6q-14.2,9.6-12.7,27.9.7,9.5,5.2,24.1,6.4,21.3,7.5,37.8.3,5.5,2.3,20.2.4,2.7,1.1,3.2.6.4,4,.4l33.7-2.6a53.608,53.608,0,0,0,13.5-2.9q7.5-2.6,13.8-22.15,6.251-19.551,9.9-35.65,3-9.8,1.5-16.8-1.9-9.4-12-7.3-14,3.5-21.2,4-12.8.7-18-8.1-3.9-7.2-6.1-10.8a56.917,56.917,0,0,0-7.3-9.9m-7.7-.2a9.91,9.91,0,0,1,7,3.5,75.893,75.893,0,0,1,6.4,9.4q1.9,3.3,5.5,10,4.1,7.2,11.6,8.4a35.216,35.216,0,0,0,14.7-.1q4.9-.8,14.5-3.1,5.7-1.4,8.2,1.1,2.3,2.3,1.9,8.1-.8,11.3-7.3,32.25t-6.9,22.25q-2.3,7.4-6.4,10.8-4.2,3.4-12.1,4.1l-35.6,2.6q-2.7.2-3.3-.2-.5-.5-.9-3.3-1-7.2-1.5-10.8-.8-6.4-1-10.8a87.482,87.482,0,0,0-2.3-15.7q-.8-3.2-4.1-15.3-5.5-22.2-5.8-26.8-.9-15.6,9.8-23.9a11.46,11.46,0,0,1,7.6-2.5m-1.6,4.7a8.015,8.015,0,0,0-7.7,4.5q-4.1,7.9-3.8,13.3.4,1.8,1.1,5.3a28.519,28.519,0,0,0,1.4,5.2,148.774,148.774,0,0,1,9.9,39.7,186.481,186.481,0,0,0,3.1,22.1q1.8,8.5,7.8,9.6,1.2.2,12.9-.8a110.54,110.54,0,0,1,13.3-1.1q8.1-1.2,10.6-6.2a67.536,67.536,0,0,0,5-17.1,76.608,76.608,0,0,1,7.7-24.9,84.389,84.389,0,0,0,5.4-12.2q4.4-11.2-9.9-9.2-11.4,1.4-17.1,2.3a21.524,21.524,0,0,1-13.7-2.1,25.553,25.553,0,0,1-10-9.6q-5.3-9.5-8.1-14.1a9.16,9.16,0,0,0-7.9-4.7m-.8,3.3q2.4-1.3,5,1.3a9.477,9.477,0,0,1,2.8,6.9q-.2,7.7,0,23a154.736,154.736,0,0,0,1.45,21.5q1.251,8.2,2.75,18.5.9,5.7,2.5,17.2a33.232,33.232,0,0,1,.55,3.8q.1,1.449-1.1,1.4a7.375,7.375,0,0,1-2.25-.4q-3.5-1.5-4.6-8.1-.7-4.1-3.1-23.3-.849-6.75-1.3-10.3a94.836,94.836,0,0,1-.4-11.2,159.956,159.956,0,0,0-1.5-19.45q-1.449-11.85-1.75-14.95-.349-3.1-.35-3.9a2.264,2.264,0,0,1,1.3-2m35.75,47.85q-.9-14.55-.9-17.35a24.093,24.093,0,0,0,5.75-.3q2.8-.3,3.4.3.7.5.5,3.3-.6,11.1-1.8,33.2,0,3.2-.3,9.7.1,5.7.4,10.3a8.671,8.671,0,0,1-.3,3.3q-.9.15-5.35.85-.1-1.1-.4-3.25a98.715,98.715,0,0,1-.45-15.45q.3-10.05-.55-24.6m11.75-16.05a2.65,2.65,0,0,1,2.6-2.8l10.3-1.5q8.4-1.1,2.3,10.6a117.916,117.916,0,0,0-12.4,39,24.725,24.725,0,0,1-1.2,4.2q-.5,1.3-3.3,7,0-5.1-.1-7.3t.5-18.5q.6-16.3,1.3-30.7m-53.8-10.9q-2.7-10.3,2.2-18.2,1.3,7.3,2.1,15.9t1.15,16.2q.051,1.849.2,3.15-4.2-11.351-5.65-17.05m16.25-9.65q-.05-2.8,1.15-.35a41.708,41.708,0,0,0,9.8,13.55q-.05,1.849-.05,6.8.051,10.85.25,30.05.951,17.6,1.85,24.25.9,6.6.45,7.3t-4.4.55a1.511,1.511,0,0,1-.8-1.15,44.807,44.807,0,0,1-.85-4.65q-.549-3.7-3.95-24a193.453,193.453,0,0,1-2.85-25.3l-.6-27.05m13.85,31.15q0-8.8-.05-12.95-.05-1.1-.1-1.85-.05-1.3.9-.65a22.325,22.325,0,0,0,7.6,3.2v1.05q.1,3.3.4,9.6.25,6.3.85,26.4-.2,8.55.2,14.05.351,5.5.55,7.65t-.95,2.7a11.218,11.218,0,0,1-3.55.75q-2.349.15-2.75-.55,0-.2-.3-1.7-2-12.1-2.6-34.6-.2-4.3-.2-13.1"/></svg>