<svg overflow="visible" width="100%" height="100%" viewBox="0 0 95.508 114.847" xmlns="http://www.w3.org/2000/svg"><path d="M45.508.833a8.7,8.7,0,0,0-.3,1.9q-.8,6.7-.8,7.4,0,3.3-3.2,3.4-16.6.5-27.8,15.7-8.8,11.8-13.2,30.7a3.872,3.872,0,0,0,.2,3.1q.7,1.2,3.15.7,6.25-1.2,11.75-2.6,7.5-2,11.7,3.2,2.4,2.9,6.2.7,6-3.4,9.1-4.9,2-1,2.6-.7.5.4.4,2.7l-1,17.1a118.831,118.831,0,0,0,.25,12.35,121.75,121.75,0,0,0,1.75,13.35q1.251,7,5.3,8.55a15.938,15.938,0,0,0,6.25,1.35,13.828,13.828,0,0,0,4.25-.95,17.667,17.667,0,0,0,3.2-1.6,19.285,19.285,0,0,0,3.45-4.4,25.218,25.218,0,0,0,2.6-4.75q.55-1.8.75-2.7.5-1.7-.9-2.1-1.8-.6-2.3,1-.3.9-1.05,2.9-2.649,7.2-9.15,8.7-7.1,1.6-8.8-7.6a86.986,86.986,0,0,1-.5-21.2q1.5-14.2,2.2-21.2.2-1.9.8-2.2.5-.4,2.4.1,2.8.7,8.3,2.7a11.861,11.861,0,0,0,8.4-.4q10.5-4.5,18.7-2.1,4.2,1.1,5.1-3.5a16.814,16.814,0,0,0-.6-7.6q-5.2-16.4-14.5-25a40.117,40.117,0,0,0-7.85-5.85,18.3,18.3,0,0,0-6.4-2.35q-2.649-.3-7.05-1t-6.3-.9q-3.5-.4-3.8-4.2v-4.2a14.041,14.041,0,0,0-.2-3.65q-.3-.65-1.5-.75-1.3-.2-1.6.8m25.05,34.55a38.579,38.579,0,0,0-6.1-10.6,27.165,27.165,0,0,0-9.05-6.75q-5.6-2.75,1.1-1.55,6.7,1.15,8.1,1.25,10.5,1.6,18.3,12.2a61.276,61.276,0,0,1,9.5,20.6,7.885,7.885,0,0,1,.4,3.8q-.3,2.1-2.6,1.8-8.8-2.5-18.3,1.9a12.553,12.553,0,0,1-10.5,0,45.906,45.906,0,0,0-4.7-1.6q-2-.5-3-.8a4.439,4.439,0,0,1-2.4-1.3,4.85,4.85,0,0,1-.35-2.85,108.9,108.9,0,0,0-1.15-12.1q-1.249-9.95-1.4-15.5t.55-6.55q.6-1,5.05,2.05t6.95,4.85a16.311,16.311,0,0,1,4.55,6.1,71.91,71.91,0,0,1,3.6,8.65,31.662,31.662,0,0,1,1.9,7.95q.1,2.85.2,5.3a7.673,7.673,0,0,0,.4,3,.777.777,0,0,0,.95.4,1.343,1.343,0,0,0,.9-.75q.251-.6.05-6.65a38.948,38.948,0,0,0-2.95-12.85m-24.8-17.3q.2,3.2.35,5.3.15,2.051.6,7.55.45,5.451,1.3,13.1a54.781,54.781,0,0,1,.1,8.8,3.586,3.586,0,0,1-2.2,2.9q-1.9,1-6.2,2.9-4.1,1.8-6.3,3a7.128,7.128,0,0,1-3.1,1,4.011,4.011,0,0,1-2.8-1.7q-3.7-4.1-11.7-2.9a81.3,81.3,0,0,0-11.15,2.2q-2.349.752-1.7-1.25,5.85-18.3,11.55-26.55,8.451-12.549,21.9-15.35,3.9-.95,2.5,1.25-4.1,6.351-10.7,17.2-4.9,10.2-5.25,15.2a48.79,48.79,0,0,0-.3,5.4q.1.45,1,.7.851.2,1.2-1.5.351-1.749,1.35-7.5t6.7-15.1a126.051,126.051,0,0,1,9.7-14.45q2.951-3.4,3.15-.2"/></svg>