<svg overflow="visible" width="100%" height="100%" viewBox="0 0 111.219 90.457" xmlns="http://www.w3.org/2000/svg"><path d="M110.019,15.538a33.89,33.89,0,0,0-2.65-8.95q-1.549-2.851-6.15-2.65a1.347,1.347,0,0,1-1.2-.6,7.413,7.413,0,0,0-4.75-3.25,18.655,18.655,0,0,0-6.75.7,9.6,9.6,0,0,0-6.3,4.8,15.7,15.7,0,0,0-1.9,8.5q.1,3.249-.5,3.85-.7.7-4.4.8-9.3.3-13.9.7a106.088,106.088,0,0,1-19.3-.4q-6-.6-19.1-2.8-3-.5-8.3-1.8a52.617,52.617,0,0,0-8.7-1.551,9.724,9.724,0,0,0-4.75.75q-1.85.9-1.2,4.25a75.851,75.851,0,0,0,3.3,10.5q2.651,7.151,3.55,9.651t11.7,4.15q10.8,1.65,33.8,2.75,16,.8,41.9.5a3.293,3.293,0,0,1,2.5.7,3.719,3.719,0,0,1,.6,2.4q-.1,13.25.35,20.2.4,6.95.45,14.2,0,7.249,1.45,7.5,1.451.2,1.7-1.7a43.371,43.371,0,0,0,0-6.75q-.349-4.9.45-5a18.63,18.63,0,0,1,2.2-.1,12.877,12.877,0,0,1,2.1.051,1.642,1.642,0,0,1,1.4,1.6q.1.7.15,1.65,0,.9.1,2.949t.15,4.5q.049,2.451,1.55,2.451t1.6-1.3a41.645,41.645,0,0,0-.15-5.75q-.2-2.7-.2-4.45v-.5q-.15-9.55-.05-12.5.1-3.051.05-3.6t.1-3.15q.1-2.6.1-5.25-.049-2.651.1-9.35.1-6.7.1-14.65a79.1,79.1,0,0,0-1.2-14.05m-2.5,8.8q.6,10.1.5,11.65-.15,1.5-3.95,1.6t-7.45.1q-3.649,0-7.65.2-4.05.151-4.35-.349-.3-.4.1-2.8a100.316,100.316,0,0,0,2-10.2,3.278,3.278,0,0,1,1.3-2.6,5.386,5.386,0,0,1,2.8-.4q1.9.05,5.7.05,3.85,0,8.5.35,2.5,0,2.5,2.4m.5-5.7h-2.6q-.1-.7-2.4-6.849t1.4-4.151q1,.8,2.25,4.7a32.194,32.194,0,0,1,1.35,6.3m.4,29.5q-.1,2.9-.6,3.4-.5.6-3.3.4-2.8-.1-3.4-.8-.7-.7-.9-3.4-.2-2.751,3.5-2.65a33.228,33.228,0,0,1,4.25.25q.55.1.45,2.8m-.4,9.3q-.1.7-.2,2.1-.3,1.2-3.6,1.1-3.349-.1-3.35-2.649t.65-2.851a5.87,5.87,0,0,1,2.3-.3,8.323,8.323,0,0,1,3.5.6q.9.4.7,2m-.5,11.5a18.94,18.94,0,0,1-.3,3.7q-.5,1.4-3.1,1.3a3.958,3.958,0,0,1-2.5-.5,4.181,4.181,0,0,1-.7-2.6q0-3,.05-3.9.15-1.7.25-2.6.3-1.5,2.1-1.4,2.7-.1,3.6,1.6a9.308,9.308,0,0,1,.6,4.4M4.969,17.788q.6,2,3.1,9.05,2.5,7,2,7.75a1.1,1.1,0,0,1-1.35.549q-.9-.249-1.65-2.25-.75-2.049-2.7-7.949-1.95-6-2.25-7.35-.35-1.151.95-1.5,1.25-.351,1.9,1.7m4.95,7.7a81.814,81.814,0,0,0-3.15-7.9q-1.35-2.852,1.25-2.2l15.8,3.851a141.907,141.907,0,0,0,32.5,3.1q7.9,0,23.8-.9,3.2-.1,3.7.4.6.6-.2,3.5l-1.9,9.2q-.6,2.6-1.2,3.1-.5.4-3.3.4h-17.3q-14-.2-24.4-1.4-10.45-1.249-16.8-1.949t-6.65-2.4a66.3,66.3,0,0,0-2.15-6.8m1.55,12.6q-.3-2.351,1.05-2.2,5.9.8,15.05,2.051,11.25,1.449,25.7,2,14.4.549,23.75.6,9.349,0,19.85-.5,10.5-.55,10.9.4.75,1.749-4.55,2.2t-30.75.4q-25.5-.1-33.3-.95-7.8-.9-9.55-1.05-1.8-.151-5.3-.7-3.55-.551-8.15-1.1-4.6-.6-4.7-1.15m85.25-34.2q.6.351.05.6-.55.2-3.25,1.149a10.712,10.712,0,0,0-5.1,4.4q-2.35,3.4-2.55,4.55-.2,1.1-.3,2.2-.15,1.1-1.55,1.349-1.35.4-1.1-3.6.2-5.8,3-8.9,3.2-3.6,8.7-2.4a7.44,7.44,0,0,1,2.1.649m-7.9,11.2q.75-2.25,4.1-5.4t5.95-2.8q.4.6,3.65,11.75h-13q-1-.1-1.2-.7-.3-.6.5-2.85"/></svg>