<svg overflow="visible" width="100%" height="100%" viewBox="0 0 88.6 114.6" xmlns="http://www.w3.org/2000/svg"><path d="M51.66,2.195a5.648,5.648,0,0,0-.6-1.75q-.4-.7-1.8-.3-1.4.351-2.2,3.95L38.36,32q-.8,2.6-1.5,3.1-.6.4-3.3.1-10.3-1.4-15.5-2Q8.96,32,5.36,31.6q-3.65-.45-4.55-.05t-.8,1.9a4.229,4.229,0,0,0,1.5,2.85L13.86,48.7q7.4,7.6,12.4,12.5a7.51,7.51,0,0,1,2.2,3.7,8.554,8.554,0,0,1-.3,4.2q-4.8,16.8-7,25-2.2,8.151-2.15,11.05t.95,3.35a1.957,1.957,0,0,0,1.5.25q.55-.2,8.8-8,8.25-7.85,12.15-12.4a1.63,1.63,0,0,1,2.8.2l3.85,5.05q10.3,14.1,12.65,17.5t3.5,3.5a2.283,2.283,0,0,0,1.65-.4,3.713,3.713,0,0,0,.6-2.25,21.381,21.381,0,0,0-.3-4.35l-5.5-35.7a7.924,7.924,0,0,1,2.4-6.7q7.4-7.8,15.4-16.25,7.95-8.5,8.65-9.5a3.03,3.03,0,0,0,.4-2.45,1.888,1.888,0,0,0-2.1-1.5q-2.25.1-3.25.1-11.8.2-21.3.7a4.176,4.176,0,0,1-2.5-.6,3.4,3.4,0,0,1-1.1-2.4q-1.1-6.2-3.2-15.7-3.2-14.4-3.4-15.4m-3.2,4.9q.95-3.3,1.5.3.3,1.7,2.9,13.2,1.7,8,2.6,13.2.5,2.5-2,2.5H43.06q-3.3,0-2.3-3.2l7.7-26M5.91,36.4q-1.4-1.6.7-1.4,4.95.2,11.55,1.1,11.7,1.5,13.6,1.7a19.486,19.486,0,0,1,3.3.6q1.5.7.7,2.9-1.249,3.8-5.05,18.35-.5,1.851-2.15,0L5.91,36.4m32.65,5a3.616,3.616,0,0,1,1.1-2.1,3.87,3.87,0,0,1,2.3-.4q3.4.3,10.3.5,3.2,0,3.9.6t1.1,3.7l1.9,15.7q.6,6.3-1.8,8.9-3.6,4.3-11.3,12.4-1,1.2-1.8,1.1t-1.6-1.4q-6.1-9.8-9-14.8a5.879,5.879,0,0,1-.6-4.2q3.8-13.3,5.5-20m21.2,2q-.4-3.1.1-3.7.5-.8,3.4-.8,9.9-.249,18.85-.2,3.551,0,1.25,2.45L63.21,62.1q-1.2,1.2-1.55-.75-1.549-15.15-1.9-17.95M57.71,72.3q1.3-1.249,1.45.55.65,5.6,2.4,15.65,2.1,11.85,2.55,16.65.4,4.751-2.1,1.65t-6.05-8q-6.4-8.9-8.1-11a8.458,8.458,0,0,1-1.3-2.2,2.611,2.611,0,0,1,.9-2.5q5.149-5.25,10.25-10.8m-33.45,30.25q-2.4,2-1.8-1.1,1.4-6.949,3.8-15.35,3.349-11.749,4.6-16.15.8-2.2,2.05,0L41.26,83.5a1.847,1.847,0,0,1,.2,1.3,3.392,3.392,0,0,1-.5,1.2,140.193,140.193,0,0,1-16.7,16.55"/></svg>