<svg overflow="visible" width="100%" height="100%" viewBox="0 0 115.041 104.763" xmlns="http://www.w3.org/2000/svg"><path d="M104.925,56.911a17.638,17.638,0,0,1,.6-4.2,13.013,13.013,0,0,1,1.1-2.75,2.735,2.735,0,0,0,.3-2.15,2.419,2.419,0,0,0-1.3-1.4,37.238,37.238,0,0,0-8.1-3.2q-7.4-1.4-17.7-2.3-11.8-1-17.8-1.5a56.5,56.5,0,0,0-15.1.9,135.608,135.608,0,0,0-14.5,3.6q-6,1.8-5.2,8.7l1.9,15.3a7.208,7.208,0,0,1-.5,4.3,6.226,6.226,0,0,1-3.3,2.25,62.02,62.02,0,0,1-6.2,1.75,18.791,18.791,0,0,0-4.7,1.5,23.35,23.35,0,0,0-10.8,11q-2.6,5.6-3.6,15-.1.2.2.6a1.256,1.256,0,0,0,1.05.45q.8.049,1.15-1,.3-1.05,1.5-6.65a42.41,42.41,0,0,1,1.9-6.8q3.7-8,13.8-11.2,5.5-1.6,7.1-2.3a7.947,7.947,0,0,0,4.3-3.4,8.33,8.33,0,0,0,.7-5.5q-.7-5.5-1.2-11.3-.3-3.4.3-3.9.6-.6,3.7.4a89.6,89.6,0,0,0,17.9,3.6,153.537,153.537,0,0,0,18.3.6q9.9-.1,15.5-.5a97.466,97.466,0,0,0,15.7-2.7v12.1a4.356,4.356,0,0,0,1.5,3,47.844,47.844,0,0,0,4.8,3.6,9.2,9.2,0,0,0,5.7,1.4q1.249-.2,1.1-1.1a2.059,2.059,0,0,0-1.2-1.4q-.3-.1-2-.5-4-1.4-5.4-3.3-1.4-2-1.5-6.1v-4.9m-6.5-10.7q9.1,1.8,4.25,4.8a41.093,41.093,0,0,1-8.35,2.1,133.435,133.435,0,0,1-20.8,1.6q-13.8-.3-20.8-.5a61.4,61.4,0,0,1-12.2-1.95q-7.751-1.9-9.7-3.05-1.1-1.2,1.1-2.2a24.584,24.584,0,0,1,4.2-1.5,73.393,73.393,0,0,1,28.3-3.55q14.1,1.05,34,4.25m-70.1-23a6.627,6.627,0,0,0,1,3.5,6.1,6.1,0,0,0,3.3,1.7q11.5,2.9,26.8,2.2,5.7-.2,26.9-2.5a33.638,33.638,0,0,0,4.1-.8q1.3-.4,4-1.2,2.7-.7,4.4-4.4,3.2-6.7.4-16.4-1.1-2.3-6.2-2.8a222.614,222.614,0,0,0-28.1-2.5q-16.8-.2-28,3.4-9.1,2.7-8.8,11.9l.2,7.9m9.45-17.1q5.5-3.25,19.15-3.45t21.25.4a156.33,156.33,0,0,1,17.55,2.45q.8.4,0,1.45t-5.4,1.65q-4.6.6-7.3.7-16.3.1-24.5.1-14.5,0-24.4-.2-1.9.1,3.65-3.1m-7.15,9a3.818,3.818,0,0,1,.2-1.9q.3-.8,1.6-.9a6.694,6.694,0,0,1,2.2.1,1.946,1.946,0,0,1,1.4,1.6l2.7,13.2a34.76,34.76,0,0,0-3.8-.9q-3.7-.4-3.7-4.3l-.6-6.9m25.05-2.3a2.245,2.245,0,0,1,1.6-.75,30.855,30.855,0,0,1,4.55-.15,5.375,5.375,0,0,1,2.9.6,4.6,4.6,0,0,1,1.1,2.5q.1,1.1.4,3.2,1.151,5.049,2,8.9a.147.147,0,0,0,.05.1q-5.2.5-10.4.65-.1-.951-.45-2.9-.949-5.2-1.5-8.4-.6-3.25-.25-3.75m-5.85-.6q2.7-.1,3.2,3,1,7.6,1.6,11.1.15.95.3,1.55-5.4,0-10.9-.45a2.971,2.971,0,0,1-2.8-2.7,101.547,101.547,0,0,0-2.3-10.1q-.6-2.4,2-2.4h8.9m18.7.7q.4-.6,2.4-.7,3.3-.1,4,.3a3.517,3.517,0,0,1,1.6,2.35q.349,1.65.85,6.5.45,4.85-.55,4.95l-6.2.55-2.1-11.25q-.4-2.2,0-2.7m24.2-1.4q.6-.9,4.6-2.5,2.2,9.5-3.1,13.9a6.185,6.185,0,0,1-1.2-3q-.3-2.1-.6-4.75a6.339,6.339,0,0,1,.3-3.65m-11.9.7a54.12,54.12,0,0,0,5.4-.5q3.3-.6,3.6,2.7l.9,7.9q.3,2.6-2.4,2.9l-8.2.8q-.7-7.2-1.4-11.4a2.361,2.361,0,0,1,.3-1.9,3.405,3.405,0,0,1,1.8-.5"/></svg>