<svg overflow="visible" width="100%" height="100%" viewBox="0 0 101.573 112.26" xmlns="http://www.w3.org/2000/svg"><path d="M69.706,23.754q-.9.549-.349,3.3a45.8,45.8,0,0,0,1.9,6.4q1.3,3.7-.5,5.6t-2.7,2.8q-.9.85-2.851-.4-2-1.251-3.5-2.3a22.526,22.526,0,0,0-5.3-2.6q-3.9-1-4.5-1.7-.6-.8-.7-4.6a7.588,7.588,0,0,1,2-5.4q2.3-2.4,6.5-7.4,1.5-1.8,1.6-1.9a1.689,1.689,0,0,0-.3-2.1.6.6,0,0,0-.6-.1.979.979,0,0,0-.7.2,119.192,119.192,0,0,0-8.7,9.5q-.249-5.1-.4-9,.75-.75,2.4-2.45A86.174,86.174,0,0,0,58.557,5a11.286,11.286,0,0,0,2.05-3.8q.1-1.15-.851-1.2-1-.1-2.75,2.35-1.849,2.4-4,5.1a23.228,23.228,0,0,0-2.55,3.6q-.449-8.3-.55-9.45-.148-1.2-.8-1.2a2.535,2.535,0,0,0-1.3.35,1.932,1.932,0,0,0-.6,1.7q0,1.3.3,5.3v2.5q-5.15-4.75-6.35-5.95t-1.75-1.2q-.549,0-1.1.8a1.254,1.254,0,0,0,.149,1.7,34.948,34.948,0,0,0,6.75,6.45,8.359,8.359,0,0,0,2.3,1.6v11.4q-3.9-3.7-4.8-4.4a1.53,1.53,0,0,0-.8-.3,1.156,1.156,0,0,0-.8.2,1.263,1.263,0,0,0-.4.9,1.341,1.341,0,0,0,.4,1.15l2.1,2.1a34.14,34.14,0,0,0,3,2.7,1.72,1.72,0,0,0,.25.2,6.48,6.48,0,0,1,1.75,3.75,1.823,1.823,0,0,1,.05.45q.351,3.15-.149,3.5-.55.349-5.151,2.15a14.291,14.291,0,0,0-6.9,5.05q-2.35,3.251-2.75,3.95-.452.649-3.3-.5a14.244,14.244,0,0,1-2.9-1.3V41.1q.2-6.05.2-7.85a6.07,6.07,0,0,0-.551-2.7q-.45-.851-1.149-.5a2.274,2.274,0,0,0-1.3,2.2q-.1,1.7-.1,11.3-6-2.3-7.3-3.6-1.1-1.3-2.5-6.7-1.2-4.4-1.549-5.9-.4-1.549-1.2-1.75a.982.982,0,0,0-1.15.3,2.438,2.438,0,0,0-.2,1.85q.2,1.4.9,4.4.4,1.6,1.3,5.5l-9-4.8a1.3,1.3,0,0,0-1.649.25,1.24,1.24,0,0,0-.351,1.4,3.292,3.292,0,0,0,1.6,1.45q1.3.7,5.4,3L1.307,41a1.8,1.8,0,0,0-1.2,1.05.9.9,0,0,0,.45,1.25,4.14,4.14,0,0,0,2.7.05q1.851-.4,5.45-1.4,3.9-1.2,9.2,2,3.15,1.9,5.35,3l-.149.05q-5.35,2.75-6.9,3.7a5.961,5.961,0,0,0-2.05,1.8q-.549.851.151,1.2a2.616,2.616,0,0,0,2.7,0q1.352-.75,9.7-5.55,2.1.8,3.55,1.3a2.413,2.413,0,0,1,1.351,2.85,17.011,17.011,0,0,0,.25,6.8q.7,3.05-.05,4.45-.75,1.451-4.1,2.2-3.4.7-6.25,1.05a16.355,16.355,0,0,0-3.5.65,1.155,1.155,0,0,0,.05,2.1,6.52,6.52,0,0,0,1.5.1h7.7a36.02,36.02,0,0,1-5.4,5.45,8.33,8.33,0,0,1-4.45,1.8q-2.3.1-4.55.35a13.1,13.1,0,0,0-3.1.6,1.435,1.435,0,0,0-.9,1.5q.1.9,1.5.9a65.351,65.351,0,0,0,6.5-.7q-6.7,5.4-7.351,5.95-.7.549-.149,2.05.349.9,1.4.35,1-.55,7.3-5.35.6,2.3,1.2,5,.6,2.65,1.8,2.6,1.5-.051,1.15-2.35-.349-2.351-.549-4.05a6.81,6.81,0,0,1,.5-4.4q.6-.7,9.5-9.6a57.1,57.1,0,0,1,.3,9.85q-.349,4.05-.45,5.05t1.25,1.1q1.3.05,1.5-2.2.4-3.1.6-8.1.249-4,.55-5.95.3-2,3.1.65a15.33,15.33,0,0,0,7.5,3.75q4.8,1.1,5.7,2.25.9,1.1-.95,4.3a28.693,28.693,0,0,1-4.6,5.85q-2.7,2.65-2.3,3.4.3.7,1.349.45a7.572,7.572,0,0,0,1.951-.8q.9-.6,5.5-6.6.5,5.6.2,6.8a16.075,16.075,0,0,1-2.3,4.1l-3.5,5.55q-.3.45-1.1,1.65-.6.9.4,1.6,1.1.8,1.7,0,.8-1.2,1.1-1.7,2.2-3.2,3.9-5.6v12.8q0,.9-.05,2.55t1.4,1.75q1.449.1,1.45-1.5v-2.8q.1-2,.1-13.1,2.8,2.1,5.25,4.1t3.55.9q1.6-1.2-3.25-4.75t-5.149-4.25q-.3-.8-.45-8.55l6.5,5.1q1.649,1.3,2.75.5,1-.85-1.2-2.45a70.024,70.024,0,0,1-5.9-5.2q-3.7-3.6-.25-5.05,3.452-1.5,4.75-2.2,1.251-.75,3.3-2.25a3.89,3.89,0,0,1,4.5-.15,45.993,45.993,0,0,0,4.75,2.25q2.25.9,3.55,5,.8,2.3,1.5,4.85a9.437,9.437,0,0,0,1.1,2.95.752.752,0,0,0,1,.05,1.229,1.229,0,0,0,.6-1.15q-.2-1.7-.7-4-.7-3.3-.9-4.3l5.55,3.7q0,.2.25,1.5a8.419,8.419,0,0,0,.95,2.85q.75,1.549,1.5,2.8a3.3,3.3,0,0,0,1.45,1.45q.7.249,1.3-.65.6-.95-.3-2.75a17.108,17.108,0,0,1-1.7-2.9,80.064,80.064,0,0,1,7.7,4.5q.5.3,1.85,1.25.75.45,1.5-.6a1.3,1.3,0,0,0-.149-1.85,15.45,15.45,0,0,0-2.5-1.8,31.453,31.453,0,0,1-2.9-1.9,20.347,20.347,0,0,1-3.5-3.1,25.771,25.771,0,0,1,4.851-1.2q3.35-.651,3.3-1.75-.051-1.15-.851-1.25a6.079,6.079,0,0,0-1.8.1,26.147,26.147,0,0,0-5.4,1,10.142,10.142,0,0,1-7-.3,41.709,41.709,0,0,1-6.4-3.9,62.547,62.547,0,0,1,8.651-2.4q4.449-.95,4.649-1.8a2.744,2.744,0,0,0-.1-1.65q-.351-.75-6,.85-5.7,1.6-8.9,2.8a3.824,3.824,0,0,1-3.5.1q-1-.5-3-1.45-1.249-.45.151-2.6,2.25-3.7,2.049-9.85a18.08,18.08,0,0,0-2.45-9.05,1.881,1.881,0,0,1,.1-2.2q.7-.9,2.55-3.55a4.517,4.517,0,0,1,4.95-2.05q3.15.549,3.849.75c.334.067.634.116.9.15a1.468,1.468,0,0,0,1.8-1.35,1.084,1.084,0,0,0-.8-1.4,23.212,23.212,0,0,0-3.1-.6,2.991,2.991,0,0,1-2.3-1q1.4-4.1,6.1-4.5,2.7-.2,8.3-.2.6,0,1.9-.1,1.251-.15,1.25-1.05a1.475,1.475,0,0,0-.9-1.4,4.765,4.765,0,0,0-2.151-.45h-8.7q4.6-5.8,6.3-7.85t.7-2.95a1.545,1.545,0,0,0-2,.05,16.851,16.851,0,0,0-2,2.45l-7.2,8.8q-.7-3-1.4-5.3-.75-2.351-1.7-1.8-1.5,1.1-.15,6.25t-2.55,7.15l-2.2-9.15a3.189,3.189,0,0,0-.9-1.45q-.55-.45-1.4.1M52.206,38a24.215,24.215,0,0,1,5.9,2.45,46.681,46.681,0,0,1,8.1,5.6q4.1,3.5,3.7,10.2a15.361,15.361,0,0,1-6.3,12.7,14.537,14.537,0,0,1-13.5,2.9q-3.1-1.1-4.7-1.5a14.4,14.4,0,0,1-8.7-6.9,18.636,18.636,0,0,1-2.2-10.8,13.019,13.019,0,0,1,4.25-9.3,20.047,20.047,0,0,1,7.7-4.6,12.806,12.806,0,0,1,5.75-.75"/></svg>