<svg overflow="visible" width="100%" height="100%" viewBox="0 0 84.781 115.954" xmlns="http://www.w3.org/2000/svg"><path d="M2.1,92.292q-2.2,2.9-2.1,3.6.2.7,3.4,2.3a151.5,151.5,0,0,0,20.2,8q7,2.2,20.8,6.4l10,3.1a3.078,3.078,0,0,0,4-1.3,11.88,11.88,0,0,0,1.6-4.5q1.8-7.7,2.9-11.5.5-2.3,1.2-2.3a5.488,5.488,0,0,0,4.2-2.2q.2-.5,2-4.1,1.3-2.8.9-3.8-.5-1.1-3.3-2.2L52,78.092q-2.7-1-2.9-1.7-.3-.6,1-3.2,5.3-10.4,15.6-31.3,9.1-18.1,16.7-30.6,3.9-5.7,1.4-7.9-1.2-1.1-8.4-2.9-3.3-.8-4.4-.3-.9.5-2.6,3.5a305.3,305.3,0,0,0-15,33.1q-4.5,11.3-13,34a3.08,3.08,0,0,1-1.3,1.9,3.34,3.34,0,0,1-2.4-.1q-11.7-3.3-17.4-5.6a5.108,5.108,0,0,0-2.6-.4,2.947,2.947,0,0,0-1.7,1.5q-.7,1.6-2.9,5.4-1.2,3.3,2,4.5a.144.144,0,0,1,.1.05h-.05a61.482,61.482,0,0,0-7.45,8.25q-3,4.1-4.6,6m68.8-87.3q1.1-2.6,3.9-1.7,6.5,1.7,6.8,2.6.3.5-2.8,5.7-7.1,12-15.9,29.4-9.9,20-15,29.9-.9,2-1.4,3.2a1.66,1.66,0,0,1-1.85,1,2.907,2.907,0,0,1-1.85-.8q-.549-.65-.35-1.1.15-.5,1.15-3,8.9-23.8,12.7-33,7.4-18.3,14.6-32.2m-46.95,77.2q.75.3,1.55.6,2.1.9,2.3,1.4a5.817,5.817,0,0,1-1,2.5q-6,10.5-6.9,12.6a3.108,3.108,0,0,1-1.6,1.8,3.119,3.119,0,0,1-2.2-.3q-3.5-1-2.9-3.6.3-1.5,4.35-6.9t5.9-7.5q.3-.35.5-.6m6.05,4.7a3.244,3.244,0,0,1,2.9-1.5,2.776,2.776,0,0,1,2.8,1.3,2.231,2.231,0,0,1-.2,2.2q-2.7,5.1-8.1,15.2-5-1.3-5.4-2.2t2.1-5.3l5.9-9.7m-13.3-15.9q1.2-1.2,4-.6a124.824,124.824,0,0,1,12.4,4.1q4.4,1.7,12.6,4.9,6.3,2.3,19.2,6.4,2.5,1,2.8,1.8.3.9-.9,3.2a3.247,3.247,0,0,1-1.2,1.5,2.142,2.142,0,0,1-1.9-.1q-5.1-1.3-7.6-2.1-13.1-4.3-19.6-6.5a190.165,190.165,0,0,1-19.4-7.4,5.672,5.672,0,0,1-1.7-.8q-.8-.7-.1-1.9a10.739,10.739,0,0,1,1.4-2.5m4.3,10q-.649.8-1.6,2.05-4,5.051-5.7,7.35a42.009,42.009,0,0,0-4.2,7.5l-6.1-2.9q.7-.8,5.05-6.15a70.334,70.334,0,0,1,8.2-8.85q.351-.3.65-.55,1.6.7,3.7,1.55m20.1,7a14.2,14.2,0,0,1,2.3.9q1.1.4,1,1.3-.1.5-2.55,6.95-2.45,6.4-3.95,9.9a3.812,3.812,0,0,0-.15.45l-5.25-1.6q-2.4-.9-1.2-3.2,4.5-8.5,7.7-13.8a1.7,1.7,0,0,1,2.1-.9m-.75,20.35q.2-.549.5-1.2,1.8-4,4.05-10.7,2.2-6.75,4.45-5.8,2.25.9,4.8,1.65a6.522,6.522,0,0,1,3.15,1.55q-4.1,11.65-5.2,14.5t-1.85,2.85a3.375,3.375,0,0,1-1.25-.2l-8.65-2.65M59.6,94.792q.75-.4,1.1.2.2,5.7-4.1,17a1.612,1.612,0,0,1-.6.5,1.3,1.3,0,0,1-1.9-1.2q.9-3.2,2.95-9.3,2-6.15,2.55-7.2"/></svg>