<svg overflow="visible" width="100%" height="100%" viewBox="0 0 115.609 90.458" xmlns="http://www.w3.org/2000/svg"><path d="M51.317,4.708a10.871,10.871,0,0,0-3.4,5.8,12.307,12.307,0,0,1-3.9,7.2,17.334,17.334,0,0,1-7.2,3.6q-14.8,5.7-15.5,6a146.382,146.382,0,0,0-15,7.1,18.222,18.222,0,0,0-5.2,3.9q-1.8,2.5-.7,6.6.5,1.8,1.4,5.2a13.477,13.477,0,0,0,2.4,4.8q1.1,1.4,3.2,4.3l24.1,27.1a14.942,14.942,0,0,0,3.1,2.8,12.31,12.31,0,0,0,5.2,1.35,33.511,33.511,0,0,0,9-1.85q2.9-.75,7.85-2.35,8.65-2.751,13.85-4.65,15.4-6,29.5-4.5,9.6-1.2,12.7-8.2a35.356,35.356,0,0,0,2.3-20.3q-2.1-11.6-11.9-15.3l-14.2-5.7q2.7-14.9-7.9-22.8-10.2-7.5-23.8-3.3a14.59,14.59,0,0,0-5.9,3.2m-2.4,11.2q2.5-8.6,9-11.6,6.1-2.8,14.6-.4,10.8,2.6,14,14.5a10.054,10.054,0,0,1-.7,7.6q-1.4,2.6-.9,3.8.6,1.3,3.4,1.4a26.848,26.848,0,0,1,7.7,2q2.5,1,7.2,3.2a15.355,15.355,0,0,1,7.7,7.9,22.22,22.22,0,0,1,1.6,11.6,24.622,24.622,0,0,1-1.2,7.2,5.59,5.59,0,0,1-5.5,3.7q-5.9.3-7.9.2a16.874,16.874,0,0,1-7.6-2q-3.5-1.8-6.2-.1a68.705,68.705,0,0,1-12.7,6.1q-9,2.9-13.4,4.5-4.8,1.8-11.9,4.15-3.7,1.2-4.8,1.65-4.55-4.751-5.1-5.3-20.6-22.8-31.1-34.1-2.1-2.1.4-3.5,2-1.1,6-3.5a46.394,46.394,0,0,1,6.2-3.2q8.5-3.6,25.9-10a8.182,8.182,0,0,0,5.3-5.8m-42.9,36.8a13.009,13.009,0,0,1-2.4-7.8q11.5,10.3,30.4,32.7.5.6,4.2,4.9-.7,1.149-2.2,4.2-5.4-5.3-12.7-13.6-8.1-9.3-12.3-13.9-3.5-4.3-5-6.5m32.65,35.05,1.95-3.45a36.273,36.273,0,0,0,4.9-1.3q19.4-6.6,29-10.2a93.954,93.954,0,0,0,9.8-4.8q2.9-1.5,4.6-.6a19.384,19.384,0,0,0,9.6,2.5,95.448,95.448,0,0,0,9.8-.6q-3.5,4.4-7.8,4.7-14.6-1.5-31.5,5-1.1.4-12.35,4.2-11.3,3.8-18,4.55"/></svg>