<svg overflow="visible" width="100%" height="100%" viewBox="0 0 114.735 59.867" xmlns="http://www.w3.org/2000/svg"><path d="M82.931,1.3A21.824,21.824,0,0,0,72.731.2q-27.5,4.2-60.2,9.8-7,1.1-10.05,5.3Q-.57,19.447.131,28.9q.7,9.5,3.5,13.8,2.75,4.25,4.45,6.5a24.944,24.944,0,0,0,5.55,4.85q3.849,2.651,13.5,4.75,8.349,1.95,14.05.35,5.7-1.65,18.75-5.75a182.837,182.837,0,0,1,23.85-6.05,77.707,77.707,0,0,0,19.85-6.25,10.188,10.188,0,0,0,5.7-6.4l5.2-18a2.585,2.585,0,0,0-1-3.2,15.17,15.17,0,0,0-3.3-1.7q-21-8.3-27.3-10.5m-49.3,8.2a8.21,8.21,0,0,1,3.8.3q13.6,4.4,32.7,17.4a278.789,278.789,0,0,0-31.1,14.3,5.979,5.979,0,0,1-5.8.2,117.964,117.964,0,0,1-14.7-9.1q-12.8-9.1-14.2-10a2.82,2.82,0,0,1-1.3-1.8,4.029,4.029,0,0,1,.7-2.3q2.5-4.4,8.4-5.4,7.1-1.4,21.5-3.6m27.6,8.6q-2.1-1.2-18.4-10.1,8.8-1.6,25.3-4.3a27.738,27.738,0,0,1,18.3,1.7q4,1.8,12.3,4.8,8.1,3,12.3,4.9-6.3,2.1-16.4,5.1-12.2,3.6-16.4,4.9a7.681,7.681,0,0,1-7.4-1,89.057,89.057,0,0,0-9.6-6m14.5,12.8a2.642,2.642,0,0,1,2.2-2.8l33-9.7q-1.3,4.2-3,12.2-2,6.4-7.2,8.9a38.091,38.091,0,0,1-10.6,3.4q-3.3.7-11,1.5-2.8.3-2.9-2.2l-.5-11.3m-73,1.2a11.361,11.361,0,0,1,.4-6.6q1.8,1.1,14.3,9.7a145.5,145.5,0,0,0,14.9,9.1,6.575,6.575,0,0,1,1.65,1.4,12.784,12.784,0,0,1,.9,3.7q1.05,6.9-2.15,6.85a33.481,33.481,0,0,1-16.15-3.6,21.735,21.735,0,0,1-10-10.6,70.969,70.969,0,0,1-3.85-9.95m70.5,11.5a2.352,2.352,0,0,1-1,1.9q-.5.3-9.1,3.4t-16.25,5.65q-7.65,2.55-8.55-1.5-.951-4.05-1-4.8t-.2-2.05q-.1-1.3,4.95-3.9t12.4-5.75q7.35-3.15,18.75-6.85V43.6"/></svg>