<svg overflow="visible" width="100%" height="100%" viewBox="0 0 77.875 116.015" xmlns="http://www.w3.org/2000/svg"><path d="M76.657,9.88a14.642,14.642,0,0,0-.6-2.7,8.122,8.122,0,0,0-2.4-3.8q-2.4-1.9-7.1-2-33.2-1.1-37.1-1.3a38.542,38.542,0,0,0-12.5,1.2,25.293,25.293,0,0,0-10.9,5.6q-5.7,6.9-6,13.3-.2,3.1.3,14.9.251,4.3.4,5.9a2.51,2.51,0,0,0,1.35,2.3q1.3.65,5.35.65,4-.05,9.15-.15a38.1,38.1,0,0,0,8.65-1.3q3-.8,5.85-1.85,2.8-1.1,3.75-1.45a4.583,4.583,0,0,1,2.25-.05,14.806,14.806,0,0,1,2.6.65,29.2,29.2,0,0,0,3.6.95c.167.033.367.067.6.1q1.25.15,1.55,2.15c-.033,0-.033.033,0,.1q.1,5.7.25,7.05a574.879,574.879,0,0,1,2.25,59.45q-.3,4.3,2.9,5.7,2.6,1.3,6.7.3a2.664,2.664,0,0,0,2.2-2.1,24.877,24.877,0,0,0,0-3.3q-.6-14.6-.4-21.9.2-8.5-1.85-24.75-2.1-16.3-2.4-19.45t3.8-3.75a104.426,104.426,0,0,0,13.75-3.85,7.858,7.858,0,0,0,3.4-1.8,5.85,5.85,0,0,0,1.8-5q-.4-13.3-1.2-19.8m-3,.3q.9,7.2,1.3,18.8.1,2.7-.5,3.5a8.9,8.9,0,0,1-3.5,1.6,72.908,72.908,0,0,1-17.8,4,47.007,47.007,0,0,1-10.6-.25q-3.15-.7-4.35-1.1a2.155,2.155,0,0,1-1.4-2,7.793,7.793,0,0,0-.05-.85l-.5-9.4a49.523,49.523,0,0,0-1.8-11.7,20.556,20.556,0,0,0-7.2-10.2q14.1.7,39.6,1.6,3.7.2,5,1.3,1.4,1.2,1.8,4.7m-21.6,31.1q.45.251,1.4,8.85.9,8.6,1.9,14.7a141.876,141.876,0,0,1,1.35,17.4q.251,11.25.15,27.95.2,2.9-2.5,2.6a5.829,5.829,0,0,1-2.8-.7,4.6,4.6,0,0,1-.7-2.8q-.6-29.2-.6-29.3-.2-4.7-2-30.2-.15-3.4-.15-5.7c-.033-.433-.05-.817-.05-1.15q-.1-1.7,1.2-1.8a10.01,10.01,0,0,1,2.8.15m-36.8-35.3q5.7-2.8,10.6-.5a9.995,9.995,0,0,1,6,8q.7,4,1.3,10.1.3,3.4.9,10.1a3.255,3.255,0,0,1-2.4,3.7q-4.3,1.5-6.5,2.1a49.521,49.521,0,0,1-8.7,1.6,61.068,61.068,0,0,1-11.8-.3,1.84,1.84,0,0,1-1.75-1.75,55.815,55.815,0,0,1-.25-5.65q-.05-4.2-.1-8.4a24.8,24.8,0,0,1,.9-7.6,13.8,13.8,0,0,1,4.7-7.1,36.378,36.378,0,0,1,7.1-4.3m51.35,7q-.85-.7-6-.5-5.15.15-11.55.5-6.4.3-7.3,1.3t-.4,4.3q.2.9.7,5.8.5,4.6.8,5.9a4.451,4.451,0,0,0,2.8,3,5.853,5.853,0,0,0,4.5.2q1.7-.6,2-1.4a9.689,9.689,0,0,0,.2-3.15,14.624,14.624,0,0,1,.05-3.35q.2-1,2.65-1.8a51.016,51.016,0,0,1,8.1-1.75q5.7-.9,5-4.6-.7-3.75-1.55-4.45m-1.35,2.85a2.374,2.374,0,0,1,.05,2.6q-.75,1.1-8.5,2.35t-7.35,5.6q.351,4.35-1.9,4.25-2.3-.15-2.75-5.95-.45-5.85-.4-7.3.051-1.5,10.05-2.25,10-.8,10.8.7"/></svg>