<svg overflow="visible" width="100%" height="100%" viewBox="0 0 116.276 105.341" xmlns="http://www.w3.org/2000/svg"><path d="M91.138,1.856q-12.9-4.7-22.7,2.5a276.691,276.691,0,0,0-22.7,19.3q-3.5,3.3-9.4,9.9-6.2,7-9.3,10-10.6,10.3-20.4,29.1a53.671,53.671,0,0,0-4.3,12.1q-1,4.2-2.2,12.6-.8,5.1,3.05,6.65a20.708,20.708,0,0,0,8.9,1.3,28.126,28.126,0,0,0,9.85-2.3,28.687,28.687,0,0,0,8.8-6.15,297.989,297.989,0,0,0,24-21.3q12.2-12.3,17.2-19.5a52.611,52.611,0,0,0,6.8-12.8q1.85-5.6-.5-7.6a92.48,92.48,0,0,0-9.2-6.2q-5-2.6-10.2.9a71.584,71.584,0,0,0-15,14.4q-4.3,5.4-12.6,16.9-1.35,1.9.1,2.55,1.249.5,5.65-5.45,4.35-6,5.15-7.2a74.044,74.044,0,0,1,17.4-18.1,9.89,9.89,0,0,1,4.7-2.1,8.286,8.286,0,0,1,4.9,1.4q5.5,3.5,6.5,5.2,1.8,2.9-.9,7.8a158.107,158.107,0,0,1-21.2,26.8,329.31,329.31,0,0,1-25.3,23q-7.6,7.2-20.7,7.25-5.5.051-4.4-7.05,2.5-24.5,24.7-49,14.4-15.4,19.2-20.2a199.7,199.7,0,0,1,20.9-18.3q10-8.1,23-3.4,11.2,4.1,19.2,14.9a15.329,15.329,0,0,1,3.2,7.6,10.028,10.028,0,0,1-2,7.6q-3.9,5.5-13.7,13.6-10.1,8.3-13.9,13.3-3.6,4.6-10.8,12.9-7.5,8.7-10.9,12.9a5.678,5.678,0,0,0-1.2,1.6,1.243,1.243,0,0,0,.4,1.7q.849.7,1.45-.1t6.5-7.6q5.85-6.8,14.85-17.35,8.949-10.6,16.65-16.15a51.969,51.969,0,0,0,12.85-13.2q5.1-7.7.7-15.4a42.563,42.563,0,0,0-23.1-19.3"/></svg>