<svg overflow="visible" width="100%" height="100%" viewBox="0 0 64.936 115.72" xmlns="http://www.w3.org/2000/svg"><path d="M29.948,109.6q-.2,1.25,1.15,1.5a34.618,34.618,0,0,0,3.5.3,19.625,19.625,0,0,1,2.9.5,7.2,7.2,0,0,0,4.1-.2,18.182,18.182,0,0,0,2.8-1.1,3.6,3.6,0,0,0,2-1.8,2.053,2.053,0,0,0,0-1.55.755.755,0,0,0-1.05-.4,13.329,13.329,0,0,0-2.95,1.7q-2.2,1.45-8.2-.05a10.841,10.841,0,0,0-2.6-.2,1.5,1.5,0,0,0-1.65,1.3M31.5,93.7a57.433,57.433,0,0,0-5.4-2.1,6.926,6.926,0,0,0-3.05-.5q-.8.2-.9,1.35-.15,1.15,2.1,2,2.2.85,5.8,2.3a10.712,10.712,0,0,0,7.8-.15Q42,95.051,45.9,93.15t3.9-2.5q0-.6-.85-1.05a1.49,1.49,0,0,0-1.45-.2q-5.3,2.6-8,3.8-4.8,2.1-8,.5m-4.95-14.05q.6,1,2.85.05l6.4-2.6q.65-.45.65-.9t-.05-.95a.721.721,0,0,0-.6-.65,4.716,4.716,0,0,0-2.1.3q-1.6.4-4.7,1.2t-2.9,2a3.363,3.363,0,0,0,.45,1.55m4.3-10.8Q28,69,25.4,69.3t-3.3,1.6q-.649,1.4,1.5,1.3,5.1-.2,7.15-.4a2.666,2.666,0,0,0,2.55-1.6q.4-1.5-2.45-1.35M13.1,16.6A33.3,33.3,0,0,0,8.9,29a71.471,71.471,0,0,0-.3,13,14.21,14.21,0,0,0,.95,3.85q.949,2.749,5.95,3.9a40.013,40.013,0,0,0,12.95.15q7.95-.949,9.7-7.25a18.667,18.667,0,0,0-.3-11.65Q35.8,25.65,33.9,20.35a18.05,18.05,0,0,0-6-8.45q-3.2-3.3-8-1.3a14.736,14.736,0,0,0-6.8,6M11.4,36.9a44.494,44.494,0,0,1,2.5-16.15q2.65-7.6,8.5-7.75,5.8-.15,8.85,7.65a109.127,109.127,0,0,1,4.15,12.4,16.815,16.815,0,0,1,.5,7.25q-.6,2.6-3.8,4.6a16.526,16.526,0,0,1-7.8,2.3,24.494,24.494,0,0,1-7.95-.6q-3.3-.95-4-3.3a26.059,26.059,0,0,1-.95-6.4M.548,23.85q-.3,5.45-.5,12.9a106.491,106.491,0,0,0,.8,16.2q1,8.749,2.55,19.75Q8,99.9,13,114.6q.75,1.4,1.65,1.05,1.35-.55.25-3.45-2.5-8.3-4.9-20Q7.4,78.8,6,72.1q-1.2-6.4-2.25-17-1.1-10.65-1.1-13.9t.05-6.7q0-3.5.15-9.15T9.6,13.1a37.685,37.685,0,0,1,8.9-7A25.578,25.578,0,0,1,30.3,2.9Q41.8,1.6,44.8,22.2q.7,5,1.3,15.9a102.139,102.139,0,0,0,2.15,17.65q1.6,6.8,6.4,26.35t8.45,31.45q.3,1.05,1.15.75a1.108,1.108,0,0,0,.65-1.4q-.3-1.6-.5-2.4L56.7,78.3q-6.55-25.45-6.7-30a268.44,268.44,0,0,0-2.9-29.1Q43.8.4,31.1,0,18.3,0,7.3,11.5.8,18.4.548,23.85"/></svg>