<svg overflow="visible" width="100%" height="100%" viewBox="0 0 46.629 114.169" xmlns="http://www.w3.org/2000/svg"><path d="M31.879,101.767q-.2.7.75,1.1.849.2,1.1-.95.249-1.2-.3-1.25a1.216,1.216,0,0,0-1.55,1.1m-11.65-5.8q.9.45,1.3-.95.4-1.451-.7-1.4a1.241,1.241,0,0,0-.6,2.35m3.5,6.9a1.823,1.823,0,0,0-.5,1.2q-.15.8,1.15,1.05,1.249.249,1.2-1-.1-1.251-.75-1.45a1.043,1.043,0,0,0-1.1.2m-7.6.6q-.251-.9-1.5-.85-1.3,0-1.05,1.65.2,1.6,1.5.85,1.25-.8,1.05-1.65m-2.45-7.1q1.1.349,1.25-1,.1-1.4-1.2-1.15-1.3.2-1.2.95.049.748,1.15,1.2m6.85-10.5a2.3,2.3,0,0,0,1.5-.35.98.98,0,0,0,.4-1.05q-.15-.6-1.1-.7-.951-.15-1.35.95-.45,1.05.55,1.15m7.5,6.6q-1.8-.251-1.6.9a1.311,1.311,0,0,0,.8,1.1q1.4.45,1.7-1.2.1-.75-.9-.8m.95-8.65a1.606,1.606,0,0,0-1.45-1.1q-1-.051-1.1.85-.1,2.1,2.1,1.5.9-.25.45-1.25m9.2,17.65q.1,1.2,1.05,1.05.8-.15.75-1.15-.1-1.05-.95-1.1-.9-.051-.85,1.2m.15-9.95q.3-1.1-1-1.2-1.6-.15-1.4,1.35.2,1.2.9,1.1a1.562,1.562,0,0,0,1.5-1.25m-1.5-19q-.1-1.251-.75-1.45a1.043,1.043,0,0,0-1.1.2,1.823,1.823,0,0,0-.5,1.2q-.15.8,1.15,1.05,1.25.249,1.2-1m0,8.95a1.155,1.155,0,0,0-1.1-1.3q-1.2-.251-1.35,1.1-.15,1.3,1.15,1.3,1.249-.051,1.3-1.1m-1.8-18.5q2,.6,1.4-1.3a1.137,1.137,0,0,0-1.4-.8,1.109,1.109,0,0,0,0,2.1m-7.5,9.65q-1.45-1-1.9.55a1.042,1.042,0,0,0,.65,1.25,1.737,1.737,0,0,0,1.7-.25q.95-.6-.45-1.55m-9.65,3.05q.15.849,1.2.85t1.05-1q.049-1-1.15-.85-1.251.15-1.1,1m-1.65-9.65a1.621,1.621,0,0,0-.45,1.25q-.051.9,1.05,1.05,1.05.1,1.1-1.15.05-1.3-.6-1.35a1.438,1.438,0,0,0-1.1.2m11.3-2.3a.96.96,0,0,0-1.6-.25q-1,.75-.5,1.4t1.65.25q1.1-.4.45-1.4m-.9-7.65q-.251-1.5-1.3-.9a1.666,1.666,0,0,0-1.05,1.5q0,.849,1.3.75,1.249-.15,1.05-1.35m-.35-11.1q-1.35-.051-1.3.85a4.734,4.734,0,0,0,.25,1.45q.15.45.95.45t1.1-1.35q.35-1.35-1-1.4m-8.05,11.7a1.2,1.2,0,0,0-.75.2q-.45.2-.65,1.45t1.1,1.2q1.25-.051,1.3-1.1a1.823,1.823,0,0,0-.35-1.35,1.274,1.274,0,0,0-.65-.4m-2.25-8.2q0,1.35.95,1.65.95.249,1.35-1a1.159,1.159,0,0,0-.95-1.65q-1.35-.351-1.35,1m19.65,5.2q-.3-2.151-1.55-1.75-1.251.349-1.25,1.25.15,1.749,1.55,1.65,1.35-.15,1.25-1.15m.15-9.55q-.15-.651-1.1-.7a1.237,1.237,0,0,0-1.35.95q-.45,1.05.5,1.3a1.493,1.493,0,0,0,1.5-.3,1.177,1.177,0,0,0,.45-1.25m-14.7-17.55a5.668,5.668,0,0,0-3.7,2.6,6.542,6.542,0,0,0-1.4,4.25q.15,2.049,1.25,2.3,1.05.2,1.2-.55.15-.8.35-1.8a6.763,6.763,0,0,1,1.25-2.45q1-1.451,1.75.1.7,1.5,1.4,3.15t1.55.2a32.985,32.985,0,0,0,1.5-3.25q.649-1.8,1.65-.6a3.9,3.9,0,0,1,.9,2.9q-.1,1.749.8,2.05a1.451,1.451,0,0,0,1.4-.1q.5-.4.5-1.95a21.541,21.541,0,0,0-.4-3.75,3.762,3.762,0,0,0-2.25-2.95,8.361,8.361,0,0,0-3.7-.65,22.705,22.705,0,0,0-4.05.5m-8.35,57.9q-1.251.35-1.25,1.25.15,1.749,1.55,1.65,1.35-.15,1.25-1.15-.3-2.151-1.55-1.75m-2.2-6.25q1-.1.9-1.5-.1-1.45-1.2-1-1.05.45-.8,1.35.3,1.35,1.1,1.15m-1.75-9.85q.2,1.2.9,1.1a1.562,1.562,0,0,0,1.5-1.25q.3-1.1-1-1.2-1.6-.15-1.4,1.35m1.3-10.1a1.043,1.043,0,0,0-1.1.2,1.823,1.823,0,0,0-.5,1.2q-.15.8,1.15,1.05,1.249.249,1.2-1-.1-1.251-.75-1.45m-.95-5.95a.942.942,0,0,0,.75-1.4q-.4-1.151-1.25-.9-.851.2-.75,1.4.05,1.2,1.25.9m2.05-28.2a43.6,43.6,0,0,0-.55,5.75,55.706,55.706,0,0,0,.05,6.3,9.633,9.633,0,0,1-.25,3.7,9.388,9.388,0,0,1-3.2,2.2q-5.3,2.7-5.5,2.9-2.2,1.8-1.6,5.5,1.7,20.1,4.7,60.3.249,3.5,1.7,3.4,1.5.049,1.35-2.45-.15-2.55-.25-3.95-1.1-10.7-2.4-26.7l-2.1-26.7q-.5-5.1.2-6.3.6-1.2,5.1-3.4l1.3-.6q3.2-1.6,3.6-2.5.4-.7.1-4.3-.2-2.1,0-10.8.1-2,3.1-3.3a13.805,13.805,0,0,1,7.3-1q6.7.7,7.2.7,1.4,1,1.4,4v4.7q.1,2.5.8,3.2.6.7,3.1,1.1,3.1.5,3.8,1.2.8.7,1,3.6.2,4.6,2,28.3,1.3,17.2,1,28.2a77.866,77.866,0,0,0,0,8q.15,2.8.4,4.4.249,1.55,1.15,1.1.849-.45.85-4.1l.1-17.3q-.9-26.2-2.7-49-.3-6.5-6.4-7.4a2.175,2.175,0,0,1-2.2-2.1,29.893,29.893,0,0,0,0-3.5q0-5.3-.9-6.3t-6.2-1.3a2.834,2.834,0,0,1-2.2-.9,3.1,3.1,0,0,1-.6-2.2,133.03,133.03,0,0,0-.2-15.4,1.315,1.315,0,0,0-.9-1.1,1.148,1.148,0,0,0-1.15.2,2.924,2.924,0,0,0-.6,1.8q-.2,1.4-.4,6t-.35,7.05a9.8,9.8,0,0,1-.7,3.4q-.5.949-3,1.35a35.479,35.479,0,0,0-4.2,1.1,3.893,3.893,0,0,0-2.75,3.15"/></svg>