<svg overflow="visible" width="100%" height="100%" viewBox="0 0 117.09 63.399" xmlns="http://www.w3.org/2000/svg"><path d="M84.909.338q-8.1-1.4-12.5,3l-6.7,6.4a10.641,10.641,0,0,0-5-6.7,7.171,7.171,0,0,0-7.3-.2,28.334,28.334,0,0,0-5.8,3.7,11.322,11.322,0,0,0-3.7,5.8q-.7,2.9-3.9,2.5a17.032,17.032,0,0,0-8.3.9,33.465,33.465,0,0,0-7.4,3.9q-4.1,2.8-4.4,6.8-.3,3.5-.4,3.9a3.867,3.867,0,0,1-1.4,2.9,8.881,8.881,0,0,1-3.8.75,35.807,35.807,0,0,0-5.65.7q-3.051.55-6.05,4.1-3,3.5-2.55,9.6t6.1,10.65a19.025,19.025,0,0,0,12.75,4.3q23.2.4,69.4-1.8a42.012,42.012,0,0,0,14.5-3.3,38.457,38.457,0,0,0,12-8.6q3.7-4,1.4-10.7-1.9-6-7.55-5.85-6.2.75-4.85-.65,2.7-3.7,3.9-5.6a15.037,15.037,0,0,0,2.5-6.3,8.717,8.717,0,0,0-1.7-7.2,8.261,8.261,0,0,0-6.6-3.1,70.65,70.65,0,0,0-9.7,1.4q-2.3.3-2.2-1.7a12.133,12.133,0,0,0-.8-5.9,5.728,5.728,0,0,0-4.3-3.7m2,9.7q-.4,3.6-2,4.9a6.786,6.786,0,0,0-2.4,3.65,5.081,5.081,0,0,0-.15,2.25,1.556,1.556,0,0,0,.8.8q.6.25,1.35-.85a16.411,16.411,0,0,1,7.5-6.25,23.715,23.715,0,0,1,9.6-1.3,6.176,6.176,0,0,1,5.2,2.7,5.779,5.779,0,0,1,.3,5.8q-2.3,5-9,12.3-1.4,3.1,2.7,2.8a59.038,59.038,0,0,0,6.1-1q4.7-.6,6.3,3.6,2.2,5.5-2.85,10.7a24.719,24.719,0,0,1-12.95,6.8,117.427,117.427,0,0,1-16.6,2.2q-8.7.5-20.8.9-13.7.5-20.6.4h-20.8q-9.6.1-14.4-8.9-2.6-4.8-.3-9a9.281,9.281,0,0,1,6.15-5.05,24.535,24.535,0,0,1,6.85-.65q3.2-.2,4.3,2.4,1.05,2.6,2.25,2.6t1.45-.75q.2-.8.4-2.05a3.292,3.292,0,0,0-.9-2.6l-1.8-2.1a2.875,2.875,0,0,1-.7-2.8q.5-3.7.9-5.5a7.084,7.084,0,0,1,3.4-4.5,26.446,26.446,0,0,1,9.2-3.7q6.6-1.3,7.6,3.1.4,2.6,1.9,1.8t.9-2.9q-1-3,.9-7.2,1.9-5.449,8.5-7.35t7.5,4.75q.5,2.5.9,5.35t.8,3.15a1.794,1.794,0,0,0,1.1.3q1.9.049,1.6-3.1-.3-3.2,3-6.6.6-.6,4.25-3.25,3.65-2.7,5.3-3.05a9.013,9.013,0,0,1,3.65.05,4.215,4.215,0,0,1,3,1.95q1.1,1.7.6,5.2"/></svg>