<svg overflow="visible" width="100%" height="100%" viewBox="0 0 113.557 69.775" xmlns="http://www.w3.org/2000/svg"><path d="M38.957.9a101.306,101.306,0,0,0-11.85.75q-2.7-.1-4.85,3.45a26.2,26.2,0,0,0-4,13.8,82.656,82.656,0,0,0,.45,11.2q.25,2.7.5,4.1a1.348,1.348,0,0,0-.35.25q-2.5,1.95-7.6,5.9t-7.7,5.55a8.146,8.146,0,0,0-3.1,3.2,6.828,6.828,0,0,0-.2,4.4,36.165,36.165,0,0,1,.7,7.4,46.818,46.818,0,0,0,.7,7.3q.2,2.1,1.8,1.4,1.251-.3.9-4.65-.4-4.35-1-11.05a3.078,3.078,0,0,1,2.6-3.5q3.3-.6,9.7-2,2.3-.4,2.9.1.5.4.7,2.8.4,4.9.75,7.2.351,2.25,2.25,1.5,1.05-.5.25-3.75a32.576,32.576,0,0,1-.85-3.65q-.2-3.2.4-3.9.5-.6,3-1h6.2q1.7-.4,27.4-.6,16.6-.1,27.5.4.5,5.9.45,13.05-.049,7.1,2.15,6.35,1.35-.4,1.2-2.3V49.7a6.436,6.436,0,0,1,2-4.2,6.858,6.858,0,0,1,4.1-2.4,3.484,3.484,0,0,1,2.8.4q.8.6.9,2.7v9.4q.15,2.4,1.2,2.35,1.7-.251,1.65-4.5a71.951,71.951,0,0,1,.25-7.45,50.881,50.881,0,0,0,.1-9.5l-.3-5.2q.1-3.1.25-4.3.1-1.249.2-2.3t.55-3.9a20.381,20.381,0,0,0,.3-4.1,11.009,11.009,0,0,1,1.2-5.5q1.9-3.3,2.7-5,1.8-3.9,5.1-3.8c.133,0,.267-.133.4-.4a2.288,2.288,0,0,0,.2-.8,1.288,1.288,0,0,0-1.2-1.2h-2q-44.5.5-50.3.5-5.85-.049-21.1.4m-14.8,12q2-.3,6.3-.5a326.843,326.843,0,0,1,34.2-1.9q11.4-.2,34.3-.1a3.286,3.286,0,0,1,2.3.6,2.483,2.483,0,0,1,.4,2.3q-.1.851-.2,1.75h-4.55q-8.55.049-26.95,1.05l-45.2,2.4a5.426,5.426,0,0,1-2.1,0q-1.1-.2-1.2-1.7-.7-3.2,2.7-3.9m-1-3.3a30.269,30.269,0,0,1,1.6-3.4,4.151,4.151,0,0,1,3.2-1.8h.2q3.4-.2,16.25-.75,17.55-.75,61.45-.75a7.172,7.172,0,0,1-2.5,3.8,6.9,6.9,0,0,1-4,.8q-33.3-.8-76.2,2.1m78,8.4q-.249,2.6-.4,5.1a2.217,2.217,0,0,1-2.2,2.2l-73.5,2q-2.5.1-3.3-.9-.8-.9-.3-3.1a2.067,2.067,0,0,1,1.6-1.8,13.957,13.957,0,0,1,2.4,0q28.05-1.849,49.55-2.5,21.5-.7,26.15-1m-3.4,17.3q-1.35,3.8-3.75,3.9H78.957q-36.4.9-62.5,2-1.55.1-.3-.8l4.45-3.35h.7q3.8.05,10.35-.1,6.5-.15,33.8-1.15,19.7-.8,32.3-.5m.6-6.95q1.551.1,1.5,1.35.2,1.751-2.55,2-2.749.2-4.85.3-33.1.9-49.6,1.5-8.3.251-14.5.6-6.25.3-6.2-.4a9.553,9.553,0,0,0-.2-1.7q-.2-1.1.45-1.35a12.506,12.506,0,0,1,3.05-.35l69.6-1.9a15.692,15.692,0,0,1,3.3-.05m-22.35,16.3q-15.8,0-23.6.1L8.957,46.2q-1.749.049-.1-1a21.674,21.674,0,0,1,8-1.1q1.7.05,12.6-.5l4.4-.3a46.775,46.775,0,0,1,5.25-.2q.7.1,26.15-.7t25.2.3q1.3,2-14.45,1.95"/></svg>