<svg overflow="visible" width="100%" height="100%" viewBox="0 0 115.052 67.371" xmlns="http://www.w3.org/2000/svg"><path d="M18.15,4.271A13.617,13.617,0,0,0,15,1.57Q12.551-.179,11.6.021t-1.5,2.15a20.93,20.93,0,0,0-.85,3.8,38.468,38.468,0,0,0-.3,5.5Q8.9,15.02,11.8,21.421q1.6,3.7,5.05,10.7a15.479,15.479,0,0,0,.8,1.5,1.93,1.93,0,0,1-.05,2.449,114.129,114.129,0,0,0-8.8,8.051,29.793,29.793,0,0,0-6.5,10.8,22.394,22.394,0,0,1-1.8,4,6.319,6.319,0,0,0-.5,2.45q0,1.249.25,1.2a27.746,27.746,0,0,0,5.85-.449l7.5-.9a18.376,18.376,0,0,0,6.8-2.2q4.2-2.4,8.7-5.15,2-1.251,3.35-2.2.65-.6,1.35.2.5.549,1.55,1.8Q39.6,58.72,49.7,62.921q19.2,8.8,40.8.2,3.3-1.3,9.6-4.5a33.925,33.925,0,0,1,10.2-3.2q3.7-.4,2.5-4.3a4.95,4.95,0,0,1-.3-2,3.855,3.855,0,0,1,1.1-1.7q3-2.7-.2-5.3a46.7,46.7,0,0,0-6.5-4.6,23.76,23.76,0,0,1-8.6-9.3,96.48,96.48,0,0,0-6.5-10.7,46.125,46.125,0,0,0-8.7-9.2,35.471,35.471,0,0,0-8.95-5.3q-3.9-1.4-12.95-.35a24.206,24.206,0,0,0-14.75,6.7,57.676,57.676,0,0,0-8.55,10.15q-1.55,2.25-4.55,7.1-.7.9-1-.2a41.043,41.043,0,0,0-4.85-10.1q-.5-.7-4.6-5.9t-4.75-6.15m-6.05-.8q.1-1.3,1.85.4a46.114,46.114,0,0,1,3.45,3.9q1.7,2.15,6.8,8.75a40.932,40.932,0,0,1,5.8,11.2,2.492,2.492,0,0,0,2.8,1.8,3.615,3.615,0,0,0,3.3-1.8,73.717,73.717,0,0,1,6.8-10.2,34.345,34.345,0,0,1,11.5-9.8q8.9-3,14.2-2.7,6.7.4,13,5.8a40.329,40.329,0,0,1,8,8.4,108.27,108.27,0,0,1,6,9.9q4.3,8,10.6,11.5,2.7,1.7,2.9,1.8a6.427,6.427,0,0,1,1.35,1.35,1.274,1.274,0,0,1,0,1.7,3.457,3.457,0,0,0-1.15,3.25q.1,1.1.5,3.5.05.9-1,.849a22.182,22.182,0,0,0-8,2.051q-5.6,2.8-8.5,4a55.678,55.678,0,0,1-13.6,4.4q-21.9,4.4-41.8-12a19.6,19.6,0,0,1-1.85-1.951l-.1-.1q-1.5-1.6-3.85,0-5.6,3.45-5.8,3.65-8.8,5.5-16.75,6.4-2.25.2-3.75.4-1.9.249-1.25-1.05.65-1.5,1.05-2.35a32.8,32.8,0,0,1,11-14.9,32.837,32.837,0,0,0,4.7-4.4,2.177,2.177,0,0,0,.4-.8q.35-1.05-1.7-5.7l-4.5-9.9q-1.7-2.7-2.2-8.349a59.08,59.08,0,0,1-.45-6.7q.1-1.05.25-2.3M65,38.721q1.95-.2,1.75-1.35-.3-1.45-3.65-.9a18.378,18.378,0,0,1-6.35-.1,11.754,11.754,0,0,0-4.55-.25q-1.55.349-1.75.7a1.586,1.586,0,0,0-.25.551,1.866,1.866,0,0,0-.05.8q0,.5,1.05.95a6.951,6.951,0,0,0,2.5.5l11.3-.9m6.3-8.9q.551-1.6-3.1-1.9-3.7-.3-6.1-.7a8.588,8.588,0,0,0-6.1,1.6,50.521,50.521,0,0,0-4.8,4.1q-.1.1-.1.6a.979.979,0,0,0,.2.7,1.361,1.361,0,0,0,1.5.3,3.89,3.89,0,0,0,1.4-.9q4.8-4.8,13.55-3.2,3.35.8,3.55-.6m16.7-6.4a2.676,2.676,0,0,0-3.65-.8,2.681,2.681,0,0,0-1.85,3.15q.4,2.149,1.1,5.35.65,3.2,1.5,3.9a2.29,2.29,0,0,0,1.95.5A3.211,3.211,0,0,0,89,33.971a6.994,6.994,0,0,0,1.05-2.75,6.891,6.891,0,0,0-.05-2.5,13.747,13.747,0,0,0-2-5.3"/></svg>