<svg overflow="visible" width="100%" height="100%" viewBox="0 0 92.278 116.346" xmlns="http://www.w3.org/2000/svg"><path d="M90.069,56.633q-1.6-16.1-2.5-24.1a153.106,153.106,0,0,0-4.3-23.9,11.211,11.211,0,0,0-4.9-6.5,12.94,12.94,0,0,0-8-2.1l-54.8,4.1q-2.25.15-8.55.3-6.351.15-6.9,1.3-.4.851.551,9.65.9,8.751,2.75,28.35,1.85,19.551,2.7,37.3.85,17.7.9,24.65t.75,7.75q.8.9,3.8,1.1h.1q4.9.4,14.6,1.2,8.6.7,14.6.6,12.9-.2,46.5-1.9,3-.1,4-1.3t.9-4.5q-1.1-36.9-2.2-52m-5.1-21.9q.9,8.4,2.3,25.2,2.1,24.2,2.1,48.5a2.844,2.844,0,0,1-2.2,3.3q-3,.3-4.4.4-2.9.1-19.3,1-11.8.7-19.3.7-6.1-.2-14.8-.7-9.9-.7-14.9-1a17.664,17.664,0,0,1-2.9-.4,2.153,2.153,0,0,1-.8-.4q-.5-.6-.7-3.8-.5-18.4-.8-27.5a270,270,0,0,0-2-27.5q-.9-6.9-1.8-17.2l-1.5-17.3q-.5-6.15-.8-10,.3-.349,20.049-1.7,19.75-1.4,44.451-3.3a15.533,15.533,0,0,1,7.9.9,8.734,8.734,0,0,1,5,6,130.683,130.683,0,0,1,4.4,24.8m-14.6,42.1a6.91,6.91,0,0,0-5-2.4q-1.1-.1-14.5-1.05t-18.15-1.1q-4.8-.1-5.4-.1a1.743,1.743,0,0,0-1.1.35,2.281,2.281,0,0,0-.75.9,2.476,2.476,0,0,0-.25,1.3l1.25,18q.3,3.1,2.3,3.9a32.835,32.835,0,0,0,4.849,1.45,80.342,80.342,0,0,0,12.051.95q9.2.3,15.5-.05,6.249-.3,7.4-1.35t1.649-5.6q.451-4.6,1.25-9.8a6.865,6.865,0,0,0-1.1-5.4m-2.6,1.4q.9,1,.7,4-.2,3.8-1.2,11.3-.2,2.9-10.051,2.85-9.9-.05-14.649-.3a51.761,51.761,0,0,1-7.4-.8q-2.7-.549-4-.85a2.6,2.6,0,0,1-2.1-2.4,92.659,92.659,0,0,0-1.05-9.95q-1.051-7.6.9-7.4,2,.15,8.549.5,6.5.351,26.2,1.65,3.2.4,4.1,1.4m-49.5-28.35q-4.2.051-5.8,2.95a8.028,8.028,0,0,0-1.1,5.65,6.234,6.234,0,0,0,2.451,4.15q1.948,1.35,5.95.65a8.577,8.577,0,0,0,5.8-3.3q1.85-2.6,1.3-4.45a8.99,8.99,0,0,0-2.5-3.75q-1.95-1.95-6.1-1.9m5.2,8.7a9.49,9.49,0,0,1-5.8,2.8,2.98,2.98,0,0,1-3.4-3.15q-.5-4.65,2.349-5.5,2.851-.9,6.2,1.2,3.3,2.05.649,4.65m12.9-45.65q-.3,0-7.849-.1-7.6-.1-7.85,1a31.462,31.462,0,0,0-.1,5.65q.15,4.5.3,10.55.1,6,1.2,7.4,1.2,1.3,4.7,1.7,6.2.7,21.8.8h11.8q4.8.3,6.5-8.5a53.317,53.317,0,0,0,.8-12.7,7.055,7.055,0,0,0-.7-3.5,7.367,7.367,0,0,0-3.4-1.5,57.117,57.117,0,0,0-13.6-1q-12.1.3-13.6.2m-7.7,23.8q-3.4-.5-3.9-1-.7-.7-.9-4.1-.1-5.9-.349-12.3-.1-2.5-.2-3.75,3.15.051,9.95,0,15.1-.15,16.2-.15a91.4,91.4,0,0,1,12.8.8,2.284,2.284,0,0,1,2.4,2.5q.1,5.8,0,7.7a22.719,22.719,0,0,1-1.5,7.5,4.222,4.222,0,0,1-4.3,3.1q-10.1.3-15.1.4a91.909,91.909,0,0,1-15.1-.7"/></svg>