<svg overflow="visible" width="100%" height="100%" viewBox="0 0 117.194 62.145" xmlns="http://www.w3.org/2000/svg"><path d="M66.931,12.845q-1.1-5.4-7.1-8.1a106.385,106.385,0,0,0-11.1-4.2q-4.8-1.6-7.4,1.5a6.237,6.237,0,0,1-7.2,2.2q-1.9-.4-4.55,2.4-2.7,2.75-5.85,6.35t-2.85,2.25a5.174,5.174,0,0,0-.15-2.75q-.45-1.4-6.7-2.15-6.3-.75-11.55,9.2-5.2,9.9.5,13.5,5.3,2.15,4.45,5a7.607,7.607,0,0,0,.9,6.1,58.379,58.379,0,0,0,3.5,5.5q3.1,5.1,11.2,6.8,7.8,1.6,12.4-1.4a2.225,2.225,0,0,1,1.5-.4,4.636,4.636,0,0,1,1.5.5q13.4,6.1,24.2,6.6,4.2.2,5.8.1a7.8,7.8,0,0,0,4.85-2q1.7-1.7,4.75-.4,4.5,2.5,11.7,2.7,4,0,12.1-.1,5.1.2,6.3-7.6a4.062,4.062,0,0,1,.7-2,3.351,3.351,0,0,1,1.9-.8q7.1-1.3,6.4-9.3-.7-7.5-6.1-11.1a42.067,42.067,0,0,0-8.65-4.3q-3.651-1.2-4-2.45a19.579,19.579,0,0,0-2.1-4.1q-1.751-2.85-8.15-5.45a62.522,62.522,0,0,0-11.7-3.3,16.41,16.41,0,0,0-4.8-.4,8.473,8.473,0,0,0-4.7,1.6m-17.8-9.2q2.8,1.2,10.1,3.9,5.7,3.1,4.95,6.15a9.67,9.67,0,0,0-.55,3.9,1.567,1.567,0,0,0,1.2,1.15,2.69,2.69,0,0,0,1.35-.45,8.515,8.515,0,0,0,2.05-3.1q1.3-2.65,10.2-.45a69.622,69.622,0,0,1,12.6,4.9q4.5,2.2,4.3,6.1a2.81,2.81,0,0,0,.8,2.3,2.662,2.662,0,0,0,2.3.8,9.806,9.806,0,0,1,4.8,1.2q1.5.8,4.4,2.3a9.584,9.584,0,0,1,4.5,4.1,21.955,21.955,0,0,1,2,5.7q1,4.1-2.3,6-3.6,2.2-6.5.2a6.056,6.056,0,0,0-2.7-1.1,2.644,2.644,0,0,0-1.3.4,2.434,2.434,0,0,0-.9,1q-.5,1,.6,2.5a21,21,0,0,0,2.2.9,5.08,5.08,0,0,1,2.3,1.2,5.748,5.748,0,0,1-.4,2.6q-.8,3.5-4.6,3.5-7.6-.2-12.95.15a11.649,11.649,0,0,1-9.1-3.3q-3.75-3.6-5.15-.5a5.12,5.12,0,0,1-5.1,3.05,54.43,54.43,0,0,1-24.6-4.5,21.1,21.1,0,0,1-3.4-1.6,2.63,2.63,0,0,1-1.2-2.65,2.592,2.592,0,0,0-.65-2.45,3.531,3.531,0,0,0-2.15-1.15,2,2,0,0,0-2,1.25q-.8,1.4-.5,2a3.134,3.134,0,0,1-.3,2.05q-.6,1.4-4.05,2.1-3.5.7-11.55-3.4-8.1-4.151-7.9-11.75,0-1.9,1.8-1.6.7.1,2,.4,2.6.75,2.7-.65a5.567,5.567,0,0,0-.3-2.45,2.062,2.062,0,0,0-.9-1.4,9.123,9.123,0,0,0-5.1-1q-5.5.6-6.1-4.2a11.018,11.018,0,0,1,3.4-9.7q3.9-4.1,8.5-3.8a7.172,7.172,0,0,1,1.6.1q.8.3.85,1.5a3.512,3.512,0,0,0,1.25,2.35q1.151,1.149,4.6-1.95a41.094,41.094,0,0,0,6.1-7q2.6-3,5.5-1.7,3.3,1.4,6-2,2.8-3.5,7.3-1.9m-13.45,16.5a14.977,14.977,0,0,0-.6,2.5q-.351,1.9,1.65,1.1a2.617,2.617,0,0,0,1.5-2.4q0-1.9-1.05-2.15a1.279,1.279,0,0,0-1.5.95m9.2,2.55q.4-2.05-1-2.2-1.4-.2-1.8,2.15t1,2.25q1.4-.15,1.8-2.2"/></svg>