<svg overflow="visible" width="100%" height="100%" viewBox="0 0 116.313 51.047" xmlns="http://www.w3.org/2000/svg"><path d="M112.012.536q-12.5-.3-18.8-.5a143.532,143.532,0,0,0-18.9.7q-31.1,3.9-50.4,3.8-7.7,0-15.4.6a17.132,17.132,0,0,0-5.3,1.1q-2.4.9-2.9,1.9a7.256,7.256,0,0,0-.2,3.7q.9,10.8,1.5,21.6.2,3.8,0,11.4a7.66,7.66,0,0,0,1.3,4.2q1.3,1.6,6.8,2a5.536,5.536,0,0,0,3.25-.75,2.887,2.887,0,0,0,1.549-2.25q.1-2.6.2-3.9a43.146,43.146,0,0,1,.6-7.3q.9-5,6.9-9.9,7.4-6.4,13.9-4.2t8.5,11.8q.6,3.1,1.4,9.3.6,4.5,3.7,4.5a33.768,33.768,0,0,0,8.6-1.3q.9-.2.9-2.6-.2-3.9-.3-5.9-.4-6.8-.4-10.3a7.743,7.743,0,0,1,3.8-7.1,6.329,6.329,0,0,1,6.2-1,6.491,6.491,0,0,1,4,4.9q1.1,4.3,2.8,13a8.793,8.793,0,0,0,2.6,4.9,8.537,8.537,0,0,0,5.4,1.5q3,0,4-2.3a10.343,10.343,0,0,0,.9-3.8q-.3-4.6-.4-6.9l-.5-6.9q-.3-4.4,3.2-6.2a7.4,7.4,0,0,1,8,.3q4.6,2.8,5.4,9,.5,3.4,1.4,10.3.8,5.2,5.5,5a6.414,6.414,0,0,0,4.2-1.3,5.987,5.987,0,0,0,1.3-4.1l-.2-32.6a5.626,5.626,0,0,0-.9-3.4q-.8-.9-3.2-1m-18.4,11.6q.2-.9,1.8-1.3a31.4,31.4,0,0,1,5.4-.6,13.876,13.876,0,0,1,2.6.05q1.451.15,1.45,1.25-.049,1.1.451,6.4,0,.2-.8.4-.9.3-1.2.1a35.279,35.279,0,0,0-5.25-2.75q-2.4-.949-3.35-1.35t-1.051-1.1a2.573,2.573,0,0,1-.05-1.1m16.2-8.7q2.1.2,2.2.2,1.1.3,1,1.8a1.456,1.456,0,0,1-1,1.6,10.622,10.622,0,0,1-2,.2l-10.9.6q-34.5,1.7-41.6,2.2a240.829,240.829,0,0,0-24.2,2.6q-13.5,2.1-21.2,1.9a40.127,40.127,0,0,0-7.4.8q-1.35.3-1.551-.75l-.15-1.05q-.4-3,.4-4.1t3.9-1.3q8-.6,11.9-.5,13.1.1,29.5-1.2,8.8-.8,29.4-3.1,3.9-.4,16.3-.2.1,0,15.4.3m-1.85,7.25q.15-.45,1.949-.55,2.4-.2,3,.5t.7,3.5q.1,2.4-.6,3.2t-2.8.6a2.9,2.9,0,0,1-1.9-1.5,3.657,3.657,0,0,1-.3-1.1q-.049-.45-.15-2.35a6.555,6.555,0,0,1,.1-2.3m5.25,10.35q.449.351.25,4-.051.8-2.551.9a16.06,16.06,0,0,0-3.15.3q-.7.2-.8-.6a5.716,5.716,0,0,0-.65-1.7,12.45,12.45,0,0,0-.8-1.3q-1.349-1.65,2.951-1.75,4.25-.15,4.75.15m-5.8,12q-.5-3.1-.1-3.7.5-.7,4.949-1.3.9-.15,1.451-.3l.1,9.9a2.222,2.222,0,0,1-2.4,2.5q-2.8.2-3.2-2.3l-.8-4.8m-22.75-21.55a13.843,13.843,0,0,1,3.95-.15q2.2.2,2.351,1.4a2.541,2.541,0,0,1-1.051,2.25q-1,.851-1.949,1.65a10.067,10.067,0,0,0-1.6,1.45q-.649.651-2.549.35-1.951-.349-1.4-3.45.5-3.15,2.25-3.5m-12.849.75a42,42,0,0,1,5.1-.2q2.7,0,2.3,2.7-.85,4.05-3,4.75-2.151.651-2.851.05a7.3,7.3,0,0,0-2.149-1.25,2.821,2.821,0,0,1-1.8-1.95,8.934,8.934,0,0,1,0-2.7q0-1.149,2.4-1.4m3.15,11.4q-.651-1.449,4.5-2.35,5.15-.95,4.85.45a10.451,10.451,0,0,0,.049,3.95q.351,2.55.851,8.35v3.8q0,.8-.1,2.2a1.819,1.819,0,0,1-1.7,1.3,4.826,4.826,0,0,1-3.2-.5,3.552,3.552,0,0,1-1.8-2.3q-2.2-9-2.5-11.2a13.539,13.539,0,0,0-.949-3.7m-8.75-9.7a4.8,4.8,0,0,1-.1,1.8,2.263,2.263,0,0,1-1.6,1.1,39.773,39.773,0,0,0-4.4,1.4q-1.3.551-1.45-2.4-.148-3,3.051-3.2a20.253,20.253,0,0,1,3.8-.05q.6.15.7,1.35m-10.051,1.85q.4,2.5-.05,2.75-.449.15-6.649.8t-6.25-2.3q-.051-3,2.8-3.3,2.85-.35,5.15-.5a24.9,24.9,0,0,1,3.45-.05q1.15.1,1.55,2.6m1.051,7.75a13.026,13.026,0,0,0-1.4,5q0,4.6.4,13.8,0,2-.6,2.5a5.62,5.62,0,0,1-3.1.7,5.435,5.435,0,0,1-3-.4q-.7-.5-1-2.6-.6-4.8-.9-7.2a35.067,35.067,0,0,0-1.9-7.2,10.488,10.488,0,0,0-2.2-3.55q-1.55-1.549,6.65-2.45t7.051,1.4m-24.9-8.3q2.5-.4,5.8-.8,3.251-.4,3.05,2.65-.2,3-.3,3.85t-1.75.15a16.885,16.885,0,0,0-4.1-1.25,17.377,17.377,0,0,1-2.6-.3q-1.5-.4-1.7-.95a14.271,14.271,0,0,1-.6-1.75q-.349-1.2,2.2-1.6m-5,2.6a11.6,11.6,0,0,1-4.4,4.9,22.954,22.954,0,0,0-4.449,3.5,3.208,3.208,0,0,1-1.351,1.1q-.6.15-.7-.15a1.568,1.568,0,0,1-.1-.8q0-.5.049-4.75t2.8-4.45q2.751-.249,5.7-.65,2.951-.45,2.451,1.3m-15.1,11.1q3.1-.45,2.8.5l-1.3,3q-1.3,3.3-2.6,4-1.2.7-4.5-.1a2.157,2.157,0,0,1-1.9-1.8q-.15-1.7-.15-2.75a1.684,1.684,0,0,1,.549-1.45,4.628,4.628,0,0,1,2.2-.7l4.9-.7m1.7-7.75q0,4.1-.349,4.8-.4.651-2.35.85-2,.2-4.2.3-2.25.1-2.65-1.65a21.887,21.887,0,0,1-.5-4.75q-.1-3,2.7-3.15,2.8-.2,3.65-.25,3.7-.3,3.7,3.85m-7.3,18.15a7.023,7.023,0,0,1,3.7.6,3.014,3.014,0,0,1,1.5,2.4,20.318,20.318,0,0,1,.349,3.55q0,2.05-.8,2.2a23.262,23.262,0,0,1-3.549.1q-2.751-.1-3-1.4a21.544,21.544,0,0,1-.3-4.25,6.293,6.293,0,0,1,.2-2.1q.3-1,1.9-1.1"/></svg>