<svg overflow="visible" width="100%" height="100%" viewBox="0 0 92.278 114.674" xmlns="http://www.w3.org/2000/svg"><path d="M6.078,20.55a18.158,18.158,0,0,0-.5,3.8l-1.15,22.2a8.942,8.942,0,0,1-2.1,5.35q-1.05,1.3-1.75,2.25-.85,1.1-.45,5,.4,4,1.5,5.2,1.1,1.1,1.5,1.1a3.774,3.774,0,0,1,2.5,1.05,2.108,2.108,0,0,1,.4.55,6.467,6.467,0,0,1,.6,3.2q.6,7.5,2,18.2.9,6.1,2.6,18.2a28.627,28.627,0,0,0,1.25,4.8q.9,2.8,2.9,2.65,2-.2.25-4a37.818,37.818,0,0,1-2.6-7.9q-.851-4.1-2.2-15.25-.9-12.2-1.6-18.3a2.341,2.341,0,0,1,.5-2,2.709,2.709,0,0,1,1.9-.5l22.9.1a3.142,3.142,0,0,1,2,.5,2.664,2.664,0,0,1,.5,2.1l-4.7,43.4q-.1,1.85,1.35,2.05,1.5.15,1.55-1.75,2.8-28,4.2-41.9.15-2.651,1.8-3.1a2.444,2.444,0,0,1,1-.1q2.8.1,3.1-2.1.1-1.95-.05-5.7h1.75q-.2,4-.1,6,.3,2.2,3.1,2.1a2.444,2.444,0,0,1,1,.1q1.65.45,1.8,3.1,1.4,13.9,4.2,41.9.649,2.3,1.8,1.7a2.164,2.164,0,0,0,1.1-2l-4.7-43.4a2.664,2.664,0,0,1,.5-2.1,3.142,3.142,0,0,1,2-.5l22.9-.1a2.709,2.709,0,0,1,1.9.5,2.341,2.341,0,0,1,.5,2q-.7,6.1-1.6,18.3a125.694,125.694,0,0,1-2.8,18.1,30.892,30.892,0,0,1-1.45,4.4q-1.35,3.6-.55,4.4,1.4,1.4,2.85-1.85a53.768,53.768,0,0,0,2.75-10.1,145.959,145.959,0,0,0,2.1-15.5q.7-8.65,1.3-16.15a6.467,6.467,0,0,1,.6-3.2,9.06,9.06,0,0,1,.65-1,1.892,1.892,0,0,1,1.55-.75,4.4,4.4,0,0,0,2.2-1.05,3.666,3.666,0,0,0,1.4-2.5,18.4,18.4,0,0,0,.25-2.8,17.694,17.694,0,0,0-.15-1.85q-.1-.75-.15-1.75a7.45,7.45,0,0,0-.15-1.4q-.8-3-2.1-3.6-2.1-.9-2.3-4a224.536,224.536,0,0,0-2-23.1q-.4-2.8-1.2-3.5-.8-.6-3.7-.6a20.514,20.514,0,0,0-.8-2.6l-5.8-15.8a1.526,1.526,0,0,0-.8-.85,1.473,1.473,0,0,0-1.1-.15,1.506,1.506,0,0,0-.7,2l5.7,15.3q.6,1.35,1,2.1h-60.4q-3.7.2-3.1-3.1,1.4-6.3,3.8-14.2.2-.6-1.15-1.1-.551-.2-1.15.8a14.456,14.456,0,0,0-.8,1.7,76.485,76.485,0,0,0-3.8,11.2q-.551,2.749-.6,3.5,0,.7-1.35.6a8.678,8.678,0,0,0-2.15.05q-.851.1-1.25,1.65m2,3.25q0-1.15-.05-2,2,.049,5.95.1,14.15.05,22.95-.05a4.394,4.394,0,0,1,2.6.6,2.978,2.978,0,0,1,.7,2.5,15.566,15.566,0,0,0,0,2.5q.1,3.3.7,3.9.7.8,4,1.2a2.382,2.382,0,0,1,2.3,2.5v7.4q-2.3-1.5-3.1.6l-2,6.2a32.246,32.246,0,0,1-1.6,3.8q-.5.4-4.2.2-2.6-.1-12.6-1.1-7.7-.8-14.05-.85a18.29,18.29,0,0,0-2.55.05,18.235,18.235,0,0,1-.1-2.9q.2-6.8.8-16.4.2-4.9.25-8.25M4.128,55.45a2.014,2.014,0,0,1,1.75-1.75,43.491,43.491,0,0,1,7.05.05l23.4,2.6a6.964,6.964,0,0,0,6-2,14.559,14.559,0,0,0,3.1-5.7q.65-1.9,1.4,1.05a5.75,5.75,0,0,0,3.4,4.15,12.367,12.367,0,0,0,6,.7q4.8-.3,27.2-1.3,3.6-.2,4.1.15a1.17,1.17,0,0,1,.55.85q.049.45.05,1.5.5,5.8-.3,6.7-.9,1-6.6,1-.9,0-15.6.1a140.372,140.372,0,0,0-15.5.7l-.6-5.1a5.389,5.389,0,0,0-.1-.95.979.979,0,0,0-.8-.75,11.116,11.116,0,0,0-2.85-.1q-2.149.05-2.6.55a1.339,1.339,0,0,0-.45.95l-.6,5.1a140.372,140.372,0,0,0-15.5-.7q-14.7-.1-15.6-.1-5.7,0-6.6-1-.8-.9-.3-6.7m74.3-33.6a8.565,8.565,0,0,1,3.5.4q1,.6,1.2,3.5.2,3.6,1.7,21.6.3,3-2.7,3l-28.6,1.3a3.735,3.735,0,0,1-3.6-1.9q.1-1.3.15-3.9.1-11.7.2-17.25.05-5.55.55-6.15.6-.5,3.8-.6h23.8m-31.4,1.2a12.3,12.3,0,0,1,.2,2.9l-.1,1.9q-.2,1.65-1.2,1.6-2.2-.2-2.8-1.2a24.026,24.026,0,0,1-.5-3.8q-.3-2.5,2-2.6,1.9-.1,2.4,1.2"/></svg>