<svg overflow="visible" width="100%" height="100%" viewBox="0 0 86.769 116.178" xmlns="http://www.w3.org/2000/svg"><path d="M13.532,15.812a40.119,40.119,0,0,0-8.6,10.2q-1.4,2.7-2.7,5.55a27.385,27.385,0,0,0-1.95,6.25q-.651,3.4.2,16.3t6.05,30.8q4.6,15.9,10.6,25.6,2.6,4.1,6,5.2,3.3,1.1,8.1-.4,17.6-5.8,32-20.8a94.927,94.927,0,0,0,9.2-11.4q2.9-4.2,7.9-12.3a28.379,28.379,0,0,0,4.4-10.9l1.4-7.3q2.3-11.5-3.7-25.6a32.4,32.4,0,0,0-5.4-8.5,80.438,80.438,0,0,0-7-7.4q-10.9-10.4-26.9-11.1-4.3-.2-11,2.8-8.7,4-18.6,13m20.7-10.9q7.6-3.3,18.3-.4,19.4,5.2,28.3,25.8a39.484,39.484,0,0,1,2.5,22.9,61.994,61.994,0,0,1-8.7,21.8,128.852,128.852,0,0,1-12.6,16.6,73.986,73.986,0,0,1-31.8,21.1q-4,1.3-6.3.5-2.6-.9-4.4-4.5a167.224,167.224,0,0,1-9.6-21.7,133.934,133.934,0,0,1-5.1-21.3,99.078,99.078,0,0,1-1.7-19.7,47.011,47.011,0,0,1,3-15.2q2.749-7.3,12.8-15.4,10-8.1,15.3-10.5m7.85,73.35q.249-1.149-1.4-1.75a.867.867,0,0,0-1.2.351,1.971,1.971,0,0,0-.35,1.549q.1.8,1.4.9a1.327,1.327,0,0,0,1.55-1.05m-8.35-3.7q-1.1.4-.8,1.35a1.734,1.734,0,0,0,1.7,1.1,1.1,1.1,0,0,0,1.2-.95,1.276,1.276,0,0,0-.4-1.4,1.831,1.831,0,0,0-1.7-.1m-1.6,25.151q-2.1-.2-4.4-3.3a16.256,16.256,0,0,1-1.8-3.3q-1.4-3.3-1.7-4.051-.3-.8-.95-.7a1.262,1.262,0,0,0-.95.6,1.452,1.452,0,0,0-.3.75q-.6,3.8,3.3,8.2,3.8,4.4,7.8,4.1,3.8-.3,5.3-1.9a4.565,4.565,0,0,0,1.45-2.4q-.051-.85-.85-.85a6.063,6.063,0,0,0-2.9,1.549,5.657,5.657,0,0,1-4,1.3m-1.3-55.3q-3.7-3.349-6.7-3.15a45.118,45.118,0,0,0-5.55.6q-8.25,1.249-11.65,6.549-3.2,5,.1,9.7,6.7,9.5,17.5,9.6a10.826,10.826,0,0,0,8.5-3.3,12.449,12.449,0,0,0,3.3-8.8,13.189,13.189,0,0,0-.85-5.7q-.951-2.149-4.65-5.5m-14.8,1a17.671,17.671,0,0,1,4.95-1.3,14.811,14.811,0,0,1,3,.2,11.854,11.854,0,0,1,3.3,1.25q6.05,3.1,6.05,11.051a8.893,8.893,0,0,1-2.6,6.3,7.956,7.956,0,0,1-6.2,2.3q-9.8-.6-14.8-7.9-3.7-5.4,1-9.2a18.573,18.573,0,0,1,5.3-2.7m47.95,2.3a10.57,10.57,0,0,0-4.95-1.3,14.783,14.783,0,0,0-6.05,1.051,14.026,14.026,0,0,0-5.8,4.449q-2.651,3.2-1.85,9.4a12.155,12.155,0,0,0,4,8q3.3,2.9,8.9,3a9.774,9.774,0,0,0,7.15-3.15q3.3-3.3,3.8-6.449.45-3.15.65-5.051a10.16,10.16,0,0,0-1.2-4.85,12.716,12.716,0,0,0-4.65-5.1m-12.75,3.7a9.4,9.4,0,0,1,4.9-1.7q7.8-.4,10.2,5,.9,2,0,6.2-.8,4.2-2.5,5.8a9.333,9.333,0,0,1-5.8,2.5,8.967,8.967,0,0,1-6.1-1.2q-4.1-2.8-3.8-8.6a19.4,19.4,0,0,1,.3-4,7.143,7.143,0,0,1,2.8-4"/></svg>