<svg overflow="visible" width="100%" height="100%" viewBox="0 0 104.334 116.11" xmlns="http://www.w3.org/2000/svg"><path d="M92.934,96.908a3.879,3.879,0,0,0-2.4,2.3,3.835,3.835,0,0,0,.3,3.5,6.291,6.291,0,0,0,2.5,2.2,3.984,3.984,0,0,0,2.9.4,6.11,6.11,0,0,0,2.5-1.7,4.009,4.009,0,0,0,.6-3.6q-.55-2.35-1.55-2.9a4.725,4.725,0,0,0-2.15-.65,6.517,6.517,0,0,0-2.7.45m.5,3.95a1.765,1.765,0,0,1,.05-1.3,1.4,1.4,0,0,1,.45-.45,1.347,1.347,0,0,1,.65-.15,4.434,4.434,0,0,1,.95,0,2.193,2.193,0,0,1,1.15.85,1.118,1.118,0,0,1,.05,1.55,2.075,2.075,0,0,1-1.2.85,2.373,2.373,0,0,1-1.25-.15,1.485,1.485,0,0,1-.85-1.2m-68.9-26.45a15.81,15.81,0,0,0-10,1.2,28.019,28.019,0,0,0-10.1,7q-4.1,4.5-4.4,14.8-.4,10.4,3.9,14.6a14.887,14.887,0,0,0,11.1,4.1q17.7.2,23-15.6a19.768,19.768,0,0,0,.2-11.5,18.931,18.931,0,0,0-5.7-9.8q-4.6-4-8-4.8m-14.6,13.8q3.7-3.8,4.8-5,1.9-1.6,3.5,1,1.3,2.5-1,5.8a6.464,6.464,0,0,1-6.1,3.2q-3.6-1.5-1.2-5m-.1-6.3.3.7-2,3.1a11.875,11.875,0,0,0-1.6,3.2,5.678,5.678,0,0,0,.8,5.5q2,2.5,6,1.5a9.531,9.531,0,0,0,7-5.3q2-4.1-.2-9.2-.9-2.1-.5-3t2.4-1.2a6.843,6.843,0,0,1,3.4.4q9.3,4.7,10.6,13.9a18.64,18.64,0,0,1-4.6,15.3,17.367,17.367,0,0,1-9.3,5.8,34.274,34.274,0,0,1-10.6.7,7.474,7.474,0,0,1-5.1-2.4,11.289,11.289,0,0,1-2.9-5.5,34.665,34.665,0,0,1-.9-10.2,17.78,17.78,0,0,1,3.6-9.7l3.6-3.6m-2.7,21.5a3.1,3.1,0,0,0,1,1.8,2.714,2.714,0,0,0,2,.8,5.511,5.511,0,0,0,2-.5,2.69,2.69,0,0,0,1.1-1.3q.4-1-1.1-3.5-1.5-2.4-3.3-1.5a2.51,2.51,0,0,0-1.6,1.9,5.542,5.542,0,0,0-.1,2.3m59.8-53.9a4.2,4.2,0,0,0-3,1,6.485,6.485,0,0,0-1.1,3.4q-1.35,9.65-2.5,17.1a65.553,65.553,0,0,1-.6,7.2q-.9,4.3-2.8,20.5-.6,5.9,4.7,5a46.454,46.454,0,0,0,9.1-2.8,9.791,9.791,0,0,0,.9,4.7,5.124,5.124,0,0,0,3.7,2.4q2.9.7,4.2-1.6,2.6-3.9-1.7-8.3,7.8-2.4,23-5.5,2.5-.6,3.1-1.5a5.483,5.483,0,0,0,.3-3.4l-5.05-36.9a1.561,1.561,0,0,0-1.5-1.25h-4.65q-1.2-.051-1.3-.05-16.5-.2-24.8,0m2.2,2.7q2.1-.1,6.8.1h6.4q2.3,0,2.3,2.4l.3,12.3a2.73,2.73,0,0,1-2.2,2.9l-3.3.9-13.8.9q-2.6.2-2.2-2.2,1.2-7.7,1.7-13.8.2-3.3,4-3.5m20.6.1q1.8,0,6.15-.1h.65l4.6,33.5q.4,2.8.1,3.3-.4.7-3.1,1.3a205.146,205.146,0,0,0-35.2,10.2q-1.8.5-2.4,0t-.5-2.3q1.4-10.1,1.8-15.2.6-6.7,1.5-7.5,1-.9,8.4-1.2a50.725,50.725,0,0,0,12.7-1.9q3.8-1.3,3.5-5.1l-.8-11.9q-.2-3.3,2.6-3.1m-15,48.9a1.973,1.973,0,0,1,1.4.15,2.563,2.563,0,0,1,1.2,1,2.451,2.451,0,0,1,.2,1.75,1.414,1.414,0,0,1-1.2,1.2,3.014,3.014,0,0,1-2.2-1.15,2.236,2.236,0,0,1-.2-1.85,1.645,1.645,0,0,1,.8-1.1m-17.3-64a84.986,84.986,0,0,1-7.7-4.7q-1.9-1.4-19.7-14.3-12-8.6-19.3-14.8-.55-.9.6-.9,1.8.6,5.3,1.7a28.714,28.714,0,0,1,5.2,2.1q5.1,3,15.5,8.7a158.426,158.426,0,0,1,15.1,9.5q8.7,7.4,25.9,22.4a1.968,1.968,0,0,0,.9.35,1.727,1.727,0,0,0,1.4-.35q.551-.3.05-1.25a3.545,3.545,0,0,0-1.35-1.45q-12.7-11.4-19.1-16.9a118.529,118.529,0,0,0-21-14.6q-12.7-7.1-19.1-10.4a20.01,20.01,0,0,0-12.1-2.1q-4.6.6-3,5.2a49.053,49.053,0,0,1,1.6,7.5q.9,5.7,1.3,7.4.6,2.7,2.3,7.8a24.3,24.3,0,0,1,1.1,7.9q-1.25-3.8-2.5-2.3a2.768,2.768,0,0,0-.8,1.45,3.671,3.671,0,0,0,.1,1.2,20.7,20.7,0,0,0,1,2.75,5.516,5.516,0,0,1,.7,3,9.451,9.451,0,0,0-.3,5l.9,4.8q.4,4.1,3.6,5.5.4.2.7,1.4.3,1.1.1,1.3a5.681,5.681,0,0,0-1.5,5.4,36.1,36.1,0,0,0,2.1,5q1.3,3.6,3.6,2.3.4-.2.4-1.6.1-2.2.1-2.4l-3.2-20.1q-1.4-9.8-2.3-14.7a84.418,84.418,0,0,0-3.5-14.4,22.636,22.636,0,0,1-1.6-6.5,44.4,44.4,0,0,1-.1-6.9q8.9,6.3,25.6,18.8a302.181,302.181,0,0,0,26.2,17.5,18.053,18.053,0,0,1,2.3,1.3,2.579,2.579,0,0,0,2.5.1,2.842,2.842,0,0,0-1.3-2.75q-1.4-.951-6.7-3.95m-45.3,7.3.8-.1,1.3,8.5-.8.1-1.3-8.5"/></svg>