<svg overflow="visible" width="100%" height="100%" viewBox="0 0 115.215 68.689" xmlns="http://www.w3.org/2000/svg"><path d="M65.8,9.364q4.8-.7,5-3.9T66.4.864a43.864,43.864,0,0,0-11.3-.8q-2.8-.2-5.4,2.9-2.8,3.8,2,5.5,4.75,1.65,14.1.9m-4.55-5.85q4.4.251,6.25,1.5,1.2.7-1.4,1.55a19.56,19.56,0,0,1-7.35.45,22.232,22.232,0,0,1-5.7-.9,3.825,3.825,0,0,1-1.3-.9q-.251-.45.75-1.3a3.6,3.6,0,0,1,2.65-.75q1.65.1,6.1.35M114,32.164a30.219,30.219,0,0,1-4.3-5q-11.4-13.3-41.7,2.5-.4.2-1.45.7l-1.85.95-1.35-2.7q4.549,0,4.55-4.75a6.056,6.056,0,0,0-1.8-4.7,22.151,22.151,0,0,0-4.4-3.4q-3.6-1.4-4.5-1.2-.85.2-2.1,3.35a7.172,7.172,0,0,0-.05,5.8,11.706,11.706,0,0,1,1.15,3.55q-.1.5-.2,1.5-.9-.1-1.4-.2a2.368,2.368,0,0,1-1.1-.4,35.708,35.708,0,0,0-16.6-6.7,78.722,78.722,0,0,0-18.1-.4q-5.6.9-12,7.9-6.3,7-6.8,12.7.1,2.7,3,1.7a34.055,34.055,0,0,0,4.6-2q1.6,6.5,3.6,7.7,2.5,1.5,7.3-3.2,1.7,4.9,4.8,5.7,3,.8,6.9-2.6a2.268,2.268,0,0,1,2-.9,4.127,4.127,0,0,1,2,1.2q2.4,2.3,3.7,2.3,1.4.1,4-1.9a2.477,2.477,0,0,1,3.4-.1,14.477,14.477,0,0,0,3.3,2q3.3,1.2,6.7-2.7v.4q-.4,2.95.95,4-.2,1.05-.35,2.85-.6,6.15-.9,9.85a1.8,1.8,0,0,0,.6,1.4,3.425,3.425,0,0,0,1.2,1.2q.9.5,2.6-1a8.817,8.817,0,0,0,2.6-7.1v-1.1q.3-4.4.25-5.7.4-.05.85-.1,3.4-.2,3.9.3.6.5.5,3.7,0,2.4-.3,7.4a2.187,2.187,0,0,0,1.1,2.1,2.073,2.073,0,0,0,2.3-.2q1.3-.9,2-4.8.8-4-.1-4.9a5.237,5.237,0,0,1-1.2-3,16.664,16.664,0,0,1-.2-3.4,7.822,7.822,0,0,0,3.3,1,3.917,3.917,0,0,0,2.8-1.3q1.9-2.1,5-.7a8.012,8.012,0,0,0,3.7.9,5.653,5.653,0,0,0,3.6-1.7q.8-.8,4-.8,4,.2,5-2.4,1.1-2.9,4.6-2.7a6.482,6.482,0,0,0,6.6-3.5,5.684,5.684,0,0,1,3.7-3q3.3-.9.6-4.4m-3.4.6q.5,1.1.1,1.3-2.5,3.1-3.9,4.5a5.443,5.443,0,0,1-5.7,1.8,3.182,3.182,0,0,0-2.7.4,3.976,3.976,0,0,0-1.6,2.1,3.054,3.054,0,0,1-1.7,2,8.693,8.693,0,0,1-2.6.4,7.109,7.109,0,0,0-4.5,1.2,4.232,4.232,0,0,1-4.6.5q-4.8-1.9-7.8,1-.7.7-3.1-.1-2.5-.8-2.8-1.7l-3.8-12.6q18-8.9,30.3-9.7,8.6-.4,14.4,8.9M12,27.364a17.356,17.356,0,0,1,13.3-3.7q17.6-.7,28,7.8,2.7,2.3,2.5,4.9-.25,3.351-.4,9.3a16.681,16.681,0,0,0-1.3,1.05q-3,2.55-4.55,2.1A9.374,9.374,0,0,1,46,46.464a3.325,3.325,0,0,0-4.5-.3q-2.7,1.8-3.6,1.8-.8-.1-3.1-2.1-2.6-2.3-5.2-.3a14.28,14.28,0,0,1-4.2,2.9q-2.7,1.1-3.5-2-.9-5.1-3.5-4.1a52.9,52.9,0,0,1-5.6,3.9,45.666,45.666,0,0,1-2.4-5.6,2.66,2.66,0,0,0-3.3-2.2l-2.9.5q3.3-7.8,7.8-11.6m46.35-9.3q.3-.349,1.25.05a10.493,10.493,0,0,1,2.7,1.45,4.488,4.488,0,0,1,1.4,1.2,5.937,5.937,0,0,1,.6,2,2.57,2.57,0,0,1-.2,1.4,2.139,2.139,0,0,1-1.4,1,4.032,4.032,0,0,1-1.8,0q-3.9-1.2-3.3-4.9a4.7,4.7,0,0,1,.75-2.2m.85,9.8q.8.25,1.5.4,2.2,5.8,2.3,6.2.8,3.1,2.8,9,1.7,5.2.8,6.4-.8,1.2-6.4,1.2-2.3,0-2.2-1.9l1.2-21.3"/></svg>