<svg overflow="visible" width="100%" height="100%" viewBox="0 0 53.035 116.578" xmlns="http://www.w3.org/2000/svg"><path d="M2.008,4.35a19.211,19.211,0,0,0,3.1,1.5Q9.308,7.6,9.758,9.6t-1.45,5.7a99.762,99.762,0,0,1-5.2,9.5q-5.2,7.5-1.7,17.8,3.5,10,11.5,12.6a23.953,23.953,0,0,1,6.8,3.6,7.373,7.373,0,0,1,2.8,6.7q-.1,9.7.3,29.3.2,5.2-4.5,6.7a48.852,48.852,0,0,0-7.85,3.8,72.832,72.832,0,0,0-9.05,6.8,1.472,1.472,0,0,0-.6,1.7,2.1,2.1,0,0,0,1.4,1.4q22.5,2.1,31.25,1,8.7-1.1,13.5-1.55t5.65-1.7q.8-1.249.1-2.05-1.1-.9-6-4.75a21.349,21.349,0,0,0-10.85-4.6q-5.95-.7-6.2-8.5t-.25-28.15q.2-5.3,3.8-7,3.6-1.751,6.35-3.25,2.7-1.55,7.35-6.8,4.6-5.25,0-14.75t-5.4-14.4a15.658,15.658,0,0,1,3.5-13.2q1.2-1.25,1.9-2.05a1.759,1.759,0,0,0,.1-2.05,2.193,2.193,0,0,0-2.2-1.4q-1.6,0-2.85.05l-39.1.8a3.719,3.719,0,0,0-1.35.25q-.7.25-.8.7A2.21,2.21,0,0,0,.908,3a2.849,2.849,0,0,0,1.1,1.35m8.4,1.3q-.949-1.2,2.25-1.45L40.258,3q2.25-.05,1.65,1.4-1.8,4.249-2.7,7.1-2.2,6.7,2.1,15.7,2.7,6,3.2,7.3a17.141,17.141,0,0,1,.9,7.8q-.4,3-3.7,5.9a47.486,47.486,0,0,1-6.45,4.75,25.807,25.807,0,0,1-4.55,2.35,4.581,4.581,0,0,0-1.8.8,4.675,4.675,0,0,0-.95,1.1q-.5.7-.65,10.4-.15,9.65-.05,20.1t.95,11.8a13.037,13.037,0,0,0,2.2,2.6,8.274,8.274,0,0,0,3.45,1.8q2.1.55,5.3,1.1,2.8.45,7.75,4.95,1.15,1.05-.95,1.5a145.84,145.84,0,0,1-18.95,1.95,105.341,105.341,0,0,1-19.65-1q-1.65-.251,0-1.7,2.75-2.8,10.35-5.7,8.2-3.2,8-9.4,0-5.9-.3-15.6-.4-12.1-.5-15.6.3-5.9-5.5-9.2-.4-.2-6.2-3a17.364,17.364,0,0,1-9.3-10.7,16.417,16.417,0,0,1,1.2-13.95q4.4-7.65,6.2-11.45,2.7-5.8-.9-10.45"/></svg>