<svg overflow="visible" width="100%" height="100%" viewBox="0 0 115.816 109.283" xmlns="http://www.w3.org/2000/svg"><path d="M81.746,1.558a78.492,78.492,0,0,0-12.1,2.3q-23.6,7.8-38.7,14-28.4,11.6-30.8,20.6a2.35,2.35,0,0,0,.3,2.2,1.854,1.854,0,0,0,1.9.9q6.4-.6,13.6-1.9t10.2-2.15a50.288,50.288,0,0,1,5.25-1.25q2.3-.4,8.15-1.65,5.8-1.251,27.4-5.85a44.331,44.331,0,0,1,8.4-.9q1.8,0,8.4.2,5.1.1,7.1,5.1,1.2,2.9,1.6,9.4.4,6.8.6,20.3a182.908,182.908,0,0,0,1.6,20.2q.4,2.5,1.4,7.3,1,4.9,1.3,7.3.6,4.2,4.9,9.6a5.535,5.535,0,0,0,3.7,2,26.443,26.443,0,0,0,4.2-.2q3.4-.6,4.4-4.9.6-5.2.8-7.3l.2-21.4q0-1.6.25-11.4a130.026,130.026,0,0,0-1.549-21.6q-1.751-11.8-3.7-21.1a39.492,39.492,0,0,0-4.8-14.2q-4.6-7.8-11.7-7.1-8.2.9-12.3,1.5m-48,18a34.476,34.476,0,0,1,3.8-1.5l34.2-12a82.266,82.266,0,0,1,11.2-2q3.8-.4,11.4-1.1,6.5-.2,10.1,7.3,2.1,4.5,3.5,13.3.8,4.5,2.4,13.5,1.4,7.9,1.9,13.4.7,7.6.7,26.3l-.2,6.95q-2.05-.3-6.3-.45l-5.2-.1q-3,0-3.7-.5-.7-.6-.9-3.6-.5-7.3-.9-22.3-.1-7.4-.2-11.1a54.515,54.515,0,0,0-1.5-11.1q-1.2-4.9-3.7-7-2.6-2.2-7.6-2.5a74.694,74.694,0,0,0-20.6,1.9q-4.8,1.1-31.2,6.7,0-9.4.1-11.2a4.4,4.4,0,0,1,2.7-2.9m64.8,68.3q-.5-2.4,1.9-2.2,4.2.2,7.95.4,3.351.2,4.3.3l-.35,11.7q-.1,1.3-.4,4.9-.5,3.049-2.7,3.65a4.149,4.149,0,0,1-5.5-2.05q-4.1-5.9-5.2-16.7M27.9,31.658q-.249,1.55-.35,2.15a.727.727,0,0,1-.6.65l-18.9,4a15.805,15.805,0,0,1-2.549.35q-1.5.1-1.75-.55a2.12,2.12,0,0,1,.2-1.75,3.845,3.845,0,0,1,.9-1.35,23.5,23.5,0,0,1,4.8-3.5q11.7-6,17.9-9.2a61.079,61.079,0,0,1,.35,9.2"/></svg>