<svg overflow="visible" width="100%" height="100%" viewBox="0 0 115.292 111.865" xmlns="http://www.w3.org/2000/svg"><path d="M58.2,3.109q-.75,1.2-1.3,2.05-.6.851-1.9,2.9-5.1,8.6-15.4,25.8-9,15.1-15,26a124.7,124.7,0,0,1-11.2,16.4q-4,5.2-12.4,15.3a3.463,3.463,0,0,0-1,1.9,2.735,2.735,0,0,0,1,1.6,79.09,79.09,0,0,1,6.4,7.4,7.812,7.812,0,0,0,5.6,3.5l35.9,4.8q1.6.2,5.15.85a8.8,8.8,0,0,0,5.5-.35,9.022,9.022,0,0,0,3.25-2.55q1.2-1.549,2.05-2.8t3.1-5.05q4.751-8.2,8.15-13.7a113.884,113.884,0,0,1,8.45-11.95,213.263,213.263,0,0,0,13.25-19.6q8.1-13.249,12.5-20.35a31.477,31.477,0,0,0,4.7-21.3q-.7-5.1-4.8-6.1-9.6-2.6-14.3-4.2A63.636,63.636,0,0,0,76.05.009q-9.2-.1-13.15.9-4,1-4.7,2.2m1.9,1.65a4.534,4.534,0,0,1,.85-.9,34.08,34.08,0,0,1,5.35-1.2,31.635,31.635,0,0,1,11.7.2q6.7,1.2,27.7,6.6,2.5.8,1.6,2.9-3.3,7.8-14.35,28.8T81.6,62.659q-6.6,11.4-20.6,34a4,4,0,0,1-2.1,2,6.56,6.56,0,0,1-3.1.1q-20.3-3.7-49.95-7.3-1.65-.1.25-2.2,1.6-1.65,5.35-5.4t13-18.9Q33.7,49.76,57.3,9.159q2.25-3.7,2.8-4.4m49.8,9.55q1.549-3.2,2.35.2a18.809,18.809,0,0,1-.55,10.35q-1,3.3-5.9,12.4-11.1,19.9-18.6,29.55a229.8,229.8,0,0,0-14.4,20.9q-6.9,11.25-7.6,12.35l-3.9,5.7q-2.05,2.3-1.1-.7a97.859,97.859,0,0,1,6.3-12.2q1-1.6,8.3-13.2a251.232,251.232,0,0,0,12.55-22.2q5.25-10.6,12.75-24.4,6.251-11.5,9.8-18.75m-55.7,86.85q3.4.6,3.7,1.5.4.9-1.4,3.8a4.133,4.133,0,0,1-4.6,2l-18.7-2.4q-17.1-2.4-17.6-2.4a7.775,7.775,0,0,1-6-3q-2.2-3.9-3.9-6.3,24.7,2.8,48.5,6.8M40.05,77.109a1.318,1.318,0,0,0-.1-1.25,1.205,1.205,0,0,0-.85-.5l-10.5-2a1.361,1.361,0,0,0-1.7,1.2,1.228,1.228,0,0,0,.45.75,1.876,1.876,0,0,0,.95.55l9.9,1.9q1.549.15,1.85-.65m-6.2-13.65a2.837,2.837,0,0,0-2.25,2q-.649,2.149,1,2.4a8.173,8.173,0,0,0,3.35-.2,1.7,1.7,0,0,0,1.55-2.1,2.282,2.282,0,0,0-1.1-1.95,3.746,3.746,0,0,0-2.55-.15m4.7-11.2a2.66,2.66,0,0,0-.25,2.45,3.032,3.032,0,0,0,1.7,1.35,2.927,2.927,0,0,0,1.8-.05,3.1,3.1,0,0,0,1.6-1.95,2.629,2.629,0,0,0-.1-2.3,2.985,2.985,0,0,0-2.3-.8,2.3,2.3,0,0,0-2.45,1.3M52,66.109q-1.35-1.7-2.55.8-1.151,2.55-.2,7.3a11.58,11.58,0,0,0,4.65,7.35q3.8,2.6,6.75.75a16.058,16.058,0,0,0,5.05-6.05q2.1-4.1-.95-3.35a15.223,15.223,0,0,1-5.5.45,5.99,5.99,0,0,1-4.2-2.95q-1.7-2.6-3.05-4.3m4.3,13.25q-1.5-.45-2.95-3.25-4-9.349-.15-4.1,3.85,5.149,8.25,3.8,4.4-1.4.35,1.4-4.1,2.749-5.5,2.15m28.85-41.05a1.73,1.73,0,0,0,.85-2.3,3.988,3.988,0,0,0-2.05-2.25,2.333,2.333,0,0,0-2.8.4Q79.8,35.31,80,36.359a2.711,2.711,0,0,0,2.05,2.35,3.842,3.842,0,0,0,3.1-.4m-20.7,18.8a5.286,5.286,0,0,0-4.1.3,5.721,5.721,0,0,0-2.65,3.85,7.732,7.732,0,0,0,.65,5.25q.649,1.5,3.2,2a6.55,6.55,0,0,0,4.3-.4q1.751-.949,2.4-3.85a6.959,6.959,0,0,0-.5-5,4.747,4.747,0,0,0-3.3-2.15m-3.75,7.6q-.7-1.95-.4-2.55a3.387,3.387,0,0,1,1.35-1.55q2.8-2.1,3.9.6a2.947,2.947,0,0,1-1.6,4.05q-2.55,1.3-3.25-.55m-5.7-8.1q2.15,1.55,3.4.5a17.6,17.6,0,0,0,1.8-1.6q4.15-3.65,7-.3a20.786,20.786,0,0,1,4,5.85q1,2.6,2,2.4a2.346,2.346,0,0,0,1.65-1.35q2.951-4.7,1.3-8.85a18.058,18.058,0,0,0-5.85-7.6,8.11,8.11,0,0,0-9.15-1.2q-5,2.2-6.5,5.75-1.45,3.55-.6,5.3a4.532,4.532,0,0,0,.95,1.1m3.4-3.45q-2.2,2.6-1.95,1.15a15.436,15.436,0,0,1,2.55-4.9q2.35-3.4,8.2-1.45,5.85,1.849,6.05,8.1.251,6.2-2-.45-1.9-4.45-6.3-4.7-4.4-.3-6.55,2.25m-8.2-9.2a1.778,1.778,0,0,0,.35-1.05,2.271,2.271,0,0,0-.85-1.65,2.176,2.176,0,0,0-2.55-.2q-1.65.65-1.8,1.9a1.465,1.465,0,0,0,1,1.7,3.544,3.544,0,0,0,2.35,0,4.455,4.455,0,0,0,1.5-.7m17.4-15.95a3.3,3.3,0,0,0-1.95,1.95,3.786,3.786,0,0,0-.1,2.7,4.054,4.054,0,0,0,1.5,1.8q.9.6,3.4.15,2.449-.5,1.65-3.95-.8-3.5-4.5-2.65m-12.2-2.15q-2.351-.251-2.8,2.65-.251,1.45,1.6,1.8a4.732,4.732,0,0,0,2.65-.1,1.582,1.582,0,0,0,.95-1.35,2.593,2.593,0,0,0-.4-1.75,2.208,2.208,0,0,0-2-1.25M70,13.759q1.15-1.25-.5-4.55-1.7-3.349-4.45-2.15-2.749,1.15-2.8,3.6a5.27,5.27,0,0,0,1.45,3.9,3.383,3.383,0,0,0,3.35.95A5.573,5.573,0,0,0,70,13.759m29.4,5.3a5.359,5.359,0,0,0-1.9-4q-2-2.1-3.9-.95a5.969,5.969,0,0,0-2.7,3.9q-.75,2.749.8,3.9a8.52,8.52,0,0,0,4.6,1.25q3.1.1,3.1-4.1"/></svg>