<svg overflow="visible" width="100%" height="100%" viewBox="0 0 116.076 82.052" xmlns="http://www.w3.org/2000/svg"><path d="M101.976,28.545a4.81,4.81,0,0,1-3.3-3.2q-4.8-12.6-19.2-20.5a39.678,39.678,0,0,0-14.4-4.4,97.651,97.651,0,0,0-15.2-.3,57.264,57.264,0,0,0-24.5,7.1,48.212,48.212,0,0,0-6.65,4.3q-2.7,2.1-6.55,5.5a21.284,21.284,0,0,0-5.45,6.9q-1.65,3.5-3.75,4.6a6.071,6.071,0,0,0-2.6,3.4,4.646,4.646,0,0,0,.1,3.9,5.45,5.45,0,0,0,1.9,1.8,4.971,4.971,0,0,1,1.7,1.7,5.974,5.974,0,0,1,.2,2.8l-.2,2.9a.983.983,0,0,0,.5.9,2.581,2.581,0,0,1,1.4,2.5,10.486,10.486,0,0,1-1.2,2.7q-2.5,4,.8,5.9.8.5.5,2.6-1.5,7.6,5.6,14.5,2.8,2.2,8,2.7l8.7.6q2.1.2,6.2.4a27.671,27.671,0,0,1,6.1.9,78.233,78.233,0,0,0,16.9,2.55q10.5.651,14.5.75a92.611,92.611,0,0,0,16.9-1.4q5.6-.9,15-3.2a6.318,6.318,0,0,0,4.3-2.7,5.43,5.43,0,0,0,.2-5,38.36,38.36,0,0,1-1.9-9.9q-.8-8.7-1-10a4.45,4.45,0,0,1,.9-3.45,12.917,12.917,0,0,0,1.35-2.15q.15-.45,1.15-.85a14.264,14.264,0,0,1,2.1-.75q4.4-1.3,4.9-4.3.8-4.3-4.8-6.9-1-.4-9.2-2.9m-24.6,12.2a14.659,14.659,0,0,0,14.6.6,8.934,8.934,0,0,1,6-.6q2,.4,4.4,1.05,2.4.6,2.45,1.5t-1.15,1.55a46.384,46.384,0,0,0-4.7,3.1,12.774,12.774,0,0,1-6,2.3q-.4.1-16.7,1.5a67.851,67.851,0,0,1-13.1-.3q-1.5-.2-13-1.9-6.4-.9-19.7-1.6-13-.7-19.7-1.7-4.3-.8-4.2-3.9.3-3,4.7-3.5,2.4-.3,7.2-1.3,3.251-.9,7.35,1.25,4.05,2.151,12.65-.75,4.6-1.3,12.7.1,8.9,1.6,12.7,1,8-1.5,13.5,1.6m16.8-18.1q2,3.3,1.4,4.6-.7,1.4-8.8,3.3-8.1,1.851-28.9,1.5-19.7-.7-38.5-2.6-2.9-.3-8.7-1.3-2.7-.5-1.4-2.9l1.1-2.2q.651-1.149,6.65-7.2T35.776,5.7a57.392,57.392,0,0,1,25.9-2.35q22.4,1.9,32.5,19.3m8.6,27.3q.8,6.7.2,7.4t-7.5,1.8a114.682,114.682,0,0,1-22.2,1.9q-14.8-.7-33.3-2.8-10.7-1.2-33.2-4.1,1.3-4.9,7.9-4.75,6.55.15,22.75,1.55,10.6,1.05,23.2,2.95a60.4,60.4,0,0,0,12.95.45q12.8-.5,13.6-.5a43.144,43.144,0,0,0,7.8-1,16.041,16.041,0,0,0,6.9-3.7q1.05-.95.9.8m-3.3,11.5q2.8-.4,3.4,0,.6.3,1.4,2.9.3,1.7,1.6,6.2.4,3.8-2.9,4.4-9.7,2.2-14.5,3.1a76.582,76.582,0,0,1-14.95,1.5q-21.349-.4-25.15-1.7a63.524,63.524,0,0,0-14.1-2.8q-9.6-.6-14.4-1a12.2,12.2,0,0,1-8.3-3.7,11.721,11.721,0,0,1-2.9-8.3q.1-2.6,1.1-3.4,1-.9,3.5-.6,32.5,4.3,54.7,5.5a70.2,70.2,0,0,0,15.9,0q3.2-.3,15.6-2.1M24.426,16.6q-1.149-.849-1.1.55a5.422,5.422,0,0,0,.25,1.8q.2.4.85,1.55a1.52,1.52,0,0,0,2.05.6q1.35-.5.2-2.1a10.567,10.567,0,0,0-2.25-2.4m18.9,10.75q.5-1.35-1.55-3.85t-1.95-.2a5.753,5.753,0,0,0,1.55,3.8q1.4,1.551,1.95.25M41.376,15.4q0,.3.8,1.1a11.03,11.03,0,0,0,2.7,1.65q1.9.851,1.3-.45a6.574,6.574,0,0,0-1.45-2.15,9.9,9.9,0,0,0-1.3-1.15.909.909,0,0,0-.95-.15,1.651,1.651,0,0,0-.8.5,1.038,1.038,0,0,0-.3.65m0-8.4q.051-.9-.5-.9a7.372,7.372,0,0,0-2.3.55q-1.8.55-2.8.9a1.278,1.278,0,0,0-1,1.25,1.223,1.223,0,0,0,.75,1.2q.7.3,3.25-.9,2.5-1.25,2.6-2.1m24.8,14.55q-1-3.4-2.8-3.7-.8-.1-1,1.2-.4,1.8,2.6,4.15,2.2,1.75,1.2-1.65m-10.3-.3a1.138,1.138,0,0,0-.95-.55,1.286,1.286,0,0,0-1.15.65q-.5.651-1.05,1.45a7.653,7.653,0,0,0-.95,2.2q-.35,1.35,1,.95a4.4,4.4,0,0,0,2.4-2.3q1-1.9.7-2.4M69.126,9.1q-1.549-.549-2-.15a1.645,1.645,0,0,0-.55.95q-.15.5,1.05,1.05a9.963,9.963,0,0,0,3.15.65q1.95.15.9-.9a6.922,6.922,0,0,0-2.55-1.6m15.9,9.45a6.06,6.06,0,0,0-2.45.5,3.154,3.154,0,0,0-1.2,1.1q-.5.752.75,1.3a3.233,3.233,0,0,0,3.05-.6q1.8-1.2,1.7-1.8-.2-.6-1.85-.5"/></svg>