<svg overflow="visible" width="100%" height="100%" viewBox="0 0 116.32 106.747" xmlns="http://www.w3.org/2000/svg"><path d="M16.813.762q-3.9.2-12,2.9a3.128,3.128,0,0,0-2.4,2.3,3.337,3.337,0,0,0,1.5,3,18.728,18.728,0,0,0,7.6,3.2q2.6.5,8.6,1.2-1.3.8-6.5,3.1-3.8,2.2-.5,4.1a29.179,29.179,0,0,0,5.85,2q1.849.3,1.6,1.05t-4.55,14.6a17.069,17.069,0,0,0-7.2-3.75,8.263,8.263,0,0,0-5.8.6,5.813,5.813,0,0,0-2.8,4.3,6.536,6.536,0,0,0,.9,5.4q3.3,4.5,12.5,15.4a2.371,2.371,0,0,0,1.9,1,2.7,2.7,0,0,0,1.9-1.1.774.774,0,0,0,.15-.2q.6,1.9,2.2,9.4a65.318,65.318,0,0,0,4.15,13.05,27.121,27.121,0,0,0,7.9,10.05q7.1,5.3,11.8,8.2a67.726,67.726,0,0,0,10.4,5.35,10.276,10.276,0,0,0,5.15.75q2.049-.049,4.4-2.85,2.35-2.85,2.75-3.45,14.8-17.4,25.5-30.5a47.909,47.909,0,0,0,5-8.7q2.7-6.2,4.4-9.85,4.3,2.151,7.5.65a9.707,9.707,0,0,0,4.8-6,59.756,59.756,0,0,0,2.8-14.4q.2-9-5.2-12.3a4.456,4.456,0,0,0-4.1,0,11.141,11.141,0,0,0-2.65,2.9q-.5.7-1.15,0-8.9-14.5-29.5-18.9-2.2-.5-3.15-.65-1-.15-4.05-.6-3.05-.5-4.35-.6-18.25-2.449-45.35-.65m3.9,2.3q4.5,0,15.7-.1a110.15,110.15,0,0,1,16.8,1.1q11.1,1.8,31.2,6.2a19.2,19.2,0,0,1-1.1,5.1q-1.2,2.7-4,1.2-1.5-1.3-2.3-1.9a2.557,2.557,0,0,0-2.8-.3,31.27,31.27,0,0,0-8,4.7,17.766,17.766,0,0,1-2.7,2.1,5.054,5.054,0,0,1-3.3.5,5.246,5.246,0,0,1-3-1.3,4.781,4.781,0,0,1-1-3.2q-.1-4.7-1-5.2-.8-.5-4.9,1.8-5.5,3-6.4,3.3-3.8,1.3-5.65.45a13,13,0,0,0-4.2-1.05,5.939,5.939,0,0,0-4.4,1.55,8.137,8.137,0,0,1-4.45,1.95,35.271,35.271,0,0,1-7.5-.6q-3.249-.5-.8-1.4.3-.1,3.7-1.1,2.2-.7,3.6-1.3a15.555,15.555,0,0,1,3.1-.5q1.8-.3,1.8-1.8a2.089,2.089,0,0,0-2-2.1q-1.5,0-2.5-.05t-7.75-.95a75.374,75.374,0,0,1-8.85-1.5,3.331,3.331,0,0,1-2.5-2q-.45-1.4,5.15-2.5a47.422,47.422,0,0,1,10.05-1.1m-1.9,34.55q.3-.9,1-3.1t1-3.35q.3-1.149.55-1.85.2-.7.85-2.95t.8-3.15q2.85-.249,1.35,3.9a16.776,16.776,0,0,0-1.1,7.7,29.7,29.7,0,0,0,1.95,7.55q1.549,3.951,4.85,4.35,3.249.351,6.45-3.45,7.2-8.6,5.6-20.4-.3-2.3.2-2.5,4-1.8,10.8-4.4.3,4.4,1.5,5.9,1.2,1.6,5.1,2.6a2.816,2.816,0,0,1,2.1,1.3,5.121,5.121,0,0,1-.1,2.2,24.04,24.04,0,0,0-1.05,9.55,7.416,7.416,0,0,0,2.7,5.3,10.384,10.384,0,0,0,3.15,1.8,13.421,13.421,0,0,0,2.75.3q1.8.051,3.35,0a8.764,8.764,0,0,0,3.6-1.25,15.769,15.769,0,0,0,6.6-9.3,19.225,19.225,0,0,0-1-11.5q-1.1-2.5,1.2-3.4,3.4-1.2,3.2-5.5v-3q7,2,12.3,9.4.8,1.2,2.6,3.5a5.616,5.616,0,0,1,1.1,3.55q-.2,1.451.15,1.7a1.116,1.116,0,0,0,1,.05,1.824,1.824,0,0,0,1.05-.9,32.277,32.277,0,0,1,1.7-4.1q2.2-4.1,5.1-.8a10.653,10.653,0,0,1,2.9,6.8q.1,5.6-2.8,13.5-3.4,9.3-8.4,4.7-1.5-1.4-2.2-1.2-.7.1-1.6,2-1.9,4.2-5.6,12.4a46.844,46.844,0,0,1-7.6,11.2q-6.9,8.1-21.7,25.9-.4.6-1.4,2.05a9.713,9.713,0,0,1-3.2,3.15q-1.6.75-5.3-.7a48.721,48.721,0,0,1-8.95-4.9q-5.25-3.5-9.35-6.6-4.1-3.15-4.8-3.85a19.908,19.908,0,0,1-1.8-2.2,37.547,37.547,0,0,1-6.25-13.3q-1.9-7.35-2.65-11.2-.8-3.849-1-4.5l.3-.7q1.05-2.6-.3-3.35-1.151-.45-1.9,1.35-.8,1.751-2,4.15-7.9-9.2-11.6-14.2a5.189,5.189,0,0,1-.8-3.3,4.5,4.5,0,0,1,.9-2.8,3.062,3.062,0,0,1,2.6-.9,6.662,6.662,0,0,1,3.4,1q.7.5,3.6,2.55,2.9,2,3.2,1.75a7.69,7.69,0,0,0,.95-1.95q.651-1.65.95-2.6m7.8-10.1a14.781,14.781,0,0,1,3.5-5.95,5.792,5.792,0,0,1,5.8-1.55q3.45.75,3.95,2.75a9.122,9.122,0,0,1,.15,3.9q-1.2,9.9-5.6,14.9-5.6,5.7-7.3-2.35-1.75-8.1-.5-11.7m39.1-2.95a8.952,8.952,0,0,1,2-2.2q4.4-3.4,6.6-3.9t3.4,2.6a26.668,26.668,0,0,1,2.9,8.9,9.508,9.508,0,0,1-2.2,8.3q-3.1,3.651-4.85,4.25a7.432,7.432,0,0,1-3.6.4,10.847,10.847,0,0,1-4.2-1.8q-2.45-1.55-2.5-6.05a18.339,18.339,0,0,1,.95-7.1,24.249,24.249,0,0,1,1.5-3.4m4.95.5q-1.15-.2-1.5,2.4a8.6,8.6,0,0,0,0,3.75q.4,1.1,1.3.7.849-.4,1.1-2.15a27.726,27.726,0,0,0,.2-3.1q0-1.4-1.1-1.6m-33.15,5.8-.65-4.85a1.541,1.541,0,0,0-.55-1.05,1.274,1.274,0,0,0-.85-.35,1.144,1.144,0,0,0-.85.45,1.753,1.753,0,0,0-.3,1.35q.1.851.4,3.15.5,3,1.8,2.8,1.149-.2,1-1.5m45.8,26a1.229,1.229,0,0,0-1.8.2q-.5.6-1.75,1.9-4.05,4.2-12.65,12.9-4.3,4.1-8.1,2.5a11.267,11.267,0,0,0-5.9-.9,31.437,31.437,0,0,0-5.15,1.2,29.053,29.053,0,0,0-3.75,1.45q-1.35.651-1.25,1.45.2,1.2,3.85.3a54.165,54.165,0,0,1,6.3-1.6q3.6-.5,5.45.5a7.906,7.906,0,0,0,4.55.65q2.7-.35,7.95-5.5t10.85-11.05a11.161,11.161,0,0,0,1.8-1.8,1.5,1.5,0,0,0-.4-2.2m-39.35-13.6a3.954,3.954,0,0,1,.35-1q.2-.549-.55-1a1.1,1.1,0,0,0-1.25-.1q-.5.3-2.7,6.2-2.25,5.9-1.65,9.9.549,3.9,2.8,4.8a44.957,44.957,0,0,0,5.05,1.65q2.8.75,3.4.5c.366-.166.55-.35.55-.55a2.386,2.386,0,0,0-.35-.95q-.4-.65-2.1-.8a11.188,11.188,0,0,1-4.15-1.65q-2.45-1.5-2.7-3.1a6.7,6.7,0,0,1,.05-2.95q.3-1.3.65-2.65.349-1.3,1.05-3.3l.3-.9.4-1.2q.2-.7.4-1.3.251-.849.45-1.6"/></svg>