<svg overflow="visible" width="100%" height="100%" viewBox="0 0 115.965 96.2" xmlns="http://www.w3.org/2000/svg"><path d="M68.044.1a6.112,6.112,0,0,0-5.6,1.6q-1.9,2.1-1.4,5.8.8,5.1.9,5.3a3.508,3.508,0,0,1,0,2.1q-.4.6-2.1.4-2.5-.4-3.8,3.2a14.963,14.963,0,0,0-.7,5.4q0,.7.5,5.3a5.91,5.91,0,0,1-.1,2.1q-.3,1-1.8,1.2-3.6.5-2.4,4.6a92.871,92.871,0,0,0,3.2,9.3q3.6,9.4,1.05,8.45-1.249-.45-3.95-3.55a11.719,11.719,0,0,0-3.9-3.2,12.153,12.153,0,0,1-4.2-2.7q0-.1-3.1-3.6-1.2-1.3-4.35-5.15a59.043,59.043,0,0,0-4.35-4.95,3.424,3.424,0,0,0-2.05-1.05,1.991,1.991,0,0,1-1.5-.7q-.7-.75-3.6-4.05a16.517,16.517,0,0,0-6.35-4.6q-3.4-1.35-4.15-.8a1.332,1.332,0,0,0-.55,1.5q.5,2.351,2.95,9.65a16.693,16.693,0,0,0-2.6,0,45.129,45.129,0,0,0-7.95.75q-4.9,1.5-5.9,4t2.1,8q3.1,5.5,7.5,5.45t7.2-.3a25.652,25.652,0,0,0,3.85-.55l-.35,6.3q-.1,1.4-.15,1.7t-.2,1.5q-.15,1.2-1.05.75a4.061,4.061,0,0,0-2.8.1q-1.9.551-2.65,3.4t2.45,4.15a7.37,7.37,0,0,1,3.9,3.2,27.712,27.712,0,0,1,1.7,4.7q2.3,8.3,8.8,8.7,4.2.2,4.6,3.4a6.507,6.507,0,0,1-3.6,1.5,24.507,24.507,0,0,0-4.1.8q-3.5,1.6-1.9,4.4a5.112,5.112,0,0,0,4.9,2.6q4.4-.1,16.4,0,10.6-.7,14.1-5.7c.133-.2.267-.383.4-.55a4.438,4.438,0,0,1,3.8-1.95q2.1.15,3.6.2l9.9.4q6.5.3,10.1-4.3a16.866,16.866,0,0,0,3.4-11.2,1.108,1.108,0,0,1,.5-1.15,6.305,6.305,0,0,1,2.7-.4,9.47,9.47,0,0,0,4.7-1.8,30.11,30.11,0,0,0,5.4-5.15,27.356,27.356,0,0,0,5.3-11.1q.3-1.2,2.2-12.1a33.963,33.963,0,0,1,1.9-6.5q2.9-5.7-1.7-12.3-.9-1.4-9.1-10a12.89,12.89,0,0,0-8.3-3.8,21.993,21.993,0,0,1-6.8-2.7q-4.1-2.6-6.3-3.7a8.7,8.7,0,0,0-2.6-1.1,3.011,3.011,0,0,0-2.7,1.1q-.2.3-1.2,0t-1.5-.4a35.745,35.745,0,0,0-6.6-1.9m-50.6,25.35q-1.1-3.1.6-1.75a33.837,33.837,0,0,1,5,4.5q2.5,2.7,3.3,3.75a2.745,2.745,0,0,0,2.2,1.1q1.4,0,5.1,4.6,3.649,4.6,7.15,8.65,3.45,4,4.95,4.8a25.56,25.56,0,0,1,8.8,7.2q3.7,4.7,4.25,8.05t2.3,3.85q1.7.5,1.95-1.35a5.968,5.968,0,0,0-.3-3.15q-.6-1.8-.9-2.8-1-3.3-2.4-9.5-1.451-6.249-1.85-7.55T56.144,42q-1.1-2.6-1.5-3.9-1.2-3.4,1.9-1.7,1,.5,1.5-.2a3.028,3.028,0,0,0,.5-1.8l-.1-9.4q-.1-5.7.9-6.5,1.1-.8,4.2.75t4.55.6q1.151-.6-.55-1.95a9.63,9.63,0,0,1-2.8-4.9q-.7-3.7-1.1-5.6-1.2-6.8,7.4-3.6a83.488,83.488,0,0,1,11.9,5.9q2.25.8.75-1.3-1.45-2.15-.25-1.75t2.4.85a16.079,16.079,0,0,1,3.4,1.7,15.954,15.954,0,0,0,6.7,2.7,14.147,14.147,0,0,1,7.1,3.6q2,1.8,5.7,5.8a7.409,7.409,0,0,1,2.1,5.8q-.3,9.2-.9,14.6a70.1,70.1,0,0,1-3,14.3q-1.1,4.5-5.9,9.2-5.5,5.3-8.5,2.7-3.05-2.6-3.75,4.55-.75,7.15-2.45,10.25-1.7,3.049-8.6,3l-11.3-.4a12.012,12.012,0,0,0-3.5.4,5.3,5.3,0,0,0-2.3,1.3q-1,.9-1.9,1.7-.8.6-2.5,1.9a9.151,9.151,0,0,1-2.7,1.6q-3.9,1.3-12.05,1.35t-9.65,0a2.852,2.852,0,0,1-2.35-1.35q-.8-1.249,2-1.4,2.749-.2,11.15-.7,4.05-.35.7-1.2a8.109,8.109,0,0,1-5.1-3.2,9.381,9.381,0,0,1-1.3-5.9q.5-8.2.6-12.4.2-3.5,3.4-4a14.1,14.1,0,0,1,6.1.1,6.848,6.848,0,0,1,4.15,3.1q1.2,2.149,2.5,1.4,1.4-.849-.75-4.5-2.2-3.7-10.9-3.2-4,.3-5.6,1.8-1.9,1.8-2,6.4l-.1,10.4a1.931,1.931,0,0,1-.6,1.7,2.606,2.606,0,0,1-1.9.2,6.715,6.715,0,0,1-5.4-2.9,20.215,20.215,0,0,1-2.55-5.7q-.4-1.3.9-1.1a8.6,8.6,0,0,0,2.05-.05q1.9-.3,1.6-1.35a1.793,1.793,0,0,0-1.9-1.2l-1-.1a17.618,17.618,0,0,1-6.6-2.4,5.291,5.291,0,0,1-2.4-3.5q-.3-2.051,3.7.1,4,2.1,5.1,1.9,1.2-.1,1.3-.7a1.74,1.74,0,0,0-.2-1.15q-.3-.55-2-.75t-1.6-2.9a28.5,28.5,0,0,0,.7-6.75v-3.9a5.407,5.407,0,0,0-.55-1.7q-.6-1.249-4.75-.5-4.2.75-5.8.85-5.3.6-8.2-4.3-1.9-3-.9-5.1,1-2.2,4.5-2.7,2.95-.45,7.4-.7,4.4-.3,4.25-1.2-.15-.95-.55-2.7a46.915,46.915,0,0,0-1.5-4.85m-.95,10.05q-.9-.05-.85,1.2.1,1.2,1.05,1.05.8-.15.75-1.15-.1-1.05-.95-1.1"/></svg>