<svg overflow="visible" width="100%" height="100%" viewBox="0 0 92.108 116.999" xmlns="http://www.w3.org/2000/svg"><path d="M85.408,4.417q-.5-3.1-2.4-4a14.7,14.7,0,0,0-5-.4q-34.7.3-52,.6-17.5,1.2-19.9,2.9-4.1,2.9-5,19,0,.6-.9,16a105.154,105.154,0,0,0,.2,16.2q.9,8.5,1.8,21.2.5,7.1,1.25,17.7.7,10.55,1.6,19.2.45,4.55,2.8,4.15,2.151.05,6.45-.15h30l22.3-.5q8.1-.3,18.3-1.1,4.2-.4,5.2-1.5.9-1,1-5.2.3-26.6.3-26.8l.7-33.8a217.094,217.094,0,0,0-2.6-21.8q-1.2-7.4-4.1-21.7m-9.5-1.5a36.672,36.672,0,0,1,5.9.2q.9.6,2.2,6.6,4.2,23.9,5.3,38.2.1,6.5-.4,29.3l-.8,31.3a4.617,4.617,0,0,1-.6,2.7,3.188,3.188,0,0,1-2.6,1.1,342.642,342.642,0,0,1-36.6,1.6q-33.2,0-35.35-.1a26.073,26.073,0,0,0-3.55-.05,1.432,1.432,0,0,1-1.65-1.25q-.2-1.35-.75-6.7-1-16.8-2.9-36.1-2.6-33.9.8-58.4.7-3.7,2-4.9,1.3-1.3,5.1-1.7,12.4-1.4,18.7-1.5,15.1-.3,45.2-.3m-7.65,89.55a4.611,4.611,0,0,0-1.15-2.95,4.271,4.271,0,0,0-3.2-1.7,3.954,3.954,0,0,0-3.35,1.3,3.26,3.26,0,0,0-1.15,2.65,8.685,8.685,0,0,0,1.65,3.15q1.45,2,3.35,1.55a4.948,4.948,0,0,0,2.8-1.5,4.366,4.366,0,0,0,1.05-2.5m-3.65-2.05q1.4.4.65,2-1.4,2.9-3.05.35a1.331,1.331,0,0,1,.2-2,1.968,1.968,0,0,1,2.2-.35m-16.15.35a2.942,2.942,0,0,0-2.5-.65,7.124,7.124,0,0,0-3.25,1.1,5.722,5.722,0,0,0-2.3,2.8,3.6,3.6,0,0,0,0,3.3,3.252,3.252,0,0,0,2.8,1.6q1.8.1,4-2.1,2.3-2.3,2.2-4.1a3.482,3.482,0,0,0-.95-1.95m-2.9,1.35q1.1-.251,1.25.65.251,1.85-2.6,3.35-1.749,1.1-1.15-1.3a3.052,3.052,0,0,1,2.5-2.7m3.3-23.5q-3.6-1.8-5.3,1.55-1.8,3.35-.65,4.95t5.4,1.2q4.251-.45,4.2-3.2t-3.65-4.5m-1.6,6.05q-4.4.45-1.35-4.15a1.55,1.55,0,0,1,1.35-.5q.8.049,2.6,2.15,1.8,2.049-2.6,2.5m20.85,5.95a4.689,4.689,0,0,0-2.6-1.2,3.516,3.516,0,0,0-2.5.8,3.209,3.209,0,0,0-1.6,1.9q-.1,2,2.8,3a4.567,4.567,0,0,0,3.4-.1,2.568,2.568,0,0,0,1.6-2.3,2.63,2.63,0,0,0-1.1-2.1m-1.95,3.05a1.71,1.71,0,0,1-1.35-.15,1.219,1.219,0,0,1-.65-1,.8.8,0,0,1,.45-.95,1.624,1.624,0,0,1,1.45.1,1.163,1.163,0,0,1,.85,1.1.94.94,0,0,1-.75.9m-15.55,1.7a2.415,2.415,0,0,0,1.2-2.65,4.652,4.652,0,0,0-1.65-2.65q-1.4-1.2-4.5-1.05t-3.8,2.5q-.7,2.349-.35,3.15a3.1,3.1,0,0,0,1.15,1.35,8.71,8.71,0,0,0,2.15,1,4.077,4.077,0,0,0,2.8-.1,18.39,18.39,0,0,0,3-1.55m-4.75-4.7a3.891,3.891,0,0,1,1.95.15,3.32,3.32,0,0,1,1.3,1.45,1.28,1.28,0,0,1-.25,1.8,6.048,6.048,0,0,1-1.7.9,3.768,3.768,0,0,1-1.6.15,2.108,2.108,0,0,1-1.25-.6,1.684,1.684,0,0,1-.45-.95,4.5,4.5,0,0,1,.35-1.65,1.694,1.694,0,0,1,1.65-1.25m21.15-14.6q-1.9-.3-3.95,1.85-2.1,2.1,0,4.05a7.853,7.853,0,0,0,3.1,2.15,7.512,7.512,0,0,0,2.3.05,6.619,6.619,0,0,0,2.5-1.05,1.915,1.915,0,0,0,1-2.15,9.223,9.223,0,0,0-.8-2.1,9.415,9.415,0,0,0-1.35-1.65,5.193,5.193,0,0,0-2.8-1.15m-1.6,2.7q2.2-1.3,3.45.8,1.251,3.05-1.95,2.15-3.7-1.65-1.5-2.95m-37.9,24.1a3.99,3.99,0,0,0-3.4-.95,7.472,7.472,0,0,0-2.6.8,3.205,3.205,0,0,0-1.3,1.85,3.5,3.5,0,0,0,.15,2.65,3.41,3.41,0,0,0,1.75,1.85,4.927,4.927,0,0,0,2.65.3,4,4,0,0,0,2.45-1.2,6.1,6.1,0,0,0,1.4-2.5,2.53,2.53,0,0,0-1.1-2.8m-4.8,3.8q-1.4-1.451.55-2.25t2.9.15q.9.95-.6,2.25a1.824,1.824,0,0,1-2.85-.15m4.05-9.6a3.3,3.3,0,0,0-.25-2.45,4.6,4.6,0,0,0-2.55-1.3,10.048,10.048,0,0,0-3.5-.25,5.806,5.806,0,0,0-3,1.5q-1.5,1.3-.3,3.3a4.717,4.717,0,0,0,3.65,2.25,7.3,7.3,0,0,0,4-.55,3.584,3.584,0,0,0,1.95-2.5m-4.05-2.4q2.25.15,1.65,2.15-.649,2-3.45,1.2-2.85-.85-1.65-2.15a3.991,3.991,0,0,1,3.45-1.2m1.55-15a12.131,12.131,0,0,0-3.5.55q-1,.35-.8,2.75t.95,3.1a3.691,3.691,0,0,0,1,.75q2.4,1.6,4.3,0a4.206,4.206,0,0,0,1.2-4.45q-.649-2.85-3.15-2.7m-.95,2.05q2.4-.6,2.05,2.45-.4,3.1-3.05-.05-1.4-1.851,1-2.4m-6.5-60.3q-3.1-.1-4.5,1.1-1.3,1.1-1.9,4.2-.5,7.4-.2,18.9.5,16.3.5,18.8,0,2.8.6,3.4.6.5,3.4.6a469.382,469.382,0,0,0,52-2q3.4-.3,4.6-1.5,1.3-1.2,1.6-4.6a179.506,179.506,0,0,0,0-31.7q-.3-3.3-1.3-4.2-.9-.8-4.2-1l-25.3-1.1v-.1l-25.3-.8m49.9,4.5q2.3.1,2.7.6a6.762,6.762,0,0,1,.7,2.9q1.6,12.6,0,30.7a3.644,3.644,0,0,1-.8,2.4,3.335,3.335,0,0,1-2.4.9,464.24,464.24,0,0,1-49.6,2,7.122,7.122,0,0,1-3.1-.5q-.5-.5-.6-3-.9-22.6-.8-33.8.3-2.5,1.3-3.3,1-.9,3.6-.8l49,1.9m-44.3,13.5q-.15-3.45-2-3.3-.8-.051-.9,1.5,0,9.1.1,14.1t.45,5.5q.351.5,1.15.2a2.364,2.364,0,0,0,1.05-.85,1.747,1.747,0,0,0,.25-.85l.1-8.4q-.1-4.5-.2-7.9m16.65,3.3q.051-1.851-.65-2.4a.736.736,0,0,0-1.2.15,2.543,2.543,0,0,0-.6,1.15,10.1,10.1,0,0,0,0,2.1q.1,1.7-2.35,1.8-2.5.1-2.05,1.05.45.9,2.25.8,1.751-.15,2.15,1.9a7.392,7.392,0,0,0,.95,2.85q.6.849,1.35.05a7.1,7.1,0,0,0,.4-2.65,1.49,1.49,0,0,1,1.75-1.55q1.65,0,1.95-.9a.948.948,0,0,0-.45-1.25,3.317,3.317,0,0,0-1.4-.35,2.755,2.755,0,0,1-1.4-.45q-.748-.5-.7-2.3m18-4.9a.913.913,0,0,0-1.35-.25q-.75.5-.9,6.2-.2,5.649-.4,11.65t.8,6.5q.7.4,1.25-.4a3.73,3.73,0,0,0,.6-2q.051-1.2.45-10.3v-9.6a2.183,2.183,0,0,0-.45-1.8"/></svg>