<svg overflow="visible" width="100%" height="100%" viewBox="0 0 113.919 71.213" xmlns="http://www.w3.org/2000/svg"><path d="M15.478,13.5a12.81,12.81,0,0,1-2.3-1.9,10.587,10.587,0,0,0-5.4-2.9A31.086,31.086,0,0,0,4.028,8a10.787,10.787,0,0,0-3.35-.2.863.863,0,0,0-.6.8q-.3,1.4.55,1.55t5.15,1.05q9.1,1.9,11.6,10.2,1.4,4.2,3.7,17.7,1.9,11.1,5.2,17.1,8.5,14,27.8,14.4a65.524,65.524,0,0,0,21.6-2.2,5.854,5.854,0,0,1,3.7.2,41.989,41.989,0,0,0,16.4,2.6q3.7-.1,16.5-1.6,1.9-.3,1.6-1.4a1.488,1.488,0,0,0-1.4-1.2q-1.4.1-2.3.1-14.8,1.4-14.9,1.4-7.65.1-12.1-2.35-1.749-1-.35-2.2a61.279,61.279,0,0,0,10.3-11.5q3.7-5.7,4.25-10t1.3-11.15q.7-6.9-1.05-11.35a40.9,40.9,0,0,0-4.45-8.35q-3.2-4.2-4.8-6.5Q84.979,0,78.078,0a12.221,12.221,0,0,0-10.6,5.2,26.527,26.527,0,0,0-4.5,8.7q-4.4,16.2-3.9,25.8.5,9.9,5,15.2l7.45,8.8q1.75,2.1-.15,2.85a39.708,39.708,0,0,1-11.7,1.6q-9.4.2-12.4-.45a36.991,36.991,0,0,1-6.15-2.05,28.64,28.64,0,0,1-6.4-4.05,22.143,22.143,0,0,1-4.2-4.1q-.95-1.5-2.7-4.75-.549-1.1-1.25-2.75a17.4,17.4,0,0,1-.9-2.5q-.249-.9.7-1.1a6.1,6.1,0,0,0,4.6-2.4,7.859,7.859,0,0,0,1.35-4.5,27.165,27.165,0,0,0-.7-5.75q-.75-3.251-1.5-3.25a9.032,9.032,0,0,0-2.1.2,1.278,1.278,0,0,1-1.65-1.1q-.249-1.3.25-1.35a12.708,12.708,0,0,0,2.8-.75,3.12,3.12,0,0,0,2.1-2.5,9.239,9.239,0,0,0-.75-4.8q-1.1-3.7-1.8-5.6-1.2-3.3-4-2.8a27.87,27.87,0,0,0-7.1,1.8,4.81,4.81,0,0,1-1.3.4,1.793,1.793,0,0,1-1.1-.5m7,1.4a5.743,5.743,0,0,1,2.5-.2,3.163,3.163,0,0,1,2.1,2.5q.3,1.1.9,3.45.7,2.55-.15,3.85a2.854,2.854,0,0,1-1.85.95,14.889,14.889,0,0,1-2.8.4q-1.35.049-2.25-2.45-.949-2.5-1.55-4.5-.6-2.05-.3-2.6a1.38,1.38,0,0,1,.95-.7q.651-.2,2.45-.7m2.5,18.3a2.717,2.717,0,0,1,1.5.3q1,.5,1.1,1a21.178,21.178,0,0,1,1.6,6.5q.1,2.1-3.3,2.1-.8,0-1.3-2.1-.7-3.5-1.2-5.9a11,11,0,0,1,.7-1.1,1.882,1.882,0,0,1,.9-.8m-.4-4q.45,1.2-.45,1.7-1.5.4-1.65-.75-.15-.75.05-.95a1.923,1.923,0,0,1,.95-.5q.651-.25,1.1.5m61-22.8q11.4,13.2,10.4,21.25-.4,3.2-.9,8.15a47.939,47.939,0,0,1-1.3,7.8q-3.3,11.7-14.4,19.3a2.762,2.762,0,0,1-3.5.1q-14.2-10.3-14.2-24.1-.2-16.8,6.6-30a10.445,10.445,0,0,1,8.1-5.8q6.1-1,9.2,3.3"/></svg>