<svg overflow="visible" width="100%" height="100%" viewBox="0 0 71.856 115.848" xmlns="http://www.w3.org/2000/svg"><path d="M5.742,1.58a7.377,7.377,0,0,0-3.55.85Q-1.358,4.98.842,7.88a7.61,7.61,0,0,0,6,2.8,3.313,3.313,0,0,1,2.7,1.1,3.8,3.8,0,0,1,.5,2.5l-.9,14.6q-1.2,41.7-.9,75.4-4.5.1-4.8,5.65a3.726,3.726,0,0,0,1.9,3.45,7.085,7.085,0,0,0,4.1,1.1l23.05,1.2a127.512,127.512,0,0,0,22.5-.7q8.55-1.3,9.75-3.1a5.211,5.211,0,0,0,.4-4.5,4.475,4.475,0,0,0-1.9-2.6,6.9,6.9,0,0,0-1.25-.5q1.35-3.9,2.5-20.4,1.95-27.7,1.15-67a11.92,11.92,0,0,1,.6-4.4,5.766,5.766,0,0,1,3.2-3.2,3.9,3.9,0,0,0,2.4-3.9,4.565,4.565,0,0,0-3.1-3.7,19.448,19.448,0,0,0-7.6-1.6q-22.5-.2-33.7.1-2.6.1-21.7,1.4m-2.7,4.4a2.781,2.781,0,0,1,2.2-1.8q1-.1,3.15-.15l31.75-1.15h21.3a22.821,22.821,0,0,1,5.6,1.3,2.217,2.217,0,0,1,.9.7,1.226,1.226,0,0,1,.4,1,1.739,1.739,0,0,1-.5,1,2.217,2.217,0,0,1-.9.7,15.412,15.412,0,0,1-4.8.9q-18.1.5-27.1.5-16,.2-22.35-.5a63.273,63.273,0,0,1-8.25-1.3q-1.851-.55-1.4-1.2m10.7,6.2q.5-.5,4.2-.5,18.9.2,37.6-.3,6.1-.1,6.8.5t.5,6.8q-.1,3.3-1.4,12.3-.3,2.5-1.1,3t-3.3-.2a7.017,7.017,0,0,0-3.4-.4,10.331,10.331,0,0,1-5.2.3,38.163,38.163,0,0,1-5-1.2,27.237,27.237,0,0,0-12.7,0,46.173,46.173,0,0,1-8.2.4,82.723,82.723,0,0,0-8.3.3q-3.1-5.4-1.6-16.8.5-3.7,1.1-4.2m43.3,26.6a3.522,3.522,0,0,1-.8,1.4q-2.4,2.4-7.2,7.8-4.5,4.4-9,5.1a39.9,39.9,0,0,0-4.4.8,5.24,5.24,0,0,0-1.6.85q-1.4-1.2-7.35-5.25-6.55-4.5-11.75-13.3a53.99,53.99,0,0,1,9.7-.3,30.046,30.046,0,0,0,9.7-1.1q1.9-.6,7.3.3,2.1.5,6.1,1.5a12.779,12.779,0,0,0,6.4-.2q1.1-.4,3,1.2.2.2-.1,1.2m-3.6,9.4a122.407,122.407,0,0,0,8.9-11.4q1.4,33.3-2.2,57.8a37.535,37.535,0,0,0-4.8-21.4q-4.5-8-14.5-17a29.849,29.849,0,0,0,12.6-8m-2.1,23.8a30.88,30.88,0,0,1,4.3,9.5,40.767,40.767,0,0,1,1.3,8.7q.1,3,.3,8.9.2,3.8-.3,4.4-.6.6-4.2.7l-35.5.7q-2.9,0-3.6-.6-.6-.7-.5-3.6a19.139,19.139,0,0,1,.6-3.9q3.5-13.4,3.6-13.9a33.2,33.2,0,0,1,4.6-10.4q4.3-6.05,5.6-7.75a29.637,29.637,0,0,1,4.25-4.2,20.8,20.8,0,0,1,3.65-2.75,5.056,5.056,0,0,1,2.8.55q2.1.75,6.6,5.65a60.309,60.309,0,0,1,6.5,8m11.1,36.7q.6,2.1-1.8,2.4a105.724,105.724,0,0,1-23.8,2q-16-.7-22.4-.8-6.45-.15-7.5-1.85-1.1-1.7-.05-2.6a3.948,3.948,0,0,1,2.4-.9q1.35,0,13.45.25,12.049.3,24.5.1,12.4-.2,12.5-.2a3.4,3.4,0,0,1,2.7,1.6m-39.65-58.1q2.1,1.6,3.75,2.65,1.65.95,3.25,1.7a21.909,21.909,0,0,0,2.85,1.25,6.1,6.1,0,0,1-.65.55,40.828,40.828,0,0,0-13.65,16.45q-3.5,7.4-6.7,20.9-.9-4.8-.6-25.3.3-20.1,1.3-31,6.3,8.2,6.8,9a15.793,15.793,0,0,0,3.65,3.8"/></svg>