<svg overflow="visible" width="100%" height="100%" viewBox="0 0 115.766 103.4" xmlns="http://www.w3.org/2000/svg"><path d="M12.533,11.79q-3.5.7-4.2,1.9t.2,4.6l6.2,22.9q4.4,17.2,7.8,31.7.6,2.6.2,3.3a8.051,8.051,0,0,1-3.2,1.4,84.673,84.673,0,0,0-9,2.6q-4.8,1.9-6.4,3.6-4.5,4.9-4.1,9.3.4,4.9,7.1,7.1l1.5.4a41.747,41.747,0,0,0,10.4,2.2q3.6.3,10.7.6,2.71.079,9-.45t9.8-.85a207.1,207.1,0,0,0,26.5-4.5,117.806,117.806,0,0,0,25.3-9.3q10.9-5.7,14.5-14.9,1.4-3.4.7-5.3-.6-1.9-3.8-3.5-11.2-5.3-21.7-2.1-1.9.6-2.3.3-.4-.2-.7-2.3-2.6-17.5-3.1-20-.5-2.7-4.2-18.3a130.117,130.117,0,0,1-3.2-18.5q-.2-2.4-1.3-3.2-.9-.7-3.4-.4-11.4,1.5-13.7,2-15.2,3.1-45.6,9.7m-1,6.8q-.7-2.5-.3-3.1t3-1.1q9.2-1.9,27.6-6,16.4-3.6,27.8-5.1l1.9-.3a1.937,1.937,0,0,1,2.3,1.8l8.3,40.7q.3,1.3,1.6,11.3a3.412,3.412,0,0,1-2.2,3.9q-4.6,2.3-4.9,2.4-18.4,6.4-31.6,8a44.487,44.487,0,0,1-4.6.2q-2.64,0-4.8.1h-7.5a3.092,3.092,0,0,1-3.4-2.6l-13.2-50.2m72.8,44,1,6.8q.1,1,.4,3,.2,1.8-2.15,4.85a15.261,15.261,0,0,1-5.15,4.45,45.654,45.654,0,0,1-11.8,4.25,56.935,56.935,0,0,1-6.4,1,216.994,216.994,0,0,1-22.7.45l-2.5-.2q-5.773-.684-7.4-2.8a9.224,9.224,0,0,1-1.75-5.4q-.088-3.292.4-3.85a2.641,2.641,0,0,1,1.7-.7,20.677,20.677,0,0,1,3.75.05,84.294,84.294,0,0,0,22.2-1.9,216.361,216.361,0,0,0,21.5-6,27.438,27.438,0,0,0,4.3-1.8q1.5-.7,4.6-2.2m4.2,9.45a12.635,12.635,0,0,1,.9-5.55q1-1.9,5.6-2.1,8.9-.4,14.6,2.2,2.7,1.2,3.1,2.3t-.8,4.1q-3.2,7.4-11.8,12.1-20.4,10.9-50.8,14a98.179,98.179,0,0,1-18.75,1.55,99.591,99.591,0,0,1-13.65-.7,40.977,40.977,0,0,1-8.4-2.45,29.922,29.922,0,0,1-3.5-1.6,3.723,3.723,0,0,1-2.1-2.7,7.342,7.342,0,0,1,3.6-7.7,47.785,47.785,0,0,1,5.05-2.75,26.823,26.823,0,0,1,4.85-1.7q2.25-.465,3.8-.65a6.138,6.138,0,0,1,2.5.1q.9.3,1.6,4.3a5.866,5.866,0,0,0,5,4.2,66.473,66.473,0,0,0,10.8,1.4q7,.2,17.4-.3a44.864,44.864,0,0,0,6-.65q2.318-.456,5.55-1.25t6.55-1.95a22.494,22.494,0,0,0,6.3-3.45,24.676,24.676,0,0,0,4.8-4.7,9.539,9.539,0,0,0,1.8-6.05"/></svg>