<svg overflow="visible" width="100%" height="100%" viewBox="0 0 114.563 93.542" xmlns="http://www.w3.org/2000/svg"><path d="M51.913.208l-10,2.9q-7.4,2.4-13.9,10-2.4,2.9-4.8,3.05-2.4.1-3.2,1.2t-.55,4.2a21.035,21.035,0,0,1-1.45,8.05l-16.4,32.8q-2.2,4.5-1.4,6.2t5.5,2.8l16.4,3.9q.7.2,20.8,4.9a192.4,192.4,0,0,1,20.5,5.8l20.6,7a6.831,6.831,0,0,0,3.8.4q1.3-.4,2.3-2.6,10.8-21.4,14.4-29.3,1.5-3.3,4.5-11.5,2.8-7.4,4.7-11.4a10.848,10.848,0,0,0,.85-4.4q0-2.7-.05-5.3-.1-2.55-5.55-5.1-5.449-2.6-5.55-9.3-.1-7.4-6.9-11.2a16.494,16.494,0,0,0-4.9-2,11.951,11.951,0,0,0-5.1.1q-4.8,1.1-7,1.7-9.5,2.8-15,.4a83.263,83.263,0,0,0-7.9-3.1,9.39,9.39,0,0,0-4.7-.2m9.25,5.6q8.2,3.7,15.1,1.7t8.25-2.4q1.3-.4,2.85-.8a7.976,7.976,0,0,1,3.45-.05q1.9.351,5.65,3.05,3.7,2.65,3.9,5.5t.4,6.6q.15,3.7,6.75,6.7a6.632,6.632,0,0,1,3.7,3.8,9.552,9.552,0,0,1,.05,4.5q-.15.75-2.25.15-10.9-3.4-26.9-6.65-28.7-5.8-29.1-5.9l-22.6-4.85q-1.65-.349-.95-1.3a22.533,22.533,0,0,1,7.65-7.45,55.336,55.336,0,0,1,9.6-4.1q6.2-2.2,14.45,1.5m-38.35,16.4q-1.1-3.8,1.5-3.4l72.2,15.1q1,.2,10.9,3.25,1.9.651.85,1.7-2.9,3.2-4.35,4.65a25.55,25.55,0,0,1-5.6,4.2l-14.3,8a20.34,20.34,0,0,1-11.05,3.2q-5.25-.2-8.05-.35a44.538,44.538,0,0,1-8.25-1.6,57.975,57.975,0,0,1-12.05-4.95,29.1,29.1,0,0,1-12.9-13.2,46,46,0,0,0-3.1-5q-2.3-3.4-3.2-5.1a31.418,31.418,0,0,1-2.6-6.5m-2.9,8.75q1.6-3.3,2-2.45,9.3,14.7,9.7,15.3,3.8,6.7,14.4,12.3a43.654,43.654,0,0,0,14.7,4.85,55.751,55.751,0,0,0,14.2.6,33.7,33.7,0,0,0,11.75-3.7q5.751-3.049,13.35-7.85,1.6-1.1,4-3,1.451-1.2,2.75-2.35t1.2-.25a10.323,10.323,0,0,1-.65,2.3q-5.9,16.8-18.8,41-1.2,2.3-1.8,2.5a7.254,7.254,0,0,1-3.1-.6q-9.9-3.1-12.2-4a278.2,278.2,0,0,0-28-8.1q-19-4.3-28.4-6.8l-9.7-2.2q-3.5-.8-1.9-3.7,8.55-16.85,16.5-33.85m44,17.75q-.1-2.6-2.3-2.4a6.662,6.662,0,0,0-3.6,1.5q-1.7,1.3-1.6,2.6a4.049,4.049,0,0,0,1.2,2.7,3.225,3.225,0,0,0,2.7.8,3.436,3.436,0,0,0,2.6-1.7,5.506,5.506,0,0,0,1-3.5"/></svg>