<svg overflow="visible" width="100%" height="100%" viewBox="0 0 115.291 93.708" xmlns="http://www.w3.org/2000/svg"><path d="M100.056.008a2.016,2.016,0,0,0-1.25.95,4.783,4.783,0,0,0-.35,3.1q.251,2.25-1.85,5.85a38.316,38.316,0,0,1-4.5,6.1,5.394,5.394,0,0,1-6.1,1.7q-6.9-2.7-12,3.5a14.436,14.436,0,0,0-3,13.1q.5,1.9.1,2.4-.3.4-2.3.6l-1.5.1q-43.3,2-65,3.5-2.8.1-2.2,3.3a79.541,79.541,0,0,1,1.4,26.6,40.882,40.882,0,0,0,.3,10.1q1.2,10,1.2,10.1.3,3.6,3.6,2.4,9.1-.6,33.5-1,21.2-.4,33.5-1.6,19.6-2.3,24.55-1.9,4.95.351,6.65.45t7.2.35a2.753,2.753,0,0,0,2.9-2.45q.5-2.449.35-11.2t-.45-13.3q-.3-4.55-.45-10.55a50.325,50.325,0,0,0-1.55-11.4q-.6-3.2-4.2-3.4-19.6-.6-29.3-.6a9.033,9.033,0,0,1-4.4-.9q-1.5-.9-1.6-3.7a10.98,10.98,0,0,1,3.1-9.5q4.2-4.5,9.4-2.2,4.4,1.8,6.5-.7a59.661,59.661,0,0,0,6.8-8.5,21.291,21.291,0,0,0,1.8-5.65q.649-3.549.2-4.65t-1.05-1m12.35,62.1q.3,6.4.3,13.3a49.81,49.81,0,0,1-.45,8.75,3.364,3.364,0,0,1-2.9,2.35,15.766,15.766,0,0,1-4.85.15,63.117,63.117,0,0,0-6.9-.45q-7.6.1-20.8,1.2-14.8,1.3-20.8,1.5-.2,0-46.7,1.5a6.012,6.012,0,0,1-3.2-.4,6.036,6.036,0,0,1-1-2.9,97.081,97.081,0,0,1-.8-23.2,56.878,56.878,0,0,0-.3-16.3q-.6-2.8-.1-3.4.5-.5,3.5-.7,17.2-.8,25.8-1.3,42.2-2.7,73.9-2.1,3,0,3.4,2.8a150.332,150.332,0,0,1,1.9,19.2m-84.8-3.55q-4.7.8-6.9,1.1-2.2.251-5.75.75-3.6.45-3.6,1.8-.05,1.4,0,2.15a14.558,14.558,0,0,1,0,1.7q-.05.951.15,3.85a65.7,65.7,0,0,1,.3,7.4q.1,4,1.1,5.1.8,1,3.5.8,26.5-2.4,34-3.2,7.5-.849,9.1-.85,1.55-.05,3.15-.15a5.644,5.644,0,0,0,2.35-.55q.8-.45.65-2.15-.2-1.7-.45-4.35a48.13,48.13,0,0,1-.15-5.95q.05-3.3.35-6a7.044,7.044,0,0,0-.25-3.6q-.55-.9-1.05-.9a5.258,5.258,0,0,0-1.45,0q-.949.051-6.1.35-8.15.45-11.25.65-5.6.2-9.4.7-3.6.5-8.3,1.35m-2.4,3.65a9.86,9.86,0,0,1,2.9-.4q1.8,0,2.1.7,1.15,2.651-1.05,3.05a16.254,16.254,0,0,1-3.8.3,1.446,1.446,0,0,1-1.5-1.7,1.769,1.769,0,0,1,1.35-1.95m-7.7,4.4q-2.9.351-3.45-.2a2.041,2.041,0,0,1-.25-1.9q.3-1.3,3.05-1.55,2.8-.3,3.1.35a5.573,5.573,0,0,1,.4,1.8q.049,1.15-2.85,1.5m-3.2,3.2q.15-.7,1.8-1.15a13.118,13.118,0,0,1,4.8-.05q.7,0,.8,1,.2,1.6-.8,1.75-2.749.3-4.5.35t-2-.55a1.888,1.888,0,0,1-.1-1.35m.45,5.05a3.539,3.539,0,0,1-.05-1.3q.05-.35,1.55-.5,1.45-.15,3.4-.25,1.9-.15,1.6,1.1a2.894,2.894,0,0,1-.7,1.4,10.3,10.3,0,0,1-3,.4q-2.651.15-2.8-.85m9.35-4.85a2.392,2.392,0,0,1,.2-1.3q.25-.75,1.95-.75,1.7-.049,3-.15,1.249-.1,1.4.75a2.686,2.686,0,0,1-.2,1.35q-.25.5-1.6.75a12.2,12.2,0,0,1-2.95.05q-1.7-.15-1.8-.7m3.8,4.85q-3.049.2-3.4-1t1.25-1.3q1.55-.15,3.4-.2,1.8-.1,1.8,1.1t-3.05,1.4m17.8-13.6a1.912,1.912,0,0,1,1.5-1.95,11.076,11.076,0,0,1,2.45-.45,5.076,5.076,0,0,1,2.1.25,1.742,1.742,0,0,1,1.2,1.7,1.62,1.62,0,0,1-1.35,1.85,12.613,12.613,0,0,1-3.75.3q-2.25-.15-2.15-1.7m-3.2-.35a4.472,4.472,0,0,1-.2,2.1,2.167,2.167,0,0,1-1.9,1l-5.4.5q-1.6.051-1.1-1.8.5-1.9,1.3-2.2a15.929,15.929,0,0,1,4.8-1.1q2.3-.4,2.5,1.5m-5.5,9.2a3.4,3.4,0,0,1-2.55-.55,1.09,1.09,0,0,1-.3-1.35,1.456,1.456,0,0,1,1.2-.85,24.888,24.888,0,0,1,3.25-.35,10.489,10.489,0,0,1,3.15.1,1.661,1.661,0,0,1,1.1,1.15q.349.951.1,1.15a11.5,11.5,0,0,1-2.15.35q-1.9.2-3.8.35m2.1,4.05q-4.35.2-4.65-.2-.35-.4.05-1.1t2.65-.9a29.707,29.707,0,0,1,4.1-.2q1.849,0,2,1.1.15,1.05-4.15,1.3m9.55-4.1a6.965,6.965,0,0,1-1.95-.5,1.991,1.991,0,0,1-.2-2.85,3.775,3.775,0,0,1,1.8-.7,7.216,7.216,0,0,1,2.55-.05q1.4.2,1.55,1.95.1,1.7-1.15,2a7.508,7.508,0,0,1-2.6.15m-1.95,2.9q.349-1,2.3-1.1,1.9-.1,2.4-.1.4,0,.7,1t-2.75,1.1q-3.05.051-2.65-.9m-13.4,3.25q4.1-.35,7.75-.35,1.2-.049,1.15,1.3-.1,1.35-7.9,2.05-2.9.251-4.1.3-1.2.1-2.5.2-2.9.15-3.2-1.3-.3-1.5,1-1.6,1.3-.15,3.2-.2,1.05-.049,1.5-.1,1.3-.15,3.1-.3m26.9-17.75q1.5-.15,1.85.25a4.646,4.646,0,0,1,.2,2.35q-.1,1.95-1.9,2a25.367,25.367,0,0,1-2.9-.05q-1.151-.1-1.35-1.9t2.55-2.4a10.029,10.029,0,0,1,1.55-.25m-4.9,9.5a2.678,2.678,0,0,1,.85-2q.551-.5,3.8-.5a9.442,9.442,0,0,1,1.5.1q.6.051.65,1.4a9.744,9.744,0,0,1-.1,1.75q-.15.45-3.1.75a11.287,11.287,0,0,1-3.35.1q-.4-.2-.25-1.6m3.95,5.95q-2.9,0-3.15-1t1.2-1.5a6.5,6.5,0,0,1,3.35-.25q1.85.3,1.65,1.5-.2,1.15-3.05,1.25m-.4,1.5q2.449-.1,2.9.9t-2.3,1.3q-2.8.251-2.95-.9-.15-1.249,2.35-1.3m-10.8.15q1.6-.05,3-.15,1.3-.15,1.4,1.2.049,1.35-1.1,1.55-1.151.1-2.8.4-1.7.3-1.9-1.3-.251-1.65,1.4-1.7m-28.4,1.65q2.351-.15,2.5.55.45,1.8-.65,2.05-5.449.951-6.05.25a1.361,1.361,0,0,1-.25-1.45q.3-1.05,4.45-1.4m-2.75-27.45q.55-3.649-4.05-3.7-4.65-.05-4.65,3.45a5.188,5.188,0,0,0,.9,3.5q1,1.3,4.15.85,3.1-.45,3.65-4.1m-4.4-1.65q2.149-.3,2.25,1.6.049,1.851-2.05,2.15-2.1.251-2.2-1.6-.15-1.85,2-2.15m81.4,6.1a5.854,5.854,0,0,0-1,3.1,23.831,23.831,0,0,0-.2,3.6q-.6,11.2-.5,16.8-.1,4.4,4.7,4.2a39.686,39.686,0,0,0,7.9-1.2q2.8-.5,3.6-1.5.9-.9,1-3.7v-9.9q.5-8.4-.4-11.4-1.4-5.1-8.8-2.55l-3.6,1.25a5.341,5.341,0,0,0-2.7,1.3m6.75,1.85q.95-.349,1.1.95a1.53,1.53,0,0,1-.9,1.65q-.95.45-1.2-.1a1.991,1.991,0,0,1-.15-1.35q.1-.75,1.15-1.15m3.6,1.35q-1.15.251-1.2-.95a1.831,1.831,0,0,1,1.1-1.8q1.15-.549,1.2.95t-1.1,1.8m-2,4.75a1.058,1.058,0,0,1-.95,1.5q-1.3.3-1.3-.85a1.4,1.4,0,0,1,.95-1.55q.949-.3,1.3.9m2.65.35q-1.151.25-1.3-1a1.167,1.167,0,0,1,2.3-.4,1.206,1.206,0,0,1-1,1.4m-8.75-3.05q0-1.35,1.05-1.6.949-.249,1.15.8a1.305,1.305,0,0,1-.95,1.6q-1.25.5-1.25-.8m.45,4.55a1.051,1.051,0,0,1,.85-1.4,1.126,1.126,0,0,1,1.45.8q.349,1.05-.9,1.4-1.249.3-1.4-.8m2.6,4.8q.15,1.4-.6,1.55a4.9,4.9,0,0,1-1.45.15q-.5-.1-.7-1.35a1.183,1.183,0,0,1,1.1-1.55,1.3,1.3,0,0,1,1.65,1.2m5.95-2.9q1.2-.4,1.35,1.1.049,1.5-1.2,1.65-1.35.1-1.4-1.15a1.476,1.476,0,0,1,1.25-1.6m-2.25,1.85q.049,1.551-.75,1.85a1.856,1.856,0,0,1-1.2.15q-.4-.2-.6-1.45-.3-1.25,1.1-1.65,1.35-.45,1.45,1.1m.05,4.9a2.116,2.116,0,0,1,.2,1.55q-.2,1.05-1.65,1.35a1.224,1.224,0,0,1-1.65-1.2,1.441,1.441,0,0,1,1.3-1.85q1.451-.4,1.8.15m-14.95-15q0-7.35-5.3-5.65-2.5.8-10.75,3.55a1.641,1.641,0,0,0-1.25,2,30.082,30.082,0,0,1,.4,4.85,17.019,17.019,0,0,0,1.1,4.8,1.8,1.8,0,0,0,2.15,1.15q1.549-.249,5.5-1.05a11.177,11.177,0,0,0,6.05-3q2.1-2.2,2.1-6.65m-3.1-1.95a4.915,4.915,0,0,1,.35,2.25,11.135,11.135,0,0,1-.4,2.6,1.775,1.775,0,0,1-1.8,1.3q-1.4.051-1.8-2.95t.7-3.9q1.1-.9,1.85-.5a2.44,2.44,0,0,1,1.1,1.2m-9.6,3.65q-.649-1.9,1.9-2.35,1.4-.4,1.6,1.85.15,2.2-1.35,2.3-1.55.1-2.15-1.8"/></svg>