<svg overflow="visible" width="100%" height="100%" viewBox="0 0 75.407 116.218" xmlns="http://www.w3.org/2000/svg"><path d="M36.207,57.467l-1.7-1.8q-14.9-13.9-17.8-16.5a4.968,4.968,0,0,0-4-1.4,74.724,74.724,0,0,0-10,2.4q-2.2.6-2.6,1.7t.7,3q9.4,15.9,19.9,23.7,2.3,1.8,3.5,1.7,1.2,0,3.2-1.9,3.3-3.1,7.4-6.35.6-.45,1-.8a7.093,7.093,0,0,0-.3,2.05q0,1.2-.1,5l-.6,46.15q0,1.85,1.65,1.8t5.95-.3q4.25-.3,11.7-.3t14.6-.55q6-1,5.7-6.9l1-42.2a21.842,21.842,0,0,0-.4-5,5.979,5.979,0,0,0-3.5-3.8,1.5,1.5,0,0,1-.5-.8,2.665,2.665,0,0,1-.1-1.2,7.41,7.41,0,0,0,.2-5.05,23.868,23.868,0,0,0-4.15-5.8q-2.151-2.351-5.95-1.55-4.2.849-6.1,5.4-.7,2.55-.95-.3-.7-5.95-1.55-6.25-1.05-.4-4.9.05-3.4.3-5.6.6t-2.35,4.1q-.15,3.8.15,9.65.1,1.7.2,2.45a17.16,17.16,0,0,0-2.2.1,1.9,1.9,0,0,0-.4.15,11.826,11.826,0,0,0-1.1-1.25m-11.35-7.3q5.25,4.8,7.35,6.8,2.049,2,1.3,3.1a16.013,16.013,0,0,1-2.9,2.65q-2.1,1.6-3.8,3a4.288,4.288,0,0,1-2.7,1.25,4.19,4.19,0,0,1-2.4-1.1,72.452,72.452,0,0,1-18-21.1q-1-1.35.8-1.9,2.45-.7,5.8-1.8a6.427,6.427,0,0,1,6.4,1.6q2.9,2.7,8.15,7.5m13.45,14.9q0-2.4-.1-3.4l2.5-.3q21.7-1.5,25.7-1.7,4-.1,5.3,1.1,1.2,1.2,1.3,5.4-.1,8.5-.9,25.3l-.3,14.9q-.1,3.9-1.1,4.7-.8.9-4.7,1l-23.2.9q-1.6,0-3,.1a1.238,1.238,0,0,1-1.45-1.35q-.051-1.45-.05-1.75v-44.9m21.1-19.3a5.21,5.21,0,0,1,5.7.4,7.632,7.632,0,0,1,3.1,5.8q.6,5-4.6,5.3l-19.7,1q-1,.1-1.15-1.75-.2-1.95-.3-5.8-.15-3.85.85-4.95,1-1,7.6-1.8.7,3.9,1.5,10,.2,1.1.75,1.35a1.566,1.566,0,0,0,1.1,0q.549-.2,1.25-2.1a17.675,17.675,0,0,0,.9-3.35,4.922,4.922,0,0,1,3-4.1M43.507.067a1.453,1.453,0,0,0-1.2,1.3q-.4,3.3-5.4,15.7-3.8,9.4-1.6,16a11.157,11.157,0,0,0,2.7,4.7,6.613,6.613,0,0,0,5,1.4q4.1-.1,5.9-5,3-7.6,3-11.35a32.378,32.378,0,0,0-2.5-11.65q-3.351-7.551-3.9-9.35t-1.05-1.8a2.845,2.845,0,0,0-.95.05m1.55,17q-.6-1.4-1.55-.35a5.055,5.055,0,0,0-1.35,2.4q-.351,1.4-1.2,5a67.919,67.919,0,0,0-1.15,11.75q-4.2-5.8-1.7-14.2,4.2-9.7,6.1-14.2a22.165,22.165,0,0,1,4.1,10.5,39.556,39.556,0,0,1-.3,10.7,14.124,14.124,0,0,1-.4,2.05,14.541,14.541,0,0,1-2.7,4.95,31.031,31.031,0,0,0,1.35-4.9,22.246,22.246,0,0,0,.5-6.4,43.423,43.423,0,0,0-.65-4.35,21.768,21.768,0,0,0-1.05-2.95m-1.5,16.7q-1.251,1.4-1.4-2.5a19.239,19.239,0,0,1,.8-6.8q.95-2.9,1.4,2.5.45,5.349-.8,6.8"/></svg>