<svg overflow="visible" width="100%" height="100%" viewBox="0 0 114.174 45.896" xmlns="http://www.w3.org/2000/svg"><path d="M52.85,30.292a1.2,1.2,0,0,0,1,1,7.959,7.959,0,0,0,2.35.2l2.4-.1a1.541,1.541,0,0,0,1.45-1.65,1.332,1.332,0,0,0-1.45-1.5,17.719,17.719,0,0,0-2.65,0,4.586,4.586,0,0,0-2.2.65q-1,.6-.9,1.4m26.8,12.95q-.249.7,1.3,1.35,1.55.6,3.25,1.2,1.15.4,1.35-.75.15-1.149-.2-1.5a8.821,8.821,0,0,0-2.5-1.15q-2.1-.75-2.5-.3a3.055,3.055,0,0,0-.7,1.15m-4.35-7.25a4.715,4.715,0,0,0-1.7-.3q-10.4-.5-15.6-.6-9,0-15,2.9a14.7,14.7,0,0,0-2.1,1.2,3.439,3.439,0,0,0-1.55,1.75q-.3.951,1.45.65a9.519,9.519,0,0,0,3.1-1.1,27.267,27.267,0,0,1,9.5-2.3q2.5-.1,9.9.1l10.4.3a2.9,2.9,0,0,0,1.7-.4,1.611,1.611,0,0,0,.65-1.15.992.992,0,0,0-.75-1.05m26.6-8.5q.049-.949-2-1H92q-14.55-.05-16.65.85-2.149.851-2.15,1.55a2.9,2.9,0,0,0-.05.95q.049.55,1.4.95a8.078,8.078,0,0,0,4.15-.4,33.054,33.054,0,0,1,12.7-1.1,68.274,68.274,0,0,0,7,.2q2.65-.1,3.05-.55a2.489,2.489,0,0,0,.45-1.45m-1.6,11.45a2.692,2.692,0,0,0,.7-.65q.2-.35-.2-.85t-3.4-.65q-3-.2-6.95-.2t-4.15,1.1a1.282,1.282,0,0,0,.4,1.15,1.822,1.822,0,0,0,1.35.5q.851,0,4.55.05,3.7,0,5.5-.05a5.723,5.723,0,0,0,2.2-.4m-77.4,2.6a.982.982,0,0,0-1.1.9,12.353,12.353,0,0,0-.25,1.7q-.05.7,1.15.85,1.15.15,2.65.35,1.5.15,1.9-.55a5.814,5.814,0,0,0,.45-1.1q.3-1.2-.35-1.55a4,4,0,0,0-1.7-.4q-1.05-.1-1.45-.15a11.884,11.884,0,0,0-1.3-.05m-5.3-4.45a16.465,16.465,0,0,0-2.6,0,3.054,3.054,0,0,0-2.3,1.1q-.75.951,1.45,1.15l7.15.55a1.259,1.259,0,0,0,1.2-.4,2.009,2.009,0,0,0,.35-.8,1.591,1.591,0,0,0-.35-.85,1.278,1.278,0,0,0-1-.55l-3.9-.2m6.5-2.45a32.223,32.223,0,0,0,4.7-.6q2.5-.549,12.8-2.85t9.5-3.7q-.9-1.449-4.8-.35-3.9,1.05-7.3,1.65-7.5,1.9-11.2,2.6-1.9.351-3.7.5a30.053,30.053,0,0,1-8.05-.35,11.734,11.734,0,0,0-5.95.25,4.774,4.774,0,0,0-2.9,2.3q-.1.5.8,1a3.954,3.954,0,0,0,2.9-.1,22.366,22.366,0,0,1,6.5-.45q4.5.15,6.7.1M43.8,2.492q-1.249,3.551-2.5,4.15-1.249.551-4.9-1.35-3.7-1.95-4.6-1.3-.949.651-1.15,3.05t-.85,3a4.759,4.759,0,0,1-2.45.7q-1.751.15-4.25.5a9.462,9.462,0,0,0-3.45.8q-.95.5,1.1,4.15t1.55,4.4q-.5.7-2.7.8-2.8.3-9.4.6-6.1.3-9.4.7a1.336,1.336,0,0,0-.8,1.1,1.477,1.477,0,0,0,.9,1.3,2.981,2.981,0,0,0,1.7.3q3.5-.5,12.2-.8,8.4-.349,8.7-.35a9.459,9.459,0,0,1,.95-.1q.7-.049,2.55-.25,19.5-1.2,55.9-3.1,1.3,0,3.9-.2,1.85-.049,6.25-.35,4.35-.35,10.55-.65,5.3-.2,7.8-.4,2.45-.2,2.75-1.45t-3.25-1.15q-3.6.1-15.5.8-8.3.45-10.9.65-2.65.2-2.15-.45a14.466,14.466,0,0,1,1.2-1.45q.7-.8,1.15-1.4t.9-1.3q.45-.8.2-.95a2.192,2.192,0,0,0-1.1-.25,6.612,6.612,0,0,0-1.8.05,31.623,31.623,0,0,0-3.4,1.05q-1.1.3-.85-.85a34.215,34.215,0,0,1,.95-3.65q.65-2.25-.35-2.55-1-.349-2.9.75a35.742,35.742,0,0,1-3.2,1.6q-.9.5-1.45-.95-.6-1.5-1.4-3.2-.849-1.749-2.85-.25a12.729,12.729,0,0,1-3.25,1.95q-1.2.351-2.1-1.85a10.693,10.693,0,0,0-1.25-2.45q-.4-.349-2.7,1.35t-3.6,1.6a6.442,6.442,0,0,1-3-1.45Q49.8,2.042,47.4.492q-2.4-1.6-3.6,2m-11,18.2q5.6-7.2,15.8-7.8,10.2-.5,16.8,6.1l-32.6,1.7"/></svg>