<svg overflow="visible" width="100%" height="100%" viewBox="0 0 115.762 106.08" xmlns="http://www.w3.org/2000/svg"><path d="M45.456,2.228q-3.5.6-3.5,2.8a15.053,15.053,0,0,0,0,2.6,2.524,2.524,0,0,0,1.8,2.1q.4.1.9.9a3.124,3.124,0,0,1,.4,1.3l-.2,22.4q0,1.9-4.651,2.8-4.7.85-11.349,1.5-6.7.65-6.7-2.2a22.056,22.056,0,0,0-.3-3.95,1.36,1.36,0,0,0-1.3-1.15q-1-.049-1,1.45-.051,1.45-.05,3.1t-.75,2.05a11.009,11.009,0,0,1-3.4.6,72.776,72.776,0,0,0-8.651.8q-4.8.651-4.9,1.55.05.85.35,3.75l1.7,13.7a33.787,33.787,0,0,1,.5,6.1,13.111,13.111,0,0,1-1.9,6.1,24.115,24.115,0,0,0-1.9,4.65,12.938,12.938,0,0,0-.45,5.45q.35,2.85,5.3,6.4t12.1-.9q7.149-4.5,7.05-9,0-2.5-3.3-10.5,2.9-.3,7.4-.3h6.65a15.4,15.4,0,0,1,1.55.05q.4,0,4.25.1,3.849.051,6.65-.05,2.3.2,2.55,11.75.2,11.5,6.5,18.1,6.249,6.6,10.35,8.2a27.177,27.177,0,0,0,9.4,1.6,69.269,69.269,0,0,0,13.6-1.6,48.445,48.445,0,0,0,12.95-4.15,24.765,24.765,0,0,0,6.849-5.1,25.837,25.837,0,0,0,3.75-5.8,13.605,13.605,0,0,0,1.551-4.5q.5-7.2.5-10.9a26.41,26.41,0,0,0-1.7-10.6q-1.3-2.9-7.1-12.5a14.089,14.089,0,0,1-2.4-7.3q0-3.1-.8-4-.9-.9-4.1-1.2a2.9,2.9,0,0,1-2.4-1,4.283,4.283,0,0,1-.5-2.4q.1-8.1.1-12.1,0-6.551-.25-11.3-.15-3,.75-3.35a4.368,4.368,0,0,0,.7-.65q1.1-1.3.3-5-.6-2.9-3.4-2.6-8,.7-24.8,1.1-16.3.3-24.7,1.1m8.7,19.2q0-7.2-.05-10.7a10.628,10.628,0,0,0-.05-1.2l37-.55q2.2-.05,2.4.75a80.9,80.9,0,0,1,.351,9.85q-.051,8.051.05,15.15a28.343,28.343,0,0,0-4.05-.05q-1.45.05-2.25.05a2.6,2.6,0,0,1-2.2-.8,3.2,3.2,0,0,1-.5-2.3l.1-7.4a4.623,4.623,0,0,0-2.149-4.35q-1.7-1.1-2.9-1.8-2.25-1-2.3.05-.651,9-.75,10.4-.3,3.1-.8,3.7-.6.8-3.7,1.2-3.3.5-11.4.8-3.5.1-5,.15a2.134,2.134,0,0,1-2.049-.9,2.637,2.637,0,0,1-.3-1.45q.05-3,.55-10.6m-6-7.6q0-3.1.6-3.7.549-.549,3.15-.6-.1,1-.15,3.1l-.8,18.6q.051,5.05.651,6,.05.55,3.7.5a10.942,10.942,0,0,1,5.6,1,7.2,7.2,0,0,0,3.4,1.05q1.5-.05,9.4.2,7.851.251,9.951-1.05a7.872,7.872,0,0,1,3.049-1.4q1.051-.1,1.75-.1h2.75a21.782,21.782,0,0,0,2.651-.1v.9a2.292,2.292,0,0,0,2.7,2.6q.249,0,3.649.25,2.751.15.551,1.25l-1.35.7q-1.2.75-1.25,1-.2.5,1.4,1.4a3.569,3.569,0,0,1,1.8,2.4,10.4,10.4,0,0,1,.1,2.3q-.1.8-1.25,0a27.922,27.922,0,0,0-10.049-5.65,20.23,20.23,0,0,0-9.5-.65q-4.15.85-15.5,4.25t-12.9,8.1q-1.6,4.7-3.1,6.15-1.551,1.4-6.4,1.3-4.9-.1-5.5-.15-.55-.05-2.551-.2a53.5,53.5,0,0,0-6.049.05q-2.6,0-2.3-2.4l.3-6.4a3.475,3.475,0,0,0-.6-2.4,3.448,3.448,0,0,0-2.3-.4l-15.2,1.3q-2.8.3-2.851-1.95a62.068,62.068,0,0,0-.75-6.4q-.2-1.15-.3-1.95-.351-1.249,1.2-1.3,6.3-.2,17.6,0a95.208,95.208,0,0,0,19.1-1.8q3.5-.8,4.4-1.6.9-1,1-4.4l.2-19.8m20.4-7.2q-14.2.2-23.2-.2l.1-1.2q9.8-1,23-1.5,7.7-.3,23.1-.7a23.962,23.962,0,0,0,2.5-.2q1.3.1,1.4,1.8t-1.3,1.9q-1.8-.1-2.5-.1-3.8,0-23.1.2m12.7,15.2a9.712,9.712,0,0,1,1.3,5.2q.1,1.8-.1,5.65-.1,2.151-1.649,1.95t-1.6-1.05a28.107,28.107,0,0,1,.351-3.9,51.027,51.027,0,0,0,.3-7.55q-.15-2.2,1.4-.3m7.949,25.3a22.912,22.912,0,0,1,5.8,2.3q2.649,1.5,8.9,5.85a34.481,34.481,0,0,1,3.85,3,14.842,14.842,0,0,1,2.4,2.75,20.423,20.423,0,0,1,2.8,9.35,70.923,70.923,0,0,1-.2,11.25q-.4,4.751-5.1,10.75-4.751,5.95-14.55,8.1t-14.3,2.2a22.562,22.562,0,0,1-8.05-1.25,27.616,27.616,0,0,1-17.9-25.5q-.3-10.8.8-14.6,2-7.3,9.9-9.6a80.081,80.081,0,0,1,15.8-4.3q6.75-1.05,9.849-.3m-76.25,12.7q.8-1.151.951.45.15,1.55.25,2.85-1.3,0-1.3-.2-.5-2.4.1-3.1m-4.149-4.1a2.655,2.655,0,0,1,1.5,2.35q0,1.551-.05,3.2t-1.9,1.55q-1.851-.1-1.2-6.7.2-1.2,1.65-.4m7.8,5.55a10.89,10.89,0,0,1,0-4.65q.45-2.1,4.55-1.2a2.688,2.688,0,0,1,1.8,1.8,5.541,5.541,0,0,1,.2,2.4,7.471,7.471,0,0,1-.5,3.2,8.016,8.016,0,0,1-3.05.7,2.429,2.429,0,0,1-3-2.25m-6.4,5.4a8.3,8.3,0,0,1,4.4-.2q2.1.45,6.15,5.85,4,5.4-3,11.1-5.3,4.4-9.4,2.45t-5.2-3.4a5.771,5.771,0,0,1-.8-4.2,14.189,14.189,0,0,1,1.1-4.45q.8-1.7,1.451-2.9a9.69,9.69,0,0,1,1.85-2.35,8.582,8.582,0,0,1,3.449-1.9m6.951,8.85a4.506,4.506,0,0,0-1.55-2.55,4.382,4.382,0,0,0-2.85-1.3q-1.5-.049-3.65,2t-1.9,4.05a3.808,3.808,0,0,0,1.8,2.95,6.127,6.127,0,0,0,3.25.95q1.7,0,3.4-2.35,1.7-2.4,1.5-3.75m-7.2,1.45a2.787,2.787,0,0,1,2.7-2.6q1.85-.2,1.75,2.15a2.356,2.356,0,0,1-2.4,2.5q-2.3.15-2.051-2.05m88.051-13.05q-3.4-5.65-11.051-6.1h-.5q-9.449,0-14.7,3.3a16.98,16.98,0,0,0-7.3,10q-2,6.65-.5,10.5a17.214,17.214,0,0,0,4.3,6.4,18.582,18.582,0,0,0,7.65,3.95,30.688,30.688,0,0,0,17.8-.3q3.55-1.249,6-5.6a19.292,19.292,0,0,0,2-10.45,25.369,25.369,0,0,0-3.7-11.7m-10.8-3.45a12.854,12.854,0,0,1,7.351,3.6,15.14,15.14,0,0,1,4.649,7.8,16.524,16.524,0,0,1-.849,9.95q-1.2,4.7-2.95,6.55-1.8,1.8-8.9,2.45t-11.9-1.7q-4.8-2.4-5.85-3.6a16.2,16.2,0,0,1-2.3-4.2q-1.249-3,.051-9.25,1.3-6.3,6.1-8.65a29.578,29.578,0,0,1,7.8-2.9,24.192,24.192,0,0,1,6.8-.05"/></svg>