<svg overflow="visible" width="100%" height="100%" viewBox="0 0 115.928 76.666" xmlns="http://www.w3.org/2000/svg"><path d="M115.192,9.821a2.665,2.665,0,0,0-2.6-.1q-6.6,2-8.7,9.3-.1.6-.4,1.8-.3,1.1-.7,1.2-3.1,1.4-4.7,2a8.641,8.641,0,0,1-4.5.5,22.574,22.574,0,0,0-11.3.5,84.3,84.3,0,0,0-10.5,4.1,7.81,7.81,0,0,1-4.6,1q-.4-.051-2.4-.6-2.2-.55-1.7-2.1a39.46,39.46,0,0,0,1.6-4.5q.4-2.9-4.1-2.4-7.9.8-11.9,1-2.4.2-2.8-.3t.1-3a2.915,2.915,0,0,0-.3-2.4,2.891,2.891,0,0,0-2.2-.6h-8.9q-3.2,0-3.6-.5-.4-.6.5-3.5,1.4-3.6,2.1-5.5,1.1-3.4-.2-5.1-.9-1.1-3.45-.25t-4.95,1.8a8.294,8.294,0,0,0-4.1,3.451,11.7,11.7,0,0,0-1.85,3.65,30.249,30.249,0,0,0-.4,4.35q-.2,3.249-.1,6.1a3.751,3.751,0,0,1-1.1,2.949,30.638,30.638,0,0,1-2.85,1.75q-3.6,3.2-3.1,6.4a4.178,4.178,0,0,1-.7,3.3,7.528,7.528,0,0,1-2.8,1.9,42.061,42.061,0,0,0-6.8,3.9q-2.1,1.5-.5,4.3a8.626,8.626,0,0,0,3.05,2.949q1.95,1.15,3.5,1.951a3.669,3.669,0,0,0,2.05.65q.45-.2,1.1-1.6t3.4-2.1a48.388,48.388,0,0,1,6.4-1.25,1.334,1.334,0,0,1,.95.2,1.757,1.757,0,0,1,.85,1.1,1.564,1.564,0,0,1-.6,1.7,41.779,41.779,0,0,1-3.95,2.8q-3.1,1.95-4.65,1.25-1.6-.7-.8,1.85a11.167,11.167,0,0,0,3.05,4.8q2.25,2.2,3.9,2a11.529,11.529,0,0,0,4.3-2.05q1.1-.651,1.5.55a13.911,13.911,0,0,0,2.35,4.5,21.818,21.818,0,0,0,3.95,4.149q1.751,1.251,2.2,1.551a8.1,8.1,0,0,0,1.35.6q.95.35,1.7-.8a17.1,17.1,0,0,0,.95-1.8q.649-1.35,1.55-.7,3.45,2.8,5.4.7.15-.251,2.5-5.15.8-1.7,1.3.4,2.5,10.8,4.5,12.55,2.7,2.4,15.3,1.3,3.2-.1,3.9-1.1.6-1-.4-4.1a5.631,5.631,0,0,1,1.1-5.9q3.2-3.1,4.5-4.6a9.546,9.546,0,0,1,7.6-2.2,8.818,8.818,0,0,1,6.4,4.4l3.7,6.4a3.806,3.806,0,0,0,4,2.3,9.068,9.068,0,0,0,5-3,8,8,0,0,0,2.3-5.3,43.82,43.82,0,0,0-.9-8.8q-1.3-8.4-2.3-12.6a34.208,34.208,0,0,0-4.8-11.9q-.7-.9-.6-1.3a2.867,2.867,0,0,1,.2-.951,1.21,1.21,0,0,1,.85-.8q.65-.2,4.05-1.5a18.342,18.342,0,0,1,5.2-1.451,6.46,6.46,0,0,0,6.3-3.7,26.881,26.881,0,0,0,2-7.9,2.609,2.609,0,0,0-.7-2.5m-3.7,3.4q2.65-1.7,1.05,2.449a9.128,9.128,0,0,1-2.55,3.851,12.758,12.758,0,0,1-3,1.75q-1.5.649.2-2.851a12.07,12.07,0,0,1,4.3-5.2m-36.5,17.85a22.624,22.624,0,0,1,5.75-2.3,66.233,66.233,0,0,1,7.95-1.95q3.3-.7,5.5,2.6a68.742,68.742,0,0,1,3.6,6.4,22.238,22.238,0,0,1,2.2,7.1q.2,2,1.8,10a53.98,53.98,0,0,1,1.2,10,5.076,5.076,0,0,1-2.5,4.5q-2.6,2-4-.6-2.7-4.2-3.8-6.4a7.19,7.19,0,0,0-4.4-4.2,15.969,15.969,0,0,0-5.9-.7,11.183,11.183,0,0,0-8.7,4.3q-1.3,1.6-4.4,4.8a6.247,6.247,0,0,0-1,6q.6,1.7-.1,2.4a3.613,3.613,0,0,1-2.2.6l-8.4.2q-3.2,0-4.1-2.1-1.4-3.5-1.8-4.9-.45-1.95-1.25-4.9-.851-2.949,5,.75t5.8-1.3q-.051-5.051.4-5.55t3.35-.7a8.34,8.34,0,0,0,4.2-1.05,4.636,4.636,0,0,0,2.65-3.45q.35-2.3-2.25-4-3.2-1.6-4.6-2.5-3.7-2.6,1.1-5.4,6.3-3.8,6.95-5.25a5.925,5.925,0,0,1,1.95-2.4m-48-26.75q.851-.25,2.3-.651,2-.6,1.3,1.2-3.25,10.8-2.7,11.65.7,1.3,13.3,1.3a1.5,1.5,0,0,1,1.7,1.8q-.1,4,.5,4.7.7.6,4.7.3l13.2-1-1.2,3.4q-1,2.7-.4,3.8.6,1,3.5,1.6l3.6.851q2.55.5.75,1.45-1.85.9-4.5,2.5a5,5,0,0,0-2.65,4.5q0,3,3.5,5,.8.4,2.9,1.4,1.8,1,2,2.1.5,1.5-3.4,1.75a38.645,38.645,0,0,0-4.8.4q-2.4.349-1.7,6.25.4,3.1-2.5,1.6-3.5-2.2-4.4-2.6-3.4-2-4.6-1.7-1.1.4-2.7,3.9-1,2.349-1.75,4.1-.75,1.7-2.8-.75-2.051-2.5-3.05-2.649-1.249-.251-2.2,3.2-.45,2.1-2,.949a47.52,47.52,0,0,1-3.05-3.7,5.77,5.77,0,0,1-.55-7.051,21.026,21.026,0,0,1,4.75-5.549q1.849-1.551,4.95-3.951,3.251-2.4.8-4.349-2.3-1.851-4.9-3.6-1.4-.9-.4-1.5a30.91,30.91,0,0,0,3.8-2.551q2.5-2.1-.5-3.7-.2-.1-5.3-3.3t-7.4-3.1a7.033,7.033,0,0,1-2.85-.2,1.842,1.842,0,0,1-.6-1.4q-.15-1.1-.25-4.2-.3-7.2,2.3-10.1a8.536,8.536,0,0,1,3.3-2.1m-.55,21.2a12.357,12.357,0,0,1,3.75,1.6,30.288,30.288,0,0,1,3.05,2.4q2,1.6.5,2.45-4.9,2.649-3.45,4,1.151,1.1,5.3,4.55,2.1,1.4,0,2.8a41.949,41.949,0,0,0-7.55,7,44.013,44.013,0,0,1-5.65,5.849q-2.3,1.851-3.3,1.8a4.51,4.51,0,0,1-2-.7,7.147,7.147,0,0,1-1.6-1.351,2.053,2.053,0,0,1-.7-1.2l5.45-2.5a8.161,8.161,0,0,0,5.05-6.5,3.826,3.826,0,0,0-.8-3,2.192,2.192,0,0,0-2.4-1,97.964,97.964,0,0,0-11.9,3q-3.9,1.4-6.1-.7-2-2,.3-3.1a55.3,55.3,0,0,0,6.4-3.2,6.083,6.083,0,0,0,3.1-5.9,6.886,6.886,0,0,1,2.4-5.4,7.124,7.124,0,0,1,5.2-1.649,29.178,29.178,0,0,1,4.95.75m-9.55,5.8q-.9,1-.3,1.55.6.5,1.8-.15t1.3-1.3q.1-.65-.9-.849a1.834,1.834,0,0,0-1.9.75"/></svg>