<svg overflow="visible" width="100%" height="100%" viewBox="0 0 111.694 116.568" xmlns="http://www.w3.org/2000/svg"><path d="M20.725,45.16v-.85q-.3-1.449-.8-1.45-9.4-.1-18.8,0c-.067,0-.233.134-.5.4q-1,1.1-.4,1.8a2.4,2.4,0,0,0,.8.6h8.9q8.3.1,9.9,0a1.376,1.376,0,0,0,.9-.5m82.95,6.1a28.263,28.263,0,0,0-.05-7.5,101.279,101.279,0,0,0-3.9-13.7,33.446,33.446,0,0,0-8.4-12.1,24.668,24.668,0,0,0-9.7-5.2q-9.5-2.7-10.2-2.7a1.39,1.39,0,0,1-1.15-.7,1.777,1.777,0,0,1,.15-1.75,3.965,3.965,0,0,0,.3-2.3q-.2-1.149-2.85-3.8-2.6-2.649-6.5-.65-3.95,2-1.7,6.2.85,1.6.55,2-.2.4-2.5,1a46.94,46.94,0,0,0-23.3,13.3,4.093,4.093,0,0,1-2.2,1.4,3.585,3.585,0,0,1-2.5-.4q-12.3-5.8-18.4-8.7l-4.1-1.8a8.835,8.835,0,0,0-1.6-.6,1.061,1.061,0,0,0-1.2.9q-.2.6,1.8,2.4,7,3.3,21.1,9.9,2.3,1,2.1,1.7a11.928,11.928,0,0,1-1.6,4.2,3.645,3.645,0,0,1-4,1.5q-10.7-2-16.1-2.7a29.327,29.327,0,0,0-3.1-.9q-1.8-.3-2.1,1.2a1.615,1.615,0,0,0,1.5,2.2,26.57,26.57,0,0,0,3.3.3q4.7,1,14.2,2.3,3.2.5,3.6,1.1t-.3,3.8a36.607,36.607,0,0,0-.9,7.3q0,.8-.2,2.6a23.312,23.312,0,0,0,.15,3.7,31.375,31.375,0,0,0-3.75.8,51.894,51.894,0,0,0-7.8,2.4,4.459,4.459,0,0,0-1.9,1.7,5.536,5.536,0,0,0-1.1,2.4q-.4,2.2,3,3.4.9.3,5.3,1.2,5.2.8,7.9,1,3.5.1,3.2,3.8-.4,10.5,2.7,16.9a31.814,31.814,0,0,0,7.6,11.1q3.2,3.2,10,9.2,10.5,10.1,24.9,7.3,13.7-2.7,21.8-14.8a29.357,29.357,0,0,1,2.2-2.8,5.224,5.224,0,0,1,3.4-1.4,12.26,12.26,0,0,0,8.5-6.6,15.661,15.661,0,0,0,1.5-10.8q-.7-4.3-3.3-5.6-2.7-1.3-6.9.5a2.614,2.614,0,0,1-1.5.4q-.6-.1-1.15-3-.5-2.6-1.35-5.5l2.1-.4q.7-.1,1.6-.2a2.424,2.424,0,0,0,1.1-.3,3.236,3.236,0,0,0,.45-1.2,29.223,29.223,0,0,0,.35-3.05q.45-5,.95-9.95m-2.95-8.3a15.606,15.606,0,0,1,.2,7.8q-.1,1.3-.5,3.7-.1,1.7-.85,8.15-4.15.951-6.45,1.25a190.607,190.607,0,0,1-41,2.1q-12.4-.4-18.6-.7a144.044,144.044,0,0,1-18.5-2.1q-1.6-.9-2.5-1.3a7.824,7.824,0,0,1,4.25-2.55q2.6-.7,6.75-1.7,2.951-.7,2.9-1.15.551-.6.5-5.3a12.5,12.5,0,0,1-.1-2.6,34.968,34.968,0,0,1,3.8-15.4q1.3-2.9,2.3-3.3,1-.5,4.1.6.8.2.8.6-5.8,7.4-6.4,8.3a10.03,10.03,0,0,0-.6,9.7,13.109,13.109,0,0,0,5.85,6.45q4.05,2.2,10.6.25,6.45-2,7.65-2.55a19.9,19.9,0,0,0,3.2-1.85,7.726,7.726,0,0,0,3.7-5.4,15.089,15.089,0,0,0-2.5-11.4,14.144,14.144,0,0,0-8.2-5.9,8.607,8.607,0,0,0-4.3-.1,11.353,11.353,0,0,1-5.6,0,31.462,31.462,0,0,1-5.4-1.9,15.091,15.091,0,0,1,4.7-5.2q.6-.5,5.7-3.4,14.9-9,28.9-4a26.488,26.488,0,0,0,5.2,1.6q5,1.1,10.4,6.3,6.6,6.4,7.7,13.4.7,2.6,2.3,7.6m-6.1,23.85q.2,1.4,1,5.4,2.5,12.45,2.5,14.45a29.723,29.723,0,0,1-.6,6.5,24.464,24.464,0,0,1-3.15,6,29.523,29.523,0,0,1-4.45,4.9,57.463,57.463,0,0,1-7.6,5.5,25.083,25.083,0,0,1-16.6,3.9,24.691,24.691,0,0,1-14.6-6.7q-5.9-5.4-8.8-8.2a38.06,38.06,0,0,1-7.4-9.5,22.817,22.817,0,0,1-2.8-9.3q-.3-6.3-.7-9.5-.2-2.2,2.5-2.2,22.7,1,32.7.9a182.4,182.4,0,0,0,28-2.15m6,14.85a7.229,7.229,0,0,1,.7-3.7,3.707,3.707,0,0,1,3.8-1.8,4.233,4.233,0,0,1,3.2,2.9,10.51,10.51,0,0,1-.8,9.1,10.787,10.787,0,0,1-7.1,5.8q0-8.3.2-12.3M62.475,7.51q-2.25-1.95-.45-4,1.751-2.049,4.6.2,2.8,2.25.45,4a3.393,3.393,0,0,1-4.6-.2M43.525,35.56q2.5-.2,4.3,2.5a14.054,14.054,0,0,1,2.1,7.8,3.77,3.77,0,0,1-2,3.2,8.8,8.8,0,0,1-4.9,1.3,8.261,8.261,0,0,1-5.3-2.3q-2.8-2.3-2.7-4.5a7.5,7.5,0,0,1,2.7-5.3,10.606,10.606,0,0,1,5.8-2.7m7.85,13.85a3.1,3.1,0,0,0,1.1-1.4,12.762,12.762,0,0,0-.95-8.65,73.7,73.7,0,0,0-5.1-7.7q7.5-2.2,11.8,6.7,3.251,6.85-.85,9.9l-.1.1a7.5,7.5,0,0,1-2.3,1.7l-3.7,1.7a49.961,49.961,0,0,1-7.2,2.1q-6.35,1.6-8.35-3.1,4.2,1,5.25,1.1.949.1,4.15.15a15.623,15.623,0,0,0,3.7-1.05,11.621,11.621,0,0,0,2.55-1.55m-9.25-6.55a1.494,1.494,0,0,0,.95-1.55q0-1.25-1.35-.9a1.413,1.413,0,0,0-1.1,1.55q.05.951,1.5.9m28.1-15.1a92.124,92.124,0,0,0-5.4-10.6.907.907,0,0,0-1.2-.3,2.572,2.572,0,0,0-.6.6q-.3.4-.2.5a46.036,46.036,0,0,0,2.1,5.1q6.1,11.6,6,21.2a23.948,23.948,0,0,1-.4,3.4q0,2.1,1.4,2.6.6,0,1.7-1.3a2.008,2.008,0,0,0,.1-.9,66.688,66.688,0,0,0-.5-10.4,29.15,29.15,0,0,0-3-9.9m5-6.2q-.2-.2-.8-.1a1.534,1.534,0,0,0-.8.3,1.687,1.687,0,0,0,.3,2.1q.6.5,1.9,1.5a32.269,32.269,0,0,1,10.5,12.2,92.107,92.107,0,0,1,5.8,15.2,5.7,5.7,0,0,1-.2,3.9q-.9,2.7,1.5,2.8,2.3.2,2.1-3.1-4.2-24.7-20.3-34.8"/></svg>