<svg overflow="visible" width="100%" height="100%" viewBox="0 0 114.336 90.663" xmlns="http://www.w3.org/2000/svg"><path d="M78.228,6.413q-10.1,5.4-14.8,6.4a15.893,15.893,0,0,1-14.9-3.8q-6.6-5.6-10.9-7.549-4.35-1.95-6.5-1.3-2.149.6-4.95,1.4a34.785,34.785,0,0,0-4.05,1.25,19.793,19.793,0,0,0-7.8,4.9,10.575,10.575,0,0,1-4.5,2.4q-5.6,1.3-7.55,1.851t-2.2,1.4a1.22,1.22,0,0,0,.3,1.351q.551.5,2.25.049t6.9-1.349a13.072,13.072,0,0,0,7.2-3.9,16.364,16.364,0,0,1,6.8-4.3q.05,0,1.85-.5t4.8-1.3a5.672,5.672,0,0,1,4.95.6l16.2,10.1q2.749,1.751.95,2.75a47.382,47.382,0,0,0-4.95,3.1q-3.1,2.049-4.9,3.35-3.2,2-.7,4.7a13.294,13.294,0,0,0,5.2,3.2q3.1,1.1,9.5,2.8,1.2.3,1.4,1t-.7,1.5a61.607,61.607,0,0,1-9.9,8.2q-1,.7-10.9,6.9a26.511,26.511,0,0,0-3.5,2.5,3.856,3.856,0,0,0-1.2,3.8,4.456,4.456,0,0,0,2.6,3,18.614,18.614,0,0,0,4.2,1.2q1.9.4,10.7,1.9,7.5,1.5,2.5,7.6a60.762,60.762,0,0,1-9,8.5,71.78,71.78,0,0,1-7.3,5.3q-4.25,2.7-3.8,4.4.15.849.9.85t5.1-3.35q4.3-3.4,8.3-6.1a39.6,39.6,0,0,0,9.1-9q2.5-3.4,1.2-6.7-1.3-3.2-5.4-4-5.5-1-10.2-1.849-4.751-.9-5.5-2.151-.8-1.3,6.55-5.8t7.65-4.8a53.43,53.43,0,0,0,10.4-9.1,3.759,3.759,0,0,0,1.1-3.6,4.46,4.46,0,0,0-2.8-2.8q-2-.7-6.1-1.9a56.885,56.885,0,0,1-6.2-1.9q-2.9-1.1-.2-3.1,1.95-1.1,3.2-1.8,1.751-1.052,1.7.35a4.632,4.632,0,0,0,1.2,3.75,9.257,9.257,0,0,0,4.6,2.1q2.3.5,8.6,2.5,2.1.7,2.4,1.4.4.7-.4,2.5-2.4,5.1-3.3,6.7a22.045,22.045,0,0,1-4.7,5.8q-4.2,3.8-4.8,5.5-1,2.8,4.8,3.4,2.95.4,7.2,1.25t6.9,1.45q2.65.549,3.95,3.75a6.543,6.543,0,0,1-.75,6.349q-2.1,3.1-9.3,7.8-7.1,4.8-8.65,6.75a8.908,8.908,0,0,0-1.8,2.7,1.254,1.254,0,0,0,.45,1.35q1.249.75,2.9-1.4,1.6-2.2,10.2-7.9,7.4-5,9.7-9.9a8.092,8.092,0,0,0,.1-7.7,9.427,9.427,0,0,0-6.3-4.9q-7.5-1.6-15.15-2.8-1.249-.2-.55-.849a30.478,30.478,0,0,0,6.7-7.151,84.783,84.783,0,0,0,4.8-8.8q1.7-3.5,1-5.2-.8-1.7-4.5-2.8-7-2-10.4-3.2-3.6-1.2-1-3.4,4-3.4,4.2-3.6a15.52,15.52,0,0,1,4.7-2.5,50.789,50.789,0,0,0,8.5-3.3q2.8-1.3,8.2-4,7-3.3,12-2,8.2,2.2,10.3,2.9,5.5,2,7.7,4.2a11.944,11.944,0,0,0,3.05,2.549q.9.351,1.25-.4a2.079,2.079,0,0,0-.2-2.15,11.652,11.652,0,0,0-1.7-1.5,23.134,23.134,0,0,0-7.3-4.5q-5.4-1.9-8.1-3a19.257,19.257,0,0,0-9.5-1.2,32.4,32.4,0,0,0-9.1,2.8"/></svg>