<svg overflow="visible" width="100%" height="100%" viewBox="0 0 90.659 110.017" xmlns="http://www.w3.org/2000/svg"><path d="M88.842,50.851q-.1-1.7-3.3-13.75a52.523,52.523,0,0,0-12.3-22q-9.1-9.9-16.65-12.6A41.378,41.378,0,0,0,42.042,0a28.479,28.479,0,0,0-5.7.65,16.53,16.53,0,0,0-5,1.65q-2.95,1.849-5.7,3.9-2.8,2-9.85,10.95a82.589,82.589,0,0,0-11.75,20.4,55.28,55.28,0,0,0-3.95,24.2,70.356,70.356,0,0,0,6.3,25.35q5.6,12.551,15.8,18.2,10.2,5.6,26.85,4.55a52.031,52.031,0,0,0,30.2-12.15q13.6-11.149,11-30.2-.5-8.7-.6-9.5-.7-5.5-.8-7.15M78.992,34q7.7,13.451,7.45,43.1a24.046,24.046,0,0,1-6.3,13.6,72.413,72.413,0,0,1-11.8,10,45.4,45.4,0,0,1-17.9,5.7h-4a34.265,34.265,0,0,1-16.1-2.9,43.1,43.1,0,0,1-12.55-8.2A45.586,45.586,0,0,1,6.442,76.8a46.057,46.057,0,0,1-2.2-16.5,104.871,104.871,0,0,1,1.9-16.8q1.5-8.1,8.1-16.8,8.2-9.5,12-14.4a41.579,41.579,0,0,1,3.95-4.25q2.55-2.45,8.05-3.15a36.211,36.211,0,0,1,10.4,0,21.631,21.631,0,0,1,11,4.35,69.39,69.39,0,0,1,8.05,7.4Q71.241,20.5,78.992,34M45.442,84q-.051-.65-1.75-.6-1.751.05-3.5,2.65a4.3,4.3,0,0,0-.45,4.85q1.25,2.25,5.3,3.15,4.05.949.45,1.95a17.207,17.207,0,0,0-4,1.35,2,2,0,0,0-.45,1.2,1.2,1.2,0,0,0,.3,1.2q.45.4,3.25.25,2.749-.2,5.5-3.1,2.7-2.9-.1-4.2a20.6,20.6,0,0,0-4.25-1.65,5.633,5.633,0,0,1-2.55-1.3q-1.05-.95.65-3.05,1.65-2.1,1.6-2.7m1.65-43.6q2.55-.5-.25-4-2.85-3.551-5-3.9-2.2-.4-5.25,4.45-3.1,4.849,2.05,4.05,1.8-.15,2.25.3.349.45.75,4.5l1.2,17.7a3.923,3.923,0,0,0,.5,1.4.954.954,0,0,0,1.1.6q.95-.4,1.1-2l-1.1-15.7q-.5-6.4-.2-6.65a11.254,11.254,0,0,1,2.85-.75m-6.8-1.85q-1.251,0-.85-.55t1.3-1.7q.849-1.151,1.4-.75a17.8,17.8,0,0,1,1.75,1.6q1.149,1.15-.6,1.25-1.8.1-3,.15M10.142,51.5q-1.1.551-1.15,2.8a16.659,16.659,0,0,0,.35,4q.7,3.5,1.6,7.5.9,3.949,2.8,2.85a5.769,5.769,0,0,0,2.35-2.15,32.664,32.664,0,0,0,1.2-5.3q.7-4.249,4.5,1.35,3.8,5.55,5.25,3.15a6.615,6.615,0,0,0,.9-4.8q-.7-4-1.5-7.2-.851-3.2-1.7-3.45a.959.959,0,0,0-1.25.55,4.7,4.7,0,0,0-.05,2.9q.4,2.1,1.7,7.8.649,2.2-.9.3-5.3-6.1-7-5.85-1.751.2-3,5.5t-1.9-5.5a16.093,16.093,0,0,0-.8-3.45q-.5-1.35-1.4-1m37.3-39.35q-.45-.7-1-.6-1.3,0-1.1,6.8t-.3,6.35q-5.3-5-7.5-6.8a2.3,2.3,0,0,0-2.2-.6,1.665,1.665,0,0,0-1.3,1.4q-.5,4-.6,7.25-.1,3.2.3,3.75t1.4.2q.8-.25.8-1.6l.1-7.6q-.251-1.45,6.7,5.9,4.5,3.5,4.9-1.1.2-3.9.25-8.25,0-4.4-.45-5.1m29.5,33.35a1.414,1.414,0,0,0-1.7-1.4,67.62,67.62,0,0,0-8.2,3.6q-4.6,2.7-2.3,6.9.8,1.3,2.75,4.85,1.9,3.5,3.95,2.95,1.9-.7,8.8-4.3a1.156,1.156,0,0,0,.55-1.35q-.3-.75-.75-.85a1.779,1.779,0,0,0-1,.1l-5,2.3q-2.2,1.1-2.8.7-.6-.3-2-3.2-.15-.5,2.95-1.5,3.1-1.05,2.35-2a2.4,2.4,0,0,0-2.45-.75,21.244,21.244,0,0,0-2.45.85q-2.2,1.15-2.6,0-.2-1.1,1.4-2.2,1.2-.7,4-2,2.6-1.2,3.5-1.7t1-1"/></svg>