<svg overflow="visible" width="100%" height="100%" viewBox="0 0 115.497 51.894" xmlns="http://www.w3.org/2000/svg"><path d="M4.217,1.422q-3.2-.3-3.8.3-.5.5-.4,3.9.4,9.1,1.6,26.5.2,7.5,3.7,7.9a4.057,4.057,0,0,1,3.9,4q.3,4.6,3.35,6.4a10.4,10.4,0,0,0,6.7,1.4q3.7-.4,4.65-3.2a17.841,17.841,0,0,0,.2-7.7q23.5-.5,70.4-.2,2.45,0,2.2,2.3a8.6,8.6,0,0,0,1.3,5.2,6.747,6.747,0,0,0,4.95,3.45,10.384,10.384,0,0,0,6.1-.7,5.319,5.319,0,0,0,3.3-3.5,10.547,10.547,0,0,0-.2-5.15q-.75-2.9-.05-4.1,3.9-2.4,3.3-8.7-.8-8.9-2.6-19-2.1-11-13.8-10.5-31.6,1.7-47.4,2.2a381.293,381.293,0,0,1-47.4-.8m-1.1,3.5q.4-.5,3.1-.4,28.6.5,34.4.5,19.6,0,34.5-1.3,3.3-.1,3.9.3.7.5,1.4,3.5a9.051,9.051,0,0,0,3.5,5.3,21.489,21.489,0,0,0,5.6,2.9,25.587,25.587,0,0,0,9.2,1.5q2.4,0,9.4-.7,3-.3,3.4,2.4,1.4,8.3,1.4,9.4.2,6.4-3.5,7.5a61.566,61.566,0,0,1-12.4,1.5q-12.6.6-12.7.6-2.7.2-3.1-.4-.5-.4-.4-3.1a40.635,40.635,0,0,1,.3-4.2,35,35,0,0,0,.4-4.1,31.33,31.33,0,0,0-.3-4.5,4.737,4.737,0,0,0-2.4-3.5,6.772,6.772,0,0,0-4.7-.6,16.862,16.862,0,0,0-4.5,1.1,3.617,3.617,0,0,0-1.55,1.8,4.271,4.271,0,0,0-.45,2.2,95.489,95.489,0,0,0,.9,10.8q.3,3.5-.3,4.1-.5.6-4,.6l-38.7-.3q-5-.6-7.6-.8a21.8,21.8,0,0,0-7.5.6q-3.7.5-4.8-.5-1.2-.9-1.4-4.6l-1.4-24.6q-.1-2.6.3-3m9.45,41.05a3.785,3.785,0,0,1-.05-3.35q.35-1.95,3.4-2.3t4.3,1.55a5.676,5.676,0,0,1,1.1,3.4,12.749,12.749,0,0,1-.3,2.25q-.2.75-1.75,1.3a5.352,5.352,0,0,1-3.75-.45,5.658,5.658,0,0,1-2.95-2.4m94.85-40.35a8.34,8.34,0,0,1,2.9,5.7q.2,2.5-2.1,2.5-6.2.4-9.3.3a25.906,25.906,0,0,1-9.3-1.5q-5.2-1.9-6.6-6-.5-1.7-.1-2.3a3.083,3.083,0,0,1,2.2-.9l8.4-.4q6.2-.3,7.4-.2a10.836,10.836,0,0,1,6.5,2.8m-37.2,18.2q-.3-2.3,1.7-2.4,1.2-.2,1.5.5a5.73,5.73,0,0,1,.3,1.75q1.249,13.1-.1,13.95a1.6,1.6,0,0,1-1.35.1q-.8.45-2.05-13.9m8.8,6.1q.049,8.4-2.45,7.8-.55.249-.6-7.75-.051-8.05,1.45-8.25,1.5-.251,1.6,8.2m19.9,13.1q-.5-2.8,4.6-2.8,3.7,0,5.4,1.5a4.6,4.6,0,0,1,1.4,4.05,3.624,3.624,0,0,1-3.1,3.35,6.015,6.015,0,0,1-5.35-1.35,7.572,7.572,0,0,1-2.95-4.75m-81.6-22.8h5.9l37.3-.7a5.914,5.914,0,0,0,3.5-1,6.67,6.67,0,0,0,1.4-3.3q.6-3.9-3.2-5.6a20.276,20.276,0,0,0-7.1-1.4q-.2,0-20.3-.6-8.6-.5-12.9-.6a86.859,86.859,0,0,0-12.9.8q-2.5.5-1.5,2.9a25.214,25.214,0,0,0,4.45,7.15,7.123,7.123,0,0,0,5.35,2.35m-1.1-3.25a4.411,4.411,0,0,1-1.7-.95q-2.8-2.9-3-4.6-.3-2.2,4-1.7l42.1,1.8a6.668,6.668,0,0,1,3.4.6q1.2.9,1,3.15-.1.949-2.1,1.35-1,.2-14.75.5-13.8.3-20.7.35t-8.25-.5"/></svg>