<svg overflow="visible" width="100%" height="100%" viewBox="0 0 116.063 89.004" xmlns="http://www.w3.org/2000/svg"><path d="M40.743,0q-1.1.2-3.6,3-11.8,13-20.1,22.7a91.052,91.052,0,0,0-6.6,9.3,3.928,3.928,0,0,0-.7,2.75q.238,1.164-1.2,1.9-1.434.788-2.9,1.5-1.407.765-3.85,2.35t-1.55,4.75q.9,3.153,2.8,9.05,1.4,4.3,2.1,7.1a4.781,4.781,0,0,0,4.5,3.8q7.093.395,13.45.3,2.6-.05,2.95-.9.062-.793-4.1-10.05-4.1-9.252-7.4-15.65a4.181,4.181,0,0,1-.6-2.2,5.251,5.251,0,0,1,1.1-1.9q8.4-9.1,12.6-13.7a85.826,85.826,0,0,0,11.5-15.2q.4.4,2.2,2.4a25.624,25.624,0,0,1,1.8,2.3q2.4,3.4,6.8,10.4,2.8,3.8,3.1,4.2a17.723,17.723,0,0,0,3.7,3.5q4.5,3.2,5.5,6.9,1.1,3.7-1.2,8.6-2.4,5.1-1,9.4a9.628,9.628,0,0,1,.4,4.1q-.1,1.5-.4,4.3a1.483,1.483,0,0,1-1,1.5,11.4,11.4,0,0,0-4.05,2.9,18.059,18.059,0,0,0-3.15,4.9,9.13,9.13,0,0,0-.2,6.55,8.9,8.9,0,0,0,4.85,5.45,12.786,12.786,0,0,0,8.25,1.1,9.826,9.826,0,0,0,5.9-3.4,11.118,11.118,0,0,0,3.1-6.4,13.187,13.187,0,0,0,.1-1.8q.076-1.484,2.25-1.45c.209.027.425.043.65.05h12.6q2.906-.139,1.9,1.25-.27.591-.5,1.15a5.6,5.6,0,0,0,.3,5.2q4.7,7,12.4,7,6.195.006,9.3-4.55a18.842,18.842,0,0,0,3.3-10.15,7.647,7.647,0,0,0-.25-2.7,4.445,4.445,0,0,0-1.35-2q-1.023-.909-2.1-1.75h-.05a3.146,3.146,0,0,1-1.75-3.2q.006-1,0-2.35a48.863,48.863,0,0,0-.3-5.4q-.3-3.3-1.2-4.1-1-1-4.3-1.2a3.08,3.08,0,0,1-2.9-1.9q-5.6-10.5-8.2-15.9-3.2-7.5-5-11.7,2.7-.3,4.9-.5,2.251-.2,2.45-1a1.3,1.3,0,0,0-.05-1.2,1.569,1.569,0,0,0-.9-.6,5.618,5.618,0,0,0-1.7-.2q-11.3-.1-16.9.2-2.7.2-10.3,1.5a1.492,1.492,0,0,0-1.4,1.1,1.185,1.185,0,0,0,.8,1.5,3.421,3.421,0,0,0,1.4.2q.7.2.5,1.2-.1.3-1.1,3-3.1-3.6-3.3-3.8-7.6-10.1-11.5-14.9a44.337,44.337,0,0,0-6.7-6.5q-2.9-2.2-4.1-2.1m-.95,5.25a1.79,1.79,0,0,1,.65-1.6q.834-.9,3.6,1.25a26.779,26.779,0,0,1,4.4,4.2q3.7,4.6,15.1,19.6.2.2,1.9,3.1a8.083,8.083,0,0,1-1,2.1q-.6.4-1.6-.4-5.1-4.3-5.6-4.8a24.954,24.954,0,0,1-4.7-5.7q-2.7-4.6-5.4-8.3-4.6-5.6-6.8-8.4a2.665,2.665,0,0,1-.55-1.05M70.043,24.4q0-1.8,1.4-1.9,9.195-.606,11.7-.65a6.837,6.837,0,0,1,2.95.3q.433.333,1.25,3.55t4.9,11.3q2.3,4.5,7,13.5.81,1.381,0,1.5-11.7,1.1-13.5,1.1-2.2,0-20.3-.8-2.3-.1-2.6-.5-.3-.5.4-2.6,1.5-5.5,2.3-8.2a53.329,53.329,0,0,1,3.1-8.1q1.2-2.2,1.4-8.5m-6,31.5q.7-.6,4.1-.5,22.6.6,33.8-.8l2.4-.2q3.4-.3,3.5,3.2,0,2.505.2,4.75.126,1.055.25,1.9.13,1.524-1.3,1.35h-.35q-4.2.1-9.3,3.7-.811.585-1.55,1.15-.9.678-4.05.85-1.77-.006-4.35.05-6.739.15-11.7.3a3.738,3.738,0,0,1-3.2-1,8.948,8.948,0,0,0-3.8-3.35,14.827,14.827,0,0,0-4.4-1.3q-2.1-.243-1.65-3.9l.2-1.9q.5-3.7,1.2-4.3M7.943,43.2q.762-.458,1.45-.9,1.959-1.263,2.45,0,2.034,4.641,5.2,11.5l5.1,11.45q.621,1.309-1.1,1.05-8.1-.9-9.2-.9a6.16,6.16,0,0,1-3-.8,4.661,4.661,0,0,1-1.6-2.7,125.429,125.429,0,0,0-3.7-12.2q-1-2.8,1.2-4.2l3.2-2.3m93.45,26.7a11.623,11.623,0,0,1,3-.95,5.9,5.9,0,0,1,3.75.3,18.95,18.95,0,0,1,3.65,2.3q2.031,1.611.45,7.95-1.594,6.4-9.55,6.8-4.45.1-8.65-4.9a3.752,3.752,0,0,1,0-5.1,56.406,56.406,0,0,1,5.4-5q.105-.1.55-.5.49-.354,1.4-.9m-42.9-.55a6.235,6.235,0,0,1,3.3-.6,40.191,40.191,0,0,1,4.9.55q2.657.5,3.7,3.8a12.634,12.634,0,0,1,.85,4.8,5.98,5.98,0,0,1-2.2,3.9,12.119,12.119,0,0,1-6,3,10.088,10.088,0,0,1-6.3-1.5,5.934,5.934,0,0,1-3.2-3.7,7.111,7.111,0,0,1,.95-5,33.589,33.589,0,0,1,2-3.25,7.829,7.829,0,0,1,2-2"/></svg>