<svg overflow="visible" width="100%" height="100%" viewBox="0 0 115.415 85.895" xmlns="http://www.w3.org/2000/svg"><path d="M99.715,54.045l-.3.1a26.385,26.385,0,0,0-11.95,7.3,41.835,41.835,0,0,0-7.25,11.3q-4.451,11.2-1.6,11.8,1.85.2,1.9-.65,0-.849.1-3.5a13.656,13.656,0,0,1,2.1-6.25q4.4-6.8,6.9-9.9,4.35-5.449,9.8-6.35a.144.144,0,0,1,.1-.05l-4.1,3.2q-6.851,6.6-6.1,12.95.75,6.4,1.3,6.6a3.815,3.815,0,0,0,1.1.15,1.071,1.071,0,0,0,1.2-.8,5.079,5.079,0,0,0-.2-1.8,14.4,14.4,0,0,1,0-8.9,14.392,14.392,0,0,1,5.7-6.9l1-.7q4.65-3.3,5.9-4.1a25.782,25.782,0,0,1,7.7-3.3,3.249,3.249,0,0,0,1.7-.9,2.274,2.274,0,0,0,.7-1.35.785.785,0,0,0-.6-.8q-.6-.2-5.6.7a86.645,86.645,0,0,0-9.5,2.15m-2.2-53.6a1.2,1.2,0,0,0-1.5-.3,277.577,277.577,0,0,0-31.1,33.8,30.3,30.3,0,0,0-4.35,7.45q-1.65,4-3.7,9.65a33.811,33.811,0,0,0-2.15,10.9q-.1,5.2,0,11.65.1,2.5-.95.05a48.811,48.811,0,0,1-3.35-7.9,44.189,44.189,0,0,0-2.95-7.05,57.924,57.924,0,0,0-4.15-6.4,28.538,28.538,0,0,0-4.7-5.25q-2.5-2-3.25-2.65a2.748,2.748,0,0,0-1.4-.7,1.283,1.283,0,0,0-1.1.45,1.015,1.015,0,0,0-.3,1,1.691,1.691,0,0,0,.35.7,15.594,15.594,0,0,0,2.8,2.7,31.912,31.912,0,0,1,10.2,13.2q3.3,7.8,4.1,10.1a42.984,42.984,0,0,1,2.2,10.6,2.472,2.472,0,0,0,1.2,2.2,7.526,7.526,0,0,0,2.3.4,1.519,1.519,0,0,0,1.7-.8,5.947,5.947,0,0,0,.2-1.9v-15.4a52.135,52.135,0,0,1,10.2-31.9,130.113,130.113,0,0,1,8.4-10.6q6.1-6.8,10-11t2.15-.95q-1.8,3.251-7.2,11.5-5.45,8.25-7.95,12.65a93.533,93.533,0,0,0-6.3,14.4q-1.7,5-4.9,15a33.914,33.914,0,0,0-1.1,15.1,7.816,7.816,0,0,0,.6,2.1q.6,1.1,1.4,1.05a1.131,1.131,0,0,0,1-1,6.066,6.066,0,0,0,0-2.2q-.2-1.35-.4-3.25a24.442,24.442,0,0,1,.7-9.5,53.539,53.539,0,0,1,3.2-8.7l-.2,22.9a6.557,6.557,0,0,0,.35,2.9,1.408,1.408,0,0,0,1,.45q.65,0,1.25-1.2.6-1.249,3.3.65,2.1,1.4,2.4-1.5v-4.5a23.368,23.368,0,0,1,1.9-9.6,48.032,48.032,0,0,1,5.5-9.6q2-2.8,6.9-8.7a14.087,14.087,0,0,1,4-2.9,9.058,9.058,0,0,0,1.5-.8q.6-.5,0-1.4-.2-.4-1.3-.6a2.235,2.235,0,0,0-1.6.3,33.637,33.637,0,0,0-6.7,5.8q-4.8,6.1-6.4,8.4a34.006,34.006,0,0,0-4.3,8.05q-1,3.15-1.6,2.75-1.05-.45.95-8.1,1.95-7.7,8.65-19.5t9.5-16q2.8-4.2,1.1-4.9-1-.5-2.4.9l-8.4,7.5a51.167,51.167,0,0,0-7.2,8.1,130.158,130.158,0,0,1,10.6-18.7q9.5-14.2,11.9-18.5a1.656,1.656,0,0,0-.6-1.4m-12.8,33.1q-13.4,20.5-14.8,38.8-1.2-22.8,14.8-38.8m-83.45,12.3a18.116,18.116,0,0,1,3.45,1.7q16,9.3,25.4,21.7l8.5,12.1q1.6,2.2,2.2,1.8a1.428,1.428,0,0,0,.9-1.6,8.664,8.664,0,0,0-.9-1.7q-11.8-22.4-38.5-37-2.5-1.5-2.3.6t1.25,2.4m9.85-6a18.123,18.123,0,0,0-2.85-2.15q-1.151-.7-1.65.45-.649,1.3,0,1.85.6.551,1.8,1.55,4,3.2,12,9.7,14.3,11,21.4,24.8a26.588,26.588,0,0,1,1.3,2.4q.9,1.751,1.95,1.35a1.131,1.131,0,0,0,.65-1.55q-6.6-16.3-23.3-29-7.9-6.5-11.3-9.4"/></svg>