<svg overflow="visible" width="100%" height="100%" viewBox="0 0 114.977 66.824" xmlns="http://www.w3.org/2000/svg"><path d="M92.9,8.512a4.381,4.381,0,0,1-2.1,1.2,8.707,8.707,0,0,0-2.1,1.3,16.441,16.441,0,0,0-3.05,3.05q-1.549,1.85-5.05,1.85-5.4-.2-7.9,3.3a5,5,0,0,1-5,2.1q-4.6-.6-8.3,3.5a8.962,8.962,0,0,0-1.5,3.3q-.7,2.2-1.5,2.6a5.823,5.823,0,0,1-3.3-.2,11.812,11.812,0,0,0-3.7-.7q-7.249.75-9.45,8.05-.4,1.149-1.4.6a5.683,5.683,0,0,1-.75-.45,7.3,7.3,0,0,0-5.5-1.2,21.455,21.455,0,0,0-5.3,1.8q-4.8,2.3-4.5,7.1a1.794,1.794,0,0,1-.7,1.25,1.7,1.7,0,0,1-1.2.45,131.645,131.645,0,0,0-18.15,4q-2.45.6-2.45,2.5.1,1.9,2.9,1.7a69.135,69.135,0,0,1,10.7.3,21.308,21.308,0,0,1,9.8,3.8,45.546,45.546,0,0,0,16.8,6.6,31.886,31.886,0,0,0,17.7-1.8q4.4-1.6,11.15-4.6a59.9,59.9,0,0,0,12.85-7.95,91.245,91.245,0,0,0,12.05-11.85,122.957,122.957,0,0,0,9.8-13,86.438,86.438,0,0,0,6.65-12.5q2.8-7.6,4.3-11.3a2.7,2.7,0,0,0-.1-2.6,1.977,1.977,0,0,0-2.5-.5,15.517,15.517,0,0,1-3.7,1.3q-6.6,1.3-8.4,1.9a14.723,14.723,0,0,0-7.1,5.1m5.8.7q-1.3-.15-.9-.9a8.308,8.308,0,0,1,2.1-1.5q.4-.2,2.9-1a15.6,15.6,0,0,1-1.6,2.8,3.243,3.243,0,0,1-2.5.6m5.9-.9a8.267,8.267,0,0,1,5.1-3.6q1.85-.5,1,1.55-.95,2.349-2.3,6.05a44.18,44.18,0,0,1-3.5,7.3q-8.1,12.6-11.1,16.4-2,2.5-4.5,5.2t-6.6,6.45a57.592,57.592,0,0,1-12.3,8.45,110.674,110.674,0,0,1-13.4,5.6q-14.1,5.2-28.7-2.6a48.864,48.864,0,0,0-16.3-6.4q-2.55-.4,0-1a43.919,43.919,0,0,1,16.1-.6,42.146,42.146,0,0,0,20-1.7q1.1-.3,5.2-1.8,3.1-1.1,5.1-1.6a66.544,66.544,0,0,0,15.6-6.4,128.69,128.69,0,0,0,14-9.4,44.009,44.009,0,0,0,5.4-5.3q.9-1.1,4.7-6,1.4-1.8,6.5-10.6m-7.65,7.15q-.95,1.55-5.65,8.25l-2.4-4.5a5.82,5.82,0,0,1-1.2-2.9q0-1,1.7-2.3a41.715,41.715,0,0,1,3.9-2.4,3.587,3.587,0,0,1,4.2.7,1.108,1.108,0,0,1,.4.95,5.3,5.3,0,0,1-.95,2.2M83.9,18.912a5.518,5.518,0,0,1,3.7,4.5,5.346,5.346,0,0,1-2.3,5.3,90.269,90.269,0,0,1-7.9,5.2q1.1-6.9-2.7-10.6-.3-.2-.1-1.1a3.343,3.343,0,0,1,.6-1.3,6.456,6.456,0,0,1,4.1-2.1,8.087,8.087,0,0,1,4.6.1m-12.35,6.3q3.2,1.449,3.35,6t-2.6,6.15a40.345,40.345,0,0,1-5.5,2.55q-1.95.8-3.3,1.35-1.249.45-1.55-.95a9.823,9.823,0,0,0-1.65-4.3q-1.4-2-1.2-2.9a16.609,16.609,0,0,1,2.1-6,6.581,6.581,0,0,1,4.2-2.7,9.245,9.245,0,0,1,6.15.8M58.7,40.112q-.1,3.2-4.85,4.6l-8.65,2.7q-.95.35-1.1-.2l-.3-2.9a12.636,12.636,0,0,0-.6-2.8q-1.8-4.9,3-7.7,4.7-2.7,8.6.3,4.1,2.8,3.9,6m-32.8,6.5a5.377,5.377,0,0,1,1-4.4,6.465,6.465,0,0,1,4.8-2.4,10.766,10.766,0,0,1,6,1.4,11.054,11.054,0,0,1,2.7,1.8,3.525,3.525,0,0,1,.9,3.2q-.3,2.1-2.1,2.2l-6.2.4q-6.3,0-7.1-2.2"/></svg>