<svg overflow="visible" width="100%" height="100%" viewBox="0 0 116.313 99.669" xmlns="http://www.w3.org/2000/svg"><path d="M108.953,10.569a38.678,38.678,0,0,0-4.3-5.2q-6.1-7.4-16.6-4.6-21.8,6.5-25.9,18.7-.5,2,.2,2.6a3.123,3.123,0,0,1,1.2,2.5,6.89,6.89,0,0,1-.4,2.5,20.011,20.011,0,0,0,.2,12.2q1.1,3.2-.9,7.1a101.9,101.9,0,0,0-6.9,16.4,10.013,10.013,0,0,0,.4,7.6,21.624,21.624,0,0,0,4.8,6.3q.45.6-.8.8a67.084,67.084,0,0,1-13.7,2,33.876,33.876,0,0,1-13.7-2.3q-2.85-1.05-4.55-1.55-.4-.251-.45-2.3-.05-2.1-.1-3.65l-.8-8.4q-.3-2.3-4.1-7.55a37.19,37.19,0,0,0-8.5-8.6q-4.7-3.351-5.6-.35a27.614,27.614,0,0,0-.6,5.2,47.685,47.685,0,0,0,1.25,12.9,12.284,12.284,0,0,0,5.8,8.25q4.35,2.45-.65,3.6t-10.2,9.45q-5.25,8.3-3.7,15.5,10.8-4.7,19.8-16.8,3.351-4,6.9-3.65a22.127,22.127,0,0,1,8.2,2.95q5.1,2.8,15.1,8.6a17.48,17.48,0,0,0,6.9,2.4,175.444,175.444,0,0,0,27.65.2q12-1.05,17.2-8.5a55.469,55.469,0,0,0,4.1-6.85,26.44,26.44,0,0,0,1.85-4.55,4.569,4.569,0,0,0,.2-1.85q-.4-3.55-.55-5.9a13.273,13.273,0,0,1,.05-3.55,10.774,10.774,0,0,0,0-3.3,5.678,5.678,0,0,0-7.9-3.8,14.224,14.224,0,0,1-6.7.8q-4.6-.6-6.8,1.9-2.4,2.7-.4,7.5a15.888,15.888,0,0,1,.8,3.3q.2,1.2.5,3.5.4,2.4-1.95,2.5t-8.45.55a71.369,71.369,0,0,0-8.75.95,6.185,6.185,0,0,1-3.95-.2,10.527,10.527,0,0,1-5-5.3,9.527,9.527,0,0,1-.7-7.2q2.1-5.8,6.7-15.9,2.1-4.7,1-8.2-1.7-5.1-.1-12.2a43.765,43.765,0,0,0,1.3-8.3q0-4.9,5.4-8.2a62.351,62.351,0,0,1,15.8-7,14.981,14.981,0,0,1,11,1,14.069,14.069,0,0,1,7.2,8.2q1.6,4.4.7,6.1a4.118,4.118,0,0,0-.6,2.7,8.617,8.617,0,0,0,.8,2.3l2.6,5.3a12.739,12.739,0,0,1,.3,11.3,13.039,13.039,0,0,1-6.1,6.25q-3,1.65-3.25-.05a3.192,3.192,0,0,1,.15-2,28.733,28.733,0,0,1,1.7-2.6q3.9-6.1,3.1-11.7-1.1-9.9-1.8-14.8-.2-2.9-1.1-3.5t-1.5-.15a1.937,1.937,0,0,0-.8,1.85q0,1-.05,1.55a9.522,9.522,0,0,1-1.1,2.25,19.345,19.345,0,0,1-4.1,4.1q-3.049,2.4-11.4,7.9-1.749,1.1-2.8,1.9-1,.7-1.35-.4a17.023,17.023,0,0,1-.8-3.4q-.2-2.1-.55-4.1t-1.4-1.75q-1.149.2-1.1.85.051.6.65,6.35a12.552,12.552,0,0,0,4.6,8.9,35.1,35.1,0,0,1,5.5,5.05,10.491,10.491,0,0,1,2,5.3,54.463,54.463,0,0,0-6.1-1.7,6.169,6.169,0,0,0-5.7,1.6,5.091,5.091,0,0,0-1.9,5.1q0,.2,1.8,9.4a63.784,63.784,0,0,0,2.4,9.3q.3.75,1.4.7,1.05-.051,1-1.4-1.9-10.4-3-15.5-.9-4.6.3-5.6,1.2-1.1,4.65-.15t4.25,1.2a11.147,11.147,0,0,0,2.4.25q1.7,0,.95-4.3a11.62,11.62,0,0,0-3.4-6.8q-2.649-2.451-4.55-4.05t-.95-2.2q.951-.6,2.45-1.55,6.9-4.5,9.7-6.3a25.115,25.115,0,0,0,6.4-5.9q.7-1.05,1.2,1.45a70.961,70.961,0,0,1,.8,9.25q.25,6.6-2.65,9.45t-3.1,4.65q-.2,1.8,2.2,5.1,1.251,1.8,3.55.7a45.091,45.091,0,0,1,5.9-2.7q2.2-1,3.3.4a5.7,5.7,0,0,1,.5,3.7l-1.5,13.3q-.8,6.1-1,9.6v.05q-.1,1.85,1.25,1.6,1.3-.3,1.45-1.05l3.1-22q.8-5.7-2.4-7.7-1.8-1.2-1.7-2.4,0-.1,1.1-2.6a38.761,38.761,0,0,0,1.7-5,7.148,7.148,0,0,0-.8-5.3q-3-4.8-3.2-13.8a12.248,12.248,0,0,0-1.9-6.5m-97.4,36.6a20.793,20.793,0,0,1,5.95,5.15q2.5,3.15,4.1,5.45a12.13,12.13,0,0,1,2.05,4.7l1,7.3q0,.9.3,3.5.251,2.55-1.5,3.55t-6.6,6.4a77.051,77.051,0,0,1-13,10.95,15.955,15.955,0,0,1,3.8-10.3,30.817,30.817,0,0,1,8.6-6.7q5-2.7,5.1-3.5.2-.9-3.6-4.7-5.2-4.9-6.5-9.7-1.4-4.7.3-12.1m39.6,40.9q-5.4-3.4-8.7-5.2l7.3-.9q8.2-1.4,24.7-4.1,6.9-1.1,27.7-.5-4.4,11.2-17.8,13.3-3.8.6-24,.1a19.884,19.884,0,0,1-9.2-2.7m44.1-29.4a24.877,24.877,0,0,0,5.1-.8q3.1-1.1,3.5,1.2a3.621,3.621,0,0,1-1.7,3.9q-.1.1-2.8,1.5-1.8.9-1.5,2.2.4,1.449,2.5.65,1.65-.7,3.55-1.55,1.1-.4,1.1.95.2,2.45.45,5.8.1,1.449-1.1,1.65a24.844,24.844,0,0,1-4.2.2h-5.5q-3.1,0-3.7-.5-.6-.6-.8-3.8a7.4,7.4,0,0,1,.1-1.65,1.119,1.119,0,0,1,1-1.1,8.556,8.556,0,0,1,2.1-.05.707.707,0,0,0,.8-.8,2.057,2.057,0,0,0-.65-1.5,2.5,2.5,0,0,0-1.95-.6,6.031,6.031,0,0,1-2.55-.7q-1.449-.7-1.5-1.75a2.681,2.681,0,0,1,.75-1.95,2.632,2.632,0,0,1,1.9-1.1q1.7-.1,5.1-.2"/></svg>