<svg overflow="visible" width="100%" height="100%" viewBox="0 0 117.065 59.098" xmlns="http://www.w3.org/2000/svg"><path d="M64.8,3.7a12.765,12.765,0,0,0-3.4-1.9q-12.7-4-23.5.9-10.8,5-15.7,16.95Q21,22.6,21.2,28.9q.5,4.4-3.6,5.5-8.1,2.1-14.2,10-6.8,8.8,0,10.95A76.629,76.629,0,0,0,14.95,58.2a66.8,66.8,0,0,0,7.45.85q2.7.1,6,0a36.7,36.7,0,0,0,5.3-.55Q82.2,50.8,113.9,19q10-11.3-11.6-13.5A99.1,99.1,0,0,0,85,5.4q-8.6.7-11.8,2a5.553,5.553,0,0,1-5.3-1.2q-2.1-1.7-3.1-2.5M57.75,6.5q-1.151-2.25-5.1-1.65Q48.7,5.4,48.5,13q-3.2-.6-3.9-.7a1.232,1.232,0,0,0-1.2.35,1.727,1.727,0,0,0-.65,1.1q-.1.649,1.4.95,1.45.3,4.45,1.05a14.6,14.6,0,0,1,4.55,1.8A9.561,9.561,0,0,1,56,21a26.6,26.6,0,0,0-2.7-.2,2.218,2.218,0,0,0-2.1,1.8,1.274,1.274,0,0,0,.85,1.7,10.8,10.8,0,0,0,3.05.35,3.288,3.288,0,0,1,2.5.7,7.127,7.127,0,0,1,1.2,2.25q.8,2.7.6,3.2-.3.7-2.9,1.7-8.6,3.6-13,5-2.7.8-3.9,0t-1.2-3.6a48.693,48.693,0,0,1,.5-6.75q5.9-.6,6.4-1.55a1.791,1.791,0,0,0-.2-1.9q-.75-.951-5.7-.45a19.074,19.074,0,0,0,.95-6.7Q40.3,14,39,13.1a4.252,4.252,0,0,0-3.35-.6q-2.05.35-3.9,3Q29.9,18.1,30.1,19.2t3.8,2.7a6.726,6.726,0,0,1,1.6,1,2.322,2.322,0,0,1,.5,1.8q-.7,6.1-.7,6.6a14.674,14.674,0,0,0,1,6.6q.75,1.549-2.35,1.6t-5.8.05a3.11,3.11,0,0,1-3.3-2.75q-.3-1.6-.6-4.25-.3-2.6-.45-4.4a18.32,18.32,0,0,1,1.6-8.75,36.625,36.625,0,0,1,4.5-7.5q2.9-4,9.2-6.6,6.3-2.5,15.55-2,6.15-.2,12.75,6.55,6.55,6.7,8.2,9.95,1.6,3.2.35,4-1.249.75-2.65,1.5-1.45.75-1.9,1t-3,1.3q-2.6,1.05-3.9,1.55-1.3.45-1.9-.15a5.948,5.948,0,0,1-1.5-2.6q-.6-2.1-1-3.1a10.029,10.029,0,0,0-2.5-4q-2-2.3-2.05-3.25-.1-.951,1.3-2.8A9.887,9.887,0,0,0,58.6,10.1a5.685,5.685,0,0,0-.85-3.6m-3.3.35a1.447,1.447,0,0,1,1,.65,5.74,5.74,0,0,1,.35,2,4.173,4.173,0,0,1-.35,2.2,12.909,12.909,0,0,1-1.5,1.7q-1.151,1.05-2.1-.6a2.927,2.927,0,0,1-.15-3.15A10.487,10.487,0,0,1,53.15,7.4a1.231,1.231,0,0,1,1.3-.55M4.9,53.348A3.124,3.124,0,0,1,3.6,50.8q-.5-3.45,4.3-7.65A33.062,33.062,0,0,1,14,38.9q4.3-1.7,6.3-2.7a1.157,1.157,0,0,1,1.45.2,13.55,13.55,0,0,1,1.6,2.8q1.05,2.2,4.7,3a17.16,17.16,0,0,0,6.75.15q3.1-.6,8.45-1.85A79.061,79.061,0,0,0,57.3,35.2q.7-.251,4.8-2.2,4.05-1.95,9.2-4.3T77.2,26a10.45,10.45,0,0,0,1.65-1q.851-.7.7-2.75A13.472,13.472,0,0,0,77.2,16.7q-2.8-4-4.2-6.3,1.7-1.1,9.7-1.8a121.484,121.484,0,0,1,16.2-.5q21.4,1,13.2,8.8A188.633,188.633,0,0,1,97.5,29.8a122.488,122.488,0,0,1-16.35,10.65A141.83,141.83,0,0,1,30.9,56.2a71.8,71.8,0,0,1-9.65-.05q-4.849-.4-10.05-1.25Q6,54,4.9,53.348M36.3,15.2q2.051-.5,1.9,2.55T34.6,20.1q-3.45-.7-1.9-2.55a6.177,6.177,0,0,1,3.6-2.35m57.1-1.95q-1.95.1-3.6,2.65-1.65,2.5,1.65,5.1t5.15-.4q1.85-3.051.3-5.25-1.6-2.2-3.5-2.1M92.2,16q.6-1.45,2.5.2,1.9,1.6.25,2.75-1.7,1.1-2.5-.2A2.812,2.812,0,0,1,92.2,16M30.1,48.2q-.1,3.7,3.2,4.4,3.3.6,3.2-3.7,0-4.1-2.8-4.2-3.6-.1-3.6,3.5M34.35,50q-1,1.25-1.8-.05a2.149,2.149,0,0,1,.05-2.6q.851-1.35,1.8,0A2.13,2.13,0,0,1,34.35,50m-19.1-4.5a3.152,3.152,0,0,0-1.85-1.9q-1.45-.651-3.55,2-2.1,2.6-.3,3.85a6.712,6.712,0,0,0,4,1.25q2.2-.051,2.15-2a11.67,11.67,0,0,0-.45-3.2M14.2,47.8q-.15,1.3-2.15.95-2.051-.4-.9-2.05,1.15-1.7,2.15-.95a2.13,2.13,0,0,1,.9,2.05m46.1-4.7a3.186,3.186,0,0,0-1.5-2.6,4.579,4.579,0,0,0-3.2-1.1q-3,.5-2.9,4.2t3.8,3.6a3.794,3.794,0,0,0,2.8-1.1,4.526,4.526,0,0,0,1-3m-3.6-.95q1.6.049,1.3,1.55a1.487,1.487,0,0,1-2.95-.3q.05-1.3,1.65-1.25M78.4,30.4a10.056,10.056,0,0,0-2.8,1.3q-.7.549-1.1,4.1-.4,3.5,3.65,2.5,4-1.05,3.2-4.85-.8-3.851-2.95-3.05m-.2,5.7A2.024,2.024,0,0,1,76.35,35q-.4-1,1.4-2,1.751-1.05,1.85,1.1.049,2.1-1.4,2"/></svg>