<svg overflow="visible" width="100%" height="100%" viewBox="0 0 79.193 115.677" xmlns="http://www.w3.org/2000/svg"><path d="M21.564,20.75q-15.4,9.3-15.7,10a57.174,57.174,0,0,0-3.1,6.3,17.8,17.8,0,0,0-1.3,7q.3,21.9,0,43.7-.1,6-1.4,22.3-.3,3.3.8,4.5,1.1,1.3,4.3,1.1l11.7-1.2q12.3-1.15,23.8-1.25,11.451-.15,26.7-.05a40.918,40.918,0,0,0,6.8-.2,4.468,4.468,0,0,0,3.9-4.5,67.135,67.135,0,0,0-.2-10.1q-.6-7.3-.6-10.2-.2-24.5.3-36.7,0-6.4.1-9.6a32.511,32.511,0,0,1,1.4-9.6,2.723,2.723,0,0,0-.1-1.9q-1.9-5.5-7.9-14.6-6.2-9.4-8-14.5-.45-1.1-.95-1.2a3.9,3.9,0,0,0-1.25,0q-.75.1-11.6,5.4-12.35,6-27.7,15.3m-4.8,10.05a23.985,23.985,0,0,0,3.45-1.5q1.7-.9,12.25-4.75,10.5-3.9,14.15-5.4a20.7,20.7,0,0,0,3.85-1.85.565.565,0,0,0,.1-.7,6.922,6.922,0,0,0-.7-1.05q-.5-.649-3.05.55-2.6,1.151-22.55,9-20,7.8,3.6-4.35l27-14.6q3.351-1.549,5.45-2.7a3.652,3.652,0,0,0,.65-.4,14.435,14.435,0,0,0,.6,1.8q1.1,3.1,6.5,11.6a131.9,131.9,0,0,1,8.2,14.1q-4.6-1.7-12.4-1.3-8.5.5-18.55,1,8.151-1.8,18.55-4.7.7-.2,2.3-.5a1.313,1.313,0,0,0,.7-1.8,1.251,1.251,0,0,0-1.6-1q-1.5.5-2.2.7-3.7.8-15.2,3.9a169.492,169.492,0,0,1-16.8,3.5q5-2.2,10.6-4.3,8-3.1,9.6-3.6,1.5-.6,2.3-1a1.541,1.541,0,0,0,.8-2.2,1.308,1.308,0,0,0-1.9-.8,15.015,15.015,0,0,1-2.4,1.1q-2.2.7-13.35,5.6Q25.565,30,22.664,30.6a36.835,36.835,0,0,1-5.25.65q-2.349.05-.65-.45m-9.9,5.15a2.123,2.123,0,0,1,1.3-.3q1,.1,1,.8a8.331,8.331,0,0,1-.4,1.4q-2.1,6.4-1.5,18.1.4,7.5,1.2,22.6a156.686,156.686,0,0,1-.7,22.5,91.373,91.373,0,0,0-.3,9.4q0,2.4-2.3,2.3-2.5-.1-2.4-2.4.9-7.2,1-9.4l.9-32.7q-.3-20.2-.2-24.3a22.721,22.721,0,0,1,1.5-7.2q.1-.4.9-.8m12.2-1.9q6.7,0,17.7-.5,13.4-.7,17.7-.8,12.3-.7,15.45-.7t4.15,1q.9,1,.9,4.8v23.3h-.1a211.4,211.4,0,0,0-.3,22.1q.2,7.3.8,22,.2,3.5-.8,4.5-.9,1-13.9.7-13.05-.3-18.8-.3t-12.2.6q-8,.2-11.9.6-5.7.7-6.5,0-.9-.8-.7-6.3.4-7.1.6-10.6.3-6.4.2-10.7-.1-6.2-1.2-24.2-.3-14.4-.2-15.7,1.4-9.5,9.1-9.8"/></svg>