<svg overflow="visible" width="100%" height="100%" viewBox="0 0 106.575 116.247" xmlns="http://www.w3.org/2000/svg"><path d="M65.552,5.825q-6.5-2.8-9.3-2.9a36.8,36.8,0,0,0-22.5,5.2q-9.3,5.7-15.7,17.2a13.82,13.82,0,0,0-2.7,9.3,7.76,7.76,0,0,1-1.2,5.4,27.616,27.616,0,0,1-3.9,4.2,22.39,22.39,0,0,0-5.1,7.3q-1.3,2.6-3.5,8.1a2.56,2.56,0,0,0,0,2.6,2.916,2.916,0,0,0,2.6.9,14.387,14.387,0,0,0,8.4-2.8q4.9-3.8,7.5-5.5a23.238,23.238,0,0,1,10.7-5,20.9,20.9,0,0,0,5.8-2.6q4.7-2.8,7-4.1a33.042,33.042,0,0,1,7.6-2.9,2.209,2.209,0,0,1,2.8,1q.8,1.449-1.7,3.55a72.527,72.527,0,0,0-6.6,6.65,70.644,70.644,0,0,0-6,7.3q-.651.949.4,1.25a15.391,15.391,0,0,0,4.7-.15,27.193,27.193,0,0,0,6.9-1.9,49.893,49.893,0,0,0,6.7-3.5l9-5.6q1.749-1.2.9.8-13.1,24.5-29.1,26.7-7.1.9-24.85-4.25-17.8-5.2-13.6,1.1a34.976,34.976,0,0,0,9.6,9.9q5.45,3.649,5.85,4.55a3.964,3.964,0,0,1,0,2.5q-3,10.1,3.1,23.5,1.7,3.9,4.4,2a6.867,6.867,0,0,0,2.9-5.2l1-7.8q.3-3,.8-3.6a9.594,9.594,0,0,1,3.5-1q10.8-1.3,14.2-2a43.55,43.55,0,0,0,10.1-3.5q1.5-.8,9.4-5a60.342,60.342,0,0,0,15.7-12.9q7.5-8.7,9.5-17.7a85.768,85.768,0,0,0,1.4-17.4,42.556,42.556,0,0,0-4.1-17,4.837,4.837,0,0,1-.7-3.1q.3-1.1,4.55-2.8a28.84,28.84,0,0,1,7.55-2.15q3.349-.4,4.95-.65a2.331,2.331,0,0,0,1.95-1.4,1.833,1.833,0,0,0-.5-2q-6.7-8.2-15.9-10a21.987,21.987,0,0,0-18.45,4.7,5.648,5.648,0,0,1-6.05.7m-2.6,1.5Q68,9.524,69.1,9.575t6.6-3.9q5.45-3.951,14.25-2.15,8.8,1.7,11.6,7.3.2.8-6.6,2.05t-9.7,4.45a3.12,3.12,0,0,0-.5,4.3,25.5,25.5,0,0,1,3.7,8.9,58.6,58.6,0,0,1,.95,11.25q0,6.45-.15,8.9a30.43,30.43,0,0,1-1.1,5.65q-5.1,17-22.5,28.1a64.978,64.978,0,0,1-34.9,10.7q-3.3.2-4.2,1.1-.8.8-1.2,4.2-.4,2.1-1.05,6.65-.75,5.7-1.75,6-1,.1-3.25-7.95-2.25-8.1-.75-13.1a31.656,31.656,0,0,0,1.45-4.9q.3-1.9-9.85-8.75-10.2-6.9-4.85-5.55,5.3,1.3,15.65,4.8a52.564,52.564,0,0,0,14.7,1.8q15.65-.45,25-12.8,9.3-12.4,10.55-17.45,1.2-5.05.95-5.9a8.626,8.626,0,0,0-1.45-2.5,13.438,13.438,0,0,0-2.75-2.75,15.987,15.987,0,0,0-5.1-2.9,11.313,11.313,0,0,0-4.4-.7,11.526,11.526,0,0,0-2.4.35,8.426,8.426,0,0,0-1.1.35q-14.2,6.6-17.2,8.3-8.6,4.7-14.3,5a3.651,3.651,0,0,0-1.9.8q-.5.4-1.5,1.4a91.709,91.709,0,0,1-8.6,6.6q-5.6,3.9-6.1,3.25a1.462,1.462,0,0,1-.3-1.35q.2-.7.3-1.1,4-10.3,9.7-14.8,3.5-2.9,2.8-6.7a12.591,12.591,0,0,1,2.4-9.4q4-6.4,6.3-9.5,6.1-8,17.9-10.9a41.9,41.9,0,0,1,8.6-1.4,22.484,22.484,0,0,1,9.9,2m-14.9,49.2q-6.9,2,.95-5.1t8.25-10.8a2.108,2.108,0,0,1,.9-1.6q1.8-1.1,5.2-.1,3.5.9,4.5,2.8a3.091,3.091,0,0,1,.3,1.4c.067.6-.034.966-.3,1.1q-12.9,10.3-19.8,12.3"/></svg>