<svg overflow="visible" width="100%" height="100%" viewBox="0 0 91.383 115.003" xmlns="http://www.w3.org/2000/svg"><path d="M89.272,0q-.75-.049-4.4,1.95a70.212,70.212,0,0,0-7.1,4.4,29.906,29.906,0,0,0-8.8,9.25q-.3.55-.8,1.5-.5.9-1.8,2.85t-2.75,4.2a5.628,5.628,0,0,1-3.949,2.6q-6.6,1.2-4.5,8.2a5.008,5.008,0,0,1-1,4.6,5.227,5.227,0,0,1-4.1,2.5q-6.7.3-4.5,6.5l.6,1.5q.4.9.2,1.2a29.455,29.455,0,0,1-4.8,6.2,3.9,3.9,0,0,1-1.9.7q-1.5.1-2.2.2-6.1.6-3.2,5.6a4.046,4.046,0,0,1,.6,1.8,3.567,3.567,0,0,1-.8,1.6q-8.3,10.6-8.5,10.9a4.269,4.269,0,0,1-1.7,1.3,3.421,3.421,0,0,1-2,.5,32.851,32.851,0,0,0-9.8,1.5q-6.3,2-9.5,2.9-3,.7-2.5,2.8a7.3,7.3,0,0,0,2.9,3.6,132.326,132.326,0,0,0,13.9,11.4,71.132,71.132,0,0,0,16,8.4,97.436,97.436,0,0,1,9,4.3,1.466,1.466,0,0,0,1.6-.7,6,6,0,0,0,.8-3.45,34.282,34.282,0,0,0-1.7-8.35q-2.6-8.7-2.8-9.5-2-6.9,2.6-11.4a68.624,68.624,0,0,0,8.3-9.8l31.8-46.2a19.505,19.505,0,0,0,2.35-4.8q1.4-3.7,3.951-10.15,2.5-6.45,2.6-7.9a2.269,2.269,0,0,0-.65-2.05A2.669,2.669,0,0,0,89.272,0m-3.7,4.65q.851-.649,2.4-1.85,1.551-1.25.15,2.9a109.584,109.584,0,0,1-5.449,11.95q-1.4,1.7-4.2,1.2-3.3-.9-4.7-1.2-1.9-.4-1.4-2a5.532,5.532,0,0,1,1.8-2.5l11.4-8.5m-4.549,17.4q-2.852,4.6-3.651,5.7-21.3,31.4-28,40.9a96.617,96.617,0,0,1-9.8,11.9q-4.8,4.9-2.8,11.8.9,3.3,2.6,9.3a84.329,84.329,0,0,1,2,9.5,133.32,133.32,0,0,1-20.4-9.8,73.858,73.858,0,0,1-17.2-14.3q2.8-.8,8.3-2.7a31.887,31.887,0,0,1,8.6-1.4,10.558,10.558,0,0,0,8.7-4.6q2.4-3.2,10.1-13.2,6.4-8.1,10-13.3,5.8-8.4,16.3-26.1,3.5-5.5,3.9-5.7a71.38,71.38,0,0,1,7.2,1.2q.7.1,4.151.8M60.471,29.6l-2.7,4.4a5.047,5.047,0,0,1-.8-1.95,2.709,2.709,0,0,1,.9-2.1,1.9,1.9,0,0,1,2.6-.35m-12.2,15.2a2.929,2.929,0,0,1,2.8-.4l-2.95,4.25a3.039,3.039,0,0,1-.8-2.05,2.553,2.553,0,0,1,.951-1.8M36.522,60.7a3.129,3.129,0,0,1,2.6-.45,25.363,25.363,0,0,0-2.349,3.3,3.042,3.042,0,0,1-.9-1.45,1.422,1.422,0,0,1,.651-1.4"/></svg>