<svg overflow="visible" width="100%" height="100%" viewBox="0 0 116.726 104.41" xmlns="http://www.w3.org/2000/svg"><path d="M26.125,3.309a17.352,17.352,0,0,0-13.6,2.6,28.991,28.991,0,0,0-8.9,10.1q-6.4,11.9-1.5,25.6,2.5,6.6,6.7,9.6,3.2,2.3,9.6,7a30.334,30.334,0,0,0,10.9,4.5q.1,0,.4.3-2.4,3.7-7.6,11a47.6,47.6,0,0,0-6.1,11.8q-2.2,7.3.4,10.5t10.2,2.7a35.929,35.929,0,0,0,13.4-3.6,74.543,74.543,0,0,0,11.7-7.2q1.3-1.3,2-2,1.2-1.2,3-3.2.1,6.1,0,7.2-.3,4.7,3.1,11.9,2.1,4.5,4.9.2a24.816,24.816,0,0,0,4.4-14q0-1.1.05-2.15a55.327,55.327,0,0,0,4.65,7.15q6.2,8.55,18.1,7.9,11.9-.7,14.2-3.2,2.2-2.5,2.3-7.6a39.758,39.758,0,0,0-1.2-11.7,41.3,41.3,0,0,0-6.8-14.6q-5.2-6.6-10.25-7.75-5.1-1.151-3.65-1.95,15.2-9.9,22.9-23.6,7.4-12.1,7.3-23.3-1.3-16.2-31.3,6.8-9.1,7-10.3,8a53.876,53.876,0,0,0-8.9,9.1q-.2-.75-.7-11.4a6.955,6.955,0,0,0-.55-1.95q5.8-10.4,9.75-14.45,1.151-1.35,2.1-2.5.549-2.1-2.5-.2a27.157,27.157,0,0,0-5.3,5.3,42.461,42.461,0,0,0-6.1,10.5,9.228,9.228,0,0,0-2,0q-1.6.05-2.8-2.9-1-2.6-1.6-3.9l-3.4-8.8q-.75-1.2-1.4-1.1-.8-.1-1.15.9a2.215,2.215,0,0,0,.45,2.1l5.95,15.5.05,12.3q-3.7-8.9-5.1-11.7-4.3-8.9-10.2-12.1-4.2-2.2-15.6-3.7m-8.4,51q-4-2.8-5.9-4.3a20.529,20.529,0,0,1-5-5.4,29.189,29.189,0,0,1-4-14.1q0-7.1,5.7-16.35,5.65-9.3,17.4-8.8,13.749,1.9,18.25,7.25,4.451,5.3,11.45,22.8.15.3.3.55v.05a95.784,95.784,0,0,1,1.4,20.2q-.75.1-2.15.35-6.2,1.2-14.25,2.4-8.1,1.15-12.9.25a22.767,22.767,0,0,1-10.3-4.9m13.4,12q2-2.8,13.75-4.8,9.7-1.65,12.25-2.15v.05a161.283,161.283,0,0,0-1,17.9q-.8,6.2-9.7,11.5a111.506,111.506,0,0,1-14.5,6.7q-2.8,1.1-10.3.5-4.3-.5-4-5.4a18.83,18.83,0,0,1,2.4-7.9q5.3-8.7,11.1-16.4m76-61.7a6.856,6.856,0,0,1,4.7-.5,2.629,2.629,0,0,1,2.3,3.3,49.758,49.758,0,0,1-7,21.7,69.835,69.835,0,0,1-14.8,17.6,29.158,29.158,0,0,1-8.9,5.3q-6.4,2.2-9.7,3.4a19.392,19.392,0,0,1-4.6.6,116.846,116.846,0,0,0-1.5-15.2,10.124,10.124,0,0,1,1-7.9,23.346,23.346,0,0,1,5.4-5.8q17.4-13.4,21.3-16.2a94.54,94.54,0,0,1,11.8-6.3m-47.25,14.95a10.574,10.574,0,0,1,2.1.15q2.65.35,2.15,5.95-.55,5.6-3.45,4.35-2.95-1.3-.8-10.45m2.85,16.35a10.588,10.588,0,0,1,1.9,3.9,137.067,137.067,0,0,1,2.1,23.7q.1,8-.1,23.8,0,6.2-4.1,13.4a17.191,17.191,0,0,1-2.8-7,63.492,63.492,0,0,1-.5-6.9q-.7-20.5.35-28.8a59.381,59.381,0,0,0,.15-14.75q-.9-6.45-.3-7.5,1.5-2.45,3.3.15m6.5,28.6v-6.05a20.566,20.566,0,0,0,6.1-1.25q4.5-1.4,11.8,1.1,9.3,2.7,14.6,13.1a35.713,35.713,0,0,1,3.8,19.8q-.3,3.3-1.15,4.4-.9,1.05-7.95,2.7t-12.45-1.05a26.417,26.417,0,0,1-8.3-6.2,25.851,25.851,0,0,1-4.5-8.05q-1.65-4.7-2-5.35.05-8.15.05-13.15"/></svg>