<svg overflow="visible" width="100%" height="100%" viewBox="0 0 115.713 81.196" xmlns="http://www.w3.org/2000/svg"><path d="M77.866,67.153q-1.35,2.949-.8,4.5A1.948,1.948,0,0,0,79.416,73a22.352,22.352,0,0,1,6.65.85,17.8,17.8,0,0,1,7.35,3.05,4.126,4.126,0,0,0,5.1.35,22.407,22.407,0,0,0,3.9-3.05q1.35-1.451-1.25-6.25-2.7-4.851-12.35-4.3-9.65.5-10.95,3.5m3.35,3.25q-2.65-.2-1.4-1.75,1.2-1.551,5.2-2.55a16.326,16.326,0,0,1,9.15.6q5.25,1.6,5.25,5.65-.049,4.05-7.75,1.15-7.751-2.95-10.45-3.1M24.716.7q-.15-.649-1.5-.7-1.35-.1-3.2,3.4a31.438,31.438,0,0,0-2.5,5.4q-.6,1.9-5.2,5.95a41.733,41.733,0,0,1-8.4,5.9Q.116,22.5.016,24.4q-.2,1.9,2.1,3.7a10.1,10.1,0,0,0,9.8,1.8q8.8-2.9,14.8,6.2,9.4,14.3,13.2,19.8a38.018,38.018,0,0,0,3.6,4,34.3,34.3,0,0,1,3.45,3.95q1.05,1.5,1.8,2.7a28.863,28.863,0,0,1,2.15,5.55q2.2,6.9,2.7,8.2a1.269,1.269,0,0,0,1.85.75q1.3-.5.45-2.7a17.465,17.465,0,0,1-1.1-3.55,4.691,4.691,0,0,1,1.2-3.9q.2-.4-1.1-2-3-3.5-4.5-5.3-2-2,.55-7.75,2.55-5.8.85-8.3a10.542,10.542,0,0,0-2.7-2.45q-4.5-3.1-9-1.1-3.2,1.5-4.1.9-1-.5-3.3-4.45a17,17,0,0,0,7.8.25q3.2-.9,4.1-5.2,3.849,4.4,6.5,7.2,2.651,2.749,3.75,4.15a27.626,27.626,0,0,0,2.3,2.5,8.853,8.853,0,0,1,1.7,2.25,1.949,1.949,0,0,1-.35,2.15,3.779,3.779,0,0,0-.85,2.35,2.993,2.993,0,0,0,.45,1.9q3.4,6,8.7,6.9,4.2.7,11.4-1.9a33.043,33.043,0,0,0,4.9-2.1,18.041,18.041,0,0,1,4.35-1.5,14.339,14.339,0,0,1,3.65-.05,23.79,23.79,0,0,1,5.65,1.45q3.45,1.2,8.45,3.3a10.117,10.117,0,0,1,5.5,5.4,27.972,27.972,0,0,1,1.5,4.65q.851,3.45,1.45,3.65a3.784,3.784,0,0,0,1.2.2.867.867,0,0,0,.8-.65,9.532,9.532,0,0,0-.45-3.4q-.7-2.85-1.3-4.55a11.98,11.98,0,0,0-4.2-5.7q-11-7.6-31.6-8.4-13.3-.6-22.3-11.2a135.44,135.44,0,0,1-17.7-26.7q-1.1-2.1-1.75-3.2-.651-1.15-.95-1.6-.3-.5.85-3.05,1.1-2.6-.65-4.1a3.313,3.313,0,0,0-3.5-.9,4.618,4.618,0,0,0-2.4,1.55,8.73,8.73,0,0,1-1.25,1.5q-.6.549-1.95,1.55-1.4.949-2.8-.6-1.4-1.6-.15-4.4A10.267,10.267,0,0,0,24.716.7M9.566,19.753q6.4-4.9,8.85-7.15,2.25-2.05,5.3-.45,3,1.6,6.15-2.85,3.1-4.451,3.8-2.2a4.852,4.852,0,0,1-.4,4q-1.1,1.751-3.2,5.25-2.149,3.45,0,5.95t7.25,4.4q3.4,1.55.4,1.2a27.353,27.353,0,0,1-4.8-.65q-3.3-.7-3.8-.1a14,14,0,0,0-1.5,2.45q-1.05,1.849-2.75.4a11.293,11.293,0,0,0-2.75-1.9,17.1,17.1,0,0,0-3.8-1.3,9.147,9.147,0,0,0-3.1-.1,22.41,22.41,0,0,1-3.1.3,24.02,24.02,0,0,1-3.6.4,4.338,4.338,0,0,1-3.3-1.1q-2.05-1.65,4.35-6.55m25.65-1.55a25.376,25.376,0,0,1,2.1,4.1q.7,1.5-.7.9a13.559,13.559,0,0,1-4.05-2.75q-1.35-1.45.15-2.6a1.524,1.524,0,0,1,2.5.35m35.9,39.3a23.408,23.408,0,0,1,4.1.2q1.5.2,4.4.6-5.5,4.5-10.9,4a10,10,0,0,1-8.2-5.7q-.4-1.2.25-1.6a2.718,2.718,0,0,1,2.75.1,21.865,21.865,0,0,1,2.5,1.4,8.7,8.7,0,0,0,5.1,1m-39.8-27.6q2.6-1,6.2.7t4.5,4.4a1.9,1.9,0,0,1-.7,2.3,8.364,8.364,0,0,1-4.15,1.15q-3,.249-6.3-3.3t.45-5.25m10.4,16.6a5.37,5.37,0,0,1,6.6,1.2,5.151,5.151,0,0,1,.8,6.6l-2.6,5q-4.7-5.2-6.5-7.7-1.7-2.3-1.4-3.2t3.1-1.9m-23.45-31.75a2.193,2.193,0,0,0-.8,2.2q.1,1.55.85,1.95a1.883,1.883,0,0,0,1.4.15,5.036,5.036,0,0,0,1.6-1,1.737,1.737,0,0,0,.6-1.85,2.364,2.364,0,0,0-1.45-1.55,2.144,2.144,0,0,0-2.2.1"/></svg>