<svg overflow="visible" width="100%" height="100%" viewBox="0 0 115.467 49.751" xmlns="http://www.w3.org/2000/svg"><path d="M57.956,38.189q6.6-9.5,3-17-3.2-7.3-12.1-11.3-2.5-1.1-15.3-5.55a19.318,19.318,0,0,0-13.95.1,58.256,58.256,0,0,0-11,5.7,22.683,22.683,0,0,0-6.3,5.8,13.405,13.405,0,0,0-1.95,6.85q-.2,2.5-.35,7.5-.249,9.8,9.65,15.4a27.217,27.217,0,0,0,10.1,3.1q4,.5,9.2.85a27.6,27.6,0,0,0,8.2-.4q3-.75,9.85-2.6a18.247,18.247,0,0,0,10.95-8.45m.7-7.1a8.866,8.866,0,0,1-4.8,4.8,74.558,74.558,0,0,1-26.7,4.3q-13.9-.2-20.95-11.75-2.1-3.45,7.35,3.15a2.774,2.774,0,0,1,1.4,1.6q.9,4,5.6,4a22.3,22.3,0,0,0,8.6-1q6.4-2.5,10.5-1.9a8.774,8.774,0,0,0,6.4-1.6q3.1-2.3.85-3.8-1.849-1.249,2.55-2.3,2.1-.75,1.3-2.65a42.251,42.251,0,0,1-2.2-6.8q-1-4.4,1.5-3.45,5.7,2.3,9.2,10.4a7.784,7.784,0,0,1-.6,7m-4.9,8.8q.9-.15.2.7t-11.05,4.6a39.809,39.809,0,0,1-21.8,1.35q-11.449-2.349-14.85-6.4a11,11,0,0,1-2.6-9.15q10.5,11.4,23.2,12a59.1,59.1,0,0,0,12.4-.9q4.5-.6,14.5-2.2m21.05-18.8a1.534,1.534,0,0,0-.3,1.3q.1.9,1.55.95,1.4.051,7.1-.2,14-.75,23.05-1.7,9-.95,9.25-2.85.15-1.449-1.7-1.35t-13.25,1.8a161.186,161.186,0,0,1-24.25,1.55,2.216,2.216,0,0,0-1.45.5m39.8-16.55q-.6-.3-3.95.15l-36.7,5.1a11.545,11.545,0,0,0-2.45.6,1.628,1.628,0,0,0-1.25,1.35q-.1,1,.8,1.1a37.456,37.456,0,0,0,4.45-.35q3.55-.4,20-2.8,16.4-2.4,18.05-2.65,1.7-.249,1.7-1.2a1.394,1.394,0,0,0-.65-1.3m-12.3-4.25a6.07,6.07,0,0,0-2.95-.2l-24.6,2.5q-18.5,2-21.95,2.35a11.438,11.438,0,0,0-2.45.25,1.174,1.174,0,0,0-1.15,1.3,1.278,1.278,0,0,0,.95,1.35,4.835,4.835,0,0,0,2.1.15q14.1-1.7,41.2-4.5,3.9-.3,6.9-.65,3-.4,3.15-1.55.049-.549-1.2-1"/></svg>