<svg overflow="visible" width="100%" height="100%" viewBox="0 0 78.304 116.57" xmlns="http://www.w3.org/2000/svg"><path d="M36.8.144q-5.2-.6-7.6,1.3-7.7,6.4-9.6,13-1.1,4,.6,6.1,1.5,2,.8,5.6l-4.2,25.4q-2.2,13-6.7,39a6.165,6.165,0,0,1-3.1,4.6q-4.5,2.4-5.75,6.25a26.1,26.1,0,0,0-1.25,8.2q0,4.4,2.05,5.8a6.675,6.675,0,0,0,4.35,1.15,3.592,3.592,0,0,0,2.9-1.2,8.605,8.605,0,0,0,.8-4l.1-4.5q-.1-3.2,3.2-3.2,4.1-.1,12.4-.5a126.545,126.545,0,0,0,35-5.2,17.416,17.416,0,0,0,7.9-4.7,29.05,29.05,0,0,0,4.9-7.4q3.3-6.75,4.6-17.85a1.119,1.119,0,0,1,.05-.35,37.174,37.174,0,0,0-.65-9q-.95-4.3-1.2-5.1-4.9-15.2-17-22.3a50.013,50.013,0,0,0-7.1-3.2q-6.1-2.2-7.4-2.8a103.563,103.563,0,0,1-12.4-6.2q-7.8-4.8-1.3-11.3a8.96,8.96,0,0,1,1.9-1.6q1.1-.75,1.65-.55t.75,1.4a7.41,7.41,0,0,1-.3,3.05l-.1.5q-.6,2.7.2,3.6.9,1,3.5.3a10.121,10.121,0,0,0,3.9-1.9,7.046,7.046,0,0,0,2.3-4.7,6.069,6.069,0,0,0-1-4.8q-2-2.3-7.2-2.9m2.3,4.5q.4-.7,2.1-.35t1.45,1.7a18.765,18.765,0,0,1-1.15,3.3,5.964,5.964,0,0,1-1.6,2.35,2.346,2.346,0,0,1-1.35.35q-.7-.1-.35-2.8.3-2.75.4-3.3a3.5,3.5,0,0,1,.5-1.25m-5,22.2q-4-1.9-5.3-2.6a18.2,18.2,0,0,1-5.05-4.35q-2.3-2.749-1.25-4.95a35.439,35.439,0,0,1,2.65-4.8q1.7-2.6.75.5a8.478,8.478,0,0,0,1.8,7.7,11.115,11.115,0,0,0,3.5,3.3q3.9,2.1,13.8,6.6,1.3.6,5.6,2,17,5.4,23.1,24.6,4.6,14.4-3.5,31.6a16.643,16.643,0,0,1-11.1,9.2,144.71,144.71,0,0,1-33.7,5q-8.9,0-13.3.2a5.136,5.136,0,0,0-3.2,1.1,4.76,4.76,0,0,0-1.2,3.2q-.2,2.2-.35,4.75a6.558,6.558,0,0,1-.65,3.15,1.236,1.236,0,0,1-1.05.55,4.05,4.05,0,0,1-1.35-.4q-.75-.3-1.35-2.55-.65-2.2,1.1-7.2a10.131,10.131,0,0,1,5.95-6.6,19.194,19.194,0,0,1,6.3-1q8.4-.3,14.3-.1a67.235,67.235,0,0,0,19.2-2q1.5-.4,6.9-2.5.6-.3,1.25-.6.6-.35,2.5-1.35a11.5,11.5,0,0,0,3.45-2.85l.7-.9q6.6-8.8,6.35-16.7-.15-5-.55-8.5a34.054,34.054,0,0,0-1.4-6.6q-3.2-9.4-14.2-16.4a110.264,110.264,0,0,0-10.2-5.5q-7-3.3-10.5-5m-2.3,3q-.15-.649,1.2-.2,5.2,1.8,6.1,2.9,1.1,1.3,1.2,6.5.3,7.5-.7,22.7-.7,9.4-2.8,28.1a3.339,3.339,0,0,1-.9,2.4,5.029,5.029,0,0,1-2.5.6q-5.6.2-6.4-.7-.9-.9-.2-6.5,3.4-25,4.3-32.8.4-3.6.5-8.9.1-6,.2-9v-5.1M24,27.394q.45-1.8,1.1-1.6a5.864,5.864,0,0,1,3,2.35,9.318,9.318,0,0,1,.8,4.3q.5,18.1-3.9,45.8l-1.3,10.3q-.3,3-.9,3.6-.6.5-3.5.6-5.1.2-5.8-.7-.7-.8.2-6L24,27.394m28,11.65q.8.5.35,11.4-.5,10.9-1.3,18.95t-1,10.6a55.668,55.668,0,0,0-.2,6.1q.05,3.55-.45,4.25-.5.6-3.6,1.3l-2.4.4q-3.3.6-3.6-2.7a22.552,22.552,0,0,1,.1-3.5l3.6-33a50.469,50.469,0,0,0,.1-5.7q-.2-3.8-.3-5.7l-.35-5.9q-.1-1.75.6-1.4,6.35,3.551,8.45,4.9m9.1,8a12.153,12.153,0,0,1,1.2,7.4,238.62,238.62,0,0,0-1.7,26.2q-.1,5.6-4.65,7.85l-1.6.75q-1.65.75-1.55-.85.05-5.651.35-9.55.3-4.5,1.25-14.15t1.3-18.75a18.311,18.311,0,0,1,.1-2.6q.1-1.55,2-.15a10.881,10.881,0,0,1,3.3,3.85m3.55,8.5q.049-3.15.9-1.9a13.539,13.539,0,0,1,2.05,6.2q.2,2.5.1,7.35a49.875,49.875,0,0,1-.5,7.45,11.947,11.947,0,0,1-3.9,7l1.35-26.1"/></svg>