<svg overflow="visible" width="100%" height="100%" viewBox="0 0 116.779 59.143" xmlns="http://www.w3.org/2000/svg"><path d="M57.521,3.654q-.65-.85-2,0-10,6.7-13.1,9.1a7.4,7.4,0,0,1-4.4,1.7q-12.4.4-18.8.9a10.983,10.983,0,0,1-4.8-.3q-2.1-.9-2.8-4.2-.4-2.2-1.7-2.6a5.2,5.2,0,0,0-3.6.4,9.341,9.341,0,0,0-4.8,4,10.73,10.73,0,0,0-1.5,6.2q.7,8.5,7.6,12,5.5,2.7,14.3,2h1.65a72.2,72.2,0,0,1-10.45,4.8q-2.5,1.3-1.2,3.7a3.185,3.185,0,0,0,3.1,1.5q2.2-.1,2.5-1.7.6-2.8,4.1-4.1a33.931,33.931,0,0,0,5.7-2.3,10.585,10.585,0,0,1,4.3-1.7,25.621,25.621,0,0,1,4.6-.3q34.1-.2,51.2-.5a4.879,4.879,0,0,1,4.2,1.9l5.6,8.2a6.038,6.038,0,0,1,1.2,4.9,5.273,5.273,0,0,0,1.3,4.5q6.4,8.2,13.2,7.3a3.891,3.891,0,0,0,2.4-.9,2.81,2.81,0,0,0,.8-2.3q-.6-4-.8-5.1a16.466,16.466,0,0,0-1.8-4.7,6.788,6.788,0,0,0-2.8-2.3q-2.6-1.1-3.7-1.45a13.872,13.872,0,0,1-6.2-3.05,45.515,45.515,0,0,1-4.8-5q-1.8-2.1-1.6-2.8.2-.8,2.9-1.1a24.141,24.141,0,0,0,8-2.7q.9-.5,7.2-4.3,3.3-2.1,4.1-7.1.7-5-1.7-7.9-2.4-2.6-3.7-.8a4.4,4.4,0,0,1-2.7,1.7q-.6.1-8.2-.05-7.65-.2-16.7.35-3.3.15-4.55.15a18.333,18.333,0,0,0-2.7.1q-1.4.15-3.35-3.45a23.953,23.953,0,0,0-4.1-5.8A1.814,1.814,0,0,0,67.471,0a1.53,1.53,0,0,0-1.25.55,1.177,1.177,0,0,0,.1,1.3l3.45,5.95a10.177,10.177,0,0,1,1.2,2.4q.051.45-5.65,1.4t-9.1,1.55a56.009,56.009,0,0,1-10.6.7q7.3-5,11.3-8.1,1.249-1.2.6-2.1m-50.5,7.8q2.5-1.3,2.6,1.8a13.786,13.786,0,0,0,1.3,5.8,4.8,4.8,0,0,0,4.5,3.1q8.6-.2,25.8-.3A170.6,170.6,0,0,0,65.421,20q9.049-1.6,11.1-.85t6.6,6.2l3.6,4q-13.4.5-35,.5-27.2.1-35,.2a13.258,13.258,0,0,1-11.1-4.4q-4.7-5-1.8-11a7.414,7.414,0,0,1,3.2-3.2m7.9,7.2q8.3-.6,24.9-1.2a188.631,188.631,0,0,0,24.8-2.7l8.25-1.65,1.5,2.35q.3.45-7.45,1.9-7.8,1.4-23.6,1.7-9,.2-28.4-.4m88.2-3.4a40.479,40.479,0,0,0,5.3-.6,9.581,9.581,0,0,0,4.7-2.8,11.4,11.4,0,0,1,.5,5.6,5.72,5.72,0,0,1-2.7,3.6q-5.2,3.2-7.6,4.4a26.513,26.513,0,0,1-8.6,2.5,3.992,3.992,0,0,1-4.5-1.9q-.7-1.3-7.5-8,8.8-1.3,20.4-2.8m-24.9-2.3q-1.05-1.1,1.4-1.1,2.4-.1,3.45-.2h15.25q18.75-.6,0,1.7-6.7.8-12.3,1.3-5.55.5-6.15-.05a19.1,19.1,0,0,1-1.65-1.65m31.9,33.7a7.4,7.4,0,0,1,2.15,2.35,7.573,7.573,0,0,1,.85,4q-.05,2.5-.55,2.9a3.411,3.411,0,0,1-.95.45,4.433,4.433,0,0,1-4-2,5.555,5.555,0,0,1-1.45-4.45,13.176,13.176,0,0,1,1.85-4.65q.7.5,2.1,1.4"/></svg>