<svg overflow="visible" width="100%" height="100%" viewBox="0 0 116.213 63.039" xmlns="http://www.w3.org/2000/svg"><path d="M64.613,15.029q-7.1,2-7.1,9.5,0,3.1-.4,8.9-.2,3.6-3.6,3.6-2.3,0-6.4.3-4.6.4-6.5.4a63.066,63.066,0,0,0-24.2,4.6,80.81,80.81,0,0,1-9.4,3.1q-2.4.8-2.849-.45a10.293,10.293,0,0,0-1.151-2.35q-.7-1.05-1.3-.75-.6.249-1.3,3.55a21.5,21.5,0,0,0-.4,4.4,2.011,2.011,0,0,0,.6,1.9q.7.6,1.7-.4a2.216,2.216,0,0,1,1.8-.8q.2.1,1.6.7,12.8,6.3,14.7,7.3a33.09,33.09,0,0,0,16.2,3.9h29.25q24.65.5,27.75.6a42.606,42.606,0,0,0,8.7-.8q1.6-.2,8.4-1.7,5.5-1.2,5.5-7.3a37.365,37.365,0,0,0-.4-6.4q-1.1-6.1-3-7.6t-8.2-1.7l-23.3-.6q-3.3-.1-3.9-.7t-.7-4.2v-9.9q-.2-6-4.9-7-2.4-.5-1.7-2.8l.3-1.9a19.844,19.844,0,0,1,.6-5,4.756,4.756,0,0,1,3.8-3.3q.7-.2.4-1.3a1.273,1.273,0,0,0-1-.8,4.971,4.971,0,0,0-3.6,1,5.474,5.474,0,0,0-2.2,3.4,39.3,39.3,0,0,0-1,7.3,3.745,3.745,0,0,1-.7,2.2,4.129,4.129,0,0,1-2.1,1.1m-3.9,7.2a5.635,5.635,0,0,1,2-3.1q3.1-2.4,9-.8,1.7.5,2.4,3.8a21.569,21.569,0,0,1,.2,3.2q0,1.1-.1,3.3v1.4q-.1,5.8-.5,6.2-.5.5-6.5.5l-4-.1a7.481,7.481,0,0,1-3.2-.5q-.4-.5-.3-3,.3-6.1,1-10.9m-51.15,25.9q10.85-4,11.85-4.3a60.136,60.136,0,0,1,13.4-2.9q14.8-1.1,34.7-1.1,11.5,0,34.7.3l1.5.1q4.1.3,5.5,1.6,1.4,1.4,1.8,5.5.8,7.6-.8,9.3-.7.8-7.4,2.3a62.824,62.824,0,0,1-15.7,1.4q-27.5-.7-49.6-.8-12.2-.2-20.4-4.9-1.2-.7-9.55-4.85-1.9-.851,0-1.65"/></svg>