<svg overflow="visible" width="100%" height="100%" viewBox="0 0 110.114 95.838" xmlns="http://www.w3.org/2000/svg"><path d="M83.6,15.332a1.922,1.922,0,0,1-.2-1.4,6.177,6.177,0,0,1,2.9-1.7l20.9-6.1-1.3,47.3q-.4,17.451,1.4,15.6,1.751-1.849,1.6-19,.8-35.5.9-39.8a22.517,22.517,0,0,1,.25-4.55,4.785,4.785,0,0,0-.05-1.85,2.685,2.685,0,0,0-1.15-2.15q-1-.549-10.6-1.5Q88.6-.768,65.6,3.232t-28.65,5.6q-5.651,1.551-5.65,4.5a8.348,8.348,0,0,0,.45,3.75q.45.8,1.85,9,1.4,8.151,2,13.05a14.111,14.111,0,0,1-1.6,7.5q-2.6-1.9-4.4-1.8-2.1,0-3.8,2.4-1.05,1.4-6.65,9.65-.75,1.1-1.25,0a7.711,7.711,0,0,0-3-3.35q-2.3-1.2-4.9,1.4a9.184,9.184,0,0,0-2.8,4.5,62,62,0,0,0,0,23.8l-2.8-.6q-2.8-.8-3.9.8a4.213,4.213,0,0,0,0,4q1.6,4.5,7.6,5.4,5.7.9,17.2,2.3,15.8,2.3,26.2-2.9a43.575,43.575,0,0,1,6.4-2.6l22.7-9.9a38.643,38.643,0,0,0,4.65-2.95q.35-.5.5-.75.1-.3.4-7.6t.15-15.45q-.2-8.15-1.3-24.25l-.9-11.8a5.5,5.5,0,0,0-.5-1.6m-2.9-2.4a3.345,3.345,0,0,0,0,2.2H80q-5.2,0-21.7.35-16.5.4-22.4-1.45t36.9-10q17.4-2.7,29.1-1.65,11.65,1.05-3.85,4.65-15.55,3.6-17.35,5.9m-10,5q.6,0,3.65-.2,3-.2,2.95.85v3.25q0,2.2-.05,12.3-.1,10.05-.45,16.7-.3,6.651-1.75-.05-1.45-6.75-4.55-5.1t-5.6,6.45a15.2,15.2,0,0,0-1.8,8.2,31.7,31.7,0,0,0,.6,5.65q.6,3.251.95,3.5a1.236,1.236,0,0,0,.95.15q1.05-.2.85-1.7-.2-1.55-.3-2.75-.2-1.2-.4-4.8-.2-3.649,2.6-8.4,2.75-4.8,3.95-3.25a10.506,10.506,0,0,1,1.4,6.8,53.627,53.627,0,0,1-1,7,3.19,3.19,0,0,0,.4,2.5q2.6,2.4,2.3,4.5-.2,2.2-3.2,3.6-8.3,3.8-12.5,5.7-7.3,3.3-12.2,6a18.008,18.008,0,0,1-9.8,2q-6.5-.8-10.45-1.05a19.086,19.086,0,0,0,2.5-5.8,72.706,72.706,0,0,0,.8-8.05,82.97,82.97,0,0,0,.15-9.3,20.429,20.429,0,0,0-2.9-10.3,3.109,3.109,0,0,1-.2-2.7,3.008,3.008,0,0,1,1.9-2,1.949,1.949,0,0,1,1.9.9q3.7,4.6,2.6,12.2-.7,4.4-1.55,10.15a77.148,77.148,0,0,0-.9,7.9,31.582,31.582,0,0,0,.1,3.7q.15,1.5,1.55,1.15.349-.1.65-.75a15.254,15.254,0,0,0,.3-4.15,58.99,58.99,0,0,1,.7-8.8q.75-5.3,2.7-13.85a2.262,2.262,0,0,1,1.35-1.65,1.805,1.805,0,0,1,1.7-.2q.649.351,1.6,2.7.9,2.3-.2,8.5-.4,2.4-1,7.3a21.428,21.428,0,0,1-1.8,6.35q-1.151,2.05.1,3.25.9.851,2-2.3,1.1-3.2,1.7-5.2a38.334,38.334,0,0,0,1.3-6.2q.4-3.549.7-6.6a14.636,14.636,0,0,0-.6-5.9q-.9-2.9-2.05-3.75a3.827,3.827,0,0,0-3.4-.3q-2.15.6-2.9-1a3.02,3.02,0,0,1-.35-2.45q.4-.8,2.05-3.55t2.95-2.65a2.246,2.246,0,0,1,2,1.5q.1.2,1.05,2.25.9,2,2.15,2.2a1.755,1.755,0,0,0,1.85-.95,26.588,26.588,0,0,0,1.7-4.05q1.05-3,1.65,1.2.6,4.15,2.25,2.6t.8-4.35a6.1,6.1,0,0,0-3-3.9q-2.2-1.1-3.75,3.25-1.6,4.35-3.7-1.65-.4-1.95-2.55-1.4-2.149.5-2.65-.2-.4-.4-.6-3.75-.251-3.35-.75-7.35-.5-4.05-.85-7a22.724,22.724,0,0,0-.5-2.6q-.25-.95,1.3-.45a14.73,14.73,0,0,0,2.35.55q.8.1,3.2.25,2.3.1,12.25-.55l15.8-.1m9.45,1.75q-.049-2.2.95-2.1.3-.2.55,3.25.2,3.4,1.25,16.3a160.4,160.4,0,0,1,.7,18.45q-.3,5.55-.65,11.85a37.058,37.058,0,0,1-1.15,8.4,118.721,118.721,0,0,1-15.2,7.2q-14.6,6-15.6,6.4-9.3,4.4-21.7,3.2-16.4-1.7-20.2-2.2a7.9,7.9,0,0,1-6.4-4.7q7.4,1.4,17,2.4,5.5.5,16.9,1.5a19.2,19.2,0,0,0,11.5-2q14.3-7.3,25.1-11.9,5.4-2.4,4.8-8a37.782,37.782,0,0,1,.2-9.4q.9-6.1,1.1-9.2.5-6,.7-14.9.2-9.9.15-14.55M27.1,57.732q3.2,11.9.3,21.1-1,4.6-4.3,5.8-2.4.8-7.5,0-3.9-.3-4.6-1-.9-.7-1.45-3.85a64.773,64.773,0,0,1-.3-11.25q.25-8.1.75-8.85a23.051,23.051,0,0,1,1.5-2.05,2.927,2.927,0,0,1,2.05-1.3q1.05-.1,1.55,1.3.3.9,1.3,5.25a21.213,21.213,0,0,1-.15,9.25q-1.1,4.9-2.3,6.5a4.747,4.747,0,0,0-1.25,2.55q0,.951,1.35.8t2.6-3.45q1.25-3.349,1.3-1.6a6.275,6.275,0,0,0,.75,3.1,1.246,1.246,0,0,0,2,.5q1-.9,0-5.75a24.672,24.672,0,0,1-.35-8.9Q22,55.832,24.1,54.332q1.7-1.3,3,3.4m26.3-5.1a2,2,0,0,1,1.5-1.1q.851-.2,1.55.95a11.325,11.325,0,0,1,1.05,4.2,16.889,16.889,0,0,1-.5,6.05,32.17,32.17,0,0,1-2.65,7.2q-1.85,3.651-.75,4.9,1.35,1.65,4.45-5a29.09,29.09,0,0,0,2.35-14.8,8.642,8.642,0,0,0-1.7-4.2q-1.4-2.2-2.8-2.4-4-.3-5.8,3.85-1.8,4.1-2.6,12.45a21.247,21.247,0,0,0,.2,4.9q.2,1.7.5,3.8a4.838,4.838,0,0,0,.85,2.6,1.11,1.11,0,0,0,1.35.1q1.45-.549.6-4.1a50.026,50.026,0,0,1-1.1-5.2,21.79,21.79,0,0,1,1.4-8.7,53.261,53.261,0,0,1,2.1-5.5"/></svg>