<svg overflow="visible" width="100%" height="100%" viewBox="0 0 29.456 116.027" xmlns="http://www.w3.org/2000/svg"><path d="M16.325.01q-4.6,0-6.5.9-3,1.3-2.7,5.4l.9,38.7a3.709,3.709,0,0,1-2,3.5,11.783,11.783,0,0,0-4.9,5.3,12.8,12.8,0,0,0-1,7.1,13.2,13.2,0,0,0,6.2,9.7,5.42,5.42,0,0,1,2.3,2.7,9.444,9.444,0,0,1,.3,3.4q-.5,13.2-.5,23.8a23.518,23.518,0,0,0,1.3,7.9,12.349,12.349,0,0,0,5.2,6.3q5.7,3.5,7.7-2.3a34.521,34.521,0,0,0,1.65-11.2q.05-7.6.15-11.4.2-5,.2-7.5,0-4.4-.3-7.4a7.387,7.387,0,0,1,1.9-6.1,12.239,12.239,0,0,0,3.2-7.6,11.372,11.372,0,0,0-2.3-7.4q-2.3-3.4-1.5-9.4,1-8.2.8-9.9-.2-9-1.2-26.3-.5-8.5-8.9-8.2m-6.6,7.7q-.1-3.2.3-3.7.6-.8,3.85-1.35,8.351-1.05,8.8,5.6.7,10.151.65,19.75-.1,2.9,0,8.7a36.143,36.143,0,0,1-.5,7.3q-.551,2.1-1.55,2.55a15.157,15.157,0,0,1-4.7.5q-3.75.05-4.75-.95-1-.9-1.2-7.2l-.9-31.2m-4.7,44.9a11.054,11.054,0,0,1,2.9-2.05,16.189,16.189,0,0,1,5.85-1.1,16.186,16.186,0,0,1,5.4.3,6.818,6.818,0,0,1,4.35,3.35,29.311,29.311,0,0,1,2.6,5.05,9.254,9.254,0,0,1,.1,5.25,10.106,10.106,0,0,1-5,6.7,10.162,10.162,0,0,1-8.3.85,14.615,14.615,0,0,1-9.1-7.35q-2.9-5.7,1.2-11m14.7,21.5a2.455,2.455,0,0,1,1.9.4,2.512,2.512,0,0,1,.4,1.7q-.1,14.9-.8,29.8a17.986,17.986,0,0,1-1.2,5.3q-.9,2.8-3.7.9-3.8-2.4-4.45-7.8a65.4,65.4,0,0,1-.7-9.4q.5-12.75.5-19.65-.05-1.45,3.1-1.25h4.95m-4.5-22q-1.2-.249-1.9,3.05a7.065,7.065,0,0,0,.8,5.55q1.5,2.3,5.2,2.4,2.25.1,2.45-1.3.15-.95-2.45-1.15-2.6-.25-2.55-2.5a36.192,36.192,0,0,0-.2-4.05q-.2-1.8-1.35-2m.5-9.05q0,1.1,1.25,1.3,1.249.15,1.3-1.25.05-1.45-1.25-1.25-1.3.1-1.3,1.2m2.8-10.25a1.272,1.272,0,0,0-.95-1.05,1,1,0,0,0-1.35.35,1.344,1.344,0,0,0,.15,2,2.108,2.108,0,0,0,.85.25,1.548,1.548,0,0,0,.95-.4,1.222,1.222,0,0,0,.35-1.15m-1.65-11.95a1.279,1.279,0,0,0-1.3.1,1.611,1.611,0,0,0-.65,1.35q-.05.9,1.5.95,1.5,0,1.3-1.05-.15-1.1-.85-1.35m-.85-10.1a1.28,1.28,0,0,0,1.3-1.3q0-1.149-1.35-.9t-1.3,1.3q.049,1,1.35.9"/></svg>