<svg overflow="visible" width="100%" height="100%" viewBox="0 0 116.307 108.327" xmlns="http://www.w3.org/2000/svg"><path d="M111.735,19.577q-1.7-2.9-8.8-9.7a28.391,28.391,0,0,0-16.2-8q-27.4-4.2-48.7,1-30.5,7.9-35.8,24.1a33.25,33.25,0,0,0,.2,20.4q1.7,5.1-.4,8.4-2.3,3.8-2,5.3a20.73,20.73,0,0,0,2.5,5.2,8.964,8.964,0,0,0,4.3,4.3,11.772,11.772,0,0,1,3.7,2.4,6.032,6.032,0,0,1,1.5,4.3q-.1,2.2,2.3,6.3a4.968,4.968,0,0,1,.8,2q-.2.7-1.7,1.2-3.2,1-2,4.6a35.61,35.61,0,0,1,1.5,6.7q1,3.9,4,5.1,7.2,3.4,18.5,4.1,6.4.4,19.1,1a13.726,13.726,0,0,0,9.2-2.4,21.835,21.835,0,0,0,5.9-6.45q2.55-4.2,2.75-4.75a19.645,19.645,0,0,0,.5-3q.249-2.5.35-6a42.048,42.048,0,0,1,.3-4.7,4.78,4.78,0,0,1,1.7-3.5,4.225,4.225,0,0,1,3.6-.8,32.292,32.292,0,0,0,16.2-1q9.1-2.8,13.4-8.7a52.728,52.728,0,0,0,7.4-35.1q-2.6-9.7-4.1-12.3m-5.3,45.5a9.134,9.134,0,0,1-2.2,2.6q-5.4,4.6-14.4,6.2a9.334,9.334,0,0,1-5.1-.8q-6.5-2.7-10.8-1.4-1.7.5-16.8,4.3a72.8,72.8,0,0,1-17.9-1.4q-2.2-.3-17.7-3.8l-12.5-2.8q-3.2-.7-4.7-4.4-1.6-3.7.3-6.5,2.9-4.6.6-10.2a24.409,24.409,0,0,1,.6-21.1,32.32,32.32,0,0,1,10.7-11.5,50.96,50.96,0,0,1,14.3-6.5q14.8-3.8,15.8-4a60.952,60.952,0,0,1,16.4-1.4q3.9.3,11.6.9a93.689,93.689,0,0,1,11.5,1.6,39.8,39.8,0,0,1,21.7,13.8,38.146,38.146,0,0,1,5.6,23.2,56.794,56.794,0,0,1-7,23.2m-91.9,7.5q2,.3,19.9,4.1,12.1,2.5,17.05,2.55,4.9,0,5.8.5t.55,1.3q-.4.748-1.7,2.75-1.5,2.8-2.2,2.9-.7,0-2.7-2.3-1.9-2-2.7-2-.8-.051-2.65,1.75t-2.75,0a23.8,23.8,0,0,0-2.2-3.5q-1.251-1.65-3.8.15-2.6,1.749-3.25,1t-1.8-2a2.716,2.716,0,0,0-2.15-1.2,9.558,9.558,0,0,0-2.8,1.5q-1.05.75-1.7-.5-2.3-4.851-4-4.4-1,.3-5.3,5.8-.75.75-1-1.2l-.6-7.2m51.5,3.7q1.5-.3,4.15-.8,2.649-.55,2.15.2a17.8,17.8,0,0,0-2,7.4q-.2,2.4-.1,8.1v.05a5.891,5.891,0,0,1-.8,3.9q-2.4,3.15-3.5,4.75a13.335,13.335,0,0,1-11.4,5.8q-13.2-.1-19.1-.7-10.6-1.2-14.65-3.2-4.05-2.051-4.45-3.15a3.255,3.255,0,0,1-.3-1.55q0-.8,2.5-.3,1.8.4,6.5,1.6,4.1,1.1,6.5,1.5a59.972,59.972,0,0,0,14.8.2q2.3-.2,14.7-2a3.132,3.132,0,0,0,1.7-.8,9.4,9.4,0,0,0,2.55-4.1q.75-2.451-2.05-1.7a4.693,4.693,0,0,1-1.9.3,4.8,4.8,0,0,1-2.8-1.8q-1.5-1.5-1.1-2.4,1.4-3.4,2.1-5.1a13.358,13.358,0,0,1,2.7-4.5,7.768,7.768,0,0,1,3.8-1.7m-9.2,19.85q-2.85.3-6.2.7-3.4.35-5.7.55a34.826,34.826,0,0,1-6.9.1,145.074,145.074,0,0,1-19.7-3.9q-3.1-.7-2.7-2.7a10.336,10.336,0,0,1,1.25-2.4q1.1-1.551,3.3.05a13.359,13.359,0,0,0,2.05,1.55q1.9.8,4.6-1.1a7.529,7.529,0,0,1,2.8-1.05q1.1-.1,3.95,2.5,2.8,2.549,6.5-.75,3.7-3.351,4.4-1.15a5.968,5.968,0,0,0,2.95,3.4,6.294,6.294,0,0,0,3.95,1,32.535,32.535,0,0,0,3.65-.75,3.082,3.082,0,0,1,2.7.9,16.956,16.956,0,0,1,1.5,1.9q.45.849-2.4,1.15m-4.8-7.2q.849.949-.45,1.7a2.985,2.985,0,0,1-2.15.45,3.339,3.339,0,0,1-1.5-1.25q-.8-1.051-1.45-1.9-.7-.951-.45-1.5a1.919,1.919,0,0,1,.7-.95,2.243,2.243,0,0,1,.95-.45q.5-.1,2,1.45,1.449,1.5,2.35,2.45m-11.05-4.5q.35.75.2,1.05-.15.249-.75,1.05a11.959,11.959,0,0,1-2.65,1.95,2.389,2.389,0,0,1-3.45-.75,6.563,6.563,0,0,0-2.7-2.4q-1.3-.5-4.2.75a22.468,22.468,0,0,1-3.8,1.3,2.751,2.751,0,0,1-2.3-1.2q-2.2-2.4-2-4a4.379,4.379,0,0,1,1.3-2.1q1.2-1.35,2.45.75a5.832,5.832,0,0,0,1.8,2.2q1.249.748,3.3-.65t3.2.7q1.1,2.1,4.1.7,3-1.45,4.05-.75a3.91,3.91,0,0,1,1.45,1.4m5.25-38.75a21.819,21.819,0,0,0,.4,12q1.2,4.3,6.8,6.7,5.5,2.3,9.1,0,10.7-6.8,10.2-17.7a13.68,13.68,0,0,0-.65-3.8q-.55-1.6-3.6-4.65-3.051-3.1-5-3.5a9.738,9.738,0,0,0-4.25.15,24.938,24.938,0,0,0-5.4,2,12.642,12.642,0,0,0-7.6,8.8m2.7,10.2q-.1-.8-.4-5.4-.4-6.5,4-9.6,3.8-2.8,10.2-2.4,2.5.2,4.8,3.1a8.359,8.359,0,0,1,2.3,5.4q0,9.5-8.3,14.7-2.9,1.9-7.4-.2-4.4-2-5.2-5.6m-18.8,2.7q-1,.5-1.45,2.9a3.543,3.543,0,0,0,1.55,3.85,8.892,8.892,0,0,0,3.9,1.8q1.95.3,1.25-3.6-.75-3.951-2.95-4.85a2.211,2.211,0,0,0-2.3-.1m2.7-13.7q.5-7.5.4-7.7-.4-4.4-4.4-5.4-6.5-2-11.1,1.9-2.9,2.5-4.4,8.1-1.7,5.9.8,9.3t8.6,3.4q4.9-.1,7.3-2.4t2.8-7.2m-8.5-10.5q2.9-.9,4.6.6,1.8,1.5,1.6,4.8-.2,2.1-.8,7-.3,3.6-4.4,4.5a11.656,11.656,0,0,1-6.9-.5,4.85,4.85,0,0,1-2.9-3.4,7.3,7.3,0,0,1,.4-4.75q1.05-2.651,1.55-3.65a6.181,6.181,0,0,1,2.05-2.35,12.879,12.879,0,0,1,4.8-2.25"/></svg>