<svg overflow="visible" width="100%" height="100%" viewBox="0 0 100.214 115.902" xmlns="http://www.w3.org/2000/svg"><path d="M90.036,1.468a28.6,28.6,0,0,0-2.75,3.65q-2.049,2.951-5.65,7.95-.1.2-6.6,8.7a12.171,12.171,0,0,0-1.3,4,20.646,20.646,0,0,1-.9,4.1,100.7,100.7,0,0,1-6.7,10.4q-7.3,9.7-16.3,23.4-5.2,8-15.4,24-3.1,4.7-5,5.3-1.8.6-7.1-1.6-10.2-4.6-15.4-6.6-6.5-2.8-6.9,10a155.107,155.107,0,0,0,.7,17.2q.1,2.7,1,3.4.9.8,3.7.4,12.2-1.5,14.2-1.9l13.1-2.7q2.6-.7,3.3-1.7.8-1.1.3-3.6a7.79,7.79,0,0,1,1.7-6q8-10.9,11.6-16.6,3.8-6.1,28.9-48,2.3-3.5,2.8-4.1a106.909,106.909,0,0,0,16.7-22.6q2.8-4.8,2-6.4T93.286.018a2.944,2.944,0,0,0-2,.35,7.269,7.269,0,0,0-1.25,1.1m4.3,3.45q-1.149-3.65,1.25-2.8,2.4.9,2,2.7a6.817,6.817,0,0,1-1.3,2.75q-.849,1-1.95-2.65m-5.4,6.3q-1.35-3.45,0-5,1.35-1.6,2.2-2.55.8-.949,1.7,2.6.951,3.5.25,5.35a17.53,17.53,0,0,1-2.55,4.05,34.1,34.1,0,0,0-1.6-4.45m-1.75,2.35a33.322,33.322,0,0,1,1.05,4.8,11.209,11.209,0,0,1-1.95,3.3q-1.549,1.9-2.65-.45a21.266,21.266,0,0,1-1.4-3.7,2.83,2.83,0,0,1,.5-2.4q.8-1.1,2.15-3.1,1.35-2.049,2.3,1.55m-7.55,6.3q.8-.649,1.95,2.35t.95,3.45q-.249.4-1.3,1.95-1.1,1.551-2.85-.25t-1.55-2.8a8.133,8.133,0,0,1,1.05-2.35,8.322,8.322,0,0,1,1.75-2.35m-2.9,10.65q.951-.05.75.7-.1.251-1.15,2.05-23.3,38.8-29.5,48.8-2.9,4.8-9.7,13.8a31.456,31.456,0,0,0-3.05,5.4,8.907,8.907,0,0,0-.85,3.9,3.121,3.121,0,0,1-.55,2.35,6.647,6.647,0,0,1-3.1,1.2q-2.4.5-24.25,4.15-2.2.5-2.2-1.9,0-18,.1-20.3.1-2.5,1-3t3.4.5q1.9.8,8.8,3.7,5.3,2.3,8.7,3.4,4.4,1.3,6,.7,1.4-.5,4-4.4,4.4-6.5,20.6-31,11.9-18.1,19.6-29.4a1.76,1.76,0,0,1,1.4-.65m-63.65,65.3q-1.249-.4-1.5.6-.45,2-1.15,5.35a31.523,31.523,0,0,0-.7,5.6q-.05,2,1.1,2.2,1.4.15,1.65-1.95.25-2.149.55-5.05.4-2.6,1-3.1.6-.4,3.6.05l5.8.85a18.414,18.414,0,0,0,4,.2,1.3,1.3,0,0,0,1.2-1.5q-.3-1.2-1.9-1.2l-7.5-1a59.612,59.612,0,0,1-6.15-1.05"/></svg>