<svg overflow="visible" width="100%" height="100%" viewBox="0 0 114.822 70.13" xmlns="http://www.w3.org/2000/svg"><path d="M114.118,4.408a21.106,21.106,0,0,0-.45-4.2q-.251-.249-1.35-.2-1.1,0-14.8,2-13.7,1.95-22.5,3.35a188.5,188.5,0,0,1-26.7,2.8q-6.6,0-15.8.5-10.6.7-15.9,1a4.58,4.58,0,0,0-3.1,1.85,9.012,9.012,0,0,0-1.8,2.45,11.447,11.447,0,0,0-.4,2.35,80.443,80.443,0,0,0-.05,8.25q.15,6.7.65,12.4.05.9.1,1.65,0,1.8-1.65,1.55a26.875,26.875,0,0,0-5.95-.5q-4.7.2-4.4,4.6.2,1.4.45,7.15.1,1.751.25,2.75a6.056,6.056,0,0,0,.35,1.45q.15.45,3.45.85l.5.1a9.245,9.245,0,0,1,4.1,1.4q1.6,1.2,1.2,4.3a4.972,4.972,0,0,0,1.6,3.8,5.554,5.554,0,0,0,3.5,2.2,7.018,7.018,0,0,0,4.8-1.4,7.447,7.447,0,0,0,2.9-4.1q.8-2.4,3.4-1.7a73.636,73.636,0,0,0,10.15,1.8,29.132,29.132,0,0,0,5.7.25,12.66,12.66,0,0,0,.45,1.55q2.1,6.1,8.2,5.4,6.1-.6,5.4-7.7a4.331,4.331,0,0,1,.3-2.3,3.143,3.143,0,0,1,1.9-1.2q5.9-1.8,17.6-5.8a130.474,130.474,0,0,1,18-4.5q2.5-.6,2.8,1.2a3.707,3.707,0,0,0,2.1,2.7,8.669,8.669,0,0,0,3.3.3q3.7-.1,4.4-4.1a6.84,6.84,0,0,1,1.7-3.9,6.8,6.8,0,0,1,3.6-1.5q2.15-.3,2.5-1.2a6.857,6.857,0,0,0,.1-3,166.769,166.769,0,0,1-.55-18.6q.15-12.1-.05-16.05m-9-1.2a14.252,14.252,0,0,1,3.85-.2q2.149.1,2.25,1.45.1,1.251-.05,5.95-.15,4.65.05,27.05a4.53,4.53,0,0,1-.9,3.1q-.9,1.1-4.4.9a15.072,15.072,0,0,0-6.85,1.1q-2.65,1-3.1,2.5a1.94,1.94,0,0,1-1.75,1.3l-17.3,4.3q-12.7,3.6-17.25,4.7-3.6.851-5.6,1.45-2,.5-2.55-.75a13.124,13.124,0,0,1-.85-4.2,11.424,11.424,0,0,0-.75-3.85q-.55-.95-1.55-3.15a15.756,15.756,0,0,1-1.15-6.15,113.1,113.1,0,0,0-1.3-15.45q-1.6-8.3-8.2-9.7l-6.9-.85q-5.651-.6,0-.85,2.5-.2,16.9-.8,10.3-.4,16.8-1.1,1-.1,19.9-3.25t20.7-3.5m-91.1,17.15q-.1-3.1.8-4.1.9-1.1,4-1.1,7.2,0,18.2,1.1,4.4.5,5.3,4.6a59.194,59.194,0,0,1,1.5,8.2q.3,2.8.65,9.15a53.982,53.982,0,0,0,.6,6.5q-3.15-.45-9.35-1.15l-18.65-2.5q-1.9-.15-2.05-1.25a25.293,25.293,0,0,1-.25-3.5q-.05-2.349-.35-7.75-.4-5.5-.4-8.2m-10.35,22.4q.5-.6,2.9-.1l25.55,3.6q2.3.4,7.85.75,3.349.15,4.95.25,2.351.2,3.25,8.35a2.464,2.464,0,0,1-1.5.55,3.516,3.516,0,0,0-2,.95,17.1,17.1,0,0,0-2.45,3.2q-1.25-.05-3.2-.3-7.751-1.05-10.2-1.45-4.65-.75-13.45-2.55t-10.5-1.95q-1.7-.15-1.65-.45v-2.35q-.051-2.1-.1-3.45t0-2.9a3.636,3.636,0,0,1,.55-2.15m15.15,16.8q1.7.7,1.8,1.7a3.551,3.551,0,0,1-1.3,2.7,4.73,4.73,0,0,1-2.9,1.4,2.9,2.9,0,0,1-2.4-1.4,5.184,5.184,0,0,1-1.1-3.3q0-2.1,1.9-2a11,11,0,0,1,4,.9m28.3.1a5.141,5.141,0,0,1,3.3-.55,3.157,3.157,0,0,1,2.3,1.45,8.914,8.914,0,0,1,.95,4q.15,2.8-3.75,2.7-3.8-.1-4.15-3.45t1.35-4.15m53.4-13.5a2.418,2.418,0,0,1,2.2-.75q1.35.1,1.35,1.65-.051,3-2.55,2.9a2.458,2.458,0,0,1-1.1-.4,1.721,1.721,0,0,1-.7-1.5,2.45,2.45,0,0,1,.8-1.9m-69.5,3.6a4.712,4.712,0,0,0-2.4.95,3.794,3.794,0,0,0-1.1,2.35q-.55,2.85,2.85,3.9a3.254,3.254,0,0,0,3.45-.95q1.6-1.6,1.25-3.05a4.9,4.9,0,0,0-1.4-2.45,2.974,2.974,0,0,0-2.65-.75m-1.4,4.1q-.25-1.35,1.35-1.95,1.549-.6,1.75,1.25t-1.35,1.8q-1.6-.1-1.75-1.1m-16.75-6.35a6.993,6.993,0,0,0-2.55-1.35q-1.4-.4-2.9,1.45t-1.1,3.1a5.634,5.634,0,0,0,1.05,2.1,2.669,2.669,0,0,0,2.05.95,4.533,4.533,0,0,0,3-1.2,3.557,3.557,0,0,0,1.5-2.6,2.771,2.771,0,0,0-1.05-2.45m-1.5,1.3q.5.6-.2,2.25-.75,1.65-2.05-.05-1.35-1.7.2-2.25,1.55-.6,2.05.05m51.05-9.35q-.1.8-.2,1.25-.15.4-1.45.45t-2.25.1q-1.7.051-1.95.35a.673.673,0,0,0-.2.6q.05.3.1.8.049.45.65.7a9.413,9.413,0,0,0,2.7.3,16.97,16.97,0,0,1,2.7.2,5.081,5.081,0,0,0,.45,1.1q-.4,0-2.6.05a9.885,9.885,0,0,0-2.85.3q-.6.2-.6,1.45t1.75,1.45a9.538,9.538,0,0,0,3.8-.7,4.958,4.958,0,0,1,2.8,0,2.624,2.624,0,0,1,.5.2q.8.2,2.55.7a5.826,5.826,0,0,0,4.4-.5,22.858,22.858,0,0,0,2.85-1.9,4.214,4.214,0,0,0,1.25-2.2,4.36,4.36,0,0,0,0-2.45,23.646,23.646,0,0,0-1.15-2.6q-.851-1.65-3.85-2.4-3-.8-4.25-.3t-3.15,1.4q-1.9.851-2,1.65m8.5-.2a3.328,3.328,0,0,1,2.2,1.4,16.366,16.366,0,0,0,.8,1.45,1.2,1.2,0,0,1-.05,1.2q-.349.7-.7,1.4a4.176,4.176,0,0,1-1.6,1.3,3.983,3.983,0,0,1-2.55.45,5.561,5.561,0,0,1-1.85-.55,3.944,3.944,0,0,1-1.1-1.2,2.777,2.777,0,0,1-.6-1.8q0-.9.05-1.75-.049-.9,1.1-1.4,1.151-.549,1.85-.8a4.468,4.468,0,0,1,2.45.3m38.3-25.45q-.3-5.949-.45-6.55t-2.95-.2q-5.2.7-7.4.9l-47.75,7.9a1.231,1.231,0,0,0-.6.5,1.1,1.1,0,0,0-.3.8,7.025,7.025,0,0,0,.1,1q.05.651.65,5.3.6,4.6,1.4,8.2a6.357,6.357,0,0,0,4.1,3.6,9.773,9.773,0,0,0,5.7.3q11.3-1.7,11.8-1.8a137.295,137.295,0,0,0,32.6-8.1q.7-.2,2.1-.7,1.1-.6,1.15-2.9t-.15-8.25m-2.7-2.8q.049,2.151.2,3.55.4,3.8.5,5.95.1,2.1-.75,2.4t-2.6.75q-1.751.4-1.95-.8t-.8-4.15q-.6-2.949-.9-4.5-.35-1.6-.5-2.55-.15-1,.3-1.15a6.821,6.821,0,0,1,1.1-.25q.3-.049,4.05-.55,1.4-.2,1.35,1.3m-27.55,4.1q0-.9,2.65-1.55,2.6-.649,3.6.15.949.8,1.75,4.75.8,4,1.15,5.7.5,2.9-.1,3.7-.7.8-3.8,1.1a2.128,2.128,0,0,1-2.7-1.9q-.1-.6-1.3-5.8-1.2-5.25-1.25-6.15m-12.1,1.9q.049-.7,1.7-1.1l5.8-.85q2-.3,2.4,2.1l1.5,10.1q.251,2.351-3.45,3a25.551,25.551,0,0,1-4.75.5q-1-.1-1.85-5.15-.8-5.049-1.1-6.5a8.539,8.539,0,0,1-.25-2.1m-1.95,5.65.5,3.4q.5,4.6-.4,5.6-.8,1-5.5,1.1-2.9.1-3.9-.7-1.1-.8-1.5-3.6-.4-4.2-.7-7-.2-1.3-.35-2.25-.25-1.3,2.4-1.65l6.9-.95a1.38,1.38,0,0,1,1.7.8c.033.134.066.3.1.5a34.652,34.652,0,0,0,.75,4.75m29.9-11.25q2-.349,2.2.4.15.75.45,2.5.251,1.75,1.05,5.4.75,3.651.85,4.7t-3.75,2.2q-3.85,1.1-4.5-.1l-2.3-12.35q-.3-1.7,2-2.1,1.95-.35,4-.65"/></svg>