<svg overflow="visible" width="100%" height="100%" viewBox="0 0 116.67 60.623" xmlns="http://www.w3.org/2000/svg"><path d="M112.2,51.606q3-.15,3.65-.95t.8-3.6a13.109,13.109,0,0,0-1.05-5.75,42.209,42.209,0,0,0-2.8-5.1q-5.8-10.2-16.1-9a20.4,20.4,0,0,1-3.75.25,21.519,21.519,0,0,1-4.7-.8,5.86,5.86,0,0,1-4.05-3.95,36.14,36.14,0,0,0-3.8-8.5q-3.2-5.4-4.7-8.2-3.1-6.2-13.6-6l-50.6.7Q6,.906,3,4.006a11.507,11.507,0,0,0-3,8.6q.2,12,3.7,19.7a52.674,52.674,0,0,1,3.2,14.8q.3,4,3.9,4.9a11.972,11.972,0,0,0,6.9-.5,6.8,6.8,0,0,1,3-.4q1.2.3,2,2.2a7.427,7.427,0,0,0,1.45,2,6.382,6.382,0,0,0,3.3,1.65,7.937,7.937,0,0,0,4.15,0,9.324,9.324,0,0,0,3.6-2.25q.6-.5,3.8-.8,21-.5,36.2-.4a9.759,9.759,0,0,1,1.8.1,2.8,2.8,0,0,1,1.5,1.3q3.2,5.4,7.5,5.7,4.4.3,8.1-4.7a4.581,4.581,0,0,1,2.5-1.9,88.28,88.28,0,0,1,15.6-2.4m.6-9.8a6.754,6.754,0,0,1,1.1,5q-.5,2.4-3.2,2.3-7.5-.2-11,1.1-3.5,1.251-4.1.85a2.666,2.666,0,0,1-.95-1.4,5.413,5.413,0,0,0-1.8-2.25q-1.45-1.249-5.4-1.9a6.706,6.706,0,0,0-6.7,2.55,7.506,7.506,0,0,1-6.2,3.05H40.4a5.409,5.409,0,0,1-3-.5,4.177,4.177,0,0,1-1.6-2.6,9.065,9.065,0,0,0-4.5-5.2,10.45,10.45,0,0,0-6.9-1.6,4.934,4.934,0,0,0-4.15,4.2q-.7,3.5-5.05,3.7t-4.75-.65a14.542,14.542,0,0,1-.55-3.65,46.174,46.174,0,0,0-2-8.8q-.9-3.2-3.8-10.7a21.747,21.747,0,0,1-1.4-7.7q0-1.3.4-7.9a5.45,5.45,0,0,1,2.8-4.6,10.081,10.081,0,0,1,5.55-1.65l47.75-.55a8.3,8.3,0,0,1,2.9.2q1.3.4,1.4,2.3.4,3.9,1.7,11.7a11.208,11.208,0,0,0,6.2,8.9,23.563,23.563,0,0,0,7.7,2.1q6.95,1.05,8.8,1.25,8.149.85,11.6.85a10.085,10.085,0,0,1,8.2,3.7,52.765,52.765,0,0,1,5.1,7.9M80.5,26.256a25.972,25.972,0,0,1-6.9-2.35q-5-2.2-6.1-8.9-.4-6.649-1-10.25-.35-1.6,1.2-1.3a7.582,7.582,0,0,1,5.5,3.95q1.6,2.6,4.6,7.5a37.779,37.779,0,0,1,3.7,7.25,18.758,18.758,0,0,1,.85,3.4q.1,1.05-1.85.7m-48.9,20.1a3.944,3.944,0,0,1,1.9,2.5,9.137,9.137,0,0,1-.4,3.3q-.6,2.051-3.3,1.9a8.3,8.3,0,0,1-5.05-2.9q-2.149-2.449-1.9-3.95a5.222,5.222,0,0,1,.65-2.05,2.109,2.109,0,0,1,.9-.75,5.488,5.488,0,0,1,4.1.2,15.4,15.4,0,0,1,3.1,1.75m49.7,6.75a4.865,4.865,0,0,1,1.5-2.8,4.334,4.334,0,0,1,2.6-1.6,8.144,8.144,0,0,1,4.4,1.4q2.3,1.3,2.2,2.6a5.223,5.223,0,0,1-2.1,3.7,5.318,5.318,0,0,1-4,1.5,5.144,5.144,0,0,1-3.3-1.7,3.948,3.948,0,0,1-1.3-3.1"/></svg>