<svg overflow="visible" width="100%" height="100%" viewBox="0 0 109.51 117.012" xmlns="http://www.w3.org/2000/svg"><path d="M91.178,27.061q-2.1-.9-5.2.7-3.8,1.9-5.3,1.9-8.1.7-10.7-5.9-.9-2.2-2-2.5a4.549,4.549,0,0,0-3.05.7l-1.15.7q-.7.651-4.1.75a15.84,15.84,0,0,1-5.45-.6q-2.049-.75-2.95-5.45-.8-4.1-4.7-3.2a32.561,32.561,0,0,1-7.4.4q-3.9-.8-3.2-4.4a36.847,36.847,0,0,0,.75-6.2,10.641,10.641,0,0,0-.35-3.6q-.45-1.1-7.55,1.15-7.1,2.2-10,5.05t-10.35,12.8q-7.5,9.9-8.4,28.15a65.756,65.756,0,0,0,3.4,23.85q3.5,11.1,16.15,27,12.6,15.85,30.6,18t30.2-2.8a33.671,33.671,0,0,0,18-17.1q5.8-12.1,6.85-15.95,1-3.849,2.15-9.35a108.667,108.667,0,0,0,1.65-11.2,93.481,93.481,0,0,0,.4-11.4q-.15-5.649-.5-8.7-.4-3.1-1.15-6.9-.8-3.849-1.1-4.7a12,12,0,0,0-.85-1.75,2.755,2.755,0,0,0-1.3-1.25,1.69,1.69,0,0,0-1.75.2,6.112,6.112,0,0,0-1.45,1.1,10.268,10.268,0,0,1-3.15,1.45q-2.649.851-7.05-.95m-14.8,5.4a12.477,12.477,0,0,0,10.2-1.6,5.473,5.473,0,0,1,4.5-.6q7.7,2,12.4-2.5,1.7-1.5,2.6,12.1a112.791,112.791,0,0,1-1.3,26.5q-1.5,8.3-3.4,15.25-1.95,6.9-9.5,18.5-7.6,11.5-22.1,13.95a50.928,50.928,0,0,1-26.95-2.45,52.984,52.984,0,0,1-20.55-13.85q-24.5-27.8-16.9-61.3a56.6,56.6,0,0,1,7.7-19q6.5-9.9,13.95-12.6,7.4-2.749,7.5-1.3a18.367,18.367,0,0,1-1.05,5q-1.4,5.4,2.7,7.8,3.6,2.2,9,1.2,3.4-1.1,3.8,2.3.5,4.7,6.4,6.2,5.5,1.4,9.5-.9,1.3-.8,2-.5a3.41,3.41,0,0,1,1.4,1.6,11.835,11.835,0,0,0,8.1,6.2m-33.3,68.1q-.1,3.5,3.9,3.3,4-.3,4-3.6,0-3.4-3.9-3-3.9.5-4,3.3m15.25-31.3q-1.85.9-2.25,4-.7,5.9,2.55,6.1,3.2.15,6.2-2.8.9-.9.65-3.25a4.589,4.589,0,0,0-2.75-3.65,4.813,4.813,0,0,0-4.4-.4m1.05,3.6q2.4-2,2.8,1,.351,2.95-2.45,1.95t-.35-2.95m-13.8-21.2q-3.1-.5-4.4,3.4-1.2,3.8,2.2,4.5,2.6.2,4.1-3.6,1.5-3.7-1.9-4.3m-18.1,21.2a3.076,3.076,0,0,0-1.7-3.15,11.039,11.039,0,0,0-3.4-1q-2.9-.05-3.1,3.65-.6,5,3.7,5,4.2,0,4.5-4.5m-2.85,1.6a2.3,2.3,0,0,1-1.4.65q-.95.15-1.85-1.25-.95-1.449,1.45-2.45,2.351-1,2.3.8a4.48,4.48,0,0,1-.5,2.25m4.1-43q-1.1.45-1.65,3.4a11.194,11.194,0,0,0,.4,4.1,2.421,2.421,0,0,0,1.7,1.6,3.666,3.666,0,0,0,4.2-.8,4.1,4.1,0,0,0,1-3.9,6.022,6.022,0,0,0-2.5-3.2q-2.1-1.7-3.15-1.2m.4,4.9q-.3-1.149,1.05-1.75,1.4-.6,1.75,1.9.351,2.451-1.05,1.7a3.118,3.118,0,0,1-1.75-1.85m53.75,45.4q.4,1.9,1.7,2.1a6.893,6.893,0,0,0,3.15-.55q1.851-.7,2.9-4.2,1.05-3.551-6.45-.05a2.192,2.192,0,0,0-1.3,2.7m-3.35-20.4a2.013,2.013,0,0,0,1.8,1.15,1.841,1.841,0,0,0,1.55-1.15,5.5,5.5,0,0,0,.3-2.6,2.645,2.645,0,0,0-1.1-2.05,2.058,2.058,0,0,0-1.85-.2,2.174,2.174,0,0,0-1.3,1.1,2.785,2.785,0,0,0-.3,1.65,4.973,4.973,0,0,0,.9,2.1"/></svg>