<svg overflow="visible" width="100%" height="100%" viewBox="0 0 25.773 112.913" xmlns="http://www.w3.org/2000/svg"><path d="M25.008,1.4q-.8-1-3.4-1.2L6.408,0q-1.95,0-3.95.15Q.409.3.208.6q-.249.1-.2,1.55a27.915,27.915,0,0,0,.3,4.25A121.084,121.084,0,0,1,2.108,28q0,7.3-.3,21.9-.1,3.7,2.7,4.5a13.549,13.549,0,0,0,3.5.4q2-.15,1.9,1.45-.05,1.3,0,3.45l-.4,48q.1,1,.1,2.6a2.341,2.341,0,0,0,1,2.25,1.653,1.653,0,0,0,2,.05,1.591,1.591,0,0,0,.8-1.5q-.1-.95-.1-8.05-.049-7.1-.1-22.65-.1-15.6-.25-20.1t.8-4.8a1.547,1.547,0,0,1,1.65.25q.7.55,1.2,5.25t.4,17.25q-.1,12.551-.2,17.95-.15,5.4-.2,10.3-.05,4.95,0,5.55t1.8.35q1.7-.3,1.45-9.8t-.05-18.2a159.209,159.209,0,0,0-1.3-26.2,3.508,3.508,0,0,1,0-2.1q.3-.7,1.6-.65a18.744,18.744,0,0,0,3.3-.25q2.05-.35,2.25-1a6.3,6.3,0,0,0,.05-2.2q-2-20.2-1.3-33.2.9-9.2,1.2-13.8.2-2.7-.6-3.6M20.408,3q2.5,0,2.2,2.4-.1,2.5-.9,11.6-.7,7.2-.7,11.6.1,3.8,1.6,21.7a1.612,1.612,0,0,1,.05.4q.15,1.5-1.5,1.6-.9,0-2.25.05a75.884,75.884,0,0,1-8.75-.2q-4.249-.349-4.75-.85t-.5-6.9q.9-22.7-.55-33.55-.6-4.549-1.05-7-.15-1.2.95-1.15,1.1,0,3.85.2,2.7.2,12.3.1m-3.65,35.45a4.328,4.328,0,0,0-3.2-1.35,5.582,5.582,0,0,0-3.55,1.7,6.3,6.3,0,0,0-2.1,4.4q-.3,5,3.8,6.5,4.052,1.45,6.25-2.35,2.151-3.8,1.25-5.65a10.837,10.837,0,0,0-2.45-3.25m-1.05,3.05a2.747,2.747,0,0,1,1,2.1,4.255,4.255,0,0,1-1,2.6,2.822,2.822,0,0,1-2,1.4q-2.7,0-2.9-3.4-.2-3.3,2.6-3.5a2.97,2.97,0,0,1,2.3.8M9.958,23.15q-1.35,1.65-1.15,5.65a4.656,4.656,0,0,0,4,4.8q3.5.4,5.1-1.95a7.005,7.005,0,0,0,1.5-4.05,11,11,0,0,0-1-3.7,6.229,6.229,0,0,0-2.05-2.85,3.649,3.649,0,0,0-2.15-.75,3.932,3.932,0,0,0-1.9.65,9.055,9.055,0,0,0-2.35,2.2m2.75,1.25q1.2-1.4,2.15-.95a3.261,3.261,0,0,1,1.5,1.5,4.584,4.584,0,0,1,.5,2.35q-.05,3.3-2.95,3.3-3,0-2.5-3.4a5.285,5.285,0,0,1,1.3-2.8m-4.6-12a5.037,5.037,0,0,0,1.7,4.05,5.709,5.709,0,0,0,3.8,1.45,6.505,6.505,0,0,0,4.25-2.1,6.546,6.546,0,0,0,1.9-5.45Q19.509,7,13.608,6.95t-5.5,5.45m4.75-2.75a2.9,2.9,0,0,1,2.75.3,2.878,2.878,0,0,1,1.05,1.9q.15,1.151-1.35,2.45-1.5,1.249-2.35.75a4.368,4.368,0,0,1-1.4-1.3,3.731,3.731,0,0,1-.5-2.2q0-1.4,1.8-1.9"/></svg>