<svg overflow="visible" width="100%" height="100%" viewBox="0 0 73.568 115.305" xmlns="http://www.w3.org/2000/svg"><path d="M44.135,6.7q-.2-.549-1.2.05a4.471,4.471,0,0,0-1.6,1.65l-5.2,8.75q-1.1,2-1.25.05l-1.15-14a9.081,9.081,0,0,0-.25-2Q33.235.054,32.385,0a1.194,1.194,0,0,0-1.25.65,7.834,7.834,0,0,0-.6,2.75l-1.1,12.3q-.15,1.3-.55,3.55-.4,1.751-.85,0a50.811,50.811,0,0,1-.9-6.75,3.638,3.638,0,0,0-.8-2.1,3.562,3.562,0,0,0-2.4-.3q-2.9.4-2.2,3.4.7,3.4,2.3,10.1,3.2,18.3-8.5,29-5.8,5.2-8.6,8.2a16.539,16.539,0,0,0-3.5,5.2q-6.5,15.8-.7,29.4l1,2.3a26.541,26.541,0,0,0,9.7,12.9,25.737,25.737,0,0,0,15.5,4.7h7q13.3.1,27.7-6.4a14.673,14.673,0,0,0,7.1-7.1,28.909,28.909,0,0,0,2.7-10.6,51.333,51.333,0,0,0-.4-10.8q-.9-7.5-1.8-9.6a64.873,64.873,0,0,0-6.4-12.1,35.356,35.356,0,0,0-10.1-9.6q-7.4-4.5-11-16.1-3.4-11.3-.5-19.4.9-2.8,1.2-4.15a4.873,4.873,0,0,0-.3-2.75m-6.05,13.05q1.149-1.65,1.25,0V23.7q1.1,15.2,10.3,25.1a29.687,29.687,0,0,0,6.6,5.3,24.05,24.05,0,0,1,9.7,12.1l2,5.25q.9,2.65-.95,0a101.91,101.91,0,0,0-6.1-8.45q-6.051-7.55-12.3-8.3-6.251-.8-7.05-.9-.8-.15-1.3.8-.5,1,1.2,1.5t5.2,1.3a27.1,27.1,0,0,1,4.5,1.3,21.112,21.112,0,0,1,7.9,5.8,41.534,41.534,0,0,1,4.35,6.15q1.95,3.351,3.4,6.2A63.136,63.136,0,0,1,69.435,83q1.249,3.351,0,11.95-1.3,8.55-9,11.75-10.4,4.4-17.7,3.9-1-.1-6.4-.1-14.2.6-26.4-10.5a4.388,4.388,0,0,1-1.7-2.3,80.279,80.279,0,0,1-1.5-11.8,29.765,29.765,0,0,1,1.8-11.7q4.3-11.4,14.5-16l.5-.2a2.935,2.935,0,0,0,1.9-2.5q.2-1.4-3-.15a18.978,18.978,0,0,0-5.1,2.65q-1.851,1.4-3.95,3.3a35.53,35.53,0,0,0-5.35,7.15q-3.25,5.2-3.5,16.65v4.3q.1,6.051-.95-2.8Q2.135,74.4,6.435,66a16.793,16.793,0,0,1,2.7-3.5q6.4-6.2,8.3-7.8a27.478,27.478,0,0,0,7.8-11.3q.95-2.55,1.4-4.2.45-1.7,1.65-1.9a1.781,1.781,0,0,0,1.45-1.35q.3-1.149.4-1.65.9-7.2,1.4-11.75.2-1.1.8,0a25.631,25.631,0,0,1-.3,5.3,51,51,0,0,0-.4,7,8.055,8.055,0,0,0,.45,2.95,1.158,1.158,0,0,0,.9.65,1.47,1.47,0,0,0,1-.4,1.081,1.081,0,0,0,.45-.75q0-.4.3-5.3a42.048,42.048,0,0,1,1-6.8,18.493,18.493,0,0,1,2.35-5.45M27.935,61.8l.8-.6q1.7-1.149.5-2.5a.734.734,0,0,0-.75-.3q-1.05.051-3.6,2.15A31.98,31.98,0,0,0,20.335,65a22.466,22.466,0,0,0-4.3,6.75,85.131,85.131,0,0,0-2.7,9.65,24.8,24.8,0,0,0-.05,12.4q1.549,5.8,4.75,7.3t5.1,2.3a19.628,19.628,0,0,0,7.2,1.5q14.6-.4,21.8,0a11.085,11.085,0,0,0,6-1.15,13.927,13.927,0,0,0,4.55-4.15q2.049-2.8,1.4-9.55T55.535,71.6a26.429,26.429,0,0,0-6.1-6.1l-7.2-4.8a2.975,2.975,0,0,0-.9-.35,1.277,1.277,0,0,0-.95.05,1.244,1.244,0,0,0-.5.85q-.15.651.9,1.35,1.05.651,1.75,3.35a23.038,23.038,0,0,0,2.2,5.4q1.5,2.651,6.2,12.45a29.246,29.246,0,0,1,2.3,6.5q1.2,6.1-4.7,7.4-1.3.251-7.5,1-1.6.1-.8-.8,2.95-3.15,3.2-3.4a9.122,9.122,0,0,0,3.1-8.9,53.843,53.843,0,0,0-2.1-8.1l-3-8.4a2.851,2.851,0,0,0-.8-1.05.894.894,0,0,0-1.2.15,1.361,1.361,0,0,0-.65,1.55q.249.85,1.15,3.45,1,3,3.1,8.9,2,7.7-1.35,10.65-3.35,2.9-4.45,2.45-.75-.7.9-2,1.6-1.3,1.6-4.4,0-.5-.35-3.25-.4-2.749-1.15-3.1-.75-.4-1.15.1a2.908,2.908,0,0,0-.55,1.7q-.1,1.15-.1,3.45t-.45,2.8a1.767,1.767,0,0,1-1.5.3q-1-.15-.9-1.5.05-1.4.45-4.4.6-3.2.85-5.1.2-1.95-1.15-1.7a2.152,2.152,0,0,0-1.5,1.6l-1.6,7.25q-.551,1.65-1.25-.05a9.356,9.356,0,0,1,1.55-9.7q4.3-5,5-5.85a4.272,4.272,0,0,0,.85-1.55q.15-.7-.1-.9a2.1,2.1,0,0,0-.95-.3q-.7-.1-1.7,1.05t-4.5,4.65a14.819,14.819,0,0,0-2.95,5.15q-.351,1.65-1.05-.75a3.117,3.117,0,0,1-.2-1.2,8.613,8.613,0,0,1,1.4-2.8q5.5-8.7,6.95-11.05a10.005,10.005,0,0,0,1.55-3.3,1.436,1.436,0,0,0-.35-1.3q-.651-.549-2.15,1.15-6.9,10.6-9.3,14.7-.8,1.3-.8,4.8.1,10.251,8.6,20.9,1.1,1.251-.55,1.25a13.606,13.606,0,0,1-6.05-.95,63.194,63.194,0,0,1-6-3.2,4.615,4.615,0,0,1-2-2.2,24.347,24.347,0,0,1-.65-2.9,40.217,40.217,0,0,1-.15-7.35,35.43,35.43,0,0,1,2.9-12.15,26.1,26.1,0,0,1,9.2-11.3m18.25,6.9q-1.05-2.049.95-1.2a14.554,14.554,0,0,1,4.3,3.3q.4.5,3.5,5a39.538,39.538,0,0,1,6.7,15.3,9.085,9.085,0,0,1-1.8,7.4,8.356,8.356,0,0,1-6.4,3.6q-3.15.1-5.8,0-2.55-.15-.6-.9,5.15-2.15,5.6-2.4a7.549,7.549,0,0,0,3.4-3.4,7.156,7.156,0,0,0,.1-4.9,34.692,34.692,0,0,0-2.6-7.5l-7.35-14.3m-9.75,29.9a1.809,1.809,0,0,1-1.45,1,2.777,2.777,0,0,1-2.1-1q-1.15-1.1-.25-1.35a4.889,4.889,0,0,1,2.5.05q1.6.351,1.3,1.3"/></svg>