<svg overflow="visible" width="100%" height="100%" viewBox="0 0 39.572 113.577" xmlns="http://www.w3.org/2000/svg"><path d="M39.516,101.8q.5-7.6-3.45-17.55t-7.1-14.5a32.148,32.148,0,0,0-7.9-7.85q-2.4-1.5-1.2-3a37.136,37.136,0,0,0,3.3-4.8,14.092,14.092,0,0,0,1.3-4.6q.4-2.9-7.4-24.05Q9.217,4.255,7.966,1.9t-3-1.8q-1.8.6-2.75.95-1,.351-1.7,3.15t-.45,9.65q.2,6.851.8,28.45a30.105,30.105,0,0,0,1.2,8.9,13.123,13.123,0,0,0,5.7,7,2.621,2.621,0,0,1,1.4,1.7q.2,1.1-1.45,3.1a21.087,21.087,0,0,0-3.1,5.75,74.793,74.793,0,0,0-2.8,9.4q-3.049,12.45-.2,21.8,2.85,9.3,4.45,11.15a18.19,18.19,0,0,0,2.15,2.25.94.94,0,0,0,.95.15,3.754,3.754,0,0,0,2.1-2.9q.1-.6.1-3.9.2-8.1.3-12.1.2-7.3.7-12.2.5-4.6.8-6.3a17.347,17.347,0,0,1,2.7-6.3q6.4,6.3,9.9,18,2,6.7,5.3,20.3a4.69,4.69,0,0,0,2.1,2.9,4.125,4.125,0,0,0,3.2.7,2.688,2.688,0,0,0,2.3-1.6,63.684,63.684,0,0,0,.85-8.3m-6.45,3.4q-.7-2.1-2.7-10.1-1.9-7.7-3.2-11.7a35.322,35.322,0,0,0-8.6-14.9q-2.5-2.4-3.8-2.2-1.3.3-2.5,3.5-3.1,7.8-3.5,19.3-.2,6.2.3,18.35.1,2.2-.95,1-1.1-1.249-3.65-10.9-2.6-9.65,2.3-25.85,1.8-6,5-8.9a3.507,3.507,0,0,0,1.3-2.1q.1-1-1.55-3.1a15.98,15.98,0,0,0-4.25-3.7q-2.6-1.6-3.3-15.2T3.166,15V8.5q0-3.949.55-3.4a7.964,7.964,0,0,1,.95,3.2q.4,2.6.8,5.2,1.1,7.2,4.1,21.4a4.631,4.631,0,0,1-1.5,4.7,5.645,5.645,0,0,0-2.1,4.5,6.81,6.81,0,0,0,1.65,4.05,13.841,13.841,0,0,0,2.8,2.45,3.524,3.524,0,0,0,2,.7,10.523,10.523,0,0,0,2.25-.9,6.667,6.667,0,0,0,2.7-2.4,7.905,7.905,0,0,0,1.2-3.25q.15-1.65-1.65-4.1a10.184,10.184,0,0,0-2.9-3.05,3.116,3.116,0,0,1-1.55-1.65L8.266,13.3q-3.45-14.2-.45-5.25Q10.766,17,14.066,26.6t5.15,14.45A22.579,22.579,0,0,1,21.066,49a9.159,9.159,0,0,1-2,5.9q-2.8,3.3-2.8,5.1.1,2,3.4,4.5a35.737,35.737,0,0,1,11.3,14.35q6.6,15.851,5.45,27.6a2,2,0,0,1-1.15,1.85,1.214,1.214,0,0,1-1-.5,8.655,8.655,0,0,1-1.2-2.6m-22.4-58.4a5.076,5.076,0,0,1-1.9-2.9,3.019,3.019,0,0,1,.8-2.2,3.2,3.2,0,0,1,2.2-1.1,3.567,3.567,0,0,1,2.7,1.1,3.514,3.514,0,0,1,1.15,2.9,3.348,3.348,0,0,1-.85,1.7,6.586,6.586,0,0,1-1.6,1.5q-.8.5-2.5-1"/></svg>