<svg overflow="visible" width="100%" height="100%" viewBox="0 0 115.681 90.58" xmlns="http://www.w3.org/2000/svg"><path d="M69.345,11.269q-.8-.3-3.5.6a14.418,14.418,0,0,0-4.4,2.8,5.579,5.579,0,0,1-3,1.9,5.23,5.23,0,0,1-3.4-1.2q-2.6-2.6-4-2.8a5.075,5.075,0,0,1-3.7-1.8,16,16,0,0,1-1.6-3.6,6.839,6.839,0,0,0-1.7-3.2,7.141,7.141,0,0,0-3.6-.8,12.149,12.149,0,0,1-6.6-1.7,9.941,9.941,0,0,0-8.3-1q-4.5,1.4-8.7,7.1-.55.7-.95,1.3a2.512,2.512,0,0,1-2.4,1.351q-.6-.051-1.05-.051a5.117,5.117,0,0,0-2.7.4q-7.8,5-9.4,11.1a8.455,8.455,0,0,0,.9,6.9,9.757,9.757,0,0,0,5.7,4.1,1.485,1.485,0,0,0,1.45-.15q.649-.45.4-.949a10.477,10.477,0,0,0-1.45-1.8q-1.2-1.249-.2-3.4a9.274,9.274,0,0,1,2.75-3.5,25.633,25.633,0,0,1,2.35-1.8q1.2-.7,1.5.349.1.651.3,1.551,1.3,6.3-3.1,13.2a8.992,8.992,0,0,0,4.2,13.2,20.331,20.331,0,0,0,5.8,1.1,2.92,2.92,0,0,1,2.7,2.3q.5,2,1.5,6.1a8.619,8.619,0,0,0,3.5,4.9q2.3,1.4,7,4.2a41.691,41.691,0,0,0,7.3,3.5,2.737,2.737,0,0,1,2,1.2,6.347,6.347,0,0,1,.6,2.2,90.12,90.12,0,0,0,1.9,12.2,9.508,9.508,0,0,0,.7,2.3,1.791,1.791,0,0,0,2.2,1,1.5,1.5,0,0,0,1.4-1.5v-2.2q0-2.749,1.15-.2a23.467,23.467,0,0,0,1.65,3.3,1.742,1.742,0,0,0,1.6.8,1.348,1.348,0,0,0,1.1-1.1q.9-3.7,2.1-10.1a45.052,45.052,0,0,0,.65-4.75,33.161,33.161,0,0,0,8.25.951q4.5,0,13.6-.8,6.6-.3,7.45.65.8.951.7,5.5a20.213,20.213,0,0,0,.85,7.151q.9,2.6,2.35,2.349t1.8-4.15q.3-3.95,1.5.451,1.1,4.35,2.15,2.9a10.222,10.222,0,0,0,1.4-4.649q.3-3.2.4-6.9a18.012,18.012,0,0,1,1.7-7.9,15.853,15.853,0,0,1,4.7-5.5q6.3-4.9,5.7-10.9a4.479,4.479,0,0,1,1.8-4.3q1.1-.6,1.3-4,.2-3.3-.7-3.9a14.353,14.353,0,0,1-4.4-4.7q-2-3.7-3.2-5.5a57.82,57.82,0,0,0-4.5-6.1,12.352,12.352,0,0,0-6.6-3.8,10.913,10.913,0,0,1-4.3-2.3,28.176,28.176,0,0,0-7.5-4.2,12.553,12.553,0,0,0-8.4.3,3.107,3.107,0,0,1-2.4.2,6.179,6.179,0,0,1-1.8-1.6q-1.7-2.4-2.5-2.6m-3.2,3.2q2.4-.9,3.8,1.6,2.6,3.8,6.8,2.2,4.6-2.1,8.2.4a118.836,118.836,0,0,0,10.75,6.3q7.149,3.8,8.7,8.449a23.871,23.871,0,0,0,3.75,7.5q2.2,2.852,1.9,8.85t-1.6,8.451a11.771,11.771,0,0,1-4.45,4.3,13.562,13.562,0,0,0-4.75,4.551,9.218,9.218,0,0,1-4.5,3.8,19.318,19.318,0,0,1-5.8.8q-4,.1-10.1.4-8.4.5-10.2.6a22.71,22.71,0,0,1-13.3-2.8,4.8,4.8,0,0,0-2.8-.4q-10.2.5-16.6-5.1a13.4,13.4,0,0,0-3.7-2.149,7.833,7.833,0,0,1-2.8-1.551A3.546,3.546,0,0,1,28.4,58.22a9.441,9.441,0,0,0-.95-3.2,18.121,18.121,0,0,0-.9-1.75,4.271,4.271,0,0,1-.5-3.1,4.285,4.285,0,0,1,2.2-2.2q2.8-1.6,4.05-2.451a17.393,17.393,0,0,0,2.95-2.75q1.7-1.9,2.25-2.5.549-.649,1.15-1.35a3.01,3.01,0,0,1,2.05-.849,7.725,7.725,0,0,0,3.7-2.051q2.25-1.9,3.45-8.549a9.28,9.28,0,0,0-3.35-9.351q-2-1.249.7-2a10.1,10.1,0,0,1,3.65-.649,11.347,11.347,0,0,1,4.1,1.7,33.476,33.476,0,0,0,4.1,2.1,4.223,4.223,0,0,0,5.6-1.7,7.063,7.063,0,0,1,3.5-3.1M26.5,3.019q3.049-1.25,6.55,1.15.7.4,2,1.3a3.666,3.666,0,0,0,2,.5q5.25-.9,7.25,4.549,1.1,2.6-.6,3.1-1.8.5-1.85.55a3.607,3.607,0,0,0-2,2.7,2.647,2.647,0,0,0,1.1,2.8,8.3,8.3,0,0,1,4.1,7.4,9.1,9.1,0,0,1-4.2,7.449q-1.751,1.2-1.05-1.3,1.249-5.35.6-8.3a7.425,7.425,0,0,0-2.7-4.55q-2.05-1.55-3.75-2.75a12.784,12.784,0,0,0-5.4-1.85,42.888,42.888,0,0,0-6.95-.2,40.4,40.4,0,0,0-5,.65,17.916,17.916,0,0,0-5.65,2.6,20.642,20.642,0,0,0-5.95,6q-1.849,2.7-2-.651a8.164,8.164,0,0,1,2.75-6.4q3.9-3.7,4.1-3.8a7.376,7.376,0,0,1,4.95-1.6q2.45.2,3-.45.5-.649,3.05-4.15a12.867,12.867,0,0,1,5.65-4.75m10.95,22.3a10.237,10.237,0,0,1,.45,4.1,27.6,27.6,0,0,1-.7,4.75,25.6,25.6,0,0,1-.75,2.6l-.4.8q-.3.5-3.2,3.75a19.241,19.241,0,0,1-7.5,5.049q-4.7,1.9-8,.9a6.366,6.366,0,0,1-4.5-4,6.519,6.519,0,0,1,.7-6.1,16.5,16.5,0,0,0,3.4-13.9,16.837,16.837,0,0,0-.55-2.15q-.75-2.349,2.25-2.9a24.222,24.222,0,0,1,5.25-.351,47.413,47.413,0,0,1,4.9.351,10.853,10.853,0,0,1,4.2,1.949,15.747,15.747,0,0,1,3.2,2.6,10.682,10.682,0,0,1,1.25,2.551m59.75,47.8q1.35-.9,1.6.1a10.933,10.933,0,0,1,.2,2.8q-.1,1.8-.4,6.75t-1.4-.35q-1.1-5.349-1.25-6.9a2.369,2.369,0,0,1,1.25-2.4m-4.45,1.75q1.451-.3,1.1,3.451-.4,3.7-.45,4.549-.051.8-.3,3.4t-.55-.25q-.35-2.849-.8-6.85-.5-4.05,1-4.3M55.7,72.97a4.28,4.28,0,0,1,1.55,1.1q.549.6-.3,6.9-.9,6.249-1.45,6.049t-1.15-5a64.734,64.734,0,0,1-.6-7.1q0-2.25.7-2.2a2.777,2.777,0,0,1,1.25.25m-6.45-.351a1.647,1.647,0,0,1,.75.55,11.982,11.982,0,0,1,.15,3.2q0,2.85-.05,8.6-.05,5.7-1.65-2.5a51.077,51.077,0,0,1-.8-6.7q-.15-2.749.5-3.049a1.3,1.3,0,0,1,1.1-.1M21.2,23.019q-1.3-.45-1.25,1.4a3.7,3.7,0,0,0,.7,2.551q.7.75,1.3.5a2.2,2.2,0,0,0,.85-2.3,2.568,2.568,0,0,0-1.6-2.15m9.5,4.75a2.453,2.453,0,0,0,.3-2.9q-.851-1.6-1.8-.35a2.575,2.575,0,0,0-.3,2.85q.7,1.65,1.8.4"/></svg>