<svg overflow="visible" width="100%" height="100%" viewBox="0 0 72.665 115.88" xmlns="http://www.w3.org/2000/svg"><path d="M60.037,4.13q-8.2-3.7-23.4-4.1-11.1-.5-21.6,7.4-10.5,8-13.8,19.3-3.3,9.8,2.2,17.8,3,4.3,13.7,12.8a12.153,12.153,0,0,1,4.2,5.4,30.734,30.734,0,0,1,1.5,6.6q.5,2.5.849,5.85a37.9,37.9,0,0,1-.449,8.9,21.211,21.211,0,0,0,4.1,16.25l3.9,5.7q5,7.9,5.2,8,1.7,1.3,10.4,1.8,3.2.2,4-.4.8-.5,2.2-3.6,1.2-2.9,1.9-4.3a25.343,25.343,0,0,1,2.2-4.1,7.2,7.2,0,0,0,1.3-5.5q-2-9.8-2.449-13.05a16.559,16.559,0,0,0-.851-3.9q-.4-.651.351-5.5t.949-7.95q.9-12.8,7.2-19.5,10.1-13.2,8.9-27.1-1.2-11.8-12.5-16.8m-3.6,1.7q9.5,2.9,12.4,11.1,2.8,7.5-.6,16.9a39.635,39.635,0,0,1-4.1,8.8q-1.9,3-5.7,7.8a20.284,20.284,0,0,0-4.1,10.4q-.3,2.8-1.35,10.85a58.729,58.729,0,0,0-.8,8.05q-1.249-.1-1.4-.35a9.946,9.946,0,0,1-.75-1.95q-4-12-5.25-16.75t.8-6.05a23.632,23.632,0,0,0,2.8-1.9,4.313,4.313,0,0,0,1.1-2.6q.349-2.051-2.051-3.35-2.4-1.35-4,1.35-.4,1-1.15,2.95-.8,1.9-1.7,2a2.41,2.41,0,0,1-1.9-.9,23.8,23.8,0,0,0-2.449-2.2,2.514,2.514,0,0,0-2.8-.5,5.555,5.555,0,0,0-2.1,1.55,5.341,5.341,0,0,0-.8,1.8q-.6,2.4,1.9,3.3t3.051,1.15a4.387,4.387,0,0,1,1.25,1.2q.7.95.649,4.4a44.2,44.2,0,0,1-1.549,9.45q-2.2,8.5-6.3,7.4a3.112,3.112,0,0,1-1.9-2.4,126.035,126.035,0,0,1-2.8-12.5,13.819,13.819,0,0,0-4.7-8.4q-4.1-3.4-11.9-10.6-7.6-6.6-4.7-17,5.3-17.4,20.9-23.5,14.7-5.8,32,.5m-20.8,46.3q1.151,1.449.1,2.1a2.244,2.244,0,0,1-2.351-.25q-1.149-.851.15-1.8,1.3-1,2.1-.05m9.15-2.85a1.434,1.434,0,0,1,2.25-.3q1.3.9,0,2.2-1.349,1.249-2.25.3a1.508,1.508,0,0,1,0-2.2m-4.15,7.9q1.35-.45,1.9,2.4a35.263,35.263,0,0,0,1.35,5.1q.8,2.2,3.951,14.75h-12q2.649-3.651,3.4-14.2.15-1.95.1-4.45-.1-3.1,1.3-3.6m9.4,25.45a2.934,2.934,0,0,1,3.3,2.7q.6,4.1,2.4,13.1.4,2.2-1.6,2.2-16.9-.2-21.7-.5-3.7-1-5.5-5.9a19.766,19.766,0,0,1-1.3-8.6q.3-2.7,2.7-2.8l21.7-.2m2.8,21.3q1.1.3-.651,3.9t-3.05,4.5q-1.3.7-7.3.2a6.8,6.8,0,0,1-5.6-3.3q-4.751-6.45-3.6-6.3,11.5.5,20.2,1m-9.75-13.4q2.849-.2,2.65-1.9-.051-1.2-1.551-1.25t-4.349-.05a23.5,23.5,0,0,0-2.6.1q-1.6,0-1.5,1.4.1,1.751,1.5,1.6l2.25.1q2.45.049,3.6,0m8.6,5.1q0-.7-1.449-.9l-5.9-.4q-3.7-.3-4.8-.3a3.955,3.955,0,0,0-1.8.25q-.651.3-.65.8a1.157,1.157,0,0,0,.4.95q.4.4,3.549.75,3.151.3,6.551.4,3.3.1,3.7-.4a2.263,2.263,0,0,0,.4-1.15"/></svg>