<svg overflow="visible" width="100%" height="100%" viewBox="0 0 116.076 97.526" xmlns="http://www.w3.org/2000/svg"><path d="M63.376,1.547q-9.2-1.15-15.6-1.5-6.4-.4-10,2.6T32.576,7q-1.6,1.3-2.6,2.2a112.108,112.108,0,0,0-8.9,8.5,7.834,7.834,0,0,0-1.2,1.65q-.649,1.05-1.05,1.7a10.4,10.4,0,0,0-.7,1.35q-.35.649-.7,1.25t-4.3,8.65q-4,8.051-9.15,17.4-5.2,9.3-3.6,15.5,1.6,6.251,4.9,16.9,3.3,10.6,4.55,12.8a8.834,8.834,0,0,0,1.75,2.45,1.3,1.3,0,0,0,.9.15q.4-.15,3.05-1a12.791,12.791,0,0,0,4.75-2.9,7.483,7.483,0,0,0,2.35-4.1q.3-2.051.7-4.65a40.03,40.03,0,0,1,3.1-8.55,75.148,75.148,0,0,1,4.05-8.3,13.024,13.024,0,0,1,2.25-3q.8-.7,4.6-.05,3.75.649,18.2,1.75,14.4,1.05,18.45,1.3,4,.2,8.6.35,4.551.1,9.25.05a20.517,20.517,0,0,0,5.15-.6,29.145,29.145,0,0,0,3.65-1.4,28.169,28.169,0,0,0,7.9-5.65q4.251-4.151,5.75-5.85a7.857,7.857,0,0,0,1.8-5.3q-.6-19.9-.8-29.8a71.041,71.041,0,0,1,.3-8.4q.3-2.8-.6-4t-3.7-1.6q-32-2.4-47.9-4.25m-39.85,23.9a7.045,7.045,0,0,1,.65-1.6,1.007,1.007,0,0,1,1-.35,1.269,1.269,0,0,1,1.1.7l1,33.2a30.938,30.938,0,0,0,.35,4.75q.3,2.2.35,3.35t-3.1,6.7a43.511,43.511,0,0,0-4.65,11.55q-1.449,6-1.8,7.25a1.462,1.462,0,0,1-1.5,1.2q-1.149-.049-1.3-.7t-.65-2.3l-5.25-20.15a20.669,20.669,0,0,1-.9-3.9,4.435,4.435,0,0,1,.35-2.5q.45-.9,2.6-6.7,2.151-5.85,4.5-11.6,2.3-5.749,4.6-11.7,2.251-6,2.65-7.2m-3-2.35a2.78,2.78,0,0,1,1.4.45q.551.4-13.35,33.25-1,2.3-1.8,2.7a5.974,5.974,0,0,1-2.65.2q-1.85-.2-.9-2.2,16.5-34.5,17.3-34.4m9.2-10.1q8.2-7.15,10.95-9.15t14.65-.3q11.85,1.65,21.3,2.25t19.9,1.6q10.45,1,12.4,1.2t2.2,1.05q.251.851-5.8,6.9a91.546,91.546,0,0,0-7.45,7.85q-1.35,1.8-2.5,1.9a22.24,22.24,0,0,1-4.4-.4q-3.249-.55-15.35-1.05-12.15-.55-15.75-.95-7.5-1.1-18.2-2.2-12.1-1.1-18.1-1.45-2.1-.15,6.15-7.25m.35,10.7a5.1,5.1,0,0,1,3-.3l32,4.1a4.02,4.02,0,0,1,2.4.9,4.1,4.1,0,0,1,.7,2.4q.5,5.4,1.5,16.3,1.05,8.7,1.25,13.1.15,4.4-1.9,4.45-2.149.05-5.9-.25-3.748-.35-9.45-.5a122.838,122.838,0,0,1-14.65-1.5q-8.949-1.4-9.05-3.9-.349-5.85-.55-11.4-.2-5.6,1.35.4,1.5,6,2.2,6.6t3.8.8q2.4.2,7.2.4,4.3.2,8.3.5t8.85.6q4.851.3,5.05-1.15.2-1.5-1.1-1.65t-4.3-.3q-3-.2-12.55-.8t-11.35-.9l9.2-8.4a38.879,38.879,0,0,0,3.1-3.05,1.543,1.543,0,0,0,.05-2.1q-.849-1-1.95.05-2.8,2.4-12.9,11.6-.9.75-2.55-9.6-1.65-10.4-2.25-14.1-.2-1.8.5-2.3M5.826,62.647q.5,0,1,3.35.45,3.251,1.3,6.95.8,3.7,2.9,11.8,2.051,8.051,2.2,8.75t-1,.85q-1.2.15-3.35-7.65Q6.627,78.9,5.526,75t-2.55-9.7q-.9-2.8.7-2.7,1.6.05,2.15.05m94.8-37.3q1.05-1.25,4-4.65a24,24,0,0,1,4.9-4.6q1.95-1.2,2.55-.9.5.3.6,2.4l1,31.2a6.7,6.7,0,0,1-2.3,5.2,84.7,84.7,0,0,1-11.15,8.9q-.549.35-.95.65-1.05.65-1.1-.8l-1-32.45a3.082,3.082,0,0,1,.2-1.05,5.667,5.667,0,0,1,1.2-1.6q.951-1.1,2.05-2.3m-28.95,8.9q-.849-6.45,1.3-6.6a60.591,60.591,0,0,1,7.1,0,67.61,67.61,0,0,1,9.75,1.1q4.751.851,4.95,4.25.3,16.2,1,29.1.1,3.3-10.25,2.95t-10.65-.5q-.3-.15-1.35-12t-1.85-18.3M82.126,55.2q-.65-1.5-2.05-.5-1.449.949-.15,2.3t2.1.55a2.091,2.091,0,0,0,.1-2.35m4-1.1q-1.149.4-1.25.95t.7,1.45a1.232,1.232,0,0,0,1.65.35q.851-.551.45-1.85-.45-1.3-1.55-.9m-4.9-7q-.049-1.5-1.95-.95a1.67,1.67,0,0,0-1.4,2.3q.5,1.75,1.95.95a2.588,2.588,0,0,0,1.4-2.3m3.75-.95a1.6,1.6,0,0,0-.55,1.9q.3,1.2,1.5.6t1.15-1.55a1.59,1.59,0,0,0-.65-1.35q-.6-.3-1.45.4M74.926,34.5a7.148,7.148,0,0,0,1.55,4.7q1.4,1.6,6.7,1.7,6.5.649,5.7-4.85t-7-5.55q-6.2-.05-6.65.45-.45.45-.3,3.55m11.25,2.9q-.3,1.55-3.55,1.3-3.3-.251-3.9-.75a4.149,4.149,0,0,1-1-1.85q-.4-1.3-.65-2.2t.7-1.05a24.123,24.123,0,0,1,3.95,0q3.051.1,3.9,1.55a4.479,4.479,0,0,1,.55,3"/></svg>