<svg overflow="visible" width="100%" height="100%" viewBox="0 0 111.266 116.472" xmlns="http://www.w3.org/2000/svg"><path d="M68.406,27.251q-2.3.3-3.9-2.3-12.3-16.8-17.5-20.9A18.3,18.3,0,0,0,35.306,0q-6.45.05-8.55.25a43.077,43.077,0,0,0-6.1,1.2,30.952,30.952,0,0,0-14.35,7.5,18.8,18.8,0,0,0-6.3,14.7,19.083,19.083,0,0,0,3.8,10.6q2.2,3.1,7.2,8.9,13.9,22.2,38,48.2a131,131,0,0,0,14.8,14.1,61.812,61.812,0,0,0,18,9.9,17.8,17.8,0,0,0,14.8-1.1q4.2-2.2,12.2-9.2,3.4-2.7,2.1-7.6-2.1-9-3.3-13.4a47.572,47.572,0,0,0-4.3-8.3q-3.9-6.1-4.9-8.1-10.2-19.6-13.55-24.65l-3.9-5.85a9.537,9.537,0,0,0-1.4-1.6q-.949-.9-4.65-5.1-3.2-3.6-6.5-3.2m-6.9-1.7q1.8,2.4-.8,3.3l-10.1,4.1q-12.5,5.1-16.6,6.7a20.319,20.319,0,0,1-3.3,1.4,4.257,4.257,0,0,1-3.7-.5q-.7-.4-1.7,1a4.792,4.792,0,0,0-1,2.8q-.1,1.9,2,1.2a2.582,2.582,0,0,1,2.4.4,16.921,16.921,0,0,1,1.8,1.6q17.9,17.6,23,23a204.245,204.245,0,0,1,20.7,25q.7,1,6.2,7.8a8.862,8.862,0,0,0,1.2,1.2,1.081,1.081,0,0,0,1.35.05,1.21,1.21,0,0,0,.35-1.4q-.251-.951-4.8-6.65-4.6-5.7-8.6-11.4a193.754,193.754,0,0,0-18.7-21.2q-13.6-12.9-20.4-19.7,6-2.9,15.4-6.6,13.1-5.1,15.6-6.2,7.3-3.3,12.3,1.5a50.238,50.238,0,0,1,10.6,14.6,3.156,3.156,0,0,1,.4,2.3q-.3.7-1.9,1.3l-15.9,6.9a8.466,8.466,0,0,0-2,1.1,1.337,1.337,0,0,0-.4,1.9,1.186,1.186,0,0,0,1.8.6q.6-.3,1.8-.85,3.3-1.65,16.4-7.25a2.488,2.488,0,0,1,3.6,1.4l7.4,14a2.508,2.508,0,0,1,.3,2.4q-.3.8-3.6,2.2t-5.4,2.5q-2.1,1.1-3.6,1.8a1.391,1.391,0,0,0-.6,2.1,1.26,1.26,0,0,0,1.8.7q.7-.3,2.1-1,3.2-1.5,8.5-4.1a5.163,5.163,0,0,1,2.7-.8q1.2.1,2,1.9.4.9,3.8,6.7-5.25,3.3-6.15,3.85t-2.75,1.45q-1.5.9-.4,2.5a1.2,1.2,0,0,0,1.95.35q1.85-1.251,2.55-1.65,4.9-2.7,5.8-2.3.8.3,2.5,5.7,1.5,4.9-.1,8.5a14.638,14.638,0,0,1-5.7,6q-4.1,2.7-4.5,3a19.624,19.624,0,0,1-5,2.1,19.922,19.922,0,0,1-11.1-.8,89.649,89.649,0,0,1-9.8-4.9,53.436,53.436,0,0,1-10.8-8q-2.4-2.3-9.3-9.6-7.4-8.3-11-12.5-5.1-5.95-8.85-10.7-5.5-7.05-14.35-20T5.106,29.1q-3-4.35-1.4-10.25a15.333,15.333,0,0,1,4.5-7.75q2.85-2.55,3.65-3.1a5.078,5.078,0,0,1,1.35-.75q7.4-2.6,9.5-3.2a35.641,35.641,0,0,1,10.1-1.4,23.447,23.447,0,0,1,17.2,7.4q.4.4,11.5,15.5m8.35,18.5q3.2-.1,3.3-1.7a.967.967,0,0,0-.85-1.1,6.553,6.553,0,0,0-2.3,0q-9.4,1.2-21.6,7.7a1.147,1.147,0,0,0-.45,1.55.912.912,0,0,0,1.35.55q2.1-.6,10.7-4.1,6.6-2.8,9.85-2.9m-43.35,5.3q-1.6.2-1.1,2.3,1.3,7.749,4.7,11.3,3.349,3.549,5.85,2.6,2.449-1,2.15-4.8a8,8,0,0,0-2.45-5.7q-2.351-2.35-2.75-.6a5.076,5.076,0,0,0,.6,3q.5.8,1.15,2a3.8,3.8,0,0,1,.55,1.9,1.826,1.826,0,0,1-.7,1.3,1.573,1.573,0,0,1-1.35.3,4.363,4.363,0,0,1-1.5-1.45q-.95-1.251-1.65-2.35a6.307,6.307,0,0,1-.9-3.6,33.076,33.076,0,0,0-.25-5.05q-.3-1.4-2.35-1.15m23-28.1a18.573,18.573,0,0,0-4.1-4.7,36.121,36.121,0,0,0-10.9-5.75,54.9,54.9,0,0,0-11.15-2q-6.15-.45-12.75,3.6-6.649,4-3.1,12.75a79.186,79.186,0,0,0,5,11.1q3.3,5.7,5.75,7.5t3.15,1.8a.989.989,0,0,0,.95-.45,1.678,1.678,0,0,0-.05-1.2q-.3-.75-4.9-4.7t-6.75-12.45q-2.2-8.55-.3-11.2,1.85-2.65,8.3-4.05,6.4-1.45,15.65,1.75a25.214,25.214,0,0,1,13.9,11.1q2,2.9,2.45,3.5a2.879,2.879,0,0,0,.95.85,1.537,1.537,0,0,0,1.05.2q.45-.1.55-.9a5.388,5.388,0,0,0-1.2-2.8q-1.3-2.05-2.5-3.95"/></svg>