<svg overflow="visible" width="100%" height="100%" viewBox="0 0 114.085 56.433" xmlns="http://www.w3.org/2000/svg"><path d="M82.635,40.306a15.8,15.8,0,0,0-3.05-2.15q-2.6-1.55-7-4.35a57.482,57.482,0,0,0-5.85-3.4q-1.2-.2-1.6.4-.8,1.7,1.8,2.9.1.1,7.6,4,4.6,2.4,6.05,4.25,1.449,1.8,2.55,1.6,1.1-.249.55-1.55a4.531,4.531,0,0,0-1.05-1.7m-28.25-6.2a1.222,1.222,0,0,0-.3.9q0,.6,1.3,1.65,1.25,1.05,4.45,3.45,4,3.2,7.2,2,1.8-.7,2.7,1.4,2.8,6.3,9.1,4.5,3.4-.9,5,3.2l-4.6.2q-.9.1-1,.8t1.05,1.65q1.149.951,4.95.55,4.1-.5,3.8-3a8.624,8.624,0,0,0-3.6-4.6q-3.1-2.2-5.4-1.8-5.3,1.1-7.4-3.7-1.5-3.9-5.1-2.1-2.2,1-4.6-.9l-5.9-4.4a1.639,1.639,0,0,0-.9-.2,1.256,1.256,0,0,0-.75.4m-33.55-32.6q-1.6.55-.2,1.4a11.486,11.486,0,0,0,3.2,1.3l2.4.6q4.3,1.1,12.5,2.8,7.4,1.7,12.5,3.4l-15.1,4.7a7.464,7.464,0,0,1-4.2,0q-3.9-1.1-15.1-4.7-9.5-3.1-15.2-4.4a1.474,1.474,0,0,0-1.25.6,1.122,1.122,0,0,0-.35,1.05q.15.45,2.7,1.4,2.5.951,11.6,3.65,9.2,2.7,13.6,4.4a79.328,79.328,0,0,1-10.2,3.2,83.336,83.336,0,0,0-9.4,2.85q-2.2.951-1.9,1.95.05.15.9.5a4.726,4.726,0,0,0,2.85-.25q1.95-.649,9.25-2.95,3.9-.9,11.5-2.8,6.7-1.6,11.4-3.2,9.6-2.9,30.2-7.4,20-4.4,30.1-7.6.5-2.649-2.85-1.8t-6.55,1.6l-33.9,7.1a10.471,10.471,0,0,1-4.3-.1l-30.4-7.2a6.761,6.761,0,0,0-3.8-.1m92.8,7a1.012,1.012,0,0,0,.4-1.2,1.06,1.06,0,0,0-.9-.9,16.854,16.854,0,0,0-2.9.4q-5.5,1.2-18,3.6-11.7,2.2-18,3.6-2.9.8-23.3,7.5a168.393,168.393,0,0,1-23.7,6.2,20.53,20.53,0,0,0-4.5,1.3q-2.9,1.2-4.4,1.8-1.6.7-1.55,1.35.05.6,2,1.4,1.95.75.75,2.55-4.4-1.2-4.2,2.2a5.9,5.9,0,0,0,5,2,61.707,61.707,0,0,1,21.1,5q.8.3,4.5,1.6,3.2.7,2.1-1.9l-1.1-1.4q-1.1-1.35.8-.8a103.076,103.076,0,0,1,24,11.5,27.894,27.894,0,0,1,2.7,1.7q1.7.9,2.7-.1a1.044,1.044,0,0,0,.1-.6.979.979,0,0,0-.2-.7q-12.5-8.7-22.6-12.2a25.936,25.936,0,0,1-4.6-1.9q-4-2-.5-5.1a42.529,42.529,0,0,1,6.3-4.3q8.8-5.4,16.6.1,1.1.7,3.1,2.2a25.727,25.727,0,0,0,3.65,2q1.85,1,4.8-.2a2.811,2.811,0,0,0,1.15-.6,3.218,3.218,0,0,0,.5-1.7q-.1-4.9,4.5-8.2a32.7,32.7,0,0,1,5.95-3.4q3.349-1.55,3.65-2.25a2.32,2.32,0,0,0-.05-1.7q-.351-1.05-2.35.05l-12,6.7q-.6-3.5-.7-4.9-.1-3,.3-3.6.5-.7,3.3-1.3l21.4-4.5a36.776,36.776,0,0,0,4.2-1.3m-90.3,28.4a3.347,3.347,0,0,1-1.2-2.9,2.368,2.368,0,0,1,1.5-2.2q.6-.2,2.65-.6,2-.45,2.6.8a12.815,12.815,0,0,1,.75,4.45q.15,3.2-3.2,2.1a7.636,7.636,0,0,1-3.1-1.65m57.8-20.5a1.34,1.34,0,0,1,.5.6q.7,1.5,1.2,9.25t-2.85,5.5q-.4-3.9-.75-7.6a34.528,34.528,0,0,0-.85-5.5q-.551-1.849.95-2.25t1.8,0m-9.65,8.4q.2-1.7.55-4.25.3-2.5,1.75-3a5.811,5.811,0,0,1,1.85-.45q.3.051.7,2.85.4,2.751,1.2,11.45l-4.5-3.1a4.368,4.368,0,0,1-1.55-3.5m-1.6-6.3a14.308,14.308,0,0,1-.15,3.9,16.9,16.9,0,0,1-.7,3q-.351.9-3.2.65a11.9,11.9,0,0,1-3.75-.7q-.851-.45-.85-2.4a2.633,2.633,0,0,1,2.15-2.7,20.725,20.725,0,0,1,2.5-.7q1.55-.4,4-1.05m-37.35,12q1.5-.8,4.6-2.1l1.8,13a28.9,28.9,0,0,1-5.7-2.5q-1.7-1.149-1.95-4.4t1.25-4m7.5-1.5q-.1-1.6,1.9-1.7a1.523,1.523,0,0,1,1.8,1.5,15.224,15.224,0,0,1,.25,2.85q.05,1.551.05,10.35a1.084,1.084,0,0,1-.25.55q-.25.3-1.05.15-.75-.15-1.4-3.6a62.849,62.849,0,0,1-1-7.05q-.2-2.149-.3-3.05m6.3-1.3q.2-2.9,3-2.6.6,0,1.5,1.9a4.8,4.8,0,0,1,.3,2.5,2.436,2.436,0,0,1-.8,1.6,10.466,10.466,0,0,1-1.5.85,2.549,2.549,0,0,1-1.2.35,7.8,7.8,0,0,1-1.3-4.6m7.6.8q-1.6-3.7-.45-4.75a5.13,5.13,0,0,1,2.7-1.3,5.475,5.475,0,0,1,2.2-.05,1.4,1.4,0,0,1,.9,1.05,12.009,12.009,0,0,1,.15,2.75,5.251,5.251,0,0,1-2.6,1.75q-2.151.9-2.9.55"/></svg>