<svg overflow="visible" width="100%" height="100%" viewBox="0 0 112.751 51.167" xmlns="http://www.w3.org/2000/svg"><path d="M110.576,5.1a40.834,40.834,0,0,0-7-.9q-5.35-.4-26.6-2.3Q55.676,0,54.876,0h-2.25q-2.3.1-3.5.2a4.8,4.8,0,0,0-3.3,1.3l-23.3,21.4q-10.3,9.5-11.7,10.7a47.612,47.612,0,0,0-4.55,4.55q-2.85,3.1-5.25,5.35-2.449,2.25.95,2.75,3.35.45,10.75.8T49.526,49q.6,0,30.7,1.8.2,0,2.3.3a2.976,2.976,0,0,0,2-.2,4.819,4.819,0,0,0,1.25-1.9q.7-1.6,1.1-2.45a24.767,24.767,0,0,1,2.1-3.4q1.7-2.55,10.1-14.7Q107.427,16.3,112.226,10a2.136,2.136,0,0,0,.5-1.3,5.363,5.363,0,0,0-.2-2,2.539,2.539,0,0,0-1.95-1.6m-5.35,2.3q4.7.649,2.2,3.35l-.6.65a35.3,35.3,0,0,0-2.8,3.55q-1,1.5-2.05,3a24.756,24.756,0,0,0-1.75,2.75q-.7,1.25-2.2,3.65T95.776,27q-.75.2-4.05-1.2a4.761,4.761,0,0,1-2.3-1.7,2.059,2.059,0,0,1,.15-2.25,2.578,2.578,0,0,0,.35-2.2,1.7,1.7,0,0,0-1.3-1.2,2.238,2.238,0,0,0-1.8.25,2.693,2.693,0,0,0-1,1.8q-.1,1.3-.65,1.65a4.457,4.457,0,0,1-2,.25q-1.4-.049-2.45-.15a15.373,15.373,0,0,0-3.5.3q-2.4.35-2.55-.2a4.783,4.783,0,0,1,.5-2.3q.649-1.751-.65-2.45a3.27,3.27,0,0,0-2.8-.3,5.316,5.316,0,0,0-2.3,1.5q-1,.949-.2,1.6l1.4,1.1q2,1.7-.3,3-.7.5-2,1.4a2.8,2.8,0,0,0-.1,1.8.72.72,0,0,0,.5.3,2.593,2.593,0,0,0,.8-.1l4.6-1.8q7.6-2.6,12.3.5l5.45,2.95q1.751.9.85,2.35l-3.3,5.2q-1.7,2.6-5.3,7.8a5.778,5.778,0,0,1-5.7,2.8q-15.3-1-44.6-2.6-13.45-.45-26.3-1.15-3.7-.15,7-10.2T46.126,5l.8-.6a10.337,10.337,0,0,1,1.9-1.6,1.64,1.64,0,0,1,2.2.1q1,.9.8,4a4.7,4.7,0,0,1-1.4,2.3q-.9,1.2-2,2.45-1.151,1.249-.7,1.75a2.073,2.073,0,0,0,1.05.65c.367.1.583.083.65-.05q4.8-4.5,12.2-2.4a25.281,25.281,0,0,0,3.3.4,8.573,8.573,0,0,1,3.05.55,2.254,2.254,0,0,0,1.45.25,1.1,1.1,0,0,0,.75-.55,2.364,2.364,0,0,0,.2-1.05q0-.649-1.8-1.2a10.416,10.416,0,0,1-3.05-1.5,3.809,3.809,0,0,1-.9-1.1,1.606,1.606,0,0,1-.3-1.1,2.831,2.831,0,0,1,2-2.2,8.611,8.611,0,0,1,3.1-.15q1.7.2,3.4.35a2.664,2.664,0,0,1,2.2,1.55,4.76,4.76,0,0,1,.15,3.3q-.5,1.95-1.35,2.05t-1.65.15q-.8,0-.4,1.6.35,1.55,1.7,1.55h13.05a6.574,6.574,0,0,1,2.8.9,2.691,2.691,0,0,1,.9.9q.5.6.7.5a23.539,23.539,0,0,0,3.4-1.9q1.95-1.3.3-1.6a1.911,1.911,0,0,1-1.6-2,5.163,5.163,0,0,1,.25-2.55q.35-.9-1.6-1.35-1.95-.5-2.35-.1t-.3,2.3q.1,1.9-.8,2a32.418,32.418,0,0,0-5.6-.8,4.547,4.547,0,0,1-1.7-.3.833.833,0,0,1-.5-1.15q.2-.851,1-3.65,0-.6,1.4-.45,10.85.9,22.4,2.15m-44.6-2.75a1.9,1.9,0,0,1,.25,1.7,1.319,1.319,0,0,1-.95.85,29.2,29.2,0,0,1-3,.15q-2.45.05-2.4-.25-.05-2.4,1.85-2.75,1.85-.349,2.8-.5a1.349,1.349,0,0,1,1.45.8M42.826,36.8q2.2.1,3-1,.4-1.35-2.4-1.8-5.3-.9-9.2-1.35-3.9-.5-4.65-.15a1.352,1.352,0,0,0-.8,1.25,1.227,1.227,0,0,0,.75,1.25,5.149,5.149,0,0,0,1.6.3l11.7,1.5m3.45-5.9a1.275,1.275,0,0,0,.05-1.55,1.87,1.87,0,0,0-1.7-.85l-12.3-.8a9.785,9.785,0,0,0-2.1.2,1.221,1.221,0,0,0-1,1.3q-.049,1.2,1.45,1.4,1.451.2,8.25.6,6.75.4,7.35-.3m8.75,5a8.421,8.421,0,0,0,2.3-2.15,10.031,10.031,0,0,0,.7-1.1,1.8,1.8,0,0,0-.3-1.65q-.6-1.1-2.3,1.15t-4.3.35a7.548,7.548,0,0,0-1.9-1,1.388,1.388,0,0,0-1.7.4,1.338,1.338,0,0,0-.3,1.1q.05.6,2.15,2.6t2,3.45q-.15,1.451,1.2.8t1.15-1.35a2.485,2.485,0,0,1,1.3-2.6m9.3,1.75a2.439,2.439,0,0,0-1.05.65,1.285,1.285,0,0,0-.3.65,1.168,1.168,0,0,0,.15.7q.2.4,2.75.9,2.55.45,8,1.25a46.775,46.775,0,0,0,5.95.65,1.584,1.584,0,0,0,1-.85q.65-1.1-1.95-2.05a39.9,39.9,0,0,0-8.15-1.6q-5.55-.65-6.4-.3m-5.55-15.6q-.5-.649-3.2-.95-2.749-.3-1.05-3.9.8-1.7-1.4-1.9-2-.2-2.5.9-.6,1-.2,4.1l-2.3.1a13.181,13.181,0,0,1-2.3-.1q-.8-.4-.2-1.55a2.528,2.528,0,0,0,.2-2.05q-.349-.9-1.7-.9a6.711,6.711,0,0,0-2.75.6q-1.35.55-1.1,1.55a5.568,5.568,0,0,0,1.3,2.2q1.05,1.151-1.25,2.05a17.961,17.961,0,0,0-1.7.9,2.378,2.378,0,0,0-.4,1.8,1.682,1.682,0,0,0,1.6.7,8.591,8.591,0,0,0,2.3-.7,16.491,16.491,0,0,1,10.5-1.3,21.051,21.051,0,0,0,5,.5,1.708,1.708,0,0,0,.8-.3,2.581,2.581,0,0,0,.65-.7q.2-.4-.3-1.05m25,14.2q.95-.95-.65-1.8a15.834,15.834,0,0,0-5.85-1.25q-4.249-.4-7.85-1t-4.5,0a1.2,1.2,0,0,0-.75,1.45q.251.851,2.4,1.25,2.15.35,7.65,1.05,5.5.65,7.05.95a2.789,2.789,0,0,0,2.5-.65"/></svg>