<svg overflow="visible" width="100%" height="100%" viewBox="0 0 115.652 91.504" xmlns="http://www.w3.org/2000/svg"><path d="M37.148,3.454a63.622,63.622,0,0,1-14.4,10.25,49.946,49.946,0,0,1-20.2,4.5q-2.9.4-2.5,3.8a53.48,53.48,0,0,0,1.3,5.5q2.3,9.2,6.8,27.7.6,2.3,1.5,2.7,1,.4,3-.8,1.9-1.1,9.9-6.2,4.2-2.75,7.149-4.4,2.9-1.7,2.6,1.75A76.464,76.464,0,0,1,31,56.2q-.95,4.5-3.35,13.1-.7,3.1-2.4,9.1a42.814,42.814,0,0,0-1.2,9.3,6.192,6.192,0,0,0,.6,3.1q.7.7,3,.7,6.7,0,16.6-.4,5.6-.3,16.6-.8a98.972,98.972,0,0,1,12.2.2q7.2,0,11.7-2.3,5.1-2.3,4.4-7.4-.1-.95-4.25-32.6-.2-1.9,1.3-.55,4.151,3.45,5.75,4.05,3.4,1.1,8.1-2.4l12.6-8.8q2.9-2.1,3-3.3t-2.5-3.4q-11.9-9.2-17.8-13.9-10.5-8.4-14.8-16.7-1.6-2.6-2.6-3-1.3-.7-3.5,1-5.7,4-7.6,5.6a17.719,17.719,0,0,1-16.1,4.1Q43.1,9.254,40.3,3.454q-1.05-1.8-3.151,0m-4.3,7.4q1.9-1.4,3.05-2.35,1.1-1,2.05,1.85a8.745,8.745,0,0,0,3.7,4.65,19.284,19.284,0,0,0,7.25,2.55,33.275,33.275,0,0,0,7.9.5,33.08,33.08,0,0,0,7.049-1.3,14.091,14.091,0,0,0,5.4-2.75q6.2-5.4,8.1-10.6,1.9,2.8,5.6,8.5a31.679,31.679,0,0,0,7.1,7.2q6.6,5.1,19.4,15.5,2.3,1.9,2.2,2.5,0,.6-2.5,2.4-10.2,7.3-11.7,8.3-3.6,2.9-6.7-.35-4.1-4.449-5.35-5.7a7.771,7.771,0,0,0-2.3-1.7,2.2,2.2,0,0,0-1.549-.25.98.98,0,0,0-.551.95,13.6,13.6,0,0,0,.051,1.95l5.6,38.2a3.524,3.524,0,0,1-1.9,4,17.045,17.045,0,0,1-9.449,2.25q-6.651-.049-9.9-.1A134.4,134.4,0,0,0,47.549,88a139.467,139.467,0,0,1-17.8,1.1q-2.3,0-2.8-.5-.4-.4,0-2.6,3.4-14.7,5.1-22.1,2.2-8.4,2.5-9.8a31.247,31.247,0,0,0,.5-10.1q-.6-4-4.1-1.8-7,4.3-20.2,12.7l-7.3-30.5q-.6-2.3-.3-2.8.3-.4,2.3-.5a50.87,50.87,0,0,0,27.4-10.25M41.5,9.9q.151-.049,7,2.95a15.591,15.591,0,0,0,13.4-.25q6.5-3.2,7.95-5,1.4-1.8,2.3-1.1.9.65-1.25,2.7-2.2,1.95-3.6,3.1a28.142,28.142,0,0,1-5.551,2.8,15.715,15.715,0,0,1-9.2.6,38.991,38.991,0,0,1-8.6-2.75q-3.5-1.65-3.05-2.35.4-.7.6-.7"/></svg>