<svg overflow="visible" width="100%" height="100%" viewBox="0 0 115.92 72.493" xmlns="http://www.w3.org/2000/svg"><path d="M78.2,1.053q-.3,0-15.8-.9-16.7-.7-25.3,1.8A56.512,56.512,0,0,0,23.2,7.7q-1.45.9-2.2,1.35-7.7,4.4-9.4,5.5a43.033,43.033,0,0,0-8.4,6.9q-4,4.2-3,9.2,2.3,11.6,13,18.4,2.1,1.2,1,3.1a13.808,13.808,0,0,1-2.2,3.1l-5.4,5a1.881,1.881,0,0,0-.5,1.1,1.292,1.292,0,0,0,0,1,2.052,2.052,0,0,0,1.9,1,23.711,23.711,0,0,0,4.4-.6,4.985,4.985,0,0,1,1.9.1q.8.3.9,1.6.2,2.9,3.6,1.9,1.9-.5,8.7-5.15,6.75-4.7,8.4-6.1a6.055,6.055,0,0,1,2.5-1.55,18.594,18.594,0,0,1,6.3.05q3,.4.85,1.95-.7.6-1.35,1.15-1.451,1.1-3.15,2.5-1.65,1.35-3,2.45a17.825,17.825,0,0,0-1.95,1.7,14.649,14.649,0,0,0-1.4,1.7q-.8,1.1.5,1.85,1.249.7,5.2-.35,3.9-1.1,7.7-2.2,1.6-.5,2.2-.1.8.3,1.2,2,.6,2.4,2.1,2.8,1.4.3,3.4-1.2a17.685,17.685,0,0,0,2.4-2.5q4.8-5.3,5.3-6,2.3-3.1,7.4-2.6a26.07,26.07,0,0,1,11.5,4q1.549,1.3-.05,2.6-.85.649-1.6,1.3Q80.4,65.9,80.75,66.9q.45,1.4,3.55,1.35l9.4.3h1.7q.9.2,1,1.4.2,2.2,1.6,2.5a4.817,4.817,0,0,0,2.7-.6,62.73,62.73,0,0,0,7.1-3.5,15.3,15.3,0,0,0,5.6-5.9q4.2-7.4,1.4-14.6a94.88,94.88,0,0,0-7.7-16q-6.5-10.5-16.4-23.5a17.028,17.028,0,0,0-12.5-7.3m-5.4,2.1q10.2.2,14.4,5.5,9.5,12,16.5,22.8a60.421,60.421,0,0,1,4.2,8.4q2.7,5.9,4.1,8.4a8.852,8.852,0,0,1,1.1,5.1q0,.6-.35,3.05-.4,2.45-1.1,2.75a2.205,2.205,0,0,1-1.85-.3q-1.2-.6-1.6,0-.3.5.2,2.3a3.322,3.322,0,0,1-.8,3.5,18.14,18.14,0,0,1-3,2,10.271,10.271,0,0,1-3,1.45q-.9.15-1.9-1.2a4.2,4.2,0,0,0-3.5-1.4q-2.1-.05-7.4-.05-1.95-.049-1.35-1.3.4-.851.65-1.3a5.417,5.417,0,0,0,.2-3.3,3.941,3.941,0,0,0-2.8-2.75q-2.35-.85-2.85-2.1a6.349,6.349,0,0,1-.15-3.55,11.738,11.738,0,0,1,.9-3.4,4.3,4.3,0,0,1,2.25-2.5q1.5-.7,1.75-1.45a1.541,1.541,0,0,0-.25-1.45q-.55-.7-1.65-.1a22.426,22.426,0,0,0-3.3,2.1,6.485,6.485,0,0,0-2.1,3.9l-.4,4q-.4,3-3.4,2.3-4.6-.7-9.3-1.2-2.8-.3-3.3.2-.6.4-1.2,3.4a9.118,9.118,0,0,1-1.9,2.95q-1.7,2-3.75,4.2-2.149,2.15-2.7-.1a5.835,5.835,0,0,0-1.25-2.85q-.8-.5-3.7.2l-5,1.6q-7,2.05-3.45-.25a46.508,46.508,0,0,0,5.35-4.05q3-2.6,3.9-3.4a2.255,2.255,0,0,0,.85-1.6,2.1,2.1,0,0,0-.4-1.35q-.4-.55-3.5-.85-3.15-.35-6.55-.7l-3.9-.3q-11.5-1-13.8-1.3-10.5-1.3-16.7-11.4a82.638,82.638,0,0,0,18.3,3q4.8.2,17.6,0a32.175,32.175,0,0,0,5.9-.7q3.6-.7,3.9-1.3a1.926,1.926,0,0,0,.25-1.05q-.05-.45-.75-.7t-3.75.45a53,53,0,0,1-9.35.9q-3.4.1-11.4-.1-12.5-.4-19.4-3.4-4.3-2-4.8-5-.6-3,2.8-6.3a112.089,112.089,0,0,1,9.6-7.8q1.55-1.05,7.45-4.6,1.6-.95,6.55-3.6,6.7-3.6,18.6-4.3,7.4-.5,25.3-.1m-55.1,48.9q.45-.65,1.85-.45.949.1,11.05,1.15,3.3.15,1.3,1.65-1.7,1.1-4.2,3.05-7.8,5.9-8.65,5.7T18,61.7q-.2-1.25-2.1-1.85a13.069,13.069,0,0,0-2.15-.35q-1.3-.251-.35-1.25l1.4-1.8q.4-.5,1.4-1.6a5.025,5.025,0,0,0,.95-1.55,3.132,3.132,0,0,1,.55-1.25M27.3,14.3q.551-.9-.9-1.25a1.358,1.358,0,0,0-1.85,1q-.4,1.35.9,1.25a2.5,2.5,0,0,0,1.85-1m31.05,2a1.045,1.045,0,0,0-.75-.6,2.237,2.237,0,0,0-2.25.75.767.767,0,0,0-.1,1.25,1.878,1.878,0,0,0,1.5.55,2.3,2.3,0,0,0,1.4-.8q.5-.7.2-1.15"/></svg>