<svg overflow="visible" width="100%" height="100%" viewBox="0 0 100.374 110.183" xmlns="http://www.w3.org/2000/svg"><path d="M22.874,1.655a17.448,17.448,0,0,0-13.4,6.1,17.121,17.121,0,0,1-3.1,3,2.986,2.986,0,0,1-2.2.4,5.242,5.242,0,0,0-1.851-.15,1.663,1.663,0,0,0-1.2.45q-.4.4-.1,1.35a3.218,3.218,0,0,0,1.75,1.7q1.4.75,1.3,1.7t-2.4,2.25q-2.35,1.3-1.4,2.35a2.193,2.193,0,0,0,2.25.7,1.664,1.664,0,0,1,2,.75q.55,1,1.25,2.6a8.722,8.722,0,0,0,4.2,4.7q.7.4,5.85,2.5-.45,1.1-1.25,3.7a116.466,116.466,0,0,1-5.6,13.9q-2.3,6.2,0,10.8a137.06,137.06,0,0,0,7.4,15.2,32.209,32.209,0,0,0,12,11.5,62.986,62.986,0,0,0,7.2,3.1v.1a17.429,17.429,0,0,1-1.5,6.3,16.142,16.142,0,0,1-3.1,4l-4.4,4.7q-1.2,2.049-.1,2.1,2.3-.2,6.05-4.95-.75,4.549.3,5.25,1.05.65,1.45-1a9.489,9.489,0,0,0-.05-3.75q-.4-2.05,1.5-2.35a35.077,35.077,0,0,1,1.3,5.15q.351,2.2.75,2.35c.267.1.55.2.851.3q.449.1.55-.5a5.4,5.4,0,0,0,0-1.5q-.9-3.9-1.3-5.9a23.542,23.542,0,0,1-.45-7.4q.149-1.451.149-2.2,5.9,2,13.7,3.9,2.5.6,3,1.3.5.6.4,3a3.518,3.518,0,0,1-2.2,3.4q-1.3.7-3.5,2.1-2.649,1.6-2.2,2.75.4,1.1,1.151.75a31.519,31.519,0,0,0,3.349-2.75q2.65-2.351,1.8.9-.9,3.2.1,3.35t1.5-2.45a6.837,6.837,0,0,1,1.2-3.4q.75-.8,1.5,2.7t1.349,3.65a1.643,1.643,0,0,0,1.05-.15q.45-.351-.649-3.65a14.848,14.848,0,0,0-1.651-3.9,4.029,4.029,0,0,1-.65-2.3,13.805,13.805,0,0,0-.4-2.75q-.251-1.1,1-1.35a7.859,7.859,0,0,1,2.8,0q1.551.2,3.35.5a70.389,70.389,0,0,0,13.6,1.1,34.826,34.826,0,0,0,13.2-2.8q9.9-4.4,10-14.6l-.1-8.4q0-1.8-.7-2.1a2.28,2.28,0,0,0-2.1.6,18.547,18.547,0,0,1-12.2,4.4q-4.6,0-12.8-2.3l-8.2-3.4q8.85-.651,12.2-1.3a18.252,18.252,0,0,0,5.35-1.8,11.514,11.514,0,0,0,3.851-3.95,28.163,28.163,0,0,0,3.1-8.25q.6-2.8,1.8-9.7.4-3.5-3.4-2.4-4.6,1.9-6.5,1.8a46.225,46.225,0,0,1,4.3-5.4,23.26,23.26,0,0,0,4.1-6.2q.9-2.1,2.6-6.9a2.333,2.333,0,0,0-.6-2.5q-.5-.5-2.1.3-4.4,3.2-5.3,3.8a18.337,18.337,0,0,1-6.5,2.2q1.9-4.5,2.7-6.6a31.364,31.364,0,0,0,1.8-6.5q.349-2.3-1.151-8.2-1.5-5.85-2.55-6.6a3.993,3.993,0,0,0-2.15-.85q-1.049-.1-1.149,1.95-.6,10.2-7.1,23.5a8.841,8.841,0,0,1-1.5,2.3q-2,2.4-2.2,2.6l.9-7.2q.2-2.5-.3-3t-3.1-.4q-2.2.1-1.6-2.1a32.678,32.678,0,0,0,2.7-9.3q.45-4.3.1-5.25t-1-.75q-1.249,0-2.1,1.7l-7.7,15.5a8.61,8.61,0,0,1-5.7,5.1q-1.6-12.4-9.7-18.7a20.252,20.252,0,0,0-13.5-4.3M7.523,18.805q-.049-1.45-.05-1.85a8.8,8.8,0,0,1,1.4-4.15,14.824,14.824,0,0,1,3-3.85q8.4-7.7,19.2-3,10.7,4.7,11.6,15.7a15.674,15.674,0,0,1,.1,2.9,4.044,4.044,0,0,1-1.2,2.7,17.925,17.925,0,0,0-.4,2.3q0,.6-.8,10.3a30.394,30.394,0,0,0,.6,10.2,2.729,2.729,0,0,0,.8,1.7q.7.7,1.9-.1,4.9-2.8,7.3-4.3a31.09,31.09,0,0,0,6.5-5.1,124.284,124.284,0,0,0,9.9-11.7,43.178,43.178,0,0,0,6.9-13.8q.3-1.1,2.7-7.8a14.735,14.735,0,0,1-.6,14.1,21.875,21.875,0,0,0-1.6,4.1q-1.3,5.6,4.1,4.3a43.688,43.688,0,0,0,9.3-4.1,50.148,50.148,0,0,1-5,8.5,55.018,55.018,0,0,1-4.55,5.05q-2.85,2.8-.45,5.25,1,1,3.8.4,1.7-.4,5.9-1.7-2.451,15.2-6.3,17.7a19.2,19.2,0,0,1-8.7,2.95,35.531,35.531,0,0,0-6,.85q-1.15.349-3.551.8a8.637,8.637,0,0,0-3.1.9q-.75.5.2,1.3.9.8,8.45,4a60.3,60.3,0,0,0,13.5,4.2,19.873,19.873,0,0,0,9.1-1l5.8-2.4q.1,8.5-.5,10.6-1.2,4.5-6.9,7.4-6.6,3.4-16.4,2.7-11.6-.9-19.4-2.3a93.4,93.4,0,0,1-18.9-5.3,34.24,34.24,0,0,1-12.2-7.7,31.4,31.4,0,0,1-7.9-12.2,39.341,39.341,0,0,0-3-6.8q-2.9-4.9-.1-10.8,2.2-4.8,3.8-9.2l3.55-9.9q-.75-.3-2.05-.8a40.8,40.8,0,0,1-6.9-3.1,4.94,4.94,0,0,1-2.7-4.05q-.1-2.451-.151-3.9m49.151-1.75a20.5,20.5,0,0,0,.4,4.2,2.662,2.662,0,0,0,3.1,2.1q1.3-.3,1.6.2a3.4,3.4,0,0,1,0,1.7,27.891,27.891,0,0,1-5,13.4,27.008,27.008,0,0,1-11.1,8.5q-2.3,1.1-2.5-1.2a28.7,28.7,0,0,1,.7-10.7,10.814,10.814,0,0,1,5.3-8.9,18.287,18.287,0,0,0,4.1-4.3q2.3-3.4,3.4-5m-33.5-6.7a4.41,4.41,0,0,0-1.3,2.6,1.957,1.957,0,0,0,2.1,2.2q4,.2,4.1-4a2.211,2.211,0,0,0-.7-1.1,3.353,3.353,0,0,0-1.7-.7,2.993,2.993,0,0,0-2.5,1"/></svg>