<svg overflow="visible" width="100%" height="100%" viewBox="0 0 62.409 116.104" xmlns="http://www.w3.org/2000/svg"><path d="M51.759,6.524a1.275,1.275,0,0,0-1.7.1,9.712,9.712,0,0,0-1.3,1.5,35.433,35.433,0,0,0-4.4,6.1q-1.6,2.9-2.4,11.2t.9,7.7a35.7,35.7,0,0,0-1.8,18.7,10.149,10.149,0,0,1-1.15,6.25q-1.65,3.3-1.1-2.55a94.106,94.106,0,0,0,0-14.45q-.549-8.65-2.85-13.2,1.15.3,1.75-9.6.55-9.951.4-12.65-.35-5.3-6.15-5.6a10.252,10.252,0,0,0-8.6,3.2q-7,7-3.8,18.25a21.2,21.2,0,0,0,3.2,5.2q1.7,2.2,2.15,2.2a8.03,8.03,0,0,0-.05,1.55v14.1a15.48,15.48,0,0,1-.7-1.6,21.371,21.371,0,0,0-4.8-10.8,50.568,50.568,0,0,0-8.7-8,9.975,9.975,0,0,0-3.2-1.2q-4.7-.7-3.7,4.5a36.191,36.191,0,0,0,3,7.8,26.448,26.448,0,0,0,5.3,6.4q1.6,1.5,6.5,5.4a57.393,57.393,0,0,1,6.2,5.9,2.125,2.125,0,0,1,.4,1.5q0,.6.15,2.1.25,2.2-1.15.5a26.924,26.924,0,0,0-4.1-5.55q-3.3-3.45-9.6-4.55-3.6-.5-5.6,1.4-1.9,1.8-1.5,5.5.3,5.9,5.3,11.2,2.9,3,9.7,8.8a80.782,80.782,0,0,1-8.2.7q-7.2.3-8,.4-2.3.15-2.15,1.05,0,.1.35,5.75.4,6.7,4.8,8a5.083,5.083,0,0,1,2.5,1.6,8.087,8.087,0,0,1,1.1,2.5l4.2,15.3q1.2,4.2,2.7,5.4,1.5,1.3,6,1.4,6.2.3,18.8.1a6.375,6.375,0,0,0,3.6-.9,7.233,7.233,0,0,0,1.8-3.5q3.3-11.1,4.8-16.7a7.125,7.125,0,0,1,4.4-5.4q3.7-1.2,5.1-5.7a61.238,61.238,0,0,1,2-8.1q.5-1.9,0-2.5t-2.5-.6h-16.5q3.6-4.3,6.45-7.6a11.216,11.216,0,0,0,2.75-7.85q-.1-4.551-2-5a26.276,26.276,0,0,0-6.4-.25,15.937,15.937,0,0,1,3.5-6.3,36.139,36.139,0,0,0,7-13q2.2-10.6.6-12.4-1.5-1.65-6.05,2.95a17.525,17.525,0,0,0,1.9-4.4q1.45-5.25,2.15-8.95a4.145,4.145,0,0,0-.3-1.9,2.916,2.916,0,0,0-1-1.4m-2.8,5.35q2-3.251,1.35-.3-.7,2.9-1.05,4.45-.4,1.5-3.6,9.35-3.15,7.8-1.35-.2,1.8-8.05,2.2-9.05a31.436,31.436,0,0,1,2.45-4.25m3.6,11.35a20.54,20.54,0,0,1-1.5,10.8,36.834,36.834,0,0,1-7.2,11.1q-.4-12.2,8.7-21.9m-5.7,31.8q3.4-1,3.1,1.45a12.7,12.7,0,0,1-1.6,4.7,34.474,34.474,0,0,1-2.25,3.5l-2.2,2.75q-1.2,1.5-2.5,2.85a13.635,13.635,0,0,1-2.35,1.95,4.466,4.466,0,0,1-1.8.9q-.2.1-.6-.4c-.267-.4-.366-.667-.3-.8a61.443,61.443,0,0,1,4.65-11.5q2.451-4.4,5.85-5.4m11.5,22.1q1,1.3-.9,6.3-1.6,4.2-7.6,4.4-26.2,1.1-41.5-.3-4.05-.55-4.6-2.8-.75-3.851-1.1-5.55-.4-1.7.75-1.65t9.8-.15q8.65-.251,38.95-1.55,5.2-.1,6.2,1.3m-10.1,14.3q.4.6-.1,2.6-1.5,5.4-4.6,16.1-.9,3.1-3.8,3l-18.8-.1a7.058,7.058,0,0,1-3.5-.7,7.943,7.943,0,0,1-1.6-3.4l-4.3-15.1a4.3,4.3,0,0,1-.2-2.5q.3-.6,2.2-.5l32,.1q2.2,0,2.7.5m-13.1-85.65a37.5,37.5,0,0,1,.55,6.65q-.05,3.549-.25,7.7-.249,4.05-1.35,4.6a7.925,7.925,0,0,0-.45-.7q-2-2.9-5.3-.7a7.016,7.016,0,0,0-2.7,2.9,10.3,10.3,0,0,1-3.65-5.6,26.558,26.558,0,0,1-.65-5.6,22.408,22.408,0,0,1,.6-5.15,8.754,8.754,0,0,1,3.4-4.75,7.992,7.992,0,0,1,5.5-2.2q3.75-.2,4.3,2.85m-3.4,20.55q1,1.9,3,5.4a14.666,14.666,0,0,1,1.7,6q.1,2.3.2,6.9.1,4.549-.15,7.95-.3,3.4-.5,6.45-.15,3.05-.15,4.5-.05,1.4-.25,3.2a10.4,10.4,0,0,1-1.65,4.15q-1.5,2.349-2.1,2.25a1.877,1.877,0,0,1-1.15-.9,19.2,19.2,0,0,1-1.55-4.1q-1-3.3-1.5-11.65t-.15-18.4q.351-10.05,1.75-11.85t2.5.1m-20.1,11a18.068,18.068,0,0,1-5-11,3.867,3.867,0,0,1,3.1.5,20.622,20.622,0,0,1,2.4,2,25.167,25.167,0,0,1,9.1,13.2,5.515,5.515,0,0,1,.1,3.1,54.044,54.044,0,0,1-9.7-7.8m-2.7,24.65q-2.3-2.25-2.8-7.35-.6-5.3,3.35-5a12.915,12.915,0,0,1,6.9,2.5,26.589,26.589,0,0,1,5.1,4.95,17.908,17.908,0,0,1,3.15,6.45q.5,1.6,2.1,9.8.25,1.449-3.4-.35a38.8,38.8,0,0,1-7.6-5.15q-4.549-3.651-6.8-5.85"/></svg>