<svg overflow="visible" width="100%" height="100%" viewBox="0 0 115.176 96.532" xmlns="http://www.w3.org/2000/svg"><path d="M54.826,4.919q-3.1-6.8-6.2-4.2-.7.6-5.1,7.8-10.5,21.2-11.9,24.5-5.2,11.6-13.1,17.6a103.057,103.057,0,0,1-11.2,6.65l-5.1,2.75q-3.2,1.7-1.8,4.3.9,1.5,7.4,11.7a2.251,2.251,0,0,0,1.6,1,3.225,3.225,0,0,1,2.6,1.2,14.764,14.764,0,0,1,1.3,2.5q2,4.5,6.4,13.3,1.7,3.4,5,2.2a10.911,10.911,0,0,0,4.9-4,4.528,4.528,0,0,0,.9-3.7,4.824,4.824,0,0,0-2.4-3,4.331,4.331,0,0,1-2.3-4.4,5,5,0,0,0-2.2-4.6q-3.9-3.2-2.4-5.4,1.5-2.25,6.1-5.35t7.5-2.55q2.85.55,25.75,2.95,22.85,2.351,23.65,1.35.7-1-.5-4l-28.9-58.6m-14.7,16.9q5.7-11.8,10.3-19.3l30.9,62.6-5.7-.4q-26.6-2.8-39.8-4.4-5.9-.8-8.65,1.65t-6.05,4.95q-3.3,2.5-4.45,3.25t-3.15,2a10.9,10.9,0,0,1-3.3,1.45q-.6.2-1.1-.6l-5.5-8.3q-1.1-1.7,1-2.7l4.95-2.65q10.75-5.85,14.85-9.9a31.662,31.662,0,0,0,6.2-8.25q1.8-3.4,9.5-19.4m-24.4,52q2.5-1.6,2.9.9.3,3.5,2.8,4.7a2.359,2.359,0,0,1,1,1,5.08,5.08,0,0,1,.45,2.25,6.681,6.681,0,0,0,.7,2.8,4.731,4.731,0,0,0,2.6,2.1q1.95.75,1.7,2.2-.3,1.4-2.75,3.05-2.5,1.6-3.5-.9-.7-1.7-6.8-14.8-.9-2.2.9-3.3m-3.2-12.2a4.819,4.819,0,0,0-3.4,1.25,3.428,3.428,0,0,0-1.15,2.55q-.05,1.4,2.45,3.7,1.4,1.3,4.1-.15,2.65-1.451,1.45-4.45-1.249-3.05-3.45-2.9m-1.5,1.85q1.6-.9,2.3-.1a5.258,5.258,0,0,1,.8,1.2,6.468,6.468,0,0,1,.55,1.25q.2.8-1.65,1.5a1.405,1.405,0,0,1-1.75-.3,9.306,9.306,0,0,1-1.25-1.7q-.55-.949,1-1.85m83.75-21.15q-6.649,1.35-6.55,3.2.049,1.45,2.6.9l18.8-4.4q2.65-.7,4.1-1.25t1.45-1.15q-.05-.65-1.25-1t-6.85,1q-5.65,1.3-12.3,2.7m-3.2-21.8q-2.951,2.1-8.95,5.8-6.049,3.649-5.7,5.65.1.649,1.15.75t4.9-2.5q3.851-2.6,8.85-6.15,4.95-3.549,5-4.65.049-.5-1.15-.75t-4.1,1.85m-23.95-3.5q-.7,1.251-.15,1.7a1.4,1.4,0,0,0,.95.35,15.919,15.919,0,0,0,2.85-2.65q2.45-2.6,5.3-6.05,2.85-3.5,3-4.6a1,1,0,0,0-1-1.2q-1.15-.15-5.6,5.55t-5.35,6.9"/></svg>