<svg overflow="visible" width="100%" height="100%" viewBox="0 0 115.281 78.238" xmlns="http://www.w3.org/2000/svg"><path d="M3.267.1q-1.8.4-1.7,1.4t-.45,11.45Q.567,23.4.567,29.85q0,6.4-.2,12.6t-.35,14.6a68.289,68.289,0,0,0,1.05,14.4q1.1,6,21.5,6.55,20.349.5,35.05-.05,14.75-.6,34.9-2.3,20.15-1.751,21.45-3.05,1.2-1.4,1.3-4.9V47.9a244.807,244.807,0,0,0-1.3-29.85q-1.5-12.45-3.4-14.05-1.8-1.6-6.9-1.6-41.7.5-97.2-2.4a23.6,23.6,0,0,0-3.2.1m1,14q-.1-9.2.75-10.15t6.95-1.05q15.9,0,36.6,1.7,10.9.5,27.8.5,24.4-.1,27.8-.1,3.2,0,4.1.7t1.6,3.8a172.584,172.584,0,0,1,2.4,20.3q.4,6.9.6,20.6V67.2q-.1,2.5-.7,3.1-.6.7-22.6,2.8-22,2.05-39.3,2.6h-15.1q-11.85-.05-21.1-.95-9.3-.95-10.35-9.35a123.6,123.6,0,0,1-1.05-15.2q0-6.8.85-16.85t.75-19.25m25.85,44.75q1.2,5.95,6.85,5.85a32.773,32.773,0,0,0,7-.55,7.807,7.807,0,0,0,4.4-7.9q-.2-3.45-2.4-4.25-6.7-2.6-11-1.2-6.1,2.1-4.85,8.05m3.95,1.2a2.689,2.689,0,0,1-1-1.95,3.029,3.029,0,0,1,.05-2q1.149-2.5,3.15-2.7a31.027,31.027,0,0,1,6.3.35,3.057,3.057,0,0,1,2.9,3.15,3.38,3.38,0,0,1-2.05,3.75,14.235,14.235,0,0,1-4.75,1,6.659,6.659,0,0,1-2.5-.55,12.229,12.229,0,0,1-2.1-1.05m59.5-1.45a10.273,10.273,0,0,0-2.1-10.2,14.133,14.133,0,0,0-10.3-4.8q-6.6-.3-10.5,3.4-4.1,3.9-1.65,10.1a42.62,42.62,0,0,0,3.55,6.75q3.5,5.55,11.3,3.15,7.3-2.2,9.7-8.4m-19.85,1.7a27.349,27.349,0,0,1-2.1-4.2q-1.851-4.8,1.25-7.3a13.369,13.369,0,0,1,7.65-2.55,10.159,10.159,0,0,1,9.65,5.05q3.4,5.5-1.9,9.8-3.9,3.8-7.9,3.6a8.2,8.2,0,0,1-6.65-4.4m35.3-4.7a5.433,5.433,0,0,0-.25-1.5,1.861,1.861,0,0,0-1.4-1.3,2.213,2.213,0,0,0-2.3.6,4.781,4.781,0,0,0-1,1.5,2.332,2.332,0,0,0,.6,2.3q1,1.2,1.9,1a3.11,3.11,0,0,0,1.65-1.05,3.006,3.006,0,0,0,.8-1.55m-6.05-26.7a1.965,1.965,0,0,0,.7,2,3.674,3.674,0,0,0,2.35.55,1.6,1.6,0,0,0,1.75-1.45q.2-3.5-2-3.8-2.1-.4-2.8,2.7m2.6,9a1.859,1.859,0,0,0-1.7,1,8.444,8.444,0,0,0-.75,2,2.4,2.4,0,0,0,.95,2.2,2.753,2.753,0,0,0,2.4,1q3.1-.1,2.6-3.2t-3.5-3m2.3-20.05a2.9,2.9,0,0,0-1.2-1.65,1.543,1.543,0,0,0-2.25.05,2.982,2.982,0,0,0-1.15,2.3q0,1.249,1.5,1.65a2.06,2.06,0,0,0,2.3-.6,2.626,2.626,0,0,0,.8-1.75m-19.9,4.45a11.708,11.708,0,0,0-8.6-3.2,11.538,11.538,0,0,0-8.4,3.5,5.682,5.682,0,0,0-1.9,5,6.378,6.378,0,0,0,2.75,4.6q4.7,3.45,7.65,3.45a22.885,22.885,0,0,0,4-.3,20.35,20.35,0,0,0,3.55-1.6q2.349-1.35,3-5.2a6.4,6.4,0,0,0-2.05-6.25m-9.1-.5q5-.1,7.5,3.1,2.7,3.4.4,5.2a28.6,28.6,0,0,1-3.05,2.05,7.794,7.794,0,0,1-2.65,1.15,8.742,8.742,0,0,1-3.95-1.15,19.912,19.912,0,0,1-4.45-3.05q-2.05-1.9.7-4.4,3-2.85,5.5-2.9M37.567,7.85a28.643,28.643,0,0,0-8.95,4.05,34.337,34.337,0,0,0-5.9,5.95q-2.95,3.649-.45,9.95a18.31,18.31,0,0,0,6.3,9.6,9.119,9.119,0,0,0,4.2,2.05,56.233,56.233,0,0,0,9.15-.2q7.1-.55,11-4.9a17.56,17.56,0,0,0,3.2-5.85,14.328,14.328,0,0,0,1.05-5.75q-.45-4.3-7-10.5-6.6-6.2-12.6-4.4m-8.1,7.3q5.649-5.1,11.45-4.4a12.765,12.765,0,0,1,8.95,4.65,19.757,19.757,0,0,1,4.1,8.8q.849,2.9-2.15,6.95a13.236,13.236,0,0,1-8.55,5.1,40.044,40.044,0,0,1-9.45.75q-3.9-.3-6.95-6.05-3.1-5.8-3.05-8.25,0-2.5,5.65-7.55"/></svg>