<svg overflow="visible" width="100%" height="100%" viewBox="0 0 42.719 115.041" xmlns="http://www.w3.org/2000/svg"><path d="M27.919.663a25.531,25.531,0,0,0-6.7-.651q-1.8-.049-4.35.1-2.55.1-2.15,3.349l.8,8.3q.5,7,1.6,23.8.9,15.3,1.6,23.8.5,4.3,3.5,25.5.7,3.5-1.9,5.2-.9.8-12.6,6.4-8.1,3.8-7.7,9.7.2,1.7,3.75,5.049a12.7,12.7,0,0,0,7.35,3.75,21.9,21.9,0,0,0,8.9-1.25,138.705,138.705,0,0,0,13.7-5.549,35.552,35.552,0,0,0,7.8-5.2q1.2-.9,1.2-3.4-2.5-23.7-8.2-69.4l-3-24.6a5.1,5.1,0,0,0-3.6-4.9m-10,8.9q-.3-5.1.1-5.6.6-.9,6-1.3,2.8-.1,3.5.4.6.5,1,3.2,4,28.4,10.8,85.5,0,.5.6,4.4a9.639,9.639,0,0,1,0,4.4,5.552,5.552,0,0,1-2.8,1.9q-.4.1-1.6-1.6l-5.95-10.4q-4.3-7.8-6.6-22.349-2.351-14.55-5.05-58.55m-14.8,96.7q-.7-3.1,2.3-5.2l5.5-2.9,5.5,9.1a43.209,43.209,0,0,0,2.4,3.95c-.3.1-.567.184-.8.25a15.162,15.162,0,0,1-6.3,1.1,10.853,10.853,0,0,1-5-2.3q-3.1-2.2-3.6-4m18.6-13.649q.9-.75,4.3-3.95l7.6,14.3q1.1,2-.5,2.851a14.355,14.355,0,0,1-2.55,1.05q-.949.249-3.05-2.651-2.1-2.949-4.4-6.9t-1.4-4.7m-3.75,2.05q.6-.251,1.95,1.75t2.55,4.15q1.2,2.149,2.6,4.449,1.35,2.25,1.2,2.851-.2.6-1.9,1.4a11.6,11.6,0,0,1-3.2,1l-.45-.9q-1.25-2.4-3.05-5.351-1.85-2.949-2.15-3.55-1.4-2.4-.85-3.549a2.885,2.885,0,0,1,1.65-1.55q1.05-.452,1.65-.7"/></svg>