<svg overflow="visible" width="100%" height="100%" viewBox="0 0 115.229 66.33" xmlns="http://www.w3.org/2000/svg"><path d="M50.5,15.78a1.222,1.222,0,0,0-1.2-1q-18.9,3.1-28.4,4.5L1.8,22.18a2.841,2.841,0,0,0-1.3.45,1.1,1.1,0,0,0-.5.95q.251,1.8,1.7,1.6,9.9-1.4,46.4-7.3a4.834,4.834,0,0,0,1.9-.5,1.734,1.734,0,0,0,.5-1.6M40,13.08a1.094,1.094,0,0,0,1.05-.55,1.422,1.422,0,0,0-.15-1.3q-.4-.7-4.4-2.9-4-2.25-9.15-4.85A42.5,42.5,0,0,0,19.7.18q-2.55-.651-2.5,1.05t1.2,2.05q1.151.3,4.4,1.45a39.158,39.158,0,0,1,6.5,2.75q3.2,1.8,6.6,3.7,3.35,1.9,4.1,1.9m62.1,12.1q.2-.9-1.65-1.2a68.932,68.932,0,0,0-7.4-.45q-5.55-.15-10.75-.35-9.1-.5-14.6-1.2-1.7-.2-1.7.5-.1,1.4.55,1.85a9.6,9.6,0,0,0,3.35.65l17.8,1q10.3.6,11.85.65a2.855,2.855,0,0,0,2.55-1.45m11.3-2.7q-1.8-2.3-3.6-2-1.9.2-3,3-1,2.4-2.6,7.4a2.893,2.893,0,0,1-2.8,2.3l-26.8.3q-4.1.2-6.6-5a7.221,7.221,0,0,0-2.45-3q-1.9-1.551-2.25-1.85-.4-.3-6.75-.45-6.349-.2-9.75,0a37.292,37.292,0,0,0-13.7,3.5,15.6,15.6,0,0,0-3.1,2.4,12.771,12.771,0,0,1-2.8,2.3,15.429,15.429,0,0,0-5.2,5,47.968,47.968,0,0,0-3.2,6.3q-3.3,7.5,3.4,9.9,3,1,12.9,1.3,3.8.2,4.5.9.7.6,1.4,4.3,1.3,3.7-1.7,4.1-2.9.2-5.35.3t-3.05.2q-.6.1-.6,1.3a1.333,1.333,0,0,0,1.2,1.3,9.724,9.724,0,0,0,2,0q3.9-.2,22.1-.7,13.5-.4,22-1.3.95-.1.95-.85a2.524,2.524,0,0,0-.35-1.25q-.35-.45-1.85-.45-1.549-.051-3.75.05-7.7.15-14.55.45-1.2.05-1.25-.9.05-1.2-.05-3.25-.251-3.2,1.25-4a10.127,10.127,0,0,1,3.3-.8q4-.5,4.6-3.9a2.391,2.391,0,0,1,1.1-1.9,7.762,7.762,0,0,1,2-.3l22.8-2.2a25.2,25.2,0,0,1,9.05.6q4.9,1.1,7.65,1.65a5.555,5.555,0,0,0,4.6-.85q1.8-1.4,2-6.1.3-5.7-.1-13.8a7.505,7.505,0,0,0-1.6-4m-2.9,1.3q1.2.049,1.3,1.95.1,1.85.4,6.85a59.594,59.594,0,0,1,.1,7.6q-.3,3.5-1.6,4.2-1.3.6-4.7-.6-2.2-1.1-3.4-1.6a8.368,8.368,0,0,0-3.6-.7l-32.1,3q-3.4.3-3.8,3.1a2.665,2.665,0,0,1-1.3,2.3,8.292,8.292,0,0,1-2.5.8,76.031,76.031,0,0,1-17.9.8q-.3,0-18-1.6a3.216,3.216,0,0,1-1.3-.6,1.761,1.761,0,0,1-.9-1,6.36,6.36,0,0,1,0-4.7,19.768,19.768,0,0,1,2.2-4.1q.7-1,1.8,0a11.409,11.409,0,0,1,1.35,1.55q.75,1,3.35,1.1a26.762,26.762,0,0,0,6.55-.8q4.05-.951,4.55-1.55a5.885,5.885,0,0,0,.85-2.45q.3-1.851.95-4.95a4.531,4.531,0,0,0-1.7-4.9,9.247,9.247,0,0,1,4.2-1.4q.5,0,3.7.1-2.45,12.95,3.45,11.6,5.85-1.35,8.45-1.85,2.6-.55,2.6-3.55a6.663,6.663,0,0,0-1.6-4.6,1.384,1.384,0,0,1-.3-.7,1.707,1.707,0,0,1,.1-.7l.4-.6q1.05.3,2.75,2.5a48.674,48.674,0,0,1,3.35,5.2q1.65,3,5.6,2.85,3.9-.2,9.9-.2,6-.051,23.6-.15,1.4-.1,1.7-.9.2-.8-.8-1.6a2.129,2.129,0,0,1-1-2.7l2.2-6.1q.5-.9,1.1-.9m-53.3,5.4q3.2,0,3.2,2.6,0,.8-3.75,2.45a7.3,7.3,0,0,0-.7.3q-3.551,1.55-4.6-.3a5.436,5.436,0,0,1-.9-3.1A1.445,1.445,0,0,1,52,29.83q1.4-.15,5.2-.65m-29.4,7.6a3.153,3.153,0,0,1,1.7-2.6,48.556,48.556,0,0,1,9-3.7q1-.3,1.4.4a2.858,2.858,0,0,1,.2,1.9q-.251,1.2-.5,2.9-.3,1.7-3.3,2.4l-6.95,1.45q-1.6.5-1.6-1.25,0-.951.05-1.5m15.8,20.4q-.1-1.9.5-2.2a10.639,10.639,0,0,1,3.5-.3h4q2.5-.3,2.65,2.9.15,3.15.2,4.05,0,.9-2.15.95t-4.5.2q-2.5.1-3.2-.8-.9-1-1-4.8m65.5-51.6a8.607,8.607,0,0,0,1.8-.6,1.821,1.821,0,0,0,.95-1.35q0-.75-1-.85a7.526,7.526,0,0,0-2.35.2L65.3,13.93q-2.6.649-2.7,2.35a.973.973,0,0,0,1.1,1.1q15.2-3.7,45.4-11.8"/></svg>