<svg overflow="visible" width="100%" height="100%" viewBox="0 0 117.02 87.908" xmlns="http://www.w3.org/2000/svg"><path d="M74.11,18.408a5.952,5.952,0,0,0-3.4-1.9,8.989,8.989,0,0,0-4.4-.1q-5.6,1.7-5.5,6.2.2,5.305.6,11.75.3,4.181.3,6.3.059,2.128-2.8,2.1a40.267,40.267,0,0,0-7.45.8,115.978,115.978,0,0,0-11.85,3.05l-1.4.4q-2,.5-3.95,1.1-1.907.656-2.85.9-.9.238-1.1-2-.2-2.193-.25-3.65a3.341,3.341,0,0,0-.8-2.45q-.788-.76-4.25-.9a55.894,55.894,0,0,0-7.8.4q-4.8.6-3.6,5.2a52.088,52.088,0,0,1,1.8,12.5q.208,6.8,1.3,16.5.7,5.2,5.4,12a2.627,2.627,0,0,0,2.2,1.3,3.445,3.445,0,0,0,2.4-1.5,14.336,14.336,0,0,0,1.4-2.6,36.438,36.438,0,0,0,2.2-8.3,53.868,53.868,0,0,0,.25-6.55q-.021-3.46.6-3.65t2.9,1.05q2.28,1.276,14.75,9.25t29.1,7.8q16.619-.187,19.85-4.65a19.794,19.794,0,0,0,3.75-10.05,31.409,31.409,0,0,0-.6-10.7,26.268,26.268,0,0,0-2.5-7.15q-1.343-2.217-3.6-5.3-2.2-3.042-9.85-2.9t-12.45.25q-3.1,0-3-2.8v-10.4a2.848,2.848,0,0,1,2.1-2.8,4.961,4.961,0,0,0,3.1-3.7,5.336,5.336,0,0,0-.6-4.8m-1.8,4a3.009,3.009,0,0,1-1.9,1.8q-2.8.894-3.3,1.55-.461.666-.5,4.8-.024,4.131,0,7.75.056,3.66-.35,3.9a1.148,1.148,0,0,1-.95.2q-.562-.1-.65-.8-.028-.694-.05-.9l-.9-17.8q-.1-2.9,3.4-3.6a6,6,0,0,1,4.6.9,1.7,1.7,0,0,1,.6,2.2m-25.8,25.2a38.4,38.4,0,0,1,7.7-1.5q7.3-.5,33.2-.7a10.963,10.963,0,0,1,1.1.05q1.2,0,.85,2.45-.949,7.2-1.75,10.8-.5,2.9,2.7,3.4a24.737,24.737,0,0,0,2.8.1,14.34,14.34,0,0,1,2.7.2,3.718,3.718,0,0,1,3,1.9q1.494,3.9-1.7,9.5a12.529,12.529,0,0,1-9.8,6.55,59.9,59.9,0,0,1-10,.75,106.749,106.749,0,0,1-13.45-2.1q-10.119-1.979-22.85-11.5l-6.7-4.3q-5.976-3.654-6.25-.15-.285,3.541-.25,6.4a32.532,32.532,0,0,1-.2,5.2,52.344,52.344,0,0,1-2.05,8.15q-1.048,3.568-3.7-1.4a27.945,27.945,0,0,1-2.85-12.2q-.1-2.4-1.4-18.8-.085-.68-.85-5.05-.345-1.428,1.75-1.95,2-.325,4.8-.5,3.1-.2,3.6.3.6.5.7,3.5l.4,8.4q.1,1.872,1.3,1.8,1.4-.054,1.35-1.6,0-.867-.05-1.7-.234-1.174,2.6-2,3.436-1.168,4.8-1.65,1.6-.549,8.5-2.35m50.35,7.2q1.551,3,.85,4.6-.351.688-2.45.5a10.56,10.56,0,0,1-3.4-.6q-.993-.543-.8-3.3.206-2.711.4-4.7.137-1.037.25-1.85.183-1.326,1.05-.45a29.551,29.551,0,0,1,4.1,5.8m-34.8-4.8q-.866-.852-3.9-.6a29.606,29.606,0,0,0-4.7.7,8.573,8.573,0,0,0-3.2,1.6q-1.486,1.175-.65,4.6.9,3.408,2.7,4.1a8.309,8.309,0,0,0,5.7,0,8.136,8.136,0,0,0,5-3.45q1.53-2.415.7-4.25a8.44,8.44,0,0,0-1.65-2.7m-1.6,4.15q.155,2.586-1.3,3.1a11.473,11.473,0,0,1-3.05.7,5.13,5.13,0,0,1-2.5-.25,1.957,1.957,0,0,1-1.1-1.9q0-2.4,1.75-2.9,1.792-.456,3.95-.9,2.153-.392,2.25,2.15m12.95-6.25q-2.3-.1-2.7,1.5a22.547,22.547,0,0,0-.65,2.8q-.251,1.5-.45,3.3-.4,3.4.6,4.5,1,1,4.5,1,3.7,0,5-1.5,1.3-1.4.8-5.1l-.55-2.2q-.75-2.9-1.85-3.5-.9-.6-4.7-.8m-.85,6.4a8.874,8.874,0,0,1,.25-2q.3-1.2,2.2-1.1a2.55,2.55,0,0,1,2.2,1.1,7.583,7.583,0,0,1,.6,3.6q.1,1.5-.8,1.9a7.311,7.311,0,0,1-2.1.3q-1.7.1-2.1-1a7.912,7.912,0,0,1-.25-2.8m41.95-48.2q-.546-.1-1.4,1.15a11.675,11.675,0,0,1-2.5,2.55,9.252,9.252,0,0,1-5,1.55,25.932,25.932,0,0,1-5.9-.15,11.446,11.446,0,0,1-7.2-4.4q-4-5.1-12-4.6a28.51,28.51,0,0,0-15.1,5.5,15.842,15.842,0,0,1-8.8,2.7q-12.5.6-20.6-6.8a13.166,13.166,0,0,0-8-3.5q-13.1-1-25.1,7.3a12.761,12.761,0,0,0-2.4,2.45,2.234,2.234,0,0,0,.2,3.05q.994,1.014,3.2-1.7a13.471,13.471,0,0,1,4.5-3.8q2.3-1.1,10.2-3.7,10.4-3.3,17.1,3a24.57,24.57,0,0,0,14.7,6.4,43.922,43.922,0,0,0,8.5.3,15.908,15.908,0,0,0,8-3.3q5.1-4.2,13.2-5a12.618,12.618,0,0,1,9.1,2.6,45.546,45.546,0,0,1,4,3.8,9.307,9.307,0,0,0,3.15,2.05,27.829,27.829,0,0,0,6.9.75q5.32.183,6.6-.45a30.374,30.374,0,0,0,4.75-3.45q.9-.9,2.1-2.25Q117.9,6.867,114.51,6.108Z"/></svg>