<svg overflow="visible" width="100%" height="100%" viewBox="0 0 98.263 115.555" xmlns="http://www.w3.org/2000/svg"><path d="M36.661,33.555q-.5-10.7-5-16.7a17.912,17.912,0,0,0-5.1-5.2,14.929,14.929,0,0,0-8.3-1.7,14.448,14.448,0,0,0-10.2,4.8q-9.2,9.6-7.9,27.2.1,1.3,1.8,14.8a79.848,79.848,0,0,1,.7,14.7q-.3,6.6-.1,19.9a15.976,15.976,0,0,0,2.2,8.5q6.2,12,18,14.3,12.5,2.4,19.6-9.5,6.3-10.3,2.4-26.4-6-18.1-7.2-26.8,0-.2-.9-17.9m-13.5-19.8q10.5,4,10.4,17.8a190.767,190.767,0,0,0,.9,19.3,109.437,109.437,0,0,0,3.9,15.3l.3.9q-2.1,4.7-2.7,5.9a22.15,22.15,0,0,0-1.4,3.5q-.8,2.3-3.3,7.6-1.3,3-4.2,8.9-1,2.5-3.1.5l-12.2-12.9q-1.6-1.9-4.75-5a13.381,13.381,0,0,0-1.45-1.3q-.25-12.05-2.4-29.9-1.3-12.4,2.7-21.8,6.7-12.9,17.3-8.8m14.05,64.4q1.9-5.1,2.95-5.85,1.849,6,2.5,9.05,3.3,12.7-3.4,22.9-4.3,6.6-10.7,7.35v-.9q-.1-3.9-.1-6.5v-4.95q0-2.4,2.3-6.5,2.25-4.1,3.4-6.8,1.1-2.749,3.05-7.8m-17.95,16.1a43.051,43.051,0,0,1,4.5,5.4q1.1,1.7,1,8.55a24.617,24.617,0,0,0,.1,3.35,24.335,24.335,0,0,1-6.5-1.9q-6.2-3-11.1-10.9a19.841,19.841,0,0,1-1.7-8.7,82.981,82.981,0,0,0,.2-9.6q9.9,9.851,13.5,13.8m61.8-86.5q-6.1-7.6-13.8-7.75a23.134,23.134,0,0,0-13.8,4q-2.7,1.851-4.9,3.65a15.54,15.54,0,0,0-3.8,4.8,26.852,26.852,0,0,0-2.6,6.15,41.716,41.716,0,0,0-1.3,7.65q-.8,7.6,4.7,21.25a65.284,65.284,0,0,1,5.05,26.8q-.5,13.1-.35,22.65.6,11.3,9.2,15.6,6,2.9,18.6,3a19.129,19.129,0,0,0,14.1-6.3,20.211,20.211,0,0,0,5.8-11.8q1.1-8.7-1.8-21.8-4-18.4-4.4-21.6-.9-16.2-1.9-24.2-1.7-13.9-8.8-22.1m-28.85.6a29.677,29.677,0,0,1,7.95-4.2q9.1-3.2,15.1,1.8,7.1,5.9,9.5,13.1a68.263,68.263,0,0,1,3.3,19.5,160.4,160.4,0,0,0,2,22.55q0,2.351-2.9,8.4-2.951,6-5.15,11.7t-6.65,14.45q-8.9-8.5-13.15-15-4.3-6.549-6.3-9.85a28.142,28.142,0,0,0-2.7-4,65.458,65.458,0,0,0-6.35-24.25,65,65,0,0,1-3-8.7,22.067,22.067,0,0,1-.45-9.1,43.93,43.93,0,0,1,2.3-8.25,17.3,17.3,0,0,1,2.4-4.4,25.431,25.431,0,0,1,4.1-3.75m39.45,60.1q2.8,10.8,3.3,14.1a43.587,43.587,0,0,1,.1,14.7,18.779,18.779,0,0,1-4.3,9,16.593,16.593,0,0,1-7.9,5.8,23.17,23.17,0,0,1-3.1.7q-.1-.649-.65-6.65a37.938,37.938,0,0,1-.35-7.25q.251-1.3,1.75-5.85t4.75-11.95q3.251-7.449,4.45-9.95,1.15-2.6,1.9-2.9a.831.831,0,0,0,.05.25m-38.25,4.05a112.626,112.626,0,0,0,6.05,9.6,92.778,92.778,0,0,0,5.9,7.85q1.849,2.051,4.9,5.85a20.605,20.605,0,0,1,4.1,7.75,45.869,45.869,0,0,1,1.25,6.5q.3,2.55-.05,2.95-.65,0-1.3-.05a79.222,79.222,0,0,1-8.5-1.3q-10.9-1.8-12.3-12.6a175.031,175.031,0,0,1-.3-21.3q.2-2.649.25-5.25"/></svg>