<svg overflow="visible" width="100%" height="100%" viewBox="0 0 116.477 43.753" xmlns="http://www.w3.org/2000/svg"><path d="M41.6,13.45a7.342,7.342,0,0,1-5.5-4.9q-2.6-8-11.9-8.5A17.116,17.116,0,0,0,9.5,6a57.286,57.286,0,0,0-6.4,8.55A21.208,21.208,0,0,0,0,25.15q0,12.3,8.4,15.8A26.942,26.942,0,0,0,28.15,42.6q10.05-3,11.5-10.55,1.4-7.6,11.4-7.75a209.751,209.751,0,0,0,21.1-1.55Q83.2,21.4,84.4,22.2t2.75,5.4q1.549,4.551,4.55,4.25a4.435,4.435,0,0,0,3-1.3,5.176,5.176,0,0,0,1.6-3.1q0-3.1.1-4.6.1-2.7,2.5-2.7,2.4.1,2.3,5.9,0,5.8,5,5.9,3.6.5,4.5-3.2a24.761,24.761,0,0,0,.3-6.5q-.2-3.8,2.9-5a3.9,3.9,0,0,0,2.3-2.4,4.613,4.613,0,0,0-.1-3.4q-1.1-2.6-4.5-2.3-22.5,2.1-37.95,3.55-15.45,1.4-21.7,1.55a42.386,42.386,0,0,1-10.35-.8m-6.7-2q1.5,4.5,6.5,4.85,4.95.351,10.15.6,5.15.251,25.15-1.55,11.1-1,33.3-3.1,2.6-.4,3.2,1.3.3,1.6-2.3,2.1-2.8.9-2.8,4.6V26.9a3.39,3.39,0,0,1-.5,1.55,1.292,1.292,0,0,1-1.1.75,2.192,2.192,0,0,1-1.3-.65,3.689,3.689,0,0,1-.7-2.55q-.1-1.95-.2-3.55a5.688,5.688,0,0,0-3.6-5.1,5.516,5.516,0,0,0-6,1.1,7.277,7.277,0,0,0-1.3,4.2l-.2,4.6q-.251,1.551-1.55,1.5a1.482,1.482,0,0,1-1.55-1.3,30.829,30.829,0,0,0-2.2-6.1q-1.6-2.9-5.35-2.5-6.45.7-18.15,1.9-12.9,1.3-19.2,1.6-6.35.3-7.75,5.8A24.371,24.371,0,0,1,33.9,36.4q-2.149,2.8-9.65,4A25.224,25.224,0,0,1,10.2,38.75a11.134,11.134,0,0,1-5.6-5.3,16.582,16.582,0,0,1-1.75-7.5q-.049-9,7.65-16.5a37.983,37.983,0,0,1,5.2-4.4,14.171,14.171,0,0,1,6.5-2.3,12.161,12.161,0,0,1,7.3,1.9,12.015,12.015,0,0,1,5.4,6.8m-12.25,4.2a10.287,10.287,0,0,0-6.4,2.75,11.385,11.385,0,0,0-4.15,6.45q-.8,5.7,2.8,8.1,3.6,2.5,7.85-.35,4.2-2.9,3.6-9.9-.649-7.05-3.7-7.05m-2.55,3.4a3.765,3.765,0,0,1,2.6-.15,3.142,3.142,0,0,1,1.05,1.35,13.822,13.822,0,0,1,.45,3.8,7.912,7.912,0,0,1-1.85,5.25Q20.4,31.651,17,30.65a3.329,3.329,0,0,1-1.9-1.9,6.885,6.885,0,0,1,1.1-5.95q1.95-3.2,3.9-3.75"/></svg>