<svg overflow="visible" width="100%" height="100%" viewBox="0 0 62.505 115.367" xmlns="http://www.w3.org/2000/svg"><path d="M50.227,29.05q-.351-.9-6-7-5.7-6.1-10-16.6-.8-1.7-1.3-2.6a7.941,7.941,0,0,0-1.7-2.4,2.844,2.844,0,0,0-2.05-.4,2.706,2.706,0,0,0-1.65.85,17.086,17.086,0,0,0-1.65,2.45,29.723,29.723,0,0,0-2.6,7.3Q21.826,16.1,16.327,21.8a84.535,84.535,0,0,0-7.5,8.45,1.7,1.7,0,0,0-.2,1.9,1.259,1.259,0,0,0,1.6.6q1.8-.4,1.7.2a3.232,3.232,0,0,1-.7,1.4l-9.5,16.8a16.414,16.414,0,0,0-1.4,2.5,2.579,2.579,0,0,0,.1,2.7,2.028,2.028,0,0,0,2.2.4q.4-.1,3.6-1.2,2.3-.9.95,1.9l-5.55,13a2.271,2.271,0,0,0,.4,2.4,2.129,2.129,0,0,0,2.2.7q.8-.2,2.55-.85,1.7-.65.95.55-.9,1.6-3,4.6a10.148,10.148,0,0,0-1.7,5.2q.05,1.249,3.05.6a26.631,26.631,0,0,0,3.85-1.3q2.1-.9,2.2,1.8.4,2.9,4.6,1,2.2-1.1,4.5-2.4,2.3-1.35,3.45-2.2t1.2.85q0,1.65.05,3.15a106.554,106.554,0,0,1-1.1,16.8q-1.3,7.4-6.8,8.8-1.3.5-3.05,1.05t-1.15,1.5a2.21,2.21,0,0,0,1.45,1.05,12.717,12.717,0,0,0,2.15.15q1.25.049,5.75.35,6.349.4,10.6.7,4.2.251,7.75.35t5.4.05q1.849-.1,1.9-.7t-3.15-2.25q-3.251-1.65-3.85-2.85a58.992,58.992,0,0,1-2.9-5.6,17.177,17.177,0,0,1-1.3-6.3q-.051-6.251-.15-15.9,0-2.35,1.75-1.3.849.45,1.55.9,1.35.8,5.3,2.85t5.45,2.95l8.3,4.5a3.891,3.891,0,0,0,1.2.3q.8.1.9-.1.9-1.7.4-2.6-2.9-4.4-4.2-6.7-1.6-2.4-1.3-3,1.8-4.8-1.7-9.5a2.331,2.331,0,0,1-.3-.9.755.755,0,0,1,.1-.7,2.561,2.561,0,0,0,1.3-2.6q-.1-.2-1.2-2.7l-2.9-6.85q-.8-2.1.85-1.4a6.1,6.1,0,0,0,2.45.45,1.575,1.575,0,0,0,1.55-1.05q.45-1.05-1.75-4.75,0-.1-5.3-10.1-2.651-5.2-4.4-9.15-.6-1.2.8-.55,2.049,1.05,2.6,1.3a1.379,1.379,0,0,0,1,.1.945.945,0,0,0,.5-.65,2.406,2.406,0,0,0-.2-1.45M29.377,4.1q.549-.2,2.1,2.5,1.549,2.651,4.15,7.95a35.987,35.987,0,0,0,5.1,7.2,2.551,2.551,0,0,1,.6,1.2q.3.8.1,1a3.556,3.556,0,0,0-.9,3.6,23.1,23.1,0,0,0,1.6,3.2l9.7,18.65q.549,1.151-.5.85-3.7-1.4-3.85.1a10.2,10.2,0,0,0,.95,5.1q.7,1.7,2.3,4.8a3.921,3.921,0,0,1,.6,2q-.1.8-1.6,1.4a1.873,1.873,0,0,0-1.3,1.6,4.434,4.434,0,0,0,.7,2.2q.2.2,1.2,1.3a3.25,3.25,0,0,1,1,1.3q1.3,2.8,1.4,2.9.7,1.8.2,2.4a3.4,3.4,0,0,0-.6,2.9q.1.3,1.2,2.4l2.3,3.9q1.449,2.45-2.5.2-1.251-.6-2.65-1.35-3.8-1.95-4.6-2.25a42.331,42.331,0,0,1-4.2-2.3q-1.6-.95-2.3-1.45-2.151-1.5-2.2-3.05-.051-4.249-.1-9-.051-2.2-.05-3.3,0-1.9-2-1.9-1.6,0-1.5,1.9,0,1,.1,3.1.2,3.3.6,13.4.3,8.4.2,13.4a50.3,50.3,0,0,0,.7,9.3,24.351,24.351,0,0,0,3.3,8.7,1.955,1.955,0,0,1,.25.45q1.4,2.4-3.5,1.8-6.15-.65-8.2-.65-2.1-.05-3.6-.2t-.55-.9a12.129,12.129,0,0,0,1.6-1.6,14.652,14.652,0,0,0,3.4-8.5q.3-5.7.25-20.65a231.6,231.6,0,0,1,1.55-25.35q.6-2.9-.7-3.4a1.361,1.361,0,0,0-1.45.25,2.168,2.168,0,0,0-.65,1.75q-1.1,11-1.2,14.8-.051,2.85,0,7.2-.2,2.5-1.7,3.3-1.2.65-2.9,1.4l-2.95,1.5q-2.85,1.1-2.1-.2a4.5,4.5,0,0,0,.6-2.45,1.294,1.294,0,0,0-1.15-1.25,5.557,5.557,0,0,0-2.7.5q-1.7.65-2.7,1-2.051.85-1.25-1.45a16.508,16.508,0,0,1,.85-1.75,25.568,25.568,0,0,0,2-4.1q.649-1.95-.1-2.4a5.977,5.977,0,0,0-3.1,0q-1.05.251-1.85.45-1.8.6-.95-1.5,3.6-8.8,5.5-13.85.9-3.1-2.1-2.55l-3.4.65q-1.7.4-.75-1.05l10.65-18.95q1.7-2.8,1.2-4a3.538,3.538,0,0,1,1.1-4.3,23.989,23.989,0,0,0,5.6-7.6q.8-1.8,3.4-8.7,1.5-3.3,2.35-3.55"/></svg>