<svg overflow="visible" width="100%" height="100%" viewBox="0 0 113.2 24.618" xmlns="http://www.w3.org/2000/svg"><path d="M113.2,22.233q0-.4-.7-.9a3.345,3.345,0,0,0-1.2-.6q-4.2-.2-7.7-4.9a92.057,92.057,0,0,0-5.2-8.3q-4-7.2-13.6-7.4a11.573,11.573,0,0,0-2.5-.1,1.757,1.757,0,0,0-1.7,1.6,1.784,1.784,0,0,0,.9,2.1,17.321,17.321,0,0,0,2.3,1,8.6,8.6,0,0,1,4.8,5.4,7.08,7.08,0,0,1-1.6,6.7q-4.9,6.4-8.4,1.2-3.3-7.9-4.8-11a10,10,0,0,0-4.5-5.1,9.18,9.18,0,0,0-6.7-.7,22.151,22.151,0,0,0-2.4.4,1.881,1.881,0,0,0-1.5,1.8,1.725,1.725,0,0,0,1.3,2,21.66,21.66,0,0,0,2.4.4q5.7,2.1,3.8,7.6a9.518,9.518,0,0,1-7.2,6.3q-5.7,1.5-8.5-3.3a28.966,28.966,0,0,1-3.6-7q-1.1-4-6.3-5.7-4.9-1.5-8.3.2-1.4.9-1.5,1.7a2.4,2.4,0,0,0,1.7,1.7,12.2,12.2,0,0,0,2.5.8q6.8,2.6,0,9.4-4.6,4.7-8.8.9-1.2-1.1-6.1-8.6a11.5,11.5,0,0,0-6.9-5.3,11.029,11.029,0,0,0-8.4,1.3,3.809,3.809,0,0,0-1.7,2.5q-.1.3.7.9a4.038,4.038,0,0,0,1.3.8q3.3,1.1,3.9,2.7.5,1.5-1.6,4.2a14.773,14.773,0,0,1-6.5,5.2q-.4.1-.8.8-.4.9.8,1.4,3.1,1.5,8.2-4.9,2.8-3.4,2.8-6.1-.1-2.6-3.1-5.8,4.9-1.5,8.7,3.3,2.1,2.8,5.8,8.7a8.669,8.669,0,0,0,5.4,3.5,8.393,8.393,0,0,0,6-1.4q8.7-5.7,5-15a4.49,4.49,0,0,1,4.1,3q2.7,6.6,5.1,9.4a9.72,9.72,0,0,0,9.4,3.6q7-1,10.4-8a7.4,7.4,0,0,0,.8-4.8,20.7,20.7,0,0,0-2-5.1,31.363,31.363,0,0,1,2.9,2.2,6.448,6.448,0,0,1,1.1,1.9q3.3,8.2,4,9.5,3.5,7.2,10.6,3.2a9.94,9.94,0,0,0,5.1-7.8,22.274,22.274,0,0,0-1.6-9.5q3-.4,5.4,3.3a78.4,78.4,0,0,1,6.4,9.8q4,5.7,9.2,6.1a6.043,6.043,0,0,0,1.8.1q.8-.2.8-1.3"/></svg>