<svg overflow="visible" width="100%" height="100%" viewBox="0 0 115.431 82.076" xmlns="http://www.w3.org/2000/svg"><path d="M100.756,52.1q-1.7-1.7-1.6-2.8,2-19.8-3.3-43.6-1.2-5.4-7.7-5.4-5,0-18.1-.2-11.5-.2-18.1,0-5.4.1-27.7,2.3-4.8.4-7.25,2.15t-2.85,8.35a142.053,142.053,0,0,0,.6,18.8q.6,7.1,2.4,21.4a6.29,6.29,0,0,1-1.8,5.3,84.274,84.274,0,0,0-14.7,18q-1.9,3.1,1.7,4.1a36.038,36.038,0,0,0,7.8,1.1h34.7q25.1,1.3,42.9-.95,17.751-2.25,23.65-4.7t3.15-8.5q-2.8-6.05-6.4-8.75a95.434,95.434,0,0,1-7.4-6.6m6.15,9.3a18.888,18.888,0,0,1,4.15,5.6q1.5,3.5,1.3,4.3-.3.8-3.6,2.2a26.555,26.555,0,0,1-7,1.9q-4.7.5-7.1.8-13.2,1.6-19.8,2.1a251.35,251.35,0,0,1-28.05.3H6.756q-2.5-.1-2.9-.9-.4-.7,1-2.9a38.523,38.523,0,0,1,5.9-7.3,62.011,62.011,0,0,0,6.2-7,9.344,9.344,0,0,1,4.8-3.9,20.922,20.922,0,0,1,6.1-1q21-.8,63-2.8,4.65-.2,6.25-.1,1.551.1,5.2,4.1,1.6,1.7,4.6,4.6M90.106,3.05q2.25.1,3.05,3.35a117.244,117.244,0,0,1,2.6,14.4,168.157,168.157,0,0,1,.75,17.5q0,10.55-.45,10.85-.5.3-.7.1-.249-.2-.25-1.05.1-1.55.05-8.7-.1-7.2-.95-16a64.683,64.683,0,0,0-2.4-13.5q-1.55-4.75-3.7-4.85-18.549-.45-25.7-.35-7.55.05-17,.7-9.45.6-15,1.15a35.061,35.061,0,0,0-7.2,1.1,7.187,7.187,0,0,0-2.85,1.75q-1.2,1.15-.6,10.05.6,8.85,2.2,23.95a55.392,55.392,0,0,0,.95,7.4q.4,2.3-1,2a3.091,3.091,0,0,1-1.55-.5q-.8-.8-1.2-5.1a195.817,195.817,0,0,1-2-29.25q.15-9.649.65-11.1.45-1.5,4.95-2.15,2.7-.45,5.25-.7,11.1-1.1,23.25-1.8,12.1-.75,38.85.75M83.856,6.9q3.2,0,4.1.7t1.5,3.7q3.6,17.1,3,30,0,1.9-.05,6.15v.7q-.15,1.55-1.45,1.6-10.7.55-16.1.85-31.1,1.5-47.6,2.25-1.3.2-1.4-1.5-.15-2.3-.6-6.8Q23.557,28,21.656,13.1a3.335,3.335,0,0,1,.5-2.6,3.53,3.53,0,0,1,2.3-.9,252.179,252.179,0,0,1,29.6-2.5q11.1-.4,29.8-.2M68.106,73.3q-.3-2.8-.95-3.5-.7-.649-3.45-.9a32.8,32.8,0,0,0-6.9.15q-4.149.35-3.7,4.45t4.3,4.2a48.779,48.779,0,0,0,6-.05,9.847,9.847,0,0,0,3.6-.85q1.4-.7,1.1-3.5m-7.45,2.75q-5,.1-4.9-2.55.1-2.7,4.5-2.7,4.4-.05,5.1.35.75.349.55,2.6-.249,2.2-5.25,2.3m26.65-8.85q.4,1.4,2.65,1.1,2.2-.3,1.9-1.75-.349-1.45-2.65-1.1-2.349.3-1.9,1.75m-.75-6.25a5.9,5.9,0,0,0,1.95-.15,5.713,5.713,0,0,0,1.55-.6q.4-.3.1-1.25a1.646,1.646,0,0,0-1.4-1.2,2.591,2.591,0,0,0-2,.3,1.84,1.84,0,0,0-.95,1.65q-.05,1.15.75,1.25m-7.95,6.6q-.349-1.3-2-1.05-1.65.2-1.5,1.5.15,1.249,2,1.05t1.5-1.5m-4.85-6.7q.4.75,2,.55,1.551-.251,1.6-1.4-.049-1.249-1.45-1.4a2.046,2.046,0,0,0-2,.65,1.365,1.365,0,0,0-.15,1.6m-12.15-.9a1.6,1.6,0,0,0,.75,1.2,4.45,4.45,0,0,0,2.3.35,1.911,1.911,0,0,0,1.95-1.7q.2-1.6-1.75-1.7a3.569,3.569,0,0,0-2.65.5,1.538,1.538,0,0,0-.6,1.35m-11.95.6q-.249,1.25.85,1.4a10.135,10.135,0,0,0,2.25.15q1.151-.1,2.5-.35a1.407,1.407,0,0,0,1.2-1.7q-.1-1.45-1.7-1.4t-2.5.1a5.812,5.812,0,0,0-1.65.3q-.75.251-.95,1.5m-5,7.35a3.452,3.452,0,0,0,.1-1.9q-.45-1.549-3.7-.65-1.9.55-2.1,1.75-.249,2.05,2.2,1.8,3.15-.35,3.5-1m-.7-7.7a1.233,1.233,0,0,0-1.4-1.25,15.157,15.157,0,0,0-2.9.2A1.383,1.383,0,0,0,38.306,61q.251,1.6,2.1,1.35a10.458,10.458,0,0,0,2.55-.4,1.433,1.433,0,0,0,1-1.75m-17.15,1.9q1.75.45,1.95-1.3.15-1.75-.5-1.95a6.622,6.622,0,0,0-1.85-.2q-1.2,0-1.3,1.5t1.7,1.95m-2.15,3.75a2.482,2.482,0,0,0-1.75-.35,7.536,7.536,0,0,0-1.65.1q-1.1.2-1.35,1.8-.3,1.549,2.05,1.7,4.35.251,3.4-2.15a3.468,3.468,0,0,0-.7-1.1m72.45-6.2q1.7-.5,1.4-1.7-.35-1.25-2.1-1-1.749.2-1.35,1.7.351,1.45,2.05,1m1.2,7.95a9.575,9.575,0,0,0,2.15-.4,1.024,1.024,0,0,0,.75-1.5q-.4-1.2-1.05-1.05-.7.15-2.1.4-1.449.2-1.05,1.4.351,1.15,1.3,1.15"/></svg>