<svg overflow="visible" width="100%" height="100%" viewBox="0 0 116.664 98.664" xmlns="http://www.w3.org/2000/svg"><path d="M27.361,3.034a25.527,25.527,0,0,0-3.3,2.25,15.054,15.054,0,0,0-3.3,3.1,29.514,29.514,0,0,1-4.4,5q-1.1,1-5,4.4l-9.8,8.4q-2.2,1.8-1.3,3.3a3.042,3.042,0,0,0,2.9,1.4q6.4-.8,7.1-.9a19.766,19.766,0,0,0,6.7-2.5q6.7-4.4,10.1-6.4a4.092,4.092,0,0,1,3.1-.6q4,1.7,4.4,6.5a9.412,9.412,0,0,1-2.85,7.8q-4.449,4.3-13.55,13.2-7.3,8.2-9.5,16-2.2,7,1.05,12.15t6.9,10.45q3.651,5.3,7.3,6.5t11.85,3.4a42.02,42.02,0,0,0,9.8,1.3q3.4.1,10,.2,6.3.2,18.8.5,11,.3,18.9.1a43.058,43.058,0,0,0,7.8-1q4.2-.95,7.7-1.8a25.579,25.579,0,0,0,5.95-2.15q2.4-1.35,1.85-2.15-.549-.849-.85-1.35t-2.6-3.75q-2.349-3.3-3.85-5.7-6.2-10.3-8.3-14.7-3.7-7.7-12.7-14.2-12-8.7-23.4-7.6-12.8,1.2-20,7.6-3.3,3-4.9,4.4-1.65,1.35-2.15,1.15a.893.893,0,0,1-.6-.7,5.2,5.2,0,0,1,.8-2.1,41.155,41.155,0,0,1,3.85-5.45q3.4-4.2,5.1-6.4a37.062,37.062,0,0,0,8.7-29,12.967,12.967,0,0,0-7.7-11.05q-7.05-3.5-11.75-2.35-4.7,1.1-6.2,1.6a15.156,15.156,0,0,0-2.65,1.15m-7.4,16.45a4.873,4.873,0,0,1-2.05,4,43.68,43.68,0,0,1-4.75,2.8,20.073,20.073,0,0,1-6.05,1.95q-3.2.45,3.95-3.3,7.151-3.8,6.65-4.75-.5-1-8.8,3.5t-1.25-.8q7-5.349,8.7-6.35a2.554,2.554,0,0,1,2.9-.25q.8.5.7,3.2m13-1.05a5.162,5.162,0,0,0-5.9-.1q-3.15,1.8-4.5-1a7.665,7.665,0,0,1-.3-5.95q1-3.1,5.5-5.2,7.1-3.2,11.2-3.5a12.949,12.949,0,0,1,10.4,4.1,10.944,10.944,0,0,1,3.3,5.3,33.552,33.552,0,0,1-7.1,27.9q-7.6,9.7-9,11.3-2.6,3.3-1.7,5.9a9.167,9.167,0,0,1-.4,5.6l-1.35,4.05q-.8,2.251.15,2.95a.994.994,0,0,0,1.6-.45,17.047,17.047,0,0,0,1.25-3.7q.651-2.649,4.15-6.15,4.5-3.8,6.6-5.7,6.1-5.4,18.2-7a22.128,22.128,0,0,1,10.1,1,46.791,46.791,0,0,1,9,4.5q10.6,6.6,14.2,14.7,2.3,4.9,9.2,16.5a32.976,32.976,0,0,0,3.75,5.2q2.2,2.3,0,3.05-11.3,3.851-18.55,4.05-21.3,0-51.1-1.4a45.033,45.033,0,0,1-9.45-1.45q-4.149-1.149-5.3-1.6a20.731,20.731,0,0,1-2.1-.95q-.95-.5-1.85-1a5.8,5.8,0,0,1-1.3-1.1q-5.8-7.2-8.4-11.1-5-7.3-1.6-13.5a65.682,65.682,0,0,1,9.3-14.2,131.435,131.435,0,0,1,11.9-12.2,14.64,14.64,0,0,0,4.5-10.1,9.891,9.891,0,0,0-.7-4.85,10.041,10.041,0,0,0-3.7-3.9"/></svg>