<svg overflow="visible" width="100%" height="100%" viewBox="0 0 76.332 115.951" xmlns="http://www.w3.org/2000/svg"><path d="M4.676,10q-6.7,11.2-3.8,26.4.4,2.2,1.2,6.9a9.185,9.185,0,0,0,4.1,5.9q.3,3.3.5,12.5.2,8,.8,12.6,4,15.4,9.2,24.2,7.5,12.7,19.3,16.2a33.657,33.657,0,0,0,9.4,1.1l9.3.1a17.287,17.287,0,0,0,12.2-4,17.609,17.609,0,0,0,6.7-10.4q.7-3.5,1.5-8.7,1.2-8.5,1.2-8.8a51.091,51.091,0,0,0-1-12.2q-1.7-7.9-2.5-11.9a30.7,30.7,0,0,0-2.5-7q-.75-1.4-2.5-4.85a14.576,14.576,0,0,1-.9-2.35q-1.151-3.6-2.6-7.95a40.353,40.353,0,0,0-2.7-6.45,85.128,85.128,0,0,0-16.6-20.7Q33.176.1,21.576,0q-10.9-.1-16.9,10m8.2-4.7q8.7-5.8,20.5.6,8.5,4.6,16.8,14.3a90.552,90.552,0,0,1,8.25,11.2,32.914,32.914,0,0,1,3.9,8.7,30.507,30.507,0,0,0,1.45,4.6,14.988,14.988,0,0,0-3.2-1,54.031,54.031,0,0,0-6.7-.7,224.179,224.179,0,0,0-44.9,2.7,4.054,4.054,0,0,1-2.3-.2,3.033,3.033,0,0,1-1.3-2,47.5,47.5,0,0,1-2-20.7q1.5-12.4,9.5-17.5m48.1,44.1a19.128,19.128,0,0,0,2.6-2.5,35.329,35.329,0,0,1,5,9.95,9.187,9.187,0,0,1-2.95-.05q-3.05-.3-3.65-.9a16.471,16.471,0,0,1-1.4-3.1,3.1,3.1,0,0,1,.4-3.4m-9.7,3.3a3.5,3.5,0,0,1,1.6-1.1l1.5-.5q3.7,0,4,4.1.1,1.2-.6,1.4a6.132,6.132,0,0,1-1.6.2,5.281,5.281,0,0,1-3.7-1.4q-1.8-1.5-1.2-2.7m3.7,7.1h1.7a3.611,3.611,0,0,1,2.9,1.3,4.987,4.987,0,0,1,1.2,3q.049,1.7-2.3,1.9a4.235,4.235,0,0,1-3.4-1.4,4.718,4.718,0,0,1-1-3.4q.1-1.2.9-1.4m8.9,3.1q-.7-2.951,2.9-3.05a17.27,17.27,0,0,0,3-.3,49.68,49.68,0,0,1,1.7,6.65,14.617,14.617,0,0,0-3.75-.25,3.541,3.541,0,0,1-3.85-3.05m-4.8,6a1.963,1.963,0,0,1,2.1.9,6.1,6.1,0,0,1,.4,2.3q.3,2.9-2.9,2.7a3.316,3.316,0,0,1-2.3-.7,4.242,4.242,0,0,1-.5-2.8,1.963,1.963,0,0,1,.9-2.1,9.372,9.372,0,0,1,2.3-.3m5.6,4.4a9.868,9.868,0,0,1-.3-2.6q.1-1.4,2.25-1.95a34.051,34.051,0,0,1,4.1-.8,4.412,4.412,0,0,0,1.05-.25l.3,2.2q.3,2.15.45,4.6a39.453,39.453,0,0,1-4.55.1,9.58,9.58,0,0,1-2,0,1.371,1.371,0,0,1-1.3-1.3m-13.3-3.9a3.386,3.386,0,0,1,1.4,1.6q.3.7.7,1.6a3.787,3.787,0,0,1-1.6,3,5.694,5.694,0,0,1-3.4,1q-.8,0-1.6-1.6a6.5,6.5,0,0,1-.7-3.2q.1-.9,2-1.9,2.1-1.1,3.2-.5m-2.8,10a11.821,11.821,0,0,1,2.6-.5q2.5-.7,2.6,1.9a28.1,28.1,0,0,0,.4,3.9q.7,4.7-.1,5.6-.8,1-5.8,1.5-.8-6.8-1-10.2a1.951,1.951,0,0,1,1.3-2.2m8.5,8.2q-.2-4.9-.3-7.3t2.2-2.4a4.093,4.093,0,0,1,1.9.3,1.8,1.8,0,0,1,.9,1.6l.7,7.1a5.037,5.037,0,0,1-.05,1.55,2.485,2.485,0,0,1-3.75,1.75,3.019,3.019,0,0,1-1.6-2.6m7.8-1.1q-.6-5.6.3-7.8.3-.5,1.7-.8a29.288,29.288,0,0,1,4.9-.5,2.089,2.089,0,0,1,.9.15q.251,5.3-.1,12.05-.5,0-1.25.05-5.35.15-5.95-.75a4.291,4.291,0,0,1-.5-2.4m-14.4-25.6q1.4,1.2,1.7,5.4-5.8,1.4-7,.6a29.459,29.459,0,0,1-1.3-5.7q0-.6,1.1-.9,4-.8,5.5.6m-19.6-3.1a8.326,8.326,0,0,0-.45-1.65,29.068,29.068,0,0,0-2.15-3.75q4.15.3,8.2.4a5.4,5.4,0,0,0,1.7-.1q.9.1.8,1.3a7.413,7.413,0,0,0,.5,2.7q.1,1.7-2,2.1a14.579,14.579,0,0,0-2.8,1,3.978,3.978,0,0,1-2.5.3q-1-.4-1.3-2.3m13.9-.3q-1.7.4-3-1.9t.6-3.1q3.7-.6,4.8-.1.9.6,2.9,4.1-3.9.8-5.3,1m-9.6,5a7.4,7.4,0,0,1,4.1-1.4q.8.1,1.8,2.3a10.3,10.3,0,0,1,1,4q0,1-2.2,2a13.15,13.15,0,0,1-4.4,1q-1,0-1.7-1.6a7.334,7.334,0,0,1-.8-3.5q0-1.3,2.2-2.8m-16.8-3.4q-.75-2-2.9-8.25,5.5.85,10.2,1.35a46.024,46.024,0,0,1,3.1,7.9,3.09,3.09,0,0,1-2.2,3.6q-1.4.9-2.1,1.3-2.6,1.5-3.2,1.3-.6-.3-1.7-3.3a32.346,32.346,0,0,0-1.2-3.9m-6.35-8.75a57.152,57.152,0,0,0,2.5,7.6q3.649,9.851,5.35,14.45.9,2.6.7,3.2-.2.7-2.4,2.3l-5,3.9a20.533,20.533,0,0,1-2.9-8.4q-.4-5.7-.8-8.6-.3-2.7-.3-10.9,0-2.5.8-3.2a3.513,3.513,0,0,1,2.05-.35M24.476,74.6q-.9-.2-1.5-1.6a6.758,6.758,0,0,1-.8-2,1.941,1.941,0,0,1,1-1.9l6.3-4a5.766,5.766,0,0,1,.5,6.4,5.5,5.5,0,0,1-5.5,3.1m2.9,12.1a56.985,56.985,0,0,1-2-5.5q-.9-3.2,1.7-4.5,3.6-1.8,4.8-1.2t1.6,4.5a5.588,5.588,0,0,1-2.2,3.6q-1.2,1-3.9,3.1m-6.6-6.8q.2-.2.8.2.6.3.7.6a46.854,46.854,0,0,1,2.4,7.5q.2.7-1.4,2.4-5.9,3.35-5.65,4.5-4.151-6.8-2.55-10.6a35.029,35.029,0,0,1,5.7-4.6m19.3-7.8a5.535,5.535,0,0,1,2-.3q1.1.1,1.6,1.5,1.2,3.4-1.6,5a22.754,22.754,0,0,1-5.6,2.2l-.5-2.1q-1.2-4-.7-4.6.4-.5,4.8-1.7m-8.5,14.8q1.6-1.1,2.9-2,0,.1.7,5.6a41.486,41.486,0,0,0,.9,4.9q.851,3.3-4,6.85-1-3.5-1.75-6.1-1.65-5.449-1.45-6.35t2.7-2.9m12.4-5.8q.6.3.7,2.7.2,1.8.4,5.5.7,3.2-.1,4.2-.1.1-3,1.8a17.388,17.388,0,0,1-2.8,1.4l-1.8-10.8q-.5-2.4,1.5-3.1l2.3-1q2.3-1,2.8-.7m-27.6-33.6q7.1-.6,21.2-1.9a84.145,84.145,0,0,1,21.2,1.3,86.158,86.158,0,0,1-42.4.6m24,52.2q.7-1,5.3-2.8.4,6.8,1.25,13.95a17.983,17.983,0,0,0,.35,2.55q-2.9,0-4.75-.15a3.871,3.871,0,0,1-.15-.6q-1.7-5.95-2-7.45-.7-4.4,0-5.5m-7.4,5.75q1.751-.75,2.1-.95a7.351,7.351,0,0,0,2-1.7,80.813,80.813,0,0,0,2.25,8.45q.3,1,.55,1.65a32.8,32.8,0,0,1-5.2-1.35c-.067-.233-.133-.467-.2-.7q-.8-2.9-1.5-5.4m-4-5.05q.55,1.55,1.1,3.15-2.75,1.7-3.8,2.5a101.341,101.341,0,0,1-7.7-9.45.448.448,0,0,1,.2-.05,23.95,23.95,0,0,0,4.9-2.1q2.7-1.549,3.1-.65l2.2,6.6m2,6.25q.05.15.85,1.95.7,1.751.9,2.15a22.353,22.353,0,0,1-5-3.15,20.14,20.14,0,0,1,2.55-.95q.6-.15.7,0m41.3-12.05a26.71,26.71,0,0,1-.35,3.7,33.334,33.334,0,0,0-3.9,0q-3.3.1-2.95-3.35.3-3.4,3.5-3.35a19.9,19.9,0,0,0,3.9-.15q-.1,1.549-.2,3.15m-1,6.05a15.586,15.586,0,0,1-2.5,5.45,17.347,17.347,0,0,1-2.55,3q-.049-1.5-.55-5.2-.45-2.05.8-2.75a7.072,7.072,0,0,1,3.1-.8q1.8-.15,1.7.3m-10.8-7.75q1.8,0,2.1,1.2a12.683,12.683,0,0,1,0,2.3,4.145,4.145,0,0,1-.9,3,2.11,2.11,0,0,1-2.4.6q-.6-.2-1.4-2.5a10.278,10.278,0,0,1,.4-3.8q.5-.8,2.2-.8m-7.5,1a1.8,1.8,0,0,1,1.7,1.1q1.7,4-.2,5.9-1,1-5.4,2.6-.3-3.2-.4-4.7a4.63,4.63,0,0,1,1.4-3.9,5.6,5.6,0,0,1,2.9-1m-2.8,13.2a7.324,7.324,0,0,1,3.65-2.3,56.681,56.681,0,0,1,6.95-2q1.549-.15,3.2,6.45.2.8.35,1.35a16.7,16.7,0,0,1-5.75,2.4q-5.1.3-8.85.4-.45-4.95.45-6.3"/></svg>