<svg overflow="visible" width="100%" height="100%" viewBox="0 0 119.936 101.549" xmlns="http://www.w3.org/2000/svg"><path d="M84.631,59.566a10.964,10.964,0,0,0,1.9,1.85,1.577,1.577,0,0,0,1.95.05q.95-.7-.1-1.8a16.985,16.985,0,0,0-1.9-1.9,1.267,1.267,0,0,0-1.8,0q-1,.7-.05,1.8m-6.4-7.3a1.136,1.136,0,0,0-.1,1.85,15.265,15.265,0,0,0,1.7,1.5q.75.5,1.45-.45.75-.949-.65-2.3-1.4-1.4-2.4-.6m-7.15-7.65q.05-.249-.9-1.25-1-1.05-1.7-.8a1.21,1.21,0,0,0-.85.85q-.251.551.85,1.6,1,1,1.8.45.75-.6.8-.85m3.95,3.15q-1.4-1.45-2.05-.45-.651.951-.25,1.5a6.617,6.617,0,0,0,1.4,1.4q1.05.851,1.55.4a2.8,2.8,0,0,0,.6-.95q.1-.5-1.25-1.9m-43.55-.9a4.162,4.162,0,0,0-4.1,4.15q-.251,2.051-.5,6a8.759,8.759,0,0,0,.7,4.35q.75,1.3,3.55,2.45,3,1.3,9.1,3.35,2.8.851,2.7,3.2-.351,5.85,6.8,8,3.75,1.1,17.6,3.9a7.6,7.6,0,0,0,3.7-.25q2.25-.7,2.55-4,.2-1.85-1.95-2.9l-4.9-2.45q-9.5-4.15-11.05-16.15-1.551-9.15-3.35-10.35-1.851-1.2-7.75,0a54.593,54.593,0,0,1-6.65,1.15,5.861,5.861,0,0,1-1.75-.45q-1-.5-4.7,0m17.45,1.35q1.65-.45,2.65,2.2a21.174,21.174,0,0,1,.85,5.1q1.55,11.7,8.35,16.8a28.245,28.245,0,0,0,4.5,2.75q3.5,1.7,4.15,2.15a1.445,1.445,0,0,1,.8.95,1.951,1.951,0,0,1-.05,1.15q-.2.5-2.1.05-13.151-2.6-17.65-3.8-3-.851-3.85-2.65a12.891,12.891,0,0,1-.75-3.4q-.7-4.65-8.5-6.45-5.951-1.95-6.8-3.3-.9-1.45-.25-7.65a6.751,6.751,0,0,1,.95-2.1q.75-1.249,3.35-.3,2.55.949,7.65-.05,5.049-1.1,6.7-1.45m4.2-14.65q-1.8-.45-2.1.6t1.5,1.6q1.85.551,2.15-.65t-1.55-1.55m-6.2,1.35a3.282,3.282,0,0,0,1.15-.1.953.953,0,0,0,.7-.75,3.026,3.026,0,0,0-.05-1q-.2-.35-1.65-.55t-1.6.85q-.15,1.1.35,1.3a6.821,6.821,0,0,0,1.1.25m15.65,3.75q-.85,1.05.65,2.2,1.5,1.1,2.05.7a1.914,1.914,0,0,0,.7-.65,1.016,1.016,0,0,0,.2-.55q0-.249-1.4-1.45-1.4-1.249-2.2-.25m-5.75-2.8q-.5,1,1.15,1.7,1.65.65,2.35-.1t-.5-1.4a14.811,14.811,0,0,0-1.9-.9q-.7-.25-1.1.7m-14.1-7.8a2.477,2.477,0,0,0-1.85-.15,3.321,3.321,0,0,0-1.3,1.55,7.6,7.6,0,0,1-1.55,2.15q-1,.8-3-.55-2-1.4-3.05.45-1.05,1.8.9,2.95a6.732,6.732,0,0,1,2.4,2.05,2.207,2.207,0,0,1-.25,2.3,8.138,8.138,0,0,0-.9,2.25,1,1,0,0,0,.6,1.2,2.7,2.7,0,0,0,1.8.1,4.418,4.418,0,0,0,2.25-2.1q1.149-1.849,2.25-1.3a11.506,11.506,0,0,0,2.3.95,3.438,3.438,0,0,0,1.8.1,1.529,1.529,0,0,0,.85-1,1.6,1.6,0,0,0-.05-1.2q-.25-.549-2.1-1.45-1.8-1-1.9-1.9a4.925,4.925,0,0,1,.45-2.25q.549-1.35,1.05-2.5a1.1,1.1,0,0,0-.7-1.65m30.1-7.8q-2.651,4.25-2.45,5.5.149,1.35,3.75,4.85a8.562,8.562,0,0,1,2.85,6.3,18.3,18.3,0,0,0,2.4,7.65q2.45,3.9,6.45,3.8,3.649-.15,6.95-4.05a12.308,12.308,0,0,0,3.3-8.35q0-1.8-2.5-4.6a7.464,7.464,0,0,1-2.25-5.65q.249-2.75.6-5.55t-14.15-5.85a6.944,6.944,0,0,0-3.85.75q-2.451,1.1-1,2.75a1.5,1.5,0,0,1,.5,1.25,2.726,2.726,0,0,1-.6,1.2m.85,4.05q.15-1.7,2.45-3.15a23.775,23.775,0,0,1,4.45-2.25,7,7,0,0,1,5,.25,6.824,6.824,0,0,1,2.9,1.9q.849,1,.05,2.85a6.15,6.15,0,0,0-.15,5.25,17.137,17.137,0,0,0,3.2,4.75,5.335,5.335,0,0,1,1.4,3.5,5.19,5.19,0,0,1-1.2,3.4,28.22,28.22,0,0,1-4.7,4.15q-2.55,1.7-5-1.75a9.652,9.652,0,0,1-1.95-5.9,12.514,12.514,0,0,0-4.5-9.5q-2.1-1.8-1.95-3.5m34.9,15.1q1.9-.8,1.2-4.8l-5.25-31.2q-.351-2.55-1.55-3.1-1.2-.7-3.75.15-5.5,1.6-6.85,1.8-28.45,3.651-42.65,5.5-31.35,3.851-46.8,6.3-1.751.2-1.6,1.5.15,1.251,1.25,1.1l56.1-7.25q17.3-2.351,32.4-4.3a49.89,49.89,0,0,0,8.15-1.7,2.62,2.62,0,0,1,2.05,0,2.839,2.839,0,0,1,.75,1.8q2.248,14.8,4.6,28.7a3.168,3.168,0,0,1-1.45,3.5,10.376,10.376,0,0,0-4.4,4.6,3.91,3.91,0,0,0,1.45,5.4,10.685,10.685,0,0,1,3.15,4.8l8.55,22.5q1.1,2.7.7,3.65-.5,1-3.25,1.8a38.657,38.657,0,0,1-8.55,1.65q-26.7,2.4-37.05,2.5a97.817,97.817,0,0,0-27.85,4.25,23.906,23.906,0,0,1-4.9.65q-3.1.2-3.65-.4-.7-.45-1.4-3.5-1.7-7.9-2.6-11.9-1.551-7.05-2.9-11.9a63.735,63.735,0,0,0-2.7-7.3q-2.3-5.1-3-7.2-2.3-6.649-7.4-23.7a2.7,2.7,0,0,1,.2-2.55q.649-.95,2.95-1.35,8.149-1.35,24.4-3,16.2-1.7,22.45-2.45,6.249-.7,16.95-1.4a111.409,111.409,0,0,0,15.35-1.75,3.043,3.043,0,0,1,2.05,0,2.5,2.5,0,0,1,1.1,1.55l6.05,14.45q1.1,3.1,2.55,3,1.5-.15,1-1.9a16.352,16.352,0,0,1-.6-1.55l-6.6-15.55q-1.3-2.951-2.3-3.4-.951-.4-3.9.5a54.414,54.414,0,0,1-8.4,1.8q-4.6.649-11.45.95-6.9.3-10.25.7-3.4.45-5.4.65c-.267.033-.517.067-.75.1q-25.851,2.6-38.95,4.3-14.35,1.9-14.9,2.2a1.787,1.787,0,0,0-.9,1.3q-.25,1,1.55,6.95,1.85,5.9,8.35,23.4a152.577,152.577,0,0,1,8.65,35.55,116.059,116.059,0,0,0,2.1,12.4q.5,2.5,1.65,3.1,1,.55,3.45-.2l11.2-3.55a42.661,42.661,0,0,1,12.5-1.35q11.3.05,12.65,0a49.56,49.56,0,0,0,8.35-1.1q5.749-1.15,7.85-1.65a54.788,54.788,0,0,0,5.4-1.5,50.045,50.045,0,0,1,10.7-1.7q5.649-.35,21.4-2.05,2.7-.349,3.55-1.45t.4-3.9q-2-13.7-9.25-33.2a5.288,5.288,0,0,0-4.15-3.75,10.543,10.543,0,0,1-1.85-.5q-1.05-.349-.95-1.2a5.085,5.085,0,0,1,1.6-2.45,9.92,9.92,0,0,1,3.4-2.35M3.631,23.216q-.7-2.1.6-2.05a2.294,2.294,0,0,1,1.05.45,1.608,1.608,0,0,1,.8.95q2.149,6.4,3.85,12.9.849,2.7,2.45,8.05a70.026,70.026,0,0,0,2.95,7.85,71.838,71.838,0,0,1,4.85,13.25q.15.851,3.3,13.65l1.95,8.65q.949,3.75,2.15,4.7t4.75.6a45.056,45.056,0,0,0,5.35-.95q3.9-.849,5.35-1a163.907,163.907,0,0,1,25.55-3q20.749-1.1,25.55-1.7,7.3-.35,11.15-.9a38.435,38.435,0,0,0,10.7-3.15,9.029,9.029,0,0,1,.5,2.95q-.15.5-2.05.75-6.351.95-14.25,1.65-6.45.5-9.7.9a38.942,38.942,0,0,0-9.4,2.25,4.78,4.78,0,0,1-3.65.05,5.148,5.148,0,0,0-5.85.7q-3,2.35-8.75,2.35-.251,0-13.35-.15a39.818,39.818,0,0,0-13.1,1.6q-9.5,3.251-10.35,3.6a2.355,2.355,0,0,1-1.85.05q-.6-.3-.75-1.6-.45-1.95-3.15-18.7a122.356,122.356,0,0,0-4.15-18.5l-12.5-36.2"/></svg>