<svg overflow="visible" width="100%" height="100%" viewBox="0 0 116.968 44.417" xmlns="http://www.w3.org/2000/svg"><path d="M35.9,1.7A3.418,3.418,0,0,0,33.8.1,22.914,22.914,0,0,0,31,0Q21.2,0,16.3.2,7.7.5,2.4,3.6A3.984,3.984,0,0,0,0,7.4Q.4,18.1.9,39.6a5.233,5.233,0,0,0,.9,3.2A5.7,5.7,0,0,0,5.1,44a54.686,54.686,0,0,0,7.6.4,22.434,22.434,0,0,0,7.5-1.6l11.4-3.6q4.4-1.4,5-2.3a10.871,10.871,0,0,0,.3-3.25q.15-1.2,1.3-.65a17.834,17.834,0,0,1,1.9,1.55,8.966,8.966,0,0,0,3,1.8,4.23,4.23,0,0,0,2.55.1A4.342,4.342,0,0,0,47.6,34.8q.9-1.3,1.9-1.1a5.8,5.8,0,0,1,2.3,1.6,12.637,12.637,0,0,0,2.8,2.1,2.043,2.043,0,0,0,2.25-.15q1.05-.75,2.55-2a4.825,4.825,0,0,1,2.3-1.3q.8-.05,2.7,1.8a19.8,19.8,0,0,0,2.95,2.5Q70.9,40.5,73.3,37t3.35-3a19.379,19.379,0,0,1,2.75,1.95q4.3,3.349,6.1,3.25T91,34.8a2.975,2.975,0,0,1,2-1.2,3.475,3.475,0,0,1,2,1q3.1,2.8,5.8,1.5a9.935,9.935,0,0,0,3.35-3.3,1.671,1.671,0,0,1,2.75-.3q1.5,1.151,4,2.7,4,2.5,5.1-1.2a31.693,31.693,0,0,0,.95-9.6q-.15-5.9-.35-16.6a4.479,4.479,0,0,0-.9-3.2,4.76,4.76,0,0,0-3.2-1.2q-26.9.1-40.3.1l-30.8.4a27,27,0,0,1-3.1-.1,3.564,3.564,0,0,1-2.4-2.1m-5.6.9q2.5.1,3,.6.5.6.6,3.2V19.2q0,10.8.1,12.9a5.462,5.462,0,0,1-.6,2.8A4.271,4.271,0,0,1,31,36.4a128.547,128.547,0,0,1-13.3,4.15,39.441,39.441,0,0,1-6.95.75,17.65,17.65,0,0,1-5.15-.5,3.393,3.393,0,0,1-2-2.9q0-.2-.2-3.9Q3.2,17.5,2.9,9.3a3.875,3.875,0,0,1,.8-2.9A5.043,5.043,0,0,1,6.2,4.8q7.5-2.2,24.1-2.2m7.1,4.9q.5-.5,2.9-.7,7.7-.1,69.6-.4,3.2,0,3.8.6.5.5.6,3.8-.1,3.9,0,11.5a50.339,50.339,0,0,1-.85,9.8q-.3,1.55-2.4,0l-4.25-3.3q-3.2-2.5-5.9,3.2-.7,1.5-1.6,1.6-1,.2-2.7-1.2-3.1-2.5-4.1-2.4-.9,0-3.4,2.8-2.8,3.2-3.9,3.3t-4.3-2.6L79,31.9q-2.5-2.1-3.6-2-1.1.2-3.1,2.8-2.149,2.8-3.5,2.45t-3.85-3.1Q62.4,29.3,61.4,29.3q-.9,0-3.1,2.3L57,33.1q-1.5,1.9-3.8-.4A9.236,9.236,0,0,0,49.45,30q-1.451-.349-3,1.8-1.65,2.051-4.95-.15a20.6,20.6,0,0,0-3.95-2.35q-.65-.15-.65-1.15V10.3q.1-2.4.5-2.8M30,19.7q-.1-6.2-.1-9.3.1-3.3-3.8-3.5-9.6-.4-14.4-.4-2.4,0-3.1.7-.6.6-.7,3.1L7.4,33a5.161,5.161,0,0,0,.75,3.4q.8,1.1,4.1,1.55a25.8,25.8,0,0,0,6.8,0A13.531,13.531,0,0,0,25,35.8Q27.8,34,29,29a37.061,37.061,0,0,0,1-9.3M14.5,9.4H19q6.5.5,7.6,1.6,1.1,1.2.9,7.6a53.959,53.959,0,0,1-.6,5.6q-.3,1.8-.9,5.55a5.141,5.141,0,0,1-3.1,4.05,18.575,18.575,0,0,1-5.4,1.3q-4.7.5-6.1-.8-1.4-1.2-1.3-5.9l.8-15.8a6.014,6.014,0,0,1,.6-2.8,6.321,6.321,0,0,1,3-.4"/></svg>