<svg overflow="visible" width="100%" height="100%" viewBox="0 0 87.498 119.418" xmlns="http://www.w3.org/2000/svg"><path d="M87.1,31.218q-.1-.2-1-1.4-5.1-6.2-7.8-9.2-4.6-5.2-7.7-8.45-1.75-1.749-2.75-2.95a29.959,29.959,0,0,1-1.9-2.4q-.851-1.2-2.95-.55t-23.65,5.2q-21.6,4.5-21.9,3.25-1.249-3.1-1-4.25.3-1.35,2.1-1.4,1.7-.05,1.2-1.4a2.675,2.675,0,0,0-2.3-1.65q-1.8-.3-1.3-3.05T14.9.018q-1.751-.249-1.5,2.9.2,3.15-1.4,3.3a1.568,1.568,0,0,0-1.7,1.55q-.1,1.4.3,1.45a5.946,5.946,0,0,0,.75.05,15.275,15.275,0,0,1,1.7.25q1.4.25.05,5.2a151.181,151.181,0,0,1-9.9,11.7,11.376,11.376,0,0,0-3.2,8.5q.6,16.9.9,33.7l1,42.6q.1,3.2.15,5.15.05,1.9,2.3,2.15,2.2.251,4.25.6a24.774,24.774,0,0,0,3.65.3q1.65,0,4.35-.2t8.3-.3a31.452,31.452,0,0,0,7.3-1.15q3.5-1.05,7.6-2.2a156.166,156.166,0,0,0,15.5-6.25,159.475,159.475,0,0,0,17.5-9.1l6-3.8a16.294,16.294,0,0,0,1.6-1.45,12.817,12.817,0,0,0,1-1.3q.6-.849,2.1-11.45,2.9-21,3.6-39.4l.15-2.45a75.313,75.313,0,0,0,.2-7.8,7.11,7.11,0,0,0-.35-1.35m-2.3,3.25q-.1.951-.3,4.75-.6,8.4-1.9,25.1-1.3,14.4-3.2,25.1a5.88,5.88,0,0,1-2.8,4.4l-9.3,5.7q-5.6,3.3-9.5,5.3-5,2.6-12.9,5.85t-9.7,3.5a10.683,10.683,0,0,0-2.3.6q.4-12.549.6-30.65.1-21.6.2-32.5a11.558,11.558,0,0,0-.15-1.9,167.03,167.03,0,0,0,22.85-4.95,146.219,146.219,0,0,0,19.25-6.55,97.762,97.762,0,0,1,9.15-3.75M63.6,9.568q6.649,6.8,10.2,10.65,3.45,3.75,10.3,11.35-1.1.3-14.45,5.5a133.391,133.391,0,0,1-24,7.15q-10.7,1.95-12.95,2.65-.551-1.3-2.45-4.9-1.9-3.65-5.35-9.4a79.846,79.846,0,0,1-6.55-14.6,327.118,327.118,0,0,0,32.2-5.85q11.951-3,13.05-2.55m-58,18.25q5.1-5.8,7.6-8.4,2.5-2.649,4.05,3a42.826,42.826,0,0,0,4.95,11.1q3.4,5.5,6,9.95a17.924,17.924,0,0,1,2.6,9.15l-.2,57.6q0,3.7-1,4.7a2.4,2.4,0,0,1-1,.7l-.9-38.3a25.342,25.342,0,0,0-1.2-7.3q-1.1-5.1-6.2-5.4a6.84,6.84,0,0,0-7.2,4.3q-3.3,6.8-3.3,11.9.1,4.5.1,26.8v3q.1,5.3-.1,5.4a7.22,7.22,0,0,1-1.65.15,9.973,9.973,0,0,1-2.55-.2q-1.1-.3-1.2-5.05L3,34.518a8.766,8.766,0,0,1,2.6-6.7m7.2,53.5a23.209,23.209,0,0,1,1.6-8.7q2-5.2,5.8-5.2a3.516,3.516,0,0,1,2.55,1.35,9.954,9.954,0,0,1,1.45,3.7,51.8,51.8,0,0,1,.8,8.8q.2,6.251.7,34.9a4.847,4.847,0,0,1-.7.05H12.8v-34.9m54.3-26.8q-4.4,4.4-4.6,9-.5,5.5-.75,14.15-.3,8.25.95,9.4.5.6,3.65-.25t6.85-2.15q3.7-1.35,4.4-2.65a7.279,7.279,0,0,0,.5-3.9q-.6-7.9-.9-11.8a36.511,36.511,0,0,0-2.5-11.5q-2.9-5.2-7.6-.3M65,64.818a14.645,14.645,0,0,1,4.8-8.8q1.7-1.7,2.7.4a13.56,13.56,0,0,1,.8,2.3,82.665,82.665,0,0,1,1.5,8.4.855.855,0,0,1-.65.4,16.845,16.845,0,0,0-2.3.7q-.75.3-.75-2.85-.05-3.15-.75-3.4a1.451,1.451,0,0,0-1.55.4,1.521,1.521,0,0,0-.65,1.45q.1.75.2,3.5.05,2.751-3.8,3a29.071,29.071,0,0,1,.45-5.5m7.95,5.85q1.751-.849,2.25-1.05.45,4.4.55,8.85.05,3.15-4.3,4.65a21.852,21.852,0,0,1-5.6,1.45q-1.3-.1-1.45-2.65a57.372,57.372,0,0,1,.2-7.2q-.05-1.149-.05-2.2.4-.049,2.5-.5,2.05-.45,2.05,2.85-.05,3.3.95,3.65a1.185,1.185,0,0,0,1.5-.65q.55-1,.1-3.65-.5-2.749,1.3-3.55M39,72.418l.8,16.8a29.2,29.2,0,0,0,.6,4.9,3.365,3.365,0,0,0,1.7,2.2q1.3.6,5.15-2.5t5.4-4.3a4.053,4.053,0,0,0,1.45-3.55q-.1-2.349-.35-4.6-.349-2.3-.55-5.7-.2-3.45-.5-6.05a20.009,20.009,0,0,0-1.9-7q-1.1-2.3-2.4-2.7-1.2-.4-3.6.7a8.858,8.858,0,0,0-4.3,4.6,14.473,14.473,0,0,0-1.5,7.2m5.2-7.9a2.871,2.871,0,0,1,2.6-1.6q1.5.2,2.3,2.45a22.63,22.63,0,0,1,1,5.25,36.061,36.061,0,0,1,.2,3.8,10.165,10.165,0,0,1-2.15,1.2q-.251-4.7-.4-6.1-.15-1.449-1.15-1.1a1.436,1.436,0,0,0-1.2,1.6v2.8q.05,1.4,0,2.95a1.934,1.934,0,0,1-1.6,2,4.754,4.754,0,0,0-1.9.8v-1.7q.1-8.449,2.3-12.35m1.4,18.3q-.251,3.8,1.15,3.1,1.35-.7,1.45-1.3a18.335,18.335,0,0,0-.05-4.5q-.3-2.1,2.55-2.9,1.7,9.251-.05,11a37.215,37.215,0,0,1-4.8,3.9q-3.05,2.151-3.55-2.3-.349-3.35-.4-8.85a23.375,23.375,0,0,0,2.25-1.1q1.65-.9,1.45,2.95"/></svg>