<svg overflow="visible" width="100%" height="100%" viewBox="0 0 99.539 115.727" xmlns="http://www.w3.org/2000/svg"><path d="M.318.8a10.927,10.927,0,0,0-.15,4.6q.4,2.7,2,10a86.742,86.742,0,0,0,3.55,10.05q1.451,3.15,4.75,9.35a117.835,117.835,0,0,0,10.2,15.4q6.951,9.2,13.85,17.4a137.042,137.042,0,0,0,15.65,15.8,7.532,7.532,0,0,1,2.4,4,5.152,5.152,0,0,0,1.2,2.9q.9.9,2.9.3,1-.3,1.3.3a7.814,7.814,0,0,0,3.1,3.4q3.6,2.5,3.7,2.6,2.8,2.4,7.1,5.4,2.4,1.8,7.3,5.1a4.5,4.5,0,0,0,2.8,1,7.054,7.054,0,0,1,5.9,3.9,10.337,10.337,0,0,0,1.6,1.9q2.3,2.5,4.4.9a6.066,6.066,0,0,0,1.6-1.6,3.346,3.346,0,0,0,.7-1.9q-.1-1.7-2.2-4a3.47,3.47,0,0,0-1.5-.7q-1.3-.2-2.1-.4,7.3-6.7,8.8-14.1,1.7-8.4-4.4-15.7-5.7-8.3-17.1-6.8a25.74,25.74,0,0,0-17,9.2,26.476,26.476,0,0,1-2.5,2.7q-.75-1.1-1.9-2.5l-2.9-3.3q-18.6-20.7-29.1-35.2Q9.669,20.5,1.918,1.5.868-1.1.318.8m11.3,28.15q-10.35-19.3-.95-4a285.442,285.442,0,0,0,33.5,44.65q1.6,2,5,5.7,1.35,1.5,4.2,4.45.851.95,1.9,2a1.385,1.385,0,0,1,.1,2q-.849,1.1-1.5.45-5.1-6.2-10.2-11.6-2.9-3.1-12.3-13.75-9.45-10.65-19.75-29.9m57.9,66.8q-.4-1.9,1.85-.4,2.151,1.451,3.85,2.75,1.7,1.251,1.85,1.9a3.992,3.992,0,0,1,0,1.55q-.15.951-3.65-1.5t-3.9-4.3m-2.55-6.6-1.4-1q-1.1-.75-2.2-1.55,5.8-3.6,8.6-5a26.911,26.911,0,0,1,8.9-2.8q10-1.5,12.2,7.7,2.1,9-5,14.8a2.866,2.866,0,0,1-1.5.7,1.821,1.821,0,0,1-1.4-.1q-3.6-2.4-18.2-12.75m-5.45.3q.5-.9,1.9,0a30.611,30.611,0,0,1,2.7,1.95,2.667,2.667,0,0,1,1.15,2.5q-.2,1.45-2.1.15a16.8,16.8,0,0,1-3.05-2.5q-1.149-1.2-.6-2.1m22.65,14.95q.45.7-.55,1.4-1,.649-2.5-.6a4.115,4.115,0,0,1-1.65-2.7q-.2-1.449,1.2-.65,1.35.8,2.2,1.35a4.513,4.513,0,0,1,1.3,1.2m6.5,7.35q-1.549-1.7-1.2-2.45.4-.65,1.5-.3a3.909,3.909,0,0,1,1.9,1.3,1.508,1.508,0,0,1,0,2.1q-.7,1-2.2-.65"/></svg>