<svg overflow="visible" width="100%" height="100%" viewBox="0 0 116.383 105.267" xmlns="http://www.w3.org/2000/svg"><path d="M36.369,5.317a5.239,5.239,0,0,0-.85,2,55.806,55.806,0,0,1-3.3,7.25q-2.951,5.7-15.05,26.2-10.5,18.4-16.4,31.7-1,2-.7,2.6t2.5.8l31.7,2.5a4.287,4.287,0,0,0,3.2-.6,6.119,6.119,0,0,0,1.4-3.3l2.8-14.9-.1,39.9q-.2,3.1,2.3,4a31.705,31.705,0,0,0,5.3.9q28.9.9,29.2.9a91.278,91.278,0,0,0,11.3-1,4.938,4.938,0,0,0,3.4-1.7,3.755,3.755,0,0,0,1-3.3q-.3-1.9-.45-2.7a81.169,81.169,0,0,0-3.2-12.85,46.987,46.987,0,0,1-2.25-14.75,31.564,31.564,0,0,0,11.4,1.7q3.8-.1,11.6-.8,3.5-.1,4.7-2.3,1.2-2.3-.4-5.4a27.592,27.592,0,0,1-2.1-5.4q-4-15.1-6.2-22.7-3.7-13-6.25-18.6-2.55-5.649-2.9-6.6t-1.3-3.3q-1-2.349-1.75-4.4-.8-2.049-4.4-.5l-8.7,3.7a38.789,38.789,0,0,1-4.3,1.8,14.15,14.15,0,0,1-2.7.45q-1.4.1-5.1-.05-3.7-.2-14.1-.8-10.4-.7-13.75-1a22.9,22.9,0,0,0-4.25-.15,1.915,1.915,0,0,0-1.3.7m-1.8,11.95a3.828,3.828,0,0,1,1.3-1.4,2.107,2.107,0,0,1,1.8,0q.9.3,2.8.8l7.7,2.3a48.87,48.87,0,0,0,12.7,1.8q4.3.1,12.35-.15a23.6,23.6,0,0,0,3.05-.3q1-.249,2.7-.85.3-.1,6.2-2.7a52.563,52.563,0,0,1,8.05-3.15,23.017,23.017,0,0,1,2.4-.55,2.375,2.375,0,0,1,.7,0,.915.915,0,0,1,.55.1,144.3,144.3,0,0,1,6.9,18.8q.7,2.2,5.3,19.3l2.2,7.95q.6,2.4-.7,2.45-1.3,0-2.85.15-1.549.1-6.4.65-4.85.5-7.45.7a3.947,3.947,0,0,1-2.5-.3,2.655,2.655,0,0,1-1.1-2.3q-1.95-16.6.15-23.25t2-7.45q-.15-.8-1.3-.85a5.682,5.682,0,0,0-2.05.15q-.851.2-1.05,2.4t-1.45,8.9a99.117,99.117,0,0,0-1.4,16.6q0,5.5.4,16.6a30.058,30.058,0,0,0,1.1,7.2q.7,2.4,2,7.2.5,2.3.5,2.4a1.566,1.566,0,0,1-1,1.8q-3.849,1.151-16.45,1.2-12.649,0-24.05-.5-3.1-.1-3.1-3.5v-20.8q0-10.7.15-17.75a53.035,53.035,0,0,1,.9-10.45q.8-3.4,1.1-5.45.251-2.1-.85-1.95-1.149.1-1.25.9-.15.752-.4,2.05t-.6,3.8q-.4,2.451-2.3,9.1a69.209,69.209,0,0,0-2.3,9.5q-.349,2.85-1.2,7.7t-3.75,3.95a41.33,41.33,0,0,0-10-1.6q-6.7-.1-10.1-.2-5.9-.1-6.6-1.2-.8-1.2,1.8-6,4.3-7.8,12.7-21.9,8.9-15.1,12.7-21.9m34.4-7.6q.5-.4,3.6-.5,3.5-.1,4.1.5t.7,4.4q.1,2.4-.6,3.1t-3.3.8q-3.2.2-4-.7t-.9-4.5q-.1-2.6.4-3.1m-7.15-.6a4.149,4.149,0,0,1,3,.8,3.606,3.606,0,0,1,.85,2.3,19.415,19.415,0,0,1,.4,4.7q-.4,1.1-4.1.9-4.1,0-4.9-1.05t-.3-4.1q.45-3.05,1.6-3.3a17.616,17.616,0,0,1,3.45-.25m-14-.6q.3-.649,3.9-.3,3.6.3,2.95,3.95a14.6,14.6,0,0,1-1.05,4.05,1.434,1.434,0,0,1-1.1.5,15.2,15.2,0,0,1-3-.55q-2.25-.549-2.55-1.45a10.26,10.26,0,0,1,.2-3.35,20.108,20.108,0,0,1,.65-2.85m-5.45,5.7a17.788,17.788,0,0,1-3.2-.6q-2.5-.6-1.4-3.75,1.05-3.15,2.5-2.95,1.35.15,3.25.45,1.9.25,1.7,1.3t-.8,3.3q-.65,2.25-2.05,2.25m50.55-5.55q-.45-1.9-.85-3.5-.45-1.65.85-1.7,1.249-.05,1.85,3.6.6,3.6-.4,3.55t-1.45-1.95m-3.25-2.75q1.751,5.3,1.1,5.8a66.608,66.608,0,0,1-6.7,3.35q-2.85,1.451-3,.65-1.5-6.3-1.2-6.8.3-.8,5.9-3.1,3.45-1.3,3.9.1m21.3,58.65a1.852,1.852,0,0,1,2.15,1.3q.45,1.451-2.65,1.45-1.3,0-1.5-.8a1.565,1.565,0,0,1,.05-1.3q.251-.549,1.95-.65m-11.7.95a23.726,23.726,0,0,1,4.1-.5,7.945,7.945,0,0,1,2.4.15q.45.15.6.9a1.156,1.156,0,0,1-.35,1.1q-.45.351-4.35.7-3.949.351-4.3-.8-.35-1.1,1.9-1.55m-5.55,2.45q-1.549.15-1.7-1.05-.2-1.249,1.1-1.2a1.721,1.721,0,0,1,1.75,1.05q.4,1-1.15,1.2m-9.9,34.6a17.923,17.923,0,0,1-3.85,0,2.9,2.9,0,0,1-2.9-2.9q-.3-2.649.3-3.15.55-.5,4.1-.5,3.5,0,3.8,2.55a9.122,9.122,0,0,1,0,3.15q-.249.6-1.45.85m6.2-.8q-1.1.351-1.5-.45a6.776,6.776,0,0,1-.55-3.1q-.049-2.3,1.1-2.35a1.342,1.342,0,0,1,1.5.8,6.732,6.732,0,0,1,.45,2.85q.051,1.9-1,2.25m-45.45-3.15q-.2-3.3,2.7-3.1a5.907,5.907,0,0,1,3.2.9,3.953,3.953,0,0,1,.9,2.8,2.032,2.032,0,0,1-2.3,2.3,6.934,6.934,0,0,1-3.5-.6,2.784,2.784,0,0,1-1-2.3m9.65,1.55a3.908,3.908,0,0,1,.7-2.85q.75-.95,3.3-.75a10.526,10.526,0,0,1,3.25.5q.7.351.85,1.8a9.7,9.7,0,0,1-.2,2.5q-.251,1.05-3.85,1.15a15.956,15.956,0,0,1-2.8-.2q-1.151-.249-1.25-2.15m11.95-3.8q1.4-.049,1.8-.05,4.1-.1,5,.7.651.551,1.4,3.55.4,1.6-1.65,1.85l-1.75.1q-3.9.1-4.6-.65a6.28,6.28,0,0,1-1.2-3.1q-.45-2.349,1-2.4m-43.05-23.55q.051-1.2,1.4-1.3a27.274,27.274,0,0,1,3.45.15q2.05.2,2.05,1.9-.049,1.65-1.35,1.75-1.3,0-3.3-.15-2.05-.2-2.2-.7a4.916,4.916,0,0,1-.05-1.65m-4.85-1.45q2.1.2,1.85,1.7-.25,1.451-2.75,1.3t-4.25-.4q-1.75-.249-1.85-1.25-.3-1.3,1.05-1.45a11.176,11.176,0,0,1,2.55-.2q1.3.051,3.4.3m14.7,2.65q.1-1.65,1.95-1.25,1.751.4,1.7,1.85t-1.9,1.25q-1.9-.2-1.75-1.85m-28.2-2.4q.3-1.8,1.8-1.5a1.331,1.331,0,0,1,1.15,1.85,1.711,1.711,0,0,1-1.85,1.45q-1.449-.05-1.1-1.8"/></svg>