<svg overflow="visible" width="100%" height="100%" viewBox="0 0 92.936 115.326" xmlns="http://www.w3.org/2000/svg"><path d="M5.936,6.006a2.669,2.669,0,0,0-.3,2.1,1.085,1.085,0,0,0,1.3,1q2.6,0,3.3,1.7a9.31,9.31,0,0,1,.5,3.4q.2,6.1.5,18.4a3.3,3.3,0,0,1-.7,2.5,4.815,4.815,0,0,1-2.2,1.4q-3.1,1.1-3.2,2.1-.1.9,1.35,2.4,1.451,1.449,2.7,2.55a3.482,3.482,0,0,1,1.05,3.15q-.2,2-2.8,3.3-3.4,1.8-6.7,7.7-1.8,3.1.8,5.3a4.656,4.656,0,0,1,2,4.1,4.525,4.525,0,0,0,.8,3.5,4.761,4.761,0,0,0,3.4,1.3q.9.049,2.1.15,2.05-.1,2.05,2.1,0,1.95.1,5.25.25,7.8.65,11.6.4,3.2.65,9.4.251,5.949.35,8.4a20.312,20.312,0,0,0,.2,2.7q.4,1.3,1,1.5a37.267,37.267,0,0,0,7.15,1.45,80.772,80.772,0,0,0,8.2.8,100.583,100.583,0,0,0,18-1.05q10.551-1.7,11.75-2t3.9-.8q2.7-.5,4.1-.8a58.236,58.236,0,0,0,22.7-10.7,4.86,4.86,0,0,0,1.9-3.2,144.4,144.4,0,0,0,.3-15.4q-.9-12.7-3.3-38.1-.6-6.4-2.2-19.2-1.2-9.5-1.7-12.2a50.488,50.488,0,0,0-2.8-8.8q-1.1-2.8-5.3-2.8l-52-.2a28.074,28.074,0,0,0-9.3,1.6q-5.8,2.2-8.8,3.2a2.464,2.464,0,0,0-1.5,1.2m7,3.9q-.8-1.8-.1-2.6.6-.6,16.5-1.95a242.933,242.933,0,0,1,31.95-.7q16.05.75,15.55,1.65a6.052,6.052,0,0,1-.9,1.3q-.4.4-1.45,1.4a7.634,7.634,0,0,0-1.65,1.9,3.021,3.021,0,0,0-.5,1.95q.1,1,.6,4.95.5,3.9,1.6,12.4.2,2.1-.3,2.5a6.347,6.347,0,0,1-2.8.1q-3.9-.5-12.3-.9a24.993,24.993,0,0,0-3.2,0,1.9,1.9,0,0,1-1.95-1.55,4.586,4.586,0,0,0-.75-2.35,4.115,4.115,0,0,0-2.9-.9q-17-.6-25.7-.6-3.5,0-4.4,1.2-.7,1.1-.05,4,.2,1.6-2.35,2.05-2.6.45-3.1-.05a3.216,3.216,0,0,1-.6-2q-.6-11.9-.9-17.9v-2a4.921,4.921,0,0,0-.3-1.9m-2.55,27.95a22.993,22.993,0,0,1,2.85-1.25q.651-.2,1.25-.35a19.564,19.564,0,0,1,3.75-.25q3.15-.15,3.35,1.05.3,1.25.65,2.75a20.254,20.254,0,0,0,3,5.65q1.251,1.5-.3,1.75l-8.8,1.5a3.053,3.053,0,0,1-.85-.15q-.549-.15-1.15-1.6a22.4,22.4,0,0,0-3.25-4.75q-2.7-3.3-.5-4.35m6.65,22.95q2.351-1.3,1,.7-2.25,3.3-2.9,3.65a4.135,4.135,0,0,1-2.2.2q-1.6-.2.1-1.55l4-3m-13.4-1.8q-.1-1.4,1.8-3.7a6.385,6.385,0,0,1,3.2-2.35q2.25-.5.95,1.1a22.64,22.64,0,0,0-3.05,5.2q-1.249,2.9-1.5,2.85t-.75-1.05a5.653,5.653,0,0,1-.65-2.05m3.8,10q-.45-1.2.15-1.6.6-.45,3.2.1t58.25-2.8q2.4-.251,3.65-.5,1.251-.3,2.3-2.85,1.05-2.6,2-4.65.951-2.1,1.65-3.55a3.372,3.372,0,0,1,1.8-1.9q1.05-.4,1.5-.55a4.333,4.333,0,0,0,1-.6,1.757,1.757,0,0,0,.65-1.15,2.051,2.051,0,0,0-.05-1.05,6.285,6.285,0,0,1-.4-1.2q-.249-.85-.95-3.05-.75-2.2-1.5-4.35a38.805,38.805,0,0,0-1.65-4.1,17.411,17.411,0,0,1-1.4-4.9q-.9-6.7-1.5-12.5a30.2,30.2,0,0,0-.65-3.95,2.245,2.245,0,0,1,.05-1.7,5.28,5.28,0,0,1,1.15-1.35q.7-.7,1.2-1.15a4.583,4.583,0,0,1,1.15-.75q.6-.351,1.8.5,1.15.8,1.6,4t1.4,8.5l3.5,26.5a3.224,3.224,0,0,1-.3,1.8q-.2.2-1.3,1.4a50.631,50.631,0,0,0-6.5,8.5,7.777,7.777,0,0,0-1.95,3.5,7.855,7.855,0,0,1-.8,2.3,3.547,3.547,0,0,1-1.7,1.1,9.958,9.958,0,0,1-2.25.6q-10.4,1.1-15.6,1.6a110.2,110.2,0,0,1-15.6.6q-1.8-.1-17.65.15-15.849.2-16.25-.95m7.7,5.3q-.1-2.35,2.25-2.25,18.6.75,27.45.65,16.3-.2,23.6-1.45,7.251-1.3,7.8-.4t1.5,8.15q.9,7.249,2.2,13.6,1.3,6.249-.65,8.7a12.011,12.011,0,0,1-5.75,3.65q-3.8,1.249-5.5,1.75a71.8,71.8,0,0,1-7.7,1.5,28,28,0,0,1-6.1.7q-2.55-.051-2.45-.5a4.358,4.358,0,0,1,1-1.7,7.352,7.352,0,0,1,2-1.95q1.05-.7,1-1.4a2.967,2.967,0,0,0-.25-1c-.1-.167-.316-.25-.65-.25q-.549,0-1.5-.05a8.261,8.261,0,0,0-3.05.8q-2.1.849-1.7,2.5a7.082,7.082,0,0,1,.25,2.35,1.3,1.3,0,0,1-.65,1.15,8.464,8.464,0,0,1-2.3.4q-1.8.15-1.35-.75a15.669,15.669,0,0,0,.65-1.7,2.392,2.392,0,0,1,1-1.3,2.216,2.216,0,0,0,.9-1.25.773.773,0,0,0-.65-1,4.883,4.883,0,0,0-1.9-.15,8.7,8.7,0,0,0-2.6.75q-1.5.6-.9,1.95a2.457,2.457,0,0,1-2.7,3.6q-2,0-1.7-.85a3.816,3.816,0,0,1,1.15-1.9,4.459,4.459,0,0,0,1.3-1.65q.1-.55-.15-.75a2.248,2.248,0,0,0-.8-.35,4.978,4.978,0,0,0-1.55-.2,6.839,6.839,0,0,0-2.6.75q-1.65.75-.65,2.05t-.45,2.7a7.849,7.849,0,0,1-3.75,1.9,23.259,23.259,0,0,1-4.85.5q-2.5,0-4.6-.2a3.227,3.227,0,0,1-2.3-.8,4.722,4.722,0,0,1-.9-2.8q-.249-2.1-.7-10-.5-8.3-.7-12.4,0-5,.05-8.65,0-1.4-.05-2.45m58.9-37.3a3.409,3.409,0,0,1,.6,2.5q-.1,4-.7,4.7-.7.6-4.7.7l-9.9.2q-3.9.1-4.6-.5-.6-.6-.7-4.4v-4.25q-.1-1.2,2.1-1.2,2.1.15,2.85.15.9,0,2.8.15,1.95.15,6.75.65t5.5,1.3m-1.8,11.2q3.55.4-3.85,1.55-7.449,1.149-28.95,2.3t-21.85-.65q-.4-1.8,25.85-3,20.4-.951,28.8-.2m-39.25-19h3.65q9.2.6,12,.7,3,0,2.9,2.9-.1,4.8,0,9.5.2,3-2.8,3.1l-8.9.3-5.5.2q-4.2.4-5.6-.5-1.6-.9-3-4.7a28.519,28.519,0,0,1-1.4-5.2q-.7-3.5-1.1-5.3-.3-.851,3-.9,3.3-.1,6.75-.1m24.8,27.95q1.251-.1,1.4,2.8.1,2.9-2.5,2.75-2.6-.2-1.35-2.85,1.2-2.651,2.45-2.7m-8.4,3.15q1-2.8,2.25-2.95,1.2-.1.95,1.75-.3,1.8-.55,2.95-.3,1.1-1.95,1.1-1.7-.051-.7-2.85m-5.3-.05q2.7-4.05,2.8-.25,0,3.8-2.75,4.05-2.75.2-.05-3.8m-7.8,4.15q-2.25.049-.85-2.95,1.35-3,2.75-2.8,1.35.2.85,2.95-.549,2.75-2.75,2.8m-5.05-5.25q1.35-.55,1.2,2.6t-2.5,3.1q-2.349-.1-1.2-2.65t2.5-3.05m-9.8,3.3q2.1-2.651,3.2-2.6,1.1,0,1.25.4a5.078,5.078,0,0,1-.2,1.75,10.8,10.8,0,0,1-.7,2.1q-.4.7-3.05.85t-.5-2.5m66.6-5.95q.1,3,1.6,17.9a116.576,116.576,0,0,1,.6,17.3,11.14,11.14,0,0,1-1.3,5.1,6.982,6.982,0,0,1-3.25,2.8q-1.35.6-1.7-1.55l-3.25-17.35q-.5-4.9-.8-7.3-1.5-12.3,7.2-19.2.8-.7.9,2.3m-17.05.4a7.377,7.377,0,0,1,.15,2.6,2.241,2.241,0,0,1-1.95,2.35q-1.85.3-.85-2.4.951-2.7,1.65-2.9a.716.716,0,0,1,1,.35m-6.6-.1q.951-.351.9,1.4-.1,1.7-.25,2.75-.2,1.05-1.95,1.15t-.7-2.4q1.05-2.55,2-2.9"/></svg>