<svg overflow="visible" width="100%" height="100%" viewBox="0 0 117.717 105.634" xmlns="http://www.w3.org/2000/svg"><path d="M83.937,5.932a86.432,86.432,0,0,0-14.8-4.4,90.125,90.125,0,0,0-10.7-1.5,21.517,21.517,0,0,0-7.5.85q-1.15.25-6.7,1.65-9.7,2.4-9.8,2.4a46.113,46.113,0,0,0-21.7,12.1q-10.1,9.9-11.5,18a56.153,56.153,0,0,0-1.2,12.25,92.4,92.4,0,0,0,2.4,13.5,67.214,67.214,0,0,0,8.3,19.55q9.5,15.3,28.1,20.5,19.5,5.5,36.1,4.7,7.9-.2,12.7-2.3a49.9,49.9,0,0,0,11.9-6.2,34.428,34.428,0,0,0,10.1-10.5q5.6-6.8,7.5-19.35,1.85-12.6-2.2-27.15a111.85,111.85,0,0,0-8.2-14.6,70.535,70.535,0,0,0-9.5-11.3,48.564,48.564,0,0,0-13.3-8.2m-8.1.2q2.5,1,7.4,2.7a30.245,30.245,0,0,1,4.15,1.9,66.061,66.061,0,0,1,2.25,9.2l1.25,6.6q-13.15-7.4-15.45-8.4t-2.85.7a8.335,8.335,0,0,0,.05,4.35q.6,2.651,1.6,6.85a48.721,48.721,0,0,1-10.5-5.7,26.988,26.988,0,0,0-5.75-3.55q-1.7-.551-2.75,2t-6,13.85q-4.851-6.949-5.05-10.2a45.579,45.579,0,0,0-.85-6.4q-.7-3.2-4.2-1.4l-8.1,4.4q-1.8-6.7-2.4-9.7a6.106,6.106,0,0,1,0-3.2q.5-.9,5.45-2.25,4.9-1.4,11.5-2.95,1.05-.251,1.8-.4a13.111,13.111,0,0,0,.15,3.7q0,3,1.5,3.75a22.124,22.124,0,0,0,5.25,1.45q3.75.7,5.2-1.65a9.715,9.715,0,0,0,1.45-5.2q0-3.75,6.4-2.85a38.321,38.321,0,0,1,8.5,2.4m-.2,15.7a105.594,105.594,0,0,1,9.5,5.05q6.249,3.6,7.75,2,1.449-1.6-.1-8.15t-2.1-8.25a45.514,45.514,0,0,1,12.25,12.25,130.718,130.718,0,0,1,9.4,16.8q3.15,8.3,1.9,23.7a33.927,33.927,0,0,1-7,19.6,35.506,35.506,0,0,1-8.5,8.85,87.461,87.461,0,0,1-8.55,5.4,25.907,25.907,0,0,1-8.55,2.85,105.347,105.347,0,0,1-37.25-2.65q-18.351-4.65-27.25-15.15-7.9-9.3-12.1-25.2a39.568,39.568,0,0,1,1.2-27.4q5.7-14,19-19.3a49.813,49.813,0,0,1,2,6.7q1.2,5,1.7,6.7.4,1.7,1.3,1.9.7.2,2.2-1a46.157,46.157,0,0,1,6-4.2q1.6-.9,2.1-.6.5.2.7,2,.9,7.1,2.5,9.7t2.7,4.1a3.2,3.2,0,0,0,5.6-.3q1-2.2,1.5-3.2l4.2-9.4q5.3,2.9,10.45,5.75a37.74,37.74,0,0,0,6.5,3.1,2.408,2.408,0,0,0,1.95-.15q1.4-1,.7-3.75t-1.7-7.75m-20.1-18.2a3.682,3.682,0,0,1,2.4.9,3.757,3.757,0,0,1,.4,2.7,6.969,6.969,0,0,1-.9,3.15q-.7,1.05-4.15.5t-3.3-3.1a3.812,3.812,0,0,1,1.85-3.45,7.655,7.655,0,0,1,3.7-.7"/></svg>