<svg overflow="visible" width="100%" height="100%" viewBox="0 0 115.795 48.536" xmlns="http://www.w3.org/2000/svg"><path d="M6.3,17.6a2.678,2.678,0,0,0-2.2.8Q.1,21.6,0,25.8q0,4.5,5.1,6.1A70.412,70.412,0,0,1,24.7,43.2q8.7,7,18.3,1.2a4.164,4.164,0,0,1,1.9-.7,3.533,3.533,0,0,1,1.9,1,14.46,14.46,0,0,0,12.5,3.6,31.191,31.191,0,0,0,19-11.1Q82,32.8,90.1,18a16.007,16.007,0,0,1,9.8-8.05q2.2-.7,4.05-1.15t1.9-.15q.049.2.65,2.1a13.44,13.44,0,0,0,2.55,4.2q1.95,2.351,3.6,1.9a2.9,2.9,0,0,0,2.05-2.55q.2-.7.85-6.9a27.742,27.742,0,0,0,.2-5,2.442,2.442,0,0,0-2-2.3q-1.85-.5-4.15,1.6-2.35,2.15-3.05,2.95A4.6,4.6,0,0,1,104.3,5.8q-1.6.4-6.75,1.9Q92.4,9.147,87.7,16.5q-10,17-10.5,17.6A29.543,29.543,0,0,1,60.4,45.2a13.518,13.518,0,0,1-9.7-1.1A5.131,5.131,0,0,1,48,41.7a6.068,6.068,0,0,1,0-3.8,46.666,46.666,0,0,0,1.5-9.65q.1-3.949-4.6-8.2a30.922,30.922,0,0,1-7.45-10Q34.7,4.3,31.5,2.7a6.889,6.889,0,0,0-6.9.1,34.628,34.628,0,0,0-4.4,3,2.922,2.922,0,0,0-.2,4.4q1.2,1.8,3.5.4a20.4,20.4,0,0,0,3.2-2.9q2.5-2.6,3.7-2.5t3,3.1q1.1,2,3.4,6.2A21.587,21.587,0,0,0,41,19.8q7.1,5.7,5.25,13.4-1.9,7.65-7.7,10.25Q32.7,46,27.3,41.7q-11.5-9-22.1-12.9-2.85-1-2.2-1.5a49.951,49.951,0,0,0,4.9-3.8q2.6-2.5.6-4.7a3.62,3.62,0,0,0-2.2-1.2M108.8,7.3q.4-2.4,4.8-4.1l-1.4,10.2q-3.7-3.7-3.4-6.1"/></svg>