<svg overflow="visible" width="100%" height="100%" viewBox="0 0 20.27 114.956" xmlns="http://www.w3.org/2000/svg"><path d="M.08,23.523a8.056,8.056,0,0,0,.1,2.8q.3,3.5.55,10.6.2,6.3.15,12.05-.1,5.749.6,18.85.8,15.4.55,22.15-.049,1.85.35,8.75.5,3.3,1,10.7,1.4,5.7,7.6,5.5,3.2.2,4.6-.8t2.1-4a37.2,37.2,0,0,0,1.7-6.25q.251-2.2.5-3.9.2-1.751.35-3.25a21.418,21.418,0,0,0-.05-3.25q-.15-1.751-.25-6.35-.2-8.051-.65-27.85-.5-19.85-.4-28.25l-.1-5.8a27.9,27.9,0,0,0-.5-6.7q-2.5-7.5-5.9-15.8a3.9,3.9,0,0,0-2.5-2.6,1.3,1.3,0,0,0-1.7.5,10.918,10.918,0,0,0-.7,1.9l-7.4,21m8.5-15.7a5.15,5.15,0,0,1,1.65.1q1.25.2,1.35.4.2.7,2.8,7.7a23.463,23.463,0,0,1,1.7,7.9,29.117,29.117,0,0,1-1.4,3.65q-1.8-3.45-3.05-.9-1.3,2.6-2.2,1.15a10.473,10.473,0,0,0-1.4-1.9q-.5-.45-1.1.35a15.972,15.972,0,0,0-1.45,2.05q-1.5-2.5-1.8-3.1a4.613,4.613,0,0,1-.1-3.4q3.6-10.3,5-14m-4.4,25.9a14.965,14.965,0,0,1,1.35-1.7,5.558,5.558,0,0,1,1.95-1.65q.8-.3,1.55,1.2a5.476,5.476,0,0,0,1.4,1.9q.6.4,1.4-1.7.75-2.1,1.45-1.75a3.987,3.987,0,0,1,1.4,2,19.951,19.951,0,0,0,.95,2.05q.349,9.7.65,24.25.8,30.1.8,30.7.2,2.15.2,2.9-1.751-.2-5.7-.25a39.506,39.506,0,0,0-6.4.25q-.15-17.449-.5-30.1-.349-17.55-.5-28.1m.75,61.75q.15-1.3,4.7-1.45a26.676,26.676,0,0,1,6.45.25q1.9.45,1.65,1.75-.3,1.2-6.6,1-6.3-.251-6.2-1.55m.7,6q-1-.7-.2-1.45.75-.8,5.85-.65a36.834,36.834,0,0,1,4.75.4q1.75.251,1.6,1.5-.15,1.2-5.6,1.05t-6.4-.85m-.15,4.25a1.852,1.852,0,0,1,1.8-1.3,16.22,16.22,0,0,1,2.6,0,18.907,18.907,0,0,1,2.15.1q.8.1,2.35.3,1.5.2,1.3,2.3-.2,2.9-1.4,4a4.923,4.923,0,0,1-3.8.9,5.032,5.032,0,0,1-4-1.9,5.5,5.5,0,0,1-1-4.4"/></svg>