<svg overflow="visible" width="100%" height="100%" viewBox="0 0 114.976 101.688" xmlns="http://www.w3.org/2000/svg"><path d="M104.419,21.9q-1.4-4.7-2.2-7.1a55.21,55.21,0,0,0-4.55-9.55q-3.16-5.4-8.4-5.25-5.24.2-11.35.3-6.1.144-15.65.85A123.707,123.707,0,0,0,45.119,3.6q-11.2,2.6-24.1,10.5-6.1,3.7-6.5,9.3a3.6,3.6,0,0,1-.9,2.4,6.669,6.669,0,0,1-2.4,1.2,62.952,62.952,0,0,0-7.1,2.65Q.66,31.208.169,32.1q-.435.942.25,1.4a2.323,2.323,0,0,0,2.1-.1,15.39,15.39,0,0,0,3.1-1.6,25.98,25.98,0,0,1,5.55-2.3q1.957-.57,2.15.65l1.4,7.55q.5,2.5,1.3,7.6a34.046,34.046,0,0,0,2,7.3q7.5,17.7,17,37,4.9,9.7,14.3,11.3a38.332,38.332,0,0,0,13.7.3q7.5-1.3,22.1-5.5a18.825,18.825,0,0,0,10.55-7.05q3.784-5.149,4.55-15.15a102.751,102.751,0,0,1,2.5-16.9q1.794-6.9,4.3-8.9a17.834,17.834,0,0,0,6.2-9.7q.6-2.3,1.7-11.4.5-3.2-3.4-2.9l-4.4.3a2.478,2.478,0,0,1-2.7-2.1M87.019,3.1a9.468,9.468,0,0,1,9.4,5.1,37.464,37.464,0,0,1,5.4,14.2,1.963,1.963,0,0,1-1.9,2.6q-20.549,2.511-35.2,2.9L19.819,26a3.091,3.091,0,0,1-2.9-1.5,3.212,3.212,0,0,1,.7-3.2,15.316,15.316,0,0,1,5.3-5q18.2-10.8,35.9-11.8,4.2-.3,14.1-.7,9-.3,14.1-.7m-1.55,36.25a1.517,1.517,0,0,1,1.35.55q.1.2.6,1.5,3.6,9.7,13.3,9.3-2.3,18.3-3.1,23a77.013,77.013,0,0,1-3,10.9q-1.79,5.513-11.95,8.65a177.285,177.285,0,0,1-17.85,4.65,40.687,40.687,0,0,1-14.1.5q-8.8-1.4-13.2-10.3-5.8-11.9-8.6-17.8-4.8-10.4-7.9-18.2a46.826,46.826,0,0,1-2.6-10.2q-.9-7-1.6-10.5-.6-3.1,2.9-2.8l24.2,1.7a4.3,4.3,0,0,1,4.25,3.95,24.972,24.972,0,0,0,2.3,7.25,29.324,29.324,0,0,0,3.65,5.95q1.89,2.293,3,3.55a15.266,15.266,0,0,0,3.2,2.9q2.025,1.554,6.7.7a19.419,19.419,0,0,0,8.95-4.3q4.25-3.4,5.1-6.9.868-3.51,2.2-3.75a20.536,20.536,0,0,1,2.2-.3m9.95,30.35q0-1.255-1.65-1.15-1.6.151-6.2,1t-10.6,2.2a63.927,63.927,0,0,0-11.45,3.75q-1.7.7-3.45,1.25a1.812,1.812,0,0,0-1.35,2.35q.333,1.258,2.35.55a41.212,41.212,0,0,0,4-1.5,96.887,96.887,0,0,1,19.05-5.35q2.9-.405,6.1-1.1,3.246-.685,3.2-2"/></svg>