<svg overflow="visible" width="100%" height="100%" viewBox="0 0 105.596 114.187" xmlns="http://www.w3.org/2000/svg"><path d="M100.8,19.282q-1.2.05-4.2.4-3,.3-3.4.75a1.82,1.82,0,0,0-.351,1.35q.051.9,1.851.85t3.8-.15h5.6q1.5-.1,1.5-1.5,0-1.7-1.5-1.8-2.1,0-3.3.1M83.9,5.532l-1.8,5.05a1.537,1.537,0,0,0,.351,1.15,3.005,3.005,0,0,0,.7.8q.15.1.4-.25.2-.4,3.2-4.85,2.95-4.4,2.051-5.65A5.176,5.176,0,0,0,87,.032q-.949-.45-3.1,5.5m-10.35-1q-.45-.6-1.451.05a2.873,2.873,0,0,0-.85,2.75q.251,1.65.9,4.9.649,3.2,2.15,3.15.849-.2.9-2v-1.1q-.7-4.2-.951-5.65a5.07,5.07,0,0,0-.7-2.1M13.6,26.082a6.135,6.135,0,0,0-1.4.4,2.122,2.122,0,0,0-1.2,1.2q-3.2,7-9.9,21-2.5,5.5.7,9.3a126.211,126.211,0,0,0,10.9,12.1q8.8,8.2,38.7,35.6.5.4,7.2,6.75.651.649,1,.95l.351.35a1.93,1.93,0,0,0,.35.25,1.191,1.191,0,0,0,.549.2q.3.05.6-.4l2.85-6.2q7.7-18,11.7-27,3.651-8,7.2-14.6,3.4-6.351,6.7-11.4,2.7-4.2.6-10.4-1.55-4.2-7.3-17.55-.55-1.251-1.1-2.55a5.167,5.167,0,0,0-5.5-3.3q-16.1.7-24.2.9-22.5.2-38.8,4.4M2.9,53.982q-.4-.4-.1-2,1.6-3.9,4.6-10.1,3.7-7.8,4.9-10.5l13.3,23.2q-4.2.2-10.649.05T5.1,54.382a3.041,3.041,0,0,1-2.2-.4m1.8,3.5q2.8-.2,9.6-.1a104.959,104.959,0,0,0,11.85-.5q5.1-.55,7.449,5.15,2.3,5.649,9.4,19.2,7.1,13.5,12.4,24.65-21.5-20.1-29-26.9a277.059,277.059,0,0,1-21.7-21.5m16.5-15.7q-6.6-12.3-7-12.9,4.7-.9,13.5-2.8a67.946,67.946,0,0,1,13.3-1.3l-11,28.5a38.525,38.525,0,0,1-8.8-11.5m14.6,12.2q-3.1.3-2-2.7l8.9-23.2,16,24.1-22.9,1.8m26.8-2.7q-4.4-4.3-9.9-13.2a112.935,112.935,0,0,0-9.3-13.3H70.8q-4.4,12.7-8.2,26.5m-.6,3.35a1.823,1.823,0,0,1,.451,2.05q-.351,1.449-1.75,26.6-1.2,21.9-1.25,23.5L35,57.182q8.3-1.3,17.25-2.2,8.95-.951,9.75-.35m10.5-25.85a7.949,7.949,0,0,1,2-3.4,2.943,2.943,0,0,1,2.9-1.1,2.831,2.831,0,0,1,2.4,1.8l9.3,21.7q-3.2.45-5.9.85-9.351,1.25-12.6,1.55-2.9.3-3.6-.6-.7-1,.2-3.9l5.3-16.9m-5.8,28.1a8.774,8.774,0,0,1,.5-2.1,1.788,1.788,0,0,1,1.7-1.3l18.6-2.5q1.4-.251.6,1.1-1.3,2.55-4.9,8.5-.55.849-1.1,1.8-3.8,6.4-5.7,10.3-.951,2-14.151,32.55.15-1.551.551-7.1.35-5.6.6-9.25.2-3.651,1.1-15.7.9-12.1,2.2-16.3"/></svg>