<svg overflow="visible" width="100%" height="100%" viewBox="0 0 119.42 111.51" xmlns="http://www.w3.org/2000/svg"><path d="M77.71,3.213q-1-2.2-5.65-2.9a18.952,18.952,0,0,0-8.3.3q-3.7,1.05-3.9,2.25-.251,1.149,1.1,3.5l4.8,5.7-2.6.1q-5.3.6-7.65,2.55a8.648,8.648,0,0,0-3,5,44.664,44.664,0,0,0-.85,5.35,28.754,28.754,0,0,0,.3,8.3,10.26,10.26,0,0,0,4.2,6.6,9.023,9.023,0,0,1,3.5,4.2,11.505,11.505,0,0,1,.4,5q-.3,3-.3,6,0,1.7-.8,2.2a2.886,2.886,0,0,1-2.4,0l-24.3-6.8q-2.6-.8-3.3-1.951a5.5,5.5,0,0,1-.6-3.1,17.373,17.373,0,0,1,.15-2.25q0-.4,1.05-.651a2.1,2.1,0,0,0,1.4-1.3,1.868,1.868,0,0,0-.55-2.05q-.949-1-1.65-.55a1.228,1.228,0,0,1-1.3.05,8.165,8.165,0,0,0-1.3-.95q-2.7-1.7-4.75-3.2a1.467,1.467,0,0,1-.2-.949,4.586,4.586,0,0,0-.8-2q-.8-1.251-2.45-.45-1.65.75-1.4,1.85.2,1.05.05,1.25l-.15.2q-2.25,1.9-8.75,2.8a8.284,8.284,0,0,0-2.55.65,2.471,2.471,0,0,1-1.9.05,3.23,3.23,0,0,0-2.3.15q-1.2.45-.9,2.3.2,1.048,2.45,1.75,1,.15,1.65,3.149a20.366,20.366,0,0,1,.25,6.6q-.4,3.649-1.3,4.149-1.7.7-1.25,2.2.9,2,2.15,1.6,1.25-.45,2.95-1.1a9.1,9.1,0,0,1,4.5-.25q2.8.3,3.25.8a3.224,3.224,0,0,1,.55,1.951q.1,1.449,1.8,1.3,1.7-.2,1.65-1.349-.1-1.2-.25-2.1-.2-.9,4.1-3.45,4.3-2.6,5.55-2.8a6.675,6.675,0,0,1,3.05.25q7.8,2.5,23.4,6.9a8.4,8.4,0,0,1,3.9,1.9,7.379,7.379,0,0,1,1.1,4.2q0,3.6-.1,10.9a28,28,0,0,1-1.8,8.6l-8.5,21.2a12.846,12.846,0,0,0-.95,3.5q0,.7,1.05,1.1a.758.758,0,0,0,1-.45l8.9-21.95q.75-1.9,1.65,1.85,2.749,11.349,3.7,14.55a21.13,21.13,0,0,0,1.45,3.95q.5.8,1.2.15,1.151-1.15-.05-5.35-1.249-4.251-2.15-7.95a55.182,55.182,0,0,1-2.4-10.1,57.4,57.4,0,0,1-.25-9.45q.2-5.25.25-11.05,0-2.6.5-3.2a9.622,9.622,0,0,1,3.1-1.5q2.9-1.1,8.7-3.7,10.6-4.6,11.8-5.1,2.3-1,3-.7.6.3,1.1,2.5a11.566,11.566,0,0,0,1.85,3.9,2.585,2.585,0,0,0,.4.5,3.729,3.729,0,0,1,.45,2.3q-.049,1.6,1.7,1.15t2-1.2q.2-.75.65-.75a21.292,21.292,0,0,0,4.35-.25q1.6-.4,4.3.951a16.054,16.054,0,0,0,2.65,1.1q.75.15,1.25,1.55a1.943,1.943,0,0,0,2.1,1.35q1.6-.1,1.3-1.5a4.231,4.231,0,0,1-.1-2.2,11.711,11.711,0,0,0,.7-3.7,22.379,22.379,0,0,1,1.85-8.65l.3-.7a2.88,2.88,0,0,1,1.55-.75,1.562,1.562,0,0,0,1.35-1.25,1.949,1.949,0,0,0-.8-1.75,2.077,2.077,0,0,0-1.65-.6,1.171,1.171,0,0,1-1.1-.3,6.731,6.731,0,0,0-1-1.4,24.075,24.075,0,0,1-4-6q-.2-.5.45-1.55a1.8,1.8,0,0,0-.35-2.25q-1.05-1.251-2.45.149a5.2,5.2,0,0,1-2,1.5,10.38,10.38,0,0,0-1.85.651,30.519,30.519,0,0,1-5.95,2.2q-.55.2-1.3-1.1t-2.25-.5q-1.549.8-1.15,2.1a2.617,2.617,0,0,1,.15,1.6,4.475,4.475,0,0,1-2,2.6q-.8.4-1.45.7-.349.2-.95-.349-.65-.6-2.4.05a1.753,1.753,0,0,0-1.25,2.45,1.946,1.946,0,0,0,1.2,1.349,1.23,1.23,0,0,1,.9,1.2,2.71,2.71,0,0,1-.75,1.6,6.017,6.017,0,0,1-2,1.3q-9.6,4.5-14.5,6.6-3.7,1.35-6.4,2.35-2.15.849-2-2.051v-9.6a4.694,4.694,0,0,1,.5-2.9q.6-1.1,2.8-1.2a9.118,9.118,0,0,0,5.2-2.1,8.759,8.759,0,0,0,3-4.9,49.413,49.413,0,0,0,1.4-7.25,16.706,16.706,0,0,0-.05-3.95q-.251-1.5.8-.55a16.5,16.5,0,0,0,2.05,1.6q1.8,1.249,3.95,3.05,2.1,1.749,3.65.45a4.807,4.807,0,0,1,3.7-1.2q2.2.149,2.6-.9.4-1.1-1.45-5.051a17.434,17.434,0,0,0-3.9-5.8,17.7,17.7,0,0,0-5.2-3.05q-2.6-1.05-7.45-.2-2.35.349-.85-1.25,5.3-6.45,4.4-8.35m-3.55,2.45a3.8,3.8,0,0,1-1.9,2.9,4.041,4.041,0,0,1-3.4,1,7.654,7.654,0,0,1-3.5-2.5q-1.9-2-1.7-3t2.5-1.1q2.3-.1,5.15-.05t2.85,2.75m-11.5,9.6q3.9-.3,5.5.7,1.5,1,2.9,4.7a22.236,22.236,0,0,1,.8,12.6,9.3,9.3,0,0,1-2.6,4.7,6.428,6.428,0,0,1-4.4,2q-7.5.5-9.5-6.1-.4-1.5-1.1-6.4a14.378,14.378,0,0,1,.8-6.05,9.191,9.191,0,0,1,2.6-4.45q1.5-1.4,5-1.7"/></svg>