<svg overflow="visible" width="100%" height="100%" viewBox="0 0 114.796 100.159" xmlns="http://www.w3.org/2000/svg"><path d="M81.757,61q-.7.1-.85,1-.2.85,1.2,1.95.7.6,2.3,1.7a20.218,20.218,0,0,1,7.2,11.2q1.4,6.3-.45,10.4-1.9,4.05-.65,5.2a.831.831,0,0,0,1.2-.15,8.005,8.005,0,0,0,1.35-2.4,37.216,37.216,0,0,0,1.55-7.5q.75-5.7-.7-8.5a42.279,42.279,0,0,0-3.75-5.95,22.594,22.594,0,0,0-4.3-4.6q-1.95-1.5-2.65-1.95a2.063,2.063,0,0,0-1.45-.4m20.95-52.05q1.05,1.151,1.5-.25.45-1.5-1.05-1.2t-.45,1.45m12-4.7a10.011,10.011,0,0,0-2.3-2.45q-2-1.8-6.4-1.8a19.179,19.179,0,0,0-8.8,2.25q-4.4,2.2-5.35,3.35t-.55,1.8a.851.851,0,0,0,1.05.45A5.866,5.866,0,0,0,93.707,7a4.88,4.88,0,0,1,1.3-.8q.5-.25,1.55-.8a68.867,68.867,0,0,1,7.35-2.55q4.251-1.25,8.7,2.6,1.3,1.1,1.9.15a1.44,1.44,0,0,0,.2-1.35m-89.5,61.5q1.2-1.7-.65-2.4-1.849-.75-5.45,6.8-3.6,7.5-1.8,12.8a37.312,37.312,0,0,0,2.95,6.3q1.95,3.4,2.45,3.35a2.358,2.358,0,0,0,1.1-.95,1.621,1.621,0,0,0,.25-1.75,10.248,10.248,0,0,0-1.35-2.05q-6.7-10.4.6-19.5.7-.9,1.9-2.6m19.8,26.1a1.263,1.263,0,0,0-1.3.4q-.5.8-.2,1.3a16.226,16.226,0,0,0,8.4,5.55,36.861,36.861,0,0,0,12.1.95q.8-.1,3.3-.6a15.746,15.746,0,0,0,4.1-1.2,26.44,26.44,0,0,0,3.2-1.7,5.232,5.232,0,0,1,3.9-.1,4.125,4.125,0,0,0,3-.5,21.82,21.82,0,0,0,3.3-1.7q2.9-1.6,1.15-4.25-1.75-2.7-3.35-1.6t-2.45,1.7a8.133,8.133,0,0,0-1.3,1,2.306,2.306,0,0,1-1.55.5,8.966,8.966,0,0,0-1.5.15,12.442,12.442,0,0,0-3.5,2.4,9.585,9.585,0,0,1-3.4,2.3,33.961,33.961,0,0,1-11,.75,21.257,21.257,0,0,1-9.5-3.35l-3.4-2m-4.4,1.8q1.3-1.2,1-2.1a7.69,7.69,0,0,0-3.4-2.4q-2.8-1-4-1.5-3.8-1.1-4.8-.6-.9.5-2.4,4.2-1,2.4,1.3,2.8l6.4.8a22.043,22.043,0,0,0,3.4.1,4.341,4.341,0,0,0,2.5-1.3m6-89.3a2.083,2.083,0,0,0-1.15,1.9,22.286,22.286,0,0,0-.05,3.4l.2,56q.1,2.35,1.3,2.35a1.249,1.249,0,0,0,1.2-.65,4.049,4.049,0,0,0,.45-1.25q.051-.649.05-3.65l-.3-52.6q0-2.7-.15-4.45-.15-1.8-1.55-1.05m22.8,6.8q.15-4.5.05-5.9-.15-1.4-1.85-1.4-1.3,0-1.4,1.7,0,1-.05,3a350.006,350.006,0,0,0,2.15,43.4,13.749,13.749,0,0,1,.1,2q.2,1,1.5.9t1.4-1.2q-.1-1.3-.1-1.9l-1.65-30.4q-.3-5.75-.15-10.2m-49.95-1q.6-1.5-.8-.95-1.449.5-.6,1.5.8.95,1.4-.55m8.65-2.9a6.37,6.37,0,0,0-2.6-4.2,6.141,6.141,0,0,0-4.7-1.3q-10.2,1.4-19.6,3.3a1.391,1.391,0,0,0-.95.5.955.955,0,0,0-.25.7.976.976,0,0,0,.35.65q.351.349,3.55.3a43.737,43.737,0,0,0,4.8-.35q1.65-.25,8.2-1.75,6.5-1.549,8,1.55,1,2.7,2.6,2.2a.938.938,0,0,0,.5-.6,1.825,1.825,0,0,0,.1-1"/></svg>