<svg overflow="visible" width="100%" height="100%" viewBox="0 0 111.964 101.29" xmlns="http://www.w3.org/2000/svg"><path d="M111.9,24.956q.349-4.551-1.2-6.05a28.939,28.939,0,0,0-6.5-4q-4.9-2.5-7.95-3.8a62.185,62.185,0,0,0-5.95-2.2q-9.3-2.7-15.15-4.5A84.8,84.8,0,0,1,65.3.706a6.518,6.518,0,0,0-7.5,1.15q-3.45,3-13.45,11.15-13.95,11.4-21.8,17.85-7.85,6.4-14.95,12.55-7.15,6.1-7.4,7.7a12.246,12.246,0,0,0-.15,3.35q.1,1.749.15,3.45,0,1.7-.05,6.3-.1,4.6.05,7.45t.15,4.1a23.028,23.028,0,0,0,.15,3.15,5.7,5.7,0,0,0,.8,2.85,5.575,5.575,0,0,0,2.1,1.7q1.4.7,2.15,1L9,85.606q20.3,7.9,30.4,11.45,10.05,3.549,11.75,4.05a8.2,8.2,0,0,0,4.15-.2,10.326,10.326,0,0,0,4.55-2.6q2-2,4.15-4.1l34-32a146.907,146.907,0,0,0,11.15-11.1,10.031,10.031,0,0,0,2.4-7.25q-.251-4.05-.15-8.55t.5-10.35m-5.85-5.2q.65.5-.45,1.4-1.2.9-2.3,1.9-1.15.949-1.55,1.35t-1.45,1.4q-12.8,11.1-19.8,17.3a6.351,6.351,0,0,1-2.9,1.7,6.283,6.283,0,0,1-3.4-.4q-17.9-6.9-26.8-10.5-5.4-2.3-11.75-4.65a22.726,22.726,0,0,0-2.75-.95q-1.6-.45,0-1.75L59.7,4.006a4.094,4.094,0,0,1,4.1-.6q2.9.9,13.5,4.2,8.4,2.5,13.45,4.25a53.281,53.281,0,0,1,9.85,4.55q4.8,2.85,5.45,3.35m.8,4.45q2.05-1.8,2,0-.049,1.7-.05,4.65.05,8.9.3,12.65a13.562,13.562,0,0,1-.9,6.2,16.137,16.137,0,0,1-3.6,4.5l-22.05,21q-1.2.9-1.25-.7-.1-1.2-.2-2.75-.8-8.451-1.2-14.95-.5-7.2,3.9-10.9,3.6-3,13.55-11.55,6.049-5.25,9.5-8.15M76.7,51.406q0,1.4,1,9.4.7,5,1.25,10.2.05.8.1,2.4a5.91,5.91,0,0,1-1.6,4.6l-15.3,14.25q-.949.9-4.8,4.25-3.9,3.249-3.2-2.95.6-6.251.85-9.6.2-3.351.35-7.85.15-4.551.95-5.4l19.4-19.9q.949-.8,1,.6m-24.45,22.3q.15,1.4.25,4.95t-.2,8.3q-.349,4.7-.85,8.2-.551,3.45-3.55,1.95l-34.4-12.9q-8.1-3.1-8.9-4.85t-1.2-7.3a79.456,79.456,0,0,1-.2-9.5q.2-3.951.35-5.75t3.65-.8q3.5.95,9.45,2.8A113.386,113.386,0,0,1,33,65.506q9.251,4.5,14.15,5.65t5.1,2.55m20.35-26.8q2.351.75-3.7,6.35a134.343,134.343,0,0,0-11.35,11.75q-5.3,6.15-15.65,1.55-10.35-4.65-14.55-6.35-4.151-1.751-11.95-4.4-7-2.4-10.3-3.35-2.05-.6-.4-2l22.35-18.9a4.024,4.024,0,0,1,4.05-.65l.6.2q5,1.7,11.3,4.2l29.6,11.6"/></svg>