<svg overflow="visible" width="100%" height="100%" viewBox="0 0 94.319 115.728" xmlns="http://www.w3.org/2000/svg"><path d="M16.441,10.228q-2.5-3.2-3.2-4a2.156,2.156,0,0,0-1.5-.9,1.619,1.619,0,0,0-1.1.2q-.851.351.75,2.4,2.949,3.9,9.45,11.8a57.7,57.7,0,0,0,11.5,10.2q.3.2,6.3,5a20.535,20.535,0,0,0-6.4,2.9,10.623,10.623,0,0,0-3.8,5.2,2.157,2.157,0,0,1-1.5,1.6,6.884,6.884,0,0,1-2.1.2q-8.4-.1-13.65-.05-5.3,0-8.55.25-3.25.2-2.5,6.65.75,6.4,1.5,23.35,1.3,29.6,1.3,29.8.2,3.5,1.1,4.6.9,1,4.3,1.6,6.1.9,17.35,2.55,11.25,1.6,17.25,1.85t39.4.3a65.186,65.186,0,0,0,7.4-.6q3.2-.5,4-1.7.9-1.1.4-4.4a168.923,168.923,0,0,1-1.8-26.9q.2-18.1,0-27.1a27.977,27.977,0,0,0-.2-4.4q-.5-3-1.5-3.9-1-.8-4-.9l-24.8-.2a4.981,4.981,0,0,1-2.2-.4,3.749,3.749,0,0,1-1.5-1.9q-4.3-8.3-12.65-8.75.1-1.1.35-3.55a97.252,97.252,0,0,0,.4-10,61.38,61.38,0,0,0-.8-9.2q-.1-.8-.95-5.55-.85-4.8-1.45-5.65t-1.35-.55q-1.6.551-.85,2.65,3.8,15.4,2.3,26.4a51.058,51.058,0,0,0-.55,5.2,4.851,4.851,0,0,1-1.25-.8q-8.9-7.1-13.2-10.8a71.088,71.088,0,0,1-11.7-12.5m29.3,27.4q7.7.8,9.8,7.3l-23.1-.1q-2.2-.1-1.1-1.9a8.239,8.239,0,0,1,2.4-2.4,18.2,18.2,0,0,1,12-2.9m-42.8,12.9a3.213,3.213,0,0,1,.5-2.4,4.123,4.123,0,0,1,2.6-.6q6.7.1,39.7.1,18.8.15,38.7,1.1,3.7.1,4.3.7.6.7.6,4.4v14.2q-.1,8.8.1,14.2.1,2.6,1.7,23.7.3,4.6-.7,5.8-1.1,1.3-5.5,1.3-30.9.2-42.2-.25a147.538,147.538,0,0,1-16.7-1.95q-12.2-2-16.7-2.5a4.264,4.264,0,0,1-2.6-1,4.207,4.207,0,0,1-.9-2.8q-1.6-36-2.9-54m76.55,32a4.521,4.521,0,0,0-.95-2.7q-.951-1.3-4.45-1.3-3.55,0-3.65,3.55-.1,3.5,3.2,3.5a9.1,9.1,0,0,0,4.55-.8,2.735,2.735,0,0,0,1.3-2.25m-4.5.95q-2.4,0-2.05-1.2.3-1.25,1.1-1.5a3.042,3.042,0,0,1,1.8.05,1.779,1.779,0,0,1,1.25,1.45q.3,1.2-2.1,1.2m3.75-20.15a4.487,4.487,0,0,0-3.7-2,6.968,6.968,0,0,0-4.6,2,6.563,6.563,0,0,0-1.7,4.7q-.5,5.5,5.9,5.7t6-5.6a7.623,7.623,0,0,0-1.9-4.8m-.9,4.5q.2,3.5-3.15,3.35-3.55-.249-3.15-3.65.5-3.5,3.3-3.4,2.7.2,3,3.7m-16.4-8.6q-1-1.5-6.5-2.7a70.125,70.125,0,0,0-13.05-1.5q-7.551-.249-14.4-.3-6.85-.1-11.75.2-2.2.1-3.4.2a2.078,2.078,0,0,0-1.85,1.25,75.044,75.044,0,0,0-2.75,19.35q-.2,3.9.2,19.8.1,3.6,1.8,5.3a7.661,7.661,0,0,0,4.9,1.7q19.4,1.2,38.7,2.1,3.4.2,4.6-.7,1.1-.8,1.7-4.05a188.41,188.41,0,0,0,2.9-36.05,8.6,8.6,0,0,0-1.1-4.6m-35.75-1.95q5.349-.05,9,0a97.1,97.1,0,0,1,19.95,2.05q3.5.8,4.5,2.1,1.1,1.3.9,4.9l-.7,15.9q-.5,7.2-1.2,13.9-.4,3.6-1.5,4.6-1.2,1-4.7.8l-16.9-.8q-13.2-.8-19.8-1-3.8-.1-4.4-3.7a108.177,108.177,0,0,1,1.5-35.5q.15-.7.25-1.3.45-2.049,3.75-1.95,3.249.051,9.35,0"/></svg>