<svg overflow="visible" width="100%" height="100%" viewBox="0 0 78.329 116.102" xmlns="http://www.w3.org/2000/svg"><path d="M39.329.3Q9.929,2.65,1.729,20.65q-3.3,6.5-.3,16.8,2.6,9.2,7.4,14a3.9,3.9,0,0,0,2.3,1.3,3.248,3.248,0,0,0,2.3-1.4q3.1-3.7,4.7-5.6.7-.65,1.45.95,4.05,8.95,13.05,27.05a8.011,8.011,0,0,1,.6,6.5q-.9,3.2.9,4.9a3.556,3.556,0,0,0,2.05.95q.75-.049.8,1.25-.1,3.15.5,11.85.849,12.45.85,12.85.2,4,1.95,4.05a4.241,4.241,0,0,0,2.95-1,4.075,4.075,0,0,0,1.45-1.85q.65-2.6,1.45-6.4,1-5.7,1.2-6.4.6,2.4,1.5,7.4a15.355,15.355,0,0,0,3.1,6.8,3.465,3.465,0,0,0,2.6,1.3q1.2-.2,1.9-2.1a20.932,20.932,0,0,0,1.8-8q-1.1-13.9-1.9-19.15-.1-.75-.2-1.35-.051-.25-.25-1.75a3.737,3.737,0,0,1-.05-1.85q.2-.4,1-1.85t1.7-7.55a97.071,97.071,0,0,1,1.8-10.85q.95-4.151,1.65-7.4t1.5-5.85q.8-2.6,1.2-4.1.35-1.5,3-1.05a54.771,54.771,0,0,0,5.85.75q2.7.2,3.8-.9,1-1.1,1-3.9,0-2.2-.3-5.6-.4-4.4-.5-5.7a24.766,24.766,0,0,0-4.9-13.9,36.249,36.249,0,0,0-7.6-7.7,34.454,34.454,0,0,0-9.6-4.95q-5.4-1.8-16.1-.9M29.379,36a29.263,29.263,0,0,1,4-1.15,22.73,22.73,0,0,1,4.25-.5q2.1-.1,6.6-.1a9.746,9.746,0,0,1,6.8,3,7.085,7.085,0,0,1,1.9,2.65q.3,1.05-.05,15.45-.4,14.351-1.3,15.15t-1-1.1a5.816,5.816,0,0,0-1.15-3.05,8.642,8.642,0,0,0-2.7-2.15,4.437,4.437,0,0,0-2.75-.75,4.107,4.107,0,0,0-2.15,1.4,13.049,13.049,0,0,0-2.3,4.1q-1.2,2.9-1.95.85-2.3-5.4-4.95-13.35-4.3-13-5.1-15.2-1-3.1-.5-3.9A4.344,4.344,0,0,1,29.379,36m18.65-4.05a56.176,56.176,0,0,0-10.2-.2q-9.9.4-15.8,5.3-2.2,1.8-11.1,12.9-16.1-21.4-1.4-35.8,13.2-12.8,38-11.4a24.354,24.354,0,0,1,15.9,5.8q4.5,3.9,5.7,5.2a16.193,16.193,0,0,1,3.9,6.6q2.3,6.3,2.8,16.5.2,2.6-.5,3.5-.8.9-3.2.5-8.4-1.65-12.7-2.8a10.822,10.822,0,0,1-4.55-2.65,12.354,12.354,0,0,0-6.85-3.45m13.35,9.75q1.05.349.65,1.55-.851,2.5-2.2,6.9a63.7,63.7,0,0,0-2.1,8.55q-.6,3.5-1.4,6.95-.851,3.4-.75-3.8t.25-18.7q0-1.8.6-2.2t2.6.1q1.149.35,2.35.65m-8.15,38.45q-.2.3-2.2.4h-1.5q-1.95-.1-1.65,1.3a1.765,1.765,0,0,0,1.15,1.2,6.835,6.835,0,0,0,3.35.85q1.149-.2,1.25.85t.2,3.3q.1,2.2.7,8.3.7,6.4.8,9.3a32.35,32.35,0,0,1,.1,4.35q-.1,2.05-1.35,2.55-1.3.45-3.25-9.45-2-9.949-2.4-11.95a6.839,6.839,0,0,0-.8-1.8q-.8-1.1-1.2-1.7-1.6,3.3-1.7,3.7-.4,3.6-1,12.9-.651,9.3-1.85,8.45-1.3-.851-1.4-5.05-.1-8.6-.5-14.85-.251-4.05-.55-5.95-.3-1.35.45-1.3a2.39,2.39,0,0,0,1.25-.4,1.453,1.453,0,0,0,.6-2q-.4-1.2-1.5-.9a15.225,15.225,0,0,1-2,.8,2.454,2.454,0,0,1-1.65-.2q-.9-.4-.65-1.1a48.017,48.017,0,0,1,3.6-7,1.459,1.459,0,0,1,2.1-.4,8.65,8.65,0,0,0,2.3,1q3.7.9,5.3-1.6.6-1.1,1.05,0a11.863,11.863,0,0,0,.55,1.25q2.5,4.751,2.4,5.15m-31.2-33.6a4.128,4.128,0,0,1-.55-3.35,9.71,9.71,0,0,1,1.4-3q1.7-2.25,2.7,2.4a90.8,90.8,0,0,0,4.15,13.05q1.3,3.7,2.25,6.9,1.249,4.9-1.1.5l-8.85-16.5M43.379,66.8a3.157,3.157,0,0,1,1.05-.7,2.952,2.952,0,0,1,1.65.3,2.56,2.56,0,0,1,1.6,1.75,7.755,7.755,0,0,1,.35,1.75,4.761,4.761,0,0,1-.3,1.35,2.643,2.643,0,0,1-1.5,1.35,2.392,2.392,0,0,1-2.5-.55,3.144,3.144,0,0,1-1.05-2.85,3.634,3.634,0,0,1,.7-2.4"/></svg>