<svg overflow="visible" width="100%" height="100%" viewBox="0 0 115.357 77.328" xmlns="http://www.w3.org/2000/svg"><path d="M102.445,7.713a3.608,3.608,0,0,0-3-2.6,84.642,84.642,0,0,0-8.9-.4q-9,.1-9.2.1-1.35-.1,1.7-2.2,4.4-2.8,2.3-2.6-3.1.2-3.6.3a1.612,1.612,0,0,1-.4.05q-7.5,1.05-11.4,1.65a39.394,39.394,0,0,0-11.3,3.3q-2.4,1.2-9.2,5.3a77.88,77.88,0,0,1-7.8,4.35q-1.35.6-1.3-1.1a13.275,13.275,0,0,1,.95-4.7q1.35-3.5.25-2.75-.9.651-1.85,1.4a210.685,210.685,0,0,0-16.65,14.4,12.691,12.691,0,0,0-3.7,7.4,4.034,4.034,0,0,1-1,2.1,4.177,4.177,0,0,1-1.8,1.5,27.442,27.442,0,0,0-8.7,8q-2.4,3.2-7,9.5a3.034,3.034,0,0,0-.6,3.3,2.692,2.692,0,0,0,2.4,2,136.029,136.029,0,0,0,14.7,1.4,30.2,30.2,0,0,0,14.4-3.3,1.245,1.245,0,0,1,1.7.4,3.189,3.189,0,0,1,.75,1.4,5.041,5.041,0,0,1-.2,1.25,16.232,16.232,0,0,0-.35,2.7q-.15,1.95-.45,4.55a15.2,15.2,0,0,0,.15,4.8q.4,2.2,3.8,2t3.65-2.4q.251-2.25.45-6.5t.3-4.6a5.227,5.227,0,0,0,0-1.5,4.881,4.881,0,0,0-.35-1.5q-.6-1,2.15-.35.8.1.75,3.1-.1,2.95-.9,9.5-.851,6.551,1.4,6.75a36.223,36.223,0,0,0,5.1.05q2.85-.15,3.5-4.6a20.3,20.3,0,0,1,2.35-7.35q2.5-4.3,2.7-4.7a2.615,2.615,0,0,1,1.7-1.5,5.373,5.373,0,0,1,2.4.2q2.6.8,8.1,1.9,2.1.6,7,2.2,4.5,1.5,7,2.1a3.274,3.274,0,0,1,2.7,2.4,11.681,11.681,0,0,1,.55,3.85,3.713,3.713,0,0,1-1.55,2.2,14.9,14.9,0,0,0-2.9,3.3q-1.6,2.25-.1,3.05a6.191,6.191,0,0,0,3.2.5l17-2.8a1.232,1.232,0,0,0,.9-.9,1.587,1.587,0,0,0-.4-1.3,5.61,5.61,0,0,0-.9-.45q-1.15-.249-.55-2.1.2-.75.4-1.75.949-5.3,1.25-7.2a13.847,13.847,0,0,1,.9-3.3,5.892,5.892,0,0,1,2.9-1.1q2.1-.5,6.3-1.4,2-.6.7-2.3a13.392,13.392,0,0,1-2.4-5,6.788,6.788,0,0,1,.2-4.7,8.841,8.841,0,0,0,1.3-5.7,11.875,11.875,0,0,0-2.6-5.2q-1.7-2.1-1.6-2.9.1-.7,2.2-2.8,2.8-2.9-1-4.5-1.4-.6-8-2.8a62.413,62.413,0,0,1-8-3.3q5.6-4,6.1-4.4a3.607,3.607,0,0,0,1.4-3.7m-3.1.45q1.751.351-.9,1.9-2.7,1.5-5.05,3.1a30.46,30.46,0,0,0-2.65,1.85,1.285,1.285,0,0,0-.3,1.7,4.178,4.178,0,0,0,2.5,2q2.2.8,7.9,2.8,5.1,1.7,7.9,2.8-2.5,3-2.5,4-.1,1.1,1.9,4.2,3.7,4.7,2.6,7.4a8.635,8.635,0,0,0-1.3,5.3,26.926,26.926,0,0,0,1.1,5.2,2.976,2.976,0,0,1,0,2.2,2.888,2.888,0,0,1-1.85.9,10.042,10.042,0,0,1-4.65.1,9.463,9.463,0,0,0-4-.15q-2.15.3-3.95.5a8.812,8.812,0,0,0-3.25.85,16.02,16.02,0,0,1-7.8,1.4q-5.1-.7-7.7-1a2.986,2.986,0,0,1-1.6-1.1,4.351,4.351,0,0,1-.9-2q-.6-8.2-.25-10.35a7.3,7.3,0,0,0,.15-2.7q-.2-.5-1.8-.45-1.6,0-1.5,5.7.1,3.1.7,8a3.077,3.077,0,0,1-.2,2.1q-.4.7-2,.3a101.178,101.178,0,0,1-9.9-2.9q-6-1.9-10-.4-3.7,1.5-3.3-.8a6.642,6.642,0,0,0,0-3.3q-.4-1-.95-1-.551-.05-1.35,1.7a8.317,8.317,0,0,1-1.6,2.9,10.149,10.149,0,0,1-3.2.35q-3.15.15-3.2-.55-.5-8.4-.65-10.1-.2-1.7-.95-.6-.45.651-.95,1.35a3.4,3.4,0,0,0-.45,2.1q.3,9.351-8.9,10.45-3.1.3-12.4.3a5.822,5.822,0,0,1-2.7-.3q-1.1-.7-.8-2.8,0-.3-.6-.8a4.805,4.805,0,0,1-1-.9,2.336,2.336,0,0,1-.5-.8,1.521,1.521,0,0,1,0-.8,118.011,118.011,0,0,1,8.5-10.2,8.1,8.1,0,0,1,6.3-2.6,22.737,22.737,0,0,1,6.7,1.7,13.467,13.467,0,0,1,1.7,1.1,1.348,1.348,0,0,0,1.3-.2q.7-1.1.3-1.7a3.079,3.079,0,0,1-.8-4.2.834.834,0,0,0-.3-1.3,1.729,1.729,0,0,0-1.8,0q-4.2,3.3-6,.9-.8-4.1,5.2-10,1.1-1.1,8.55-7.25,1.3-1.2.9.4-.85,3.5,1.25,4.15,2.3.7,6.2-1.7,10.1-5.8,14-8.4a21.022,21.022,0,0,1,6.9-2.7q2.4-.5,7.3-1.1,1.6-.3,1.8.4a3.6,3.6,0,0,0,3.2,2.6,40.444,40.444,0,0,0,4.1,0q2-.1,8.8-.1a41.994,41.994,0,0,1,8.7.55m-10.1,53.95q-.45-3.3,1.35-3.5a16,16,0,0,1,2.25-.1,13.739,13.739,0,0,0,1.7,0q1.15-.1,3.4-.15a4.816,4.816,0,0,1,2.8.45q.6.6.4,2.8a57.436,57.436,0,0,1-1.1,5.85Q99,72.014,98.4,72.313q-.9.8-6.4,1.8-5.5.951-4.85-.2,1.7-2.7,3.55-2.8,1.8-.1,1-1.95a7.889,7.889,0,0,0-.9-2,12.912,12.912,0,0,1-1.55-5.05m-49.9-3.85q-.2,3.2-.25,5.05-.1,1.851-.25,3.95-.2,2.05-1.4,2.05a1.99,1.99,0,0,1-1.6-.5q-.4-.549-.2-5.95.15-5.4.3-7,.1-1.7,1.85-1.25,1.7.4,1.55,3.65m7.15-3.35q.7-1.149,4.3-1.05a17.147,17.147,0,0,1,5,.65q1.45.551-2.1,6.3-3.55,5.7-4,8.45t-2.8,2.25q-2.4-.5-1.5-4.5t1-5a14.408,14.408,0,0,0,0-1.7q-.05-.7-.35-2.45a4.038,4.038,0,0,1,.45-2.95m-27.25-14.3a2.488,2.488,0,0,0-.3,2.4q1.1,1.5,2.4-.25a6.992,6.992,0,0,0,.95-1.65q.85-2.2-.7-2.1a2.755,2.755,0,0,0-2.35,1.6"/></svg>