<svg overflow="visible" width="100%" height="100%" viewBox="0 0 119.571 100.594" xmlns="http://www.w3.org/2000/svg"><path d="M118.671,74.544q2.649.65-2.5-9.2a56.862,56.862,0,0,0-14.551-17.65q-9.4-7.8-19.8-8.1a89.742,89.742,0,0,0-12.1-.6,17.5,17.5,0,0,0-11.2,4.1,1.874,1.874,0,0,1-1,.2,1.991,1.991,0,0,1-1.2-.3,2.7,2.7,0,0,1,.2-2.8,24.2,24.2,0,0,1,1.7-2.5l14.8-20a20.085,20.085,0,0,0,3.9-15.8q-.3-2.5-2.6-1.7-9.7,3.3-10.8,3.7-11.5,4.9-15.5,12.5-6.1,10.4-9.2,15.7-2.6-4.4-6.5-11.7-5-9.4-6.4-11.8a8.913,8.913,0,0,0-7.5-6.1q-.7-.1-2.4,3.2a22.971,22.971,0,0,0-1.9,12.6q1.3,13.8,11.4,28.1.15.15,3.1,4.2-4.6,6.2-4.7,8.15a25.046,25.046,0,0,0-3.7-.75l-.8-2.55a5.009,5.009,0,0,0-.6-1.6,1.347,1.347,0,0,0-1.6-.4q-2.6.9-1.6,3.1.15.35.75,1.45a8.911,8.911,0,0,0-2.9.85q-3.3,1.65-6.25,3.45-2.75-4.849-3.15-5.85a1.612,1.612,0,0,0-1.6-1,2.276,2.276,0,0,0-1.65.5q-.949,1.15-.8,1.75a7.381,7.381,0,0,0,1.25,2.05q1.1,1.45,3.6,4.3a14.217,14.217,0,0,0-2.7,4.4Q.521,72.393.72,79.794a29.385,29.385,0,0,0,4.9,15.2q2.8,4.6,7.8,4.1,4.9-.4,7.2-5.3l.5-1.1a7.955,7.955,0,0,1,2.051-2.55,8.8,8.8,0,0,0,2.25-4.5,35.647,35.647,0,0,0,.8-8.15,31.712,31.712,0,0,0,.1-4.2v-.05q.651.1,1.75.2,3.1.251,4.9.3a46.846,46.846,0,0,1,.4,5.45q-.049,1.35.15,4.3.5,6.3.7,7.4a1.278,1.278,0,0,0,.6.6,1.8,1.8,0,0,0,.9.3,1.1,1.1,0,0,0,.7-.4,1.468,1.468,0,0,0,.4-.8q-.4-8.2-.8-12.3,0-.251-.2-4.6,1.2-.1,2.7-.2,2-.1,6.45,1.75,4.4,1.8,7.15,10.15l2.7,12.6a7.116,7.116,0,0,0,.7,1.7q.5.9.9.9a1.385,1.385,0,0,0,1.5-1q.549-1.249.1-4.7a43.311,43.311,0,0,0-4.75-14.3q-4.149-7.6-4.15-8.1.2-.9,4.9-4.2,3-2,4-1.8t3,3.2q6.3,9.5,6,13.95-.349,4.451,1,5.65,2.2,1.55,2-2.9-.2-4.5-3.3-13.2a28.388,28.388,0,0,1,4.25.45q.951.251,2.5.7a15.816,15.816,0,0,1,1.6.45.383.383,0,0,1,.15.05,68.333,68.333,0,0,1,10.5,3.75q6.3,2.3,11,.8,8.151-1.85,13.7-3.65,5.549-1.85,8.25-1.2M92.02,44.994a3.286,3.286,0,0,1,1.4,1.2,3.224,3.224,0,0,1,.2,2.1,165.015,165.015,0,0,1-5.5,23.8q-.8,2.25-1.25,3.65-1.7-.55-3.85-1.35a2.229,2.229,0,0,1-1.6-1.8,19.411,19.411,0,0,0-.1-2.4q-.5-4.4-1-13.9-.5-9-1.1-13.9,8.4,0,12.8,2.6m9.05,30.5q-4.549,1.5-5.35,1.8a71.1,71.1,0,0,0,5.2-26.2,45.966,45.966,0,0,1,9.1,8.6l2.5,3.3q5.9,9.4,3.5,9.3a13.426,13.426,0,0,0-4.15.3q-1.749.45-4,.95a64.681,64.681,0,0,0-6.8,1.95M23.02,9.594q8.6,15.6,10.7,19.6a49.094,49.094,0,0,1,2.2,5.5,17.075,17.075,0,0,0,2.6,5.1q.9.9,1.6.7.8-.2,1-1.5a29.506,29.506,0,0,1,3.3-11.6,75.334,75.334,0,0,1,6.5-10.3q7.1-9.8,20.9-13.1,1.8-.5,2.4,0,.5.5.3,2.4a21.182,21.182,0,0,1-4.4,10.8q-7.8,10.6-16.8,23.3a6.3,6.3,0,0,1-4.2,3,111.511,111.511,0,0,1-11.7,2.7,13.287,13.287,0,0,0-6.451,2.7l-.049-.05q-1.6-2.5-9.551-15.5-7.948-13.05-2.75-26.35,1.3-3.7,4.4,2.6m45.4,32.5q3.1-.3,3.7.4.5.5.6,3.4,0,1.9.75,15.35a47.813,47.813,0,0,1-1.049,7.15q-.5,2.2-3.4,1.7-3.9-.6-8.6-5.5a2.3,2.3,0,0,1-.5-1,2.176,2.176,0,0,1,.1-1.2,18.89,18.89,0,0,0,1.1-7.3,73.3,73.3,0,0,0-.7-7.3,3.876,3.876,0,0,1,2.5-4.4,28.244,28.244,0,0,1,5.5-1.3m-10.8,6.7a42.2,42.2,0,0,1,.9,7.4,7.237,7.237,0,0,1-2.5,6.8,33.061,33.061,0,0,1-6.4,4.8,16.99,16.99,0,0,1-7.7,2.4q-3.951.2-13.4.5a22.7,22.7,0,0,0-2.849.2,3.713,3.713,0,0,0-1.051-1.1q-3.4-.2-5.2,3.7a9.7,9.7,0,0,0-.6,7.2l1.6,3.2a6.433,6.433,0,0,1,.8,3.1,7.486,7.486,0,0,1-1.3,3.3q-1.4,2.1-2,3.1l-1.5,1.7a4.041,4.041,0,0,1-1.3.8q-5,1.6-9.15-6.85t-1.65-15.3a20.649,20.649,0,0,1,8.3-10.65,12.261,12.261,0,0,1,5.551-2.1q.6,1.05,1.349,2.35a1.281,1.281,0,0,0,.6.3,1.7,1.7,0,0,0,1.1-.2.646.646,0,0,0,.4-.8l-.449-1.55a15.131,15.131,0,0,1,3.5,1.1,26.536,26.536,0,0,0,4.049-5.5,18.542,18.542,0,0,1,2.2-3.9q3.75-2.3,4.9-3.05t8.8-1.95q7.65-1.249,9.95-1.4t3.05,2.4m-36.4,28.3a10.288,10.288,0,0,1,2.4-4.5v7a3.73,3.73,0,0,1-.55,1.4q-.4.6-1.4-.35-1.052-.95-.451-3.55"/></svg>