<svg overflow="visible" width="100%" height="100%" viewBox="0 0 117.313 100.38" xmlns="http://www.w3.org/2000/svg"><path d="M17.133,73.7q2-2.5.5-4.7-1.8-2.3-5-.6a23.459,23.459,0,0,1-5.4,3,11.82,11.82,0,0,0-6.8,8.2,11.253,11.253,0,0,0,2.2,10.5,25.972,25.972,0,0,0,8.2,6.8,26.092,26.092,0,0,0,11.3,3.3q3.9.3,11.9.1,18.6.5,31-4.8,10.5-4,16.2-11.1,13.2-16.9,7.1-37.4a62.48,62.48,0,0,0-6.8-15.3,23.175,23.175,0,0,1-3.3-10.8,8.207,8.207,0,0,1,4.05-8.05,12.172,12.172,0,0,1,8.6-2.2,26.644,26.644,0,0,0,8.6-.1,11.941,11.941,0,0,1,7.1.45,49.083,49.083,0,0,0,6.95,2.35q4.249,1.151,2.4.05-1.851-1.151-3.05-2-1.251-.851.1-1.25,1.35-.45,3.4-1,2-.551-.3-.8a40.9,40.9,0,0,0-6.4-.15q-4.151.1-5.95-.05-1.851-.15-2.6-.2-.75-.1-1-2.4a4.975,4.975,0,0,0-2.8-3.75,16.31,16.31,0,0,0-5.1-1.2q-3.2-.3-7.9-.4l-8-.2q-3.4,0-5.6,3.4-4.4,7.7-1.6,18.4a169.215,169.215,0,0,0,6.3,18.1q3.8,10.1,2.6,18.2-1,7-6.6,17.2a5.512,5.512,0,0,1-2.4,1.6l-14.8,7a59.43,59.43,0,0,1-18.1,5,169.152,169.152,0,0,1-18.8,1.1q-5,.2-6.9-5.1-2.1-5.2,2.6-7.8,3.8-3.1,4.1-3.4m-9.95.55a8.056,8.056,0,0,1,3.05-.8.8.8,0,0,1,.6.65q-.051,1.751-2.75,3.85Q5.332,80,8.033,86.3q3.1,6.8,9.5,6.8,17.6,0,28-3,18.4-5.2,28.2-13.1,2.9-5.1,4.2-7.8a24.259,24.259,0,0,0,2.5-8.5q1-14.1-3.4-24.8-.6-1.6-1.8-5.4-1.1-3.5-1.9-5.4a28.135,28.135,0,0,1-1.2-18.4q1.7-4.3,6-3.9.3,0,8.6.3a30.85,30.85,0,0,1,7.25.7,4.681,4.681,0,0,1,2.55,1.45,2.364,2.364,0,0,1,.15,2.2,1.909,1.909,0,0,1-1.95,1.3,47.49,47.49,0,0,1-5.5-.75,11.584,11.584,0,0,0-10.5,3.5,12.086,12.086,0,0,0-3.2,10.7,31.613,31.613,0,0,0,4.8,12.9,45.1,45.1,0,0,1,7,20.9,35.6,35.6,0,0,1-4.8,21.4,33.089,33.089,0,0,1-9.3,10.2,52.048,52.048,0,0,1-12.2,6.2q-11.8,4.5-26.8,3.5-7.3.1-10.9-.1a25.624,25.624,0,0,1-10.5-2.5,19.376,19.376,0,0,1-8.5-7.3,8.871,8.871,0,0,1-1-7.8q1.3-4.4,3.85-5.35"/></svg>