<svg overflow="visible" width="100%" height="100%" viewBox="0 0 48.337 116.168" xmlns="http://www.w3.org/2000/svg"><path d="M33.3.09Q28.2-.06,19.6.04,11,.09,10.7.24a5.744,5.744,0,0,0-1.35,1.5,38.607,38.607,0,0,1-2.7,3.2q-1.8,1.9-4.25,5-2.5,3.1-2.4,8.55.1,5.4.15,11.55T2.7,38.49q2.5,2.25,5.35,5.25a9.98,9.98,0,0,0,6.8,3.25q3.9.25,4.3.8a10.171,10.171,0,0,1,.35,3.6l1.2,51.1q.2,6.3.45,9.25a10.792,10.792,0,0,0,.75,3.8q.45.85,1.2.55a2.064,2.064,0,0,0,.9-.6q.5-.5.1-4.4t-.4-5.3l-1.3-54.1a16.473,16.473,0,0,1,.15-2.4,1.291,1.291,0,0,1,1.15-1.25q1.05-.251,1.4,2.15.3,2.35.4,5l2.1,47.6q.1,1.9.4,6.85.249,4.95,1.5,4.85,1.1-.2,1.2-.85a13.885,13.885,0,0,0,.1-1.95q-1.5-33-2.35-47.65t-.6-15.3q.251-.649,4.25-.55t8.75-3.95a60.806,60.806,0,0,0,5.95-5.5,5.044,5.044,0,0,0,1.3-2.75q.1-1.4.1-2.1V22.99q.2-3.7.1-6.1a10.815,10.815,0,0,0-.95-4.2,47.238,47.238,0,0,0-3.45-5.6,43.221,43.221,0,0,0-4.05-5.35Q38.4.191,33.3.09m-14.85,2.8q6.3-.251,13.25-.1,6.851.15,9.7,4.7a55.891,55.891,0,0,1,3.55,6.35,17.686,17.686,0,0,1,.6,6.2q-.1,4.451.1,10.8.2,6.3-5.3,10.55a19.157,19.157,0,0,1-12.9,3.95A101.054,101.054,0,0,1,14.5,44.09q-2.5-.5-6-3.65a26.667,26.667,0,0,1-4.4-4.7A12.662,12.662,0,0,1,3,30.34q-.25-3.949-.2-7t.05-6.3q0-3.25,3.25-7.1,3.2-3.9,4.15-5.1a6.368,6.368,0,0,1,1.4-1.45q.45-.3,6.8-.5"/></svg>