<svg overflow="visible" width="100%" height="100%" viewBox="0 0 102.572 117.704" xmlns="http://www.w3.org/2000/svg"><path d="M80.4,15.875q-.55-.6-4.05-3.8A42.928,42.928,0,0,0,66,5.575,67.738,67.738,0,0,0,51.15.475q-8.1-1.85-19.9,3.5-11.85,5.3-16.4,11.05-4.6,5.751-8.7,11.45a29.4,29.4,0,0,0-5,14.4Q.2,49.575,0,67.475q0,13.7,10,28.6,12.8,19.3,37.6,20.9,4,.2,11.15.65,11.051.85,20.15-7.45,6.3-5.8,9.2-9a80.047,80.047,0,0,0,6-7.2,33.406,33.406,0,0,0,4.6-8.3,55.117,55.117,0,0,0,3.8-22.8l-.2-6.5q.2-4.4-2.75-15.25A35.392,35.392,0,0,0,88.7,23.375q-7.85-6.949-8.3-7.5M56.95,5.925a46.091,46.091,0,0,1,13,6.25,93.474,93.474,0,0,1,9.9,7.9q4.151,3.9,6.95,6.9,13,14.1,12.6,31.9v3.9a49.393,49.393,0,0,1-3.3,21.9q-2.7,6.7-10.4,15a55.652,55.652,0,0,1-4,4q-3.3,3-4.2,3.9-9.1,8.8-20.7,7.1a39.634,39.634,0,0,0-6.9-.6q-17.9.4-32.3-12.9a29.881,29.881,0,0,1-6.4-8.1,110.146,110.146,0,0,1-6.3-13.9,37.6,37.6,0,0,1-2.1-15.2q.3-3.5.5-9.9.2-6.9.4-9.9a36.592,36.592,0,0,1,8.7-20.6,115.706,115.706,0,0,1,8.2-8.9,42.924,42.924,0,0,1,9.8-7.2,33.793,33.793,0,0,1,12.2-3.6q2.1-.2,2.85-.2.75-.05,2.45-.05,1.751,0,9.05,2.3M48.7,56.875a2.1,2.1,0,0,0-2.85.1,4.668,4.668,0,0,0-1.35,3q-.6,3.5-.9,6.9-.3,4.4,3.9,6.9a3.7,3.7,0,0,0,6-2.6l.2-4q.45-2.9-.1-3.85a1.291,1.291,0,0,0-.9-.65,1.257,1.257,0,0,0-1,0,1.649,1.649,0,0,0-.5.95,11.669,11.669,0,0,0-.25,3.1,13.669,13.669,0,0,1-.25,3.25q-.35,1.251-1.1,1.3-1.8-.049-2.45-2.75a20.128,20.128,0,0,1-.65-4.35,8.775,8.775,0,0,1,1.6-4.9q1.5-1.65.6-2.4m-17.9-27.2a16.814,16.814,0,0,0-4.8,2q-3,2.1-3.95,2.6T21,35.375a.984.984,0,0,0,.25,1q.4.4,1.55.1a5.575,5.575,0,0,0,1.9-.9q5.5-4.7,11.65-3.25a28.169,28.169,0,0,0,5.3.65q2.051,0,2.3-1,.25-1.05-2.75-1.5-3-.5-4.9-.8a18.791,18.791,0,0,0-5.5,0M23,45.075q-1.35-.8-2.1-.1-.55.6.2,1.2.1.7,3.35,3.15a13.6,13.6,0,0,0,5.85,2.85,6.551,6.551,0,0,0,4.2-1.7,21.286,21.286,0,0,0,2.35-2.3,5.833,5.833,0,0,0,1.45-2.3q.2-.9-.35-1.15a2.012,2.012,0,0,0-2.05.35,7.046,7.046,0,0,0-1.8,1.9q-2,3-5.5,1.2l-5.6-3.1m43.6,45.15q1.2-3.9-.3-4.25-1.35-.3-2.15,1.95a21.914,21.914,0,0,1-1.65,3.5,14.663,14.663,0,0,1-2.45,2.75,10.036,10.036,0,0,1-5.25,2.15,29.069,29.069,0,0,1-8.7,0,16.506,16.506,0,0,1-9.2-4.55q-2.4-2.3-3.35-3.1a1.454,1.454,0,0,0-2.05.1,1.167,1.167,0,0,0-.1,1.4,5.6,5.6,0,0,0,1.2,1.5q7.9,8.5,17.5,7.8h2q6.3,0,9.8-2.7a13.108,13.108,0,0,0,4.7-6.55m-1.4-37q4.7-.15,6.65-2.05,1.9-1.95.7-2.9-1.2-1.05-3.6.95a5.5,5.5,0,0,1-5.7.75,24.624,24.624,0,0,1-5.55-2.7q-.9-.8-1.3-1.1a.942.942,0,0,0-1.3.25,1.838,1.838,0,0,0-.15,1.75q.349,1.1,3.25,3.15a11.078,11.078,0,0,0,7,1.9m2.05-21.15q-7.1.85-8.8,1.9-1.751,1.05-1.35,2.4.4,1,3.75.3t6.05-1.4q5.3-1.1,6.65,1.65,1.3,2.751,2.75,2.25,1.05-.349.05-2.7a7.633,7.633,0,0,0-3.2-3.65,8.839,8.839,0,0,0-5.9-.75"/></svg>