<svg overflow="visible" width="100%" height="100%" viewBox="0 0 116.451 75.149" xmlns="http://www.w3.org/2000/svg"><path d="M10.767,51.9q-7.6,3.551-9.05,6.55A14.343,14.343,0,0,0,.067,62.9a5.777,5.777,0,0,0,.2,2.65,15.366,15.366,0,0,0,1.2,2.55,7.4,7.4,0,0,0,2.2,2.1,13.1,13.1,0,0,0,4.5,2,107.709,107.709,0,0,0,12.65,2.7,38.067,38.067,0,0,0,7,.15q3.45-.3,10.25-1.65a26.7,26.7,0,0,0,12.65-6.65q5.85-5.35,5.85-8.05,0-3.5,3.7-5.8,21-12.7,31.4-20.4,18.2-13.5,24.5-27a4.214,4.214,0,0,0-.65-4.1q-1.5-2.2-4.25-.95a43.477,43.477,0,0,0-6.35,3.5q-3.6,2.3-16.4,12.25-12.85,9.9-29.75,23.7a28.637,28.637,0,0,1-7.4,4.65,11.427,11.427,0,0,1-6.2.85,39.875,39.875,0,0,0-5.55-.6q-2.751-.15-7.05-.1a27.161,27.161,0,0,0-9.25,1.8q-4.95,1.8-12.55,5.4M8.017,65.6a4.028,4.028,0,0,1-4.4-3.8q-.55-3.75,8.9-7.9,9.45-4.2,13.1-5.45a22.856,22.856,0,0,1,6.5-1.45,48.645,48.645,0,0,1,6.5.15q6.45.649,7.95.75,2.9.1,2.7,2.3a4.633,4.633,0,0,1-2.3,3.4q-17.9,13.7-38.95,12m93.75-56.2q5.049-4.4,8.5-5.25t3.35.45a6.179,6.179,0,0,1-1.15,2.75q-8.3,12.35-24,23.85-2.9,2.2-28.7,18.7a18.723,18.723,0,0,0-4.4,3.8,8.923,8.923,0,0,0-1.8,5.5,5.4,5.4,0,0,1-1.7,3.3,27.347,27.347,0,0,1-13.4,8.1,53.156,53.156,0,0,1-15,1.7,35.977,35.977,0,0,1-15.2-3.5q24.7.2,40.3-12.9a15.889,15.889,0,0,0,3.5-5.3q1.7-3.8,3.7-5l46-36.2"/></svg>