<svg overflow="visible" width="100%" height="100%" viewBox="0 0 116.104 92.27" xmlns="http://www.w3.org/2000/svg"><path d="M22.05,4.646a14.4,14.4,0,0,0-4.8,8.15q-1.151,5.051,2.85,7.25,7.2,3.3,8.7,4a38.987,38.987,0,0,0,9.4,2.4q25.5,2.3,42.5,8.9,5.1,2.1,15.4,6.3a39.909,39.909,0,0,1,13.3,9.8,13.647,13.647,0,0,1,4,9.6,13.2,13.2,0,0,1-4.3,9.2,51.239,51.239,0,0,1-7.7,5.4q-2.1,1.2-8.3,4.5l-10.8,5.4a45.153,45.153,0,0,1-8.95,3.3,18.767,18.767,0,0,0-3.25.75.743.743,0,0,0-.5.65,2.15,2.15,0,0,0,.8,1.55,1.92,1.92,0,0,0,2.2.25l3.7-1.2q12.2-4.3,29.7-14.8a25.2,25.2,0,0,0,7.4-6.4,14.267,14.267,0,0,0,2.7-8.8q.1-5.5-2.3-8.8a38.98,38.98,0,0,0-15.6-12.6q-15.2-6.4-17.6-7.3a91.054,91.054,0,0,0-18.5-5q-1.5-.2-9.2-1.8a78.034,78.034,0,0,0-12.45-1.3Q33.651,23.8,25,19.4T23.7,8.1q7.35-6.949,6.35-7.75T27.4.6a47.221,47.221,0,0,0-5.35,4.05M9.4,12.746A96.222,96.222,0,0,1,22,2.446q.851-.5.4-1.75-.45-1.3-5.3,1.75a45.538,45.538,0,0,0-10.2,9.1q-6.6,7.6-6.9,16a61.366,61.366,0,0,0,.6,7.7l.9,7.6a7.134,7.134,0,0,0,3.4,5.4,38.051,38.051,0,0,0,6.1,2.8q.6.2,5.9,2.4a52.181,52.181,0,0,0,6,2q2.651.9,17.4,3.5Q55.05,61.5,61.75,61.7t9.3,2.05q2.55,1.8,2.25,4.1a4.428,4.428,0,0,1-2.8,3.4A109.33,109.33,0,0,1,56.45,75.7q-9.949,2.65-14.05,3.95a4.381,4.381,0,0,0-1.4.9q-.7.7-.6,1.1.3,1.5,2.8.6l1.9-.5q32.1-9.4,35.7-10.4a32.367,32.367,0,0,0,12.2-6.3q4.9-4.2,2.8-9.3-1.8-4.4-7.3-7.6-18.2-10-32.3-12.2l-41.7-6.2q-6.5-.9-8.3-1.4-2.2-.5-2.7-1.6a3.844,3.844,0,0,1,.1-3.1q2.6-7.7,5.8-10.9m40.35,30.3a2.349,2.349,0,0,1-1.85-1.1,5.149,5.149,0,0,1-.3-2.1q0-2.2,2.7-1.8,5.8.8,8.7,1.5a3.059,3.059,0,0,1,2.2,2.2q.5,1.4-.5,1.8-1,.5-4.6.35a48.2,48.2,0,0,1-6.35-.85M48.4,46.4q.45-.4,1.85-.15,6.551.6,9.15.8,2.1.3,2.1,2.7-.1,1.2-.8,1.5a13.3,13.3,0,0,1-2.55-.05q-2.149-.15-5.2-.6a24.683,24.683,0,0,1-4.35-.85,1.285,1.285,0,0,1-.95-1.7,3.3,3.3,0,0,1,.75-1.65M25,34.1q1.249.1,4.7.7t3.7,1.4a10.451,10.451,0,0,1-.25,3q-.3,1.55-3.25.75l-6-1.8q-2.5-.7-2.1-2.8.3-1.3,1.3-1.3a7.548,7.548,0,0,1,1.9.05M31.6,47l-7.7-1.35q-2-.4-2-2.9,0-2,1.8-1.6,5.6,1.6,7.65,2.1a2.633,2.633,0,0,1,2.15,2.6Q33.4,47.2,31.6,47m6.75-2.75q1.55.2,4.2.65,2.651.4,2.6,1.85-.05,1.4-.15,3-.1,1.55-.2,3.2a9.277,9.277,0,0,1-.45,2.55q-.4.9-2.6.6a15.021,15.021,0,0,1-3.7-.9q-1.45-.55-1.5-1.15a9.189,9.189,0,0,1,0-1.35q0-.75.15-4.7.1-3.95,1.65-3.75m.9-2.3a3.077,3.077,0,0,1-2.4-1.15A5.259,5.259,0,0,1,36,38q-.15-1.8,2-1.8a24.954,24.954,0,0,1,4.2.35q2.6.5,2.4,3.8a1.775,1.775,0,0,1-1.9,1.75q-1.751,0-3.45-.15M24,48.4a27.581,27.581,0,0,1,4.45.85,10.992,10.992,0,0,1,4.85,2q1.3,1.15.6,2.35-.75,1.2-6.15-.35-5.449-1.6-4.95-3.8.3-1.1,1.2-1.05m33.75,5.05q3.7.3,4.1,2.45.45,2.1-3.25,2.2a62.741,62.741,0,0,1-9.35-.7q-2.05-.251-1.6-1.7c.067-.233.133-.467.2-.7q.55-1.85,1.8-2a13.491,13.491,0,0,1,2.85,0q1.55.1,5.25.45M14.1,32.246a6.251,6.251,0,0,1,3.5.7q2.149.9,1.75,2.05a4,4,0,0,1-.8,1.35q-.4.3-3-.15t-2.75-2.25a1.44,1.44,0,0,1,1.3-1.7M3.7,34.9q.45-1.6,4,.2A4.19,4.19,0,0,1,10.35,39q.05,1.65-2.5,1-3.049-.8-3.7-1.95A3.69,3.69,0,0,1,3.7,34.9m1.7,8.65q1.6-1.3,5.55.3,3.95,1.55,5.7,2.35a7.466,7.466,0,0,1,2.65,1.75q.9,1,.1,1.7t-3.4,0a37.218,37.218,0,0,1-8-2.7q-4.2-2.1-2.6-3.4m13.8-2q.6,2.6-1.9,2.2a4.153,4.153,0,0,1-2.7-1.4,7.667,7.667,0,0,1-.65-2.6q-.25-1.8,1.05-1.45a14.54,14.54,0,0,1,2.1.65,3.385,3.385,0,0,1,2.1,2.6m45,1.2q0-1.2,1.5-1.4a3.8,3.8,0,0,1,3.2.8,3.692,3.692,0,0,1,1.4,2.9l-.05,5.6q-.1,1.45-2,1.6H67.2a2.7,2.7,0,0,1-2.1-.9,5.167,5.167,0,0,1-.75-3q-.049-2.3-.1-3.4-.049-1.5-.05-2.2m9.3,3.95q.049-2.449,1.95-1.65A8.928,8.928,0,0,1,77.2,46a2.1,2.1,0,0,1,1,1.5q0,.8-.1,3.45l-1,13.4q-.15,2.6-1.2,1.05-.851-1.249-1.4-2.15a10.456,10.456,0,0,1-1.6-4.3q.1-3.7.6-12.25m-6.1,12.25q-2.75-.5-2.8-.75a4.836,4.836,0,0,1-.35-2.25Q64.15,54,66.8,54.3a26.1,26.1,0,0,1,3.15.4q.5.1.35,2.4-.2,2.3-2.9,1.85M83.45,64.8a3.533,3.533,0,0,1-2.3,3.3q-2.05.75-1.25-6.6a86.007,86.007,0,0,0,.5-13.45q4.4-.2,3.85,7-.6,7.2-.8,9.75m2.95-.5q.5-5.351,1.5-13.25,7.6,6.2,4.8,10.3-1.2,1.55-6.5,4.5.1-.6.2-1.55"/></svg>