<svg overflow="visible" width="100%" height="100%" viewBox="0 0 116.371 103.3" xmlns="http://www.w3.org/2000/svg"><path d="M50.338,2.893q-2-4.5-6.5-2a38.63,38.63,0,0,0-15,15.5,102.749,102.749,0,0,0-6,13.6q-1.2,3.5-4.6,14.1-1.4,4-5,4.7a11.123,11.123,0,0,0-8.5,6.8,32.9,32.9,0,0,0-4.7,12.9q-.5,5.5,5.6,8a17.552,17.552,0,0,0,10.9.9,7.208,7.208,0,0,1,2.2-.3,1.922,1.922,0,0,1,1.8,1.2q2.1,4.6,7.9,8.7,2.1,1.3-.2,2.6l-8.8,4.6q-3.1,1.5-2.8,4.2a4.02,4.02,0,0,0,3.5,3.8,55.219,55.219,0,0,0,10.2,1.1q6-.4,17.8-1.8a59.762,59.762,0,0,1,17.7.7,36.194,36.194,0,0,0,6.6.7q3.7-.1,5-1.25a14.982,14.982,0,0,1,3.35-2.25,32.073,32.073,0,0,1,3.65-1.75,8.6,8.6,0,0,1,3.2-.75q1.6-.1,4.95,1.85,3.3,1.9,12.15.25,8.8-1.7,11.2-11.4a16.822,16.822,0,0,0-1.3-11.1q-2.8-6.1-7.7-7.2-3.5-.7-5.3-1a21.888,21.888,0,0,0-5.3-.3,18.079,18.079,0,0,1-5.2-.2,11.424,11.424,0,0,1-4.8-1.4q-18.4-11.5-36.8-3.6a5.878,5.878,0,0,1-4,.5,6.875,6.875,0,0,1-3.4-2.3,73.037,73.037,0,0,0-6.6-7.1,18.175,18.175,0,0,0-9.3-4.2,284.648,284.648,0,0,0,19.7-26,53.259,53.259,0,0,0,5.2-10.1q1.7-4.7-.8-10.7m-3.6.6a4.963,4.963,0,0,1,1.5,2.7q.1.5.5,2.75.4,2.2-1.2,6.2a33.275,33.275,0,0,1-4.2,7.5q-2.6,3.45-8.7,12.45a69.73,69.73,0,0,1-10.8,12.4q-2.9,2.7.9,4.5a34.038,34.038,0,0,1,7.3,3,16.719,16.719,0,0,1,5.7,5.3,13.143,13.143,0,0,0,1.4,1.4,10.7,10.7,0,0,1,1.3,1.5q3.4,5,9.5,2.4,6.4-2.7,18.5-3.3a8.808,8.808,0,0,1,3.3.6q2.6,1.1,7.9,3.1a20.8,20.8,0,0,1,7,4.5q2.3,2-.15,6.4a14.55,14.55,0,0,0-2.2,8.3,24.367,24.367,0,0,0,1.15,6.25,7.239,7.239,0,0,0,.7,1.5q.8,1.2-.55,1.6-1,.349-2.75,1a37.263,37.263,0,0,0-6.8,3.25l-1.6.9a2.218,2.218,0,0,1-1.5.5q-9-.9-15.2-2-3.2-.6-1.2-3.7,3.2-4.9,7.8-5.7a4.046,4.046,0,0,0,2.4-1.1,4.422,4.422,0,0,0,.9-2.3,15.945,15.945,0,0,1,3.7-8.2q3.1-3.6,5.7-4.2,2.55-.6,3.1-1.9a.747.747,0,0,0-.35-1.05,3.372,3.372,0,0,0-2.3-.05,13.828,13.828,0,0,0-3.65,1.3q-5.2,2.9-8.1,10.4a9.366,9.366,0,0,1-4.1,5,23.392,23.392,0,0,0-5.5,3.7,10.034,10.034,0,0,0-3.1,5.9,1.985,1.985,0,0,1-1.2,1.7,6.3,6.3,0,0,1-2.1.5q-9.2,1.1-13.8,1.4a72.387,72.387,0,0,1-11.3.25,12.545,12.545,0,0,1-4.25-.9q-.9-.55-.65-1.15.6-1.2,9-5.6,6.2-3.3,2.5-7-2.8-2.3-4.1-3.5a18.842,18.842,0,0,1-3.5-4.1,8.1,8.1,0,0,0-2.9-3.2,6.9,6.9,0,0,0-4.4-.2,14.477,14.477,0,0,1-11-1.4q-3.7-2.3-2.1-8.1a52.2,52.2,0,0,1,4-8.6q2.5-4.4,6.6-4.8,5.2-.5,7-6.5,3-9.5,4.4-13.4a92.049,92.049,0,0,1,6.75-14.75q4.1-7.35,7.85-10.1,3.75-2.8,4.85-3.5a1.556,1.556,0,0,1,2.05.15m41.4,76.5a14.1,14.1,0,0,1,8.6-9q4.8-1.5,10.2,1.9,5.2,3.3,6.4,8.1,1.6,7.2-3.4,12a14.379,14.379,0,0,1-10.8,4.1,18.641,18.641,0,0,1-5.9-1.3,7.435,7.435,0,0,1-3.9-3.3,14.232,14.232,0,0,1-1.2-12.5"/></svg>