<svg overflow="visible" width="100%" height="100%" viewBox="0 0 78.92 116.263" xmlns="http://www.w3.org/2000/svg"><path d="M75.2,18.159q-6.2-10.3-15-14.7-8.5-4.2-20.3-3.3A44.487,44.487,0,0,0,15,9.059q-12,8.8-14.1,22a42.124,42.124,0,0,0,1.3,22.2q4.2,11.9,14.8,15.7,3.95,1.9,6.6,3t3.6,1.45a1.572,1.572,0,0,1,1.05,1.3q.1.9.2,2.35.15,1.451,3.75,1.35,3.549-.1,5.15-.2,1.55-.1,1.95.9.4.95.25,9.25-.2,8.3,0,18.2.15,9.9,3.85,9.7t5-1.8q1.3-1.6-1.05-13.5t-3.7-17.5q-1.4-5.651,1.15-5.55a9.685,9.685,0,0,0,3.9-.55,2.412,2.412,0,0,0,1.55-1.95,25.48,25.48,0,0,0-.05-3.5q-.15-2.2,3.15-6.1,3.249-3.951,11.95-9.35a21.654,21.654,0,0,0,7.3-7.6,54.492,54.492,0,0,0,4.4-9.7q4.6-10.5-1.8-21m-11,15.9q-.2-12.4-9.4-18.8-9.6-6.6-18.1-5.4-20.1,2.8-25.75,13.65-5.7,10.8-5.4,15.9a35.021,35.021,0,0,0,1,7.4q.65,2.3,5.55,10.05a20.981,20.981,0,0,0,13.85,9.65q8.949,1.9,11.4,1.8,2.4-.15,4.75-.3,2.349-.1.8,1-1.851,1.249-5.8,1.3-4,.049-6.75,0a19.736,19.736,0,0,1-5.5-.9q-2.751-.851-7-2.5a21.276,21.276,0,0,1-8.25-6.35,33.85,33.85,0,0,1-5.7-10.9q-3.1-9,.4-21.9,5-17.6,27.3-23.4t35.1,7.5a24.927,24.927,0,0,1,8,12.5,25.123,25.123,0,0,1-.7,14.8,29.59,29.59,0,0,1-13.8,17.4l-2.9,1.9q-7.6,5.1-10.1,5.9-2.8,1-11.3,1.3a25.9,25.9,0,0,1-16.5-5.6,27.906,27.906,0,0,1-10.35-16.45q-2.5-10.5,5.6-19.85a31.906,31.906,0,0,1,21.15-10.9,25.188,25.188,0,0,1,16.9,4.4,20.242,20.242,0,0,1,8.7,15.5q.9,9.5-4.5,15.4-5.6,6.1-15.2,5.2a70.807,70.807,0,0,1-12.9-2.9,11.454,11.454,0,0,1-6.4-4.5,14.982,14.982,0,0,1-2.65-7.75q-.451-7.151,8.55-9.55a46.567,46.567,0,0,1,14.9-1,3.168,3.168,0,0,1,2.7,1.5,2.731,2.731,0,0,1-.5,3,58.9,58.9,0,0,1-5.6,6.3,7.109,7.109,0,0,1-4.15,1.8q-2.2.15-2.8-.5a1.3,1.3,0,0,1-.35-1.45,3.973,3.973,0,0,1,1.05-1.5,3.458,3.458,0,0,1,1.85-1,4.923,4.923,0,0,0,1.55-.6q.349-.35,0-1.15a1.446,1.446,0,0,0-1.4-.9,17.933,17.933,0,0,0-4.1.7q-3.051.7-2.25,4.9a5.18,5.18,0,0,0,5.1,4.5q4.25.349,6.6-1.85a45.675,45.675,0,0,0,4-4.2q1.6-2.051,3-3.95a5.014,5.014,0,0,0,.7-5.3,4.5,4.5,0,0,0-4.3-2.8q-30.8-2.2-26.4,15.85,2.6,10.65,13.3,13.35t18.2.9q7.5-1.8,11.2-6.85t3.6-14.35m-24.75,42.15q-7.451.15-6.75-1.55t7.25-2q6.549-.351,6.75,1.5t-7.25,2.05m2.75,19.25q-.2-7.1,1.45-.05,1.7,7.35,2.85,14.6.6,2.95-1.8,3.25-1.4.2-1.65-.6a37.539,37.539,0,0,1-.5-5.35q-.25-4.549-.35-11.85"/></svg>