<svg overflow="visible" width="100%" height="100%" viewBox="0 0 114.871 75.87" xmlns="http://www.w3.org/2000/svg"><path d="M69.708,1.756a8.2,8.2,0,0,0-3-1.6,7.782,7.782,0,0,0-4.3.4,6.34,6.34,0,0,0-2.35,1.5,5.042,5.042,0,0,0-1.35,1.7,7.342,7.342,0,0,0-.5,3.2,6.527,6.527,0,0,0,.85,3.3,3.129,3.129,0,0,0,2.7,1.4q4.4.4,6.6-1a5.37,5.37,0,0,1,2.7-1,11.645,11.645,0,0,1,2.8.2,42.1,42.1,0,0,1,9.7,2.7q3.2,1.2,9.4,4l19.1,8.1a2.546,2.546,0,0,0,2.2,0q1.251-.5-.05-1.6a6.345,6.345,0,0,0-2.1-1.35q-.8-.2-15.75-6.8-15-6.651-23.2-8.35a7.928,7.928,0,0,1-1.75-.6q-.551-.351-.45-1.7a2.972,2.972,0,0,0-1.25-2.5m-2.95,1.55a1.162,1.162,0,0,1,.9.6,7.924,7.924,0,0,1,.4,1.7,2.42,2.42,0,0,1-.3,1.9,4.773,4.773,0,0,1-1.9,1.25,10.681,10.681,0,0,1-2.9.3,2.806,2.806,0,0,1-1.15-.3q-.649-.351-.8-2.65-.15-2.351,2.45-2.65a13.807,13.807,0,0,1,3.3-.15m-45.2,41.35a16.263,16.263,0,0,0,0,1.8q.051,1.05.2,4,.1,2.9.9,8.9,1,8.3,1.1,9.8.4,4.3,1.6,5.4,1.1,1,5.3,1.2a126.989,126.989,0,0,0,18.4-.6q5.4-.6,18.1-2.5a105.472,105.472,0,0,0,21.5-5.8q4.7-1.5,5.1-7.4-.1-7-.1-10.15t-.4-7.25a62.24,62.24,0,0,1-.3-7.4q-.049-1.9-.2-3.1a5.866,5.866,0,0,0-2.05-3q-1.9-1.851-9.1-2.85t-20.95-.1a64.333,64.333,0,0,0-25.5,6.8q-11.7,5.9-12.65,8.7a15.886,15.886,0,0,0-.95,3.55m2.65-1.2q-.8-1.451,9.75-7.65,10.55-6.25,25-7.55,14.4-1.3,18.8-.65,4.35.649,5.3.9a17.325,17.325,0,0,0,2.05.4,14.391,14.391,0,0,1,2.8.8,2.75,2.75,0,0,1,2,1.95,2.209,2.209,0,0,1-.3,2.1,15.569,15.569,0,0,1-3.75,2.35,54.449,54.449,0,0,1-5.95,2.7q-2.95,1.05-5.6,1.9-2.651.8-8.45,2.25t-18.3,1.9q-12.5.4-17.55.25-5.051-.2-5.8-1.65m36.45,2.7q5.2-.3,15.2-3.4a42.83,42.83,0,0,0,13.7-5.9q1.3-.9.6.8-2.2,5.9-7.5,22.9-.4,1.6-1.1,1.8a2.768,2.768,0,0,1-2-.6,46.356,46.356,0,0,1-9.8-6.9q-5.7-5.5-9.1-8.7m-32.6,1h25.5q2.7,0,1.7,2.6-1.3,4-5.8,20.3a35.97,35.97,0,0,1-12-9.9q-6.1-8.5-9.4-13m52.4,18.1q1.9.649-.3,1.3a67.513,67.513,0,0,1-12.8,3q-7.9,1.149-12,1.9t-3.35-1.8q.75-2.6,1.05-3.5l5.6-18.2q3.6,3.4,10.3,9.9a39.745,39.745,0,0,0,11.5,7.4m-34.1,6.4q1.6,1-.6,1h-16.6q-1.9,0-2.2-2.1-1-7.3-1.5-11a50.973,50.973,0,0,1-.3-11.3q3.4,4.1,9.6,12.7a43.745,43.745,0,0,0,11.6,10.7m43.8-25.8q1-2.451,1.1.2v12.1q-.1,3.4-1.3,4.5t-5.7,1.8l5.9-18.6M.408,43.106q-1,1.249.45,2.65,1.151.95,13.3-11.65,12.1-12.651,14.4-14.85a13.436,13.436,0,0,1,2.1-1.7,4.818,4.818,0,0,1,2.9-.7q4.3.1,5.6-3.6t-1.1-5.3a5.43,5.43,0,0,0-4.65-.95q-2.25.649-3.25,3.65a16.177,16.177,0,0,1-2.7,5.2,56.157,56.157,0,0,1-4,4.3l-20.7,20.5a16.023,16.023,0,0,0-2.35,2.45m33.45-29q-2.149-.4-1.15-2.65.951-2.25,2.75-1.7,1.8.5,1.2,2.65a2.205,2.205,0,0,1-2.8,1.7"/></svg>