<svg overflow="visible" width="100%" height="100%" viewBox="0 0 115.65 55.947" xmlns="http://www.w3.org/2000/svg"><path d="M45.85.007q-1.2.1-1.7,1.6-1.1,3.6-.55,11.05.1,1.05.2,1.8a4.745,4.745,0,0,0-1.55,1.55,8.932,8.932,0,0,0,.1,3.5l1.2,7.1q-6-3.3-15.5-9.3-11.6-7.2-15.4-9.5-2.9-1.7-3.9-1.3t-1.8,3.6l-6.5,25.3q-.9,3.7,0,5.1a2.026,2.026,0,0,0,2.6.7q.9-.3,2.8-1l.9-.3q4-1.2,5-.8,1,.3,3,3.7,1.2,1.9,2.3,2.1t2.8-1.2q1.8-1.7,2.7-2.5a2.743,2.743,0,0,1,3.2-.6q2.5,1.9,3.3,1.9t3-1.8a10.337,10.337,0,0,1,1.9-1.6q4.4-2.5,7.1-.4,1.8,1.5,3.9,6.4a46.408,46.408,0,0,0,3.6,7.6,6.815,6.815,0,0,0,6.5,3.2,9.681,9.681,0,0,0,7.9-3.3,24.372,24.372,0,0,0,4.3-7.8q.9-1.6,1.1-1.5a5.753,5.753,0,0,0,3.9-1.4,34.339,34.339,0,0,0,3.1-2.7q.9-.7,3.2,0a5.646,5.646,0,0,1,1.8,1.7q2.2,2.1,3.3,1.9.9-.2,2.3-3.1l3.4-7.8q6.1,3.2,17.7,9.7,3.9,2.1,5.4,1.4,1.6-.6,2.3-4.9a59.274,59.274,0,0,0,.8-14.3q-.7-9.5-1-14.3-.3-4.7-4.7-2.6-12,5.8-18.1,8.6a141.15,141.15,0,0,1-18.7,7.3q-2.5.9-2.9-1.5a9.785,9.785,0,0,0-3.45-5.75q2.1-8.35.35-13.35-.1-.3-1.2-.5-1-.3-2.25,1.5-1.249,1.75-3.5,5.65a21.508,21.508,0,0,0-1.4,2.7,25.83,25.83,0,0,0-5.85-.85q-3.2-6.4-5-9.5a2.1,2.1,0,0,0-2-1.2m-36.7,13q.7-2.6,1.2-2.8.6-.2,2.9,1.2l27.8,17.3q2.5,1.6,3.9,0a4.021,4.021,0,0,0,1.1-3.2,21.065,21.065,0,0,0-.6-3.6q-.7-3.5-.1-4.6.5-1.1,3.8-2.7a9.8,9.8,0,0,1,8.6-.4q5.7,2.4,5.9,2.5a7.367,7.367,0,0,1,3.8,4.9,1.71,1.71,0,0,1-.1.95,5.659,5.659,0,0,1-.55,1.1,1.7,1.7,0,0,1-1,.65q-.75.2-.55,1.2a1.7,1.7,0,0,0,1.45,1.3,5.2,5.2,0,0,0,3.05-.4,113.672,113.672,0,0,0,21.1-7.4q6.8-3.1,20.7-9.7.5,5,1.4,14.4a56.573,56.573,0,0,1-.6,13.8q-.4,2.2-1.2,2.5-.7.3-2.8-.8l-15.9-9q-2.6-1.5-3.7-1.1-1.1.3-2.4,3-1.3,2.6-3.2,7.1a18.978,18.978,0,0,0-5-3.3,4.415,4.415,0,0,0-5.1,1.5l-2.2,2.2a3.951,3.951,0,0,1-3.1.7q-1-.2-2.3,2.2-1.2,2.1-3.3,6.7-2.3,3.7-5.35,3.85a9.31,9.31,0,0,1-4.4-.6q-1.3-.7-2.55-4.6a57.579,57.579,0,0,0-4.45-9.6q-3.7-4.05-5.85-3.65-2.3.5-3.4.8a22.841,22.841,0,0,0-3.8,1.8q-3.1,1.7-3.8,2l-.8-.7q-1.9-2.1-2.8-2.2-.9,0-3.1,1.9l-3.9,3.6a9.381,9.381,0,0,1-1.3-1.5q-2.3-4-3.5-4.5-1.1-.4-5.7,1l-2.4.7q-2.6.7-1.4-3.5l5.5-21m56.35-5.8q.049,1-.05,3-.35,3.949-.6,4-.649-.4-1.4-.8a17.853,17.853,0,0,0-2.45-1.1,35.079,35.079,0,0,1,3.35-5.2q1.1-1.85,1.15.1m-16.35,3q-.15.8-2.35,2.3a10.486,10.486,0,0,1-.7-3.6,40.308,40.308,0,0,1-.25-4.8q3.6,4.6,3.3,6.1m9.85,9.9q-.2,1,1.25,1.2a2.1,2.1,0,0,0,.7-1.5q.15-1.2-1.5-1.1a3.947,3.947,0,0,0-.45,1.4m-9.45-1.9q-.8.9-.65,1.4t1.25.55a1.157,1.157,0,0,0,.7-1.05q.05-.8-1.3-.9m11.35,7.9a.951.951,0,0,0,.65-1.1,1.132,1.132,0,0,0-1-1,51.4,51.4,0,0,0-6.1-.9q-3.35-.3-3.8.05a.944.944,0,0,0-.45.7.908.908,0,0,0,.3.65,6.9,6.9,0,0,0,.6.45,26.553,26.553,0,0,0,2.8.75,21.489,21.489,0,0,0,4.35.65,9.851,9.851,0,0,0,2.65-.25"/></svg>