<svg overflow="visible" width="100%" height="100%" viewBox="0 0 69.664 116.772" xmlns="http://www.w3.org/2000/svg"><path d="M7.9.572a2.767,2.767,0,0,0-.5,1.05A12.966,12.966,0,0,0,7,4.472q-.2,2.151-.2,2.95a127.764,127.764,0,0,1-.9,15.6q-.6,5.2-1.9,15.5-1.7,14.2-2.5,36.4-1.2,31.3-1.5,36.4a4.491,4.491,0,0,0,.7,2.9,4.214,4.214,0,0,0,2.8.9,52.49,52.49,0,0,0,18.5-2.2,4.844,4.844,0,0,0,3.7-5l.4-6q2.3-33.7,2.6-40.5.1-10.4.1-15.5a39.554,39.554,0,0,1,2.15-13.35q.8-2.2,1.6.35a19.273,19.273,0,0,1,.65,3q1,9.2,2.8,27.6,1.7,16.3,3.5,27.5.4,2.6,4,14.55,1.6,5.25,2.5,8.2t1.75,3a9.241,9.241,0,0,0,2.3-.45l16.65-4.2q3.4-1,2.9-4.4-.7-5.4-3.2-21.6-2-13.4-2.9-21.5-.2-4.3-.75-23.4t-.55-22.65q-.05-3.549-.1-5.05-.1-1.5-.5-7.2T52.5.422q-10.45-.5-19.2-.4H15.5a54.616,54.616,0,0,0-6.25.25,2.384,2.384,0,0,0-1.35.3M31,2.772q6.85,0,11,.2a9.479,9.479,0,0,1,6.3,2.3,22.962,22.962,0,0,1,3.45,3.9q1.249,1.75,4.2,6.35,2.9,4.551,2.95,5.85l1.5,39.55q1.6,15,6.4,44.7a5.279,5.279,0,0,1-.2,2.7q-.5,1-4.75,1.8t-9.45,2.25a18.8,18.8,0,0,0-2,.6,1.877,1.877,0,0,1-2.45-1.2q-1.2-3.8-2.5-8.45-1.751-6-2.85-10.4a64.714,64.714,0,0,1-2.2-13.5q-3.2-29.9-4.6-44.8a10.273,10.273,0,0,0-2-4.95q-1.7-2.2-2.6-2.3-.9-.15-2.75,4.25a25.085,25.085,0,0,0-2.05,8.5l-1.9,48.6q-.3,6.1-1.4,18.3a4.265,4.265,0,0,1-3.2,3.7,38.889,38.889,0,0,1-13.2,1.6q-2.9-.1-3.4-.6t-.4-3.3q1-17.5,1-26.3-.1-12.2,1.3-28,.5-5.6,2.9-27.9.1-.9,1.15-7.7L20.6,6.622q1.35-1.4,2.45-2.65T31,2.772M9.1,7.322a10.761,10.761,0,0,1,.4-3.5q.5-1.4,4-1.3,1.75-.049,3.2-.05a4.619,4.619,0,0,1,2.2.4q.649.351-1.4,2.4-2.1,2-4.65,4.9T9.1,14.422v-7.1m45.2.55A22.542,22.542,0,0,0,50,3.422q6.551.3,7.25,1.1t1.15,8.95q-2.8-3.649-4.1-5.6m-19.6.3a22.793,22.793,0,0,0-.1-3.7q-.2-.6-1.45-.35-1.249.2-1.35,3.95t0,6.4a10.591,10.591,0,0,0,.35,3.05.708.708,0,0,0,.7.45,1.9,1.9,0,0,0,1-.35q.55-.349.65-3.35.1-3.049.2-6.1"/></svg>