<svg overflow="visible" width="100%" height="100%" viewBox="0 0 93.344 116.062" xmlns="http://www.w3.org/2000/svg"><path d="M38.584,4.2a24.212,24.212,0,0,1-8.9,1.8h-1.9q-2.2.1-1.9,4.15.25,4,2.8,4.85a7.8,7.8,0,0,0,4.85-.3q2.95-1,2.9.8-.1,1.8-.35,5.05a4.557,4.557,0,0,1-2.95,4.25q-2.651,1-4.75,1.75t-3.2,1.05a26.712,26.712,0,0,0-11.6,7.7,57.92,57.92,0,0,0-7.6,11.4,52.084,52.084,0,0,0-5.6,30.5q1.9,16.7,13.9,27.4,10.7,10.6,26.5,11.4a42.05,42.05,0,0,0,27.8-8.2,109.036,109.036,0,0,0,13.4-12.4,43.7,43.7,0,0,0,11.2-25.9,44.428,44.428,0,0,0-6.6-27.5,48.269,48.269,0,0,0-10.45-11.85q-2.2-1.849-4.65-3.65a35.158,35.158,0,0,0-14.5-6.3q-4.85-1-12.7.9a63,63,0,0,0-.8-6.4q-.7-5.3,4.3-7.2a7.584,7.584,0,0,0,2.7-2.2q2-2.4.6-4a2.717,2.717,0,0,0-3.9-.8,93.618,93.618,0,0,1-8.6,3.7M36.384,7a24.578,24.578,0,0,0,7.5-2.95q3.65-2.1,4.65-.75.95,1.35-2.65,3.3-3.65,1.9-6.45,3.35a41.6,41.6,0,0,1-6.65,2.55q-3.9,1.1-4.5-2.7-.049-1.1,2.1-1.55,2.1-.45,6-1.25m29,25.8q-4.8-5.3-7-7.75-1.6-1.751,1.15-1.1,1.35.35,3.15.85a37.032,37.032,0,0,1,6.6,3,26.357,26.357,0,0,1,4.65,3.25q1.549,1.451,3.3,3a32.232,32.232,0,0,1,3.9,4.15q7.8,9.5,9.15,26.3,1.2,15.5-11.3,29.7-1.3,1.5-3.7,4.6a18.669,18.669,0,0,1-1.85,1.8q-3.3,2.4-1.25-1.4l4.1-8.4a47.8,47.8,0,0,0,4.2-24.2,54.063,54.063,0,0,0-7.2-23.5,75.164,75.164,0,0,0-7.9-10.3m-9.2-2.3q-3.8-8.4,4.85.9a66.731,66.731,0,0,1,13.35,21.45,43.844,43.844,0,0,1,2.15,24.9q-2.55,12.75-5.5,17.9-3,5.1-3.6,6.3-.649,1.2-1.55,2.55a15.44,15.44,0,0,1-2.5,2.8,11.73,11.73,0,0,1-3.65,2.25,1.96,1.96,0,0,0-.25.1q-3.35,1.4-1.75-1.45l4.35-9q6.3-12.8,3.4-31.5-3.1-17.5-4.3-23.15a75.035,75.035,0,0,0-5-14.05m-2.8-.4a41.394,41.394,0,0,1,5,14.1q1,5.9,3,17.5,1.7,10.3,2.3,17.7a37.949,37.949,0,0,1-2.1,13.9,72.887,72.887,0,0,1-6,12.7,20.83,20.83,0,0,1-4.1,5.25q-2.2,1.95-3.7,1.65t-1.75-.85a1.456,1.456,0,0,1-.15-.95q.3-2,1.3-6.8,7.2-25.1,4-43.9-1-6.9-2.9-17.1-.349-3.65-1.05-7.85a50.211,50.211,0,0,0-1.25-6.25q-.6-2.051,1.35-4.3,1.9-2.3,6.05,5.2m-13.5-17.3q1.05-.05,1.4,1.55.3,1.55.85,7.25-1.7.45-3.55,1.05a12.976,12.976,0,0,0,.4-3.65q0-2.351-.05-3.2,0-.851-.05-1.9-.1-1.05,1-1.1m-10.2,19.35q2.3-1.5,1.85,1A73.544,73.544,0,0,0,30.284,41q-.1,6.7-.8,20.1a106.719,106.719,0,0,0,1.1,20q1.3,8.2,7.6,22.3.15.349,3.6,7.05,1.1,2.35-.55,2.55a5.279,5.279,0,0,1-2.05,0q-1.65-.15-3.2-.4a5.432,5.432,0,0,1-2.95-1.9q-1.95-2.351-6.35-6.85-6-6.15-8.9-19.25-5.2-23.5,4.8-44.5a19.839,19.839,0,0,1,7.1-7.95m5.85-.85q2.4-5.951,5.05-3.2,2.6,2.7,6.2,20.4a145.553,145.553,0,0,1,2.5,29.1,88.172,88.172,0,0,1-2.3,16.4q-.95,4.35-2.8,12.05-.6,2.45-1.65,0-1-2.3-2.65-5.85-1.5-3.1-2.2-4.9-5.9-13.3-5.8-23.05.1-9.8.45-16.2.349-6.45.55-12.65a34.515,34.515,0,0,1,2.65-12.1m-12.9.8q2.749-1.151,1.55.6a49.5,49.5,0,0,0-9.5,21.3,73.324,73.324,0,0,0-.7,25.7q1.4,16.1,10.45,26.1l3,3.25q2.25,2.25-.85.75a40.3,40.3,0,0,1-15.5-13q-10.9-14.7-7.7-31.6,4.9-26.55,19.25-33.1"/></svg>