<svg overflow="visible" width="100%" height="100%" viewBox="0 0 116.623 112.174" xmlns="http://www.w3.org/2000/svg"><path d="M84.813.492q-1,.7-1.5,4.1-.8,5.6-1.9,16.8-.4,3.4-1.35,4.05t-3.9.2q-2.95-.45-8.951-1.35t-11.6-1.3a4.952,4.952,0,0,0-3.5.8,6.287,6.287,0,0,0-1.4,3.4l-2.9,20.6q-.5,3.8-1.2,4.3t-4.6-.2q-8.6-1.9-10.7-2.2-4.3-.7-5.7,1.7-.9,1.7-.7,6.4.3,6.8.8,14.1.1,3.9-1.1,4.4-.7.3-5.7-.6a63.1,63.1,0,0,0-12.8-1.1,5.281,5.281,0,0,0-3.1.8,4.6,4.6,0,0,0-1,3l-1.9,22.2q-.15,4.3-.1,5.3-.148.4,5.4,1.2,13.9,1.9,21.2,2.2,5.3.1,47.7.4a149.446,149.446,0,0,1,16.1.8q5.3.5,16,1.6,3.1.3,4-.5.9-.9,1.1-4.1,1.2-14.8,1.8-22.2,1-13.4,1.5-22.3.7-13.3,1.8-53.1.1-3.1-.8-4.2-.8-1.2-3.6-1.7-13.2-2.4-23-3.8-3.3-.5-4.4.3m.9,5.9q.3-2.8.9-3.2.6-.5,3.4-.1,13.2,2.1,20.6,3.5,2.6.5,3.2,1.2.5.7.4,3.4-.2,6-.6,17.9-.9,32.3-4.5,74.7-.4,4.3-1.3,5-.8.6-5.4.1-20.8-2.1-27.2-2.2-7.1-.3-28.3-.2a281.649,281.649,0,0,1-28.3-.8l-12.8-1.7q-1.851-.2-2-.45a2.26,2.26,0,0,1-.2-1.15q-.051-.9.2-6.45.2-5.55.4-10.85.2-6.2,1.5-7.2,1.2-1.1,7.4-.4,1.5.2,5.1,1a43.815,43.815,0,0,0,5.1,1q3.1.5,4.3-1.9a8.912,8.912,0,0,0,.6-5.2l-.4-16.4q-.3-3.1,2.1-3.4a24.413,24.413,0,0,1,4.8.7l10.2,2.2q2.6.5,3.6-.2a4.923,4.923,0,0,0,1.5-3.3l3-21.1q.5-3.6,1.2-4.3.8-.8,4.2-.4,4.5.4,18.2,2.5,3.8.5,5.2-.6,1.5-1.2,1.9-4.9l2-16.8"/></svg>