<svg overflow="visible" width="100%" height="100%" viewBox="0 0 77.464 116.705" xmlns="http://www.w3.org/2000/svg"><path d="M74.845,9.425q-.1-1.4-2.2-3.3-6.3-5.6-17.85-5.9T34.9.025a139.7,139.7,0,0,0-15.85,1.05,73.769,73.769,0,0,0-11.6,2.2Q3.3,4.525,2.545,5.525a2.677,2.677,0,0,0-.7,1.65,24.178,24.178,0,0,0,.8,3.75q2.3,8.6,9.4,19,3.2,4.6,6.9,10.9,1.9,3.2,1.6,5.4-.2,2.1-2.7,4.7a66.163,66.163,0,0,0-14.1,20.9q-5.3,12.7-3.1,24.5,6.4,16.5,25.4,19.3,20.3,3.1,37.1-2.7a20.641,20.641,0,0,0,9.5-7q4.3-5.4,4.7-10.4a33.856,33.856,0,0,0-.55-9.6,47.123,47.123,0,0,0-3.2-9.45,38.27,38.27,0,0,0-5.45-8.75q-3.9-4.2-5.8-6.4-6.2-7.5-6.6-12.5-.4-4.9,4.5-13.4l13.2-22.1q1.6-2.6,1.4-3.9m-19.1-6.5a31.005,31.005,0,0,1,7.3.7,13.852,13.852,0,0,1,6.5,3.6q1.5,1.5,1.4,2.3-.1.4-.85.9a23.6,23.6,0,0,1-5,1.45,51.039,51.039,0,0,1-9.8,1.1q-5.649.15-18.65-.75-15-1.3-22.5-1.9a48.263,48.263,0,0,1-5.45-.75q-2.85-.6-1.55-1.6,1.95-1.45,7.95-2.95,5.951-1.5,18.45-2,4.8-.2,22.2-.1m-32.2,43.5q.3-3-2.3-7.3-5.7-8.7-8.4-13A78.763,78.763,0,0,1,6.4,13.675q-.7-1.451,3.05-1.05,22.45,2.4,33.15,3.1a107.466,107.466,0,0,0,18.8-.3q8.1-.95,6.4,2.05-1.749,2.95-5.75,9.65-4.9,8.1-7.2,12.6-5.1,9.7,2,19,2.3,3,7.3,8.8,9.8,10.7,10.3,23.9.6,15-13.7,19.2-15.9,5.5-36,1.8a28.015,28.015,0,0,1-14-6.2,22.712,22.712,0,0,1-7.9-13.2,41.705,41.705,0,0,1,4.2-21.8,67.97,67.97,0,0,1,12.9-18.5q3.3-3.2,3.6-6.3"/></svg>