<svg overflow="visible" width="100%" height="100%" viewBox="0 0 37.435 116.5" xmlns="http://www.w3.org/2000/svg"><path d="M19.86,8.15A1.714,1.714,0,0,1,18.81,9.5q-.9.3-1.2,2.3l-1,8.9q-1.5,18.5-1.7,21.8-.1,3.9-3.8,4-3.9.2-4.9,2.8-.6,1.8-2,5.3a23.743,23.743,0,0,0-1.3,5.5q-.8,11-2.9,49.5-.1,3.3.8,4.4t4,1.3q6.8.4,21.2,1l4,.2q3,0,3.8-.6.7-.7,1.1-3.8,1.5-11.5,2-28.2.2-18.9.5-28.3V52.2a10.11,10.11,0,0,0-1.2-5.8,6.03,6.03,0,0,0-3.75-3.05,4.945,4.945,0,0,1-3.15-1.85,4.67,4.67,0,0,1-.5-3.1q2-19.2,2.3-23.1.349-3.851-.8-5a4.411,4.411,0,0,1-1.35-2.4,20.07,20.07,0,0,1-.25-3.6,5.838,5.838,0,0,0-.9-3.5q-.7-.8-3-.8-2.5,0-3.3.7-.8.8-1.1,3.65-.35,2.8-.55,3.8m4.65.75a1.366,1.366,0,0,1-1.65-.85,8.928,8.928,0,0,1-.25-3.7q.2-2.65,2.05-2.4a2.1,2.1,0,0,1,1.65,1.2A3.512,3.512,0,0,1,26.51,5q-.15.9-.45,2.3a1.892,1.892,0,0,1-1.55,1.6M7.71,73.8a4.773,4.773,0,0,1-1.9-.4,1.519,1.519,0,0,1-.8-1.7q.2-6.4.4-9.6a31.418,31.418,0,0,1,2.2-9.4q1.5-3.8,3.7-3.95a20.128,20.128,0,0,1,3.8.05q2.4.1,2.6-2.7,1.2-15.3,2.1-30.6.2-3.1.7-3.6.6-.6,3.6-.5,3.3.1,4,.9t.2,4.1q-2.2,14.4-2.1,19.55.049,5.15-.1,6.1a6.366,6.366,0,0,0,0,1.95q.1,1.05,1.6,1.2a15.6,15.6,0,0,1,2.95.5,3.868,3.868,0,0,1,2.35,2.1,12.127,12.127,0,0,1,1.4,5.2q.1,6.1,0,18.3a3.918,3.918,0,0,1-.6,2.5,2.978,2.978,0,0,1-2.5.7q-1.9-.1-10.9-.1l-12.7-.6m-3.4,8.5a40.338,40.338,0,0,1,.9-4.5q.7-1.3,4.1-1.1l22.1.7q2.5-.1,2.9,1.9a19.09,19.09,0,0,1,0,4q0,2-2.2,2-8.3.6-12.5.8a68.518,68.518,0,0,1-12.6-.3,3.368,3.368,0,0,1-2.4-1,3.221,3.221,0,0,1-.3-2.5m.4,7.1a2.861,2.861,0,0,1,1.55-.7q.851-.1,7.6.05,6.75.1,13.15-.4,6.4-.55,6.8-.15t.2,2.9l-1.7,19.7q-.1,2.2-.7,2.7-.5.6-2.5.4l-23.1-1.5a4.817,4.817,0,0,1-2.2-.5,2.267,2.267,0,0,1-.8-2.2q.6-12.8,1.1-19.3a1.365,1.365,0,0,1,.6-1"/></svg>