<svg overflow="visible" width="100%" height="100%" viewBox="0 0 114.176 115.031" xmlns="http://www.w3.org/2000/svg"><path d="M100.765,86.3a9.617,9.617,0,0,0-.95-1.95q-.45-.6-1.7.2a31.778,31.778,0,0,0-3.2,2.3q-1.95,1.55-.9,2.25a3.112,3.112,0,0,0,2.9,0,10.48,10.48,0,0,0,2.95-1.55q1.05-.851.9-1.25m-11.8-34.9q-.051-1.25-.75-.8a1.724,1.724,0,0,0-.9.85q-.15.45.55.75,1,.349,1.1-.8m2.9,7.2q-2.05,1.45-2.2,2.25-.2.75.8,2.05.4.75,1.95-.6a3.038,3.038,0,0,0,1.25-2.2q-.15-2.45-1.8-1.5m-23.8-48.2a1.144,1.144,0,0,0-1,1.4,11.018,11.018,0,0,0,.3,2q1.7,6.8,4.9,20.4,2.8,12.2,5.1,20.4a24.7,24.7,0,0,1,.5,10.8q-.4,3.6-1.7,10.8a10.477,10.477,0,0,1-2.7,5.6q-6,6.7-18.1,8-6,.6-17.85.85t-12.7.15l-2.4-.15q-1-.15-5.5-.5a23.3,23.3,0,0,0-8.55.75,29.46,29.46,0,0,0-5.7,2.1q-1.751.949-2.4,4.75-.7,3.75.45,4.9a8.82,8.82,0,0,0,4.15,1.8,5.185,5.185,0,0,1,4.05,3.1q.95,2.45,4.25,2.85,1.3.2,4.2.6a5.839,5.839,0,0,0,3.6-.4,6.474,6.474,0,0,1,5.5-.7,24.679,24.679,0,0,1,4.3,2.4q6.9,4.4,16.8,1.7,3.1-.9,4.2-.6a28.957,28.957,0,0,0,7.2,1.2q2.7.1,7.5-.2,16.1-.9,26.7-6.4a10.272,10.272,0,0,1,4-1.3,7.623,7.623,0,0,1,4.4,1q4.7,2.5,10.3-1.6,3.5-2.3,1.7-8.6-1.2-4.7-3.5-11.4a4.8,4.8,0,0,0-2-2.7,6.742,6.742,0,0,1-3.6-3.7,14.924,14.924,0,0,1-.8-5q-.3-10.5-.5-15.8a114.057,114.057,0,0,0-1.6-15.8,109.391,109.391,0,0,1-1.2-18.3q0-6.1,1.15-18a29.711,29.711,0,0,0,.05-4.55q-.15-2.25-1.3-2.25-1.8-.15-2.3,5.15a185.6,185.6,0,0,0-.2,27.45q.4,8.1,2.4,27.4.3,3.2,1,18.8a5.79,5.79,0,0,0,2.2,4.7,15.437,15.437,0,0,1,6.1,8.3,48.894,48.894,0,0,1,1.5,10.1q.3,2.3-2.6,3-5,1.4-8.4-1.1-2.2-1.5-3.05-1.4a3.408,3.408,0,0,0-1.85.95,6.629,6.629,0,0,1-1.4,1.05l-2.1,1.2a83.4,83.4,0,0,1-11.8,4.45,53.611,53.611,0,0,1-7.5,1.4q-3.4.35-5.95.7a55.269,55.269,0,0,1-9.7-.2q-7.151-.55-7.45-1.45-1.1-1.5-1.9-1.2a2.378,2.378,0,0,0-1.15,1.3,2.851,2.851,0,0,1-2,1.35,2.366,2.366,0,0,1-1.95-.15,2.663,2.663,0,0,1-.5-3.3,13.855,13.855,0,0,0,.85-1.45q.9-2.15-.05-2.45-1.451-.7-2.4.95a33.238,33.238,0,0,0-1.7,4.55,2.062,2.062,0,0,1-2.7,1.7q-2.2-.4-2.5-2.1a11.6,11.6,0,0,1,1.5-5.05,7.863,7.863,0,0,1,1.3-1.95q1-.9.6-1.6a1.445,1.445,0,0,0-1-.85q-.6-.1-2.3,1.9a19.325,19.325,0,0,0-2.5,3.45q-.4.8-1,1.9-.6.7-2,.2-2.9-1.1-1.9-4a18.521,18.521,0,0,1,1.65-2.3q.851-1.05.25-1.75t-2.65.15q-2.05.8-2.45,4.7-.2,3.2-2.4,3.3a14.427,14.427,0,0,1-6-.5q-2.149-.8-.15-2.85,1.95-2.05,2.7-2.7a4.238,4.238,0,0,0,.95-1.75q.5-1.8-1.1-2.25a2.717,2.717,0,0,0-2.95.9q-1.3,1.35-2.75,2.95-1.5,1.55-5.55-.2-4.05-1.8-1.1-5,2.95-3.251,10.65-2.95,7.749.251,8,.3a7.761,7.761,0,0,0,1.2.05l26.7-.7q15.5-.5,25.1-9.8a7.87,7.87,0,0,0,2.5-4.5q1.9-11.4,2.7-17.1a18.944,18.944,0,0,0-.5-4.8q-.8-3.2-1.2-4.8l-9.6-39.4a6.205,6.205,0,0,0-.3-1.6q-.3-1-1.5-.7"/></svg>