<svg overflow="visible" width="100%" height="100%" viewBox="0 0 105.68 116.43" xmlns="http://www.w3.org/2000/svg"><path d="M84.367.477q-.549-.9-3.1-.1-26.6,7.7-39.8,11.9a14.318,14.318,0,0,0-5,2.9q-20.4,19.2-27.1,25.8-6.7,6.549-8.25,8.5a4.03,4.03,0,0,0-.95,3.849q.551,1.9,1.25,5t1.45,7.651q3,14.9,8.4,44.8.8,4.4,2.9,5.4,2.2.9,6.2-1.4a127.128,127.128,0,0,0,13.4-9.4q8.5-6.9,12.4-9.95a11.5,11.5,0,0,1,7.95-2.85q4.05.251,10.35.4a151.7,151.7,0,0,1,16.5,1.3,53.693,53.693,0,0,1,15.9,4.6q2,1.2,3-.1a5.363,5.363,0,0,0,.8-3.5l1.9-26.7q.2-3.6,1.7-23.2,1.2-14.2,1.4-19.95.15-5.8-1.5-6.2a23.927,23.927,0,0,0-3.45-.551q-1.749-.2-5.1-.35-2.249-.1-24.95-2.2-7.9-.849,0-.95h21.9q6.5-.1,6.85-.65a2.7,2.7,0,0,0,.2-1.549q-.1-1.052-3.35-.9h-41.7q-3.1-.05-.1-1,4.8-1.6,14.4-4.2,9.7-2.7,12.4-3.649a12.883,12.883,0,0,0,3.15-1.4q.5-.45-.05-1.349m14.3,21q2.35.2,2.7.25,1.8.05,1.15,7.4-.649,7.3-1.65,23.65-1,16.3-2.5,39.9-.2,2.5-.8,2.9-.5.4-2.7-.6a41.767,41.767,0,0,0-10.1-3.2q-3.7-.7-10.5-1.4-4.3-.4-21.3-.6a4.549,4.549,0,0,1-2.3-.6,2.833,2.833,0,0,1-.9-2.2q-1.4-20.6-2.5-31.8-1.8-17.6-4.6-31.6-1.1-5.7-.3-6.6.9-.9,6.5-.3l49.8,4.8m-61.2-3q1.4-1.15,1.55,0,4.95,25.7,8.05,66.5a11.438,11.438,0,0,1-.8,5.9,11.958,11.958,0,0,1-3.9,4.2q-5.3,3.8-15.6,12.2a76.722,76.722,0,0,1-8.8,5.4q-2.1,1-2.8.7-.6-.4-1.1-2.7l-10.5-56.4a5,5,0,0,1,1.3-4.9l32.6-30.9m-7.5,47.5a1.045,1.045,0,0,0,.6.75q.5.249,2.25-.4a28.859,28.859,0,0,0,4.25-2.1q2.451-1.451,2.1-2.75t-2.95,0q-2.6,1.35-4.55,2.3-2,.9-1.7,2.2m-12.8-15.3a6.863,6.863,0,0,0-3.6-.2q-3,1-4,5.4-.3,1.4,1.05,4.1,1.35,2.649.9,8.349t8.45,1.95q3.2-1.3,4-3.3.8-2.05-1-4.5t-2.8-3.75a3.151,3.151,0,0,1-.1-3.351,3.6,3.6,0,0,0-.3-3.2q-.4-.9-2.6-1.5m-3.5,3.051a2.316,2.316,0,0,1,1.8-.25,2.527,2.527,0,0,1,1.85,3.7,4.833,4.833,0,0,1-1.2,1.65,1.649,1.649,0,0,1-1.5.1,5.519,5.519,0,0,1-1.4-.65,2.24,2.24,0,0,1-.6-2.9,3.6,3.6,0,0,1,1.05-1.649m5.05,8.9a2.806,2.806,0,0,1,1.9.75,2.025,2.025,0,0,1,.35,1.65,3.156,3.156,0,0,1-1.2,2.35,7.492,7.492,0,0,1-3.05,1.351q-1.3.1-1.7-.351a5.566,5.566,0,0,1-.9-1.9q-.45-1.451,1.35-2.7a4.852,4.852,0,0,1,3.25-1.15m18.1-19.2q2.95-2.1,2.45-2.8-1.1-1.749-5.15.95t-6.05,3.95q-2.049,1.2-1.75,2.15a1.186,1.186,0,0,0,1.05.95q.7.051,3.6-1.55,2.85-1.6,5.85-3.65m4.7,5.95q-1.149-1.3-4.55.851t-6.1,3.949q-2.75,1.8-2.9,2.4a1.135,1.135,0,0,0,.05.9,1.2,1.2,0,0,0,.7.5q.55.2,3-1.3t6.6-3.9q4.1-2.4,3.2-3.4m31.25,22.7q-1.449-.1-2.95-.1-1.549,0-1.8.7a2.017,2.017,0,0,0-.15,1.3q.15.6,3.45.75,3.251.148,4.95.25a2.935,2.935,0,0,0,2.15-.4,1.378,1.378,0,0,0,.25-1.3q-.249-.75-2.35-.9-2.1-.2-3.55-.3m-4.45-6.25q0,.75,1.25.95l4.3.2h4a1.526,1.526,0,0,0,1-.4,1.605,1.605,0,0,0,.45-.75,1.242,1.242,0,0,0-.25-.95,1.024,1.024,0,0,0-.8-.6l-8.8-.1a1.285,1.285,0,0,0-.8.5,1.7,1.7,0,0,0-.35,1.15m14.05-11.15q-2.1-.2-3.9-.2a18.486,18.486,0,0,0-5,.4q-8.4,2.1-13.7,12-2.3,4.1-.7,10.1a11.456,11.456,0,0,0,6,7.2q4.4,2.1,12.2,2,7.8-.15,12-5.8t2.2-9.95q-2-4.35-3.4-7.25a7.5,7.5,0,0,0-4.85-3.9,26.3,26.3,0,0,0-4.35-1.049q-.95-.051-1.1.449-.1,1.65.9,2.1,1,.4,3.1,1.1a4.777,4.777,0,0,1,2.2,1.2,39.962,39.962,0,0,1,4.9,8,6.553,6.553,0,0,1-.1,4.9,8.985,8.985,0,0,1-2.4,4.149,19.632,19.632,0,0,1-4.75,2.4,16.389,16.389,0,0,1-5.4,1.25,19.225,19.225,0,0,1-3.6-.3q-1.55-.3-3.9-.75a9.7,9.7,0,0,1-4.75-2.75q-6.2-6.4.4-15.4,6.4-8.7,14.8-7.7,3.8.4,4.65.4a1.092,1.092,0,0,0,1.05-.45,1.675,1.675,0,0,0,.25-.8,1.211,1.211,0,0,0-.35-.8,4.436,4.436,0,0,0-2.4-.551m-29.4-14.8q-.7.251-.45,1.15.15.851,1.65,1.15,1.5.2,6.4.4,4,.3,6.4.7,2.4.5,22.3,4.7.7.1,2.5.349t1.9-.45a2.157,2.157,0,0,0-.2-1.2,1.659,1.659,0,0,0-.8-.7q-11.1-2.6-16.6-3.8a106.318,106.318,0,0,0-14.65-2.4,60.345,60.345,0,0,0-6.35-.25,5.88,5.88,0,0,0-2.1.35m4.45-8.8a73.382,73.382,0,0,1,12.85,1.35q7.9,1.35,19.9,2.95a25.876,25.876,0,0,0,5.75.2,4.01,4.01,0,0,0,1.85-.7.712.712,0,0,0,.2-.85,2.192,2.192,0,0,0-.75-.85q-.549-.4-8.25-1.2t-15.4-1.8q-7.2-1.3-10.9-1.9a30.327,30.327,0,0,0-11.1.2q-1,.5-.7,1.4a1.5,1.5,0,0,0,1,1,37.3,37.3,0,0,0,5.55.2"/></svg>