<svg overflow="visible" width="100%" height="100%" viewBox="0 0 116.333 105.481" xmlns="http://www.w3.org/2000/svg"><path d="M111.033,27.4q-8.1-4.4-12.2-6.6a136.335,136.335,0,0,0-12.6-5.8q-8.1-3.2-19.6-7.1-13.2-4.3-19.8-6.5-7.9-2.7-14.1-.2-4.1,1.6-10.5,4.7a51.374,51.374,0,0,0-9.6,5.55q-3.2,2.45-3.45,2.65a16.176,16.176,0,0,0-1.65,1.7,18.128,18.128,0,0,0-2.9,5.65q-1.6,4.15-2.3,17.15-2,23.5-2.3,32.1a20.366,20.366,0,0,0,2.1,10.5q5.2,10.3,15.6,12.6,17.6,3.7,52.8,11.5a12.7,12.7,0,0,0,5.8-.4,64.057,64.057,0,0,0,20.5-9.7q4.8-3.6,7.3-4.25,2.451-.649,5.4-1.55,4.9-1.3,5.5-3.6t-3.6-5.4q-2.349-2.15-.65-9.85,1.65-7.751,2.95-14.05a106.368,106.368,0,0,0,2.6-19.1q-.2-7.2-5.3-10m1.85,5.6a8.988,8.988,0,0,1,.85,6.1l-6.6,36.3a18.882,18.882,0,0,0-3.8-2.7q-.75-.3-2.45.6-1.6.949-1.25-.55l4.4-29.25a6.18,6.18,0,0,0,.1-1.2q0-.7-.75-.6a1.776,1.776,0,0,0-1.35.8,7.715,7.715,0,0,0-1.25,2.5,54.662,54.662,0,0,0-1.55,8.55q-.9,6.75-2.1,16.85-.5,4.1-1.8,5.6-1.3,1.6-5.2,2.6a17.873,17.873,0,0,0-5.6,1.8,2.623,2.623,0,0,0-1.4,2.4,2.894,2.894,0,0,0,1.7,2.3q4.8,1.8,14.3,4.6a70.612,70.612,0,0,1-10.3,7.2,75.119,75.119,0,0,1-12.5,4.9,22.832,22.832,0,0,1-10,0q-6.6-1.6-9.9-2.2-13.1-2.6-19.7-4-11.5-2.5-19.5-4.9a19.276,19.276,0,0,1-10-6.7,17.834,17.834,0,0,1-4.3-10.9,121.9,121.9,0,0,1,.4-18.3q1.1-11.5,1.7-17.3A105.007,105.007,0,0,1,7.883,22q.5-2.6,1.9-.6a66.5,66.5,0,0,0,7.95,8.55,47.771,47.771,0,0,0,11.65,8.7q5.6,2.749,24.95,9.95,19.35,7.151,23.65,5.2,4.3-2,13.5-7.55,9.15-5.55,21.4-13.25m-3.85-3.5a12.742,12.742,0,0,1,2.15,1.45q-2.8,1.451-5.8,3.3-12.349,7.95-18.75,11.5-4.95,2.9-9.5,5.05a7.088,7.088,0,0,1-4.15.65q-2.3-.349-4.2-.8-1.95-.5-11.05-3.9-9.1-3.45-19.45-6.95-10.35-3.55-19.55-12.75-9.249-9.2-7.95-10.75,1.3-1.6,6.55-4.5,5.2-2.9,9.3-5.2,10.3-5.8,21.9-1.7,4.5,1.7,17.4,5.9,11,3.6,17.3,6.1a138.411,138.411,0,0,1,13.1,6q4.2,2.1,12.7,6.6m-9.15,47.05q1.6-1.7,2.85-.75,1.2.949,1.85,1.55l2.85,2.85q5.2,5.1,2.8,6a15.955,15.955,0,0,1-7.5,1.3,27.715,27.715,0,0,1-6.55-1.05q-2.5-.85-5.6-1.8t-1.35-1.75q9.051-4.65,10.65-6.35M27.433,21.5c-.4.133-.6.267-.6.4q-.2,2.4,2.7,3.4a440.122,440.122,0,0,0,45.6,17q.5-.1,1.8-.3a5.518,5.518,0,0,0,2.3-2.2,1.606,1.606,0,0,0-.3-1.1,4.742,4.742,0,0,0-1-1.2,39.873,39.873,0,0,0-9.6-4.8q-8.7-3.3-10.1-4a91.943,91.943,0,0,0-14.7-4.5q-4.4-1-15-2.8a2.233,2.233,0,0,0-1.1.1m6.7-10.1a1.981,1.981,0,0,0,1.2,2.2,15.749,15.749,0,0,0,2.6.9L84.233,29a40.579,40.579,0,0,0,6.3.9,1.186,1.186,0,0,0,.9-.2.933.933,0,0,0,.6-.5,1.283,1.283,0,0,0,0-1c-.066-.4-.2-.633-.4-.7a34.045,34.045,0,0,0-5.5-3.3q-15.2-5.7-23-8.4a123.563,123.563,0,0,0-23.6-6.1,25.968,25.968,0,0,1-3.5,0,1.718,1.718,0,0,0-1.9,1.7"/></svg>