<svg overflow="visible" width="100%" height="100%" viewBox="0 0 90.102 116.3" xmlns="http://www.w3.org/2000/svg"><path d="M73.695,1.721a8.264,8.264,0,0,0-3.15-1.15,35,35,0,0,0-11-.25,7.88,7.88,0,0,0-6.95,5.65,21.693,21.693,0,0,0-1.25,9.05q.4,4.2,5.4,4.6a97.433,97.433,0,0,1-13.55,21.7,74.214,74.214,0,0,0-6.2,7.8l-18.8,32.9q-3.549,6-4.65,8.35-2.3.7-5.35,1.65a17.978,17.978,0,0,0-6,3.15,5.124,5.124,0,0,0-2,5.65,10.765,10.765,0,0,0,3.1,5.55,6.455,6.455,0,0,0,5.6,1.6,23.315,23.315,0,0,0,6.75-2.15,37.842,37.842,0,0,1,6.35-2.5q3-.8,2.65,3.4-.4,4.2.7,6.15a6.23,6.23,0,0,0,3.25,2.85,8,8,0,0,0,4.7.4,5.632,5.632,0,0,0,3.5-1.8,9.391,9.391,0,0,0,1.3-4.2q1-7.9,1.1-9.8a16.29,16.29,0,0,0-1-6.2,8.248,8.248,0,0,1,.7-7.9.835.835,0,0,1,.15-.2q5.751-9.8,16.95-29.4a59.483,59.483,0,0,1,4.9-6.9q2.5-3.1,7.5-9.2a44.715,44.715,0,0,0,6.3-10.1q.2-.4.4-.8a9.258,9.258,0,0,1,5.7-4.3,12.865,12.865,0,0,0,7.6-5.2,13.463,13.463,0,0,0,1.5-9.2q-.3-2.5-1.4-3.3a4.772,4.772,0,0,0-3.6-.6l-6.4.9a6.743,6.743,0,0,1-2.9-.1,5.617,5.617,0,0,1-.8-2.6q-.4-2.9-1.1-3.5m-1.8,5q.2,3,1.2,3.9,1.1.8,4.1.4,2.3-.3,6.9-1,2-.3,2.6.2a3.686,3.686,0,0,1,.7,2.5,9.706,9.706,0,0,1-1.8,6.5,9.123,9.123,0,0,1-5.9,3.5,8.426,8.426,0,0,0-6.4,4.8q-.45,1-1.05,2.1a94.851,94.851,0,0,1-11.35,15.7,74.214,74.214,0,0,0-6.2,7.8l-19.2,33.6a7.111,7.111,0,0,0-.5,7,13.436,13.436,0,0,1,1.5,5.6,104.522,104.522,0,0,1-1.5,11.3,2.664,2.664,0,0,1-1,2.2,4.543,4.543,0,0,1-2.3.6,4.027,4.027,0,0,1-3.2-1.2,5.471,5.471,0,0,1-1.5-3.5q-.05-4.149.1-6.35.1-2.25-.7-2.85-.9-.6-3.3.4-3.3,1.3-7.15,2.65a59.74,59.74,0,0,1-6.8,2q-2.949.651-4.05-.35a7.025,7.025,0,0,1-1.6-3.2q-.75-2.449-.2-3.2a5.928,5.928,0,0,1,1.75-1.55,22.4,22.4,0,0,1,5.85-2q4.551-1.2,5.8-2.8.351-.5,8.4-15.1,9.351-17,13.2-23.75a59.483,59.483,0,0,1,4.9-6.9q2.5-3.1,7.5-9.2a44.715,44.715,0,0,0,6.3-10.1q.2-.4,2.7-6.3,2.25,0,2.35-1.85t-3.35-1.55q-3.5.251-4.55-2.7a7.842,7.842,0,0,1,.85-6.5,7.845,7.845,0,0,1,5.5-4.2q1.5-.2,3.15-.35a37.361,37.361,0,0,1,4.05-.1,5.921,5.921,0,0,1,3.25.7q.851.651.95,3.15"/></svg>