<svg overflow="visible" width="100%" height="100%" viewBox="0 0 57.65 117.68" xmlns="http://www.w3.org/2000/svg"><path d="M21.01,9.256q.75-.75,1.5-1.65t2.3-2.7q1.95-3-1.45-4.05-7.85-2.349-13.7,1.75-3.849,2.5-7.25,9.7-5.5,11.7,1.55,22.7a116.684,116.684,0,0,0,8.7,11.9q4.851,5.5,4.8,11.65a89.716,89.716,0,0,1-.1,10.55q-.3,2.9-.55,12.5-.5,15.3-1,26.1a9.347,9.347,0,0,0,2.3,6.7,10.7,10.7,0,0,0,6.6,3.2q3.4.5,4.1-2.4,1.4-5.1,1.9-7.7a30.034,30.034,0,0,0,1-7.9q-.4-12.3,0-24.8a97.678,97.678,0,0,1,2.1-15.1q1.1-6,6.8-10.6a101.649,101.649,0,0,0,10.6-10.2q8.9-9.6,5.5-22.1-2-7.7-5.4-10.8-5.1-5.1-13.3-4.1-3.5.4-2.1,3.7l1.3,2.1q3.6,4.4,3.4,12.6-.1,5.8-4.15,7.75-4.1,1.9-5.8,1.9a38.656,38.656,0,0,1-6.2-1.05q-4.5-1.05-5.7-6.65-1.25-5.649-.55-8.25a7.81,7.81,0,0,1,1.3-2.8q.851-1.149,1.5-1.95m.2-4.3q-.95.951-2.8,3.15a19,19,0,0,0-3.2,6.6,15.2,15.2,0,0,0,.5,9.8,14.655,14.655,0,0,0,2.5,4.1,9.627,9.627,0,0,0,4.9,2.8,52.255,52.255,0,0,0,5.6,1,12.382,12.382,0,0,0,11.2-3.7q4.6-4.6,3.5-10.3-.7-4.5-1.3-6.8a15.324,15.324,0,0,0-3.7-6.6,22.933,22.933,0,0,1,7.7,1.1,9.736,9.736,0,0,1,4.8,3.2,22.138,22.138,0,0,1,3.6,13.7,21.331,21.331,0,0,1-4.6,13.2,66.263,66.263,0,0,1-11.8,11.3q-5.2,3.7-7.2,12-2.7,12.4-2.2,21.1.3,5.8.1,17.4a39.742,39.742,0,0,1-1.9,13.6q-.8,2.7-1.9,3.1-1.1.5-3.2-1.1-4.1-3.2-3.6-7.6.8-7.5,1.6-22.7.3-4.2.45-11.1,0-1.55.1-2.65a103.088,103.088,0,0,0,.05-10.7q-.5-8.5-5-13.05a67.782,67.782,0,0,1-9.65-13.2q-3.349-5.85-2.2-13.8a22.3,22.3,0,0,1,5.85-12.9,10.342,10.342,0,0,1,5.3-2.3q4.7-1.05,6.4-.45,1.65.551,1.35.7a5.427,5.427,0,0,0-1.25,1.1"/></svg>