<svg overflow="visible" width="100%" height="100%" viewBox="0 0 108.673 115.977" xmlns="http://www.w3.org/2000/svg"><path d="M93.927,12.257a33.32,33.32,0,0,0-5.95-4.05q-13.6-6.6-24.3-7.7a109.776,109.776,0,0,0-43.6,4.5q-8.55,2.75-12.55,8.3a32.468,32.468,0,0,0-2.1,3.15,27.515,27.515,0,0,0-1.9,4.1q-1.05,2.7,0-.1-5.649,12.45-2.25,21.35a30.451,30.451,0,0,0,7,10.7,15.194,15.194,0,0,1,4.6,6.2q4.6,13.1,8.25,25.65,3.6,12.5,4.55,15.8.9,3.3,1.2,4.25t1.1,3.6a2.7,2.7,0,0,0,2.15,1.9l1.25.5q2.051.8,6.75,2.45a56.933,56.933,0,0,0,23.85,2.9q11.2-.95,24-8.3a4.984,4.984,0,0,0,1.35-3.7q.051-2.651.9-13.75t1.45-22.1q.5-3.5,4.3-6.9,6.1-5.5,6.2-5.6,6.9-7.6,8-14.6,2.5-18.7-7.6-24.3a32.526,32.526,0,0,1-6.65-4.25m2.25,17.95q.4-.9,2.4-4.8a30.426,30.426,0,0,0,2-5.1,6.333,6.333,0,0,1,3.6,3.9q3.8,10.4,0,19.6-3.1,7.6-12.2,15.9.2-18.4,4.2-29.5m-5.15-16.8q9.75,7.05-11.45,13.4-21.2,6.3-34.25,4.95t-27.55-3.65q-2.7-.3-4.2-.35a12.92,12.92,0,0,1-2.7-.35q-1.249-.3-3.35-.85t-1.7-2.3a21.618,21.618,0,0,1,1.15-3.75q4.1-10.4,14.6-12.9,15.6-4.7,27.6-4.8,14.7.3,22,1.9a51.656,51.656,0,0,1,19.85,8.7m-8.95,16.5a34.866,34.866,0,0,0,10.3-5.3q2.4-2.6,2-.4-.3,1.8-.8,4.9a100.565,100.565,0,0,0-3.3,14.4q-.7,4.3-2,14.7a7.481,7.481,0,0,1-3.6,6q-10.2,5.9-19.6,6.7-6,.35-9.7.45a39.054,39.054,0,0,1-9.2-1.25q-6-1.7-8.9-2.3a44.806,44.806,0,0,1-10.8-4.8,114.733,114.733,0,0,1-9.7-6.9,9.456,9.456,0,0,1-2.6-3.5l-7.9-20.5q-.75-1.6.1-1.75a17.977,17.977,0,0,1,2.4-.2,115.211,115.211,0,0,1,14.6,1.75q9.7,1.6,13.8,1.9a125.564,125.564,0,0,0,33.6-1.2,86.424,86.424,0,0,0,11.3-2.7m2.2,71.4q-.1,3.5-5.95,6.6t-15.3,4.35q-9.45,1.249-16.15-.75-6.75-2.05-14.1-4.2-.95-.3-1.65-.45a33.458,33.458,0,0,0-.95-4q-2.049-7.1-6.6-21.15-4.6-14.1-6.7-21.5,34.8,23.7,69.7,6.7l-2.3,34.4m-81.8-66.35a4.231,4.231,0,0,1,.65-2.4q.651-.851,3.2,5.25a48.2,48.2,0,0,1,3.35,11.6,14.887,14.887,0,0,1-4.6-5.6q-1.6-4.4-2.15-5.75a7.092,7.092,0,0,1-.45-3.1"/></svg>