<svg overflow="visible" width="100%" height="100%" viewBox="0 0 32.582 115.438" xmlns="http://www.w3.org/2000/svg"><path d="M17.779.133a11.121,11.121,0,0,0-5,.4,9.521,9.521,0,0,0-4.75,2.85,31.844,31.844,0,0,0-3.5,4.7,9.833,9.833,0,0,0-1.7,4.65q0,4.7.25,9.3.249,4.45.45,6.45.15,2-.2,2.05-.351,0-.55,1.5a13.6,13.6,0,0,0-.15,3.1q.1,1.6.25,4.65t1.35,14.85q.1.7.2,2a2.358,2.358,0,0,1-1.5,1.7q-2.5,1.2-2.8,2-.3.6.1,3.6.5,3.3,2.6,22.2a187.042,187.042,0,0,0,3.5,21.9,8.78,8.78,0,0,0,5,6,21,21,0,0,0,8,1.4q5,.1,7.6-2.1t3.2-7.2l.6-6.2q.4-3.7,1.1-8a97.113,97.113,0,0,0,.75-13.5,82.24,82.24,0,0,0-.7-13.4,42.748,42.748,0,0,0-1.35-5.9q-.651-1.7-1.65-1.9a1.859,1.859,0,0,1-1.45-1.1,8.988,8.988,0,0,1-.2-2q.05-8.1-.1-12.5a34.02,34.02,0,0,0-.75-6.8q-.6-2.349-2-2.7-1.451-.4-1.6-1.3-.15-.95-.3-3.7-.15-2.8-.15-6.6,0-9.3-.2-12.95-.251-3.649-.25-4.1a2.6,2.6,0,0,0-.45-1.25,3.529,3.529,0,0,0-1.5-1.35,7.558,7.558,0,0,0-2.15-.75m.6,4.8q0,.4-3.5,2.2t-5.6,2.9q-2.2,1.1-2.95.65-.75-.549,3.05-4.2,3.8-3.7,6.35-3.8,2.5-.1,2.6.85.049.951.05,1.4m-12.5,13.7q-.051-4.3,1.65-5.2l11.5-6q.2,2.6.5,9.6.2,6,.45,9.8.249,3.75-.7,4.9a4.54,4.54,0,0,1-3.45,1.25,15.533,15.533,0,0,1-4.6-.55q-1.9-.549-3.35-.95a2.61,2.61,0,0,1-1.85-1.3,11.587,11.587,0,0,1-.25-4.1q.1-3.2.1-7.45m1,15.5q4.7,2.3,11.55,1.4a5.146,5.146,0,0,1,4.3,1.2,5.446,5.446,0,0,1,1.7,4.1q.1,5.3,0,15.9.2,3.6-2.8,3.7a88.93,88.93,0,0,1-10.7.3q-3-.1-3.6-3.9a125.821,125.821,0,0,1-1.8-20.2q-.15-3.2,1.35-2.5m-3.95,29.85q.05-1.449,1.7-1.15,1.65.251,5.5.85a37.741,37.741,0,0,0,8.75.1q4.95-.5,7.2-1.9,2.25-1.449,2.6-.2a23.34,23.34,0,0,1,.5,3.05q.149,1.8.65,6.4a99.221,99.221,0,0,1-.4,18.6q-.7,6.1-2.4,18.4a4.171,4.171,0,0,1-1.9,2.8,6.851,6.851,0,0,1-3.4,1.7q-6.4,1.4-10.1-2.1-3.4-3.2-4-9.9l-4.7-36.65"/></svg>