<svg overflow="visible" width="100%" height="100%" viewBox="0 0 115.742 97.133" xmlns="http://www.w3.org/2000/svg"><path d="M96.174,4.313a59.568,59.568,0,0,0-8.151,1q-19.2,3.9-28.4,6.6a118.29,118.29,0,0,0-26.9,11.3q-6.5,3.6-8.7,6.5-3.4,4.3-.8,9.9a26.876,26.876,0,0,1-9.2.6q-5.8-.4-8.2-1.7-2.4-1.4-2.6-2.6t1.9-2.9a149.558,149.558,0,0,1,50.1-26.5q2.5-.7,7.5-2.4a36.48,36.48,0,0,1,6.65-1.4,5.6,5.6,0,0,0,2.45-.5,1.431,1.431,0,0,0,.25-.85,1.482,1.482,0,0,0-.5-1.05q-.5-.5-4.051-.2a22.016,22.016,0,0,0-5.5,1q-11,3.7-16.4,5.6a104.763,104.763,0,0,0-15.9,7q-13.8,7.9-15,8.7a64.611,64.611,0,0,0-13.4,10.8,4.881,4.881,0,0,0-1.3,3.4,5.34,5.34,0,0,0,2.1,2.9,21.019,21.019,0,0,0,13,3.851q7.4-.15,12.6-.75t7.1-.9a1.819,1.819,0,0,1,1.5,1.2q1.4,3.6,6.3,4.1a2.683,2.683,0,0,1,1.3.5q.7.6.7,1a5.335,5.335,0,0,0,1.9,4.3,16.258,16.258,0,0,0,4.2,1.8q1.2.4,3.4.9a3.14,3.14,0,0,1,2.05,2,2.13,2.13,0,0,0,1.15,1.65,6.46,6.46,0,0,0,1.6.451q.7.1,4.5,0a13.1,13.1,0,0,1,4.4.2q.4,1.5,3.9,3.6,2.9,1.8,2.7,3.4a2.673,2.673,0,0,0,.3,2.2,4.651,4.651,0,0,0,2.45.951q1.849.35,2.95,3.25a2.361,2.361,0,0,0,1.2,1,2.156,2.156,0,0,0,1.5.2q1.3-.6,1.9-.1a3.147,3.147,0,0,1,.7,1.7q.1.6,3,9.6,1.9,5.8,1.65,8.3-.251,2.451,1.449,3.2,1.3.3,1.4-3.851a18.762,18.762,0,0,0-1.4-7.75,17.764,17.764,0,0,1-1.7-6.6q-.2-5.3-2.5-8.3-2.1-2.1,0-4.3,2.1-2.3.9-3.9a1.717,1.717,0,0,0-2.1-.5q-.6.4-1.8,1.3a12.306,12.306,0,0,0-1.9,1.9,17.1,17.1,0,0,1-1.85,1.8,3.392,3.392,0,0,1-1.7.5,2.033,2.033,0,0,1-1.5-.5,1.232,1.232,0,0,1-.15-1.4,3.181,3.181,0,0,1,1.1-1.449,19.383,19.383,0,0,1,2.3-1.45l2.6-1.4a50.143,50.143,0,0,0,5.6-3.9,19.868,19.868,0,0,0,2.4-1.9,2.763,2.763,0,0,0,.7-3.1,2.431,2.431,0,0,1,1.2-3q2.1-1.4,2.2-2.3a5.853,5.853,0,0,1,.8-3.9,12.617,12.617,0,0,0,2.4-3.7q.3-2.2,4.3-3.4,3.7-1.2,3.7-3.5a2.534,2.534,0,0,0-2.2-2.5q-2.6-.2-3.9-.4a81.172,81.172,0,0,0,7.8-4.6q3.5-2.4,2.3-5.4a2.928,2.928,0,0,1,1.4-4.2,6.27,6.27,0,0,0,3.6-4,3.675,3.675,0,0,0-1.9-4.6,16.822,16.822,0,0,0-8.45-2.45q-5.05-.251-9-.05m16.15,6q.5,1.1-.8,2.1a13.95,13.95,0,0,1-2.4,1.5q-.4.3-4.6,2.8a75.243,75.243,0,0,0-23.2.6,110.2,110.2,0,0,0-21.8,6.5,63.584,63.584,0,0,0-19.9,10.9,12.716,12.716,0,0,1-4.95,3.1,16.956,16.956,0,0,1-5.75.05q-3.7-.45-4.1-1.75a3.6,3.6,0,0,1,.4-3q2-3.7,8-7.1,19.5-11,49.6-16.7,14.5-2.9,24.6-2a5.548,5.548,0,0,1,2.849.949,5.006,5.006,0,0,1,2.051,2.051m-8.9,10.5a5.96,5.96,0,0,1,2.3-.5q1.3,0,1.3.6a2.151,2.151,0,0,1-.5,1.7,24.87,24.87,0,0,1-8.1,4q-.7.2-8.8,2.3-3.45.8-.3-.8l14.1-7.3m-24.7,26.5q-8.4,3-14.8,2.6a32.438,32.438,0,0,1,14.5-7.6q5.3-1.4,16.9-3.4-.2.3-1.3,1.7a2.36,2.36,0,0,1-1,1q-9.5,4-14.3,5.7m-23.9-9.2q1.65-.3.15.75l-6.25,4.149a6.675,6.675,0,0,1-4.1,1.1,23.979,23.979,0,0,1-4.1-.7q-.7-.1-1.2-1.8-.1-.2.4-.6a3.458,3.458,0,0,1,1-.5l14.1-2.4m-6.2,9.8a2,2,0,0,1,1-.6l14.2-1.7q-2.5,1.9-7.3,5.7a5.82,5.82,0,0,1-3.8.7,5.691,5.691,0,0,1-3.7-1.2,1.686,1.686,0,0,1-.4-2.9m11.3,9.151q-1.5-.351-1.7-1.25,0-1.4,2.5-1.7l11.4-1.8a5.792,5.792,0,0,1-5.4,4.4q-5.3.7-6.8.35m12.2,2.75a.906.906,0,0,1,.1-.7,1.071,1.071,0,0,1,.4-.5l7.8-2.9q-2.1,3.7-3.6,4.7a4.328,4.328,0,0,1-3.8.3q-.9-.2-.9-.9m1.8-29.3a147.186,147.186,0,0,1-31.1,6.1q5.7-6.8,25.1-13.1,20.2-6.5,30.7-3.9-8.6,6-24.7,10.9m3.1,7.7q-9.1,4-23.7,5.8a55.549,55.549,0,0,1,22.2-9.1q7.3-1.4,23.9-2.2l.3,1.2-2.4.6a5.045,5.045,0,0,1-2.2.1,18.785,18.785,0,0,0-9.4.2,55.476,55.476,0,0,0-8.7,3.4m13.7,8.6a13.731,13.731,0,0,1-5.9,4.3q-1,.4-6,1.8a11.842,11.842,0,0,1,5-3.9,67.783,67.783,0,0,1,6.9-2.2"/></svg>