<svg overflow="visible" width="100%" height="100%" viewBox="0 0 105.022 115.81" xmlns="http://www.w3.org/2000/svg"><path d="M37.314,18.886q-2.8,2.8-8.6,8.2a41.022,41.022,0,0,0-7.2,9.5,87.682,87.682,0,0,1-4.7,7.8q-4.8-10.1-9.1-2.3-2.3,4.2-5.2,14.4-4.4,14.5-1.1,24.8.7,2.4,1.6,7.3,1,4.2,2.3,5.65a4.447,4.447,0,0,1,1.15,3.5q-.2,2.1-.25,2.75t-.35,4.65q-.349,3.95-2.35,5.55a1.289,1.289,0,0,0-.15,1.45,5.77,5.77,0,0,0,1.85,2.65,3.007,3.007,0,0,0,2.75.95q1.2-.351,2.3-3.45a15.16,15.16,0,0,0,.45-6,44.575,44.575,0,0,1-.3-5.85q.1-2.3.1-3.9-.1-.851,1.65-.9,4.7-.251,8.4-.8,3.951-.651,5.65-1.05,6.8-1.5,21.5-6a3.568,3.568,0,0,0,2.6-1.9,4.934,4.934,0,0,1,1.9-2.6q.2-.1,2.8-1.5,13-6.5,15-7.6,2.6-1.4,2.9-2.7.3-1.2-1.4-3.5-1.5-2.2-1.4-2.8.1-.7,2.3-2.2,12.6-7.9,18.8-12.1,2.7-1.9,1.7-3.5a14.034,14.034,0,0,0-3.7-2.8q-6.2-3.7-1.9-7.9a35.525,35.525,0,0,1,7.2-5.9q5.5-3.2,8.1-4.8,2.2-1.3,2.4-2.4a2.469,2.469,0,0,0-1.1-2.1q-8.4-7-8.9-17-.4-3.2-1.8-4.1t-4.2.3a56.2,56.2,0,0,0-13.8,8.3q-.849.649-.95-.25,0-3.251-2.25-4.45-2.7-1.3-5.6,1.4l-16.2,13.2q-3.1,2.7-5.2-.3-2.3-3.1-4.8-1.5-2.7,1.7-2.9,1.8m-6.9,10.4q5.6-5.2,8.2-7.9a2.168,2.168,0,0,1,1.6-1q2-.2,2.5.4,4.1,4.5,4.2,8.1a9.6,9.6,0,0,0,.6,3.4,1.278,1.278,0,0,0,.6.6,1.192,1.192,0,0,0,.9.2,1.977,1.977,0,0,0,.7-.5,1.1,1.1,0,0,0,.4-.7q-.5-2.7-.6-4-.3-3.5.3-4.6.7-1.1,4.2-2.8,1.1,7.2,1.2,7.9a2.372,2.372,0,0,0,.5,1q.4.6.8.6,1.4.1,1.2-2.1-.5-3.6-.7-5.5a10.435,10.435,0,0,1,.3-5,10.1,10.1,0,0,1,3.2-3.5,46.32,46.32,0,0,0,4.2-3,22.614,22.614,0,0,1,4.4-3.25q2.2-1.3,1.95.65a5.624,5.624,0,0,0,.05,2,5.626,5.626,0,0,0,1.7,2.9q.8.6,2.9-1,4.8-3.8,7.3-5.5a17.939,17.939,0,0,1,8.5-3.5,20.992,20.992,0,0,1,1.1,4.6,16.827,16.827,0,0,0,1.2,4.5,73.157,73.157,0,0,0,5.8,8.6,6.347,6.347,0,0,1,1.3,2.1q0,.5-1.7,1.6-9.9,5.5-14.8,11.4-4.6,5.649,3.1,11.1,2,1.4,0,2.7-2.749,2-6.7,4.5-7.1,4.4-11.45,7.05-4.4,2.6-1.7,6.25,2.65,3.65-.95,5.35a47.7,47.7,0,0,0-5.5,2.9,59.359,59.359,0,0,1-7.4,3.35,15.137,15.137,0,0,0-6.8,5.7,2.528,2.528,0,0,1-1.25.85q-8.2,2.9-13.35,4.2a90.029,90.029,0,0,1-10.2,1.95q-5.049.6-8.35.8-3.3.249-3-1.05a8.9,8.9,0,0,1,.85-2.45q6.2-11.7,18-25.4,14.1-15.4,21-23.2a21.974,21.974,0,0,1,3.8-3.2,12.471,12.471,0,0,1,2.9-.65q1.251-.1,2.9-.25,3.2-.2,8-1,2.7-.4,8.1-1.3a3.168,3.168,0,0,0,1.1-.5,1.38,1.38,0,0,0,.5-.9q.1-1-.7-1.1a4.506,4.506,0,0,0-1.4,0l-15.7,1.9a33.276,33.276,0,0,1,14.2-7.8q13.6-4,16.2-5.2a1.134,1.134,0,0,0,.2-1.3,1.075,1.075,0,0,0-1-.8q-4.3,1-11,3.1-9.1,2.9-10.9,3.4a18.633,18.633,0,0,0-3.5,1.7q-7.5,5.2-11.4,8.4a66.962,66.962,0,0,0-10,9.9q-2.9,3.6-9.3,10.4a165.273,165.273,0,0,0-26.6,36.1,49.05,49.05,0,0,1-3.8-25.4q1.3-11.2,7.9-24.8l2.1,2.9q2.4,3.9,3.5,3.9,1.1-.1,3.6-4.1,2.9-4.8,3.3-5.5a36.28,36.28,0,0,1,6.7-9.2m34.7,19.7a1.576,1.576,0,0,0-1.5-1.9q-1.8-.051-5.65-.15a47.025,47.025,0,0,1-6.25-.5,11.632,11.632,0,0,0-2.8-.35,1.581,1.581,0,0,0-1.3,1.2,1.776,1.776,0,0,0,.3,1.9,3.741,3.741,0,0,0,1.55.9,32.341,32.341,0,0,0,5.2.35q4.251.05,5.7.05t3.05-.1q1.6-.1,1.7-1.4m9.1-30.2a1.116,1.116,0,0,0-.6-1.2,7.691,7.691,0,0,1-5.4-3.9q-.6-1.551-1.55-.25-1.35,1.85,1.55,4.55,2.8,2.7,5.3,1.9a1.1,1.1,0,0,0,.7-1.1m-44.8,62.05q-1.6.5-1.5,1.85,0,.849,3.45.5a24.148,24.148,0,0,0,5.05-1q1.6-.651,1.6-1.4a1.225,1.225,0,0,0-.45-1.1q-.5-.3-3.5.15a27.523,27.523,0,0,0-4.65,1m8.4-7.15q-2.049.3-2.75.4a4.406,4.406,0,0,0-1.45.5q-.75.4-.1,1.2a2.043,2.043,0,0,0,1.7.85,22.817,22.817,0,0,0,3-.45l20.5-5.3q2.451-.6,1.3-1.85-1.05-1-5.15.2t-8.65,2.5q-4.6,1.249-8.4,1.95m-.75-10.55q-.2,1.849.7,1.9.9,0,7.15-.7,6.251-.75,17.6-2.35,2.151-.4,1.5-1.65-.7-1.251-1.4-1.15-16,1.9-20.65,2.15-4.7.2-4.9,1.8m-24.75-1.65a.781.781,0,0,0-1,.5q-.35.7.25,3.2.55,2.5,1.05,4.85a5.571,5.571,0,0,0,.95,2.7,1.2,1.2,0,0,0,1,.3,1.545,1.545,0,0,0,.85-.7,4.22,4.22,0,0,0-.1-2.4q-.4-1.851-.9-4.85t-2.1-3.6m14.15-16.2a1.654,1.654,0,0,0-1.35-.2q-1.149.35-.45,3.2.651,2.8.95,4.35a2.208,2.208,0,0,0,1.55,1.95q1.251.4,1.2-1.65a29.621,29.621,0,0,0-.65-4.65q-.549-2.6-1.25-3m12.35-12.8q-.349-1-1.2-.9t-1.05.6a5.185,5.185,0,0,0,.15,2.5q.4,2,.85,3.9a10.971,10.971,0,0,0,.7,2.4q.3.549,1.6.35a1.117,1.117,0,0,0,.95-1.55l-2-7.3"/></svg>