<svg overflow="visible" width="100%" height="100%" viewBox="0 0 115.05 111.741" xmlns="http://www.w3.org/2000/svg"><path d="M105.989,26.391q1-2.151.65-2.65a1.135,1.135,0,0,0-.75-.55,1.955,1.955,0,0,0-.95.15,1.077,1.077,0,0,0-.5.4,14.087,14.087,0,0,1-3.5,4.8q-3.6,3.5-4.2,4.2-3.1,3.9-7.8,1.6a25.013,25.013,0,0,0-3.1-1.4,4.034,4.034,0,0,0-2.15.1,9.3,9.3,0,0,1-4.05-.25,34.313,34.313,0,0,0-4.4-.85q3.7-2.1,4.4-2.4,4.6-2.2,6-3a16.265,16.265,0,0,0,5-4.4q2.7-3.6,4.8-6.9t2.1-4q0-.651-.95-.85a1.5,1.5,0,0,0-1.55.35q-3.1,3-4.7,4.5-2.4,2.3-3.3-1.1a14.472,14.472,0,0,1-.3-2.4,27.461,27.461,0,0,1-.05-2.75,1.2,1.2,0,0,0-1.05-1.25q-.3-.15-.85.45t-.45,2.9a37.243,37.243,0,0,0,.8,5.65,5.791,5.791,0,0,1,0,3.4,5.242,5.242,0,0,1-2.4,2.7,2,2,0,0,1-2.6-.1,8.407,8.407,0,0,0-1.7-1.9,9.028,9.028,0,0,1-1.7-1.8,7.067,7.067,0,0,1-1.8-2.9,10.245,10.245,0,0,1,1.1-3.2,29,29,0,0,0,2.3-6q.9-2.85-.5-3.05t-1.75.8a8.326,8.326,0,0,0-.45,1.65q-.5,2.6-.6,2.8a4.277,4.277,0,0,1-.8,1.3q-1,1.1-1.4-.55-.35-2.2-.65-3.8-.45-2.151-1.15.05-.7,2.149-1.9,1.4-3.6-3.9-5.85-6-2.3-2.149-2.65-1.3a2.106,2.106,0,0,0,.3,2.8q.7.7,2.1,2.05.8.75,3.9,4.25a29.621,29.621,0,0,1,3.4,4.7,22.828,22.828,0,0,1,2,5q.5,1.7,1.5,5.2a14.8,14.8,0,0,0,1.3,2.75q-2.95,1.1-4.6,1.75a44.025,44.025,0,0,1-6.4,1.8q-6.1,1.3-8.9,7.7-.45,1.05-1.3,3.2-.9,2.1-2.4-10.05-1.551-12.2-2.05-15.25a96.469,96.469,0,0,0-3.35-11.4q-1.2-3.5-3.3,0v-.1q-.2.8-1.15-.35t-1.35-1.05q-1.1.3-.9,1.3a15.817,15.817,0,0,0,.3,2.15l2.1,12.05a1.523,1.523,0,0,1-.6,1.6,1.39,1.39,0,0,1-1.6,0,22.1,22.1,0,0,1-3.9-2.2q-6.1-4.4-8.3-6.3a12.715,12.715,0,0,0-5.25-2.3,1.886,1.886,0,0,0-2.05.5,1.631,1.631,0,0,0-.2.9,1.631,1.631,0,0,0,.2.9q2.3,2.6,6.4,8.4,3.851,5,7.55,6.3a28.889,28.889,0,0,1,7.5,4.1q3.75,2.8,4.75,3.4.3.2.3,1.4v11.05q0,1.95-1.3,0a19.984,19.984,0,0,0-3.6-3.85q-1.4-1-7-2.7a45.939,45.939,0,0,1-11.15-3.8,31.3,31.3,0,0,1-9.05-7.35q-4.35-4.95-5.85-6.45-1.5-1.551-2.3-2.3t-1.15.1a2.77,2.77,0,0,0,.1,2.7,63.341,63.341,0,0,0,13.1,13.85q3.7,3,20.05,7.75,3.4.85.75,1.1a31.533,31.533,0,0,1-6.1-.1,23.605,23.605,0,0,1-7.4-1.9,49.687,49.687,0,0,1-9.2-6,51.93,51.93,0,0,1-4.55-4.1,26.972,26.972,0,0,1-3.4-3.95q-.649-.7-2.25-2.55l-3.8-5.2q-.75-1.2-1.6-.7a1.156,1.156,0,0,0-.8,1.7,15.952,15.952,0,0,0,1.6,2.8,62.555,62.555,0,0,0,11.2,12.9q11,9.7,22.5,10.2.7,0,4.4.5,4.1.5,5.4,1.7t2,5.1a27.968,27.968,0,0,1,.2,4.4l-1.7,46.1a24.119,24.119,0,0,1-.4,3.3,1.781,1.781,0,0,0,1.9,2q1.4,0,1.5-1.9-.1-2.3-.1-3.2l1.3-44.1.5-3.3a5.213,5.213,0,0,0-.2-3,18.037,18.037,0,0,1-1.3-7.8q.05-2.1.1-3.6.05-1.55.9-.3a1.613,1.613,0,0,0,1.6.8l1.2-.2q1.2-.05,1.15.5-.15.6-.35,1.5-.1,1.5,1.2,1.7a1.5,1.5,0,0,0,2-1.3q.1-2,.1-2.8a13.138,13.138,0,0,1,1.8-6.55q1.5-2.2.9-.6a11.426,11.426,0,0,0-.75,3.9,11.31,11.31,0,0,0,1.05,5.15,2.362,2.362,0,0,0,.75.8,5.671,5.671,0,0,0,2.45.4,21.187,21.187,0,0,0,5.2-.75q3.3-.851,8.4,2.15-6,.7-8.6,1.1a15.588,15.588,0,0,0-8.3,4.4,13.4,13.4,0,0,0-4.1,7.4q-3.5,21.9,4.6,44.3a10.554,10.554,0,0,0,1.75,3,4.128,4.128,0,0,0,1.75,1.5,1.812,1.812,0,0,0,1.3-.2q.9-.45-.7-3.3a40.626,40.626,0,0,1-2.4-5q-1.5-5.4-2.3-8.1a49.1,49.1,0,0,1-1.8-13.7q.1-9.2-.1-13.8a6.348,6.348,0,0,1,1.2-3.8,8.329,8.329,0,0,0,1.6-3.3q.7-4.8,6.9-6.2a33.941,33.941,0,0,1,16.3-.4q1.8.3,1.9,1a6.492,6.492,0,0,0,3.4,4.7,18.839,18.839,0,0,0,5.5,1.5q6.3,1,10.3-.8t4.45-2.35q.45-.551-.05-.75-1.851-.75-5.35.1a43.137,43.137,0,0,1-6.85,1q-5.9.4-8.9-3.6a27.549,27.549,0,0,0,5.55-.6,6.37,6.37,0,0,0,1.95-1.1.753.753,0,0,0-.1-1.3q-.851-.65-3.2-.3a10.5,10.5,0,0,1-3.9-.1,13.15,13.15,0,0,1-2.4-1.2,19.52,19.52,0,0,0-2.4-1.2q-7.8-2.7-9.6-3.1a25.4,25.4,0,0,0-10.1-.7q-1.8.3-2.1-.9-.349-1.2.8-4.45t6.25-3.5a62.019,62.019,0,0,1,7.45-.05,19.735,19.735,0,0,1,7.2,2,51.142,51.142,0,0,0,8.8,3.3q4,1.2,6.3.5,2.4-.7,7.2-2.5a24.032,24.032,0,0,1,7.5-1.4q1.85.1,1.7-2.1-.251-.85-2.1-.7l-13.6,1.2q-1.35.15-.5-1,4.6-4.4,5.2-5.1a17.213,17.213,0,0,0,1.95-3.25m-75.4-8.9a71.4,71.4,0,0,0,6.45,4.45,15.1,15.1,0,0,0,3.7,1.6,3.949,3.949,0,0,1,3.5,3.9q.251,1.6-6.9-2.25-7.2-3.851-10.2-9.25-.6-1.5,3.45,1.55m17.15,9.95q-.049,4.2-2.4-8.45-2.4-12.7-1.4-11.05,3.6,7.9,3.8,19.5"/></svg>