<svg overflow="visible" width="100%" height="100%" viewBox="0 0 115.617 77.759" xmlns="http://www.w3.org/2000/svg"><path d="M36.927,2.823a39.547,39.547,0,0,0-23.7,14.55q-9.051,11.4-11.7,21.85t-.7,12.9q1.95,2.4,1.6,4.4a20.245,20.245,0,0,0-.35,2.4c.033.333.05.517.05.55q1.2,3.3.4,4.35a7.81,7.81,0,0,0-1.25,2.9,5.712,5.712,0,0,0,.45,3.8,4.148,4.148,0,0,0,2.6,2.6q5.3,1.2,5.9,1.3a8.1,8.1,0,0,0,5.9-1.9,7.5,7.5,0,0,0,1.9,3.7,8.711,8.711,0,0,0,3.8,1.4q4.2.8,6.6-3.1,1.2-2.8,1.95-4.85a8.992,8.992,0,0,1,2.3-3.6,18.184,18.184,0,0,1,2.75-2.35,5.339,5.339,0,0,0,2.4-4.1q.8-12.7,10.5-19,3.9-2.6,11.9-2,8,.7,10.25,2.95a53.6,53.6,0,0,1,5.05,5.9q2.749,3.7,2.45,3.9a12.947,12.947,0,0,0-1.3,1.7,30.692,30.692,0,0,0-2.3,3.7,15.747,15.747,0,0,0-2.15,7.75,4.077,4.077,0,0,0,3.2,4.4,10.963,10.963,0,0,0,4.3.3,4.806,4.806,0,0,1,2.3.1,2.727,2.727,0,0,1,1.3,2,4.51,4.51,0,0,0,2.4,3.4q8.3,3.9,13.7.5a8.678,8.678,0,0,1,6.5-1.4q5.1.6,8-4.7a12.492,12.492,0,0,0,1.2-9.7,5.254,5.254,0,0,0-2.8-3.8,15.584,15.584,0,0,0-5.4-1.5q-3.2-.4-3.4-2.3a10.714,10.714,0,0,1,.05-3.45,25.734,25.734,0,0,1,.8-3.35,17.722,17.722,0,0,0,.95-5.9,46.684,46.684,0,0,0-1.9-10.6,27.6,27.6,0,0,0-3.65-7.9q-1.851-2.4-4.1-5.25a32.994,32.994,0,0,0-7.1-6.2q-4.851-3.351-6.35-4.25a27.69,27.69,0,0,0-10.9-3.9,66.614,66.614,0,0,0-17.3-.8,143.271,143.271,0,0,0-17.1,2.6m0,8.1q-1.3.6-2.95,1.3a49.63,49.63,0,0,0-17.85,12.9q-8.1,9.2-8.5,20,.1,2.949-.8,4.1a2.371,2.371,0,0,1-2.75.6q-1.8-.55-1.85-1.85a7.731,7.731,0,0,1,.3-2.55,88.924,88.924,0,0,1,8.1-19.4,43.484,43.484,0,0,1,14.2-15.2,41.194,41.194,0,0,1,12.7-5.2q15.7-3.7,26.6-2.9a40.664,40.664,0,0,1,19.4,6.1,41.342,41.342,0,0,1,14.3,14.5,34.15,34.15,0,0,1,4.4,12.2q1.149,6.8.25,5.1-.3-.55-2.2-5-2.151-5.1-3.1-7.1l-3.75-6.5a16.485,16.485,0,0,0-4.7-5.5,83.051,83.051,0,0,0-9.25-5.5q-4.551-2.3-14.15-3.6-17.2-2.1-28.4,3.5m-9.4,20a19.38,19.38,0,0,0-6.5,9.5q-.251.8-2.25,9.55-.5,2.2-2.6,1.45-3.951-1.3-3.55-3.4a52.906,52.906,0,0,1,1.8-6.5q3.8-12.5,17-19.9a60.62,60.62,0,0,1,25.9-7.5q11.9-.6,18.4,2.7a77.713,77.713,0,0,1,10,5.9,26.776,26.776,0,0,1,7.8,8.5q4.4,7.8,5.2,9.6.7,1.8.1,2.4-.6.7-2.7.6a4.464,4.464,0,0,1-4.5-3.6,30.686,30.686,0,0,0-13.7-17.5,24.791,24.791,0,0,0-14.25-3.75,86.189,86.189,0,0,0-17.8,2.6q-8.151,2.049-18.35,9.35m14.45,9.2a28.4,28.4,0,0,1,9.45-5.45,25.369,25.369,0,0,1,11.95-1.45q6.2.7,9.05,2.1a28.271,28.271,0,0,1,5.25,3.4,16.194,16.194,0,0,1,3.8,4.65q1.4,2.6.7,3-.75.4-2.6-1.75a57.861,57.861,0,0,0-4.75-4.7,21.4,21.4,0,0,0-7.25-4.05,22.32,22.32,0,0,0-10.05-.9,23.153,23.153,0,0,0-9.25,2.7,35.764,35.764,0,0,0-6.65,5,15.942,15.942,0,0,0-3.95,5.2,27.483,27.483,0,0,0-1.45,4.2q-.45,1.8-1.45,1.25-1.05-.55-.7-2.05a16.718,16.718,0,0,1,2.25-4.65,29.267,29.267,0,0,1,5.65-6.5m-33.6,12.45q1.1-1.4,3.6-.35a15.336,15.336,0,0,1,3,1.45,5.483,5.483,0,0,0,2.65.65q2.149.2,4.55.25,2.349.05,3.6.2a12.721,12.721,0,0,1,2.25.35q.95.249,4,1,3.7.9,2.95,3.65a4.049,4.049,0,0,1-3.65,3.15q-2.951.349-2.85,2.5a7.029,7.029,0,0,1-.55,3.45q-.7,1.3-.8,1.45-.4.8-1.4,2.4a4.962,4.962,0,0,1-1.7,1.8,2.6,2.6,0,0,1-3.1-.2,4.752,4.752,0,0,1-1.45-3.5q-.2-2.451-1.65-2.95-1.551-.5-3,1.45a5.615,5.615,0,0,1-4.2,2.1,11.143,11.143,0,0,1-5.6-1.6,2.454,2.454,0,0,1-1.15-2.1q.05-1.2,2-2.8,1.9-1.6.1-3.9t-.6-4.35a15.914,15.914,0,0,1,1.5-2.4q.35-.351,1.5-1.7m23.75-3.85q-2.05,3.549-3.15,3.55a6.4,6.4,0,0,1-3.35-.85q-1-.9.1-3.6,7.1-15.6,22-20.6a39.744,39.744,0,0,1,17.45-1.5q8.8,1.149,13.35,4.35,4.5,3.249,8.7,10.2t-1.8.7a45.078,45.078,0,0,0-13.05-9.7q-7.05-3.45-18.95-.8a28.15,28.15,0,0,0-18.5,13.45q-.8,1.2-2.8,4.8m54.55.45,3.85-1.9a10.194,10.194,0,0,1,5.65-.45q3.649.5,3.5,2.9a15.42,15.42,0,0,0,.2,4.05,2.494,2.494,0,0,0,1.9,2.1q1.5.35,2.7.6t5,1.1q3.75.849,3.25,4.85a27.234,27.234,0,0,1-2.4,6.6q-.7,1.2-3.7,1.9-1.3.3-1.6-.7a4.2,4.2,0,0,0-.6-1.9,2.793,2.793,0,0,0-1.9-1.2c-.2-.067-.434.033-.7.3a3.1,3.1,0,0,0-.6.8q-2.4,4.3-4.4,5.2-2,1-6.6.1a6.021,6.021,0,0,1-4.7-4.5q-.6-2.5-1.2-2.9t-3.3.1l-2,.3q-2.1.2-2.8-.5-.8-.6-1.05-3.4a5.961,5.961,0,0,1,1.4-4.7,23.734,23.734,0,0,0,2.45-3.15,12.879,12.879,0,0,1,.9-1.45q.1-.15,1.35-1.5a5.429,5.429,0,0,1,2.75-1.7q1.449-.45,2.65-.95"/></svg>