<svg overflow="visible" width="100%" height="100%" viewBox="0 0 115.429 83.9" xmlns="http://www.w3.org/2000/svg"><path d="M70.036,6.15q-16.7,3-28.8,5.9-7.4,2-19,5.5-15.3,4.7-19,5.8a6.828,6.828,0,0,0-2.5,1.1,2.844,2.844,0,0,0-.7,2.5q.3,1.4,3.6,23.2a125.414,125.414,0,0,0,5.4,22.8,62.55,62.55,0,0,0,2.9,6.8,38.411,38.411,0,0,0,2.1,4.05,19.63,19.63,0,0,0,3,.1,48.415,48.415,0,0,0,5.45-.3,182.3,182.3,0,0,0,22.05-4.05q7.4-1.7,22-5.1,7.5-1.7,22.4-5.1a154.991,154.991,0,0,0,21.9-7q3.4-1.4,4.1-2.7.8-1.3.3-4.8-2.4-20.5-2.6-23.1a121.955,121.955,0,0,0-4.25-23.7q-.349-1.3-1-3.5-.7-2.25-1.1-3.2A2.009,2.009,0,0,0,104.736.1a5.67,5.67,0,0,0-3.05.3,19.058,19.058,0,0,1-2.65.65q-19.3,3.3-29,5.1m-36.1,11a233.419,233.419,0,0,1,27.7-6.6q12.6-2,37.6-6.8,1.7-.25,3.45-.65,1.7-.45,2.2,2.1.5,2.5,1.75,6.75,1.8,6.1,3.4,19.8.8,7.8,2.3,23.4a5.789,5.789,0,0,1-.2,2.8,3.135,3.135,0,0,1-2.3,1.8q-2.6.8-10.6,3.5-6.5,2.2-10.6,3.2-12,3.1-34.3,7.9-11.3,2.8-17.1,4.1a94.322,94.322,0,0,1-19.25,2.3h-.65a2.414,2.414,0,0,1-2.6-1.5q-.7-1.549-2.1-4.3a98.914,98.914,0,0,1-4.2-13.6q-.5-2.9-4.9-31.3-.4-2.7.1-3.3.4-.8,3-1.5,9.2-2.6,27.3-8.1m63.9,32.6a1.485,1.485,0,0,0-.45-1.6q-.75-.851-6.7,2.15-5.949,2.951-9.25,3.4t-3.3,1.7q0,1.2,1,1.15a32.151,32.151,0,0,0,12.85-3.2q5.5-2.85,5.85-3.6m1-6.3a1.652,1.652,0,0,0-1.15-.95,3.338,3.338,0,0,0-2.2.35q-1.449.55-8.35,2.75a62.561,62.561,0,0,0-10.35,4,1.113,1.113,0,0,0-.6,1.4q.2.95.95.75,6.9-2.3,14.15-4.45,7.2-2.15,7.45-2.8a1.5,1.5,0,0,0,.1-1.05m-11.45-3.7q-4.849,1.6-8.4,2.8-3.6,1.2-4,1.7a1.176,1.176,0,0,0-.15,1.2q.051.349.8.7t9-2.15q8.2-2.5,9.05-3.3.9-.95.05-1.5-1.5-1.1-6.35.55m12.95-24.5q-.2-3.2-2.4-4.1a20.557,20.557,0,0,0-5.15-.8q-1.249-.1-2.35-.15-2.6-.049-2.6,2.65a96.571,96.571,0,0,0,.8,9.8q.1,2.8,1.7,2.8a30.438,30.438,0,0,0,6.3-1.5,7.616,7.616,0,0,0,3.4-1.8q.7-1,.6-3.9l-.3-3m-6.5-1.6a12.522,12.522,0,0,1,2.2.2,2.363,2.363,0,0,1,1.4,2q.6,3.4-.3,4.4a8.12,8.12,0,0,1-3.65,1.35q-2.15.2-2.1-1.2-.049-2.2-.05-3.65.2-3.3,2.5-3.1m-34.9,19.1a25.966,25.966,0,0,0-1.1-4.7q-.6-1.6-1.5-1a2.212,2.212,0,0,0-1.05,1.3,9.764,9.764,0,0,0,.5,3.25q.651,2.55,5.25,28.35.251,1.6.6,2.95.4,1.35,1.4,1t1.1-.75a8.068,8.068,0,0,0-.2-2.2q-.8-6-2.5-15-2-10.1-2.5-13.2m11.8,6.6q-.1,1,1.05,1.1a17.418,17.418,0,0,0,2.65,0,29.687,29.687,0,0,0,8.7-2.3q2.9-1.1,5.95-2.6,3-1.5,3.25-2.1a1.783,1.783,0,0,0,.05-1.25q-.15-.65-1.65-.15l-.9.3q-5.8,2.5-8.7,3.6-5.1,1.9-7.65,1.65t-2.75,1.75"/></svg>