<svg overflow="visible" width="100%" height="100%" viewBox="0 0 116.825 74.029" xmlns="http://www.w3.org/2000/svg"><path d="M1.029,20.2a50.44,50.44,0,0,0-1,11.1q.3,4.9.5,18.5.2,11.7.9,18.5,1.3,6.1,5.9,5.7,3.5-.3,7.7-3.9a127.022,127.022,0,0,1,20.6-12.8l7-3.8q.45-.3,5.1-2.55a13.662,13.662,0,0,0,5.9,4.25q7,2.3,11.3-1a10.444,10.444,0,0,0,3.6-4.9,11.439,11.439,0,0,0,1.55,1.1,42.787,42.787,0,0,0,9.45,4.1q6.1,2,18.2,5.3,8.6,2,12.6.8,6-1.7,6.4-10.2a33.008,33.008,0,0,0-1.6-12.3q-2.7-8-3.7-12.1a31,31,0,0,1-.4-9.6q.8-9.2.8-9.6a6.627,6.627,0,0,0-1.4-4.9,5.342,5.342,0,0,0-4.5-1.9q-7.7.2-12.3,3.4l-29.1,21.6q-1.65,1.35-2,1.65-.351.249-2.6-1.15a9.425,9.425,0,0,0-4.05-1.6,11.519,11.519,0,0,0-1.8-.15,6.6,6.6,0,0,0-1.65.25,4.924,4.924,0,0,0-2.9,1.8,43.523,43.523,0,0,0-3.6,5.05q-.6-1.15-8.4-6.55-13-9-15.9-10.7-17.8-10.9-18.7-4.3-.5,3.7-1.9,10.9m3.9-6.1q1-3.7,1.8-4.2.8-.4,4.1,1.1a151.145,151.145,0,0,1,28.1,17.7l5.95,4.2a3.568,3.568,0,0,1-1.65,2,4.525,4.525,0,0,1-2.7-.3q-14.3-5.7-26.5-5.4a3.6,3.6,0,0,0-2.25.55,3.607,3.607,0,0,0-1.5,1.5q-.5.9.2,1.3.7.349,3.65-.05,2.9-.4,3.4-.4a36.525,36.525,0,0,1,13.1,2.2q12.1,3.9,12.7,4l-.1,1q-16.4,1.7-26.8,6.4a11.51,11.51,0,0,0-2.9,2.1q-1.8,1.8-2.6,2.5-.8.649-.1,1.8,1,1.35,3-1.25,2-2.65,8.7-4.55,5.4-1.4,17.4-3.7,2.9-.5,4.4,2.8a27.186,27.186,0,0,0,1.85,3.4,15.982,15.982,0,0,0-3.15,1.4,11.485,11.485,0,0,1-1.7,1q-18.1,8.9-29.3,17.5-3.8,2.8-6,1.9-2.3-.9-2.2-5.7l-.7-18.3q-.1-11.7,0-17a62.985,62.985,0,0,1,1.8-15.5m102.9-10.4a3.739,3.739,0,0,1,1.3,3.2q-.1,4.4-.9,13.4-.5,2.2-5.2,2.2a47.419,47.419,0,0,0-16.3,4,87.987,87.987,0,0,0-11.05,5.6q-5.351,3.2-4.85,4.7.249,1.05,1.4.55.8-.351,1.2-.55,3.9-2.1,11.7-6.5,7.7-4.2,19.5-5.1a3.985,3.985,0,0,1,4.6,3.2q1,3.7,3.7,11.3,2,6.8,1.2,11.6-1.1,4.4-2.6,5.7-1.6,1.2-5.9,1.2a19.457,19.457,0,0,1-5.4-.6q-2.2-.8-14-4a59.112,59.112,0,0,1-13.3-5.05,43.053,43.053,0,0,0-4-2.1,12.524,12.524,0,0,0-.6-3.35,106.862,106.862,0,0,0-2.9-12,3.734,3.734,0,0,1,0-2.7,5.828,5.828,0,0,1,1.7-1.8q15.7-11.4,26.2-19.6,3.8-2.9,11-4.2a3.809,3.809,0,0,1,3.5.9m-58.2,26.3q.6-.9,1.05-1.65a5,5,0,0,1,1.9-1.55,5.714,5.714,0,0,1,4.1-.15,8.31,8.31,0,0,1,4.35,2.5,7.449,7.449,0,0,1,2,3.35q.3,1.5,2.6,11.6a6.429,6.429,0,0,1-2.6,7.8,8.165,8.165,0,0,1-8.6.5,13.275,13.275,0,0,1-7.8-10.1,16.713,16.713,0,0,1,3-12.3m9.45,3.85a1.749,1.749,0,0,0-1.45-1.5q-1.1-.2-1.05,1a20.66,20.66,0,0,0,.65,3.65q.6,2.4,1.2,4.6t1.35,2.4a1.3,1.3,0,0,0,1.25-.4q.549-.55,0-2.4-1.6-6-1.95-7.35m-5.65-1.05a1.269,1.269,0,0,0-1.25-.2q-.85.2-1.15,1.45a6,6,0,0,0,.1,3.05,21.8,21.8,0,0,0,1.55,5.85,9.12,9.12,0,0,0,1.25,2.05.7.7,0,0,0,.7.2q.8-.2.8-1.5l-1.6-10a1.244,1.244,0,0,0-.4-.9m37.45,5.85a33.028,33.028,0,0,0,4.35.4,1.274,1.274,0,0,0,1.2-.7.983.983,0,0,0,0-1.05,7.026,7.026,0,0,0-2.7-1.05q-2.4-.651-7.7-.05a50.407,50.407,0,0,0-6.85,1.2,20.8,20.8,0,0,0-5.1,1.6q-1.3.75-.75,1.6a1.778,1.778,0,0,0,1.8.7,29.756,29.756,0,0,0,5.15-1.4,32.328,32.328,0,0,1,10.6-1.25"/></svg>