<svg overflow="visible" width="100%" height="100%" viewBox="0 0 81.817 113.421" xmlns="http://www.w3.org/2000/svg"><path d="M58.717,17.588a42.123,42.123,0,0,0-6.1-1.85q-2.351-.45-5.6-.85a52.825,52.825,0,0,1-10.3-3q2.2-4.1,1.7-4.6a3.149,3.149,0,0,1-.8-2.3,6.414,6.414,0,0,1,.4-1.45,8.189,8.189,0,0,0,.45-1.7,1.011,1.011,0,0,0-.35-.9,1.143,1.143,0,0,0-1.1-.15q-.651.2-1.9,2.8a48.018,48.018,0,0,0-2.5,6.25q.3-3.4.4-5.55a11,11,0,0,0,.2-2.8,1.657,1.657,0,0,0-1.2-1.45q-1.1-.4-2.6,3.45a2.92,2.92,0,0,0-3.4-1.1q-.75.2-.5,1a4.39,4.39,0,0,0,1.4,1.8,6.356,6.356,0,0,1,1.6,3.5,30.826,30.826,0,0,1,.5,4.7,4.333,4.333,0,0,1-3.1,4.8q-5.1,2.5-7.7,3.7a75.825,75.825,0,0,0-7.5,4.2q-9.1,7.1-10.3,21.2-.5,6.8-.4,15.9,0,5.3.3,15.9a16.123,16.123,0,0,0,3.2,9.5,19.079,19.079,0,0,0,7.6,6,75.077,75.077,0,0,0,11.5,4.4,36.577,36.577,0,0,0,12.3,1.6,6.131,6.131,0,0,1,4.8,2.1q3.2,3.3,6.8,6.8,3.6,3.45,5.5,3.9,1.249.45.95-5.25-.351-5.751,8.95-8.45a52.871,52.871,0,0,0,9.3-4.5,25.462,25.462,0,0,0,7.4-7.2,15.906,15.906,0,0,0,3.2-9.1q-.3-12.6-.1-28.3a32.266,32.266,0,0,0-1.6-9.2,38.229,38.229,0,0,0-8.2-14.1,40.349,40.349,0,0,0-13.2-9.7m4.2,5.4a18.464,18.464,0,0,1,3.6,2.9l4.5,4.7q7,7.2,7.7,18.3.4,6.6.3,15.6,0,5.2-.2,15.6a9.308,9.308,0,0,1-2,5.4,23.741,23.741,0,0,1-12.5,10.1q-4.9,2-7.35,3.15a14.179,14.179,0,0,0-4,2.5,7.442,7.442,0,0,1-2.15,1.6,2.165,2.165,0,0,1-1.7-.65q-1.5-1.5-2.25-2.15a5.379,5.379,0,0,0-2.95-.9,4.616,4.616,0,0,1-3.25-1.5,14.98,14.98,0,0,1-2.25-4.15q-1.4-4-4-10.1-4.3-10-4.5-23.7a96,96,0,0,1,1.8-22.2,25.61,25.61,0,0,0,.3-5.3q-.2-3.7-.2-5a2.25,2.25,0,0,0-.85-1.9,3.128,3.128,0,0,0-1.25-.6q-.451-.051-.65.85a10.756,10.756,0,0,0,.15,3.3,38.7,38.7,0,0,1-.6,8.65q-1.3,9.4-1.4,10.5a104.857,104.857,0,0,0,.1,19,59.454,59.454,0,0,0,4.9,18.5,98.952,98.952,0,0,1,4.6,12.5,94.151,94.151,0,0,1-10.8-1.1,15.26,15.26,0,0,1-8.85-5.05q-3.051-3.8-6.95-8.7a20.994,20.994,0,0,1-4.5-11.4,54.161,54.161,0,0,1,.15-12.55q1.9-14.9,4.9-20,2.949-5.151,5-8.45a20.223,20.223,0,0,1,5.45-5.9,42.3,42.3,0,0,1,6.9-4.25q3.5-1.751,3.7-2.95.2-1.251.4-2.55t1.45-.4a6.509,6.509,0,0,0,2.45,1.15q2.049.45,10.3,1.65,8.2,1.2,12.4,3.3,4,2.1,4.1,2.2m-58.7,21.7a37.294,37.294,0,0,1,2.8-9.05,16.263,16.263,0,0,1,5.15-6.6q3.3-2.451,1.95-.7-1.4,1.749-1.8,2.35-.851,1.25-2.75,4.75a79.092,79.092,0,0,0-4.1,8.85q-2.2,5.349-1.25.4m7.25,44.7q2.7,3.1.15,2a15.731,15.731,0,0,1-4.6-3.85,15.453,15.453,0,0,1-3.05-6.35q-.951-3.75,1.9.65a66.324,66.324,0,0,0,5.6,7.55m34.5,16.3q-4.1-3.4-1.5-3.15,2.548.2,4.1,3.4t-2.6-.25m-19.25-74.4q-.4-2-3.45-.55a8.253,8.253,0,0,0-4.25,4.25,78.687,78.687,0,0,0-2.9,7.6,27.446,27.446,0,0,0-1.15,7.7q0,3.4.05,12.05a34.682,34.682,0,0,0,3.7,15.8,60.543,60.543,0,0,0,10.2,14.15l.3.3q1,1.149,1.75.75a.845.845,0,0,0,.45-1.15q-.3-.7-.4-.9a21.661,21.661,0,0,0-2.5-3.6,47.561,47.561,0,0,1-9-15.7,32.094,32.094,0,0,1-1.3-7.65q-.3-4.6-.3-7.5v-7.45q0-4.551,3.3-12.4,1.6-3.9,3.75-4.05,2.1-.15,1.75-1.65m23.55,63.25q.9-.051.35-12.5-.6-12.45-1.4-24.25-1.3-20.9-8.4-33.8a38.24,38.24,0,0,0-3.2-4.2q-2.3-1.9-3.9.6-.5.8,0,1.3a10.17,10.17,0,0,0,1.8,1.1,4.859,4.859,0,0,1,2.25,2.3q.75,1.549,3.25,6,2,4.2,4.2,15.1a110.306,110.306,0,0,1,2.15,22.35q0,11.45-.1,15.4a19.953,19.953,0,0,0,1,7.3q1.1,3.3,2,3.3m3.15-68.45a6.711,6.711,0,0,0-2.9-.75q-.651.15-.8.45t.2,1.1q.349.75,1.75.95a5.541,5.541,0,0,1,2.85,1.6q1.5,1.35,3.5,3.55,2.3,2.6,7.4,7.7a17.579,17.579,0,0,1,4.3,9.5q1.4,10.4,1.9,13.3a10.107,10.107,0,0,0,1,3.5,1.635,1.635,0,0,0,1.2.7q1.1.05,1-1.7-1.2-9.6-2-14.2-1.4-8.2-5.4-12.9a132.65,132.65,0,0,0-10.7-10.9,11.34,11.34,0,0,0-3.3-1.9"/></svg>