<svg overflow="visible" width="100%" height="100%" viewBox="0 0 59.325 114.615" xmlns="http://www.w3.org/2000/svg"><path d="M52.5.653q-3.6-.3-4,6-.45,6.251-1.05,7.1-.65.8-5.9.65-5.25-.2-5.8-.7-.6-.5-.7-2.9-.1-2.45-.2-5.55A10.408,10.408,0,0,0,34.2,1.2Q33.653.153,31.3.053A5.094,5.094,0,0,0,28.2.4q-.75.551-1.5,7-.8,6.45.15,21.25t1.2,20.25q-.349.5-10.1,6.45-9.75,5.9-11.8,7.1a9.091,9.091,0,0,0-3.05,2.7A9.852,9.852,0,0,0,1.3,70.2Q.5,78.153.152,86.8A109.631,109.631,0,0,0,.4,102.2q.651,6.7,1,7.2.3.5.7,1.15.5.9,1,1a2.905,2.905,0,0,0,1.8-.2,3.018,3.018,0,0,0,1.5-.9,12.055,12.055,0,0,0,1.05-1.2,10.191,10.191,0,0,0,1.75-6q0-10.6.3-21.3,0-.1.6-4.9.1-2.3,2.7-2,3.3.5,9.8,1.4a6.758,6.758,0,0,1,3,.9q.5.5.6,3.1a95,95,0,0,0,1.45,20.9q1.75,9.2,2.2,11.4t2.85,1.8q2.4-.4,2.65-2.15.2-1.8.75-8,.551-6.249,1.15-14.8.6-8.6-.15-11.75T48.5,70q1.05.4,1.4,12.25.351,11.8,1.35,15.4.951,3.6,1.85,4.3a4.412,4.412,0,0,0,1.7.8,2.21,2.21,0,0,0,1.2-.2,4.518,4.518,0,0,0,1.7-2.25q.9-1.9,1.45-8.2a105.12,105.12,0,0,0-.65-18.25q-1.2-11.9-1.2-15.6a17.712,17.712,0,0,0,.6-3.7l-1-25.8q-.5-15.9-.75-23.75Q56.053.9,52.5.653m-1.25,5.7Q51.4,2.8,52.9,3q1.45.2,1.4,13.15-.1,12.951.5,25.9.55,12.951.05,15.1T48.7,60.7a32.66,32.66,0,0,0-10.6,4.6q-4.9,3.251-8.55,2.25a49.325,49.325,0,0,0-10.25-1.3q-4-.2-12-.1,3.4-3,13.6-9.4,10.2-6.45,10.3-7,.051-.549-.8-10.45-.8-9.9-1.05-21.15-.2-11.25.35-13.55.5-2.25,1.65-1.6,1.1.6,1.05,6.9-.15,6.251,3.3,6.6t8.5.6q5,.25,5.8-.55a4.583,4.583,0,0,0,1-3q.1-3.7.25-7.2m-46.1,62.8Q6,67.9,12.3,68.6q6.251.651,10.4.8,4.15.1,3.95,2.4T25.1,73.9q-1.4-.249-9.95-1.2-8.55-1-9.7-1.65-1.149-.6-.3-1.9M4.6,73.6a3.737,3.737,0,0,1,2.05.65q.7.551.15,13.9-.6,13.35-.6,15.5a10.54,10.54,0,0,1-.25,2.65q-.249.45-2,.7-1.2.6-.95-16.4.251-17.049,1.6-17m24.3-1.5q0-1.749,1.4-1.95a5.856,5.856,0,0,1,2.55.15q1.1.351,1.2,2.15.051,1.8-2,1.95a5.36,5.36,0,0,1-2.65-.2q-.549-.35-.5-2.1m-.15,8.55q.051-4.5,2.7-4.8,2.7-.3,2.4,17.15-.3,17.4-1.15,17.45-.949.051-1.8-4.9-.9-5-1.55-12.7t-.6-12.2M54.6,65a9.721,9.721,0,0,1-2.5,1.25q-1.449.45-1.8-1.55t2.65-3.15q3-1.149,1.65,3.45m-2.8,5.95a2.369,2.369,0,0,1,.25-1.85,10.648,10.648,0,0,1,3.05-1.7q1.35,7.35,1,21.55-.4,14.2-1.9,9.2a104.99,104.99,0,0,1-1.6-15.3l-.8-11.9m-12.55.65q-2.85,1.65-2.35-1.2.5-2.8,4.9-4.8t5.75-.3Q48.9,67,45.5,68.5t-6.25,3.1m5.5-50.35q-2.55,0-5.45.2a27.326,27.326,0,0,1-3.9.1q-2.6-.2-3,.1t-.3,2.5q1.5,22.3,1.7,27.1a3.913,3.913,0,0,0,.7,2.3,3.331,3.331,0,0,0,2.2.8q1.3.1,7.4.9,5.2.3,6.7-.9,1.5-1.1,1-4.9a141.411,141.411,0,0,1-1.05-18.6q.1-8.25-1.7-8.95a11.25,11.25,0,0,0-4.3-.65m-1.25,2.5q3.7-.15,4.45.95L49,50.253q.2,1.8-.4,2.2a4.294,4.294,0,0,1-2.5.2l-7.4-.9a2.7,2.7,0,0,1-2.6-2.9l-1.3-25.1h8.7"/></svg>